<?xml version="1.0" encoding="UTF-8" standalone="no"?>
<!-- Created with Inkscape (http://www.inkscape.org/) -->

<svg
   xmlns:dc="http://purl.org/dc/elements/1.1/"
   xmlns:cc="http://creativecommons.org/ns#"
   xmlns:rdf="http://www.w3.org/1999/02/22-rdf-syntax-ns#"
   xmlns:svg="http://www.w3.org/2000/svg"
   xmlns="http://www.w3.org/2000/svg"
   xmlns:sodipodi="http://sodipodi.sourceforge.net/DTD/sodipodi-0.dtd"
   xmlns:inkscape="http://www.inkscape.org/namespaces/inkscape"
   width="230mm"
   height="230mm"
   viewBox="0 0 230 230"
   version="1.1"
   id="svg5"
   sodipodi:docname="Color_Ikigai_Venn_Diagram.svg"
   inkscape:version="0.92.3 (2405546, 2018-03-11)">
  <metadata
     id="metadata28">
    <rdf:RDF>
      <cc:Work
         rdf:about="">
        <dc:format>image/svg+xml</dc:format>
        <dc:type
           rdf:resource="http://purl.org/dc/dcmitype/StillImage" />
      </cc:Work>
    </rdf:RDF>
  </metadata>
  <sodipodi:namedview
     pagecolor="#ffffff"
     bordercolor="#666666"
     borderopacity="1"
     objecttolerance="10"
     gridtolerance="10"
     guidetolerance="10"
     inkscape:pageopacity="0"
     inkscape:pageshadow="2"
     inkscape:window-width="1920"
     inkscape:window-height="1009"
     id="namedview26"
     showgrid="false"
     inkscape:zoom="0.76787697"
     inkscape:cx="532.3482"
     inkscape:cy="465.45925"
     inkscape:window-x="-8"
     inkscape:window-y="-8"
     inkscape:window-maximized="1"
     inkscape:current-layer="svg5" />
  <defs
     id="defs2" />
  <circle
     r="60.014927"
     cy="74.13472"
     cx="114.99999"
     id="path858"
     style="opacity:1;fill:#7fdeff;fill-opacity:1;fill-rule:evenodd;stroke-width:0.26458299" />
  <circle
     r="60.014927"
     cy="155.86526"
     cx="114.99999"
     id="circle2210"
     style="opacity:1;fill:#ffec7f;fill-opacity:1;fill-rule:evenodd;stroke-width:0.26458299" />
  <circle
     r="60.014927"
     cy="-155.86526"
     cx="114.99999"
     id="circle9872"
     style="opacity:1;fill:#b9ffb4;fill-opacity:1;fill-rule:evenodd;stroke-width:0.26458299"
     transform="rotate(90)" />
  <circle
     r="60.014927"
     cy="-74.13472"
     cx="114.99999"
     id="circle9874"
     style="opacity:1;fill:#ff7fbf;fill-opacity:1;fill-rule:evenodd;stroke-width:0.26458299"
     transform="rotate(90)" />
  <path
     id="circle23793"
     style="fill:#b9f674;fill-opacity:1;fill-rule:evenodd;stroke-width:0.26458299"
     d="m 115.00026,95.850089 a 60.014926,60.014926 0 0 0 -16.73852,2.411741 60.014926,60.014926 0 0 0 -2.41122,16.73799 60.014926,60.014926 0 0 0 60.01494,60.01494 60.014926,60.014926 0 0 0 16.738,-2.41122 60.014926,60.014926 0 0 0 2.41122,-16.73851 60.014926,60.014926 0 0 0 -60.01442,-60.014941 z"
     inkscape:connector-curvature="0" />
  <path
     id="circle23795"
     style="fill:#ffad5f;fill-opacity:1;fill-rule:evenodd;stroke-width:0.26458299"
     d="m 115.00026,95.850089 a 60.014926,60.014926 0 0 0 -60.01495,60.014941 60.014926,60.014926 0 0 0 2.41123,16.73851 60.014926,60.014926 0 0 0 16.73799,2.41122 60.014926,60.014926 0 0 0 60.01495,-60.01494 60.014926,60.014926 0 0 0 -2.38797,-16.761244 60.014926,60.014926 0 0 0 -16.76125,-2.388487 z"
     inkscape:connector-curvature="0" />
  <path
     id="circle23799"
     style="fill:#7f9edf;fill-opacity:1;fill-rule:evenodd;stroke-width:0.26458299"
     d="m 74.13453,54.984884 a 60.014926,60.014926 0 0 0 -16.73799,2.411739 60.014926,60.014926 0 0 0 -2.41123,16.737996 60.014926,60.014926 0 0 0 60.01495,60.014941 60.014926,60.014926 0 0 0 16.73799,-2.41122 60.014926,60.014926 0 0 0 2.41123,-16.73852 60.014926,60.014926 0 0 0 -60.01495,-60.014936 z"
     inkscape:connector-curvature="0" />
  <path
     id="circle28206"
     style="fill:#5cdeda;fill-opacity:1;fill-rule:evenodd;stroke-width:0.26458299"
     d="m 155.86546,54.984884 a 60.014926,60.014926 0 0 0 -60.01494,60.014936 60.014926,60.014926 0 0 0 2.41122,16.73852 60.014926,60.014926 0 0 0 16.73852,2.41122 60.014926,60.014926 0 0 0 60.01442,-60.014941 60.014926,60.014926 0 0 0 -2.38848,-16.761767 60.014926,60.014926 0 0 0 -16.76074,-2.387968 z"
     inkscape:connector-curvature="0" />
  <circle
     style="fill:#ffffff;fill-opacity:1;fill-rule:evenodd;stroke-width:0.23654653"
     id="path19623"
     cx="114.52031"
     cy="115.47968"
     r="35.463299" />
  <path
     id="path69199"
     style="font-style:italic;font-size:25.09900093px;line-height:1.25;font-family:Caladea;-inkscape-font-specification:'Caladea Italic';letter-spacing:0px;word-spacing:0px;stroke-width:0.34859601"
     d="m 98.93663,103.51732 c -1.10435,0 -2.53504,0.25101 -3.03702,0.3514 l -0.12506,0.97875 h 0.32608 c 1.28005,0 1.60611,0.3766 1.60611,1.00408 0,0.15059 -0.025,0.37621 -0.0501,0.5519 l -2.33426,14.58257 h 2.15853 l 0.82837,-5.2958 c 0.57728,-0.20079 1.12945,-0.42678 1.63143,-0.65267 l 2.3089,4.96972 c 0.37648,0.82826 0.728,1.15445 1.35547,1.15445 1.00396,0 2.058,-0.92872 2.61018,-1.4056 l -0.25063,-0.80305 c -0.22589,0.12549 -0.85335,0.47697 -1.28003,0.47697 -0.22589,0 -0.37687,-0.10055 -0.45217,-0.25114 l -2.58485,-4.99453 c 2.86129,-1.55614 4.11603,-3.48865 4.11603,-4.593 l -0.27595,-0.47697 c -0.2008,-0.0502 -0.42649,-0.0755 -0.67748,-0.0755 -0.95376,0 -1.8575,0.22592 -2.58537,0.5271 l 0.10025,0.80305 c 0.35139,0.0251 0.57723,0.22614 0.57723,0.55242 0,0.75297 -1.15451,2.13318 -4.36718,3.41323 l 1.63142,-10.21539 -0.30127,-0.55191 c -0.20079,-0.0251 -0.57724,-0.0501 -0.92863,-0.0501 z m -10.44122,0.72761 -0.12505,0.92862 c 0.82826,0.1004 1.53104,0.27619 2.15852,0.65267 l -2.15852,13.5785 c -0.70278,0.42668 -1.35536,0.55228 -2.15853,0.65268 l -0.12557,0.92862 h 6.62595 l 0.12557,-0.92862 c -0.80316,-0.1004 -1.5811,-0.25109 -2.25878,-0.65268 l 2.15853,-13.5785 c 0.70277,-0.40158 1.33004,-0.55227 2.1332,-0.65267 l 0.12558,-0.92862 z m 22.33817,0.55242 c -0.87846,0 -1.50585,0.77791 -1.50585,1.73167 0,0.70278 0.45168,1.17978 1.15445,1.17978 0.87847,0 1.50585,-0.75311 1.50585,-1.70688 0,-0.70277 -0.40148,-1.20457 -1.15445,-1.20457 z m 31.7252,0 c -0.87846,0 -1.50585,0.77791 -1.50585,1.73167 0,0.70278 0.45167,1.17978 1.15445,1.17978 0.87846,0 1.50585,-0.75311 1.50585,-1.70688 0,-0.70277 -0.40148,-1.20457 -1.15445,-1.20457 z m -10.49135,4.21628 c -3.38836,0 -5.69784,3.48877 -5.69784,7.93129 0,2.91149 1.05458,4.2168 3.13779,4.2168 1.65654,0 2.96175,-1.48094 3.73983,-2.6355 -0.1255,0.62748 -0.20103,1.07954 -0.20103,1.43092 0,0.80317 0.42689,1.20458 1.30535,1.20458 1.10436,0 2.40941,-0.92872 2.96158,-1.4056 l -0.25115,-0.80305 c -0.20079,0.12549 -0.85327,0.47697 -1.33015,0.47697 -0.32629,0 -0.47698,-0.10063 -0.47698,-0.37672 0,-0.35139 0.57756,-3.6895 1.60663,-9.96425 0,0 -0.35156,-0.0501 -0.77825,-0.0501 -0.62747,0 -1.02904,0.35127 -1.28003,0.62735 -0.97886,-0.45178 -1.90748,-0.65267 -2.73575,-0.65267 z m -21.40955,0.0253 c -1.20475,0 -2.73584,0.55235 -3.21272,0.77824 l 0.12557,0.80305 c 0.30119,-0.0251 0.55236,-0.0501 0.77825,-0.0501 0.52708,0 0.82837,0.2006 0.82837,0.67748 0,0.40159 -1.28002,7.88091 -1.28002,8.60878 0,0.92866 0.37609,1.30535 1.35496,1.30535 1.05415,0 2.38459,-0.92872 2.93677,-1.4056 l -0.25115,-0.80306 c -0.1255,0.0753 -0.85334,0.47698 -1.28003,0.47698 -0.40158,0 -0.47697,-0.15084 -0.47697,-0.55242 0,-0.50198 1.35533,-8.68388 1.45572,-9.28626 l -0.30075,-0.47697 c -0.20079,-0.0502 -0.4521,-0.0754 -0.678,-0.0754 z m 9.08576,0 c -3.53897,0 -5.57176,4.09106 -5.57176,7.63002 0,2.5852 0.62731,4.49275 3.18741,4.49275 1.58124,0 2.8863,-1.45562 3.66437,-2.61018 l -0.25063,1.53118 c -0.50198,2.98678 -1.50632,5.24567 -4.24212,5.24567 -1.50594,0 -2.08308,-0.72792 -2.08308,-1.4056 0,-0.35138 0.15076,-0.70273 0.42685,-0.92862 -0.22589,-0.60238 -0.72785,-0.8785 -1.28002,-0.8785 -0.82827,0 -1.70688,0.6271 -1.70688,1.70635 0,1.78203 1.93272,2.66082 4.26693,2.66082 3.99074,0 6.07393,-2.33427 6.8771,-7.35407 l 1.63142,-10.0397 c -0.27609,-0.0251 -0.50186,-0.0501 -0.80305,-0.0501 -0.62747,0 -1.05436,0.30136 -1.30534,0.60255 -1.15456,-0.52708 -2.10843,-0.60255 -2.8112,-0.60255 z m 22.63944,0 c -1.20475,0 -2.73584,0.55235 -3.21272,0.77824 l 0.12557,0.80305 c 0.30119,-0.0251 0.55184,-0.0501 0.77773,-0.0501 0.52708,0 0.82838,0.2006 0.82838,0.67748 0,0.40159 -1.28003,7.88091 -1.28003,8.60878 0,0.92866 0.37661,1.30535 1.35547,1.30535 1.05416,0 2.3846,-0.92872 2.93677,-1.4056 l -0.25114,-0.80306 c -0.1255,0.0753 -0.85335,0.47698 -1.28003,0.47698 -0.40159,0 -0.47697,-0.15084 -0.47697,-0.55242 0,-0.50198 1.35532,-8.68388 1.45572,-9.28626 l -0.30127,-0.47697 c -0.20079,-0.0502 -0.45159,-0.0754 -0.67748,-0.0754 z m -22.06222,1.12964 c 0.70277,0 1.35557,0.27575 1.83245,0.60203 l -0.37672,2.93678 c -0.40159,3.26287 -2.40929,6.14949 -3.76463,6.14949 -1.17966,0 -1.60611,-1.40567 -1.60611,-3.1626 0,-2.73579 1.5557,-6.5257 3.91501,-6.5257 z m 12.24835,0.0501 c 0.55218,0 1.17988,0.17535 1.83245,0.60203 l -0.42685,2.6107 c -0.62748,3.91544 -2.45993,6.42545 -3.81527,6.42545 -0.90357,0 -1.55598,-0.87895 -1.55598,-2.91197 0,-3.16248 1.55615,-6.72621 3.96565,-6.72621 z"
     inkscape:connector-curvature="0" />
  <path
     id="path69167"
     style="font-style:italic;font-size:13.62209988px;line-height:0.80000001;font-family:Caladea;-inkscape-font-specification:'Caladea Italic';letter-spacing:0px;word-spacing:0px;baseline-shift:baseline;vector-effect:none;stroke-width:0.18919501"
     d="m 30.58784,110.40941 -0.0682,0.50384 c 0.4359,0.0545 0.83095,0.15017 1.1715,0.3545 l -1.18494,7.36958 c -0.38142,0.23157 -0.72216,0.29949 -1.15807,0.35398 l -0.0816,0.50385 h 5.61258 l 0.50384,-2.30219 c -0.10897,-0.0136 -0.20455,-0.0269 -0.28628,-0.0269 -0.0954,0 -0.19061,0.0133 -0.27234,0.0269 -0.16346,0.44953 -0.40886,1.04923 -0.81752,1.52601 h -1.32085 c -0.8037,0 -0.95366,-0.12257 -0.89917,-0.53124 l 1.10329,-6.91999 c 0.3678,-0.21795 0.84445,-0.30001 1.29398,-0.3545 l 0.0682,-0.50384 z m 8.93588,2.6019 c -2.16591,0 -3.28248,2.09758 -3.28248,4.24987 0,1.47119 0.76245,2.32958 2.22002,2.32958 2.16591,0 3.283,-2.08447 3.283,-4.25039 0,-1.47119 -0.76297,-2.32906 -2.22054,-2.32906 z m 4.19561,0 c -0.54488,0 -1.30767,0.31322 -1.55287,0.4222 l 0.0816,0.43563 c 0.65386,0.0272 0.80418,0.12263 0.8723,0.64027 l 0.66714,4.98575 c 0.21795,0.0817 0.51792,0.0956 0.73587,0.0956 l 2.51974,-3.90985 c 0.70835,-1.11701 1.00798,-2.07019 1.06247,-2.36988 l -0.14986,-0.25889 c -0.20433,-0.0272 -0.39479,-0.0408 -0.58549,-0.0408 -0.53127,0 -1.00827,0.0949 -1.4578,0.21756 l 0.0548,0.50436 c 0.42228,-0.0136 0.59945,0.13586 0.59945,0.51728 0,0.2452 -0.0548,0.4632 -0.16382,0.79013 -0.17709,0.51764 -1.04859,2.05712 -1.64796,3.01067 l -0.66766,-5.01313 c -0.0817,-0.0136 -0.24534,-0.0269 -0.36794,-0.0269 z m 8.11889,0 c -1.97521,0 -3.35122,1.71641 -3.35122,4.34548 0,1.06252 0.54506,2.23397 2.17971,2.23397 1.08977,0 2.0433,-0.5452 2.5337,-1.0356 l -0.39481,-0.50384 c -0.38142,0.28606 -1.1582,0.83095 -1.86655,0.83095 -0.70835,0 -1.21233,-0.53138 -1.21233,-1.73012 v -0.31316 c 2.30213,0 3.97753,-1.06249 3.97753,-2.38384 0,-0.73559 -0.55831,-1.44384 -1.86603,-1.44384 z m -0.0951,0.62632 c 0.51764,0 0.76275,0.38147 0.76275,0.79014 0,1.00803 -1.0763,1.74356 -2.71095,1.74356 0.21795,-1.43032 0.91292,-2.5337 1.9482,-2.5337 z m -12.21941,0.0274 c 0.64024,0 0.95395,0.61291 0.95395,1.5937 0,2.0297 -0.99476,3.67782 -2.01642,3.67782 -0.66748,0 -0.95343,-0.63983 -0.95343,-1.57975 0,-2.01607 0.967,-3.69177 2.0159,-3.69177 z"
     inkscape:connector-curvature="0" />
  <path
     id="path69035"
     style="font-style:italic;font-size:13.62209988px;line-height:0.80000001;font-family:Caladea;-inkscape-font-specification:'Caladea Italic';letter-spacing:0px;word-spacing:0px;baseline-shift:baseline;vector-effect:none;stroke-width:0.18919501"
     d="m 206.64841,104.75601 c -0.6811,0 -1.63453,0.19068 -1.63453,0.19068 l -0.0816,0.53124 h 0.20412 c 0.62661,0.0136 0.84491,0.17743 0.84491,0.50436 0,0.31331 -1.17151,6.988 -1.17151,7.68273 0,0.47677 0.23119,0.66766 0.70797,0.66766 0.61299,0 1.3214,-0.50444 1.62109,-0.76326 l -0.13591,-0.43563 c -0.14984,0.0954 -0.46343,0.2589 -0.73587,0.2589 -0.16346,0 -0.24495,-0.0684 -0.24495,-0.20464 0,-0.16347 1.21225,-7.54642 1.29398,-8.10493 l -0.1633,-0.29973 c -0.16347,-0.0136 -0.31365,-0.0274 -0.50436,-0.0274 z m -31.07201,0.39532 -0.0677,0.50385 c 0.44953,0.0545 0.817,0.14965 1.15755,0.35398 l -1.1715,7.36957 c -0.38143,0.23158 -0.70803,0.30002 -1.15756,0.3545 l -0.0682,0.50385 h 3.26905 l 0.0548,-0.50385 c -0.43591,-0.0545 -0.84487,-0.13654 -1.22628,-0.3545 l 0.87178,-6.1159 1.63452,6.97425 h 0.73588 l 3.82767,-6.97425 -1.06247,6.1159 c -0.38142,0.23158 -0.72216,0.30002 -1.15807,0.3545 l -0.0677,0.50385 h 3.59616 l 0.0543,-0.50385 c -0.43591,-0.0545 -0.84434,-0.13654 -1.22576,-0.3545 l 1.1715,-7.36957 c 0.38142,-0.21795 0.72164,-0.2995 1.15755,-0.35398 l 0.0682,-0.50385 h -2.19315 l -4.11396,7.50548 -1.72961,-7.50548 z m 25.22844,2.58796 c -1.83899,0 -3.09232,1.89353 -3.09232,4.30464 0,1.58016 0.57211,2.28875 1.70274,2.28875 0.89906,0 1.60756,-0.80379 2.02985,-1.4304 -0.0681,0.34055 -0.10904,0.58547 -0.10904,0.77618 0,0.4359 0.2312,0.65422 0.70797,0.65422 0.59937,0 1.30796,-0.50444 1.60765,-0.76326 l -0.13642,-0.43563 c -0.10898,0.0681 -0.4631,0.2589 -0.72192,0.2589 -0.17708,0 -0.2589,-0.0548 -0.2589,-0.20464 0,-0.19071 0.31327,-2.00242 0.87178,-5.40794 0,0 -0.19062,-0.0269 -0.4222,-0.0269 -0.34055,0 -0.55831,0.19071 -0.69453,0.34055 -0.53127,-0.2452 -1.03513,-0.3545 -1.48466,-0.3545 z m -11.3745,0.0139 c -2.16592,0 -3.283,2.09757 -3.283,4.24986 0,1.47119 0.76297,2.32958 2.22053,2.32958 2.16592,0 3.28249,-2.08447 3.28249,-4.25039 0,-1.47118 -0.76246,-2.32905 -2.22002,-2.32905 z m 4.98574,0 c -0.66748,0 -1.43077,0.28598 -1.74408,0.4222 l 0.0682,0.43563 c 0.16346,-0.0136 0.2996,-0.0269 0.4222,-0.0269 0.28606,0 0.44959,0.0815 0.44959,0.39481 0,0.3133 -0.74928,4.94476 -0.79014,5.25807 h 1.1989 l 0.2589,-1.97507 c 0.32693,-2.45198 1.23968,-3.59617 1.77095,-3.59617 0.17707,0 0.25889,0.1498 0.25889,0.38138 0,0.17708 -0.041,0.36781 -0.10903,0.4904 0.0409,0.0817 0.17714,0.23151 0.44958,0.23151 0.61299,0 0.92604,-0.47679 0.92604,-0.98081 0,-0.51764 -0.3947,-1.03508 -1.00769,-1.03508 -0.72198,0 -1.33496,0.62663 -1.8526,1.66191 l 0.20413,-1.36219 -0.14987,-0.2589 c -0.1226,-0.0272 -0.23138,-0.0408 -0.35398,-0.0408 z m 6.66109,0.64027 c 0.29969,0 0.64009,0.095 0.99426,0.32659 l -0.23151,1.41697 c -0.34056,2.12505 -1.33509,3.48713 -2.07068,3.48713 -0.4904,0 -0.84439,-0.47688 -0.84439,-1.58027 0,-1.71638 0.8446,-3.65042 2.15232,-3.65042 z m -11.64683,0.0134 c 0.64024,0 0.95343,0.61291 0.95343,1.59369 0,2.0297 -0.99424,3.67782 -2.0159,3.67782 -0.66748,0 -0.95395,-0.63983 -0.95395,-1.57975 0,-2.01607 0.96752,-3.69176 2.01642,-3.69176 z m 10.89752,7.2471 c -0.6811,0 -1.3757,0.13619 -1.63452,0.19068 l -0.0816,0.53124 h 0.24495 c 0.59937,0 0.83081,0.20444 0.80356,0.55862 -0.0136,0.23157 -0.27211,1.71588 -0.32659,2.00194 -0.25882,-0.13622 -0.8036,-0.28577 -1.44384,-0.28577 -1.68914,0 -3.0241,1.81156 -3.0241,4.20905 0,1.78449 0.66709,2.3704 1.72961,2.3704 0.87182,0 1.58018,-0.80379 2.00246,-1.43041 -0.0681,0.35418 -0.10904,0.61319 -0.10904,0.81752 0,0.39504 0.2317,0.61289 0.70848,0.61289 0.59937,0 1.30798,-0.50393 1.60766,-0.76275 l -0.13643,-0.43615 c -0.0681,0.0409 -0.44948,0.2589 -0.72192,0.2589 -0.17709,0 -0.2589,-0.0681 -0.2589,-0.19068 0,-0.1226 1.2262,-7.58763 1.30793,-8.11889 l -0.16381,-0.29972 c -0.16347,-0.0136 -0.31313,-0.0269 -0.50385,-0.0269 z m -21.22299,0.28577 c -2.98324,0 -4.42712,2.67007 -4.42712,6.0756 0,2.37024 1.2664,3.22822 2.79208,3.22822 0.95354,0 2.02996,-0.25845 2.92902,-0.85783 l 0.55862,-3.283 h -2.47943 l -0.0817,0.57206 c 0.57213,0.0545 1.0215,0.14959 1.3348,0.24494 l -0.28577,1.75752 c -0.0681,0.46315 -0.79016,0.79013 -1.77095,0.79013 -0.96717,0 -1.67587,-0.57207 -1.67587,-2.23397 0,-2.87426 0.94015,-5.59863 2.96985,-5.59863 0.72196,0 1.06246,0.4495 1.06246,0.87179 0,0.23157 -0.0952,0.47643 -0.27233,0.66714 0.0272,0.31331 0.3133,0.53123 0.68109,0.53123 0.62662,0 0.89917,-0.65368 0.89917,-1.18494 0,-0.83095 -0.73554,-1.58026 -2.23397,-1.58026 z m 5.8844,2.71094 c -2.16591,0 -3.28301,2.09758 -3.28301,4.24987 0,1.47119 0.76297,2.32958 2.22054,2.32958 2.16591,0 3.283,-2.08396 3.283,-4.24987 0,-1.47119 -0.76297,-2.32958 -2.22053,-2.32958 z m 6.57944,0 c -2.16591,0 -3.283,2.09758 -3.283,4.24987 0,1.47119 0.76296,2.32958 2.22053,2.32958 2.16591,0 3.28301,-2.08396 3.28301,-4.24987 0,-1.47119 -0.76297,-2.32958 -2.22054,-2.32958 z m 6.63422,0.61289 c 0.39504,0 0.7492,0.16346 1.02164,0.34054 l -0.23151,1.43041 c -0.34055,2.12504 -1.33493,3.48712 -2.04328,3.48712 -0.4904,0 -0.87179,-0.46294 -0.87179,-1.71617 0,-1.48481 0.84446,-3.5419 2.12494,-3.5419 z m -13.21366,0.0408 c 0.64024,0 0.95343,0.6129 0.95343,1.59369 0,2.0297 -0.99425,3.67833 -2.0159,3.67833 -0.66749,0 -0.95343,-0.64034 -0.95343,-1.58026 0,-2.01607 0.967,-3.69176 2.0159,-3.69176 z m 6.57944,0 c 0.64024,0 0.95395,0.6129 0.95395,1.59369 0,2.0297 -0.99476,3.67833 -2.01642,3.67833 -0.66748,0 -0.95343,-0.64034 -0.95343,-1.58026 0,-2.01607 0.967,-3.69176 2.0159,-3.69176 z"
     inkscape:connector-curvature="0" />
  <path
     id="path69072"
     style="font-style:italic;font-size:13.62209988px;line-height:0.80000001;font-family:Caladea;-inkscape-font-specification:'Caladea Italic';letter-spacing:0px;word-spacing:0px;baseline-shift:baseline;vector-effect:none;stroke-width:0.18919501"
     d="m 97.78167,185.70661 -0.0682,0.50385 c 0.44952,0.0545 0.81751,0.14964 1.15806,0.35398 l -1.1715,7.36959 c -0.38142,0.23158 -0.70854,0.3 -1.15807,0.3545 l -0.0682,0.50384 h 3.26957 l 0.0543,-0.50384 c -0.43591,-0.0545 -0.84435,-0.13655 -1.22577,-0.3545 l 0.87178,-6.11592 1.63453,6.97426 h 0.73587 l 3.82767,-6.97426 -1.06246,6.11592 c -0.38142,0.23158 -0.72216,0.3 -1.15807,0.3545 l -0.0682,0.50384 h 3.59668 l 0.0543,-0.50384 c -0.43591,-0.0545 -0.84435,-0.13655 -1.22577,-0.3545 l 1.17151,-7.36959 c 0.38141,-0.21796 0.72164,-0.29948 1.15755,-0.35398 l 0.0682,-0.50385 h -2.19315 l -4.11396,7.50549 -1.73013,-7.50549 z m 31.35829,2.6014 c -0.57213,0 -1.29457,0.31373 -1.55339,0.42271 l 0.0822,0.43563 c 0.59939,0 0.8173,0.20437 0.87179,0.64027 l 0.6537,4.9041 c -0.65386,1.02166 -1.11724,1.7301 -1.11724,2.26136 0,0.50402 0.34067,0.80356 0.89917,0.80356 0.4904,0 0.92656,-0.31306 0.92656,-0.73535 0,-0.13622 -0.0549,-0.28612 -0.16382,-0.44959 -0.1226,0.0681 -0.23123,0.0951 -0.32659,0.0951 -0.19071,0 -0.32711,-0.10883 -0.32711,-0.31316 0,-0.20433 0.12286,-0.39478 0.24546,-0.58549 l 3.13262,-4.80901 c 0.613,-0.93993 0.96763,-1.94759 1.06299,-2.36989 l -0.14986,-0.25889 c -0.0681,-0.0136 -0.23152,-0.0408 -0.38138,-0.0408 -0.68109,0 -1.40309,0.16307 -1.66191,0.21756 l 0.0543,0.50436 c 0.42228,-0.0136 0.59945,0.13609 0.59945,0.46302 0,0.32693 -0.082,0.64042 -0.24547,1.00821 -0.40866,0.91268 -0.96694,1.92037 -1.56631,2.86029 l -0.66766,-5.02657 c -0.10898,-0.0136 -0.24482,-0.0274 -0.36742,-0.0274 z m -17.50436,5.2e-4 c -2.16591,0 -3.283,2.09758 -3.283,4.24987 0,1.47119 0.76245,2.32958 2.22002,2.32958 2.16591,0 3.283,-2.08447 3.283,-4.25039 0,-1.47118 -0.76245,-2.32906 -2.22002,-2.32906 z m 4.95835,0 c -0.79008,0 -1.71669,0.4222 -1.71669,0.4222 l 0.0682,0.43564 c 0.16347,-0.0136 0.2996,-0.0274 0.4222,-0.0274 0.29969,0 0.46302,0.0955 0.46302,0.36794 0,0.19071 -0.817,5.28547 -0.817,5.28547 h 1.15807 l 0.35398,-2.22054 c 0.25882,-1.63465 1.03547,-3.51451 2.17972,-3.51451 0.40866,0 0.72192,0.29993 0.72192,0.92654 0,0.44954 -0.65423,3.78692 -0.65423,4.23644 0,0.35417 0.0958,0.66714 0.76327,0.66714 v 5.3e-4 c 0.54488,0 1.26662,-0.50444 1.56631,-0.76326 l -0.13643,-0.43563 c -0.0681,0.0409 -0.46295,0.2589 -0.69453,0.2589 -0.19071,0 -0.2589,-0.0682 -0.2589,-0.2589 0,-0.42228 0.61288,-3.28304 0.61288,-3.92328 0,-0.9263 -0.55813,-1.45727 -1.53892,-1.45727 -1.03528,0 -1.74366,0.85811 -2.15233,1.5937 l 0.13591,-1.29398 -0.13591,-0.2589 c -0.10898,-0.0272 -0.23157,-0.0408 -0.34055,-0.0408 z m 8.92246,0 c -1.97521,0 -3.35122,1.71642 -3.35122,4.34549 0,1.06253 0.54506,2.23397 2.17972,2.23397 1.08976,0 2.04329,-0.54521 2.53369,-1.0356 l -0.39532,-0.50384 c -0.38142,0.28607 -1.15769,0.83095 -1.86604,0.83095 -0.70835,0 -1.21233,-0.53137 -1.21233,-1.73012 v -0.31316 c 2.30214,0 3.97754,-1.0625 3.97754,-2.38384 0,-0.7356 -0.55832,-1.44384 -1.86604,-1.44385 z m -0.0956,0.62632 c 0.51764,0 0.76274,0.38147 0.76274,0.79014 0,1.00804 -1.07577,1.74356 -2.71043,1.74356 0.21797,-1.43031 0.91241,-2.5337 1.94769,-2.5337 z m -13.78521,0.0274 c 0.64024,0 0.95343,0.61291 0.95343,1.5937 0,2.02969 -0.99476,3.67781 -2.01641,3.67781 -0.66749,0 -0.95343,-0.63981 -0.95343,-1.57973 0,-2.01608 0.96751,-3.69177 2.01641,-3.69178 z"
     inkscape:connector-curvature="0" />
  <path
     id="path69002"
     style="font-style:italic;font-size:13.62209988px;line-height:0.80000001;font-family:Caladea;-inkscape-font-specification:'Caladea Italic';letter-spacing:0px;word-spacing:0px;baseline-shift:baseline;vector-effect:none;stroke-width:0.18919501"
     d="m 97.78167,36.783411 -0.0682,0.503845 c 0.44952,0.05449 0.81751,0.150169 1.15806,0.354501 l -1.1715,7.369576 c -0.38142,0.231575 -0.70854,0.299495 -1.15807,0.353983 l -0.0682,0.504362 h 3.26957 l 0.0543,-0.504362 c -0.43591,-0.05449 -0.84435,-0.13603 -1.22577,-0.353983 l 0.87178,-6.116423 1.63453,6.974768 h 0.73587 l 3.82767,-6.974768 -1.06246,6.116423 c -0.38142,0.231575 -0.72216,0.299495 -1.15807,0.353983 l -0.0682,0.504362 h 3.59668 l 0.0543,-0.504362 c -0.43592,-0.05449 -0.84435,-0.13603 -1.22577,-0.353983 l 1.1715,-7.369576 c 0.38142,-0.217954 0.72165,-0.300012 1.15755,-0.354501 l 0.0682,-0.503845 h -2.19314 l -4.11396,7.506002 -1.73013,-7.506002 z m 24.35614,1.403015 c -0.39504,0.77646 -0.69454,1.294346 -1.86604,1.607654 l -0.0816,0.449585 h 0.98082 c -0.0409,0.272442 -0.6811,4.181568 -0.6811,4.603853 0,0.694727 0.3677,1.117245 1.1033,1.117245 1.0489,0 1.79808,-0.612752 2.38383,-1.075903 l -0.32711,-0.463538 c -0.46315,0.313308 -1.03514,0.695048 -1.48467,0.695048 -0.31329,0 -0.4904,-0.149899 -0.4904,-0.449585 0,-0.504018 0.62679,-4.154678 0.66766,-4.42712 h 2.15232 l 0.14986,-0.735872 h -2.17971 l 0.21807,-1.321367 z m -10.69341,1.185458 c -1.83899,0 -3.0918,1.893018 -3.0918,4.30413 0,1.580163 0.5721,2.288749 1.70274,2.288749 0.89906,0 1.60705,-0.803787 2.02933,-1.430404 -0.0681,0.340553 -0.10852,0.585988 -0.10852,0.776697 0,0.435907 0.23119,0.653707 0.70797,0.653707 0.59937,0 1.30796,-0.503924 1.60765,-0.762744 l -0.13642,-0.436149 c -0.10898,0.06811 -0.46311,0.258899 -0.72193,0.258899 -0.17708,0 -0.2589,-0.05428 -0.2589,-0.204122 0,-0.19071 0.31328,-2.002414 0.87179,-5.407939 0,0 -0.19062,-0.02739 -0.4222,-0.02739 -0.34055,0 -0.55831,0.190705 -0.69453,0.340548 -0.53126,-0.245198 -1.03565,-0.353984 -1.48518,-0.353983 z m 6.4301,0.01344 c -1.18513,0 -2.15233,0.694638 -2.15233,1.934249 0,0.817326 0.55808,1.348624 1.08934,1.811775 0.4904,0.435907 0.98083,0.803727 0.98083,1.321367 0,0.463151 -0.35388,0.858345 -0.96688,0.858345 -0.74921,0 -1.08985,-0.326958 -1.08985,-0.980818 0,-0.177088 0.0138,-0.354189 0.0274,-0.49041 l -0.49041,-0.08165 -0.40876,1.67535 c 0.31331,0.25882 1.06227,0.531234 1.757,0.531234 1.32134,0 2.31614,-0.858206 2.31614,-2.002462 0,-0.817326 -0.59956,-1.3078 -1.15807,-1.770951 -0.50401,-0.408663 -0.96739,-0.803727 -0.96739,-1.321366 0,-0.51764 0.38154,-0.871782 0.89918,-0.871782 0.53126,0 0.74931,0.204262 0.74931,0.572058 0,0.217954 -0.12264,0.395385 -0.29973,0.504362 0.0954,0.231576 0.35421,0.36742 0.64027,0.36742 0.4904,0 0.7767,-0.353998 0.7767,-0.844393 0,-0.681105 -0.65384,-1.212329 -1.70274,-1.212329 z m 10.31151,0 c -1.97519,0 -3.35069,1.716406 -3.35069,4.345471 0,1.062524 0.54454,2.233972 2.17919,2.233972 1.08977,0 2.04331,-0.544683 2.5337,-1.035079 l -0.39481,-0.504366 c -0.38142,0.286064 -1.15821,0.830957 -1.86655,0.830957 -0.70835,0 -1.21233,-0.530865 -1.21233,-1.72961 v -0.313676 c 2.30213,0 3.97805,-1.06249 3.97805,-2.383834 0,-0.735593 -0.55883,-1.443839 -1.86656,-1.443839 z m 4.29122,0 c -0.66748,0 -1.43026,0.285975 -1.74357,0.422196 l 0.0677,0.436149 c 0.16347,-0.01362 0.30011,-0.02739 0.42271,-0.02739 0.28606,0 0.44907,0.0815 0.44907,0.394808 0,0.313308 -0.74875,4.945285 -0.78962,5.258593 h 1.19838 l 0.2589,-1.97559 c 0.32693,-2.451977 1.23969,-3.596162 1.77095,-3.596162 0.17709,0 0.2589,0.149796 0.2589,0.381372 0,0.177087 -0.041,0.36781 -0.10904,0.490409 0.0409,0.08173 0.17715,0.23151 0.44959,0.23151 0.613,0 0.92604,-0.476801 0.92604,-0.980818 0,-0.51764 -0.39469,-1.035079 -1.00769,-1.035079 -0.72197,0 -1.33496,0.626634 -1.8526,1.661914 l 0.20412,-1.362191 -0.14986,-0.258899 c -0.1226,-0.02724 -0.23138,-0.04082 -0.35398,-0.04082 z m 4.65863,0 c -0.57213,0 -1.29406,0.313219 -1.55288,0.422196 l 0.0817,0.436149 c 0.59938,0 0.81729,0.204364 0.87178,0.640271 l 0.65371,4.903577 c -0.65386,1.021657 -1.11673,1.730099 -1.11673,2.26136 0,0.504018 0.34066,0.803569 0.89917,0.803569 0.49039,0 0.92604,-0.31307 0.92604,-0.735356 0,-0.136221 -0.0543,-0.286119 -0.1633,-0.449585 -0.12259,0.06811 -0.23175,0.0956 -0.32711,0.0956 -0.19071,0 -0.32711,-0.109344 -0.32711,-0.313676 0,-0.204331 0.12286,-0.394784 0.24546,-0.585493 l 3.13314,-4.808492 c 0.613,-0.939925 0.96711,-1.948113 1.06247,-2.370398 l -0.14986,-0.258899 c -0.0681,-0.01362 -0.23153,-0.04082 -0.38137,-0.04082 -0.68111,0 -1.4031,0.163586 -1.66191,0.218074 l 0.0542,0.503846 c 0.42228,-0.01362 0.59945,0.13609 0.59945,0.46302 0,0.326931 -0.0815,0.640411 -0.24494,1.008208 -0.40866,0.91268 -0.96746,1.920882 -1.56684,2.860807 l -0.66714,-5.026567 c -0.10898,-0.01362 -0.24533,-0.02739 -0.36793,-0.02739 z m -9.04493,0.626835 c 0.51764,0 0.76275,0.380953 0.76275,0.789616 0,1.008035 -1.0763,1.744079 -2.71095,1.744079 0.21795,-1.43032 0.91292,-2.533695 1.9482,-2.533695 z m -16.37368,0.01344 c 0.29969,0 0.64008,0.09554 0.99425,0.327111 l -0.23151,1.416451 c -0.34055,2.125048 -1.33508,3.487126 -2.07067,3.487126 -0.4904,0 -0.84439,-0.476875 -0.84439,-1.580265 0,-1.716385 0.8446,-3.650423 2.15232,-3.650423 z"
     inkscape:connector-curvature="0" />
  <path
     id="path68942"
     style="font-style:italic;font-size:10.01350021px;line-height:0.80000001;font-family:Caladea;-inkscape-font-specification:'Caladea Italic';letter-spacing:0px;word-spacing:0px;baseline-shift:baseline;vector-effect:none;stroke-width:0.13907599"
     d="m 87.81949,69.688381 c -0.22061,-0.0042 -0.45901,0.07135 -0.70591,0.228925 -0.64151,0.409422 -0.74099,1.22174 -0.70331,1.839164 L 85.9829,70.900709 85.79584,70.793738 c -0.0783,0.02622 -0.15985,0.06646 -0.22738,0.109554 -0.48957,0.312454 -0.89607,0.940512 -0.89607,0.940512 l 0.21446,0.242879 c 0.0959,-0.07309 0.17466,-0.134967 0.25063,-0.183451 0.1857,-0.118518 0.32479,-0.124376 0.43253,0.04444 0.0754,0.118173 1.58388,3.59823 1.58388,3.59823 l 0.71727,-0.457854 -0.65836,-1.515671 c -0.48607,-1.115266 -0.74831,-2.587088 -0.0393,-3.039607 0.25323,-0.161613 0.56559,-0.09993 0.81339,0.288356 0.17777,0.278548 1.09243,2.604992 1.27021,2.883543 0.14006,0.219464 0.3233,0.376108 0.7369,0.112138 0.33764,-0.215484 0.58535,-0.813546 0.6687,-1.09244 l -0.25631,-0.216004 c -0.026,0.05226 -0.18465,0.343535 -0.32815,0.435115 -0.11817,0.07542 -0.18761,0.05978 -0.26303,-0.05839 -0.167,-0.261667 -0.91831,-2.276498 -1.17151,-2.673223 -0.2175,-0.340801 -0.50182,-0.517398 -0.82423,-0.52348 z m -4.5589,3.233909 c -0.33991,0.0013 -0.69211,0.138695 -1.04541,0.420648 -1.24445,0.993121 -0.92435,2.710945 0.0625,3.947562 0.67457,0.84528 1.50607,0.988206 2.34353,0.319876 1.24444,-0.993121 0.93059,-2.702602 -0.0625,-3.947046 -0.38999,-0.488678 -0.83232,-0.742791 -1.29812,-0.74104 z m -0.37672,0.664043 c 0.28594,0.004 0.60032,0.223396 0.9095,0.610815 0.93067,1.166177 1.11514,2.569088 0.52814,3.037541 -0.38351,0.306057 -0.8413,0.06979 -1.27228,-0.470255 -0.92441,-1.158351 -1.13699,-2.564863 -0.53433,-3.045809 0.11495,-0.09174 0.239,-0.13413 0.36897,-0.132292 z m -4.65863,1.050581 c -0.10107,0.0033 -0.20369,0.04671 -0.29972,0.136428 -0.25611,0.239246 -0.22669,0.637129 0.0331,0.915188 0.1914,0.204885 0.45295,0.220858 0.65784,0.02946 0.2561,-0.239249 0.23392,-0.629896 -0.0258,-0.907955 -0.10767,-0.115249 -0.23542,-0.177318 -0.36536,-0.173117 z m 1.02267,1.258322 c -0.0722,0.04005 -0.15221,0.101258 -0.21807,0.162779 -0.35123,0.328115 -0.64751,0.906008 -0.72502,1.101744 l 0.2558,0.199988 c 0.081,-0.08935 0.14705,-0.165341 0.2129,-0.226862 0.15367,-0.143547 0.29594,-0.166933 0.42582,-0.0279 0.10937,0.117076 1.77322,2.646537 1.97145,2.858738 0.25293,0.270743 0.46549,0.277966 0.75086,0.01138 0.30733,-0.287099 0.44226,-0.920329 0.47336,-1.209743 l -0.29197,-0.165883 c -0.0161,0.05613 -0.119,0.37162 -0.2434,0.487825 -0.11708,0.109371 -0.18001,0.08606 -0.28939,-0.031 -0.13671,-0.146349 -1.96999,-2.901246 -2.10478,-3.104205 z m -1.63607,1.995228 c -0.30391,0.0071 -0.64729,0.172178 -0.96067,0.50591 -0.59634,0.635074 -0.71078,1.502725 -0.0465,2.126485 0.43799,0.411274 1.00378,0.379264 1.51929,0.327631 0.48036,-0.04344 0.92409,-0.120946 1.20148,0.139525 0.24819,0.233053 0.28158,0.621327 -0.0269,0.949812 -0.377,0.401484 -0.72345,0.419452 -1.07384,0.09043 -0.0949,-0.08911 -0.18294,-0.185121 -0.24908,-0.260967 l -0.29042,0.221176 0.69195,1.062466 c 0.29635,-0.03766 0.81934,-0.302091 1.16892,-0.674375 0.66489,-0.708073 0.70568,-1.672662 0.0925,-2.248442 -0.43798,-0.411271 -1.00246,-0.337019 -1.53169,-0.270786 -0.47261,0.06445 -0.91737,0.113713 -1.19476,-0.146761 -0.27739,-0.260472 -0.27546,-0.64297 -0.015,-0.920356 0.26733,-0.284689 0.48659,-0.29876 0.68368,-0.113689 0.11679,0.109672 0.15008,0.264713 0.11937,0.414446 0.17208,0.06543 0.37541,-0.0048 0.51935,-0.158131 0.24676,-0.262789 0.20077,-0.594529 -0.062,-0.841293 -0.14828,-0.139232 -0.33777,-0.207965 -0.5457,-0.203086 z m -2.59364,2.91765 c -0.32703,-0.0039 -0.69703,0.187283 -1.01441,0.581359 -0.54644,0.678489 -0.59444,1.552852 0.11524,2.124419 0.46792,0.376856 1.02933,0.301953 1.53944,0.211357 0.47567,-0.07976 0.91236,-0.191138 1.20871,0.04754 0.26516,0.21355 0.32812,0.598871 0.0455,0.949811 -0.34545,0.42893 -0.68968,0.473052 -1.06401,0.171567 -0.10139,-0.08165 -0.1965,-0.171238 -0.26821,-0.241845 l -0.27285,0.242877 0.77102,1.006657 c 0.29263,-0.06003 0.79381,-0.363458 1.11414,-0.761193 0.60925,-0.756473 0.57654,-1.721358 -0.0786,-2.248958 -0.46793,-0.376857 -1.02504,-0.259675 -1.54771,-0.153479 -0.46636,0.100123 -0.90616,0.182872 -1.20251,-0.05581 -0.29635,-0.238675 -0.32292,-0.620389 -0.0842,-0.916739 0.24495,-0.304149 0.46226,-0.334433 0.67283,-0.164848 0.12477,0.100496 0.16964,0.252478 0.15037,0.404111 0.17655,0.05219 0.37402,-0.03363 0.50592,-0.197406 0.22611,-0.280752 0.15517,-0.607425 -0.12558,-0.83354 -0.13404,-0.107953 -0.29379,-0.163846 -0.46509,-0.16588 z m -3.00809,3.149161 c 0,0 -0.0939,0.105746 -0.1881,0.247531 -0.13854,0.20851 -0.11074,0.419431 -0.0744,0.56379 -0.36624,0.225526 -0.63775,0.48958 -0.82062,0.76481 -0.74811,1.12595 -0.0985,2.663891 1.37769,3.644738 0.96749,0.642819 1.63347,0.580631 2.09341,-0.111619 0.36575,-0.550466 0.16226,-1.311233 -0.0496,-1.824694 0.18081,0.180239 0.31422,0.304821 0.43099,0.382405 0.26689,0.177326 0.49437,0.124481 0.68833,-0.167431 0.24382,-0.366977 0.22362,-1.005718 0.18706,-1.294495 l -0.32246,-0.09405 c -0.003,0.09443 -0.0301,0.388787 -0.13539,0.547254 -0.072,0.108424 -0.13873,0.136406 -0.23048,0.07545 -0.11676,-0.07758 -1.09851,-1.006345 -2.9564,-2.733683 z m 0.0326,1.199412 0.77308,0.718301 c 1.16256,1.072986 1.59219,2.235761 1.29295,2.68614 -0.1995,0.300255 -0.63546,0.323289 -1.31103,-0.125574 -1.05089,-0.69823 -1.8916,-2.002253 -1.35961,-2.802929 0.12191,-0.183486 0.31875,-0.353296 0.60461,-0.475938 z m -3.70985,2.167308 c -0.5746,0.01156 -1.06984,0.466815 -1.53427,1.352888 l -1.09244,2.084113 0.30489,0.216524 c 0.18888,-0.274084 0.3812,-0.489828 0.63045,-0.641824 l 4.39353,3.286107 c 0.0206,0.327358 -0.0464,0.563607 -0.16433,0.874882 l 0.30489,0.216524 1.23197,-2.350246 -0.30954,-0.207738 c -0.18424,0.265214 -0.38164,0.512395 -0.64906,0.677477 l -1.8681,-1.397328 0.16278,-0.310576 c 0.79028,-1.507736 0.81113,-2.819837 -0.6966,-3.610115 -0.25193,-0.132054 -0.48932,-0.195215 -0.71417,-0.190688 z m -0.23461,0.839742 c 0.16826,0.0037 0.35099,0.05551 0.54777,0.158647 1.06428,0.557845 1.25651,1.528839 0.69867,2.593123 L 69.21446,91.16407 67.17428,89.6422 c -0.24283,-0.183806 -0.24947,-0.300281 0.0341,-0.841293 0.22052,-0.420725 0.51969,-0.645226 0.88986,-0.63717 z"
     inkscape:connector-curvature="0" />
  <path
     id="path68975"
     style="font-style:italic;font-size:10.01350021px;line-height:0.80000001;font-family:Caladea;-inkscape-font-specification:'Caladea Italic';letter-spacing:0px;word-spacing:0px;baseline-shift:baseline;vector-effect:none;stroke-width:0.18919501"
     d="m 147.46442,70.690903 -0.26561,0.263033 c 0.22931,0.22738 0.41642,0.459928 0.52296,0.731737 l -3.9982,3.758427 c -0.32598,-0.03639 -0.55481,-0.149736 -0.83303,-0.313674 l -0.27336,0.256831 3.26698,2.519225 1.32653,-1.114145 c -0.0573,-0.05684 -0.10641,-0.107489 -0.15399,-0.144176 -0.0555,-0.0428 -0.11736,-0.0777 -0.17105,-0.106453 -0.29694,0.188315 -0.70875,0.427297 -1.16065,0.521414 l -0.76895,-0.593243 c -0.46787,-0.360751 -0.50041,-0.499179 -0.28525,-0.712618 l 3.74861,-3.533119 c 0.31193,0.03821 0.62593,0.2046 0.91208,0.374655 l 0.26614,-0.263033 z m 2.75694,5.45393 c -0.86317,-7.94e-4 -1.76373,0.488413 -2.44119,1.208712 -0.74093,0.787768 -0.76444,1.631164 0.016,2.365229 1.15977,1.090809 2.80715,0.537589 3.89796,-0.622183 0.74092,-0.787771 0.76496,-1.63168 -0.0155,-2.365748 -0.43491,-0.409051 -0.93937,-0.585568 -1.45727,-0.58601 z m 0.44597,0.706932 c 0.27777,-0.0016 0.51539,0.07262 0.68213,0.229444 0.34283,0.32244 0.20146,0.808075 -0.29249,1.333252 -1.0222,1.086831 -2.38453,1.468995 -2.9316,0.954465 -0.35741,-0.336161 -0.18812,-0.823237 0.28525,-1.326536 0.71391,-0.759047 1.59883,-1.186973 2.25671,-1.190625 z m 2.49804,1.747182 -0.2005,0.256831 c 0.30269,0.373896 0.32269,0.502584 0.0703,0.791683 L 150.61,82.438506 c 0.0608,0.159935 0.19846,0.331949 0.30437,0.452167 l 3.38068,-0.509529 c 0.96032,-0.152066 1.63188,-0.450286 1.82366,-0.565856 l 0.0703,-0.208256 c -0.0843,-0.125945 -0.16933,-0.23794 -0.262,-0.343131 -0.25815,-0.293034 -0.54232,-0.509772 -0.82838,-0.69815 l -0.25166,0.27492 c 0.21271,0.226304 0.2158,0.397053 0.006,0.582393 -0.13525,0.119147 -0.28194,0.194768 -0.51521,0.293521 -0.37157,0.153855 -1.64414,0.421227 -2.46135,0.553971 l 2.44068,-2.80448 c -0.0322,-0.0517 -0.10425,-0.148383 -0.16382,-0.216006 -0.26477,-0.300548 -0.80829,-0.56883 -0.98754,-0.651123 z m 3.18533,4.707723 c -0.68915,-0.0032 -1.4575,0.264999 -2.21278,0.818039 -0.63017,0.461436 -1.0887,1.29341 -0.37879,2.262909 0.47326,0.646333 1.21081,0.975286 1.71463,1.053166 l 0.12712,-0.453202 c -0.33531,-0.101983 -0.99566,-0.325575 -1.30328,-0.745691 -0.30762,-0.420118 -0.21125,-0.950116 0.49971,-1.47071 l 0.18552,-0.135911 c 0.99978,1.365379 2.35773,1.89779 3.14141,1.323951 0.43627,-0.319455 0.61393,-0.958144 0.046,-1.733743 -0.4423,-0.604044 -1.08591,-0.915427 -1.81953,-0.918808 z m 0.41703,0.691946 c 0.4131,-0.0016 0.76481,0.135342 0.98961,0.442352 0.2248,0.307006 0.10491,0.617823 -0.13746,0.7953 -0.59786,0.437772 -1.50134,0.118904 -2.21124,-0.850596 0.47149,-0.245948 0.94599,-0.385532 1.35909,-0.387056 z"
     inkscape:connector-curvature="0" />
  <path
     id="path69136"
     style="font-style:italic;font-size:10.01350021px;line-height:0.80000001;font-family:Caladea;-inkscape-font-specification:'Caladea Italic';letter-spacing:0px;word-spacing:0px;baseline-shift:baseline;vector-effect:none;stroke-width:0.18919501"
     d="m 73.64826,140.4825 c -0.94421,0.0121 -1.98916,0.39747 -3.00447,1.0604 -1.32475,0.86496 -1.55738,1.93759 -0.96067,2.85151 0.50913,0.77976 1.16944,1.14968 2.23811,1.5043 l 0.18552,-0.50333 c -0.83889,-0.27744 -1.47722,-0.61435 -1.82211,-1.14257 -0.35584,-0.54499 -0.2082,-1.17963 0.75602,-1.80919 1.75237,-1.14417 3.81543,-1.66601 4.63951,-0.4222 0.27338,0.45533 0.15875,0.8294 -0.10955,1.0046 -0.14254,0.0931 -0.33183,0.13261 -0.52038,0.10025 -0.1819,0.14269 -0.20104,0.40664 -0.0532,0.63303 0.25182,0.38568 0.76337,0.2905 1.09037,0.077 0.51146,-0.33394 0.67712,-1.08791 0.0749,-2.01021 -0.61819,-0.9468 -1.50893,-1.35653 -2.51406,-1.34359 z m 1.30534,4.46691 c -0.72805,0.007 -1.54311,0.32203 -2.28099,0.90692 -0.91028,0.72154 -1.05733,1.3744 -0.54106,2.02572 0.41054,0.51792 1.197,0.55911 1.7508,0.51625 -0.22728,0.11626 -0.38726,0.20489 -0.49713,0.29198 -0.25111,0.19905 -0.27093,0.43175 -0.0532,0.70641 0.27369,0.34527 0.88763,0.52328 1.17357,0.57774 l 0.18862,-0.2775 c -0.089,-0.0317 -0.36034,-0.14856 -0.47852,-0.29765 -0.0809,-0.10202 -0.0868,-0.17395 -5.3e-4,-0.24237 0.10986,-0.0871 1.29664,-0.734 3.51348,-1.96733 0,0 -0.0715,-0.12239 -0.17725,-0.25579 -0.1555,-0.19618 -0.36463,-0.2349 -0.51315,-0.24495 -0.10133,-0.418 -0.26912,-0.75803 -0.47439,-1.01699 -0.39362,-0.49659 -0.96783,-0.72899 -1.61023,-0.72244 z m 0.38034,0.77567 c 0.40328,-8e-4 0.75379,0.12006 0.97772,0.40255 0.13685,0.17264 0.23781,0.41215 0.26613,0.72192 l -0.9219,0.51367 c -1.37968,0.77417 -2.61846,0.82322 -2.95435,0.39946 -0.22392,-0.28251 -0.11111,-0.70435 0.52452,-1.2082 0.61797,-0.48983 1.43575,-0.8282 2.10788,-0.8294 z m 2.55385,2.06085 -0.19947,0.2558 c 0.0894,0.0809 0.16476,0.14711 0.22634,0.21291 0.14369,0.15353 0.18212,0.28239 0.0139,0.43976 -0.16811,0.15734 -3.0285,2.08067 -3.21841,2.21692 l 0.60152,0.64286 1.19011,-0.85318 c 1.48022,-1.05615 2.55313,-1.14089 2.81998,-0.85576 0.0889,0.095 0.0494,0.21389 -0.0749,0.33021 -0.095,0.0889 -0.2178,0.16308 -0.31781,0.1881 -0.0233,0.063 -0.0356,0.21138 0.10129,0.3576 0.3079,0.329 0.72115,0.25732 0.99166,0.005 0.27783,-0.26001 0.35752,-0.73192 0.0496,-1.06092 -0.36264,-0.38749 -1.00697,-0.40188 -1.82262,-0.15967 l 0.83354,-0.57412 0.0636,-0.21085 c -0.047,-0.0795 -0.094,-0.14453 -0.15555,-0.21033 -0.33528,-0.35825 -0.87229,-0.62424 -1.10277,-0.72397 z m 2.81637,3.29902 c -0.80977,0.003 -1.68925,0.43176 -2.46652,1.2759 -0.52906,0.57457 -0.81781,1.47945 0.0662,2.2934 0.58931,0.54263 1.3763,0.72276 1.88567,0.70176 l 0.0372,-0.46922 c -0.34869,-0.0352 -1.0396,-0.12737 -1.42265,-0.48007 -0.38305,-0.35271 -0.39122,-0.8907 0.20567,-1.53893 l 0.15607,-0.1695 c 1.24491,1.14631 2.67984,1.40597 3.33778,0.69143 0.36627,-0.39778 0.41726,-1.05882 -0.28991,-1.70997 -0.43392,-0.39955 -0.95541,-0.5969 -1.50947,-0.5948 z m 0.38602,0.61082 c 0.28839,-0.004 0.5497,0.0816 0.75964,0.27492 0.27993,0.25775 0.22261,0.58619 0.0191,0.80718 -0.50193,0.54511 -1.45026,0.40726 -2.33422,-0.40669 0.51879,-0.41558 1.0748,-0.66935 1.55546,-0.67541 z m 2.77761,1.99213 c -0.86348,5.3e-4 -1.78328,0.50341 -2.54558,1.47898 -0.48091,0.61545 -0.6957,1.54063 0.25114,2.28049 0.63123,0.49323 1.43031,0.60935 1.93632,0.54724 l -5.3e-4,-0.47076 c -0.3504,-0.007 -1.04698,-0.0426 -1.45727,-0.36329 -0.4103,-0.32061 -0.46195,-0.85646 0.0806,-1.55082 l 0.14211,-0.18189 c 1.33346,1.04195 2.78469,1.18496 3.38273,0.41961 0.33294,-0.42609 0.33011,-1.08916 -0.42736,-1.68104 -0.41116,-0.32128 -0.8778,-0.47881 -1.36219,-0.47852 z m 0.35088,0.57981 c 0.24662,-0.003 0.47555,0.0648 0.67231,0.2186 0.29983,0.23428 0.2692,0.56633 0.0842,0.80304 -0.45624,0.58388 -1.41219,0.52282 -2.35903,-0.21704 0.51978,-0.49035 1.0975,-0.79774 1.60249,-0.8046 z m 2.04639,1.06815 -0.13591,0.29455 c 0.10556,0.0583 0.19422,0.1056 0.26923,0.15555 0.17503,0.11657 0.24186,0.23309 0.11421,0.42478 -0.12766,0.1917 -2.47302,2.72038 -2.62568,2.89543 l 0.73329,0.48834 0.96324,-1.10328 c 1.19907,-1.36702 2.22364,-1.69492 2.54869,-1.47847 0.10834,0.0721 0.0974,0.19679 0.003,0.33848 -0.0721,0.10835 -0.17503,0.20854 -0.26666,0.2558 -0.008,0.0667 0.0142,0.21403 0.18087,0.32504 0.37506,0.24976 0.76099,0.0857 0.96635,-0.22271 0.21091,-0.31671 0.17972,-0.79463 -0.19533,-1.0444 -0.44174,-0.29415 -1.0717,-0.16052 -1.81023,0.26201 l 0.67954,-0.75035 0.0139,-0.2191 c -0.0639,-0.0666 -0.12497,-0.11955 -0.19998,-0.1695 -0.4084,-0.27196 -0.99149,-0.40786 -1.23869,-0.45217 z"
     inkscape:connector-curvature="0" />
  <path
     id="path69101"
     style="font-style:italic;font-size:10.01350021px;line-height:0.80000001;font-family:Caladea;-inkscape-font-specification:'Caladea Italic';letter-spacing:0px;word-spacing:0px;baseline-shift:baseline;vector-effect:none;stroke-width:0.18919501"
     d="m 159.94067,136.30395 c -0.37696,-0.004 -0.70112,0.22032 -0.92915,0.66042 -0.3501,0.67572 -0.0298,1.42859 0.31213,1.94407 l -0.7984,-0.52658 -0.21498,0.002 c -0.0546,0.0619 -0.10525,0.13713 -0.14211,0.20825 -0.26717,0.51568 -0.30437,1.26298 -0.30437,1.26298 l 0.30747,0.10283 c 0.0464,-0.1113 0.0836,-0.20472 0.12506,-0.28473 0.10134,-0.19561 0.21854,-0.2699 0.39636,-0.17777 0.12447,0.0645 3.17345,2.32078 3.17345,2.32078 l 0.39171,-0.75551 -1.32964,-0.98236 c -0.9794,-0.72172 -1.94396,-1.86385 -1.55701,-2.6107 0.13819,-0.26672 0.44007,-0.37002 0.84905,-0.15813 0.2934,0.15202 2.25063,1.70731 2.54403,1.85932 0.23117,0.11978 0.46777,0.16333 0.69349,-0.27232 0.18427,-0.35564 0.0996,-0.99743 0.032,-1.28054 l -0.33073,-0.0584 c 0.004,0.0583 0.0121,0.3899 -0.0661,0.54105 -0.0645,0.12447 -0.13185,0.14614 -0.25632,0.0816 -0.27562,-0.1428 -1.93546,-1.51052 -2.35334,-1.72702 -0.18894,-0.0979 -0.37126,-0.14692 -0.5426,-0.14883 z m -2.13631,4.23695 c -0.48605,0.003 -0.91953,0.26614 -1.264,0.80098 -0.86211,1.33855 -0.0104,2.86401 1.31981,3.7207 0.9092,0.58558 1.74322,0.45585 2.32338,-0.44493 0.86211,-1.33854 0.0182,-2.85859 -1.32034,-3.7207 -0.36936,-0.2379 -0.72629,-0.35803 -1.05885,-0.35605 z m -0.35295,0.78806 c 0.24219,-5.2e-4 0.53531,0.11093 0.85731,0.31834 1.25436,0.80788 1.87738,2.07851 1.47072,2.7099 -0.26568,0.41251 -0.77564,0.33437 -1.35651,-0.0398 -1.24594,-0.80246 -1.89648,-2.06685 -1.47898,-2.71508 0.11946,-0.18547 0.29376,-0.27298 0.50746,-0.27337 z m -3.83439,1.62368 c -0.1303,-0.002 -0.25595,0.0605 -0.35708,0.19585 -0.20976,0.28076 -0.11105,0.66679 0.19378,0.89452 0.22462,0.16781 0.48538,0.13725 0.65319,-0.0873 0.20976,-0.28077 0.11881,-0.66109 -0.18603,-0.88882 -0.0983,-0.0734 -0.20251,-0.11296 -0.30386,-0.11422 z m 1.14257,1.06609 c -0.064,0.0522 -0.1321,0.12625 -0.18604,0.19844 -0.26755,0.35812 -0.44922,0.92031 -0.50694,1.16323 l -0.11008,-0.1385 -1.02991,1.22733 -0.6413,-0.74674 -0.25735,0.30697 c 0.2507,0.58929 0.40074,1.00242 0.0238,1.81023 l 0.21446,0.25838 0.46354,-0.55242 c 0.13413,0.15172 2.03334,2.35902 2.27118,2.5585 0.39127,0.32819 0.80283,0.32078 1.15031,-0.0935 0.4955,-0.59075 0.50454,-1.30235 0.52038,-1.85104 l -0.41547,-0.0346 c -0.0423,0.40885 -0.0977,0.91109 -0.31006,1.16427 -0.148,0.17646 -0.31594,0.20569 -0.48473,0.0641 -0.28387,-0.23809 -2.04402,-2.31584 -2.17816,-2.46756 l 1.01648,-1.2118 -0.1571,-0.19794 0.19947,0.10543 c 0.0639,-0.10226 0.11556,-0.18825 0.1695,-0.26046 0.12585,-0.16845 0.26204,-0.2167 0.41445,-0.10282 0.12836,0.0959 2.21321,2.29116 2.44584,2.46496 0.29682,0.22175 0.5073,0.1909 0.74104,-0.12196 0.25171,-0.33692 0.27223,-0.98347 0.25166,-1.27382 l -0.31625,-0.11163 c -0.006,0.0581 -0.0516,0.3866 -0.15348,0.52297 -0.0959,0.12835 -0.16207,0.11653 -0.29043,0.0207 -0.16043,-0.11985 -2.45195,-2.50712 -2.62051,-2.68303 z m -3.28146,4.07571 c 0,0 -0.11256,0.0859 -0.23202,0.20723 -0.17568,0.17834 -0.18855,0.39087 -0.18035,0.5395 -0.40247,0.15173 -0.71947,0.35939 -0.95137,0.5948 -0.94866,0.96305 -0.60378,2.59627 0.65888,3.84008 0.82751,0.81514 1.49362,0.88097 2.07687,0.28887 0.46379,-0.47082 0.40849,-1.25654 0.29818,-1.80093 0.14319,0.21135 0.25049,0.35948 0.35036,0.45786 0.22828,0.22486 0.46202,0.21604 0.70797,-0.0336 0.30919,-0.31389 0.41037,-0.94513 0.42943,-1.23559 l -0.29817,-0.15348 c -0.0205,0.0922 -0.10368,0.37606 -0.2372,0.5116 -0.0914,0.0927 -0.16182,0.1073 -0.24029,0.03 -0.0999,-0.0984 -0.88697,-1.19705 -2.38229,-3.24631 z m -0.19637,1.18391 0.62219,0.85215 c 0.93718,1.27456 1.13755,2.49832 0.75809,2.88354 -0.25298,0.25681 -0.68514,0.19609 -1.26297,-0.3731 -0.89885,-0.88542 -1.4761,-2.32533 -0.8015,-3.01015 0.1546,-0.15695 0.38021,-0.28643 0.68419,-0.35244 z m -2.84633,2.30271 c -0.31184,-0.006 -0.67545,0.12886 -1.05214,0.44958 -1.04453,0.88934 -0.91733,2.49095 0.25115,3.86332 0.766,0.89968 1.57294,0.93599 2.40399,0.22841 h 5.3e-4 c 0.73956,-0.62967 0.84904,-1.64382 0.84904,-1.64382 l -0.44597,-0.10697 c 0,0 -0.17647,0.87377 -0.62631,1.25677 -0.41171,0.35055 -0.96354,0.32057 -1.53479,-0.35037 -0.82443,-0.96829 -1.18473,-2.41089 -0.55191,-2.94969 0.21348,-0.18176 0.45222,-0.148 0.60152,0.0274 0.14281,0.16774 0.18939,0.29892 0.20825,0.50643 0.15157,0.14713 0.37835,0.15148 0.56896,-0.0109 0.26685,-0.2272 0.23918,-0.67688 0.005,-0.95136 -0.16736,-0.19656 -0.40233,-0.31312 -0.67748,-0.31885 z m -6.21875,2.24843 -1.93373,1.13636 0.14418,0.3447 c 0.29657,-0.12777 0.57392,-0.20948 0.85214,-0.21033 l 0.5979,4.99142 -2.9068,-3.62355 c 0.18649,-0.29538 0.37188,-0.4739 0.62787,-0.67076 l -0.14418,-0.34467 -2.14974,1.26297 0.14418,0.34467 c 0.2138,-0.0908 0.44463,-0.13311 0.65939,-0.14314 l 3.94343,4.75578 c 0.1376,-0.0228 0.36008,-0.11857 0.50178,-0.21341 l -0.71727,-6.75567 c 0.13922,-0.19794 0.30409,-0.35312 0.52555,-0.52969 z m 2.76831,0.53486 c -0.31698,0.003 -0.65025,0.12336 -0.99064,0.3669 -1.29486,0.92644 -1.0653,2.65827 -0.14469,3.94498 0.62928,0.87952 1.45251,1.06632 2.32389,0.44287 1.29485,-0.92643 1.07113,-2.65013 0.14469,-3.94498 -0.38346,-0.53597 -0.83876,-0.81489 -1.33325,-0.80977 z m -0.37414,0.64337 c 0.29659,-7.9e-4 0.61366,0.23795 0.91519,0.65939 0.86817,1.21342 0.97872,2.62433 0.36794,3.06131 -0.39904,0.28552 -0.84388,0.025 -1.24592,-0.53691 -0.86235,-1.20528 -1.00069,-2.62042 -0.37362,-3.06906 0.10765,-0.077 0.22035,-0.11442 0.33641,-0.11473 z"
     inkscape:connector-curvature="0" />
  <flowRoot
     xml:space="preserve"
     id="flowRoot880"
     style="fill:black;fill-opacity:1;stroke:none;font-family:Calibri;font-style:normal;font-weight:bold;font-size:16px;line-height:1.25;letter-spacing:0px;word-spacing:0px;-inkscape-font-specification:'Calibri Bold';font-stretch:normal;font-variant:normal"><flowRegion
       id="flowRegion882"><rect
         id="rect884"
         width="76.018578"
         height="103.90234"
         x="674.58722"
         y="364.00208" /></flowRegion><flowPara
       id="flowPara886"></flowPara></flowRoot></svg>
