<svg xmlns="http://www.w3.org/2000/svg" id="canvas" viewBox="282.490 369.006 1140.152 129.720"><path d="M 322.71,396.97 C 321.49 397.19, 320.80 397.78, 319.54 399.34 C 318.27 400.89, 317.59 401.95, 316.40 404.76 C 315.22 407.56, 314.97 409.63, 313.62 413.37 C 312.26 417.12, 311.43 419.26, 309.64 423.47 C 307.85 427.68, 306.73 429.98, 304.67 434.43 C 302.62 438.87, 301.45 441.28, 299.37 445.70 C 297.30 450.11, 296.18 452.36, 294.30 456.50 C 292.42 460.64, 291.51 462.72, 289.98 466.39 C 288.46 470.07, 287.58 471.73, 286.68 474.86 C 285.78 477.98, 285.51 479.42, 285.49 482.02 C 285.48 484.63, 285.70 485.81, 286.60 487.88 C 287.50 489.96, 288.22 490.96, 290.00 492.40 C 291.78 493.84, 293.02 494.43, 295.49 495.08 C 297.97 495.73, 299.44 495.84, 302.38 495.63 C 305.32 495.42, 306.93 494.77, 310.19 494.02 C 313.45 493.27, 315.25 492.73, 318.69 491.87 C 322.12 491.01, 323.97 490.49, 327.37 489.71 C 330.76 488.92, 332.53 488.53, 335.67 487.93 C 338.80 487.34, 340.33 487.20, 343.03 486.73 C 345.72 486.26, 346.92 486.02, 349.15 485.59 C 351.38 485.15, 352.57 485.06, 354.16 484.55 C 355.75 484.03, 356.20 483.64, 357.09 483.01 C 357.99 482.38, 358.39 482.16, 358.64 481.41 C 358.89 480.67, 358.80 479.94, 358.35 479.29 C 357.91 478.64, 357.47 478.51, 356.42 478.16 C 355.37 477.80, 354.82 477.53, 353.12 477.50 C 351.41 477.47, 350.21 477.70, 347.89 478.02 C 345.58 478.33, 344.31 478.50, 341.56 479.08 C 338.80 479.66, 337.29 480.14, 334.14 480.90 C 330.99 481.67, 329.20 482.13, 325.80 482.91 C 322.40 483.68, 320.53 484.15, 317.13 484.78 C 313.74 485.42, 311.90 485.72, 308.81 486.07 C 305.72 486.43, 304.13 486.35, 301.68 486.55 C 299.23 486.75, 298.22 486.99, 296.56 487.09 C 294.91 487.18, 294.32 487.28, 293.41 487.02 C 292.51 486.76, 292.29 486.71, 292.04 485.78 C 291.78 484.86, 291.89 484.24, 292.12 482.40 C 292.36 480.55, 292.57 479.36, 293.21 476.56 C 293.86 473.75, 294.17 471.97, 295.34 468.37 C 296.50 464.77, 297.32 462.67, 299.02 458.55 C 300.73 454.44, 301.81 452.19, 303.86 447.80 C 305.91 443.42, 307.09 441.01, 309.27 436.63 C 311.45 432.25, 312.64 429.98, 314.76 425.89 C 316.89 421.80, 317.98 419.74, 319.90 416.20 C 321.82 412.66, 323.14 411.01, 324.38 408.20 C 325.62 405.39, 325.85 404.14, 326.11 402.15 C 326.36 400.16, 326.34 399.29, 325.66 398.26 C 324.98 397.22, 323.94 396.76, 322.71 396.97" style="stroke: black; fill: black;"/><path d="M 386.78,467.27 C 387.51 468.19, 388.24 468.47, 389.88 468.71 C 391.52 468.95, 392.62 469.00, 394.97 468.47 C 397.31 467.95, 398.80 467.33, 401.60 466.08 C 404.39 464.82, 405.93 463.78, 408.95 462.19 C 411.96 460.61, 413.66 459.74, 416.69 458.15 C 419.72 456.56, 421.44 455.87, 424.12 454.24 C 426.79 452.61, 428.17 451.80, 430.07 449.98 C 431.97 448.16, 432.82 447.18, 433.62 445.15 C 434.41 443.12, 434.63 441.82, 434.04 439.83 C 433.45 437.84, 432.69 436.54, 430.69 435.20 C 428.68 433.85, 427.11 433.08, 424.01 433.10 C 420.92 433.11, 419.05 433.97, 415.21 435.29 C 411.36 436.61, 409.12 437.58, 404.81 439.69 C 400.50 441.80, 398.00 443.18, 393.66 445.84 C 389.33 448.51, 386.96 450.11, 383.14 453.02 C 379.32 455.93, 377.42 457.48, 374.56 460.41 C 371.70 463.35, 370.20 464.73, 368.85 467.69 C 367.49 470.66, 367.44 472.41, 367.80 475.22 C 368.16 478.03, 368.82 479.51, 370.66 481.74 C 372.49 483.98, 373.91 485.16, 376.99 486.39 C 380.07 487.62, 382.12 487.62, 386.08 487.91 C 390.04 488.20, 392.30 488.07, 396.78 487.83 C 401.26 487.59, 404.12 487.22, 408.49 486.71 C 412.86 486.20, 415.30 486.10, 418.64 485.27 C 421.99 484.44, 424.02 483.69, 425.24 482.56 C 426.45 481.44, 426.20 480.27, 424.70 479.64 C 423.20 479.01, 421.12 479.21, 417.75 479.42 C 414.37 479.62, 412.05 480.20, 407.81 480.65 C 403.57 481.10, 400.75 481.58, 396.56 481.66 C 392.37 481.73, 390.23 481.58, 386.88 481.02 C 383.53 480.46, 382.12 479.66, 379.81 478.87 C 377.50 478.08, 376.58 477.93, 375.34 477.08 C 374.09 476.22, 373.68 475.88, 373.59 474.58 C 373.50 473.28, 373.85 472.63, 374.89 470.58 C 375.93 468.52, 376.50 466.98, 378.80 464.30 C 381.09 461.62, 382.84 459.95, 386.36 457.16 C 389.87 454.37, 392.20 452.78, 396.37 450.36 C 400.53 447.93, 403.04 446.66, 407.17 445.04 C 411.31 443.42, 413.62 442.86, 417.04 442.26 C 420.47 441.67, 422.06 442.20, 424.29 442.06 C 426.53 441.91, 427.18 441.69, 428.22 441.53 C 429.26 441.37, 429.42 441.16, 429.48 441.24 C 429.53 441.33, 429.34 441.37, 428.50 441.94 C 427.66 442.51, 426.99 442.99, 425.29 444.11 C 423.59 445.22, 422.41 446.03, 420.00 447.51 C 417.58 448.99, 416.09 450.01, 413.22 451.51 C 410.35 453.00, 408.65 453.81, 405.65 454.98 C 402.65 456.14, 400.94 456.44, 398.21 457.32 C 395.48 458.20, 394.02 458.48, 392.00 459.38 C 389.98 460.27, 389.28 460.85, 388.13 461.80 C 386.97 462.75, 386.50 463.02, 386.23 464.12 C 385.96 465.21, 386.05 466.35, 386.78 467.27" style="stroke: black; fill: black;"/><path d="M 494.29,440.28 C 494.40 439.08, 494.06 438.22, 492.91 437.06 C 491.76 435.91, 490.75 435.17, 488.53 434.50 C 486.31 433.83, 484.67 433.55, 481.79 433.71 C 478.90 433.88, 477.22 434.43, 474.10 435.31 C 470.98 436.20, 469.28 436.90, 466.19 438.15 C 463.11 439.40, 461.28 439.92, 458.69 441.55 C 456.10 443.19, 454.84 444.27, 453.24 446.32 C 451.64 448.38, 451.06 449.58, 450.69 451.83 C 450.31 454.09, 450.47 455.43, 451.39 457.59 C 452.31 459.74, 453.24 460.89, 455.29 462.61 C 457.34 464.33, 458.86 465.03, 461.65 466.19 C 464.44 467.35, 466.26 467.49, 469.23 468.43 C 472.19 469.36, 473.83 470.03, 476.47 470.85 C 479.10 471.67, 480.52 472.04, 482.42 472.51 C 484.31 472.99, 485.08 473.14, 485.94 473.24 C 486.80 473.34, 486.95 473.12, 486.72 473.00 C 486.49 472.89, 486.07 472.56, 484.80 472.66 C 483.52 472.76, 482.50 472.85, 480.35 473.51 C 478.20 474.17, 476.83 475.00, 474.04 475.97 C 471.25 476.94, 469.51 477.56, 466.41 478.34 C 463.31 479.12, 461.47 479.37, 458.54 479.86 C 455.60 480.34, 454.05 480.36, 451.72 480.75 C 449.39 481.13, 448.33 481.37, 446.88 481.79 C 445.44 482.21, 445.10 482.33, 444.50 482.83 C 443.89 483.33, 443.94 483.83, 443.85 484.27 C 443.76 484.71, 444.14 485.02, 444.03 485.02 C 443.93 485.03, 443.52 484.22, 443.32 484.32 C 443.12 484.42, 442.86 484.91, 443.04 485.53 C 443.23 486.15, 443.40 486.83, 444.24 487.41 C 445.08 487.98, 445.56 488.16, 447.23 488.41 C 448.89 488.67, 450.05 488.81, 452.57 488.68 C 455.09 488.54, 456.73 488.26, 459.84 487.75 C 462.94 487.23, 464.78 486.74, 468.11 486.11 C 471.43 485.48, 473.30 485.31, 476.46 484.61 C 479.62 483.90, 481.40 483.76, 483.90 482.60 C 486.41 481.44, 487.57 480.54, 488.99 478.81 C 490.42 477.07, 490.86 475.84, 491.01 473.90 C 491.16 471.97, 490.84 470.81, 489.76 469.11 C 488.68 467.42, 487.69 466.72, 485.60 465.41 C 483.52 464.11, 482.05 463.62, 479.34 462.58 C 476.63 461.54, 474.87 461.26, 472.05 460.20 C 469.24 459.15, 467.72 458.29, 465.27 457.31 C 462.82 456.34, 461.52 455.94, 459.79 455.33 C 458.07 454.71, 457.36 454.66, 456.63 454.23 C 455.91 453.81, 455.82 453.76, 456.16 453.21 C 456.49 452.66, 456.94 452.32, 458.30 451.47 C 459.65 450.63, 460.76 450.09, 462.95 448.98 C 465.14 447.88, 466.57 446.94, 469.24 445.95 C 471.90 444.96, 473.65 444.55, 476.26 444.01 C 478.88 443.47, 480.20 443.36, 482.30 443.26 C 484.40 443.15, 485.26 443.42, 486.77 443.48 C 488.28 443.54, 488.73 443.66, 489.86 443.57 C 490.98 443.48, 491.51 443.70, 492.40 443.04 C 493.28 442.39, 494.19 441.47, 494.29 440.28" style="stroke: black; fill: black;"/><path d="M 653.26,397.48 C 652.31 397.19, 652.03 397.25, 650.80 397.77 C 649.56 398.28, 648.64 398.38, 647.08 400.06 C 645.52 401.74, 644.96 403.23, 643.01 406.16 C 641.06 409.09, 639.99 411.01, 637.34 414.69 C 634.69 418.37, 632.96 420.48, 629.77 424.56 C 626.59 428.64, 624.68 430.91, 621.41 435.07 C 618.15 439.24, 616.39 441.48, 613.46 445.41 C 610.53 449.33, 609.08 451.26, 606.78 454.71 C 604.48 458.15, 603.25 459.66, 601.96 462.64 C 600.68 465.62, 600.43 467.05, 600.34 469.62 C 600.24 472.19, 600.52 473.39, 601.49 475.48 C 602.47 477.57, 603.29 478.57, 605.22 480.05 C 607.14 481.54, 608.35 482.27, 611.13 482.91 C 613.92 483.55, 615.61 483.42, 619.13 483.27 C 622.65 483.11, 624.72 482.70, 628.72 482.14 C 632.73 481.58, 634.95 481.18, 639.16 480.48 C 643.37 479.78, 645.70 479.36, 649.77 478.65 C 653.83 477.95, 655.94 477.55, 659.49 476.95 C 663.04 476.34, 664.77 476.30, 667.54 475.64 C 670.31 474.98, 671.51 474.42, 673.34 473.64 C 675.18 472.87, 675.74 472.51, 676.71 471.77 C 677.68 471.03, 677.86 470.59, 678.20 469.94 C 678.55 469.28, 678.61 469.00, 678.42 468.49 C 678.24 467.97, 677.67 467.64, 677.26 467.35 C 676.85 467.06, 676.86 467.16, 676.36 467.05 C 675.85 466.94, 675.72 466.74, 674.73 466.78 C 673.75 466.81, 673.24 466.92, 671.44 467.22 C 669.63 467.53, 668.37 467.62, 665.71 468.31 C 663.06 469.00, 661.55 469.79, 658.14 470.69 C 654.74 471.58, 652.67 472.03, 648.70 472.79 C 644.72 473.55, 642.39 473.95, 638.27 474.49 C 634.15 475.03, 631.93 475.30, 628.10 475.47 C 624.28 475.64, 622.24 475.52, 619.14 475.35 C 616.05 475.19, 614.72 474.88, 612.63 474.64 C 610.53 474.40, 609.86 474.50, 608.67 474.16 C 607.47 473.81, 607.10 473.73, 606.65 472.93 C 606.20 472.14, 606.14 471.72, 606.42 470.17 C 606.70 468.62, 607.04 467.69, 608.05 465.17 C 609.05 462.65, 609.56 460.93, 611.44 457.55 C 613.31 454.17, 614.67 452.18, 617.41 448.27 C 620.16 444.36, 621.89 442.12, 625.15 438.03 C 628.41 433.93, 630.34 431.70, 633.71 427.80 C 637.08 423.90, 638.90 421.85, 642.01 418.53 C 645.11 415.21, 646.78 413.71, 649.23 411.18 C 651.68 408.65, 652.95 407.76, 654.27 405.89 C 655.59 404.02, 655.58 403.17, 655.84 401.83 C 656.09 400.50, 656.07 400.08, 655.56 399.21 C 655.04 398.34, 654.21 397.77, 653.26 397.48" style="stroke: black; fill: black;"/><path d="M 626.49,427.42 C 627.35 428.16, 627.94 428.14, 629.34 428.22 C 630.74 428.29, 631.57 428.24, 633.50 427.80 C 635.44 427.37, 636.63 426.86, 639.03 426.04 C 641.42 425.23, 642.82 424.64, 645.47 423.73 C 648.13 422.81, 649.64 422.31, 652.32 421.45 C 655.00 420.59, 656.41 420.18, 658.89 419.44 C 661.37 418.70, 662.61 418.46, 664.73 417.75 C 666.86 417.05, 667.89 416.83, 669.51 415.94 C 671.14 415.04, 672.33 414.42, 672.84 413.27 C 673.34 412.13, 673.04 410.97, 672.05 410.21 C 671.05 409.46, 669.72 409.50, 667.87 409.49 C 666.03 409.48, 665.05 409.76, 662.83 410.15 C 660.60 410.54, 659.34 410.83, 656.76 411.43 C 654.19 412.04, 652.72 412.46, 649.95 413.17 C 647.17 413.88, 645.68 414.28, 642.89 414.97 C 640.10 415.66, 638.53 415.84, 635.99 416.62 C 633.45 417.39, 632.08 417.85, 630.17 418.84 C 628.27 419.84, 627.48 420.46, 626.45 421.59 C 625.43 422.72, 625.03 423.35, 625.04 424.52 C 625.05 425.68, 625.63 426.68, 626.49 427.42" style="stroke: black; fill: black;"/><path d="M 667.12,386.94 C 667.96 387.53, 668.27 387.53, 669.44 387.56 C 670.61 387.60, 671.28 387.58, 672.98 387.13 C 674.67 386.67, 675.63 386.13, 677.92 385.30 C 680.20 384.48, 681.59 383.82, 684.40 383.00 C 687.22 382.17, 689.20 381.98, 692.00 381.18 C 694.81 380.37, 696.33 379.95, 698.42 378.97 C 700.52 377.98, 701.75 377.36, 702.47 376.25 C 703.20 375.14, 703.09 374.25, 702.04 373.42 C 700.98 372.59, 699.56 372.26, 697.18 372.08 C 694.81 371.89, 693.16 372.08, 690.16 372.51 C 687.16 372.94, 685.28 373.56, 682.19 374.22 C 679.11 374.89, 677.37 374.99, 674.72 375.83 C 672.06 376.67, 670.73 377.26, 668.93 378.43 C 667.14 379.60, 666.49 380.43, 665.75 381.67 C 665.01 382.90, 664.95 383.55, 665.22 384.61 C 665.50 385.66, 666.28 386.35, 667.12 386.94" style="stroke: black; fill: black;"/><path d="M 737.40,374.38 C 736.25 374.53, 735.86 375.04, 734.64 376.29 C 733.42 377.54, 732.50 378.17, 731.31 380.62 C 730.11 383.08, 729.98 385.04, 728.65 388.54 C 727.32 392.04, 726.44 394.09, 724.65 398.11 C 722.85 402.13, 721.71 404.42, 719.68 408.66 C 717.65 412.90, 716.51 415.17, 714.51 419.32 C 712.50 423.47, 711.46 425.62, 709.66 429.43 C 707.85 433.24, 706.98 435.08, 705.48 438.35 C 703.99 441.62, 703.09 443.09, 702.17 445.78 C 701.24 448.48, 701.12 449.79, 700.85 451.83 C 700.59 453.87, 700.58 454.70, 700.83 455.98 C 701.09 457.27, 701.60 457.69, 702.13 458.25 C 702.67 458.81, 703.04 458.79, 703.51 458.79 C 703.98 458.78, 704.13 458.42, 704.49 458.22 C 704.85 458.03, 704.91 458.16, 705.31 457.80 C 705.72 457.44, 706.09 457.33, 706.52 456.41 C 706.94 455.50, 706.90 454.91, 707.43 453.24 C 707.95 451.56, 708.39 450.56, 709.15 448.04 C 709.91 445.52, 710.13 443.91, 711.23 440.64 C 712.34 437.37, 713.07 435.48, 714.67 431.67 C 716.28 427.86, 717.27 425.71, 719.24 421.59 C 721.20 417.46, 722.34 415.21, 724.49 411.06 C 726.65 406.90, 727.87 404.66, 730.03 400.81 C 732.19 396.96, 733.34 395.03, 735.30 391.79 C 737.26 388.56, 738.68 387.18, 739.83 384.63 C 740.98 382.09, 740.95 380.88, 741.06 379.05 C 741.16 377.23, 741.10 376.44, 740.37 375.50 C 739.64 374.57, 738.54 374.22, 737.40 374.38" style="stroke: black; fill: black;"/><path d="M 700.92,429.21 C 701.68 430.11, 702.39 430.28, 704.08 430.62 C 705.77 430.95, 706.88 431.15, 709.39 430.90 C 711.89 430.64, 713.51 429.96, 716.62 429.36 C 719.73 428.75, 721.57 428.35, 724.95 427.86 C 728.32 427.37, 730.41 427.36, 733.48 426.90 C 736.55 426.44, 738.10 426.28, 740.31 425.56 C 742.53 424.83, 743.75 424.27, 744.56 423.27 C 745.36 422.27, 745.30 421.41, 744.33 420.56 C 743.36 419.71, 742.06 419.33, 739.72 419.01 C 737.37 418.70, 735.75 418.77, 732.60 419.00 C 729.46 419.22, 727.43 419.82, 724.01 420.15 C 720.58 420.49, 718.71 420.45, 715.48 420.68 C 712.24 420.91, 710.38 420.73, 707.83 421.30 C 705.27 421.87, 704.22 422.57, 702.71 423.53 C 701.20 424.49, 700.64 424.95, 700.28 426.09 C 699.92 427.22, 700.16 428.30, 700.92 429.21" style="stroke: black; fill: black;"/><path d="M 768.53,415.85 C 767.35 415.66, 766.64 415.90, 765.10 416.88 C 763.55 417.85, 762.41 418.57, 760.79 420.71 C 759.17 422.85, 758.45 424.66, 756.98 427.57 C 755.50 430.48, 754.65 432.24, 753.42 435.28 C 752.18 438.31, 751.37 439.90, 750.81 442.76 C 750.25 445.63, 750.17 447.09, 750.60 449.59 C 751.03 452.09, 751.49 453.37, 752.95 455.25 C 754.42 457.14, 755.56 458.04, 757.92 459.00 C 760.27 459.95, 761.82 460.25, 764.72 460.04 C 767.62 459.83, 769.27 459.25, 772.41 457.95 C 775.56 456.64, 777.17 455.55, 780.44 453.51 C 783.70 451.47, 785.47 450.23, 788.75 447.75 C 792.03 445.27, 793.75 443.82, 796.82 441.12 C 799.89 438.42, 801.41 436.87, 804.09 434.27 C 806.78 431.67, 808.36 430.46, 810.24 428.11 C 812.13 425.76, 812.97 424.52, 813.53 422.51 C 814.10 420.51, 813.97 419.26, 813.07 418.09 C 812.17 416.93, 810.86 416.36, 809.04 416.70 C 807.22 417.04, 805.72 417.81, 803.97 419.79 C 802.22 421.78, 801.65 423.59, 800.30 426.61 C 798.94 429.63, 798.39 431.68, 797.19 434.88 C 795.98 438.09, 795.02 439.72, 794.27 442.64 C 793.51 445.56, 793.49 447.07, 793.40 449.49 C 793.30 451.91, 793.38 453.06, 793.80 454.74 C 794.21 456.41, 794.75 457.04, 795.49 457.88 C 796.23 458.73, 796.75 458.95, 797.51 458.95 C 798.27 458.95, 798.84 458.40, 799.30 457.89 C 799.75 457.38, 799.60 457.14, 799.80 456.40 C 800.00 455.67, 800.11 455.44, 800.30 454.22 C 800.49 453.00, 800.35 452.17, 800.74 450.32 C 801.13 448.47, 801.45 447.42, 802.26 444.97 C 803.07 442.53, 803.46 440.88, 804.79 438.10 C 806.11 435.31, 807.36 433.65, 808.90 431.06 C 810.44 428.46, 811.65 427.31, 812.50 425.13 C 813.36 422.95, 813.45 421.64, 813.16 420.17 C 812.87 418.70, 812.09 417.99, 811.04 417.76 C 809.99 417.54, 809.26 417.93, 807.91 419.04 C 806.55 420.15, 805.96 421.17, 804.26 423.32 C 802.55 425.47, 801.67 427.14, 799.37 429.77 C 797.06 432.41, 795.60 433.94, 792.73 436.50 C 789.86 439.07, 788.17 440.43, 785.02 442.60 C 781.88 444.77, 780.09 445.84, 777.00 447.36 C 773.90 448.88, 772.21 449.37, 769.55 450.21 C 766.89 451.04, 765.64 451.18, 763.69 451.56 C 761.75 451.94, 761.01 452.11, 759.82 452.09 C 758.63 452.07, 758.23 452.05, 757.72 451.45 C 757.21 450.86, 757.11 450.44, 757.27 449.12 C 757.43 447.80, 757.76 446.92, 758.53 444.85 C 759.30 442.78, 759.83 441.32, 761.13 438.77 C 762.43 436.22, 763.41 434.65, 765.02 432.12 C 766.62 429.59, 767.97 428.32, 769.15 426.12 C 770.34 423.92, 770.58 422.78, 770.94 421.12 C 771.31 419.45, 771.46 418.85, 770.98 417.79 C 770.49 416.74, 769.70 416.03, 768.53 415.85" style="stroke: black; fill: black;"/><path d="M 876.61,429.00 C 877.03 427.87, 876.89 427.02, 876.17 425.80 C 875.44 424.57, 874.71 423.78, 872.97 422.89 C 871.23 422.00, 869.90 421.56, 867.47 421.35 C 865.03 421.14, 863.61 421.18, 860.79 421.82 C 857.97 422.46, 856.41 423.07, 853.37 424.56 C 850.32 426.04, 848.65 427.14, 845.57 429.27 C 842.50 431.39, 840.80 432.72, 837.99 435.17 C 835.18 437.62, 833.61 438.92, 831.53 441.52 C 829.44 444.11, 828.49 445.53, 827.57 448.16 C 826.66 450.78, 826.54 452.26, 826.95 454.63 C 827.37 457.01, 828.02 458.27, 829.66 460.02 C 831.30 461.76, 832.58 462.52, 835.16 463.34 C 837.73 464.15, 839.39 464.42, 842.55 464.09 C 845.72 463.76, 847.48 462.94, 850.98 461.68 C 854.49 460.42, 856.45 459.61, 860.08 457.77 C 863.71 455.94, 865.60 454.85, 869.13 452.49 C 872.65 450.14, 874.44 448.78, 877.69 446.00 C 880.93 443.21, 882.54 441.64, 885.36 438.56 C 888.18 435.48, 889.43 433.77, 891.78 430.59 C 894.13 427.41, 895.20 425.79, 897.11 422.66 C 899.01 419.53, 899.87 417.90, 901.33 414.94 C 902.79 411.99, 903.46 410.53, 904.40 407.87 C 905.34 405.20, 905.83 403.93, 906.03 401.60 C 906.24 399.28, 906.35 397.87, 905.43 396.24 C 904.51 394.62, 903.30 393.72, 901.45 393.47 C 899.60 393.22, 898.09 393.40, 896.17 395.01 C 894.25 396.61, 893.56 398.28, 891.86 401.48 C 890.15 404.68, 889.43 407.04, 887.64 411.01 C 885.85 414.97, 884.76 417.27, 882.91 421.31 C 881.07 425.34, 880.04 427.42, 878.42 431.17 C 876.79 434.93, 875.96 436.75, 874.79 440.09 C 873.62 443.43, 873.03 444.99, 872.57 447.85 C 872.10 450.72, 872.19 452.08, 872.48 454.42 C 872.77 456.76, 873.20 457.91, 874.02 459.54 C 874.83 461.17, 875.54 461.70, 876.54 462.56 C 877.54 463.42, 878.04 463.62, 879.01 463.84 C 879.98 464.06, 880.73 463.98, 881.39 463.64 C 882.04 463.31, 882.38 462.84, 882.28 462.17 C 882.18 461.51, 881.20 460.82, 880.89 460.30 C 880.59 459.79, 880.73 459.83, 880.77 459.59 C 880.81 459.35, 881.10 459.31, 881.11 459.10 C 881.11 458.89, 881.01 458.96, 880.79 458.53 C 880.56 458.10, 880.29 457.90, 879.98 456.96 C 879.68 456.02, 879.33 455.42, 879.28 453.82 C 879.22 452.21, 879.36 451.30, 879.70 448.94 C 880.03 446.57, 880.12 445.10, 880.95 442.00 C 881.77 438.89, 882.37 437.05, 883.82 433.43 C 885.27 429.80, 886.27 427.72, 888.22 423.86 C 890.16 419.99, 891.37 417.73, 893.56 414.11 C 895.75 410.49, 897.34 408.60, 899.17 405.74 C 900.99 402.88, 902.04 401.67, 902.68 399.83 C 903.32 397.98, 902.84 397.15, 902.35 396.50 C 901.86 395.85, 900.98 395.86, 900.21 396.57 C 899.44 397.29, 899.14 398.30, 898.51 400.07 C 897.89 401.85, 897.79 403.07, 897.08 405.47 C 896.36 407.88, 896.02 409.30, 894.92 412.11 C 893.83 414.91, 893.19 416.51, 891.60 419.51 C 890.00 422.52, 889.05 424.09, 886.95 427.13 C 884.85 430.17, 883.69 431.80, 881.09 434.70 C 878.49 437.60, 877.01 439.07, 873.97 441.62 C 870.93 444.17, 869.22 445.42, 865.90 447.47 C 862.57 449.51, 860.75 450.45, 857.35 451.85 C 853.95 453.25, 852.02 453.80, 848.89 454.46 C 845.76 455.12, 844.15 454.94, 841.69 455.15 C 839.24 455.35, 838.23 455.48, 836.62 455.51 C 835.01 455.54, 834.41 455.59, 833.64 455.30 C 832.87 455.00, 832.69 454.88, 832.77 454.03 C 832.86 453.18, 833.12 452.57, 834.06 451.04 C 834.99 449.50, 835.70 448.44, 837.44 446.35 C 839.18 444.26, 840.32 442.75, 842.76 440.59 C 845.19 438.43, 846.83 437.21, 849.63 435.54 C 852.43 433.87, 854.13 433.23, 856.75 432.23 C 859.36 431.23, 860.70 430.95, 862.70 430.53 C 864.70 430.12, 865.40 430.07, 866.75 430.16 C 868.10 430.25, 868.48 430.71, 869.45 431.00 C 870.41 431.28, 870.64 431.50, 871.57 431.59 C 872.50 431.68, 873.08 431.97, 874.08 431.45 C 875.09 430.93, 876.20 430.13, 876.61 429.00" style="stroke: black; fill: black;"/><path d="M 911.20,445.71 C 911.69 446.77, 912.33 447.26, 913.84 447.80 C 915.36 448.34, 916.46 448.54, 918.77 448.40 C 921.07 448.27, 922.61 447.98, 925.37 447.12 C 928.13 446.25, 929.67 445.33, 932.58 444.08 C 935.48 442.83, 937.12 442.19, 939.89 440.87 C 942.66 439.55, 944.14 438.93, 946.42 437.49 C 948.69 436.04, 949.81 435.31, 951.26 433.64 C 952.71 431.98, 953.33 431.04, 953.66 429.15 C 953.99 427.27, 953.94 425.96, 952.93 424.21 C 951.92 422.45, 950.93 421.36, 948.63 420.38 C 946.34 419.41, 944.64 419.01, 941.45 419.34 C 938.26 419.67, 936.39 420.66, 932.68 422.04 C 928.97 423.42, 926.79 424.32, 922.89 426.23 C 918.99 428.15, 916.82 429.34, 913.19 431.60 C 909.55 433.87, 907.66 435.12, 904.70 437.56 C 901.75 440.00, 900.16 441.17, 898.42 443.81 C 896.69 446.45, 896.28 448.04, 896.01 450.77 C 895.74 453.50, 895.96 455.00, 897.09 457.45 C 898.22 459.90, 899.22 461.28, 901.66 463.04 C 904.10 464.80, 905.83 465.43, 909.28 466.25 C 912.73 467.08, 914.81 467.05, 918.91 467.18 C 923.01 467.30, 925.35 467.14, 929.78 466.88 C 934.21 466.61, 936.90 466.26, 941.06 465.86 C 945.21 465.46, 947.45 465.48, 950.55 464.87 C 953.66 464.26, 954.76 463.66, 956.58 462.80 C 958.39 461.93, 959.13 461.43, 959.64 460.55 C 960.15 459.67, 959.96 458.97, 959.14 458.39 C 958.32 457.82, 957.48 457.77, 955.54 457.68 C 953.59 457.58, 952.45 457.49, 949.41 457.89 C 946.36 458.30, 944.30 459.10, 940.31 459.68 C 936.33 460.26, 933.66 460.61, 929.47 460.79 C 925.29 460.96, 923.01 460.95, 919.38 460.53 C 915.74 460.12, 914.02 459.54, 911.31 458.71 C 908.61 457.88, 907.59 457.26, 905.87 456.39 C 904.14 455.51, 903.44 455.29, 902.68 454.35 C 901.92 453.40, 901.76 452.96, 902.08 451.67 C 902.41 450.37, 902.93 449.72, 904.30 447.88 C 905.67 446.03, 906.50 444.65, 908.92 442.43 C 911.35 440.21, 913.10 438.86, 916.42 436.78 C 919.74 434.70, 921.87 433.57, 925.53 432.04 C 929.19 430.52, 931.38 429.83, 934.73 429.17 C 938.09 428.52, 939.84 428.95, 942.30 428.78 C 944.75 428.60, 945.66 428.53, 947.03 428.30 C 948.39 428.07, 948.73 427.83, 949.12 427.63 C 949.51 427.43, 949.44 427.17, 948.98 427.28 C 948.51 427.40, 948.10 427.60, 946.79 428.21 C 945.48 428.82, 944.49 429.34, 942.41 430.33 C 940.33 431.32, 938.97 432.05, 936.39 433.16 C 933.81 434.27, 932.25 434.99, 929.50 435.86 C 926.75 436.72, 925.13 436.86, 922.63 437.49 C 920.13 438.12, 918.85 438.37, 917.00 439.02 C 915.15 439.66, 914.52 440.01, 913.40 440.71 C 912.28 441.41, 911.83 441.52, 911.39 442.52 C 910.95 443.52, 910.71 444.66, 911.20 445.71" style="stroke: black; fill: black;"/><path d="M 1017.82,426.66 C 1018.19 425.53, 1018.04 424.59, 1017.17 423.33 C 1016.30 422.07, 1015.42 421.24, 1013.47 420.36 C 1011.53 419.47, 1010.09 419.09, 1007.44 418.89 C 1004.79 418.70, 1003.19 418.89, 1000.21 419.39 C 997.23 419.90, 995.57 420.45, 992.54 421.43 C 989.51 422.41, 987.73 422.90, 985.05 424.29 C 982.37 425.69, 981.02 426.59, 979.13 428.41 C 977.25 430.23, 976.42 431.28, 975.61 433.41 C 974.79 435.53, 974.64 436.83, 975.05 439.04 C 975.46 441.25, 976.10 442.53, 977.67 444.47 C 979.24 446.41, 980.52 447.27, 982.90 448.74 C 985.28 450.20, 986.88 450.70, 989.57 451.79 C 992.25 452.88, 993.85 453.34, 996.33 454.18 C 998.81 455.03, 1000.13 455.44, 1001.97 456.01 C 1003.82 456.57, 1004.59 456.83, 1005.54 457.00 C 1006.49 457.17, 1006.73 457.02, 1006.74 456.87 C 1006.75 456.71, 1006.52 456.31, 1005.59 456.22 C 1004.66 456.14, 1003.90 456.11, 1002.09 456.45 C 1000.28 456.79, 999.02 457.17, 996.56 457.91 C 994.09 458.65, 992.59 459.40, 989.75 460.15 C 986.91 460.90, 985.22 461.19, 982.36 461.67 C 979.50 462.16, 977.89 462.07, 975.43 462.57 C 972.96 463.08, 971.73 463.46, 970.03 464.18 C 968.33 464.90, 967.51 465.27, 966.92 466.17 C 966.33 467.07, 966.35 467.84, 967.06 468.66 C 967.77 469.49, 968.62 469.84, 970.48 470.29 C 972.34 470.75, 973.72 471.00, 976.36 470.93 C 979.00 470.86, 980.64 470.40, 983.67 469.95 C 986.71 469.50, 988.44 469.17, 991.54 468.68 C 994.64 468.19, 996.37 468.19, 999.17 467.50 C 1001.97 466.80, 1003.42 466.41, 1005.54 465.20 C 1007.65 464.00, 1008.64 463.16, 1009.74 461.46 C 1010.85 459.76, 1011.12 458.55, 1011.07 456.71 C 1011.02 454.88, 1010.62 453.87, 1009.49 452.30 C 1008.37 450.72, 1007.41 450.13, 1005.46 448.85 C 1003.50 447.56, 1002.16 447.06, 999.73 445.89 C 997.31 444.72, 995.78 444.10, 993.31 442.99 C 990.84 441.89, 989.44 441.26, 987.36 440.35 C 985.29 439.45, 984.28 439.06, 982.94 438.45 C 981.61 437.84, 981.08 437.76, 980.68 437.32 C 980.28 436.88, 980.33 436.82, 980.95 436.26 C 981.57 435.69, 982.22 435.30, 983.78 434.50 C 985.34 433.69, 986.49 433.14, 988.75 432.23 C 991.01 431.32, 992.51 430.65, 995.09 429.95 C 997.67 429.25, 999.28 429.06, 1001.66 428.73 C 1004.03 428.41, 1005.17 428.30, 1006.97 428.33 C 1008.77 428.36, 1009.42 428.71, 1010.64 428.88 C 1011.85 429.04, 1012.10 429.13, 1013.04 429.15 C 1013.98 429.17, 1014.36 429.48, 1015.32 428.98 C 1016.28 428.48, 1017.45 427.79, 1017.82 426.66" style="stroke: black; fill: black;"/><path d="M 1180.86,435.69 C 1181.14 434.51, 1180.92 433.65, 1180.01 432.37 C 1179.11 431.10, 1178.27 430.27, 1176.31 429.32 C 1174.35 428.37, 1172.92 427.93, 1170.21 427.64 C 1167.51 427.36, 1165.93 427.31, 1162.78 427.89 C 1159.62 428.47, 1157.92 429.18, 1154.44 430.54 C 1150.95 431.91, 1148.99 432.75, 1145.35 434.72 C 1141.70 436.69, 1139.68 437.96, 1136.21 440.38 C 1132.73 442.80, 1130.91 444.21, 1127.97 446.83 C 1125.03 449.45, 1123.45 450.74, 1121.51 453.46 C 1119.58 456.18, 1118.86 457.74, 1118.30 460.44 C 1117.73 463.14, 1117.87 464.65, 1118.70 466.98 C 1119.52 469.31, 1120.42 470.52, 1122.43 472.09 C 1124.45 473.65, 1125.90 474.35, 1128.75 474.81 C 1131.61 475.28, 1133.37 475.13, 1136.70 474.41 C 1140.04 473.70, 1141.84 472.84, 1145.43 471.23 C 1149.03 469.62, 1150.96 468.61, 1154.68 466.34 C 1158.41 464.07, 1160.40 462.74, 1164.08 459.88 C 1167.76 457.03, 1169.64 455.37, 1173.08 452.07 C 1176.52 448.78, 1178.20 446.94, 1181.27 443.40 C 1184.33 439.86, 1185.78 437.96, 1188.42 434.38 C 1191.06 430.79, 1192.24 428.93, 1194.45 425.48 C 1196.65 422.03, 1197.64 420.31, 1199.43 417.12 C 1201.23 413.94, 1202.10 412.37, 1203.42 409.55 C 1204.74 406.74, 1205.48 405.44, 1206.03 403.03 C 1206.59 400.62, 1206.82 399.21, 1206.19 397.52 C 1205.57 395.83, 1204.53 394.90, 1202.90 394.57 C 1201.27 394.24, 1199.82 394.36, 1198.05 395.86 C 1196.29 397.35, 1195.64 398.89, 1194.07 402.05 C 1192.50 405.22, 1191.91 407.60, 1190.19 411.67 C 1188.47 415.75, 1187.38 418.17, 1185.48 422.42 C 1183.58 426.66, 1182.50 428.89, 1180.70 432.90 C 1178.90 436.91, 1177.94 438.86, 1176.47 442.46 C 1175.00 446.06, 1174.21 447.78, 1173.35 450.89 C 1172.50 454.01, 1172.34 455.47, 1172.20 458.03 C 1172.06 460.60, 1172.18 461.77, 1172.65 463.73 C 1173.12 465.69, 1173.69 466.69, 1174.57 467.84 C 1175.46 468.99, 1176.19 469.18, 1177.08 469.46 C 1177.98 469.75, 1178.45 469.65, 1179.04 469.26 C 1179.62 468.87, 1179.80 468.10, 1180.01 467.50 C 1180.21 466.90, 1180.06 466.79, 1180.06 466.25 C 1180.06 465.70, 1180.19 465.54, 1179.99 464.77 C 1179.79 464.00, 1179.25 463.66, 1179.07 462.42 C 1178.88 461.17, 1178.89 460.52, 1179.08 458.54 C 1179.27 456.56, 1179.44 455.32, 1180.03 452.51 C 1180.61 449.71, 1180.86 447.98, 1182.00 444.50 C 1183.14 441.02, 1184.01 439.06, 1185.72 435.13 C 1187.44 431.20, 1188.52 428.95, 1190.59 424.85 C 1192.67 420.75, 1193.90 418.38, 1196.10 414.63 C 1198.30 410.88, 1199.90 409.01, 1201.59 406.08 C 1203.28 403.15, 1204.16 401.89, 1204.55 399.98 C 1204.94 398.07, 1204.29 397.18, 1203.56 396.55 C 1202.83 395.92, 1201.87 395.98, 1200.90 396.82 C 1199.94 397.66, 1199.58 398.75, 1198.75 400.75 C 1197.92 402.74, 1197.74 404.09, 1196.77 406.80 C 1195.80 409.52, 1195.33 411.16, 1193.91 414.32 C 1192.48 417.47, 1191.61 419.18, 1189.66 422.58 C 1187.71 425.97, 1186.61 427.81, 1184.15 431.31 C 1181.70 434.81, 1180.32 436.65, 1177.40 440.06 C 1174.47 443.46, 1172.85 445.23, 1169.53 448.32 C 1166.22 451.42, 1164.38 452.97, 1160.82 455.54 C 1157.26 458.10, 1155.32 459.29, 1151.75 461.14 C 1148.18 462.99, 1146.27 463.76, 1142.96 464.78 C 1139.66 465.81, 1137.92 465.92, 1135.24 466.29 C 1132.56 466.65, 1131.40 466.60, 1129.54 466.61 C 1127.69 466.63, 1127.01 466.65, 1125.95 466.34 C 1124.89 466.03, 1124.50 465.88, 1124.24 465.05 C 1123.97 464.23, 1124.00 463.71, 1124.62 462.22 C 1125.24 460.74, 1125.79 459.76, 1127.34 457.62 C 1128.88 455.48, 1129.85 453.94, 1132.33 451.51 C 1134.81 449.08, 1136.54 447.66, 1139.73 445.47 C 1142.92 443.27, 1144.89 442.12, 1148.28 440.52 C 1151.68 438.93, 1153.57 438.28, 1156.70 437.49 C 1159.83 436.70, 1161.43 436.74, 1163.93 436.58 C 1166.42 436.41, 1167.36 436.41, 1169.16 436.65 C 1170.97 436.90, 1171.60 437.41, 1172.95 437.78 C 1174.30 438.15, 1174.77 438.41, 1175.91 438.51 C 1177.05 438.61, 1177.66 438.83, 1178.65 438.27 C 1179.64 437.71, 1180.59 436.87, 1180.86 435.69" style="stroke: black; fill: black;"/><path d="M 1207.48,452.02 C 1207.94 453.10, 1208.57 453.60, 1210.09 454.20 C 1211.62 454.81, 1212.72 455.08, 1215.09 455.05 C 1217.47 455.03, 1219.10 454.85, 1221.99 454.08 C 1224.87 453.31, 1226.48 452.37, 1229.51 451.22 C 1232.55 450.06, 1234.24 449.48, 1237.16 448.30 C 1240.08 447.12, 1241.65 446.62, 1244.11 445.32 C 1246.57 444.03, 1247.77 443.36, 1249.46 441.82 C 1251.15 440.28, 1251.93 439.44, 1252.54 437.63 C 1253.15 435.81, 1253.23 434.56, 1252.52 432.75 C 1251.82 430.94, 1251.03 429.77, 1249.01 428.58 C 1246.99 427.40, 1245.44 426.79, 1242.42 426.83 C 1239.40 426.86, 1237.53 427.66, 1233.91 428.76 C 1230.28 429.86, 1228.19 430.66, 1224.30 432.32 C 1220.41 433.99, 1218.20 435.04, 1214.48 437.08 C 1210.76 439.12, 1208.80 440.25, 1205.71 442.53 C 1202.63 444.82, 1200.93 445.89, 1199.07 448.50 C 1197.20 451.12, 1196.67 452.79, 1196.39 455.61 C 1196.10 458.42, 1196.38 460.00, 1197.64 462.57 C 1198.90 465.14, 1199.99 466.66, 1202.70 468.46 C 1205.42 470.26, 1207.40 470.64, 1211.22 471.56 C 1215.03 472.47, 1217.28 472.63, 1221.77 473.02 C 1226.27 473.40, 1228.85 473.41, 1233.70 473.49 C 1238.55 473.56, 1241.53 473.49, 1246.03 473.39 C 1250.53 473.30, 1252.88 473.48, 1256.20 473.01 C 1259.52 472.54, 1261.39 471.98, 1262.63 471.03 C 1263.88 470.08, 1263.76 469.00, 1262.41 468.26 C 1261.06 467.53, 1259.19 467.45, 1255.89 467.34 C 1252.58 467.23, 1250.30 467.59, 1245.89 467.72 C 1241.47 467.84, 1238.50 468.10, 1233.82 467.98 C 1229.14 467.85, 1226.60 467.72, 1222.48 467.08 C 1218.35 466.45, 1216.29 465.90, 1213.19 464.80 C 1210.09 463.69, 1208.97 462.69, 1206.97 461.57 C 1204.98 460.45, 1204.13 460.20, 1203.22 459.19 C 1202.30 458.17, 1202.09 457.76, 1202.40 456.49 C 1202.72 455.22, 1203.32 454.60, 1204.78 452.84 C 1206.24 451.09, 1207.16 449.75, 1209.70 447.70 C 1212.24 445.65, 1214.08 444.41, 1217.48 442.57 C 1220.87 440.73, 1223.05 439.74, 1226.68 438.51 C 1230.31 437.28, 1232.42 436.85, 1235.63 436.42 C 1238.83 435.98, 1240.44 436.47, 1242.69 436.35 C 1244.94 436.23, 1245.72 436.08, 1246.89 435.83 C 1248.06 435.58, 1248.31 435.31, 1248.54 435.10 C 1248.78 434.88, 1248.70 434.63, 1248.06 434.77 C 1247.43 434.91, 1246.88 435.16, 1245.37 435.79 C 1243.86 436.42, 1242.76 436.93, 1240.52 437.91 C 1238.28 438.89, 1236.89 439.65, 1234.16 440.69 C 1231.44 441.74, 1229.79 442.38, 1226.91 443.12 C 1224.03 443.86, 1222.38 443.92, 1219.78 444.41 C 1217.17 444.90, 1215.84 445.03, 1213.88 445.56 C 1211.92 446.09, 1211.19 446.41, 1209.96 447.07 C 1208.74 447.72, 1208.24 447.84, 1207.75 448.84 C 1207.25 449.83, 1207.01 450.95, 1207.48 452.02" style="stroke: black; fill: black;"/><path d="M 1335.77,476.08 C 1336.94 476.42, 1337.42 476.51, 1337.54 476.87 C 1337.67 477.22, 1336.99 477.69, 1336.40 477.86 C 1335.81 478.04, 1335.42 477.75, 1334.58 477.75 C 1333.75 477.75, 1332.83 477.91, 1332.23 477.87 C 1331.62 477.83, 1331.45 477.94, 1331.55 477.57 C 1331.65 477.20, 1332.13 476.52, 1332.72 476.01 C 1333.30 475.50, 1333.50 475.47, 1334.46 475.02 C 1335.42 474.56, 1336.88 473.35, 1337.50 473.74 C 1338.12 474.13, 1337.53 475.55, 1337.56 476.99 C 1337.60 478.42, 1337.79 480.79, 1337.67 480.92 C 1337.56 481.04, 1337.56 479.34, 1336.99 477.61 C 1336.43 475.89, 1335.58 473.96, 1334.85 472.31 C 1334.12 470.65, 1333.75 469.11, 1333.35 469.34 C 1332.95 469.57, 1332.90 471.93, 1332.85 473.47 C 1332.81 475.01, 1332.44 476.57, 1333.12 477.04 C 1333.80 477.51, 1335.28 476.33, 1336.25 475.83 C 1337.23 475.34, 1337.46 475.22, 1338.00 474.57 C 1338.55 473.93, 1339.05 473.23, 1338.98 472.61 C 1338.92 472.00, 1338.54 471.75, 1337.67 471.49 C 1336.80 471.23, 1335.78 471.32, 1334.64 471.32 C 1333.50 471.32, 1332.87 471.09, 1331.96 471.48 C 1331.06 471.87, 1330.18 472.54, 1330.12 473.28 C 1330.06 474.03, 1330.53 474.64, 1331.66 475.20 C 1332.79 475.76, 1334.59 475.75, 1335.77 476.08" style="stroke: black; fill: black;"/><path d="M 1380.90,477.08 C 1381.43 476.00, 1381.72 475.61, 1381.61 475.65 C 1381.49 475.70, 1381.08 476.51, 1380.32 477.30 C 1379.56 478.10, 1378.44 478.69, 1377.81 479.62 C 1377.18 480.56, 1376.93 481.68, 1377.16 481.97 C 1377.39 482.26, 1378.22 482.05, 1378.97 481.07 C 1379.71 480.10, 1380.38 478.17, 1380.90 477.08" style="stroke: black; fill: black;"/><path d="M 1418.48,476.01 C 1419.27 474.97, 1419.51 474.31, 1419.62 474.38 C 1419.73 474.46, 1419.40 475.51, 1419.03 476.38 C 1418.66 477.26, 1418.18 478.34, 1417.76 478.76 C 1417.35 479.18, 1417.18 479.33, 1416.95 478.46 C 1416.72 477.59, 1417.03 475.26, 1416.62 474.41 C 1416.21 473.55, 1415.55 473.62, 1414.89 474.19 C 1414.23 474.76, 1413.64 476.05, 1413.32 477.26 C 1413.00 478.47, 1412.81 479.77, 1413.28 480.23 C 1413.75 480.70, 1414.63 480.43, 1415.67 479.58 C 1416.71 478.74, 1417.69 477.05, 1418.48 476.01" style="stroke: black; fill: black;"/></svg>