<?xml version="1.0" encoding="UTF-8" standalone="no"?>
<svg
   width="78.570831mm"
   height="105.984mm"
   viewBox="0 0 78.570831 105.984"
   version="1.1"
   id="svg1"
   sodipodi:docname="Pharma-Logo.svg"
   inkscape:version="1.3.2 (091e20e, 2023-11-25, custom)"
   xmlns:inkscape="http://www.inkscape.org/namespaces/inkscape"
   xmlns:sodipodi="http://sodipodi.sourceforge.net/DTD/sodipodi-0.dtd"
   xmlns="http://www.w3.org/2000/svg"
   xmlns:svg="http://www.w3.org/2000/svg">
  <defs
     id="defs1" />
  <sodipodi:namedview
     id="namedview1"
     pagecolor="#ffffff"
     bordercolor="#000000"
     borderopacity="0.25"
     inkscape:showpageshadow="2"
     inkscape:pageopacity="0.0"
     inkscape:pagecheckerboard="0"
     inkscape:deskcolor="#d1d1d1"
     inkscape:document-units="mm"
     inkscape:zoom="0.7175757"
     inkscape:cx="257.81252"
     inkscape:cy="287.07772"
     inkscape:window-width="958"
     inkscape:window-height="978"
     inkscape:window-x="-7"
     inkscape:window-y="0"
     inkscape:window-maximized="0"
     inkscape:current-layer="svg1" />
  <path
     d="M40.70037 105.70822c-1.02335-.41654-1.7739-1.11714-1.98295-1.851-.0997-.35011-.29808-.63287-.44076-.62836-.41098.013-.33188-.88081.19252-2.17545.30943-.76397.43238-1.56546.34182-2.22837-.0777-.56941-.1512-1.12771-.16316-1.24069-.0116-.11299-.73768-.48937-1.6127-.83641-1.84571-.73205-2.51441-1.68821-2.47716-3.54206.0127-.62801-.0691-1.28078-.18165-1.45061-.25234-.38083-1.93288-.35726-2.15575.0303-.21181.36827.47694 2.88423.78688 2.87442.13093-.004.24397.17897.25118.4069.007.22794.44034.79258.96251 1.25474 1.21835 1.07835 1.41327 2.06053.43761 2.20506-.38029.0563-.88226-.0767-1.11548-.29561-.23323-.21893-.49383-.39583-.57914-.39313-.26354.008-2.45894-2.12998-2.98404-2.90646-.2734-.40427-.68499-1.3015-.91465-1.99385-.38508-1.16085-.495-1.26862-1.41253-1.3848-.54722-.0692-5.95635-.0473-12.0203.049-10.56307.16763-11.03157.15391-11.17383-.32739-.0817-.27628-.15539-3.97952-.16386-8.22942-.008-4.24989-.0793-11.83476-.1574-16.85527-.18945-12.178-.25645-20.29456-.20229-24.50614l.0446-3.46906 3.58517-.28577c2.62488-.20924 3.69917-.3957 4.01075-.69614.23407-.22571.55506-.41446.7133-.41946.15823-.005.32835-.14526.37803-.31167.0627-.21004.34395-.18142.91968.0936.8537.40779 3.0123 1.1299 3.36473 1.12559.10915-.001.1933-.1658.18698-.36548-.0492-1.55512 2.32519-4.72606 4.32394-5.7745 2.5555-1.34051 3.66495-1.58658 6.33802-1.40577 2.33597.158 3.01991.33525 7.51455 1.94739l1.28243.45998.25057-.72558c.13783-.39906.26579-1.85772.28437-3.24144.0593-4.41279.15701-6.83298.29154-7.21971.15524-.44624-1.12719-1.08491-1.36126-.67795-.16447.28596-2.57156.43584-2.847.1773-.19184-.18006.71728-.99482 1.42852-1.28025.25159-.10101.45365-.30337.44902-.44978-.006-.17604-.23397-.17219-.67432.0113-.78149.32576-2.94231.5139-3.19355.27806-.0956-.0897.10324-.40923.44194-.70993l.61583-.54672-1.45482.0355-1.45482.0354.77674-.55052.77673-.55051-1.34435.0405c-.7394.0224-1.41575-.0263-1.50301-.10815-.0872-.0819-.003-.55723.18719-1.05628.45703-1.19909.44666-1.23021-.33578-1.00731-.58255.16595-6.4263-.16622-6.71699-.38182-.14159-.10502 1.06426-1.16783 1.34792-1.18803.12236-.009.51752-.26342.87813-.56602.54705-.45903.57596-.54765.17455-.53495-.2646.008-1.16204.22972-1.99429.49189-1.02455.32275-1.91046.42989-2.74341.3318-1.11903-.13166-1.19716-.1859-.86457-.59988.58062-.7227.7185-1.39278.28377-1.37903-.66198.0209-3.17593-1.11018-4.10741-1.84807-1.75573-1.39084-1.11054-1.64116 5.11218-1.98347.90848-.05 1.64833-.19733 1.64411-.32745-.0117-.36285 3.23226-.0815 4.40878.38228 2.01055.79268 2.67868 1.17854 5.63289 3.25314 3.26298 2.29143 4.88318 3.14427 5.91164 3.11174.58987-.0187.66814-.1327.64271-.93653-.0264-.83597-.84341-1.969-1.40689-1.95118-.39726.0126-.49074-.78265-.13635-1.16017.32672-.34806.28122-.46512-.36616-.942-1.85522-1.36663-2.37603-3.77152-1.15265-5.32244.35737-.45302.70346-1.13634.7691-1.51847.16617-.96737 1.22187-1.72017 2.67298-1.90608 1.13242-.14506 1.30247-.0857 2.16758.75675 2.78446 2.71152 3.26961 3.46774 3.3238 5.18082.0391 1.23523-.6819 2.58521-1.39266 2.60769-.43344.0137-.49181.43483-.0921.66471.41297.23752.37356 1.86742-.0543 2.24599-.45942.40648-.75997 2.09745-.42736 2.40445.24701.22799 3.81498-1.04168 5.20273-1.85141.42887-.25023.92849-.46041 1.11027-.46705.18178-.007.32732-.11305.32342-.23643-.004-.12338.43317-.42775.97129-.67637.53811-.24862 1.619-.84899 2.40197-1.33417 3.03846-1.88279 7.38295-3.0448 10.6072-2.83706 2.72358.17547 5.33221.67094 6.54862 1.24379.58205.2741 1.24153.49257 1.4655.48549.22396-.007.41097.10612.41557.25156.005.14546.15717.26126.33903.25735.18187-.004 1.05632.33769 1.9432.75913 1.96814.93519 4.28869 1.68755 5.12359 1.66114 1.81923-.0575-.35064 1.36335-2.95822 1.93712-1.54603.3402-1.90302.51126-1.89054.90587.008.26756.1939.48084.41207.47394.21818-.007.40276.17981.4102.41494.0115.36477-.22963.41218-1.64425.32317-.91178-.0574-2.10641-.1656-2.65476-.24054-1.0827-.14794-1.15972-.0654-.64979.69641.50945.76109.17181.87021-1.42457.46041-1.74037-.44679-2.70279-.89314-5.11136-2.37055-2.53768-1.5566-2.44075-1.82163.65594-1.79348 1.37512.0125 2.65981.14335 2.85489.29077.19507.14743.77364.33233 1.2857.4109.91703.14072.91281.13435-.28103-.4238-1.54498-.7223-3.22214-1.76965-3.2343-2.01975-.005-.10626.31559-.27573.71278-.3766 2.01956-.51288 1.98216-.66504-.1519-.61797-2.17972.048-2.54091.22196-1.74579.84046.23204.18051.54893.54852.70421.81781.25289.43861.19079.48488-.59602.44409-.48307-.025-1.84325.0856-3.0226.24598l-2.14427.2915.451.73125c.48227.78195.31995 1.29682-.26529.84156-.42714-.33225-3.03288-.40484-3.30705-.0921-.10701.12206-.0442.27034.13973.32952.18387.0592.33993.28564.34681.50326.01.31217-.1702.35809-.85343.21763-.91986-.1891-2.05158-.144-3.76745.15008-.77631.13307-1.1267.35175-1.33294.83187-.33926.78986-.0618.9341 1.18012.61337 1.11409-.28773 1.17029.26925.11149 1.10507-.89233.70443-.7896 1.04967.30205 1.01514.42777-.0135.78147.0928.78601.2363.0115.36503-1.72663 1.11704-2.64934 1.14622-.76003.024-.76289.0301-.30738.67977.59379.84659.34196 1.0879-.76013.72835-.48486-.15818-1.17076-.28268-1.52422-.27666-.35345.006-.94553-.14971-1.31573-.34607-.98372-.52179-1.13497-.45123-.91303.42595.20253.80041-.1964 1.09808-.78877.58857-.14217-.12231-.59563-.29077-1.00766-.37436l-.74915-.15199.28211 3.90478c.53523 7.40834.65778 7.74273 2.54799 6.95248 1.67829-.70166 11.69299-1.20004 12.90565-.64224.47391.21799.96738.39299 1.09659.38891.41864-.0132 2.62588 1.62746 2.64728 1.9678.0118.18162.12802.32685.2591.3227.31247-.01 1.2604 1.49719 1.52423 2.42332.17245.60534.30572.69462.78799.52783.31924-.11042.61685-.30529.66133-.43304.0445-.12776.21966-.23932.38924-.24793.16959-.008.59849-.25776.95311-.55369.84876-.70828 1.56517-.73094 1.58671-.0502.0111.3526.19303.52333.54562.51218.30453-.01.53448.15957.54205.39883.015.47495.65464 1.15161 1.07596 1.13828.15584-.005.28892.16728.29573.38267.0188.59476 1.15445.72248 3.97889.44748l2.56316-.24957.30596 3.89351c.32366 4.1189 1.50878 30.72418 1.90454 42.75616l.23485 7.13989-2.38047.0623c-5.07516.13272-15.93829.0651-17.06006-.10623-1.82192-.27829-2.65634.26165-2.61117 1.68964.009.279-.10295.51104-.2484.51564-.14545.005-.25841.19966-.25101.43347.0251.79298-2.7295 3.2728-4.39467 3.95628-1.5031.61697-1.58231.62395-2.09906.18521-.71602-.60792-.69156-1.04141.0925-1.63884 2.52051-1.92065 3.61688-4.22704 2.41518-5.08075-.52039-.3697-1.62414-.42099-2.09876-.0975-.16627.11332-.28481.75945-.26341 1.43586.0216.6839-.14053 1.52353-.36531 1.89146-.41149.67356-3.20326 2.41306-3.90858 2.43537-.70807.0224-.7428 1.3685-.0798 3.09119.71833 1.86635.78313 2.48506.3475 3.318-.41146.78673-.89712 1.21289-1.9632 1.72267-1.02879.49194-1.73424.52381-2.71933.12283zm2.78138-.67755c.62471-.66552.46684-1.84868-.30999-2.32328-1.53129-.93551-4.05904-.0374-3.67628 1.30614.37544 1.31793 3.06076 2.00311 3.98627 1.01714zm-3.00832-2.89258c.60471-.28162 1.03505-.29552 2.11558-.0679.74604.15686 1.49785.38323 1.67066.50305.45309.3141.7202-.29529.32514-.74179-.37683-.42591-1.93519-.85459-2.99287-.82329-.39706.0118-1.19431.22791-1.77164.48038-.84075.36765-1.04545.59306-1.02839 1.13242.0194.61227.0622.63698.47186.27223.24781-.22065.79216-.56026 1.20967-.75469zm3.83184-1.70321c-.67063-1.16311-4.03554-1.3062-3.9996-.17008.0145.45735.20681.51136 1.66929.46869.90912-.0268 1.83151.0569 2.04975.18549.53925.31762.64129.14155.28056-.4841zm-.0329-3.2856c.054-1.20285-.0652-3.19438-.26489-4.4256-.68145-4.20164-.75426-5.68018-.32404-6.58082.219-.45846.51412-.83724.65584-.84172.14171-.004.25201-.18666.24511-.40483-.0133-.42014-.49201-.50357-.94447-.16461-.86244.64611-1.41665 2.0493-1.50886 3.82025-.0535 1.02785-.18673 1.92806-.29601 2.00048-.10929.0724-.30584-.78885-.43678-1.91392-.25152-2.16104-.85808-3.61879-1.67671-4.02964-.68641-.34449-.83361-.0782-.43924.79477.47533 1.05217.62128 5.24126.22765 6.5358-.45204 1.48685-.32394 5.67819.20149 6.59141.37079.64449.51071.69427 1.4725.52388.58454-.10353 1.42326-.0904 1.86381.0291.44056.11952.87424.22523.96371.23492.0894.01.20688-.96655.26088-2.16941zm7.92143.27886c1.54731-1.17458 2.70803-2.53661 3.35394-3.93567.55519-1.20256.63622-1.74233.57101-3.80394-.071-2.24312-.14199-2.5181-1.07068-4.14421-1.1043-1.93361-1.59104-2.71604-1.80851-2.90716-.08-.0703-.63615-.70744-1.236-1.41595-.59985-.7085-1.39645-1.54115-1.77021-1.85033-2.08583-1.72539-4.97507-3.63823-6.62425-4.38562-1.03399-.46859-1.92245-.93998-1.97439-1.04753-.0519-.10755-.23335-.1939-.40314-.19189-.32316.004-5.50706-2.34698-6.55754-2.97372-.33389-.1992-.61181-.51207-.6176-.69526-.006-.18318-.18904-.32742-.40722-.32052-.21817.007-.40232-.16595-.40922-.38412-.007-.21817-.1804-.39137-.38557-.38488-.53247.0168-1.82515-2.51783-1.85294-3.63321-.048-1.92617.35346-2.9765 1.68779-4.41594.71417-.77041 1.29403-1.54158 1.28859-1.71369-.0165-.52234-.97475-.83049-2.4385-.78419-1.31038.0414-1.45411.11673-2.56191 1.34125-.6455.71353-1.37731 1.76408-1.62623 2.33456-1.3319 3.05234-.0883 8.89681 2.39897 11.27412 2.03377 1.94388 3.24995 2.76678 5.66599 3.83375 1.40866.62209 2.71125 1.12631 2.89466 1.12051.36277-.0115 5.24786 2.21525 6.55793 2.98925.44509.26296 1.08143.60902 1.41408.769.33265.15999.60798.39079.61184.51289.004.1221.11379.21862.24427.2145.51157-.0162 3.70081 2.78375 4.33115 3.80244 1.38055 2.23111 1.57541 2.78098 1.64425 4.63977.0538 1.44788-.0358 2.02413-.37628 2.42536-.24563.28945-.44301.63996-.43861.77892.004.13897-.62608.91976-1.40106 1.73509-.77497.81534-1.40609 1.57574-1.40248 1.68979.0144.45446 1.91491.12099 2.69787-.47337zm-18.61773-.6938c-.005-.15936-.23744-.59871-.51646-.97635-1.91554-2.59264-2.01247-6.67871-.22995-9.69571.57847-.9791 2.62017-3.09341 3.85715-3.99434.49564-.36099.89758-.7952.8932-.96492-.004-.16972.13064-.3597.30004-.42219.59517-.21953-.11086-.7309-.97154-.70367-.54304.0172-1.26397.33214-1.91726.83763-1.28702.99584-2.89269 2.68356-2.88176 3.02901.004.1406-.0872.25865-.20367.26233-.54099.0171-1.3572 2.64962-1.42983 4.61159-.0418 1.12966-.17802 2.05717-.30268 2.06112-.4058.0128-.33457-3.01991.10289-4.38124.48553-1.5109 1.30134-3.07523 1.60884-3.08496.1141-.004.2035-.13123.19867-.28363-.0127-.40137 1.70646-2.05278 3.4059-3.27168 1.04832-.7519 1.17166-1.1164.54317-1.60528-.6121-.47614-1.70031.12012-3.30414 1.81038-2.34279 2.46909-3.72013 6.27171-3.60379 9.94959.0622 1.96622.17013 2.39576.9659 3.8436.49274.8965 1.26592 2.00545 1.71818 2.46432.79996.81167 1.78565 1.09859 1.76717.5144zm13.50112-.94677c1.21211-.66749 1.88565-2.0369 1.58542-3.22344-.14696-.58079-.45094-.8364-1.37516-1.15626-.65258-.22585-1.18962-.50916-1.19343-.62958-.004-.12042 1.15228-.28971 2.56908-.3762 2.08004-.12692 2.57359-.23362 2.56346-.55393-.0103-.32491-.55634-.39306-3.01826-.37671-3.13143.0208-3.73736.20726-3.70782 1.141.0182.57553.90635 1.40595 1.96073 1.83333.53962.21873.7589.49417.77101.96848.023.91715-.20185 1.20833-1.33128 1.72106-1.049.47622-1.31394 1.27604-.41324 1.24755.29669-.009 1.01196-.27728 1.58949-.5953zm-8.51359-.38345c-.0147-.46442-.21986-.73612-.67394-.89252-1.01403-.34925-1.33978-1.12632-.8777-2.09369.21248-.44482.49764-.81228.63368-.81658.34836-.011 1.29122-1.13386 1.27891-1.52303-.0113-.35787-.92472-.49993-4.18987-.65163-1.88275-.0875-2.1853-.0439-2.174.31328.0211.66768.83926.88997 2.60335.70731.90699-.0939 1.65108-.10725 1.65354-.0296.002.0777-.39848.58326-.89097 1.12356-1.46649 1.60887-1.02503 3.34546 1.05819 4.16271 1.31889.5174 1.60295.46345 1.5788-.29985zm7.78575-1.18172c.59677-.70287.2125-1.40841-.81609-1.49839-.63923-.0559-.70063.0202-.67477.83755.0439 1.38663.64746 1.65418 1.49086.66084zm-7.60096-1.05026c.30232-.61052.31321-1.6156.0174-1.60624-.54624.0173-1.353.93197-1.33462 1.51316.0254.80363.93359.86781 1.31721.0931zm38.88648-6.07851c-.14402-1.92456-.61361-12.45641-1.04362-23.40411-.43004-10.94769-.92031-20.92857-1.08952-22.17971-.16921-1.25114-.24953-2.37586-.17851-2.49937.071-.12351-1.03219-.18782-2.45162-.14292-2.81325.089-2.88913.22963-.58989 1.09336.8104.30444 1.5693.6304 1.68646.72436.11717.0939.11965 1.53366.005 3.19932-.21926 3.19913.88126 40.05193 1.29612 43.40145l.2186 1.76513-7.08446.1205c-3.89646.0663-7.7211.0613-8.4992-.011-1.66554-.15479-2.74082.0927-2.72391.62725.0168.5313.86591.89851 2.06236.89192.55545-.003 1.31043.0803 1.67774.18526.3673.10495 4.33711.0866 8.82181-.0407l8.15399-.23151zm-49.9936 3.10351c.30769-.88446-.14277-1.18671-1.69541-1.1376-.82806.0262-3.05018-.0159-4.93806-.0936-2.64381-.10881-10.14606-.18252-13.02803-.12799-.41075.008-.99499-16.21796-.62282-17.29842.13779-.40007.06-6.97607-.18954-16.01818l-.42329-15.33949 1.1355-.20718c.62453-.11391 1.20154-.32199 1.28224-.46233.0807-.14032.42926-.37289.77455-.51683.34529-.14393.62382-.38754.61895-.54135-.006-.18442-1.0201-.22218-2.97836-.11087l-2.96952.16877-.13338 1.32779c-.0733.73029.0173 8.52992.20138 17.3325.18409 8.80259.36091 19.8158.39292 24.47378.032 4.65798.15867 8.57603.28141 8.70676.12282.13073 4.90161.22936 10.61953.21915 5.71792-.0102 10.65183-.008 10.96423.004.3124.0124.63085-.15809.70767-.37891zm38.16571-1.87033c1.05181-.17059 2.23234-.50853 2.6234-.75098l.71102-.44083-1.05224.20951c-.57872.11526-3.36154.32897-6.18402.475-2.82249.14601-5.18681.3241-5.25405.39573-.58972.62824 5.51169.70259 9.15589.11157zm8.4032-.99249c-.89009-4.95719-1.0236-6.72896-1.39799-18.55205-.21877-6.90878-.34437-16.04899-.27909-20.31157.0653-4.2626.0364-7.8274-.0642-7.92179-.48556-.45579-.65356.728-.7433 5.23747-.0948 4.76249.80961 32.79555 1.10058 34.1135.0798.36146.27253 1.90395.42831 3.42776.15578 1.5238.33017 3.06687.38754 3.42904.0574.36217.11906.86649.13716 1.1207.018.25422.16233.45812.32056.45311.18208-.006.22263-.37146.11046-.99617zm-23.48876.743c-.10724-.46775-.36586-.48515-3.72808-.25071-1.81157.12634-1.00631.57532 1.07787.60102 1.12879.0139 2.21058.0443 2.40398.0674.205.0245.30769-.14965.24623-.41776zm22.42426-1.1064c-.24082-1.13863-1.18673-11.7153-1.25712-14.05634-.0302-1.01821-.24554-8.80601-.4775-17.30628-.37448-13.71752-.46873-15.4793-.83824-15.67104-.34356-.17824-.4109-.0402-.38507.78883.0172.55266.0509 4.04184.075 7.75371.0598 9.24247.0925 10.11355.81512 21.6809.62285 9.9704 1.49454 17.68868 1.99594 17.67282.14028-.004.17227-.38816.072-.8626zm-36.13327 1.23781c-.009-.29824-.89389-.49144-2.92537-.63903-1.35541-.0985-1.59666-.0521-1.58536.30502.0103.32534.35993.43192 1.53693.46847.83799.026 1.85158.0595 2.25244.0743.40085.0148.72546-.0791.72136-.20878zm29.24854-1.16907c.31897-.19198-.98155-.26303-4.29163-.23445-2.61209.0226-4.91454-.006-5.11655-.0633-.202-.0573-.41712.0461-.47803.23006-.077.23244.21375.32413.95348.30073.58533-.0185 1.15265.0998 1.26071.26286.24047.36288 6.96768-.0719 7.67202-.49588zm5.55241-2.60761c-.14952-1.3784-.46065-4.19437-.69138-6.25769-.23074-2.06332-.40898-4.26144-.39609-4.88471.0129-.62327-.10867-2.79675-.27016-4.82995-.67279-8.47091-.88916-13.62882-.88163-21.017.005-4.54751-.0933-7.90759-.23445-8.0445-.14553-.14117-.29472-.0835-.37331.14416-.24174.70037-.17621 11.43716.0886 14.52006.14412 1.67779.46303 6.91564.70867 11.63966.24568 4.72402.51888 9.06334.60721 9.64292.0883.57957.3395 3.21757.55821 5.8622.2187 2.64463.54089 5.05685.71597 5.36051.17508.30366.34576.51125.37928.46132.0335-.0499-.0614-1.21857-.21092-2.59698zm-43.09951 3.02756c.1389-.46888-.61827-.54155-5.63983-.54133-2.47509.00015-4.88567-.0463-5.35685-.10319-.47118-.0568-1.11349.0009-1.42738.12849-1.34145.54504 5.29537 1.14963 10.23451.93232 1.38635-.061 2.12595-.20161 2.18955-.41628zm9.83513-.18851c-1.23372-.68815-2.07253-.9341-3.53867-1.0376-1.04677-.0739-1.76717-.0242-1.76256.12148.007.22225.73178.39411 4.1341.98032.92762.15982 1.51119.12775 1.16714-.0641zm12.1363-.72751c.65249-.63315-3.95376-.82784-5.02145-.21224-.28059.16178-.45224.38152-.38148.48832.11892.17947 5.20109-.0802 5.40293-.27608zm23.89004-1.26608c-.20218-.90196-.35697-.82978-.32591.15197.0141.44493.12662.74202.25009.66019.12349-.0818.1576-.44729.0758-.81216zM8.24299 86.112c-.0846-1.05287-.11941-4.0596-.0782-6.68159.20117-12.65646.20971-18.03922.0444-27.99509-.15262-9.19409-.23406-10.77976-.55306-10.76967-.31434.01-.33225 1.24702-.11214 7.74648.3045 8.99075.39297 20.89822.19618 26.39919-.17977 5.02519.07 13.23356.40247 13.22304.14788-.005.18985-.80881.10031-1.92236zm1.20419-2.75514c.007-2.18207.014-5.99254.0161-8.46769.002-2.47517.0271-7.35996.0554-10.8551.0706-8.72196-.42079-23.94345-.77263-23.93232-.15002.005-.31884.15899-.37517.34276-.0563.18377.0334 6.34549.19951 13.69273.16607 7.34722.24103 16.04075.1666 19.31897-.14646 6.45083-.14506 6.69995.0638 11.30134.20015 4.41069.63135 3.47635.64635-1.40069zm57.64725 2.04272c.93619-.20536 1.73627-.40973 1.77797-.45415.0417-.0444-.0594-.6597-.22468-1.36729-.16526-.70759-.53733-4.67402-.82682-8.81428-.28949-4.14025-.70559-9.78539-.92467-12.54474-.52385-6.59817-.75997-14.09092-.65016-20.6174.0491-2.90802-.009-5.38005-.13025-5.49343-.24933-.23404-2.6364 1.03823-3.06972 1.6361-.15657.21603-.33827 1.35939-.40377 2.54079-.17987 3.24405-.89757 5.38597-2.82377 8.42727-1.31883 2.08232-6.03607 5.94615-7.96658 6.52535-.36056.10815-.9457.43942-1.3003.73611l-.64472.53944.81671.71331c2.47556 2.16214 3.4928 4.16602 3.63372 7.15812.0947 2.0103-.034 2.78273-.76798 4.60843-.11856.29494-.32733.83759-.46394 1.2059-.60575 1.63326-2.77256 4.12341-4.52729 5.2029-.83566.51408-1.29516.96257-1.20527 1.17637.0799.19004.72711.69694 1.43824 1.12643 2.22451 1.34353 5.94357 5.56518 6.69334 7.59788.29943.8118 8.01585.87643 11.5695.0969zm3.70344-.20739c-.0123-.3272-.19589-2.01888-.40896-3.75926-.21307-1.74039-.47286-4.76979-.57731-6.732-.10448-1.9622-.51361-9.27527-.90924-16.25125-.39564-6.97598-.71318-14.51832-.70564-16.76075.0101-3.01109-.0613-3.99722-.27332-3.7714-.42269.4503.0474 21.3575.59034 26.25557.23199 2.09292.55607 6.24305.72015 9.22253.3557 6.45877.78771 11.94323.96199 12.21267.26184.4048.62269.15537.60199-.41611zm-60.27262-6.82454c-.0253-4.26031-.002-8.46217.0529-9.33746.0545-.87527.0896-4.09268.0782-7.14979-.0114-3.0571.0184-5.91697.0661-6.35527.0478-.43829.0541-4.29652.014-8.57385-.0621-6.63286-.12716-7.75704-.44224-7.64155-.4074.14934-.49401 2.53796-.47383 13.06734.006 3.20287-.0143 8.56402-.0453 11.91364-.0311 3.34964-.0159 9.78175.0338 14.29359.0744 6.7569.14955 8.14391.42635 7.86636.25306-.25375.32467-2.25004.28996-8.08301zm18.46611 7.32531c-.009-.28853-1.36388-.34198-6.97872-.27532-4.52919.0538-7.17159-.0184-7.55092-.20621-.46202-.22878-.58122-.21612-.57246.0608.007.20619.36461.36276.8724.38148.47373.0174 1.46009.13173 2.19193.25395 1.94325.32454 2.72236.3492 7.61821.24114 3.57051-.0788 4.42869-.1673 4.41956-.45582zm40.34224-2.57218c-.0734-.32527-.11649-.0559-.0958.59863.0207.65453.0807.92065.13342.5914.0527-.32926.0358-.86477-.0376-1.19003zm-26.88717 1.8712c.16187-.2081.34721-.99008.41187-1.73774.13204-1.52687-.39415-2.39394-1.43285-2.36108-.85848.0271-1.1857.55155-1.14509 1.83515.0627 1.98228 1.34364 3.32094 2.16607 2.26367zm31.91698-1.50087c-.0791-.17949-.13443-.0289-.12293.33478.0115.36362.0763.51048.14384.32635.0676-.18413.0582-.48164-.0209-.66113zm-26.21267 1.1743.78742-.21272-.72724-.32477c-.59396-.26525-.94541-.25618-1.91763.0495-.6547.20584-1.1871.47779-1.1831.60433.008.26664 1.88934.19469 3.04055-.11629zm-9.31157-.57711c.8234-1.06045.74618-1.84858-.21066-2.15005-.61536-.19388-.92941-.0488-2.41336 1.11474-.93827.73571-1.70313 1.42684-1.69968 1.53588.006.17736.86253.28016 2.95085.354.48884.0173.88957-.23216 1.37285-.85457zm-27.32786-2.18273c.0275-2.00278.13083-4.71608.22957-6.02954.0987-1.31347.15035-3.81667.11469-5.56266-.0356-1.746.0111-4.24904.1039-5.56232.21479-3.04009.34544-13.07427.27195-20.88554-.047-4.99826-.11826-6.02853-.4093-5.92162-.27615.10149-.34689 1.55561-.3271 6.725.0139 3.62755-.0651 9.87427-.17547 13.88158-.11039 4.00733-.22662 9.49061-.25829 12.1851-.16329 13.8912-.15564 14.829.12084 14.82025.1744-.006.29795-1.37556.32921-3.65025zm1.21067-.59109c.12362-2.50264.24696-7.35692.42854-16.86581.0306-1.60251.15362-3.04599.27336-3.20776.11975-.16178.13014-5.61194.0231-12.11148-.16612-10.0874-.24928-11.81549-.56812-11.80471-.31139.0106-.34424 1.23564-.19749 7.36657.0968 4.04466.11085 9.37455.0312 11.84422-.0797 2.46966-.17848 6.75467-.21959 9.52225-.0411 2.76757-.15835 6.22583-.26054 7.685-.28553 4.07684-.22413 11.49213.0902 10.89329.14285-.27215.32256-1.76687.39935-3.32157zm17.49404 1.39855c.43782-.95505 1.15848-2.14682 1.60144-2.64837.44297-.50156 1.02539-1.35518 1.29425-1.89695l.48887-.98502-.59149-.5171c-.32531-.2844-.6683-.51467-.76221-.5117-.0939.003-.93531-.68749-1.8698-1.53436-1.58791-1.43901-1.9044-1.91444-3.40445-5.11419-.24719-.52727-.44536-1.92175-.52525-3.69612-.1388-3.08142-.023-3.50257 1.58677-5.77467.89566-1.26416.9441-2.489.12868-3.2544-.31136-.29226-.67169-.5744-.80074-.62698-.7413-.30204-3.06915-1.83355-3.07514-2.02318-.004-.1237-.13022-.22103-.28067-.21627-.39874.0126-3.47675-3.10355-4.0847-4.13533-2.0678-3.50939-2.58801-5.11283-2.79495-8.61492l-.17936-3.03536-1.01829-.17819c-.56006-.098-1.13705-.28965-1.28219-.42589-.86033-.80757-.89995-.26077-.71663 9.89199.17866 9.89499.16145 11.12702-.222 15.89414-.10292 1.2795-.22107 4.97601-.26256 8.21448-.0415 3.23848-.15416 7.0223-.25037 8.40847-.0962 1.38619-.16644 2.89056-.15608 3.34305l.019.8227 5.3649.13923c2.95069.0766 5.90153.15778 6.55741.18043.6559.0227 1.92314.0389 2.8161.0361l1.62357-.005zm15.85143.94878c.58601-.0205.85537-.15698.84681-.42748-.009-.28511-.30398-.38746-1.04873-.3639-1.31442.0416-1.86599.27399-1.85.77951.009.28495.18149.34819.6026.22094.32448-.098.97668-.19214 1.44932-.20907zm27.71966-14.13328c-.18575-6.75486-.33818-15.88965-.33865-20.29956-.00078-7.32449-.077-8.62297-.48068-8.19289-.0756.0805-.0725 5.66928.007 12.41936.0794 6.75009.11724 13.98751.084 16.08317-.0515 3.25173.70194 12.65949.98937 12.35329.0422-.045-.0752-5.60852-.26101-12.36337zM44.6209 82.29058c.44886-.35053.44886-.3779.00011-.53401-.26013-.0905-.6321-.0237-.82659.14834-.80978.71649-.0508 1.07068.82644.38567zm23.81761-13.23761c-.84155-11.98405-1.26362-21.46832-1.20876-27.16149.0364-3.77635-.0309-5.22729-.24227-5.22047-.76734.0248-.0123 23.03806 1.12689 34.34736.29803 2.95862.48224 5.48297.40937 5.60966-.0728.1267-.004 1.26977.15308 2.54018l.28563 2.30983.007-2.38266c.004-1.31047-.23513-5.82955-.53094-10.04241zm-20.81772 6.48225c.46523-.3787.95676-.69206 1.0923-.69635.42705-.0135 1.61732-1.14152 1.45809-1.38183-.13908-.20988-1.53007.30905-2.47806.92447-.214.13893-.59512.3291-.84696.42262-.26499.0984-.44948.43554-.43794.80032.025.79144.16505.78345 1.21257-.0693zm.0867-1.69162c1.20365-.60298 2.77608-1.65925 3.49429-2.34726 3.45384-3.30865 3.65856-9.40501.42702-12.71645-.49971-.51207-1.16032-1.19453-1.46801-1.51658-.30768-.32206-.86694-.82806-1.2428-1.12444-.84886-.66939-4.5318-2.34038-5.11746-2.32185-.23774.008-.50078-.0898-.58456-.21622-.0837-.12644-.60252-.29858-1.15276-.38253-.55025-.084-1.36259-.30382-1.80522-.48859-.44263-.18478-1.58631-.56505-2.54153-.84506-.95521-.28-1.85328-.61515-1.99568-.74476-.14242-.12961-.56252-.22985-.93355-.22275-.37106.007-.91115-.15449-1.20024-.3591-.28909-.20462-.67812-.3672-.86451-.36131-.1864.006-1.03634-.28099-1.88876-.63753-.85243-.35654-2.09308-.8749-2.75702-1.15193-.66393-.27704-1.26879-.56952-1.34413-.64997-.0754-.0805-.71158-.42342-1.41386-.76215-.70229-.33872-1.2798-.70761-1.28334-.81973-.004-.11213-.12545-.2001-.2709-.1955-.14545.005-.48675-.2003-.75844-.45534-.27169-.25502-.741-.62733-1.04289-.82733-.65422-.43341-1.99489-3.39599-2.26904-5.0141-.30121-1.77773.65632-3.49217 2.71541-4.86192.81699-.54347.98371-.578.99547-.20616.005.14905-.29421.39721-.66428.55147-.76214.3177-1.33183.86175-1.97034 1.8817-.5572.89005-.5657 1.94257-.0138 1.71052.21552-.0907.39151-.30092.39109-.46732-.00085-.34648.86639-1.5212 1.1292-1.52951.0962-.003.3477-.18968.55897-.41475.47222-.50307 2.74284-.62146 3.22707-.16821.23092.21612 1.0883.27844 2.63999.19187 1.2639-.0705 3.23496.0153 4.38014.19068 2.17642.33334 3.21483.11623 2.91013-.60844-.21789-.51818-1.1102-.71753-2.70428-.60414-.85988.0611-1.3901-.0112-1.39577-.19026-.005-.15888.41519-.30231.93382-.31871.51863-.0164 1.19396-.17455 1.50074-.35143.30677-.17687.97695-.34698 1.48929-.378 1.45139-.0878 1.30268-.75171-.32121-1.43391-2.24543-.94331-2.94008-1.05261-3.62722-.57065-.33268.23334-.52757.54092-.43308.6835.53855.81277-1.56237 1.47762-2.242.70948-.46997-.53117.0581-1.19022.98617-1.23082.38201-.0171.92634-.21733 1.20959-.4458.44178-.35633.45766-.44915.11171-.65285-.22182-.1306-.49255-.23645-.60165-.23523-.10908.001-1.26006-.14661-2.55772-.3285-2.14868-.30119-2.47334-.28887-3.63559.13801-4.4857 1.64752-6.3363 3.55985-7.17471 7.41399-.36252 1.66651-.36883 2.19558-.0476 3.99808.47477 2.66418 2.19575 7.12217 2.74498 7.11051.10911-.002.20349.15658.20971.35312.0127.40129 2.95095 3.5197 3.30579 3.50848.1254-.004.57499.3094.99909.69636.42409.38698 1.24934.9267 1.83389 1.19939.58455.27271 1.12697.57514 1.2054.67208.12452.15394 2.81535 1.32075 5.22903 2.26744.44226.17346 1.2265.48782 1.74274.69857 1.7089.69763 5.21022 1.62984 6.02485 1.60407.441-.014.93678.10132 1.10173.25616.31012.2911 1.40472.049 1.39342-.30819-.004-.11108-.27816-.32046-.61032-.4653-1.26833-.55307-2.56875-1.04933-2.73582-1.04405-.0957.003-1.2236-.44706-2.50643-1.0002-1.28285-.55315-2.81531-1.20709-3.40547-1.45319-2.63803-1.10015-6.00185-2.67559-7.04794-3.3009-.62774-.37525-1.2083-.68015-1.29013-.67756-.42414.0134-3.1674-2.12928-2.86764-2.23984.18988-.07.42402-.0256.52031.0987.0963.12431.72186.56541 1.39014.98023.66829.41483 1.27659.81574 1.35177.89091.16152.16152 2.32538 1.23248 4.03389 1.99651.66456.29719 1.39016.64037 1.61241.76262.22226.12226.58495.29047.80597.37382.43637.16454 2.41806.98118 4.96192 2.04475.88527.37013 2.57427 1.04327 3.75333 1.49586 1.17907.45259 2.20548.89131 2.28093.97494.0755.0837.68247.44463 1.34895.80225 1.42406.76412 2.39133 1.74009 3.07623 3.10387.74012 1.47369.65878 2.61563-.3456 4.85224-.75462 1.68044-1.1527 2.20075-2.47851 3.23956-2.13674 1.67422-2.22478 1.75898-2.21303 2.13049.01.30781 1.69068 1.14703 2.31581 1.15619.1617.002 1.27882-.48903 2.48248-1.092zm-5.47189-1.26997c.56865-.99538.58312-11.09767.0164-11.42363-.16748-.0963-1.00765-.17186-1.86703-.16785-1.45834.007-1.57303.0518-1.72024.67407-.20967.88639.15406 9.24622.44415 10.20852.16548.54894.44143.79633 1.00777.90345.63445.12002 2.01151-.006 2.11898-.19456zm-4.72151-1.98062c-.0109-.34581-.20307-.77125-.42697-.94541-.2239-.17416-.4104-.4211-.41444-.54874-.004-.12763.17117-.23772.38934-.24462.21817-.007.40004.0937.40415.22362.004.12988.18814.29901.40896.37582.73206.25468.40897-.82411-.50328-1.68042l-.87312-.81958.85223.15913c1.07368.20045 1.08104-.12655.0272-1.20949-.92916-.95483-.86701-1.46204.10628-.86742.60758.37118.65966.36909.64715-.0265-.007-.23634-.25804-.62595-.55681-.86581-.29878-.23988-.54879-.61199-.55559-.82693-.01-.30395.0604-.3225.31501-.0835.50278.47193.75249.3568.73055-.3368-.0121-.38161-.28753-.79419-.69747-1.04464-.66758-.40784-.69627-.39365-1.95163.96506-1.39411 1.50888-1.63988 2.15611-1.58403 4.17145.0642 2.31376 1.50088 4.27661 3.10708 4.24481.45234-.009.59046-.16272.57535-.64054zm8.03651-.0219c.18227-.52396-.59758-.49413-1.26984.0482-.47545.38383-.45937.40318.31456.3787.48102-.0152.87289-.19049.95526-.42728zm-1.30287-.52679c.23179-.24693.6973-.48811 1.03446-.53595 1.08102-.15338 1.74448-.47623 1.6223-.78939-.11398-.29211-.30122-.29342-1.77331-.0124-1.53487.29299-2.46172 1.09185-1.88973 1.62876.28695.26936.55233.19262 1.00628-.29099zm1.33624-1.7528c1.61863-.33218 2.14647-.61931 2.14035-1.1643-.007-.63397-3.48976.43914-4.32163 1.33164-.44126.47341-.4484.52497-.0517.37291.25319-.097 1.25803-.34015 2.23299-.54025zm1.00008-1.77374c1.12708-.19118 1.51369-.78247.69732-1.06647-.61275-.21317-2.96919.51894-3.61208 1.12222l-.57392.53854 1.18483-.20224c.65165-.11126 1.68839-.28765 2.30385-.39205zm-13.40093-.9101c.048-.55072.23167-1.57101.40821-2.26732.54826-2.16242-.61597-2.452-1.71757-.4272-.58614 1.07736-.61301 3.6564-.0415 3.98511.64222.36937 1.25748-.21844 1.35088-1.29059zm13.20962-.48988c1.20475-.0381 1.29947-.0879 1.20426-.6337-.0896-.51347-.24756-.58162-1.18655-.51186-.59578.0443-1.51166.27563-2.03529.51413-1.19467.54415-1.27062 1.13449-.1112.86421.45166-.10533 1.40961-.21003 2.12878-.23278zm-1.78045-1.39798c.40973-.23045.9532-.42633 1.20771-.43527.56036-.0197.59891-.5084.055-.69761-.44675-.15541-2.16468.4139-2.38034.78884-.12999.226.0743.77249.28625.76578.0475-.001.42162-.19128.83136-.42174zm-.0207-1.65545c.1455-.49385-.92014-.37784-1.09297.11902-.10932.31423-.003.39415.42424.31748.31367-.0564.6146-.25276.66873-.43647zm8.37204-8.66928c2.8521-1.71692 6.62095-4.77825 6.60245-5.36298-.005-.14989.0806-.27611.18967-.28048.42471-.0174 1.71321-2.8403 1.9605-4.29579.56918-3.34981.73448-4.65298.70569-5.56311-.033-1.04353-1.06912-3.42572-1.48427-3.41259-.11646.004-.21573-.11902-.22059-.27266-.0154-.48572-1.72193-1.77669-3.25447-2.46193-1.38025-.61715-1.75369-.65718-5.71074-.6121-4.20829.048-7.13144.49723-8.77922 1.34937-.59124.30576-.5812.32108.41722.63716.56268.17813 1.3483.25042 1.74584.16062.39754-.0898.72648-.0472.73096.0946.004.14182-.37848.27386-.85104.29344-.47255.0199-1.09144.2252-1.37531.45694-.50998.41635-.50988.42567.009.78544.44265.30676.45702.36625.0913.37782-.54272.0172-.98341-.68218-.83635-1.32723.20352-.89266-.97706-1.11316-2.40146-.44853-.67746.31611-1.22784.69797-1.22307.8486.005.15061.0991.27098.2097.26748.11057-.004.51689.26846.90293.60436 1.09079.94909 2.31552 1.44333 3.05475 1.23274.40612-.11569.66169-.0752.66741.10564.006.18858-.72152.31923-2.03996.36635-1.85949.0668-2.00056.10771-1.52361.44527.6822.48285 3.72342.39774 5.22983-.14642.61682-.22278 1.57987-.49964 2.14011-.61524.93439-.19278 1.444-.40701 2.51495-1.0572.21427-.13009.64226-.35601.95109-.50204.30882-.14604.63155-.38732.71717-.5362.32233-.5604 2.45072-.71369 3.80621-.27415 1.04079.3375 1.48877.68258 2.1957 1.69133.81723 1.16613.879 1.38821.77375 2.78194-.17534 2.32204-.56656 3.77094-1.46606 5.42972-.8149 1.5028-3.25609 4.13402-4.29232 4.62649-.2963.14081-.71362.37529-.9274.52108-.21378.14579-.85854.47494-1.4328.73145-.57426.25651-1.35467.64422-1.73424.86158-.37958.21735-.90975.40288-1.17818.41226-.26843.009-.79154.18786-1.16246.39659-.37093.20874-1.10702.47493-1.63576.59154-1.25956.27778-1.22906.89626.0687 1.39309 1.3839.5298 3.34183.0757 6.29512-1.45989 2.43762-1.2675 6.30948-3.84988 6.29838-4.20079-.004-.11581.1184-.21451.27127-.21934.30492-.01 2.0399-1.92934 2.03184-2.24819-.003-.10911.114-.20213.25945-.20673 1.09022-.0345-1.34854 2.58472-4.35231 4.67435-2.08333 1.4493-2.93522 1.96666-5.28177 3.20764-1.09717.58023-1.66615 1.35883-1.11797 1.52981.44594.1391 1.88256-.4335 3.44015-1.37114zm-10.97449-3.26745c.12135-3.09089-.0722-9.31081-.33928-10.88382-.18036-1.06456-.29648-1.22529-.97701-1.35235-.70803-.1322-.76101-.21708-.63653-1.01997.13648-.88016.0203-1.07161-1.07901-1.77828-.61144-.39305-.42056-.99282.50223-1.57804.71527-.45362.84039-.49907 1.43119-.51978.44273-.016.1133-11.53355-.35081-12.26396-.35356-.55646-1.51005-.61404-2.08663-.10388-.89298.7901-.94096 2.11235-.60242 16.59992l.33452 14.31576.89506.31943c2.91557 1.04052 2.79639 1.11162 2.90816-1.73502zm3.51485 1.49054c.13405-.13485.42219-.25083.64031-.25773.52682-.0167 4.76028-1.74497 5.25304-2.14455.21293-.17266.68053-.45361 1.03911-.62434 1.31082-.62409 4.38275-3.71218 4.36149-4.38442-.006-.18187.0866-.33374.20532-.3375.36865-.0117 1.28437-2.77966 1.25253-3.78608-.0261-.82484-.12716-.97113-.73807-1.06799-.38931-.0617-1.04638.0179-1.46015.177-.93233.35846-3.70775.25146-6.17604-.2381-1.49801-.29711-2.2111-.30581-3.62623-.0442-1.69527.31337-3.61569 1.23803-3.60002 1.73335.01.30377-.0103.30592 1.63599-.17627 1.35751-.3976 3.11062-.4016 3.12309-.007.003.10875-.72131.28695-1.61054.39603-.95234.11676-1.78339.37579-2.02216.63015-.36976.39392-.24941.42692 1.37023.37569.97659-.0309 1.77883.0456 1.78276.17004.004.12442-.78719.32581-1.75808.44754-.97087.12176-1.92836.39513-2.12775.60754-.31266.33309-.0444.35624 1.95014.16835 1.59059-.14986 2.26153-.12886 2.14885.067-.0901.15667-.37964.23567-.64339.17555-.26374-.0601-1.00332.0919-1.64352.3377-.6402.24586-1.3722.45535-1.62667.46552-.25447.0101-.45702.19699-.45012.41516.0145.45847.25962.48416 1.13558.11902.94672-.39463 3.16671-.54374 3.28587-.22069.0599.16222-.47314.36646-1.2692.48637-.75479.11372-1.49064.33274-1.63523.48678-.1446.15404-.47008.28663-.7233.29464-.47375.015-.90018.48736-.65105.72121.077.0723 1.11876-.0853 2.31487-.3503 1.19611-.26501 2.22552-.43417 2.28759-.37591.29034.27253-.29771.68357-1.01018.70611-.43575.0138-1.32504.28841-1.97622.61029-1.2184.60226-1.44169 1.0319-.28591.55012.79333-.3307 3.02505-.55903 3.26475-.33403.096.0901-.5163.38038-1.36073.64497-3.42483 1.07311-3.68717 1.64034-.38825.83947.90889-.22066 1.71737-.30331 1.79664-.18368.0793.11964-.0374.22326-.25918.23027-.22183.007-.81821.20456-1.32531.43899s-1.34744.62349-1.86742.86457c-1.47564.68415-.86577.74456.98931.098 1.85963-.64815 2.4411-.74079 2.21831-.35343-.082.14255-.58871.35056-1.12605.46227-.9348.19433-3.18911 1.40244-3.17958 1.70397.007.21877 2.20565-.25675 2.48457-.53733zm-8.0935-1.04033c-.009-.29089-.26227-.75938-.56236-1.04107-.3001-.28169-.54953-.63536-.55429-.78593-.006-.18561.16453-.188.52918-.008.45015.22291.53527.18439.52196-.23621-.009-.27641-.26347-.79759-.56607-1.15821-.30259-.36061-.55252-.73032-.55541-.82159-.003-.0913.23678-.0461.5326.1004.45951.22754.53527.18438.52006-.29628-.01-.30943-.26537-.85765-.56797-1.21827-.30259-.3606-.55355-.7628-.55769-.89374-.004-.13096.2345-.11825.53032.0282.4493.22248.53526.18438.52211-.23141-.009-.27376-.27048-.77334-.58182-1.1102-.5862-.63421-.29703-1.06261.36805-.54526.38624.30044.41557.0448.32765-2.85523-.0682-2.24996-.18249-2.33643-3.17082-2.39922-1.42452-.03-4.02299-.16505-5.77439-.30026-4.62104-.35677-5.28402-.30527-6.05925.47059-.36046.36075-.65232.75222-.64859.86994.004.11772 2.08691.13748 4.62932.0439 4.87685-.17948 5.84977-.0447 8.5909 1.19022 1.26814.57132 2.41462 1.56627 2.14086 1.85791-.0961.10239-.54959-.17389-1.00783-.61385-.45824-.43997-1.27635-.92732-1.81805-1.08301-.54169-.15568-1.10655-.36313-1.25524-.461-.76861-.50586-3.61027-.70651-7.51233-.53042l-4.25171.19182-.12936 1.39176c-.15567 1.67496.23961 2.88668 1.30806 4.00984.95835 1.00742 3.53167 2.82761 3.97763 2.8135.17978-.006.36937.0777.42131.18521.11692.24215 4.69454 2.30012 5.08852 2.28766.15735-.005.66621.14143 1.13082.32535 2.18976.86685 3.2837 1.20825 4.25124 1.3267.10962.0134.19178-.2136.18258-.50449zm10.1208-12.22835c1.13544-.0339 2.54589.0951 3.13431.28631 1.25888.40904 5.13231.36108 6.54915-.0811.87491-.27306.9799-.3999.95492-1.15378-.0683-2.06467-3.62898-3.80849-5.50586-2.69652-.42612.25245-.9295.61281-1.11861.80078-.18911.18797-.49928.34669-.68925.3527-.18997.006-.48791.19412-.66207.41802-.17417.2239-.56979.41683-.87917.42873-.30939.0118-1.03609.20371-1.6149.42623s-1.91388.51708-2.96684.65457c-1.99784.26087-2.41484.56813-2.3774 1.75176.016.50641.0935.49171 1.56406-.29679 1.31829-.70686 1.85264-.83868 3.61166-.89092zm-10.61015-3.24203c-.008-.24548-.26139-.38881-.66539-.37603-.47164.0149-.60709.1294-.48805.41251.0907.21552.39004.38473.66537.37602.27534-.009.49497-.19433.48807-.4125zm-6.57179-2.00529c.0734-.12761.0634-.29777-.0223-.37813-.21289-.19985-.89006.1062-.88083.3981.01.30216.72691.2863.90307-.0196zm7.95189-12.94489c-.004-.11802.22762-.48271.51412-.81041l.52089-.59583-.61266.0194c-.33696.0107-.78864.23858-1.00371.50647-.77885.9701-.79222 1.13864-.0886 1.11638.3722-.0118.67367-.11796.66994-.23599zm3.28626-.23086c-.14948-.35551-1.7483-1.00352-1.94883-.78988-.0645.0687.17492.35286.53195.63155.73618.57465 1.63412.67499 1.41688.15833zm-.80862-6.97858c.10233-1.79093.004-1.9193-1.44137-1.87359-1.43003.0452-1.54642.20424-1.3282 1.81453.15878 1.17163.35008 1.30654 1.86377 1.31441.80782.004.83607-.0344.9058-1.25535zm-1.58477-2.22282c.58218-.006 1.37164.0646 1.75436.15653.92535.22228 1.15977-.43534.4547-1.2756-1.2644-1.50682-5.44697-.64014-4.86581 1.00826.17407.49375.31737.54999.90257.35418.38261-.12802 1.17198-.23753 1.75418-.24337zm-1.76832-3.82804c.30039-1.97347.31821-2.39727.1059-2.51938-.1115-.0641-.35876.0844-.54948.32992-.3115.4011-.36288.36911-.50524-.31459-.33631-1.61523-1.86064-.75505-2.01344 1.13619-.10477 1.29673.351 2.07074 1.46852 2.49389.97081.3676 1.30469.11591 1.49374-1.12603zm1.86837.60498c-.0437-.2898-.16549-.95683-.27073-1.48228-.11584-.57824-.0792-1.02967.0927-1.1436.49959-.33104.28959-.68659-.3928-.66501-.58436.0185-.65964.13613-.64834 1.0132.007.54575-.0754 1.23331-.18313 1.5279-.27741.75844.21035 1.49891.90714 1.37713.39874-.0697.55024-.26164.49515-.62734zm2.35376.0366c.55592-.32052 1.22739-1.78238 1.20106-2.61483-.0152-.48108-.86699-1.60987-1.20668-1.59913-.0921.003-.15791.3028-.1464.66643.013.41136-.12895.66586-.37577.67366-.21817.007-.40044-.10645-.40504-.2519-.0188-.59307-.75861-.18562-1.04632.57624-.24221.6414-.23421 1.04054.0371 1.85184.36865 1.10239.9056 1.2953 1.94206.69769zm-1.88771-4.31722c.42346-.29702.63054-.69361.61521-1.17827-.0283-.89514-.40698-1.21053-1.69138-1.40874-.87509-.13505-1.08188-.0547-1.78355.69279-1.01419 1.08045-.9275 1.96895.21209 2.17392 1.3754.24738 1.98848.18262 2.64763-.2797zm6.43499 26.50658c-.0828-.1249.23511-.82956.70638-1.56591.47126-.73634.85803-1.45798.85947-1.60362.001-.14564.16735-.6066.3687-1.02434.20135-.41775.42024-1.52656.48642-2.46401.0824-1.16787.23271-1.70801.47736-1.71575.211-.007.32372-.24941.27556-.59348-.0509-.36379.0816-.62169.35313-.68749.66807-.16188 1.19687 1.55072 1.27979 4.14482.0792 2.47853-.36264 3.70514-1.34591 3.73624-.28959.009-.84096.37972-1.22525.82346-.71491.8255-1.96592 1.35715-2.23565.95008zm-2.83353-.62446c-.31814-.55178-.29399-.70321.20157-1.26377.99104-1.12106 1.54236-2.711 1.63895-4.72659.0925-1.9293.0971-1.93998.78346-1.79063 1.31271.28568 1.61978 1.39747 1.09771 3.97426-.21813 1.07659-.50545 1.96087-.63849 1.96508-.13305.004-.23653.1775-.22996.38509.0131.41385-1.73231 2.05942-2.20005 2.07422-.16046.005-.4544-.27287-.65319-.61766zm7.13492.005c-.008-.26223.13313-.66954.31427-.90512.18115-.23559.52703-1.06799.76862-1.84978.50614-1.63784.33301-5.09007-.30257-6.03355-.32339-.48005-.31462-.62018.0641-1.02364.41433-.44139.46854-.43357.9725.14022.29355.33422.65948.74756.81317.91854.1537.17099.28338.43492.28818.5865.005.15159.11653.2722.24831.26803.34613-.0109 1.15583 2.27882 1.19021 3.36584.0712 2.25111-1.49979 4.53666-3.32745 4.84091-.85204.14184-1.01666.0926-1.02933-.30795zm-19.22057.28168c-1.01824-.76947-1.48066-1.97016-1.54526-4.01227-.0834-2.63836.53002-4.65471 1.53445-5.04335.99641-.38554 1.00297-.38385.83383.21402-.0941.33269.0159.59795.31041.75095.42284.21937.41843.32184-.0606 1.41132-.28408.64612-.58828 1.51707-.67599 1.93545-.20918.99785.47813 3.4708 1.11494 4.01147.27581.23418.50653.58583.51272.78146.0162.51082-1.3267.47828-2.02452-.0491zm-3.71193-.39383c-.75875-.62965-1.48761-2.06617-1.70897-3.3682-.28842-1.69646.48551-3.92502 2.09692-6.03815.48807-.64003 1.36483-.65456 1.78318-.0296.27105.40493.23191.70783-.21467 1.66125-.46824.99971-.53079 1.58092-.43839 4.0745.0596 1.59964.16771 3.14481.24097 3.43368.18079.71283-1.00477.89244-1.75904.26648zm6.20721-.35467c-.24225-.17259-.67553-.98478-.96284-1.80488-.44605-1.27313-.47858-1.63892-.22259-2.5025.43992-1.484 1.08168-2.18052 2.29849-2.49465 1.16708-.30128 1.59214-.0877.95223.47848-1.13795 1.00685-1.38669 3.65192-.48953 5.20574.30189.52285.4903 1.05251.41868 1.17702-.19443.33805-1.49087.29956-1.99444-.0592zm-10.10752-.4926c-.26074-.18833-.47797-.46533-.48272-.61554-.005-.15022-.17755-.33189-.38399-.4037-.52809-.18371-1.04852-2.47887-.81711-3.60353.29584-1.43792.44366-1.69357 1.27361-2.20276.42629-.26153.9124-.81296 1.08024-1.2254.16785-.41243.507-.98719.75367-1.27723.28195-.33155.43507-.95067.41239-1.66751-.0256-.80796.0732-1.14363.33899-1.15204.8382-.0265 1.22248.30407 1.24679 1.07253.0179.56484.17542.82412.55308.91022.47129.10744.3983.27591-.67844 1.56588-1.63046 1.9534-2.43165 4.20393-2.15927 6.06544.11246.7689.24642 1.69448.2976 2.05684.10934.7747-.66578 1.0323-1.43484.4768zm19.26363-1.98708c-.0781-.0734-.10461-.90309-.0591-1.84394.0595-1.22708-.006-1.70783-.23327-1.70066-.17395.006-.25453-.0973-.17907-.22852.0755-.1312.52635-.22099 1.002-.19954.73139.033.88207.1536.97681.78196.15874 1.05293-1.05286 3.61743-1.50746 3.1907zm16.33731-2.43923c-1.14666-.65449-2.64955-1.64375-3.33974-2.19836-.6902-.55459-1.36284-1.04465-1.49474-1.089-.13191-.0444-.24298-.17973-.24681-.30082-.004-.12109-.56426-.77839-1.2454-1.46067-1.13477-1.13665-1.22738-1.32394-1.10637-2.23736.12925-.97555.11429-.99629-.70012-.97053-.48747.0154-.76797-.0854-.67713-.2433.0853-.14829.59609-.28357 1.13512-.30062.90299-.0286 1.23972.21579 4.28198 3.10731 1.81605 1.72608 3.87862 3.90951 4.58349 4.85206 1.87038 2.50109 1.80214 2.54933-1.19028.84129zm5.4305-1.77039c-.73663-.23935-1.5806-.55922-1.87549-.71081-.29489-.1516-.96554-.32994-1.49034-.39632-.52479-.0663-1.24129-.40759-1.59223-.75824-.35095-.35066-.79584-.63257-.98866-.62647-.19282.006-.35446-.11165-.35921-.26166-.005-.15002-.20416-.34078-.44315-.42391-.6451-.22442-3.90375-3.09946-3.91497-3.45409-.004-.1161.51886-.2277 1.16118-.24802.98905-.0313 1.33953.11329 2.28918.94427 1.25157 1.09517 5.33416 3.31476 6.05506 3.29196.60811-.0192 1.94222.68033 2.97343 1.55919.45222.3854.97099.69658 1.15282.6915.18184-.005.33625.16927.34315.38744.0175.5535-1.61533.55605-3.31077.005zm-51.97989 1.36232c-.97918-.26398-1.87089-.82918-1.88241-1.19312-.0132-.4191.49238-.5731 3.107-.94632 1.21027-.17276 2.32724-.44914 2.48214-.61416.1549-.16502.51653-.30747.80361-.31655.7946-.0251 4.63766-2.17907 5.7758-3.23719.55449-.51551 1.12845-.90077 1.27546-.85614.99208.30118-.71301 4.68699-1.836 4.72251-.14544.005-.26138.10531-.25763.22384.009.28712-1.58783 1.10141-3.48575 1.77743-1.58168.56339-4.67902.79105-5.98222.4397zm53.92306-3.88077c-.93012-.10319-2.03393-.35138-2.45292-.55152-.419-.20015-.8792-.36019-1.02268-.35565-.29947.009-3.66305-2.08255-4.50335-2.80091-.30892-.2641-.64326-.47759-.74297-.47444-.21305.007-1.27051-.95377-1.27703-1.15994-.002-.0778.59939-.0806 1.33745-.006l1.34192.135-.197-.69153c-.10838-.38034-.10611-.6944.005-.69791.11114-.004 1.06391.52343 2.11728 1.17101 1.05338.64758 2.2189 1.3629 2.59006 1.5896.99858.60993 2.86846 1.2352 3.62258 1.21134.36357-.0115 1.17479.29043 1.80271.67094.62791.38052 1.37283.74739 1.65537.81527 1.03016.24748.69671.69305-.77659 1.03773-.82403.19278-1.56813.33801-1.65352.32275-.0854-.0153-.91627-.1122-1.84637-.2154zm-1.15417-1.89148c-.002-.0642-.12503-.1864-.27332-.2717-.14829-.0853-.26563-.029-.26076.12499.005.15403.12786.27629.27331.27169.14545-.005.2628-.0608.26077-.12498zM8.0585 20.19052c-.40497-.14541-.74051-.39647-.74562-.55794-.0119-.37665 3.27974-1.55872 4.4682-1.60459.49865-.0188 1.31969-.1566 1.82457-.30524 4.19882-1.23612 5.50445-1.72548 5.8169-2.18025.11515-.16757.19145-.14479.20044.0599.0102.22718.5103.31476 1.60121.28025.87269-.0276 1.58953.0391 1.59297.14815.01.30617-1.55284 1.52432-2.71261 2.11475-.57315.2918-1.2685.65395-1.54523.80479-.27672.15084-1.27713.52233-2.22313.82552-1.94125.62218-6.99468.87536-8.27769.41472zm-3.44281-2.74693c-1.1363-.18582-1.80787-.66424-1.43016-1.01882.35179-.33026 4.15212-.89915 6.24639-.93505 2.10355-.036 4.05927-.57045 6.05232-1.6538.79488-.43205 1.462-.3696 4.34404.40667.55545.14961-.29643.6841-2.05645 1.29026-4.96401 1.70963-9.95415 2.43437-13.15614 1.91074zm3.41256-2.96743c-.16496-.55811-.53232-.55255-2.0687.0313-.73241.27835-5.95028.18422-5.95951-.10774-.004-.13165.31547-.38299.7103-.55854.72589-.32275 3.32596-1.61509 6.18968-3.07651 1.72768-.88169 4.09644-1.70592 4.9832-1.73397.3259-.0103.84697.31614 1.20668.75598.34821.42576.77924.7695.95785.76385.17861-.006.47853.16354.6665.37598.18797.21245.54245.37992.78774.37216.24529-.008.68239.14973.97134.34998.51913.35977.51924.36897.009.77509-.28403.22606-.87126.49133-1.30493.58949-.43368.0982-1.37475.47443-2.09128.83614-.82423.41609-1.87474.69445-2.85991.75783-.85643.0551-1.66484.17152-1.79647.25875-.13163.0872-.31226-.0882-.40142-.38983zm3.00321-.54881c-.0906-.0851-.31904-.0873-.50752-.005-.2083.0911-.14365.15178.16482.15472.27914.003.43335-.0647.3427-.14987z"
     id="path1" />
  <path
     style="fill:#ffffff;stroke:#ffffff;stroke-width:1.31388"
     d="m 187.72074,369.96705 c 0,-0.37655 2.1027,-3.01262 4.67268,-5.85792 2.56997,-2.84531 5.04452,-5.94929 5.49901,-6.89775 0.45448,-0.94846 1.2795,-2.3392 1.83338,-3.09054 0.79938,-1.08437 1.04883,-2.32129 1.20964,-5.99805 0.29492,-6.74309 -0.50804,-10.47197 -3.5069,-16.28573 -2.15238,-4.17275 -3.27423,-5.65557 -7.32774,-9.68559 -4.57322,-4.54672 -10.52443,-9.28357 -11.66353,-9.28357 -0.29479,0 -0.75447,-0.40825 -1.02151,-0.90722 -1.08908,-2.03497 -23.9234,-13.21321 -33.83398,-16.56297 -6.6634,-2.25223 -16.26003,-6.80331 -20.99776,-9.95793 -1.96635,-1.30931 -5.82426,-4.59773 -8.57313,-7.30761 -4.24595,-4.18572 -5.30255,-5.55718 -7.02245,-9.11505 -5.02942,-10.40412 -6.71727,-23.10284 -4.19818,-31.58554 1.47561,-4.9689 8.46168,-14.11989 11.86505,-15.54191 2.13821,-0.8934 9.06777,-0.86147 11.25365,0.0519 2.68636,1.12243 2.60973,1.87246 -0.58502,5.72608 -6.77526,8.17253 -7.78017,10.13726 -8.33896,16.30366 -0.28464,3.14117 -0.16062,4.11047 0.92563,7.23398 1.70906,4.9144 4.192,8.96499 5.90118,9.62702 0.75841,0.29376 1.50059,1.03471 1.65578,1.65304 0.16005,0.6377 0.78799,1.24782 1.45708,1.41575 0.6467,0.16231 1.45362,0.88097 1.79315,1.59701 0.38894,0.82021 1.8934,1.97851 4.06628,3.13065 4.96411,2.63217 17.23306,8.25804 20.69363,9.48897 1.62593,0.57834 3.8431,1.61737 4.92705,2.30894 1.08395,0.69158 3.6337,2.02766 5.66611,2.96908 7.22469,3.34648 20.00456,11.89188 26.0006,17.38559 5.8615,5.37044 12.43845,13.51889 16.16854,20.03187 5.09896,8.9031 5.22251,9.3067 5.50729,17.99118 0.28274,8.62195 -0.38675,11.77895 -3.68667,17.38447 -2.47324,4.20126 -9.18075,10.89947 -12.58004,12.56258 -3.17229,1.55207 -7.75986,2.27075 -7.75986,1.21566 z"
     id="path2"
     transform="scale(0.26458333)" />
  <path
     style="fill:#cccccc;stroke:#ffffff;stroke-width:1.31388"
     d="m 187.7383,370.54848 c -0.79822,-0.51899 -0.0927,-1.53894 5.64668,-8.16369 1.64341,-1.89692 3.86481,-4.8901 4.93644,-6.65152 1.89094,-3.10811 1.95369,-3.35521 2.12697,-8.376 0.33074,-9.58348 -2.50304,-16.3062 -10.24991,-24.31631 -4.35619,-4.50423 -9.60573,-8.93682 -11.34644,-9.5807 -0.40648,-0.15035 -1.59338,-0.99572 -2.63755,-1.8786 -3.66199,-3.0963 -19.68564,-10.82056 -33.08358,-15.94806 -9.17751,-3.5123 -18.22029,-8.01653 -22.39019,-11.1526 -1.74607,-1.31317 -5.09994,-4.29641 -7.45303,-6.62943 -3.57967,-3.54912 -4.64923,-4.99904 -6.54941,-8.87849 -4.22107,-8.61785 -6.17791,-18.67157 -5.20916,-26.76331 0.35715,-2.98318 0.96298,-4.98097 2.40674,-7.93643 2.06821,-4.23379 6.67821,-10.1293 9.30459,-11.89922 3.94542,-2.65882 14.86294,-1.70471 14.86294,1.29891 0,0.5197 -1.11335,2.34318 -2.47412,4.05217 -5.42474,6.81296 -7.2484,9.99919 -7.88572,13.7777 -0.76955,4.56238 -0.41308,7.33835 1.55216,12.08712 1.42253,3.43738 2.12283,4.36624 6.55512,8.69454 4.39077,4.28776 5.62793,5.18144 10.73923,7.75765 3.17724,1.60139 8.86796,4.23383 12.64606,5.84986 14.02626,5.99955 28.31557,14.28393 37.86383,21.95198 7.43782,5.97318 14.89293,14.92659 20.31199,24.3942 4.22297,7.37792 4.53124,8.58378 4.5953,17.9748 0.0623,9.13149 -0.45096,11.16052 -4.27984,16.91998 -2.95382,4.44317 -9.5279,10.69306 -12.78367,12.15325 -3.02372,1.35613 -6.20412,1.91324 -7.20543,1.2622 z"
     id="path6"
     transform="scale(0.26458333)" />
  <path
     style="fill:#cccccc;stroke:#ffffff;stroke-width:1.31388"
     d="m 187.0058,206.48257 c -0.45178,-0.731 0.49047,-2.27659 2.06888,-3.39361 0.74577,-0.52777 3.68397,-2.2422 6.52935,-3.80983 11.13725,-6.13597 22.04723,-13.95886 28.58867,-20.49919 4.02076,-4.0201 5.58129,-6.60235 4.42271,-7.3184 -0.91311,-0.56433 -1.74975,-0.1384 -2.36031,1.20163 -0.73788,1.61948 -6.48545,7.66699 -7.28673,7.66699 -0.36587,0 -0.90625,0.45036 -1.20084,1.0008 -1.31659,2.46007 -15.50938,11.67033 -25.85879,16.78078 -10.86804,5.36655 -17.30695,6.50497 -22.3218,3.94658 -3.70347,-1.88937 -3.21426,-2.96906 2.05484,-4.53499 1.93323,-0.57453 4.32738,-1.45793 5.32032,-1.9631 0.99294,-0.50516 2.8102,-1.14367 4.03837,-1.41891 2.39017,-0.53565 13.60628,-5.90258 19.28435,-9.22761 4.25814,-2.49352 11.99136,-10.31188 15.46938,-15.63967 4.50394,-6.89934 6.94862,-15.67974 6.94862,-24.95692 v -4.30625 l -2.44642,-3.6577 c -3.99629,-5.97494 -7.69961,-7.83241 -15.78368,-7.91656 -4.86624,-0.0507 -6.03592,0.2791 -8.37599,2.36136 -2.57881,2.29471 -10.74359,6.15263 -16.32627,7.7143 -3.07951,0.86144 -7.15114,1.9973 -9.04805,2.52412 -4.64988,1.29139 -14.57982,1.45299 -16.75199,0.27261 l -1.47811,-0.80322 1.23176,-0.25751 c 0.67747,-0.14164 3.44894,-0.37893 6.15882,-0.52733 5.70488,-0.31241 7.14423,-0.62964 7.14423,-1.5746 0,-0.51638 -0.74662,-0.66188 -3.07941,-0.6001 -3.72456,0.0986 -6.09202,-0.86432 -10.8609,-4.41755 -1.84092,-1.37165 -3.61466,-2.60653 -3.94164,-2.74418 -0.94377,-0.39731 2.04548,-2.66194 4.96691,-3.76288 4.71156,-1.77555 8.4549,-0.93836 7.78254,1.74054 -0.62647,2.49604 1.2438,5.16098 3.62199,5.16098 1.37312,0 1.28059,-0.4925 -0.3345,-1.78033 -1.33838,-1.06718 -1.34263,-1.08897 -0.41249,-2.11676 0.93839,-1.0369 2.84886,-1.72196 6.30503,-2.26085 1.77334,-0.2765 2.75802,-0.99649 2.16874,-1.58577 -0.15816,-0.15816 -1.64959,-0.24669 -3.3143,-0.19674 -1.66471,0.0499 -4.23584,-0.26068 -5.71364,-0.69028 -2.24608,-0.65296 -2.59014,-0.89769 -2.09713,-1.49172 0.80009,-0.96406 7.52588,-3.03901 12.72523,-3.92583 8.68876,-1.48198 28.92975,-2.1876 35.54164,-1.23901 4.31285,0.61875 12.30702,4.59546 15.97258,7.94557 1.51262,1.38245 2.75022,2.72041 2.75022,2.97324 0,0.25283 0.74162,1.20131 1.64806,2.10775 0.90643,0.90643 2.29022,3.17164 3.07509,5.0338 1.30078,3.08621 1.42545,3.88703 1.40914,9.05186 -0.0402,12.73661 -4.32247,29.31962 -8.82615,34.17918 -0.6054,0.65323 -1.56761,1.94313 -2.13825,2.86645 -1.89266,3.06239 -13.83135,12.61456 -22.51304,18.01271 -7.272,4.52165 -14.00453,7.29373 -14.75704,6.07615 z"
     id="path7"
     transform="scale(0.26458333)" />
  <path
     style="fill:#cccccc;stroke:#ffffff;stroke-width:1.31388"
     d="m 166.78076,281.60826 c -3.51638,-1.63842 -4.36525,-2.38777 -4.00186,-3.5327 0.16879,-0.53181 2.64819,-2.82408 5.50978,-5.09393 6.55605,-5.20034 8.69255,-7.63289 11.0494,-12.58043 4.53062,-9.51079 4.95282,-14.27856 1.82487,-20.60753 -3.89899,-7.88909 -10.65807,-12.39369 -30.82382,-20.54258 -26.09919,-10.54656 -33.99412,-13.97952 -45.89604,-19.95702 -4.6194,-2.32 -15.378105,-9.08496 -15.969087,-10.04118 -0.384092,-0.62148 -2.743271,-0.75394 -2.743271,-0.15403 0,0.58374 3.322749,3.63158 6.405169,5.87522 6.084925,4.42912 45.247569,22.47379 59.233799,27.2927 6.5114,2.24349 11.83984,4.74453 11.60556,5.44739 -0.38611,1.15834 -2.81827,1.5513 -4.73672,0.7653 -0.99253,-0.40664 -3.57833,-0.9751 -5.74623,-1.26324 -6.44867,-0.8571 -16.02106,-3.77431 -27.81981,-8.47815 -13.62968,-5.43378 -24.880918,-11.04799 -30.316708,-15.12759 -2.256703,-1.69368 -4.309694,-3.07941 -4.562201,-3.07941 -0.557973,0 -8.850981,-8.3618 -10.939695,-11.03044 -0.824535,-1.05347 -1.499155,-2.20969 -1.499155,-2.56937 0,-0.35969 -0.437267,-0.88799 -0.971705,-1.17401 -1.406773,-0.75289 -4.133766,-6.75087 -6.877238,-15.12639 -4.361504,-13.3152 -4.871799,-19.91036 -2.242156,-28.97808 3.653759,-12.59916 10.061573,-18.94164 24.943244,-24.68895 5.189821,-2.00431 7.102763,-2.07933 17.476874,-0.68533 7.25725,0.97517 10.04364,1.67721 10.04364,2.5305 0,0.71307 -3.0608,2.37101 -4.92705,2.66883 -2.97706,0.47508 -4.87413,1.56241 -5.23508,3.00056 -0.76983,3.06724 4.52737,4.80383 8.06813,2.64498 1.30736,-0.79711 1.6013,-1.28764 1.6013,-2.67228 0,-2.31342 1.82354,-3.73829 4.78427,-3.73829 2.63324,0 11.51736,3.353 13.69218,5.16763 1.37693,1.14889 1.41897,1.27942 0.61421,1.90684 -0.47514,0.37045 -2.02716,0.8134 -3.44893,0.98435 -1.42177,0.17094 -4.13706,0.86186 -6.03398,1.53536 -1.89692,0.67351 -4.238,1.22923 -5.20241,1.23495 -1.88833,0.0112 -3.92437,1.14816 -3.25516,1.81775 0.22527,0.2254 3.17982,0.43476 6.56569,0.46525 5.32722,0.048 6.33341,0.18768 7.47293,1.03762 3.98752,2.97422 -0.56793,4.42451 -9.52269,3.03167 -1.89692,-0.29504 -8.3481,-0.5678 -14.33596,-0.60612 -8.53759,-0.0546 -11.066701,-0.21879 -11.719607,-0.76069 -1.095144,-0.90895 -7.393453,-1.29246 -9.911927,-0.60354 -2.962108,0.81027 -7.296592,4.46292 -8.646284,7.28619 -1.755261,3.67162 -2.932291,4.16495 -2.932291,1.22899 0,-1.36726 0.528921,-2.70407 1.900692,-4.80388 2.230699,-3.4146 3.387975,-4.52802 6.721651,-6.46697 1.574348,-0.91569 2.520355,-1.82156 2.620972,-2.50978 0.100336,-0.6863 -0.10269,-1.07692 -0.559737,-1.07692 -1.202444,0 -6.446785,3.77026 -8.915543,6.40956 -6.552332,7.00498 -6.624153,13.81359 -0.283865,26.91021 2.246725,4.64088 2.679266,5.19987 6.195249,8.00646 2.078938,1.65949 4.049507,3.01725 4.379041,3.01725 0.329534,0 0.998243,0.44099 1.486021,0.97998 2.219417,2.45243 22.822458,12.09629 31.532208,14.75958 1.8937,0.57906 3.95452,1.38794 4.57961,1.79752 0.62509,0.40957 2.2906,0.87527 3.70114,1.03487 1.41054,0.1596 3.34063,0.67017 4.28909,1.13458 2.42674,1.18827 19.26035,6.69687 23.38795,7.65344 1.88837,0.43762 3.99468,1.08514 4.6807,1.43892 0.68603,0.35378 2.88411,1.13596 4.88464,1.73817 2.00054,0.6022 6.50824,2.5319 10.01712,4.28821 5.87717,2.94172 6.80853,3.60742 11.8218,8.44976 8.30992,8.02656 11.20839,12.60737 12.96012,20.48241 0.65666,2.95209 0.80233,5.15646 0.60234,9.11505 -0.59928,11.86188 -5.71691,20.81763 -15.7488,27.56007 -4.8563,3.26393 -15.39308,8.46402 -17.07524,8.42694 -0.70818,-0.0156 -2.3962,-0.54491 -3.75114,-1.17623 z"
     id="path8"
     transform="scale(0.26458333)" />
  <path
     style="fill:#cccccc;stroke:#ffffff;stroke-width:1.31388"
     d="m 122.83992,365.32818 c -2.7395,-1.64204 -6.50789,-6.71051 -9.65869,-12.99092 l -2.56888,-5.12047 0.0372,-8.67528 c 0.033,-7.6961 0.18024,-9.20768 1.30453,-13.39232 2.76378,-10.28682 7.24756,-18.16424 14.02131,-24.63363 3.85259,-3.67948 6.53981,-5.38505 8.48446,-5.38505 0.99822,0 3.02135,1.58393 2.98927,2.34035 -0.0308,0.72633 -1.27008,1.93025 -4.91138,4.77125 -4.349,3.39316 -11.33222,10.11662 -11.33222,10.91069 0,0.3049 -0.69128,1.27772 -1.53617,2.16182 -1.82639,1.91113 -4.55155,7.6161 -5.70446,11.94196 -0.86462,3.24412 -1.24817,15.21647 -0.51127,15.95905 0.87285,0.87959 1.40271,-0.95526 1.87407,-6.48967 0.8191,-9.61737 3.00415,-17.16404 5.33006,-18.40883 0.50992,-0.2729 1.06836,-1.05893 1.24099,-1.74673 0.43227,-1.7223 8.91135,-9.97247 12.41361,-12.07849 2.28601,-1.37465 3.38102,-1.72447 5.3979,-1.72447 1.43626,0 2.88706,0.29621 3.35568,0.68514 0.766,0.63572 0.75369,0.73546 -0.17062,1.38287 -0.54789,0.38376 -0.99617,1.0056 -0.99617,1.38186 0,0.37626 -2.17687,2.55832 -4.83749,4.84902 -13.19638,11.36157 -17.22312,18.33107 -17.70631,30.64611 -0.3348,8.53288 0.83106,13.03111 5.29021,20.41125 2.75106,4.55316 2.16871,5.58668 -1.80563,3.20449 z"
     id="path9"
     transform="scale(0.26458333)" />
  <path
     style="fill:#008000;stroke:#ffffff;stroke-width:1.85811"
     d="m 26.72609,341.606 -6.371463,-0.22895 -0.403863,-11.99446 C 19.479409,315.38366 18.219306,236.07828 17.620617,182.73333 l -0.416418,-37.1041 3.069143,-0.003 c 1.688029,-0.002 6.596645,-0.20643 10.908037,-0.45486 5.424785,-0.31259 7.838894,-0.22006 7.838894,0.30042 0,1.28678 -7.323846,5.01508 -10.782932,5.4892 l -3.292034,0.45122 0.431567,11.2186 c 1.367435,35.54653 2.001881,68.28821 1.93213,99.71101 -0.07145,32.18936 0.518463,56.23145 1.68588,68.70842 l 0.430747,4.60368 29.010794,0.52515 c 38.673294,0.70007 44.668165,1.05145 45.660755,2.67633 0.61546,1.00752 0.49862,1.46156 -0.58276,2.26457 -1.1415,0.84765 -6.740979,0.9818 -35.884712,0.85976 -18.992685,-0.0795 -37.399313,-0.24765 -40.903618,-0.37357 z"
     id="path10"
     transform="scale(0.26458333)" />
  <path
     style="fill:#008000;stroke:#ffffff;stroke-width:1.85811"
     d="m 225.41176,342.53332 c -7.10455,-1.01415 -8.70989,-1.54828 -8.70989,-2.89794 0,-2.20152 2.80888,-2.38873 35.83891,-2.38873 18.22885,0 33.14336,-0.2434 33.14336,-0.54087 0,-0.29748 -0.29927,-3.0411 -0.66506,-6.09692 -1.54137,-12.87679 -4.11295,-89.49625 -4.69229,-139.80478 l -0.43062,-37.39484 -2.50614,-1.06886 c -1.37838,-0.58787 -4.2307,-1.78399 -6.33849,-2.65804 l -3.83235,-1.58918 2.78717,-0.49502 c 3.70627,-0.65825 12.33839,-0.68548 13.33576,-0.0421 1.61152,1.03962 2.65577,18.41793 6.16467,102.59174 2.47874,59.46164 3.52408,80.95946 4.27259,87.86713 l 0.42302,3.90387 -12.09802,0.44669 c -27.18458,1.00373 -50.35627,1.07231 -56.69262,0.16781 z"
     id="path11"
     transform="scale(0.26458333)" />
  <path
     style="fill:#fff6d5;stroke:#ffffff;stroke-width:1.85811"
     d="m 82.918081,318.39563 c -8.622784,-0.26361 -19.719823,-0.51975 -24.660086,-0.56921 l -8.982298,-0.0899 0.423208,-6.09692 c 0.232764,-3.3533 0.741427,-18.01203 1.130362,-32.57496 0.388935,-14.56292 1.09567,-32.74915 1.570522,-40.41385 0.515467,-8.32027 0.871693,-30.64205 0.884029,-55.39485 0.01819,-36.50438 0.14557,-41.42594 1.065848,-41.182 0.574853,0.15237 2.926521,0.81071 5.22593,1.46297 l 4.180743,1.18593 0.502368,8.64049 c 0.718455,12.35709 2.053938,17.71567 6.904909,27.70568 3.925802,8.08473 4.619212,9.04688 11.298872,15.67779 7.573022,7.51776 11.616131,10.73297 18.038182,14.34455 8.33376,4.68667 9.46333,8.63916 4.60938,16.12856 -4.9689,7.66675 -5.436634,9.1735 -5.453692,17.56852 -0.02367,11.64939 0.968362,16.47533 5.009532,24.36982 3.80729,7.43762 9.98337,14.30842 17.14678,19.07559 2.03867,1.35672 3.87369,2.90196 4.0778,3.43388 0.42956,1.11943 -1.90275,5.26552 -6.04128,10.73941 -1.5936,2.10779 -4.31501,6.73274 -6.04758,10.27766 l -3.15013,6.44531 -6.0278,-0.12759 c -3.3153,-0.0702 -13.082816,-0.34327 -21.705599,-0.60687 z"
     id="path12"
     transform="scale(0.26458333)" />
  <path
     style="fill:#fff6d5;stroke:#ffffff;stroke-width:1.85811"
     d="m 218.09546,324.02675 c -6.43846,-0.68209 -7.51785,-1.18037 -9.04607,-4.17594 -4.01626,-7.87251 -16.40476,-21.31835 -24.74828,-26.86049 -2.29941,-1.52737 -4.18074,-3.23587 -4.18074,-3.79667 0,-0.5608 2.42509,-2.84184 5.38909,-5.06899 5.26155,-3.95353 10.64391,-9.7137 13.56401,-14.51612 0.79906,-1.31414 2.5839,-5.43282 3.9663,-9.15263 2.3211,-6.24569 2.51215,-7.33885 2.49642,-14.2842 -0.0291,-12.85624 -2.16232,-18.33055 -10.54574,-27.06292 -6.35897,-6.62365 -6.48869,-6.09754 2.62602,-10.65025 11.63508,-5.81163 25.47522,-18.1814 30.84335,-27.56658 5.73623,-10.02875 7.37083,-15.69973 9.03152,-31.33343 0.75023,-7.06265 1.12395,-7.6141 7.37414,-10.88119 3.18085,-1.66268 4.25435,-1.95095 4.69267,-1.26013 0.31258,0.49265 0.57314,13.47037 0.57901,28.83939 0.0125,32.83313 0.49942,43.67691 4.23604,94.34308 2.99254,40.57691 3.79081,49.74634 4.84473,55.64973 0.36711,2.05637 0.51118,3.99174 0.32014,4.30085 -0.64244,1.03949 -9.66894,2.69077 -18.72391,3.42529 -9.71961,0.78844 -15.63385,0.80177 -22.7187,0.0512 z"
     id="path13"
     transform="scale(0.26458333)" />
  <path
     style="fill:#fff6d5;stroke:#ffffff;stroke-width:1.85811"
     d="m 164.44258,196.15658 c 0,-0.57491 7.84416,-4.33039 11.04698,-5.28887 2.73536,-0.81859 4.30334,-2.24879 3.42661,-3.12553 -0.18215,-0.18214 -2.33738,0.29767 -4.78942,1.06625 -2.45203,0.76858 -4.92857,1.38833 -5.50343,1.37721 -1.47208,-0.0285 3.15584,-2.46371 7.31631,-3.84987 7.00128,-2.33266 5.73196,-3.37081 -2.39668,-1.96019 -7.6134,1.3212 -8.56241,0.90076 -2.48086,-1.09908 6.04975,-1.9894 8.70988,-3.30857 8.70988,-4.31927 0,-0.74328 -6.46213,-0.46733 -11.14865,0.47608 -1.04755,0.21088 -0.56996,-0.21406 1.19804,-1.06597 1.61701,-0.77916 4.38796,-1.68715 6.15767,-2.01777 3.59462,-0.67155 5.15979,-1.76058 4.08092,-2.83946 -0.45219,-0.45218 -3.17969,-0.20443 -7.96797,0.72378 -8.07614,1.56556 -11.57524,1.57369 -7.9978,0.0186 1.14971,-0.49978 2.87427,-1.31491 3.83235,-1.8114 0.95809,-0.4965 2.9962,-1.11199 4.52914,-1.36776 3.8444,-0.64144 6.67674,-1.79367 6.22114,-2.53085 -0.60231,-0.97455 -9.42028,-0.65737 -12.49225,0.44935 -3.43073,1.23597 -3.83288,1.25214 -3.83033,0.15411 0.002,-0.78743 12.16813,-4.92539 13.67192,-4.65005 1.37967,0.25262 2.35224,-0.10068 2.35224,-0.85447 0,-0.58026 -2.13994,-0.68828 -7.76068,-0.39176 -8.82319,0.46546 -9.3345,-0.33514 -1.25211,-1.96053 7.97133,-1.60304 8.316,-1.70393 8.316,-2.43413 0,-0.39322 -2.51545,-0.68352 -5.92272,-0.68352 -8.87589,0 -7.61842,-1.93536 2.28215,-3.51243 5.55333,-0.88459 6.74129,-1.71225 3.96997,-2.7659 -2.08536,-0.79285 -9.52138,-0.005 -13.21683,1.39959 -3.00149,1.14116 -3.60918,0.76141 -1.60521,-1.00312 4.75036,-4.18279 17.34412,-6.43692 25.71067,-4.60189 6.15798,1.35063 18.97854,1.75894 23.22705,0.73973 2.05301,-0.4925 4.54941,-0.6905 5.54755,-0.43998 1.63681,0.41081 1.81407,0.77881 1.80727,3.75197 -0.032,13.96744 -14.3212,29.83846 -34.25827,38.05054 -3.18981,1.31389 -7.36743,2.86076 -9.2836,3.43749 -1.91618,0.57674 -4.64972,1.54786 -6.07454,2.15805 -2.48359,1.06361 -5.42251,1.48153 -5.42251,0.77107 z"
     id="path14"
     transform="scale(0.26458333)" />
  <path
     style="fill:#fff6d5;stroke:#ffffff;stroke-width:1.85811"
     d="m 131.69342,190.18538 c -3.25749,-1.16061 -8.58794,-3.0119 -11.84544,-4.114 -4.97094,-1.6818 -14.87848,-6.04603 -18.81334,-8.28719 -0.57486,-0.32742 -2.197259,-1.14813 -3.605344,-1.82381 -5.015969,-2.40695 -13.367465,-9.68089 -15.382204,-13.39752 -1.664608,-3.07073 -1.916174,-4.31559 -1.916174,-9.48206 0,-5.9343 0.0042,-5.94806 1.916174,-6.31476 3.964869,-0.76041 28.602548,-1.17147 33.620148,-0.56092 6.99493,0.85115 14.97743,3.78699 19.40183,7.1357 1.99129,1.50715 4.0845,2.74027 4.65158,2.74027 0.69007,0 1.03105,0.71953 1.03105,2.17569 0,1.84667 -0.15672,2.04563 -1.03631,1.31563 -0.56997,-0.47303 -1.53967,-0.66691 -2.15489,-0.43082 -0.97475,0.37404 -0.8863,0.82558 0.68792,3.51178 2.28057,3.89151 2.29348,4.72515 0.0645,4.16571 -2.24826,-0.56427 -2.2693,0.6001 -0.0697,3.85716 0.91974,1.36192 1.88032,3.17787 2.1346,4.03543 0.42407,1.43014 0.28565,1.52387 -1.67227,1.13228 -2.64623,-0.52924 -2.65038,0.0596 -0.0248,3.52956 2.53022,3.34403 2.84845,5.74111 0.6026,4.53917 -2.5753,-1.37826 -2.91486,0.29038 -0.64126,3.15133 2.55767,3.21842 2.76815,5.25411 0.54187,5.24087 -0.86228,-0.005 -4.233,-0.9589 -7.4905,-2.1195 z"
     id="path15"
     transform="scale(0.26458333)" />
  <path
     style="fill:#fff6d5;stroke:#ffffff;stroke-width:1.85811"
     d="m 137.26775,268.4713 c -5.01321,-1.94558 -8.41539,-7.81353 -8.91076,-15.36891 -0.43627,-6.65409 0.8502,-9.94674 6.1011,-15.61545 4.07872,-4.40324 4.08865,-4.40873 6.05131,-3.34375 1.08123,0.58671 2.26356,1.91321 2.6274,2.94777 0.74757,2.1257 0.10045,3.2789 -1.14249,2.03596 -1.09094,-1.09094 -2.63619,-1.05262 -2.63619,0.0654 0,0.48945 0.94067,1.9198 2.09037,3.17856 2.34314,2.56542 2.73081,4.00899 0.87099,3.24334 -4.47977,-1.84424 -4.97969,-0.2336 -1.21938,3.92861 3.17844,3.51816 3.11228,4.21316 -0.3484,3.65977 -3.1993,-0.51159 -3.50154,0.0151 -1.09495,1.90814 2.01227,1.58285 4.91611,6.08083 4.31426,6.68268 -0.23298,0.23298 -0.99894,-0.0971 -1.70213,-0.73344 -1.37624,-1.24549 -3.29841,-1.52418 -3.89168,-0.56425 -0.2015,0.32604 0.41885,1.65709 1.37855,2.95789 2.73257,3.70379 1.34372,6.50478 -2.488,5.01772 z"
     id="path16"
     transform="scale(0.26458333)" />
  <path
     style="fill:#808000;stroke:#ffffff;stroke-width:1.85811"
     d="m 162.00381,374.17122 c -1.53294,-0.29803 -4.39963,-0.37836 -6.37044,-0.17851 -3.25273,0.32983 -3.68872,0.20242 -4.72633,-1.38117 -1.95269,-2.98018 -2.81178,-13.54751 -1.70397,-20.95986 1.30907,-8.75902 1.13098,-24.98264 -0.31684,-28.86344 -0.97368,-2.60989 -0.98048,-2.96136 -0.0573,-2.96136 2.65115,0 5.84429,5.94967 6.91831,12.89063 1.08708,7.02542 1.90025,10.20933 2.46357,9.646 0.33355,-0.33354 0.93724,-3.5265 1.34153,-7.09545 0.4043,-3.56895 1.21629,-7.64096 1.80442,-9.04892 1.21766,-2.91498 4.29383,-6.39226 5.65491,-6.39226 1.28356,0 1.13997,1.73302 -0.2383,2.87604 -3.15745,2.61854 -3.71431,8.24341 -1.95717,19.76966 0.58423,3.83235 1.37712,10.10346 1.76199,13.93581 0.79671,7.93332 0.22224,18.50888 -0.99868,18.38482 -0.43372,-0.0441 -2.0428,-0.32397 -3.57574,-0.62199 z"
     id="path17"
     transform="scale(0.26458333)" />
  <path
     style="fill:#808000;stroke:#ffffff;stroke-width:1.85811"
     d="m 150.08849,274.00223 c -0.42167,-0.28156 -1.10869,-1.16228 -1.52671,-1.95715 -0.90475,-1.72042 -2.23576,-20.4235 -2.23576,-31.41646 0,-9.96447 0.25088,-10.29225 7.52041,-9.82572 3.20388,0.20561 5.37939,0.6795 5.73097,1.24836 1.65526,2.67826 1.67083,36.31514 0.0188,40.66024 -0.63829,1.67883 -1.01373,1.82314 -4.71727,1.81332 -2.21309,-0.006 -4.3688,-0.24103 -4.79047,-0.52259 z"
     id="path18"
     transform="scale(0.26458333)" />
  <path
     style="fill:#808000;stroke:#ffffff;stroke-width:1.85811"
     d="m 149.49036,196.27933 c -3.77217,-1.38674 -4.1956,-1.74944 -4.62895,-3.96513 -0.65304,-3.33891 -2.29484,-90.09909 -1.92148,-101.539744 0.25733,-7.885154 0.50503,-9.488632 1.71641,-11.111139 1.71632,-2.298827 4.45247,-3.146036 6.63932,-2.055772 2.43559,1.214273 2.82675,4.778517 2.941,26.798095 l 0.10246,19.74559 -2.67903,0.92454 c -3.14365,1.08488 -6.03086,3.58927 -6.03086,5.23123 0,0.6368 1.29248,2.31809 2.87217,3.73621 2.66229,2.38999 2.84085,2.77427 2.44354,5.25888 -0.46981,2.93808 0.10576,3.75902 3.14312,4.48307 2.30045,0.54839 2.56577,1.2593 3.3904,9.08449 0.73287,6.95445 0.94928,42.14669 0.27006,43.9167 -0.57481,1.49794 -3.25131,1.33362 -8.25816,-0.50702 z"
     id="path19"
     transform="scale(0.26458333)" />
  <path
     style="fill:#808000;stroke:#ffffff;stroke-width:1.85811"
     d="m 147.54514,53.166064 c -2.21795,-0.350202 -2.95598,-1.491841 -3.64228,-5.634205 -0.68884,-4.157644 0.22523,-5.027633 5.28237,-5.027633 3.8032,0 4.11287,0.122412 4.53176,1.791385 0.38175,1.521027 -0.0726,7.845528 -0.60168,8.374572 -0.46154,0.461539 -3.86738,0.764742 -5.57017,0.495881 z"
     id="path20"
     transform="scale(0.26458333)" />
  <path
     style="fill:#808000;stroke:#ffffff;stroke-width:1.85811"
     d="m 151.19592,27.000636 c -1.54465,-2.533419 -1.79352,-6.110987 -0.58484,-8.407296 1.15271,-2.189967 2.13743,-2.626502 3.06458,-1.358553 1.19258,1.630955 3.05846,0.577978 3.57788,-2.019113 l 0.4474,-2.236984 1.97724,2.368414 c 2.42843,2.908873 2.46443,4.305324 0.22673,8.795796 -2.68849,5.395101 -6.41614,6.618279 -8.70899,2.857736 z"
     id="path21"
     transform="scale(0.26458333)" />
  <path
     style="fill:#808000;stroke:#ffffff;stroke-width:1.85811"
     d="m 135.17738,29.447859 c -4.73979,-2.386326 -6.08714,-9.416576 -2.64368,-13.794229 1.95737,-2.488393 3.76576,-2.212993 4.73405,0.720949 0.72288,2.190362 2.78716,3.480535 2.78716,1.741976 0,-0.383234 0.4929,-0.69679 1.09532,-0.69679 0.92546,0 1.0197,0.621367 0.60766,4.006546 -0.65628,5.39175 -1.82983,8.824309 -3.09656,9.057216 -0.57485,0.105694 -2.14263,-0.360357 -3.48395,-1.035668 z"
     id="path22"
     transform="scale(0.26458333)" />
  <path
     style="fill:#808000;stroke:#ffffff;stroke-width:1.85811"
     d="m 139.35812,12.340319 c -2.66352,-1.342722 -2.54046,-3.4766243 0.38738,-6.7173942 2.87301,-3.1800743 5.3751,-3.6492605 9.73846,-1.8261314 2.18387,0.9124802 2.41639,1.2766787 2.41639,3.7849008 0,2.2680275 -0.36988,3.0386498 -2.02374,4.2162988 -2.33827,1.664994 -7.73911,1.943458 -10.51849,0.542326 z"
     id="path23"
     transform="scale(0.26458333)" />
  <path
     style="fill:#808000;stroke:#ffffff;stroke-width:1.85811"
     d="m 144.6631,29.757566 c -0.99374,-0.726641 -1.09215,-1.712432 -0.69138,-6.92622 0.38846,-5.053696 0.68411,-6.147821 1.75295,-6.487056 1.86014,-0.590385 2.95829,0.263099 1.93107,1.500826 -0.814,0.980808 -0.52257,7.687511 0.44344,10.204881 0.60784,1.584008 -1.9004,2.830485 -3.43608,1.707569 z"
     id="path24"
     transform="scale(0.26458333)" />
  <path
     style="fill:#808000;stroke:#ffffff;stroke-width:1.85811"
     d="m 138.69104,40.201504 c -0.91008,-2.343811 0.6828,-4.158165 4.9146,-5.597926 3.22984,-1.09887 4.28407,-1.166545 7.41005,-0.475682 3.80982,0.841998 6.71518,3.397518 6.30141,5.542635 -0.17695,0.917395 -1.26599,1.058622 -6.82021,0.884447 -3.6353,-0.114 -7.64514,0.103998 -8.91077,0.48444 -2.05301,0.617127 -2.36518,0.526778 -2.89508,-0.837914 z"
     id="path25"
     transform="scale(0.26458333)" />
  <path
     style="fill:#808000;stroke:#ffffff;stroke-width:1.85811"
     d="m 155.16398,397.58708 c -3.61258,-1.3324 -5.354,-3.05429 -5.354,-5.29398 0,-2.97347 2.23788,-4.42811 7.3092,-4.75103 4.03493,-0.25692 4.60749,-0.11859 6.23168,1.50559 2.18989,2.1899 2.42431,5.93802 0.48135,7.69637 -1.81867,1.64588 -5.51641,2.00551 -8.66823,0.84305 z"
     id="path26"
     transform="scale(0.26458333)" />
  <path
     style="fill:#808000;stroke:#ffffff;stroke-width:1.85811"
     d="m 147.14855,387.24137 c 0.33514,-2.35977 6.15537,-4.92459 11.02291,-4.8575 4.40968,0.0608 9.00284,1.49671 10.03825,3.13818 0.392,0.62144 0.56703,1.26937 0.38897,1.43984 -0.17806,0.17047 -2.67542,-0.29789 -5.54968,-1.0408 -6.00997,-1.55341 -8.90971,-1.28107 -12.70149,1.19294 -3.19665,2.08571 -3.47869,2.09693 -3.19896,0.12734 z"
     id="path27"
     transform="scale(0.26458333)" />
  <path
     style="fill:#808000;stroke:#ffffff;stroke-width:1.85811"
     d="m 159.62054,380.48849 c -7.06336,-0.41883 -8.3723,-1.21524 -5.30282,-3.22644 3.24141,-2.12385 11.7014,-0.0979 12.75196,3.05381 0.15191,0.45573 0.0149,0.76858 -0.30446,0.69522 -0.31937,-0.0734 -3.53447,-0.30853 -7.14468,-0.52259 z"
     id="path28"
     transform="scale(0.26458333)" />
  <path
     style="fill:#808000;stroke:#000000;stroke-width:0.656941"
     d="m 156.80348,322.18937 c -1.53111,-0.84308 -3.1248,-3.15211 -3.79816,-5.503 -0.49489,-1.7278 -0.73271,-4.6337 -0.51975,-6.35085 0.39123,-3.15463 1.57852,-4.36549 4.28052,-4.36549 3.38686,0 5.09134,2.42879 5.08438,7.24496 -0.004,2.43016 -0.68175,6.24065 -1.33597,7.50578 -0.73621,1.42367 -2.51453,2.12743 -3.71102,1.4686 z"
     id="path49"
     transform="scale(0.26458333)" />
  <path
     style="fill:#808000;stroke:#000000;stroke-width:0.929054"
     d="m 191.12458,110.53507 c -0.27221,-0.85766 -0.14104,-1.24531 1.7411,-5.14549 2.68171,-5.557044 3.10627,-7.677386 3.1043,-15.503593 -0.002,-7.535406 -0.33982,-9.789505 -1.94712,-12.988145 -0.55652,-1.107531 -1.01187,-2.081938 -1.01187,-2.165348 0,-0.39843 2.21774,-2.614667 2.61644,-2.614667 0.72089,0 5.08443,4.901891 5.81087,6.527783 0.36271,0.811828 0.96611,1.640154 1.34088,1.840724 0.88642,0.474397 1.78191,2.272019 2.90034,5.822169 1.45115,4.606322 1.69551,6.863475 1.10759,10.231134 -0.6703,3.839583 -2.44063,7.381303 -5.12268,10.248423 -2.56123,2.73795 -4.97816,4.01059 -8.09131,4.26049 -2.00278,0.16076 -2.25107,0.10869 -2.44854,-0.51348 z"
     id="path50"
     transform="scale(0.26458333)" />
  <path
     style="fill:#808000;stroke:#000000;stroke-width:0.929054"
     d="m 175.031,111.4134 c 0.12301,-0.61505 1.14973,-2.69236 2.2816,-4.61624 4.28082,-7.276237 5.77393,-11.77253 6.65201,-20.031631 0.41658,-3.918318 1.04552,-5.93782 1.84923,-5.93782 0.63821,0 0.92604,-0.750086 0.92604,-2.413265 0,-1.601908 1.08796,-2.815734 2.02367,-2.257785 1.06278,0.633726 2.47471,4.060753 3.07275,7.458212 0.85929,4.881559 0.86462,14.466318 0.01,17.237869 -0.90986,2.94927 -1.69681,3.90598 -3.70296,4.50175 -2.41807,0.71809 -2.98273,1.07613 -5.65451,3.58545 -2.58666,2.42937 -4.66073,3.57209 -6.50526,3.58409 -1.13878,0.007 -1.16878,-0.0276 -0.95217,-1.11063 z"
     id="path51"
     transform="scale(0.26458333)" />
  <path
     style="fill:#808000;stroke:#000000;stroke-width:0.929054"
     d="m 165.2545,111.3994 c -2.39252,-2.66733 -2.38762,-3.49692 0.0394,-6.66769 3.97957,-5.199077 4.95191,-8.589457 5.97161,-20.821958 0.26482,-3.176836 0.62524,-3.60941 2.57086,-3.085508 0.83472,0.224764 1.89362,0.654997 2.35312,0.956073 1.23848,0.811486 2.26048,3.106395 2.44152,5.482458 0.29693,3.897123 -1.73252,13.678165 -3.20656,15.454165 -0.42484,0.51186 -0.86951,1.32261 -0.98816,1.80165 -0.43326,1.74936 -6.64699,7.6647 -8.05134,7.6647 -0.23503,0 -0.74374,-0.35275 -1.13046,-0.78389 z"
     id="path52"
     transform="scale(0.26458333)" />
  <path
     style="fill:#808000;stroke:#000000;stroke-width:0.929054"
     d="m 162.18785,97.320649 c -0.13391,-0.892988 -0.13441,-3.223793 -0.001,-5.179566 0.2973,-4.361814 0.007,-6.451522 -0.93178,-6.696899 -1.93366,-0.505664 0.96249,-1.661409 3.46304,-1.381972 2.8097,0.313982 3.608,2.076511 2.70469,5.971504 -0.87469,3.771584 -3.5931,8.910548 -4.71351,8.910548 -0.15283,0 -0.38743,-0.730626 -0.52134,-1.623615 z"
     id="path53"
     transform="scale(0.26458333)" />
  <path
     style="fill:#808000;stroke:#000000;stroke-width:0.929054"
     d="M 228.80418,92.034028 C 223.14152,89.091076 216.1763,84.696257 211.29,80.983179 c -2.30587,-1.752222 -4.54224,-3.37304 -4.96972,-3.601818 -0.42747,-0.228778 -1.16331,-1.027556 -1.63519,-1.775063 -0.47188,-0.747507 -2.5021,-3.098834 -4.5116,-5.225172 -2.27675,-2.409118 -3.77163,-4.293395 -3.96674,-4.999994 -0.1722,-0.623658 -0.23451,-2.358358 -0.13847,-3.854889 0.20573,-3.205658 0.10141,-3.331153 -2.77543,-3.338893 -3.85016,-0.01036 -2.30502,-1.432702 1.63432,-1.504435 1.50732,-0.02745 2.48066,0.166703 3.48965,0.696073 2.33742,1.22633 7.18534,5.65429 17.43113,15.921103 7.12733,7.141953 10.63697,10.946632 12.96756,14.057673 3.18242,4.248121 4.46011,6.277531 4.14848,6.589171 -0.0901,0.09011 -1.96203,-0.770693 -4.15981,-1.912907 z"
     id="path54"
     transform="scale(0.26458333)" />
  <path
     style="fill:#808000;stroke:#000000;stroke-width:1.85811"
     d="m 248.28851,83.584569 c -1.59747,-0.315923 -5.20367,-1.495038 -8.01377,-2.620256 -2.8101,-1.125218 -6.38767,-2.261835 -7.95015,-2.525815 -2.42995,-0.410538 -7.97591,-3.555383 -11.47384,-6.50626 -0.55732,-0.470165 -2.89465,-2.243438 -5.19406,-3.940607 -2.29941,-1.69717 -5.71454,-4.654481 -7.58917,-6.571802 l -3.40843,-3.48604 2.51994,-0.472744 c 3.38336,-0.634721 5.42037,0.18346 11.72814,4.71068 5.84365,4.194115 18.52062,10.982248 20.55503,11.00659 2.07227,0.0248 7.24827,2.63834 11.08068,5.595018 1.96131,1.513142 3.91049,2.751167 4.33152,2.751167 1.26215,0 1.79405,1.504437 0.76282,2.157605 -1.13609,0.71959 -3.36657,0.689986 -7.34871,-0.09754 z"
     id="path55"
     transform="scale(0.26458333)" />
  <path
     style="fill:#808000;stroke:#000000;stroke-width:1.85811"
     d="m 253.63178,73.358361 c -4.85859,-0.55467 -11.21184,-2.300853 -15.48964,-4.257306 -4.7039,-2.151328 -20.50963,-12.442068 -22.15497,-14.424583 -0.93632,-1.128192 -0.69361,-1.18688 3.74074,-0.904523 l 4.74202,0.30195 -0.43165,-2.300884 c -0.23741,-1.265485 -0.1442,-2.300883 0.20713,-2.300883 0.35132,0 4.04981,2.08049 8.21886,4.623311 10.01266,6.107002 14.90451,8.354866 20.92407,9.614866 5.28393,1.106018 16.7466,6.480433 15.79095,7.403777 -0.88743,0.857415 -8.90981,2.75801 -11.11895,2.634205 -1.09439,-0.06133 -3.08724,-0.2368 -4.42856,-0.38993 z m -5.7482,-7.337452 c -0.43899,-1.31846 -2.61329,-1.505904 -2.61329,-0.225289 0,0.646367 0.59575,1.096277 1.45165,1.096277 0.85146,0 1.33174,-0.360112 1.16164,-0.870988 z"
     id="path56"
     transform="scale(0.26458333)" />
  <path
     style="fill:#808000;stroke:#000000;stroke-width:1.85811"
     d="m 155.38027,105.73797 c -0.006,-26.101023 -0.76008,-29.787795 -6.09636,-29.787795 -1.80775,0 -2.99408,0.593633 -4.80467,2.404215 -1.70766,1.707657 -2.50948,2.129894 -2.76755,1.457377 -0.56977,-1.484784 -4.10394,-2.695616 -5.60011,-1.918633 -1.83203,0.951404 -7.44585,1.672342 -8.84411,1.135779 -1.51132,-0.57995 -0.53396,-1.8726 3.19634,-4.227433 3.10781,-1.961877 3.45353,-3.34601 0.70702,-2.830698 -12.71261,2.385197 -14.03092,2.292118 -11.08509,-0.782659 1.01894,-1.063543 1.85261,-2.193855 1.85261,-2.511805 0,-0.317951 -2.21248,-0.419789 -4.91662,-0.226309 l -4.91663,0.351783 2.57205,-1.825936 2.57205,-1.825935 -5.40628,-0.205059 -5.40628,-0.205058 0.42984,-2.233709 c 0.23642,-1.22854 0.61585,-3.046571 0.84319,-4.040069 l 0.41335,-1.806361 -12.585267,-0.413957 c -6.921895,-0.227677 -13.111976,-0.70872 -13.755736,-1.068987 -0.967627,-0.541511 -0.306452,-1.224247 3.815144,-3.939567 2.742089,-1.806497 4.985616,-3.56976 4.985616,-3.918362 0,-1.01657 -3.124659,-0.738276 -8.5305,0.759759 -5.294723,1.467243 -12.697719,1.862882 -13.40624,0.716472 -0.230162,-0.37241 0.09085,-1.454438 0.713358,-2.404506 1.822045,-2.780792 1.064893,-3.817513 -4.104394,-5.619899 -5.010677,-1.747082 -11.615944,-5.420106 -13.51496,-7.515332 -2.334904,-2.57615 0.96488,-3.552689 15.741946,-4.658673 5.498219,-0.411512 10.572887,-1.056537 11.277039,-1.433387 3.217879,-1.722157 13.755342,-0.188228 21.139026,3.077187 2.146348,0.949219 9.629638,5.556379 16.629528,10.238134 14.63771,9.790178 18.8582,11.961979 22.63891,11.649651 2.49665,-0.20625 2.64886,-0.359014 2.99354,-3.004461 l 0.36313,-2.787162 0.47807,2.699386 c 0.72731,4.106702 2.19992,5.313705 6.48303,5.313705 2.07119,0 3.94238,-0.375258 4.34312,-0.870988 1.12489,-1.391537 1.71714,-7.675171 0.92082,-9.769664 -0.65607,-1.725571 -0.57625,-1.901578 0.86239,-1.901578 0.87195,0 1.96164,-0.376267 2.42152,-0.836149 1.363,-1.363005 1.03086,0.483097 -0.55483,3.083877 -0.87306,1.431938 -1.39195,3.513782 -1.39358,5.591166 -0.002,2.885267 0.18271,3.309755 1.44231,3.309755 3.5763,0 20.76461,-7.230958 26.7751,-11.264021 5.43207,-3.644941 17.31061,-9.827636 22.6457,-11.78692 12.73301,-4.676138 24.25829,-5.829743 37.82008,-3.785544 6.84359,1.031549 19.75781,4.857123 21.05872,6.238214 0.38324,0.406857 2.10779,1.263503 3.83235,1.90366 1.72456,0.640156 6.11434,2.392841 9.75507,3.894854 7.05661,2.911264 12.01265,4.347898 14.99922,4.347898 4.96251,0 -2.85217,4.682583 -11.14289,6.67686 -2.69583,0.648464 -5.45024,1.460597 -6.1209,1.804738 -1.64312,0.843147 -1.54456,3.140785 0.1742,4.060633 0.76647,0.410202 1.39358,1.092354 1.39358,1.515894 0,0.549501 -2.82145,0.626852 -9.85041,0.270053 -10.74748,-0.545555 -10.26359,-0.728904 -8.61904,3.265785 1.31549,3.195413 -10.06193,-0.261451 -20.29734,-6.167053 -13.59751,-7.845458 -13.5348,-8.481175 0.7917,-8.026135 3.06588,0.09738 6.98533,0.598437 8.70988,1.113463 8.78378,2.623212 9.16309,1.862664 1.1506,-2.307057 -3.19044,-1.660311 -6.71255,-3.745752 -7.82691,-4.634314 l -2.02611,-1.615567 3.98994,-1.159907 c 6.13958,-1.784826 5.57494,-2.463307 -2.0401,-2.451419 -8.95342,0.01398 -9.52265,0.406862 -6.1999,4.279184 l 2.59691,3.026447 -3.0095,0.1921 c -4.411,0.281558 -18.82179,2.148899 -19.15498,2.482091 -0.15715,0.157152 0.39299,1.436083 1.22254,2.842068 0.82956,1.405985 1.37025,2.694364 1.20155,2.863064 -0.1687,0.1687 -1.38134,-0.0015 -2.69474,-0.378148 -1.31341,-0.376681 -4.35966,-0.684874 -6.76943,-0.684874 -3.40026,0 -4.47864,0.25337 -4.81559,1.131442 -0.26127,0.680888 0.0249,1.388351 0.71866,1.7766 2.33385,1.306086 0.97777,1.648835 -6.68606,1.689891 -11.5771,0.06202 -15.15519,1.455951 -15.15519,5.904053 0,1.451068 0.21031,1.510606 3.83235,1.084907 4.59201,-0.5397 4.83948,0.10373 1.29042,3.355091 -3.25315,2.980284 -2.84731,4.568153 1.16759,4.568153 1.90187,0 2.69196,0.255974 2.37468,0.769345 -0.78647,1.272529 -6.06843,3.379736 -8.51271,3.396095 -2.79976,0.01874 -3.45521,1.367626 -1.85287,3.813105 0.65589,1.001008 1.05015,1.962383 0.87614,2.136389 -0.45745,0.457456 -7.86229,-0.985157 -12.95185,-2.523281 -5.84456,-1.766296 -5.82261,-1.772365 -5.30467,1.466625 0.49603,3.102051 0.21112,3.26019 -3.30549,1.834714 -1.29231,-0.523846 -3.2412,-1.164275 -4.33085,-1.423175 l -1.98119,-0.470726 0.46582,6.126511 c 2.37641,31.255439 3.01869,35.393509 5.68181,36.606909 1.6244,0.74013 1.62689,0.75812 0.23905,1.73021 -0.77134,0.54026 -1.2219,1.2744 -1.00125,1.63141 0.22264,0.36024 -0.85751,0.64912 -2.42711,0.64912 h -2.82829 z m -8.78164,-31.574138 c 1.46195,-1.748958 2.48363,-3.354375 2.27042,-3.567594 -0.97729,-0.977285 -5.37468,0.676505 -7.03016,2.64393 -2.34934,2.792038 -2.29858,4.103588 0.15884,4.103588 1.45379,0 2.61188,-0.800419 4.6009,-3.179924 z m 10.87604,1.40388 c 0,-1.018115 -4.90574,-3.749807 -6.7937,-3.782978 -1.53205,-0.02692 -0.93404,1.911791 1.04518,3.388459 2.31926,1.730354 5.74852,1.965704 5.74852,0.394519 z"
     id="path57"
     transform="scale(0.26458333)" />
  <path
     style="fill:#808000;stroke:#000000;stroke-width:0.656941"
     d="m 129.07671,108.75453 c -0.61637,-0.18997 -1.35579,-0.59797 -1.64316,-0.90667 -1.55136,-1.66654 -4.39865,-8.771981 -4.67098,-11.656486 -0.27581,-2.921445 1.52085,-7.940896 3.71646,-10.382949 0.60545,-0.673405 1.74519,-1.56676 2.53277,-1.985232 2.89331,-1.537348 7.46758,-2.169509 7.46758,-1.032014 0,0.128674 -0.62258,0.911165 -1.38351,1.738868 -2.46348,2.679656 -3.58866,6.165298 -3.56853,11.054792 0.0146,3.546866 0.52351,5.633341 2.21787,9.093211 1.4356,2.93149 1.55847,3.74661 0.62858,4.17029 -0.84748,0.38614 -3.91614,0.33179 -5.29708,-0.0938 z"
     id="path58"
     transform="scale(0.26458333)" />
  <path
     style="fill:#808000;stroke:#000000;stroke-width:0.656941"
     d="m 121.38928,112.31572 c -2.62467,-0.61859 -5.43689,-3.08447 -6.818,-5.97832 -1.37229,-2.87538 -1.77604,-5.14054 -1.91882,-10.765369 -0.17468,-6.880793 0.42922,-11.04947 2.12599,-14.675571 1.10227,-2.355632 2.19266,-3.393003 4.50283,-4.283901 1.08849,-0.419767 2.03748,-0.704807 2.10887,-0.633422 0.0714,0.07138 0.0247,0.661201 -0.10371,1.310703 -0.33322,1.685281 -0.0265,2.582317 1.1491,3.360271 0.72785,0.481663 0.98715,0.820126 0.98715,1.288492 0,0.349375 -0.6651,2.286394 -1.47799,4.304485 -2.14836,5.333489 -2.55802,6.994682 -2.3949,9.71128 0.26152,4.355152 2.42364,10.806172 4.12837,12.317632 0.95568,0.84733 1.9617,2.38878 1.9617,3.00577 0,1.07381 -2.01289,1.56533 -4.25059,1.03795 z"
     id="path59"
     transform="scale(0.26458333)" />
  <path
     style="fill:#808000;stroke:#000000;stroke-width:0.656941"
     d="m 105.46565,110.20999 c -3.35495,-1.67184 -7.234572,-9.02828 -7.791308,-14.773676 -0.352472,-3.637428 0.786709,-8.376033 3.192018,-13.277696 2.37809,-4.846211 4.96712,-8.530764 6.59276,-9.38242 1.61216,-0.844594 3.89917,-0.171812 4.87903,1.435294 0.75988,1.246296 0.61782,2.462904 -0.62217,5.328474 -1.43931,3.326178 -1.82163,4.871589 -2.00267,8.095162 -0.22157,3.945166 0.55244,19.714972 1.04622,21.316132 0.0849,0.27517 -0.13511,0.70151 -0.60377,1.17017 -0.63609,0.6361 -0.91917,0.73727 -2.06279,0.73727 -0.93797,0 -1.70614,-0.18966 -2.62732,-0.64871 z"
     id="path60"
     transform="scale(0.26458333)" />
  <path
     style="fill:#808000;stroke:#000000;stroke-width:0.656941"
     d="m 90.915044,107.03405 c -1.449527,-0.65072 -2.477708,-1.59192 -3.045426,-2.7878 -0.334573,-0.70476 -0.900851,-1.37808 -1.46739,-1.74475 -2.422831,-1.56808 -4.046111,-9.270083 -3.015406,-14.307241 0.541488,-2.646304 1.224318,-4.483433 2.016213,-5.424547 0.340691,-0.404888 1.436033,-1.300672 2.434093,-1.99063 2.215511,-1.531582 3.138343,-2.635312 4.635334,-5.543974 0.634864,-1.233545 1.597609,-2.83698 2.139433,-3.563188 1.323671,-1.77412 1.713383,-3.200599 1.923092,-7.039169 0.215547,-3.945443 0.326835,-4.145108 2.202474,-3.951525 2.365129,0.244103 3.200379,1.188756 3.512589,3.972665 0.24435,2.178908 0.69389,2.966598 1.91572,3.356762 0.49701,0.158707 0.99622,0.373287 1.10938,0.476845 0.33712,0.308542 -0.40604,1.468207 -3.09736,4.833275 -5.441325,6.803502 -7.981104,12.313036 -8.616601,18.691952 -0.253286,2.542397 -0.221723,3.039499 0.510686,8.043135 0.798386,5.45436 0.793147,6.12964 -0.053,6.83188 -0.600868,0.49868 -2.155634,0.57197 -3.103828,0.14631 z"
     id="path61"
     transform="scale(0.26458333)" />
  <path
     style="fill:#808000;stroke:#000000;stroke-width:0.656941"
     d="m 50.701891,88.447861 c -4.484431,-0.571476 -9.560994,-3.191965 -9.560994,-4.935325 0,-1.205331 2.330429,-1.942291 9.730931,-3.077246 7.37933,-1.131708 10.194945,-1.835331 11.856621,-2.962975 0.484054,-0.328488 1.284668,-0.659062 1.779142,-0.734609 1.82777,-0.279253 3.548479,-0.920956 6.862805,-2.559343 6.125189,-3.027894 11.968852,-6.697697 15.786067,-9.913601 1.25838,-1.060153 2.798764,-2.226901 3.423076,-2.592771 l 1.135112,-0.66522 0.456979,0.564344 c 1.203736,1.486551 0.293908,6.046389 -2.244204,11.247422 -1.668616,3.419279 -3.506724,5.642291 -4.894927,5.919931 -0.488438,0.09769 -0.978737,0.4196 -1.227583,0.80599 -0.652947,1.01384 -1.211557,1.403581 -4.233001,2.953364 -3.259904,1.672094 -7.632179,3.440834 -10.71155,4.3332 -4.47312,1.296261 -14.010344,2.145458 -18.158474,1.616839 z"
     id="path62"
     transform="scale(0.26458333)" />
  <path
     style="fill:#808000;stroke:#000000;stroke-width:0.656941"
     d="m 33.964662,76.836351 c -3.299774,-0.318877 -6.442989,-1.751261 -6.055993,-2.759756 0.440408,-1.147687 10.220969,-4.800948 14.636923,-5.467223 1.327574,-0.200303 3.617724,-0.538944 5.089221,-0.752535 4.145798,-0.601772 18.460627,-5.021696 22.821984,-7.046639 1.151659,-0.534706 2.402783,-1.268095 2.780272,-1.629753 0.679219,-0.650733 0.687782,-0.652056 0.824991,-0.12737 0.07626,0.291605 0.321727,0.612625 0.545489,0.713378 0.223762,0.100754 2.757792,0.247742 5.631176,0.32664 3.868077,0.106212 5.307045,0.228499 5.542935,0.471052 0.262496,0.269911 0.0078,0.620254 -1.446506,1.98948 -2.429437,2.28736 -5.387196,4.257387 -10.322766,6.875519 -5.659305,3.002046 -10.799156,4.985569 -15.409698,5.946768 -6.667975,1.390128 -18.256997,2.077077 -24.638028,1.460439 z"
     id="path63"
     transform="scale(0.26458333)" />
  <path
     style="fill:#808000;stroke:#000000;stroke-width:0.656941"
     d="m 21.457846,66.248735 c -5.779881,-0.443057 -9.632917,-1.815839 -9.632917,-3.432073 0,-0.638407 0.89924,-1.061537 3.572113,-1.68083 4.98634,-1.155312 12.626657,-2.09111 20.352393,-2.492791 8.747943,-0.454829 13.54542,-1.676501 21.158033,-5.387867 2.973987,-1.449904 3.513906,-1.631937 5.104531,-1.720992 0.978324,-0.05477 2.530345,0.02861 3.448938,0.185305 2.408302,0.410804 9.506784,2.209715 9.77402,2.476951 0.987081,0.987082 -6.181072,4.013389 -16.60302,7.00959 -9.740272,2.800228 -18.855614,4.462701 -27.714676,5.054656 -4.127282,0.275782 -5.732276,0.273754 -9.459415,-0.01195 z"
     id="path64"
     transform="scale(0.26458333)" />
  <path
     style="fill:#808000;stroke:#000000;stroke-width:0.656941"
     d="m 31.101863,55.871681 c -0.145126,-0.175534 -0.448012,-0.780157 -0.67308,-1.343607 -0.747611,-1.871624 -1.719879,-1.936291 -6.286221,-0.418104 -2.339132,0.777699 -2.99932,0.883795 -6.897875,1.108527 -3.025805,0.174422 -5.92706,0.166142 -9.7309303,-0.02777 C 0.25519176,54.820695 -0.64167561,54.594914 0.91175027,53.528706 2.7288304,52.281536 31.937804,38.106117 35.105257,36.934242 c 3.499735,-1.294812 8.522154,-2.69122 9.679433,-2.69122 1.171717,0 2.672249,0.978353 4.880052,3.181809 1.687153,1.683836 2.431429,2.252246 3.229136,2.466126 0.570152,0.152868 1.512451,0.66354 2.093998,1.134828 1.339641,1.08565 2.835835,1.827212 3.700663,1.83417 1.382068,0.01112 4.870452,1.846626 4.870452,2.562718 0,0.407205 -1.550682,1.652688 -2.940355,2.361647 -0.595526,0.303815 -2.36703,0.971207 -3.936676,1.483093 -1.569644,0.511887 -4.461351,1.649247 -6.426014,2.527467 -5.420109,2.422832 -7.189135,2.894918 -12.674291,3.382289 -3.131187,0.278214 -5.047466,0.561905 -5.82428,0.862242 -0.215405,0.08328 -0.510386,0.0078 -0.655512,-0.16773 z m 10.778092,-3.024338 c 0,-0.766183 -2.395688,-0.700913 -2.653423,0.07229 -0.06751,0.202536 0.325679,0.292543 1.277955,0.292543 1.050539,0 1.375468,-0.08619 1.375468,-0.364835 z"
     id="path65"
     transform="scale(0.26458333)" />
</svg>
