<svg xmlns="http://www.w3.org/2000/svg" id="canvas" viewBox="298.754 343.522 1300.372 245.785"><path d="M 337.16,380.90 C 335.65 381.87, 335.00 383.24, 334.28 386.22 C 333.57 389.20, 334.10 391.25, 333.57 395.80 C 333.05 400.35, 332.71 403.32, 331.65 408.97 C 330.59 414.62, 329.88 417.87, 328.29 424.05 C 326.70 430.22, 325.66 433.51, 323.71 439.85 C 321.75 446.19, 320.56 449.55, 318.52 455.73 C 316.48 461.92, 315.43 465.14, 313.51 470.79 C 311.59 476.43, 310.64 479.19, 308.94 483.95 C 307.23 488.72, 306.39 490.95, 304.98 494.63 C 303.58 498.30, 302.41 499.78, 301.92 502.32 C 301.43 504.85, 302.14 505.85, 302.55 507.29 C 302.95 508.72, 303.25 508.97, 303.95 509.48 C 304.66 509.99, 305.24 510.04, 306.07 509.85 C 306.89 509.66, 307.13 509.56, 308.09 508.53 C 309.05 507.51, 310.03 507.08, 310.86 504.73 C 311.70 502.37, 311.45 500.55, 312.24 496.76 C 313.03 492.97, 313.53 490.65, 314.82 485.79 C 316.12 480.93, 316.99 478.15, 318.72 472.46 C 320.44 466.77, 321.44 463.54, 323.43 457.33 C 325.42 451.12, 326.61 447.77, 328.67 441.42 C 330.72 435.06, 331.82 431.76, 333.71 425.57 C 335.61 419.38, 336.57 416.14, 338.13 410.47 C 339.69 404.79, 340.44 401.82, 341.53 397.20 C 342.63 392.59, 343.53 390.56, 343.59 387.39 C 343.64 384.22, 343.11 382.66, 341.83 381.36 C 340.54 380.06, 338.67 379.93, 337.16 380.90" style="stroke: black; fill: black;"/><path d="M 337.03,369.63 C 338.58 370.03, 339.31 369.53, 340.99 368.81 C 342.66 368.09, 343.33 367.65, 345.41 366.05 C 347.48 364.45, 348.28 362.70, 351.34 360.80 C 354.41 358.89, 356.49 357.93, 360.74 356.52 C 364.99 355.12, 367.61 354.46, 372.60 353.76 C 377.58 353.06, 380.47 352.85, 385.67 353.03 C 390.88 353.20, 393.76 353.51, 398.62 354.62 C 403.49 355.73, 406.07 356.64, 410.02 358.56 C 413.97 360.48, 415.76 361.75, 418.37 364.22 C 420.99 366.68, 421.91 368.06, 423.08 370.90 C 424.24 373.74, 424.54 375.03, 424.20 378.42 C 423.85 381.80, 423.42 383.70, 421.35 387.82 C 419.28 391.94, 417.72 394.40, 413.84 399.02 C 409.95 403.65, 407.30 406.25, 401.94 410.95 C 396.57 415.66, 393.23 418.13, 387.01 422.53 C 380.79 426.93, 377.16 429.19, 370.83 432.93 C 364.51 436.68, 361.05 438.46, 355.39 441.26 C 349.73 444.07, 346.93 445.23, 342.54 446.97 C 338.14 448.72, 335.84 448.68, 333.41 449.99 C 330.98 451.29, 330.94 452.21, 330.39 453.50 C 329.84 454.80, 330.30 455.68, 330.67 456.47 C 331.04 457.27, 332.06 457.89, 332.25 457.47 C 332.45 457.05, 331.89 454.72, 331.66 454.38 C 331.43 454.05, 330.93 455.11, 331.11 455.79 C 331.30 456.46, 331.40 457.36, 332.60 457.75 C 333.79 458.15, 334.54 458.79, 337.07 457.76 C 339.61 456.73, 341.13 455.00, 345.27 452.60 C 349.41 450.20, 352.17 448.90, 357.76 445.76 C 363.36 442.62, 366.84 440.80, 373.22 436.91 C 379.60 433.03, 383.28 430.76, 389.67 426.33 C 396.06 421.90, 399.50 419.48, 405.19 414.77 C 410.88 410.07, 413.73 407.57, 418.12 402.80 C 422.52 398.03, 424.49 395.64, 427.15 390.93 C 429.82 386.22, 430.88 383.83, 431.45 379.26 C 432.02 374.68, 431.66 372.13, 430.02 368.07 C 428.37 364.01, 426.66 362.06, 423.23 358.95 C 419.80 355.84, 417.49 354.63, 412.85 352.52 C 408.20 350.41, 405.39 349.58, 400.01 348.40 C 394.63 347.23, 391.57 346.93, 385.94 346.66 C 380.30 346.38, 377.27 346.54, 371.84 347.01 C 366.40 347.48, 363.67 348.01, 358.76 349.02 C 353.85 350.04, 351.42 350.66, 347.30 352.10 C 343.17 353.54, 340.90 354.28, 338.15 356.23 C 335.41 358.19, 334.55 359.76, 333.57 361.88 C 332.59 364.00, 332.56 365.29, 333.25 366.84 C 333.95 368.39, 335.48 369.24, 337.03 369.63" style="stroke: black; fill: black;"/><path d="M 489.35,376.97 C 487.76 377.11, 486.83 377.40, 485.34 379.39 C 483.86 381.38, 483.70 383.00, 481.94 386.93 C 480.17 390.87, 479.17 393.70, 476.51 399.07 C 473.85 404.45, 472.16 407.68, 468.64 413.82 C 465.11 419.96, 462.91 423.34, 458.88 429.78 C 454.85 436.21, 452.52 439.72, 448.49 446.00 C 444.46 452.29, 442.31 455.56, 438.73 461.20 C 435.15 466.84, 433.45 469.61, 430.59 474.20 C 427.73 478.79, 425.97 480.69, 424.44 484.15 C 422.91 487.62, 422.37 489.20, 422.94 491.53 C 423.50 493.86, 424.97 495.09, 427.27 495.80 C 429.58 496.52, 431.61 496.77, 434.44 495.12 C 437.28 493.47, 438.13 491.03, 441.44 487.56 C 444.75 484.09, 446.64 481.73, 451.00 477.75 C 455.35 473.78, 458.06 471.50, 463.22 467.68 C 468.39 463.87, 471.56 461.83, 476.82 458.68 C 482.09 455.52, 484.91 453.93, 489.53 451.91 C 494.14 449.90, 496.58 449.36, 499.90 448.62 C 503.21 447.88, 504.53 448.14, 506.08 448.19 C 507.63 448.24, 507.59 447.99, 507.64 448.86 C 507.70 449.73, 506.86 450.35, 506.35 452.55 C 505.85 454.75, 506.00 456.52, 505.13 459.88 C 504.25 463.24, 503.47 465.48, 501.97 469.36 C 500.47 473.23, 499.38 475.50, 497.62 479.26 C 495.86 483.02, 494.65 484.88, 493.17 488.15 C 491.70 491.41, 490.76 492.94, 490.26 495.59 C 489.76 498.24, 490.19 499.63, 490.69 501.41 C 491.19 503.18, 491.73 503.87, 492.75 504.47 C 493.78 505.06, 494.81 504.84, 495.81 504.39 C 496.80 503.93, 496.90 503.40, 497.73 502.18 C 498.55 500.95, 499.12 500.38, 499.94 498.27 C 500.76 496.17, 500.73 494.75, 501.84 491.66 C 502.94 488.57, 503.80 486.59, 505.46 482.83 C 507.12 479.06, 508.32 476.81, 510.15 472.82 C 511.98 468.82, 513.22 466.74, 514.61 462.84 C 515.99 458.93, 517.20 456.83, 517.09 453.28 C 516.98 449.74, 516.00 447.66, 514.05 445.11 C 512.10 442.55, 510.52 441.23, 507.32 440.51 C 504.12 439.79, 502.13 440.34, 498.05 441.52 C 493.97 442.70, 491.73 443.92, 486.90 446.40 C 482.08 448.87, 479.32 450.56, 473.91 453.89 C 468.51 457.22, 465.32 459.28, 459.89 463.03 C 454.47 466.78, 451.62 469.04, 446.78 472.64 C 441.94 476.24, 439.53 478.24, 435.71 481.03 C 431.89 483.82, 429.54 484.51, 427.68 486.59 C 425.81 488.67, 426.19 490.28, 426.39 491.42 C 426.58 492.57, 427.63 493.15, 428.64 492.32 C 429.65 491.49, 430.02 490.35, 431.42 487.28 C 432.82 484.22, 433.33 481.71, 435.64 477.01 C 437.94 472.30, 439.58 469.47, 442.93 463.76 C 446.28 458.06, 448.40 454.77, 452.38 448.49 C 456.37 442.20, 458.70 438.70, 462.86 432.32 C 467.01 425.94, 469.28 422.58, 473.17 416.59 C 477.05 410.59, 478.98 407.45, 482.27 402.34 C 485.56 397.24, 487.26 394.78, 489.61 391.05 C 491.96 387.32, 493.30 386.17, 494.03 383.70 C 494.76 381.22, 494.20 380.03, 493.27 378.68 C 492.33 377.34, 490.93 376.83, 489.35 376.97" style="stroke: black; fill: black;"/><path d="M 559.41,450.27 C 557.88 450.79, 557.36 451.42, 556.36 453.07 C 555.36 454.71, 554.73 455.88, 554.42 458.52 C 554.10 461.15, 554.28 463.02, 554.81 466.23 C 555.34 469.43, 555.94 471.26, 557.05 474.53 C 558.16 477.80, 558.65 479.57, 560.35 482.57 C 562.04 485.56, 563.10 487.11, 565.53 489.51 C 567.97 491.90, 569.46 493.02, 572.53 494.54 C 575.60 496.06, 577.41 496.66, 580.88 497.11 C 584.35 497.55, 586.27 497.35, 589.88 496.77 C 593.49 496.19, 595.34 495.59, 598.93 494.20 C 602.52 492.82, 604.36 491.86, 607.82 489.84 C 611.29 487.81, 613.03 486.51, 616.26 484.06 C 619.48 481.61, 621.11 480.15, 623.97 477.57 C 626.83 474.98, 628.39 473.66, 630.54 471.13 C 632.69 468.61, 633.72 467.25, 634.72 464.95 C 635.71 462.64, 636.03 461.44, 635.50 459.63 C 634.97 457.82, 633.91 456.59, 632.06 455.90 C 630.21 455.21, 628.17 454.83, 626.25 456.18 C 624.33 457.53, 623.87 459.27, 622.45 462.66 C 621.04 466.05, 620.82 468.47, 619.18 473.12 C 617.54 477.78, 616.47 480.58, 614.26 485.95 C 612.05 491.32, 610.72 494.29, 608.13 499.97 C 605.55 505.65, 604.17 508.66, 601.34 514.35 C 598.52 520.04, 597.01 522.94, 594.01 528.42 C 591.01 533.91, 589.43 536.74, 586.34 541.77 C 583.25 546.79, 581.64 549.25, 578.55 553.56 C 575.46 557.88, 573.86 559.92, 570.89 563.34 C 567.92 566.75, 566.42 568.31, 563.69 570.64 C 560.96 572.96, 559.31 573.52, 557.24 574.97 C 555.16 576.42, 554.25 576.95, 553.32 577.89 C 552.38 578.83, 552.24 579.47, 552.55 579.66 C 552.86 579.86, 554.09 579.57, 554.86 578.88 C 555.64 578.19, 556.56 577.56, 556.42 576.21 C 556.28 574.86, 555.78 573.26, 554.16 572.13 C 552.53 570.99, 550.35 570.12, 548.30 570.55 C 546.26 570.97, 544.60 572.29, 543.94 574.24 C 543.28 576.19, 543.81 578.06, 545.00 580.28 C 546.19 582.49, 547.56 584.17, 549.87 585.31 C 552.19 586.46, 553.92 586.50, 556.57 586.01 C 559.21 585.52, 560.55 584.82, 563.09 582.84 C 565.62 580.87, 566.66 579.20, 569.26 576.12 C 571.85 573.05, 573.23 571.31, 576.06 567.47 C 578.89 563.62, 580.41 561.47, 583.41 556.89 C 586.40 552.31, 587.98 549.77, 591.03 544.58 C 594.07 539.39, 595.63 536.51, 598.64 530.94 C 601.66 525.38, 603.17 522.45, 606.09 516.74 C 609.01 511.03, 610.44 508.03, 613.25 502.41 C 616.06 496.80, 617.45 493.83, 620.12 488.67 C 622.80 483.50, 624.12 480.78, 626.61 476.59 C 629.10 472.40, 630.80 470.73, 632.59 467.72 C 634.37 464.71, 635.49 463.58, 635.53 461.53 C 635.57 459.48, 634.13 458.39, 632.78 457.47 C 631.42 456.56, 630.15 456.54, 628.74 456.96 C 627.33 457.39, 626.99 458.08, 625.71 459.61 C 624.44 461.14, 624.00 462.36, 622.35 464.62 C 620.70 466.87, 619.76 468.42, 617.45 470.88 C 615.13 473.34, 613.60 474.72, 610.77 476.90 C 607.95 479.09, 606.33 480.18, 603.31 481.80 C 600.29 483.41, 598.64 484.06, 595.68 484.97 C 592.73 485.88, 591.18 486.13, 588.53 486.37 C 585.87 486.60, 584.63 486.48, 582.41 486.13 C 580.18 485.79, 579.21 485.53, 577.41 484.64 C 575.60 483.76, 574.80 483.20, 573.40 481.72 C 572.00 480.24, 571.38 479.31, 570.41 477.25 C 569.44 475.20, 568.98 473.93, 568.54 471.44 C 568.11 468.96, 568.30 467.39, 568.23 464.82 C 568.15 462.26, 568.43 460.85, 568.16 458.61 C 567.88 456.38, 567.67 455.27, 566.85 453.64 C 566.03 452.01, 565.54 451.15, 564.05 450.47 C 562.57 449.80, 560.95 449.76, 559.41 450.27" style="stroke: black; fill: black;"/><path d="M 725.69,436.56 C 725.13 435.04, 724.32 434.41, 722.39 433.59 C 720.46 432.77, 719.01 432.05, 716.06 432.47 C 713.11 432.88, 711.19 434.03, 707.63 435.66 C 704.07 437.30, 702.13 438.50, 698.25 440.65 C 694.37 442.79, 692.13 444.02, 688.23 446.40 C 684.34 448.78, 682.14 449.99, 678.78 452.55 C 675.43 455.11, 673.45 456.23, 671.45 459.19 C 669.45 462.14, 668.95 464.08, 668.79 467.33 C 668.63 470.59, 669.01 472.57, 670.63 475.45 C 672.25 478.32, 673.83 479.67, 676.89 481.70 C 679.94 483.74, 682.12 484.17, 685.91 485.62 C 689.69 487.08, 691.99 487.64, 695.83 488.99 C 699.66 490.34, 701.89 491.02, 705.08 492.39 C 708.27 493.75, 709.64 494.97, 711.78 495.80 C 713.92 496.63, 714.91 496.52, 715.78 496.53 C 716.65 496.54, 716.71 496.06, 716.11 495.85 C 715.51 495.65, 714.69 494.97, 712.79 495.50 C 710.89 496.04, 709.75 497.18, 706.59 498.52 C 703.44 499.86, 701.28 500.89, 697.01 502.20 C 692.74 503.51, 690.06 504.12, 685.24 505.09 C 680.43 506.06, 677.64 506.50, 672.96 507.03 C 668.28 507.56, 665.76 507.76, 661.82 507.73 C 657.89 507.70, 655.99 507.07, 653.27 506.90 C 650.54 506.73, 649.69 506.69, 648.20 506.87 C 646.70 507.05, 646.49 507.51, 645.79 507.82 C 645.10 508.12, 645.26 508.02, 644.73 508.38 C 644.20 508.74, 643.38 508.91, 643.13 509.63 C 642.88 510.35, 642.80 510.92, 643.46 511.98 C 644.11 513.04, 644.55 513.99, 646.40 514.92 C 648.26 515.85, 649.57 516.48, 652.74 516.63 C 655.91 516.78, 658.04 516.14, 662.27 515.66 C 666.49 515.18, 669.00 514.89, 673.85 514.23 C 678.71 513.57, 681.51 513.14, 686.53 512.38 C 691.55 511.61, 694.26 511.18, 698.93 510.40 C 703.60 509.62, 706.00 509.45, 709.89 508.46 C 713.77 507.48, 715.87 507.36, 718.34 505.45 C 720.81 503.55, 721.60 501.62, 722.25 498.93 C 722.89 496.24, 722.68 494.50, 721.58 492.00 C 720.49 489.50, 719.39 488.13, 716.76 486.42 C 714.14 484.72, 712.04 484.71, 708.48 483.49 C 704.91 482.27, 702.69 481.73, 698.95 480.34 C 695.21 478.96, 693.04 478.14, 689.78 476.58 C 686.53 475.01, 684.97 473.87, 682.66 472.53 C 680.35 471.19, 679.37 470.78, 678.23 469.88 C 677.09 468.99, 676.75 469.04, 676.96 468.05 C 677.16 467.06, 677.81 466.68, 679.27 464.94 C 680.72 463.20, 681.58 461.62, 684.24 459.35 C 686.90 457.07, 688.96 455.70, 692.55 453.58 C 696.14 451.46, 698.46 450.29, 702.18 448.76 C 705.89 447.24, 707.91 446.62, 711.14 445.94 C 714.36 445.27, 716.04 445.86, 718.30 445.38 C 720.56 444.89, 721.06 444.33, 722.44 443.50 C 723.81 442.66, 724.52 442.59, 725.17 441.20 C 725.82 439.81, 726.25 438.08, 725.69 436.56" style="stroke: black; fill: black;"/><path d="M 776.59,452.09 C 775.03 452.06, 774.34 452.31, 772.77 453.68 C 771.20 455.06, 770.40 456.11, 768.74 458.97 C 767.08 461.84, 766.42 464.19, 764.47 468.00 C 762.53 471.80, 761.26 474.06, 759.03 477.99 C 756.79 481.91, 755.44 484.04, 753.28 487.61 C 751.13 491.19, 749.70 492.88, 748.26 495.87 C 746.81 498.85, 746.49 500.38, 746.05 502.53 C 745.62 504.68, 745.70 505.37, 746.07 506.62 C 746.44 507.87, 747.23 508.29, 747.90 508.76 C 748.58 509.22, 749.18 508.98, 749.45 508.95 C 749.72 508.91, 749.02 508.60, 749.24 508.59 C 749.47 508.58, 749.87 508.97, 750.58 508.90 C 751.28 508.83, 751.92 508.92, 752.76 508.24 C 753.59 507.56, 753.88 507.17, 754.75 505.51 C 755.62 503.84, 755.93 502.67, 757.11 499.91 C 758.28 497.16, 758.82 495.25, 760.64 491.73 C 762.46 488.21, 763.81 486.07, 766.20 482.32 C 768.60 478.56, 770.11 476.44, 772.61 472.97 C 775.11 469.50, 776.91 467.87, 778.71 464.96 C 780.52 462.06, 781.27 460.68, 781.63 458.45 C 782.00 456.22, 781.56 455.11, 780.55 453.84 C 779.54 452.56, 778.14 452.12, 776.59 452.09" style="stroke: black; fill: black;"/><path d="M 806.30,399.20 C 808.02 399.22, 808.76 399.19, 808.64 398.98 C 808.52 398.76, 807.21 398.58, 805.71 398.12 C 804.20 397.66, 802.71 396.86, 801.12 396.68 C 799.53 396.50, 797.98 396.77, 797.76 397.21 C 797.53 397.64, 798.29 398.48, 800.00 398.87 C 801.71 399.27, 804.57 399.18, 806.30 399.20" style="stroke: black; fill: black;"/><path d="M 859.27,450.61 C 858.77 449.04, 858.00 448.35, 855.94 447.45 C 853.89 446.54, 852.19 445.51, 848.99 446.08 C 845.79 446.65, 843.77 448.18, 839.94 450.29 C 836.11 452.39, 834.05 453.77, 829.85 456.59 C 825.65 459.41, 823.14 461.08, 818.93 464.38 C 814.73 467.69, 812.40 469.57, 808.80 473.12 C 805.21 476.67, 803.36 478.48, 800.94 482.14 C 798.52 485.79, 797.14 487.72, 796.69 491.40 C 796.25 495.08, 796.87 497.46, 798.72 500.55 C 800.56 503.65, 802.31 505.23, 805.92 506.86 C 809.53 508.48, 812.01 508.58, 816.77 508.67 C 821.52 508.76, 824.29 508.35, 829.70 507.31 C 835.10 506.28, 838.11 505.38, 843.77 503.49 C 849.44 501.61, 852.57 500.43, 858.02 497.88 C 863.47 495.34, 866.34 493.84, 871.03 490.77 C 875.71 487.71, 877.92 485.97, 881.42 482.56 C 884.93 479.14, 886.49 477.36, 888.54 473.69 C 890.58 470.02, 891.49 467.90, 891.64 464.22 C 891.79 460.54, 890.96 458.42, 889.27 455.29 C 887.57 452.16, 886.13 450.58, 883.16 448.57 C 880.20 446.56, 877.88 445.37, 874.44 445.23 C 871.01 445.09, 867.69 446.12, 866.00 447.87 C 864.31 449.63, 864.67 452.25, 865.99 454.01 C 867.31 455.77, 870.25 455.90, 872.59 456.69 C 874.93 457.48, 875.98 457.26, 877.68 457.97 C 879.39 458.68, 880.16 459.00, 881.10 460.23 C 882.05 461.46, 882.33 462.13, 882.41 464.12 C 882.50 466.11, 882.70 467.43, 881.53 470.18 C 880.36 472.92, 879.34 474.76, 876.56 477.86 C 873.77 480.96, 871.80 482.75, 867.59 485.68 C 863.38 488.60, 860.64 490.10, 855.51 492.47 C 850.37 494.84, 847.28 495.95, 841.90 497.52 C 836.52 499.09, 833.54 499.76, 828.61 500.33 C 823.68 500.90, 821.06 500.81, 817.26 500.39 C 813.46 499.96, 811.86 499.11, 809.60 498.23 C 807.34 497.34, 806.77 497.10, 805.95 495.98 C 805.13 494.86, 805.17 494.55, 805.50 492.61 C 805.83 490.68, 805.91 489.20, 807.59 486.31 C 809.27 483.42, 810.77 481.42, 813.91 478.17 C 817.04 474.92, 819.26 473.02, 823.27 470.07 C 827.27 467.11, 829.84 465.55, 833.93 463.40 C 838.02 461.24, 840.27 460.25, 843.72 459.29 C 847.18 458.32, 848.89 459.00, 851.20 458.60 C 853.50 458.19, 853.82 457.92, 855.26 457.26 C 856.71 456.60, 857.62 456.61, 858.42 455.28 C 859.22 453.95, 859.77 452.18, 859.27 450.61" style="stroke: black; fill: black;"/><path d="M 1095.27,393.68 C 1093.66 394.27, 1092.69 395.05, 1091.61 397.53 C 1090.53 400.01, 1090.87 401.89, 1089.87 406.10 C 1088.87 410.31, 1088.34 413.18, 1086.61 418.58 C 1084.87 423.98, 1083.68 427.08, 1081.18 433.10 C 1078.69 439.11, 1077.10 442.44, 1074.13 448.64 C 1071.17 454.84, 1069.46 458.12, 1066.36 464.09 C 1063.27 470.06, 1061.60 473.11, 1058.67 478.51 C 1055.74 483.90, 1054.29 486.60, 1051.71 491.05 C 1049.14 495.51, 1047.83 497.52, 1045.81 500.78 C 1043.79 504.04, 1042.52 505.12, 1041.61 507.34 C 1040.71 509.56, 1041.19 510.55, 1041.28 511.89 C 1041.37 513.23, 1041.55 513.41, 1042.06 514.02 C 1042.58 514.63, 1043.06 514.89, 1043.86 514.95 C 1044.66 515.00, 1044.95 515.01, 1046.07 514.30 C 1047.19 513.59, 1048.17 513.40, 1049.45 511.39 C 1050.73 509.39, 1050.95 507.78, 1052.48 504.28 C 1054.01 500.77, 1054.91 498.51, 1057.08 493.85 C 1059.26 489.19, 1060.62 486.46, 1063.37 480.96 C 1066.12 475.47, 1067.77 472.40, 1070.83 466.39 C 1073.90 460.37, 1075.62 457.08, 1078.72 450.88 C 1081.82 444.69, 1083.47 441.37, 1086.32 435.39 C 1089.18 429.41, 1090.63 426.34, 1092.98 421.01 C 1095.33 415.67, 1096.39 412.89, 1098.07 408.71 C 1099.75 404.53, 1101.05 402.93, 1101.37 400.11 C 1101.69 397.28, 1100.89 395.89, 1099.67 394.61 C 1098.45 393.33, 1096.88 393.10, 1095.27 393.68" style="stroke: black; fill: black;"/><path d="M 1077.94,388.76 C 1079.59 388.97, 1080.47 388.45, 1082.32 387.19 C 1084.17 385.93, 1084.55 384.56, 1087.21 382.45 C 1089.86 380.35, 1091.52 378.65, 1095.58 376.64 C 1099.65 374.64, 1102.34 373.69, 1107.53 372.44 C 1112.73 371.18, 1115.92 370.69, 1121.57 370.38 C 1127.21 370.07, 1130.39 370.14, 1135.76 370.90 C 1141.13 371.66, 1143.99 372.43, 1148.41 374.21 C 1152.84 375.98, 1154.94 377.30, 1157.88 379.75 C 1160.82 382.21, 1161.83 383.65, 1163.12 386.48 C 1164.41 389.31, 1164.65 390.62, 1164.33 393.89 C 1164.01 397.17, 1163.56 399.01, 1161.50 402.86 C 1159.44 406.71, 1157.86 409.00, 1154.02 413.15 C 1150.18 417.30, 1147.55 419.61, 1142.31 423.62 C 1137.07 427.63, 1133.79 429.70, 1127.83 433.20 C 1121.86 436.70, 1118.43 438.40, 1112.48 441.12 C 1106.54 443.84, 1103.31 445.07, 1098.12 446.80 C 1092.93 448.54, 1090.27 448.82, 1086.54 449.78 C 1082.81 450.73, 1081.48 450.74, 1079.46 451.58 C 1077.44 452.42, 1076.98 452.97, 1076.44 453.97 C 1075.91 454.96, 1075.92 455.73, 1076.77 456.55 C 1077.61 457.37, 1078.32 458.04, 1080.66 458.07 C 1083.00 458.11, 1084.58 457.89, 1088.48 456.71 C 1092.37 455.53, 1094.91 454.38, 1100.15 452.19 C 1105.39 450.00, 1108.63 448.68, 1114.67 445.76 C 1120.72 442.83, 1124.20 441.13, 1130.37 437.57 C 1136.54 434.00, 1139.92 431.98, 1145.51 427.93 C 1151.11 423.88, 1153.96 421.68, 1158.34 417.33 C 1162.72 412.97, 1164.76 410.71, 1167.40 406.17 C 1170.04 401.63, 1171.10 399.16, 1171.56 394.61 C 1172.02 390.07, 1171.57 387.46, 1169.69 383.44 C 1167.81 379.41, 1165.95 377.50, 1162.14 374.49 C 1158.33 371.48, 1155.76 370.29, 1150.64 368.39 C 1145.53 366.50, 1142.44 365.83, 1136.58 365.02 C 1130.71 364.22, 1127.38 364.18, 1121.31 364.38 C 1115.24 364.57, 1111.95 364.99, 1106.21 365.99 C 1100.47 366.98, 1097.51 367.67, 1092.59 369.34 C 1087.67 371.02, 1085.17 372.19, 1081.62 374.37 C 1078.07 376.55, 1076.33 377.88, 1074.83 380.24 C 1073.32 382.59, 1073.48 384.44, 1074.10 386.14 C 1074.72 387.85, 1076.30 388.55, 1077.94 388.76" style="stroke: black; fill: black;"/><path d="M 1220.79,385.23 C 1219.24 385.23, 1218.25 385.35, 1216.73 387.15 C 1215.20 388.95, 1214.96 390.49, 1213.16 394.22 C 1211.36 397.95, 1210.46 400.66, 1207.75 405.80 C 1205.03 410.93, 1203.23 414.01, 1199.58 419.89 C 1195.92 425.78, 1193.63 429.10, 1189.46 435.22 C 1185.29 441.34, 1182.90 444.61, 1178.72 450.50 C 1174.55 456.40, 1172.35 459.41, 1168.59 464.70 C 1164.83 469.98, 1162.96 472.63, 1159.90 476.92 C 1156.84 481.22, 1154.94 482.92, 1153.30 486.16 C 1151.65 489.40, 1151.17 490.90, 1151.67 493.13 C 1152.17 495.36, 1153.57 496.66, 1155.81 497.31 C 1158.05 497.97, 1160.03 498.10, 1162.86 496.41 C 1165.69 494.72, 1166.48 492.26, 1169.98 488.88 C 1173.47 485.49, 1175.63 483.21, 1180.33 479.51 C 1185.03 475.81, 1188.06 473.72, 1193.48 470.40 C 1198.91 467.07, 1202.06 465.31, 1207.47 462.88 C 1212.89 460.46, 1215.91 459.41, 1220.58 458.26 C 1225.25 457.11, 1227.63 457.07, 1230.82 457.14 C 1234.02 457.22, 1235.04 457.81, 1236.55 458.63 C 1238.07 459.45, 1238.09 459.70, 1238.41 461.26 C 1238.73 462.81, 1238.53 463.80, 1238.16 466.40 C 1237.80 469.01, 1237.56 470.91, 1236.57 474.28 C 1235.58 477.65, 1234.71 479.74, 1233.20 483.26 C 1231.69 486.79, 1230.30 488.65, 1229.01 491.92 C 1227.72 495.20, 1226.91 496.96, 1226.76 499.62 C 1226.60 502.27, 1227.19 503.92, 1228.23 505.19 C 1229.27 506.45, 1230.54 506.54, 1231.95 505.94 C 1233.37 505.33, 1234.07 504.22, 1235.31 502.16 C 1236.56 500.11, 1236.88 498.73, 1238.18 495.68 C 1239.48 492.62, 1240.29 490.58, 1241.81 486.87 C 1243.33 483.17, 1244.50 481.06, 1245.78 477.14 C 1247.05 473.22, 1248.00 471.10, 1248.18 467.26 C 1248.37 463.43, 1248.27 461.15, 1246.70 457.95 C 1245.14 454.76, 1243.54 452.93, 1240.34 451.31 C 1237.14 449.69, 1234.99 449.65, 1230.70 449.85 C 1226.42 450.05, 1224.03 450.72, 1218.92 452.31 C 1213.81 453.89, 1210.80 455.12, 1205.13 457.75 C 1199.46 460.39, 1196.29 462.20, 1190.57 465.48 C 1184.85 468.77, 1181.73 470.83, 1176.54 474.17 C 1171.34 477.52, 1168.67 479.48, 1164.59 482.22 C 1160.52 484.96, 1158.18 485.75, 1156.15 487.89 C 1154.12 490.03, 1154.30 491.62, 1154.46 492.92 C 1154.62 494.22, 1155.77 494.98, 1156.94 494.37 C 1158.11 493.77, 1158.71 492.75, 1160.31 489.89 C 1161.91 487.04, 1162.44 484.58, 1164.93 480.11 C 1167.42 475.64, 1169.22 472.93, 1172.76 467.55 C 1176.29 462.17, 1178.46 459.14, 1182.60 453.23 C 1186.73 447.32, 1189.14 444.06, 1193.44 437.99 C 1197.75 431.93, 1200.10 428.63, 1204.13 422.91 C 1208.16 417.18, 1210.20 414.21, 1213.59 409.37 C 1216.98 404.54, 1218.77 402.26, 1221.09 398.72 C 1223.42 395.19, 1224.54 394.01, 1225.21 391.69 C 1225.89 389.37, 1225.37 388.41, 1224.48 387.12 C 1223.60 385.83, 1222.34 385.22, 1220.79 385.23" style="stroke: black; fill: black;"/><path d="M 1339.88,456.97 C 1340.31 455.30, 1339.97 454.02, 1338.68 452.34 C 1337.39 450.65, 1336.17 449.53, 1333.43 448.54 C 1330.68 447.55, 1328.59 447.05, 1324.95 447.39 C 1321.32 447.73, 1319.39 448.74, 1315.25 450.25 C 1311.11 451.76, 1308.79 452.67, 1304.24 454.94 C 1299.69 457.21, 1297.12 458.66, 1292.51 461.60 C 1287.90 464.53, 1285.33 466.29, 1281.19 469.61 C 1277.05 472.94, 1274.95 474.81, 1271.81 478.23 C 1268.66 481.66, 1266.95 483.24, 1265.45 486.74 C 1263.95 490.23, 1263.66 492.39, 1264.30 495.71 C 1264.94 499.02, 1266.07 501.06, 1268.66 503.30 C 1271.24 505.55, 1273.37 506.38, 1277.24 506.93 C 1281.11 507.47, 1283.46 506.92, 1288.01 506.03 C 1292.55 505.14, 1295.06 504.28, 1299.95 502.47 C 1304.84 500.66, 1307.50 499.49, 1312.45 496.99 C 1317.40 494.48, 1320.08 492.93, 1324.69 489.95 C 1329.30 486.97, 1331.61 485.15, 1335.52 482.09 C 1339.44 479.03, 1341.54 477.57, 1344.27 474.65 C 1346.99 471.73, 1348.70 470.05, 1349.14 467.51 C 1349.58 464.97, 1348.37 463.08, 1346.45 461.94 C 1344.54 460.81, 1342.11 460.56, 1339.57 461.82 C 1337.04 463.09, 1335.96 465.09, 1333.77 468.26 C 1331.59 471.43, 1330.57 473.92, 1328.65 477.69 C 1326.72 481.46, 1325.57 483.54, 1324.15 487.13 C 1322.72 490.72, 1321.88 492.39, 1321.53 495.64 C 1321.19 498.88, 1321.50 500.58, 1322.43 503.34 C 1323.36 506.09, 1324.38 507.69, 1326.19 509.41 C 1327.99 511.13, 1329.56 511.77, 1331.44 511.94 C 1333.31 512.10, 1334.58 511.46, 1335.55 510.24 C 1336.51 509.02, 1336.47 507.25, 1336.26 505.84 C 1336.05 504.43, 1335.23 503.94, 1334.51 503.20 C 1333.79 502.45, 1333.38 502.62, 1332.68 502.12 C 1331.98 501.61, 1331.24 501.65, 1331.00 500.65 C 1330.76 499.66, 1331.01 499.11, 1331.46 497.15 C 1331.91 495.19, 1332.02 493.73, 1333.24 490.86 C 1334.47 487.99, 1335.54 485.99, 1337.59 482.81 C 1339.64 479.64, 1341.56 477.80, 1343.51 474.98 C 1345.46 472.17, 1346.79 470.94, 1347.34 468.73 C 1347.89 466.53, 1347.24 465.01, 1346.25 463.96 C 1345.26 462.92, 1344.03 462.50, 1342.37 463.51 C 1340.71 464.52, 1340.23 466.35, 1337.96 469.01 C 1335.70 471.67, 1334.41 473.70, 1331.05 476.80 C 1327.68 479.89, 1325.44 481.66, 1321.14 484.50 C 1316.83 487.34, 1314.24 488.81, 1309.54 491.00 C 1304.84 493.20, 1302.20 494.17, 1297.65 495.46 C 1293.10 496.75, 1290.61 497.16, 1286.79 497.45 C 1282.96 497.75, 1281.11 497.24, 1278.54 496.95 C 1275.97 496.65, 1275.18 496.50, 1273.93 495.98 C 1272.67 495.46, 1272.39 495.51, 1272.27 494.36 C 1272.16 493.21, 1272.31 492.48, 1273.35 490.23 C 1274.39 487.97, 1275.01 486.15, 1277.45 483.09 C 1279.89 480.03, 1281.79 478.04, 1285.53 474.93 C 1289.27 471.81, 1291.78 470.11, 1296.15 467.51 C 1300.52 464.91, 1303.07 463.62, 1307.37 461.93 C 1311.66 460.25, 1314.07 459.64, 1317.63 459.08 C 1321.18 458.52, 1322.72 458.87, 1325.14 459.12 C 1327.55 459.37, 1328.15 459.95, 1329.72 460.32 C 1331.29 460.69, 1331.62 460.89, 1332.98 460.96 C 1334.34 461.03, 1335.15 461.46, 1336.53 460.66 C 1337.91 459.86, 1339.46 458.63, 1339.88 456.97" style="stroke: black; fill: black;"/><path d="M 1390.32,470.21 C 1388.66 470.12, 1387.74 470.62, 1386.05 471.99 C 1384.36 473.36, 1383.49 474.43, 1381.87 477.05 C 1380.26 479.68, 1379.67 481.92, 1378.00 485.12 C 1376.33 488.32, 1375.25 490.22, 1373.51 493.07 C 1371.77 495.92, 1370.25 497.10, 1369.29 499.38 C 1368.33 501.66, 1368.23 502.87, 1368.71 504.46 C 1369.20 506.05, 1370.15 506.88, 1371.72 507.34 C 1373.30 507.81, 1374.91 507.92, 1376.59 506.77 C 1378.28 505.62, 1378.78 504.33, 1380.13 501.61 C 1381.49 498.89, 1381.52 496.63, 1383.35 493.19 C 1385.17 489.75, 1386.48 487.78, 1389.26 484.40 C 1392.05 481.03, 1393.88 479.26, 1397.28 476.31 C 1400.69 473.36, 1402.72 471.89, 1406.31 469.66 C 1409.89 467.43, 1411.85 466.47, 1415.21 465.16 C 1418.58 463.84, 1420.30 463.50, 1423.13 463.08 C 1425.96 462.66, 1427.13 462.92, 1429.37 463.06 C 1431.61 463.20, 1432.62 463.68, 1434.32 463.78 C 1436.01 463.88, 1436.61 463.75, 1437.85 463.54 C 1439.09 463.33, 1439.65 463.46, 1440.52 462.73 C 1441.38 462.00, 1442.14 461.09, 1442.18 459.88 C 1442.23 458.66, 1441.86 457.87, 1440.75 456.67 C 1439.63 455.47, 1438.85 454.68, 1436.60 453.86 C 1434.35 453.05, 1432.60 452.54, 1429.50 452.61 C 1426.40 452.68, 1424.60 453.19, 1421.09 454.22 C 1417.58 455.26, 1415.73 455.97, 1411.97 457.80 C 1408.20 459.62, 1406.16 460.78, 1402.26 463.35 C 1398.37 465.92, 1396.27 467.50, 1392.48 470.63 C 1388.70 473.77, 1386.76 475.61, 1383.36 479.01 C 1379.95 482.41, 1378.36 484.38, 1375.46 487.64 C 1372.57 490.89, 1370.69 492.38, 1368.89 495.28 C 1367.08 498.17, 1366.37 499.72, 1366.43 502.11 C 1366.49 504.49, 1367.66 505.93, 1369.19 507.22 C 1370.73 508.50, 1372.15 508.86, 1374.10 508.52 C 1376.04 508.18, 1377.17 507.48, 1378.91 505.52 C 1380.66 503.56, 1381.07 501.65, 1382.83 498.71 C 1384.59 495.77, 1385.70 493.89, 1387.71 490.82 C 1389.72 487.76, 1391.40 486.13, 1392.88 483.37 C 1394.37 480.62, 1394.82 479.23, 1395.11 477.03 C 1395.41 474.84, 1395.31 473.78, 1394.35 472.42 C 1393.39 471.05, 1391.98 470.30, 1390.32 470.21" style="stroke: black; fill: black;"/><path d="M 1479.01,461.81 C 1477.43 461.78, 1476.63 462.12, 1475.07 463.53 C 1473.50 464.94, 1472.85 466.05, 1471.18 468.85 C 1469.51 471.64, 1468.76 473.90, 1466.71 477.51 C 1464.65 481.11, 1463.32 483.34, 1460.90 486.89 C 1458.49 490.44, 1456.84 492.26, 1454.63 495.27 C 1452.42 498.29, 1450.66 499.46, 1449.86 501.95 C 1449.06 504.45, 1449.91 506.42, 1450.64 507.76 C 1451.38 509.09, 1453.03 508.73, 1453.54 508.61 C 1454.05 508.49, 1453.12 507.18, 1453.20 507.16 C 1453.28 507.15, 1452.88 508.52, 1453.93 508.52 C 1454.97 508.52, 1456.74 508.75, 1458.43 507.16 C 1460.12 505.57, 1460.42 503.61, 1462.36 500.56 C 1464.30 497.50, 1465.64 495.42, 1468.13 491.89 C 1470.62 488.35, 1472.21 486.27, 1474.80 482.88 C 1477.39 479.49, 1479.25 477.87, 1481.10 474.95 C 1482.94 472.03, 1483.64 470.55, 1484.02 468.29 C 1484.40 466.03, 1484.01 464.94, 1483.00 463.64 C 1482.00 462.35, 1480.60 461.83, 1479.01 461.81" style="stroke: black; fill: black;"/><path d="M 1488.23,472.36 C 1490.23 472.17, 1491.56 470.23, 1494.05 468.21 C 1496.54 466.19, 1497.83 464.39, 1500.68 462.28 C 1503.54 460.17, 1505.59 458.86, 1508.32 457.68 C 1511.04 456.50, 1512.32 456.67, 1514.30 456.39 C 1516.28 456.10, 1517.11 455.97, 1518.22 456.25 C 1519.32 456.54, 1519.53 456.79, 1519.80 457.83 C 1520.08 458.87, 1519.73 459.48, 1519.59 461.46 C 1519.46 463.44, 1519.64 464.81, 1519.12 467.75 C 1518.61 470.68, 1518.15 472.71, 1517.02 476.12 C 1515.89 479.53, 1514.98 481.51, 1513.47 484.79 C 1511.96 488.07, 1510.32 489.56, 1509.46 492.53 C 1508.61 495.49, 1508.49 497.15, 1509.20 499.60 C 1509.91 502.05, 1510.86 503.45, 1513.01 504.77 C 1515.15 506.10, 1517.12 506.99, 1519.94 506.21 C 1522.75 505.44, 1523.85 503.62, 1527.07 500.89 C 1530.29 498.16, 1531.98 496.02, 1536.05 492.58 C 1540.12 489.13, 1542.67 487.04, 1547.42 483.67 C 1552.16 480.30, 1554.98 478.40, 1559.75 475.71 C 1564.53 473.02, 1567.18 471.74, 1571.29 470.21 C 1575.39 468.68, 1577.52 468.56, 1580.27 468.06 C 1583.03 467.57, 1583.92 467.57, 1585.08 467.72 C 1586.24 467.87, 1586.16 467.88, 1586.08 468.82 C 1586.00 469.77, 1585.20 470.38, 1584.70 472.47 C 1584.20 474.55, 1584.33 476.14, 1583.58 479.26 C 1582.83 482.39, 1582.15 484.47, 1580.94 488.09 C 1579.73 491.72, 1578.85 493.78, 1577.53 497.39 C 1576.21 500.99, 1575.16 502.82, 1574.33 506.11 C 1573.51 509.41, 1573.37 511.15, 1573.40 513.85 C 1573.42 516.56, 1573.88 517.78, 1574.46 519.64 C 1575.04 521.51, 1575.43 522.18, 1576.29 523.17 C 1577.16 524.15, 1577.93 524.37, 1578.79 524.58 C 1579.64 524.78, 1579.97 524.63, 1580.57 524.18 C 1581.18 523.74, 1581.42 522.94, 1581.81 522.35 C 1582.20 521.76, 1582.25 521.68, 1582.53 521.24 C 1582.82 520.80, 1583.06 520.76, 1583.23 520.15 C 1583.40 519.54, 1583.31 519.36, 1583.38 518.17 C 1583.45 516.97, 1583.41 516.14, 1583.59 514.19 C 1583.77 512.24, 1583.70 511.15, 1584.27 508.42 C 1584.84 505.69, 1585.30 503.93, 1586.45 500.53 C 1587.60 497.14, 1588.53 495.10, 1590.01 491.45 C 1591.49 487.79, 1592.64 485.90, 1593.86 482.27 C 1595.08 478.64, 1596.22 476.68, 1596.12 473.30 C 1596.02 469.91, 1595.12 467.93, 1593.35 465.34 C 1591.58 462.76, 1590.20 461.46, 1587.28 460.39 C 1584.37 459.32, 1582.51 459.28, 1578.78 459.98 C 1575.05 460.68, 1573.06 461.84, 1568.63 463.90 C 1564.20 465.96, 1561.61 467.39, 1556.64 470.27 C 1551.67 473.16, 1548.82 475.09, 1543.80 478.33 C 1538.77 481.58, 1536.04 483.57, 1531.53 486.49 C 1527.02 489.42, 1524.57 490.87, 1521.24 492.96 C 1517.91 495.05, 1516.23 495.45, 1514.88 496.95 C 1513.53 498.44, 1514.08 499.69, 1514.50 500.42 C 1514.91 501.15, 1515.83 501.38, 1516.95 500.59 C 1518.07 499.80, 1518.96 498.88, 1520.10 496.48 C 1521.24 494.08, 1521.39 491.98, 1522.64 488.57 C 1523.89 485.17, 1524.94 483.15, 1526.35 479.44 C 1527.75 475.74, 1528.72 473.74, 1529.66 470.05 C 1530.59 466.36, 1531.38 464.38, 1531.02 460.98 C 1530.66 457.58, 1529.72 455.66, 1527.85 453.07 C 1525.98 450.48, 1524.53 449.42, 1521.67 448.04 C 1518.81 446.66, 1517.02 446.06, 1513.55 446.17 C 1510.07 446.29, 1508.03 446.93, 1504.30 448.61 C 1500.56 450.29, 1498.32 451.97, 1494.89 454.59 C 1491.46 457.21, 1489.32 458.80, 1487.16 461.72 C 1485.00 464.64, 1483.86 467.05, 1484.08 469.18 C 1484.29 471.31, 1486.24 472.56, 1488.23 472.36" style="stroke: black; fill: black;"/></svg>