<?xml version="1.0" encoding="UTF-8"?><svg id="Layer_1" xmlns="http://www.w3.org/2000/svg" viewBox="0 0 1113.56 371.85"><defs><style>.cls-1{fill:#1d1d1b;}</style></defs><path class="cls-1" d="M291,12H34.55c-11.59,0-20.98,9.39-20.98,20.98V217.14c0,82.4,66.8,149.19,149.19,149.19s149.19-66.8,149.19-149.19l.03-184.16c0-11.59-9.39-20.98-20.98-20.98ZM123.19,189.43c-37.34,0-67.6-30.27-67.6-67.6S85.86,54.23,123.19,54.23s67.6,30.27,67.6,67.6-30.27,67.6-67.6,67.6Z"/><g><polygon class="cls-1" points="378.17 164.36 404.04 164.36 404.04 54.89 436.06 54.89 436.06 31.99 345.69 31.99 345.69 54.89 378.17 54.89 378.17 164.36"/><path class="cls-1" d="M742.61,164.84c35.18,0,63.81-29.8,63.81-66.42s-28.63-66.42-63.81-66.42-63.81,29.8-63.81,66.42,28.63,66.42,63.81,66.42Zm0-107.05c20.96,0,38.02,18.23,38.02,40.63s-17.05,40.63-38.02,40.63-38.02-18.23-38.02-40.63,17.05-40.63,38.02-40.63Z"/><g><rect class="cls-1" x="564.41" y="228" width="24.95" height="95.18"/><path class="cls-1" d="M576.89,190.61c-8.34,0-15.12,6.78-15.12,15.12s6.78,15.11,15.12,15.11,15.11-6.78,15.11-15.11-6.78-15.12-15.11-15.12Z"/></g><g><rect class="cls-1" x="924.54" y="228" width="24.95" height="95.18"/><path class="cls-1" d="M937.02,190.61c-8.34,0-15.12,6.78-15.12,15.12s6.78,15.11,15.12,15.11,15.11-6.78,15.11-15.11-6.78-15.12-15.11-15.12Z"/></g><path class="cls-1" d="M870.43,249.8c1.82-1.44,4.41-2.16,7.71-2.16,4.22,0,8.08,1.15,11.47,3.41,3.37,2.25,5.81,5.31,7.25,9.09l.59,1.58,19.5-9.17-.5-1.34c-2.89-7.74-7.81-13.83-14.64-18.12-6.78-4.25-14.69-6.41-23.5-6.41-6.75,0-12.83,1.23-18.08,3.64-5.29,2.45-9.49,5.91-12.47,10.29-3,4.41-4.52,9.62-4.52,15.47,0,6.58,2.12,12.37,6.3,17.19,4.12,4.77,10.24,8.35,18.18,10.66l14.82,4.16c1.79,.53,3.46,1.19,4.98,1.97,1.42,.73,2.54,1.61,3.34,2.6,.71,.88,1.07,2.04,1.07,3.44,0,2.43-.92,4.26-2.89,5.77-2.04,1.56-4.92,2.35-8.56,2.35-4.77,0-9.15-1.37-13.04-4.06-3.91-2.71-7.02-6.53-9.23-11.37l-.66-1.44-19.02,9.12,.45,1.3c2.77,8.2,7.94,14.78,15.39,19.57,7.39,4.76,16.18,7.17,26.1,7.17,7.09,0,13.36-1.23,18.66-3.64,5.35-2.45,9.6-5.9,12.64-10.28,3.06-4.41,4.61-9.57,4.61-15.31,0-6.81-2.18-12.66-6.49-17.39-4.23-4.63-10.28-8.15-17.96-10.45l-14.48-4.33c-2.05-.65-3.86-1.35-5.38-2.08-1.37-.66-2.44-1.51-3.17-2.51-.69-.94-1.03-2.09-1.03-3.42,0-2.21,.82-3.89,2.58-5.28Z"/><path class="cls-1" d="M521.76,84.95c-3-5.37-7.25-9.61-12.61-12.61-5.35-3-11.56-4.51-18.45-4.51s-12.59,1.49-17.62,4.44c-2.18,1.28-4.33,3.27-6.05,5.37V31.99h-24.05V164.32h24.08v-54.57c0-3.87,.75-8.19,2.25-10.95,1.48-2.75,3.57-4.92,6.21-6.45,2.65-1.53,5.72-2.31,9.12-2.31s6.6,.78,9.2,2.31c2.59,1.53,4.65,3.71,6.13,6.46,1.49,2.76,2.24,6.12,2.24,9.99v55.53h24.08v-60.76c0-7-1.52-13.27-4.51-18.62Z"/><path class="cls-1" d="M439.83,269.31c0,16.2-13.18,29.38-29.37,29.38s-29.37-13.18-29.37-29.38v-78.69h-25.82v78.69c0,30.44,24.76,55.2,55.2,55.2s55.2-24.76,55.2-55.2v-78.69h-25.82v78.69Z"/><path class="cls-1" d="M625.67,118.94c.34-2.41,.35-3.65,.35-5.24,0-6.28-1.04-12.21-3.1-17.65-2.06-5.44-5.08-10.34-8.97-14.58-3.9-4.24-8.7-7.62-14.26-10.03-5.56-2.41-12.08-3.62-19.38-3.62-8.69,0-16.67,2.15-23.71,6.39-7.04,4.23-12.66,10.06-16.72,17.32-4.06,7.26-6.11,15.68-6.11,25.03s2.03,17.36,6.02,24.77c4.01,7.44,9.69,13.42,16.9,17.76,7.21,4.35,15.72,6.55,25.32,6.55,6.38,0,12.31-.99,17.64-2.93,5.32-1.95,10-4.68,13.9-8.12,3.92-3.46,6.85-7.5,8.7-12.01l.36-.87-19.57-9.61-.47,.83c-1.93,3.43-4.62,6.2-8,8.24-3.36,2.03-7.53,3.06-12.38,3.06s-9.19-1.14-12.89-3.39c-3.69-2.25-6.51-5.47-8.38-9.59-1.01-2.22-1.7-4.66-2.04-7.27h65.54s.7-1.01,1.27-5.04Zm-57.13-27.59c3.42-2.19,7.38-3.3,11.77-3.3s8.58,1.13,11.83,3.36c3.24,2.23,5.61,5.31,7.05,9.14,.53,1.42,.9,2.95,1.1,4.55h-40.85c.34-1.45,.78-2.82,1.3-4.09,1.77-4.23,4.39-7.48,7.8-9.66Z"/><path class="cls-1" d="M1008.37,118.94c.34-2.41,.35-3.65,.35-5.24,0-6.28-1.04-12.21-3.1-17.65-2.06-5.44-5.08-10.34-8.97-14.58-3.9-4.24-8.7-7.62-14.26-10.03-5.56-2.41-12.08-3.62-19.38-3.62-8.69,0-16.67,2.15-23.71,6.39-7.04,4.23-12.66,10.06-16.72,17.32-4.06,7.26-6.11,15.68-6.11,25.03s2.03,17.36,6.02,24.77c4.01,7.44,9.69,13.42,16.9,17.76,7.21,4.35,15.72,6.55,25.32,6.55,6.38,0,12.31-.99,17.64-2.93,5.32-1.95,10-4.68,13.9-8.12,3.92-3.46,6.85-7.5,8.7-12.01l.36-.87-19.57-9.61-.47,.83c-1.93,3.43-4.62,6.2-8,8.24-3.36,2.03-7.53,3.06-12.38,3.06s-9.19-1.14-12.89-3.39c-3.69-2.25-6.51-5.47-8.38-9.59-1.01-2.22-1.7-4.66-2.04-7.27h65.54s.7-1.01,1.27-5.04Zm-57.13-27.59c3.42-2.19,7.38-3.3,11.77-3.3s8.58,1.13,11.83,3.36c3.24,2.23,5.61,5.31,7.05,9.14,.53,1.42,.9,2.95,1.1,4.55h-40.85c.34-1.45,.78-2.82,1.3-4.09,1.77-4.23,4.39-7.48,7.8-9.66Z"/><path class="cls-1" d="M774.32,277.8c.34-2.41,.35-3.65,.35-5.24,0-6.28-1.04-12.21-3.1-17.65-2.06-5.44-5.08-10.34-8.97-14.58-3.9-4.24-8.7-7.62-14.26-10.03-5.56-2.41-12.08-3.62-19.38-3.62-8.69,0-16.67,2.15-23.71,6.39-7.04,4.23-12.66,10.06-16.72,17.32-4.06,7.26-6.11,15.68-6.11,25.03s2.03,17.36,6.02,24.77c4.01,7.44,9.69,13.42,16.9,17.76,7.21,4.35,15.72,6.55,25.32,6.55,6.38,0,12.31-.99,17.64-2.93,5.32-1.95,10-4.68,13.9-8.12,3.92-3.46,6.85-7.5,8.7-12.01l.36-.87-19.57-9.61-.47,.83c-1.93,3.43-4.62,6.2-8,8.24-3.36,2.03-7.53,3.06-12.38,3.06s-9.19-1.14-12.89-3.39c-3.69-2.25-6.51-5.47-8.38-9.59-1.01-2.22-1.7-4.66-2.04-7.27h65.54s.7-1.01,1.27-5.04Zm-57.13-27.59c3.42-2.19,7.38-3.3,11.77-3.3s8.58,1.13,11.83,3.36c3.24,2.23,5.61,5.31,7.05,9.14,.53,1.42,.9,2.95,1.1,4.55h-40.85c.34-1.45,.78-2.82,1.3-4.09,1.77-4.23,4.39-7.48,7.8-9.66Z"/><path class="cls-1" d="M1003.12,302.37c-3.57,0-6.53-.56-8.78-1.66-2.18-1.06-3.8-2.62-4.81-4.64-1.04-2.07-1.57-4.63-1.57-7.62v-40.82h15.07v-19.62h-15.07v-22.79h-23.4v22.79h-7.53v19.62h7.52v42.05c0,10.98,1.54,19.63,7.61,25.69,6.06,6.07,14.71,9.14,25.69,9.14,1.79,0,3.78-.12,5.89-.36,2.12-.23,4-.47,5.64-.71l.85-.12v-21.59l-4.34,.47c-1.07,.11-2,.17-2.79,.17Z"/><path class="cls-1" d="M688.76,228h-27.14l-18.16,56.17c-.44,1.35-.74,2.73-.92,4.14l-.39,3.11-.39-3.11c-.18-1.4-.49-2.79-.92-4.14l-18.16-56.17h-27.14l35.77,95.18h21.71l35.76-95.18Z"/><path class="cls-1" d="M1073.81,228l-19.26,56.17c-.44,1.35-.74,2.73-.92,4.14l-.39,3.11-.39-3.11c-.18-1.4-.49-2.79-.92-4.14l-17.06-56.17h-24.59l24.66,87.98c1.28,4.58,2.78,6.5,5.88,7.19l-15.51,40.89h25.74l49.92-136.07h-27.14Z"/><path class="cls-1" d="M1037.71,75.86c-1.43-4.41-4.66-6.72-9.7-6.72h-14.03v95.16h24.08v-55.49c0-3.87,.75-7.24,2.25-9.99,1.48-2.75,3.57-4.92,6.21-6.45,2.65-1.53,5.72-2.31,9.12-2.31s6.6,.78,9.2,2.31c2.59,1.53,4.65,3.71,6.13,6.46,1.49,2.76,2.24,6.12,2.24,9.99v55.49h24.08v-60.72c0-7-1.52-13.27-4.51-18.62-3-5.37-7.25-9.61-12.61-12.61-5.35-3-11.56-4.51-18.45-4.51s-12.59,1.49-17.62,4.44c-2.26,1.33-4.32,3.05-6.03,4.94,0,0-.17-.78-.35-1.35Z"/><path class="cls-1" d="M864.89,67.82c-9.82,0-20.46,2.6-27.53,9.39,0,0-.17-.78-.35-1.35-1.43-4.41-4.66-6.72-9.7-6.72h-14.03V205.21h24.08v-48.86l.06,.05c2.33,2.03,4.94,3.74,7.79,5.09,5.68,2.69,11.97,4.06,18.71,4.06,9.02,0,17.18-2.18,24.28-6.46,7.08-4.28,12.75-10.22,16.87-17.64,4.11-7.43,6.19-15.75,6.19-24.75s-2.11-17.45-6.28-24.76c-8.41-14.63-22.86-24.11-40.07-24.11Zm18.67,62.72c-2.09,3.97-5.05,7.12-8.81,9.38-3.76,2.25-8.12,3.4-12.96,3.4s-8.84-1.14-12.54-3.39c-3.7-2.25-6.64-5.41-8.73-9.38-2.1-3.99-3.17-8.65-3.17-13.85s1.07-9.73,3.17-13.77c2.09-4.03,5.03-7.21,8.73-9.46,3.7-2.25,7.91-3.39,12.54-3.39s9.2,1.17,12.95,3.47c3.76,2.32,6.73,5.48,8.82,9.39,2.1,3.94,3.17,8.56,3.17,13.76s-1.07,9.86-3.17,13.85Z"/><path class="cls-1" d="M497.04,234.74c-1.43-4.41-4.66-6.72-9.7-6.72h-14.03v95.16h24.08v-55.49c0-3.87,.75-7.24,2.25-9.99,1.48-2.75,3.57-4.92,6.21-6.45,2.65-1.53,5.72-2.31,9.12-2.31s6.6,.78,9.2,2.31c2.59,1.53,4.65,3.71,6.13,6.46,1.49,2.76,2.24,6.12,2.24,9.99v55.49h24.08v-60.72c0-7-1.52-13.27-4.51-18.62-3-5.37-7.25-9.61-12.61-12.61-5.35-3-11.56-4.51-18.45-4.51s-12.59,1.49-17.62,4.44c-2.26,1.33-4.32,3.05-6.03,4.94,0,0-.17-.78-.35-1.35Z"/><path class="cls-1" d="M806.5,236.09s-.17-.78-.35-1.35c-1.43-4.41-4.66-6.72-9.7-6.72h-14.03v95.16h24.08v-52.2c0-8.15,4.02-13.67,6.55-16.23,3.66-3.72,9.18-5.76,15.08-5.76s9.23,1.1,9.23,1.1v-22.31s-2.29-1.08-6.6-1.1c-4.92,0-8.66,.35-13.08,1.93-4.42,1.58-8.2,4.62-11.18,7.48Z"/></g></svg>