<?xml version="1.0" encoding="UTF-8"?><svg id="Layer_1" xmlns="http://www.w3.org/2000/svg" viewBox="0 0 131.73 49.58"><defs><style>.cls-1{fill:#fff;}</style></defs><path class="cls-1" d="M35.04,4.38H6.31c-1.3,0-2.35,1.05-2.35,2.35V27.35c0,9.23,7.48,16.71,16.71,16.71s16.71-7.48,16.71-16.71V6.73c0-1.3-1.05-2.35-2.35-2.35ZM16.24,24.25c-4.18,0-7.57-3.39-7.57-7.57s3.39-7.57,7.57-7.57,7.57,3.39,7.57,7.57-3.39,7.57-7.57,7.57Z"/><g><polygon class="cls-1" points="44.8 21.44 47.7 21.44 47.7 9.18 51.28 9.18 51.28 6.61 41.16 6.61 41.16 9.18 44.8 9.18 44.8 21.44"/><path class="cls-1" d="M85.62,21.49c3.94,0,7.15-3.34,7.15-7.44s-3.21-7.44-7.15-7.44-7.15,3.34-7.15,7.44,3.21,7.44,7.15,7.44Zm0-11.99c2.35,0,4.26,2.04,4.26,4.55s-1.91,4.55-4.26,4.55-4.26-2.04-4.26-4.55,1.91-4.55,4.26-4.55Z"/><g><rect class="cls-1" x="65.66" y="28.57" width="2.79" height="10.66"/><path class="cls-1" d="M67.06,24.38c-.93,0-1.69,.76-1.69,1.69s.76,1.69,1.69,1.69,1.69-.76,1.69-1.69-.76-1.69-1.69-1.69Z"/></g><g><rect class="cls-1" x="105.99" y="28.57" width="2.79" height="10.66"/><path class="cls-1" d="M107.39,24.38c-.93,0-1.69,.76-1.69,1.69s.76,1.69,1.69,1.69,1.69-.76,1.69-1.69-.76-1.69-1.69-1.69Z"/></g><path class="cls-1" d="M99.93,31.01c.2-.16,.49-.24,.86-.24,.47,0,.9,.13,1.29,.38,.38,.25,.65,.59,.81,1.02l.07,.18,2.18-1.03-.06-.15c-.32-.87-.88-1.55-1.64-2.03-.76-.48-1.65-.72-2.63-.72-.76,0-1.44,.14-2.02,.41-.59,.27-1.06,.66-1.4,1.15-.34,.49-.51,1.08-.51,1.73,0,.74,.24,1.39,.71,1.93,.46,.53,1.15,.93,2.04,1.19l1.66,.47c.2,.06,.39,.13,.56,.22,.16,.08,.28,.18,.37,.29,.08,.1,.12,.23,.12,.39,0,.27-.1,.48-.32,.65-.23,.17-.55,.26-.96,.26-.53,0-1.03-.15-1.46-.45-.44-.3-.79-.73-1.03-1.27l-.07-.16-2.13,1.02,.05,.15c.31,.92,.89,1.66,1.72,2.19,.83,.53,1.81,.8,2.92,.8,.79,0,1.5-.14,2.09-.41,.6-.27,1.08-.66,1.42-1.15,.34-.49,.52-1.07,.52-1.71,0-.76-.24-1.42-.73-1.95-.47-.52-1.15-.91-2.01-1.17l-1.62-.48c-.23-.07-.43-.15-.6-.23-.15-.07-.27-.17-.36-.28-.08-.11-.12-.23-.12-.38,0-.25,.09-.44,.29-.59Z"/><path class="cls-1" d="M60.88,12.55c-.34-.6-.81-1.08-1.41-1.41-.6-.34-1.29-.51-2.07-.51s-1.41,.17-1.97,.5c-.24,.14-.48,.37-.68,.6V6.61h-2.69v14.82h2.7v-6.11c0-.43,.08-.92,.25-1.23,.17-.31,.4-.55,.7-.72,.3-.17,.64-.26,1.02-.26s.74,.09,1.03,.26c.29,.17,.52,.42,.69,.72,.17,.31,.25,.69,.25,1.12v6.22h2.7v-6.8c0-.78-.17-1.49-.51-2.09Z"/><path class="cls-1" d="M51.71,33.19c0,1.81-1.48,3.29-3.29,3.29s-3.29-1.48-3.29-3.29v-8.81h-2.89v8.81c0,3.41,2.77,6.18,6.18,6.18s6.18-2.77,6.18-6.18v-8.81h-2.89v8.81Z"/><path class="cls-1" d="M72.52,16.35c.04-.27,.04-.41,.04-.59,0-.7-.12-1.37-.35-1.98-.23-.61-.57-1.16-1-1.63-.44-.48-.97-.85-1.6-1.12-.62-.27-1.35-.41-2.17-.41-.97,0-1.87,.24-2.66,.72-.79,.47-1.42,1.13-1.87,1.94-.45,.81-.68,1.76-.68,2.8s.23,1.94,.67,2.77c.45,.83,1.09,1.5,1.89,1.99,.81,.49,1.76,.73,2.84,.73,.71,0,1.38-.11,1.98-.33,.6-.22,1.12-.52,1.56-.91,.44-.39,.77-.84,.97-1.34l.04-.1-2.19-1.08-.05,.09c-.22,.38-.52,.69-.9,.92-.38,.23-.84,.34-1.39,.34s-1.03-.13-1.44-.38c-.41-.25-.73-.61-.94-1.07-.11-.25-.19-.52-.23-.81h7.34s.08-.11,.14-.56Zm-6.4-3.09c.38-.25,.83-.37,1.32-.37s.96,.13,1.33,.38c.36,.25,.63,.59,.79,1.02,.06,.16,.1,.33,.12,.51h-4.58c.04-.16,.09-.32,.15-.46,.2-.47,.49-.84,.87-1.08Z"/><path class="cls-1" d="M115.38,16.35c.04-.27,.04-.41,.04-.59,0-.7-.12-1.37-.35-1.98-.23-.61-.57-1.16-1-1.63-.44-.48-.97-.85-1.6-1.12-.62-.27-1.35-.41-2.17-.41-.97,0-1.87,.24-2.66,.72-.79,.47-1.42,1.13-1.87,1.94-.45,.81-.68,1.76-.68,2.8s.23,1.94,.67,2.77c.45,.83,1.09,1.5,1.89,1.99,.81,.49,1.76,.73,2.84,.73,.71,0,1.38-.11,1.98-.33,.6-.22,1.12-.52,1.56-.91,.44-.39,.77-.84,.97-1.34l.04-.1-2.19-1.08-.05,.09c-.22,.38-.52,.69-.9,.92-.38,.23-.84,.34-1.39,.34s-1.03-.13-1.44-.38c-.41-.25-.73-.61-.94-1.07-.11-.25-.19-.52-.23-.81h7.34s.08-.11,.14-.56Zm-6.4-3.09c.38-.25,.83-.37,1.32-.37s.96,.13,1.33,.38c.36,.25,.63,.59,.79,1.02,.06,.16,.1,.33,.12,.51h-4.58c.04-.16,.09-.32,.15-.46,.2-.47,.49-.84,.87-1.08Z"/><path class="cls-1" d="M89.17,34.15c.04-.27,.04-.41,.04-.59,0-.7-.12-1.37-.35-1.98-.23-.61-.57-1.16-1-1.63-.44-.48-.97-.85-1.6-1.12-.62-.27-1.35-.41-2.17-.41-.97,0-1.87,.24-2.66,.72-.79,.47-1.42,1.13-1.87,1.94-.45,.81-.68,1.76-.68,2.8s.23,1.94,.67,2.77c.45,.83,1.09,1.5,1.89,1.99,.81,.49,1.76,.73,2.84,.73,.71,0,1.38-.11,1.98-.33,.6-.22,1.12-.52,1.56-.91,.44-.39,.77-.84,.97-1.34l.04-.1-2.19-1.08-.05,.09c-.22,.38-.52,.69-.9,.92-.38,.23-.84,.34-1.39,.34s-1.03-.13-1.44-.38c-.41-.25-.73-.61-.94-1.07-.11-.25-.19-.52-.23-.81h7.34s.08-.11,.14-.56Zm-6.4-3.09c.38-.25,.83-.37,1.32-.37s.96,.13,1.33,.38c.36,.25,.63,.59,.79,1.02,.06,.16,.1,.33,.12,.51h-4.58c.04-.16,.09-.32,.15-.46,.2-.47,.49-.84,.87-1.08Z"/><path class="cls-1" d="M114.79,36.9c-.4,0-.73-.06-.98-.19-.24-.12-.43-.29-.54-.52-.12-.23-.18-.52-.18-.85v-4.57h1.69v-2.2h-1.69v-2.55h-2.62v2.55h-.84v2.2h.84v4.71c0,1.23,.17,2.2,.85,2.88,.68,.68,1.65,1.02,2.88,1.02,.2,0,.42-.01,.66-.04,.24-.03,.45-.05,.63-.08h.09v-2.43l-.49,.05c-.12,.01-.22,.02-.31,.02Z"/><path class="cls-1" d="M79.59,28.57h-3.04l-2.03,6.29c-.05,.15-.08,.31-.1,.46l-.04,.35-.04-.35c-.02-.16-.05-.31-.1-.46l-2.03-6.29h-3.04l4.01,10.66h2.43l4.01-10.66Z"/><path class="cls-1" d="M122.71,28.57l-2.16,6.29c-.05,.15-.08,.31-.1,.46l-.04,.35-.04-.35c-.02-.16-.05-.31-.1-.46l-1.91-6.29h-2.75l2.76,9.85c.14,.51,.31,.73,.66,.81l-1.74,4.58h2.88l5.59-15.24h-3.04Z"/><path class="cls-1" d="M118.67,11.53c-.16-.49-.52-.75-1.09-.75h-1.57v10.66h2.7v-6.22c0-.43,.08-.81,.25-1.12,.17-.31,.4-.55,.7-.72,.3-.17,.64-.26,1.02-.26s.74,.09,1.03,.26c.29,.17,.52,.42,.69,.72,.17,.31,.25,.69,.25,1.12v6.22h2.7v-6.8c0-.78-.17-1.49-.51-2.09-.34-.6-.81-1.08-1.41-1.41-.6-.34-1.29-.51-2.07-.51s-1.41,.17-1.97,.5c-.25,.15-.48,.34-.67,.55,0,0-.02-.09-.04-.15Z"/><path class="cls-1" d="M99.31,10.63c-1.1,0-2.29,.29-3.08,1.05,0,0-.02-.09-.04-.15-.16-.49-.52-.75-1.09-.75h-1.57v15.24h2.7v-5.47h0c.26,.23,.55,.42,.87,.58,.64,.3,1.34,.45,2.1,.45,1.01,0,1.92-.24,2.72-.72,.79-.48,1.43-1.14,1.89-1.98,.46-.83,.69-1.76,.69-2.77s-.24-1.95-.7-2.77c-.94-1.64-2.56-2.7-4.49-2.7Zm2.09,7.02c-.23,.44-.57,.8-.99,1.05-.42,.25-.91,.38-1.45,.38s-.99-.13-1.4-.38c-.41-.25-.74-.61-.98-1.05-.24-.45-.36-.97-.36-1.55s.12-1.09,.36-1.54c.23-.45,.56-.81,.98-1.06,.41-.25,.89-.38,1.4-.38s1.03,.13,1.45,.39c.42,.26,.75,.61,.99,1.05,.24,.44,.36,.96,.36,1.54s-.12,1.1-.36,1.55Z"/><path class="cls-1" d="M58.11,29.32c-.16-.49-.52-.75-1.09-.75h-1.57v10.66h2.7v-6.22c0-.43,.08-.81,.25-1.12,.17-.31,.4-.55,.7-.72,.3-.17,.64-.26,1.02-.26s.74,.09,1.03,.26c.29,.17,.52,.42,.69,.72,.17,.31,.25,.69,.25,1.12v6.22h2.7v-6.8c0-.78-.17-1.49-.51-2.09-.34-.6-.81-1.08-1.41-1.41-.6-.34-1.29-.51-2.07-.51s-1.41,.17-1.97,.5c-.25,.15-.48,.34-.67,.55,0,0-.02-.09-.04-.15Z"/><path class="cls-1" d="M92.77,29.47s-.02-.09-.04-.15c-.16-.49-.52-.75-1.09-.75h-1.57v10.66h2.7v-5.84h0c0-.92,.45-1.54,.73-1.83,.41-.42,1.03-.65,1.69-.65s1.03,.12,1.03,.12v-2.5s-.26-.12-.74-.12c-.55,0-.97,.04-1.47,.22s-.92,.52-1.25,.84Z"/></g></svg>