<?xml version="1.0" encoding="iso-8859-1"?>
<!-- Generator: Adobe Illustrator 19.0.0, SVG Export Plug-In . SVG Version: 6.00 Build 0)  -->
<svg version="1.1" id="Layer_1" xmlns="http://www.w3.org/2000/svg" xmlns:xlink="http://www.w3.org/1999/xlink" x="0px" y="0px"
	 viewBox="0 0 512 512" style="enable-background:new 0 0 512 512;" xml:space="preserve">
<polyline style="fill:#FFB92E;" points="420.104,473.577 402.858,443.238 343.045,443.238 342.882,443.238 341.323,443.238 
	319.955,443.238 318.397,443.238 313.393,443.238 283.068,443.238 281.511,443.238 260.142,443.238 258.584,443.238 258.42,443.238 
	253.58,443.238 253.416,443.238 251.858,443.238 230.489,443.238 228.932,443.238 198.608,443.238 193.603,443.238 192.045,443.238 
	170.677,443.238 169.118,443.238 168.955,443.238 109.141,443.238 91.895,473.577 "/>
<path style="fill:#EF9A1D;" d="M125.234,484.628c-1.191-1.833-1.378-4.147-0.493-6.146l14.861-33.551
	c1.036-2.34,3.353-3.848,5.912-3.848h-24.792c-2.559,0-4.876,1.508-5.912,3.848L99.95,478.482c-0.885,2-0.698,4.313,0.493,6.146
	c1.193,1.833,3.234,2.94,5.421,2.94h24.792C128.468,487.567,126.427,486.461,125.234,484.628z"/>
<g>
	<path style="fill:#F28838;" d="M329.571,473.577H102.793h-81.2c-7.461,0-13.509,6.048-13.509,13.509v3.32
		c0,7.461,6.048,13.509,13.509,13.509h81.2h306.413h81.2c7.461,0,13.509-6.048,13.509-13.509v-3.32
		c0-7.461-6.048-13.509-13.509-13.509h-81.2h-51.614"/>
	<path style="fill:#F28838;" d="M338.005,8.084h-12.61h-138.79h-81.201c-7.461,0-13.509,6.048-13.509,13.509v3.32
		c0,7.461,6.048,13.509,13.509,13.509h81.201h138.79h81.2c7.461,0,13.509-6.048,13.509-13.509v-3.32
		c0-7.461-6.048-13.509-13.509-13.509h-41.646"/>
</g>
<g>
	<circle style="fill:#FFB92E;" cx="256" cy="132.43" r="33.846"/>
	<circle style="fill:#FFB92E;" cx="256" cy="349.292" r="33.846"/>
</g>
<g>
	<path style="fill:#CCC3A8;" d="M289.092,125.328L392.37,38.424h-50.224l-74.118,62.368
		C278.631,104.825,286.68,114.029,289.092,125.328z"/>
	<path style="fill:#CCC3A8;" d="M268.076,380.914l74.07,62.324h0.736h0.164h49.326l-103.266-86.892
		C286.709,367.65,278.671,376.863,268.076,380.914z"/>
	<path style="fill:#CCC3A8;" d="M243.396,317.884l-91.57-77.051l91.522-77.011c-10.497-4.236-18.381-13.577-20.573-24.95
		l-106.471,89.59c-3.651,3.073-5.758,7.6-5.758,12.371c0,4.772,2.107,9.3,5.758,12.372l106.48,89.598
		C224.993,331.434,232.891,322.103,243.396,317.884z"/>
	<path style="fill:#CCC3A8;" d="M222.895,356.346l-103.266,86.892h49.326h0.164h0.736l74.069-62.324
		C233.329,376.863,225.291,367.649,222.895,356.346z"/>
	<path style="fill:#CCC3A8;" d="M243.972,100.792l-74.118-62.368h-50.225l103.276,86.905
		C225.32,114.029,233.369,104.825,243.972,100.792z"/>
	<path style="fill:#CCC3A8;" d="M395.696,228.461l-106.47-89.589c-2.191,11.373-10.076,20.714-20.574,24.949l91.522,77.011
		l-91.569,77.051c10.505,4.219,18.402,13.549,20.613,24.917l106.479-89.597c3.652-3.072,5.759-7.6,5.759-12.372
		C401.454,236.061,399.347,231.534,395.696,228.461z"/>
</g>
<g>
	<path style="fill:#EA6428;" d="M122.312,24.913v-3.32c0-7.461,6.048-13.509,13.509-13.509h-22.343
		c-7.461,0-13.509,6.048-13.509,13.509v3.32c0,7.461,6.048,13.509,13.509,13.509h22.343
		C128.36,38.424,122.312,32.375,122.312,24.913z"/>
	<path style="fill:#EA6428;" d="M38.501,490.407v-3.32c0-7.461,6.048-13.509,13.509-13.509H29.668
		c-7.461,0-13.509,6.048-13.509,13.509v3.32c0,7.461,6.048,13.509,13.509,13.509h22.343
		C44.549,503.916,38.501,497.868,38.501,490.407z"/>
</g>
<g>
	<circle style="fill:#231F20;" cx="256" cy="349.292" r="10.057"/>
	<circle style="fill:#231F20;" cx="256" cy="132.43" r="10.056"/>
	<path style="fill:#231F20;" d="M490.407,465.493h-65.599l-14.921-26.249c-1.437-2.529-4.121-4.09-7.029-4.09h-7.539l-97.566-82.097
		c0.111-1.241,0.178-2.493,0.178-3.762c0-1.061-0.053-2.109-0.13-3.151l103.1-86.753c4.329-3.641,7.194-8.619,8.216-14.078
		c0.004-0.023,0.009-0.044,0.013-0.067c0.138-0.749,0.24-1.507,0.307-2.272c0.002-0.03,0.01-0.059,0.012-0.089
		c0.003-0.036,0.001-0.07,0.004-0.106c0.052-0.645,0.086-1.292,0.086-1.945c0-0.072-0.005-0.144-0.006-0.218
		c-0.001-0.14-0.009-0.278-0.011-0.417c-0.016-0.603-0.05-1.203-0.11-1.798c-0.025-0.26-0.06-0.517-0.094-0.776
		c-0.058-0.435-0.127-0.868-0.208-1.298c-0.074-0.399-0.16-0.793-0.254-1.188c-0.088-0.366-0.182-0.732-0.288-1.093
		c-0.097-0.333-0.196-0.665-0.308-0.994c-0.151-0.445-0.315-0.886-0.491-1.322c-0.134-0.33-0.276-0.655-0.424-0.98
		c-0.157-0.343-0.324-0.681-0.497-1.016c-0.198-0.385-0.406-0.764-0.626-1.138c-0.178-0.305-0.364-0.605-0.556-0.902
		c-0.246-0.38-0.502-0.755-0.771-1.123c-0.206-0.283-0.418-0.563-0.638-0.838c-0.143-0.18-0.268-0.37-0.416-0.546
		c-0.193-0.23-0.406-0.432-0.607-0.653c-0.172-0.19-0.345-0.379-0.524-0.565c-0.8-0.831-1.643-1.607-2.54-2.307l-102.368-86.138
		c0.075-1.023,0.126-2.053,0.126-3.096c0-1.288-0.068-2.561-0.181-3.821l97.57-82.101h11.276c11.906,0,21.593-9.687,21.593-21.593
		v-3.32C428.188,9.687,418.501,0,406.595,0h-41.646c-4.466,0-8.084,3.62-8.084,8.084c0,4.466,3.618,8.084,8.084,8.084h41.646
		c2.991,0,5.425,2.434,5.425,5.425v3.32c0,2.991-2.434,5.425-5.425,5.425h-14.224h-50.226H169.854h-50.225h-14.225
		c-2.991,0-5.425-2.434-5.425-5.425v-3.32c0-2.991,2.434-5.425,5.425-5.425h232.601c4.466,0,8.084-3.618,8.084-8.084
		c0-4.465-3.618-8.084-8.084-8.084H105.404C93.498,0,83.811,9.687,83.811,21.593v3.32c0,11.906,9.687,21.593,21.593,21.593h11.277
		l97.57,82.103c-0.114,1.259-0.181,2.531-0.181,3.819c0,1.042,0.052,2.072,0.126,3.095L111.805,221.68
		c-0.205,0.16-0.398,0.336-0.598,0.503l-0.11,0.093c-0.096,0.081-0.184,0.166-0.279,0.248c-0.499,0.434-0.984,0.886-1.452,1.367
		c-0.247,0.252-0.485,0.511-0.719,0.772c-0.16,0.179-0.333,0.34-0.488,0.525c-0.134,0.158-0.244,0.329-0.372,0.49
		c-0.273,0.341-0.536,0.687-0.789,1.04c-0.211,0.295-0.415,0.593-0.611,0.895c-0.257,0.395-0.501,0.797-0.735,1.205
		c-0.127,0.224-0.259,0.446-0.378,0.673c-0.269,0.509-0.514,1.029-0.746,1.555c-0.087,0.199-0.177,0.397-0.259,0.597
		c-0.235,0.575-0.444,1.159-0.635,1.75c-0.051,0.16-0.1,0.318-0.148,0.479c-0.192,0.64-0.359,1.289-0.497,1.947
		c-0.017,0.082-0.031,0.164-0.047,0.246c-0.31,1.556-0.48,3.151-0.48,4.769c0,7.174,3.149,13.939,8.637,18.557L214.2,346.145
		c-0.078,1.041-0.13,2.089-0.13,3.15c0,1.269,0.067,2.521,0.178,3.762l-97.566,82.097h-7.54c-2.907,0-5.592,1.561-7.029,4.09
		l-14.922,26.25H21.593C9.687,465.493,0,475.18,0,487.087v3.32C0,502.313,9.687,512,21.593,512h468.813
		c11.906,0,21.593-9.687,21.593-21.593v-3.32C512,475.18,502.313,465.493,490.407,465.493z M173.898,291.102
		c-0.114-0.108-0.224-0.22-0.346-0.322L121.51,246.99c-1.02-0.858-1.793-1.929-2.281-3.129c-0.012-0.031-0.025-0.063-0.038-0.094
		c-0.082-0.208-0.154-0.419-0.218-0.635c-0.016-0.054-0.03-0.108-0.045-0.162c-0.055-0.2-0.103-0.403-0.144-0.608
		c-0.015-0.077-0.026-0.155-0.039-0.232c-0.03-0.185-0.058-0.372-0.075-0.561c-0.012-0.136-0.017-0.273-0.023-0.41
		c-0.005-0.13-0.015-0.261-0.014-0.391c0.018-2.368,1.063-4.597,2.876-6.124l0.39-0.328c2.939-2.183,7.101-2.157,10.02,0.299
		l14.384,12.104c0.106,0.099,0.205,0.204,0.317,0.298l82.893,69.751c-4.23,3.433-7.738,7.653-10.338,12.432L173.898,291.102z
		 M390.49,234.647c1.814,1.526,2.859,3.755,2.877,6.124c0,0.129-0.009,0.261-0.014,0.391c-0.005,0.136-0.011,0.273-0.023,0.407
		c-0.018,0.191-0.045,0.379-0.077,0.567c-0.012,0.074-0.023,0.15-0.037,0.224c-0.041,0.209-0.089,0.415-0.147,0.618
		c-0.014,0.051-0.027,0.1-0.042,0.15c-0.066,0.219-0.139,0.434-0.222,0.647c-0.011,0.027-0.022,0.053-0.032,0.08
		c-0.488,1.203-1.263,2.277-2.285,3.137l-52.042,43.789c-0.124,0.105-0.236,0.218-0.352,0.328l-45.272,38.093
		c-2.6-4.779-6.108-8.999-10.338-12.431l82.892-69.751c0.109-0.092,0.205-0.193,0.308-0.29l14.394-12.111
		c1.652-1.389,3.749-2.063,5.898-1.868c1.51,0.13,2.916,0.675,4.104,1.554L390.49,234.647z M266.966,372.599
		c-0.192,0.091-0.386,0.177-0.58,0.263c-0.301,0.133-0.604,0.26-0.91,0.38c-2.935,1.166-6.131,1.814-9.477,1.814
		c-3.339,0-6.529-0.646-9.46-1.807c-0.329-0.13-0.655-0.267-0.978-0.411c-0.142-0.064-0.285-0.127-0.426-0.193
		c-0.388-0.181-0.772-0.371-1.148-0.571c-0.046-0.025-0.094-0.047-0.14-0.072c-5.631-3.036-10.007-8.139-12.144-14.151
		c-0.03-0.085-0.057-0.17-0.086-0.255c-0.128-0.375-0.247-0.753-0.359-1.134c-0.04-0.136-0.079-0.272-0.116-0.409
		c-0.107-0.391-0.204-0.786-0.291-1.182c-0.398-1.797-0.614-3.661-0.614-5.576c0-1.701,0.17-3.362,0.486-4.971
		c0.101-0.522,0.219-1.038,0.351-1.548c0.015-0.056,0.032-0.111,0.047-0.167c0.106-0.396,0.222-0.787,0.346-1.175
		c0.072-0.224,0.148-0.445,0.226-0.666c0.067-0.193,0.137-0.384,0.209-0.573c0.113-0.301,0.229-0.6,0.354-0.896
		c0.011-0.025,0.022-0.05,0.032-0.074c2.111-4.95,5.728-9.108,10.272-11.898c0.095-0.057,0.19-0.114,0.286-0.17
		c0.273-0.163,0.547-0.322,0.826-0.475c0.391-0.212,0.786-0.419,1.19-0.612c0.078-0.038,0.157-0.07,0.236-0.107
		c0.389-0.181,0.783-0.355,1.182-0.518c3.001-1.228,6.282-1.91,9.719-1.91s6.717,0.682,9.719,1.91
		c0.401,0.164,0.796,0.337,1.185,0.52c0.078,0.037,0.156,0.069,0.233,0.106c0.404,0.193,0.8,0.401,1.19,0.613
		c0.278,0.152,0.552,0.312,0.824,0.474c0.096,0.057,0.193,0.114,0.289,0.172c4.548,2.792,8.166,6.953,10.276,11.909
		c0.009,0.019,0.017,0.039,0.026,0.059c0.126,0.299,0.243,0.602,0.358,0.905c0.069,0.185,0.138,0.372,0.204,0.559
		c0.08,0.225,0.157,0.452,0.231,0.68c0.121,0.379,0.235,0.762,0.338,1.149c0.017,0.064,0.038,0.126,0.054,0.191
		c0.132,0.508,0.249,1.022,0.35,1.542c0.317,1.61,0.486,3.272,0.486,4.974c0,1.921-0.218,3.792-0.619,5.594
		c-0.083,0.377-0.176,0.751-0.275,1.122c-0.054,0.199-0.111,0.397-0.169,0.594c-0.07,0.237-0.146,0.473-0.221,0.707
		c-0.086,0.264-0.172,0.527-0.267,0.787c-0.025,0.068-0.053,0.135-0.078,0.204c-2.281,6.09-6.805,11.089-12.56,13.996
		C267.372,372.4,267.171,372.502,266.966,372.599z M369.67,222.247l-9.515,8.006l-77.634-65.326
		c4.226-3.437,7.731-7.661,10.325-12.443l80.144,67.437C371.835,220.604,370.717,221.365,369.67,222.247z M269.213,154.532
		c-0.295,0.177-0.593,0.349-0.895,0.515c-0.248,0.135-0.501,0.263-0.755,0.39c-0.241,0.122-0.484,0.24-0.731,0.355
		c-0.343,0.158-0.689,0.314-1.041,0.458c-3.021,1.246-6.327,1.938-9.793,1.938c-3.47,0-6.78-0.693-9.803-1.942
		c-0.336-0.138-0.665-0.287-0.994-0.438c-0.298-0.138-0.591-0.281-0.882-0.43c-0.212-0.108-0.425-0.215-0.633-0.327
		c-0.31-0.169-0.617-0.347-0.919-0.529c-0.06-0.037-0.122-0.072-0.182-0.11c-4.544-2.782-8.164-6.934-10.281-11.876
		c-0.019-0.044-0.04-0.088-0.058-0.134c-0.122-0.289-0.235-0.583-0.347-0.877c-0.075-0.203-0.15-0.405-0.221-0.61
		c-0.074-0.211-0.147-0.423-0.216-0.636c-0.303-0.954-0.557-1.928-0.75-2.926c-0.31-1.595-0.477-3.24-0.477-4.925
		c0-1.904,0.213-3.759,0.608-5.546c0.095-0.43,0.2-0.857,0.317-1.281c0.03-0.109,0.061-0.217,0.093-0.326
		c0.124-0.426,0.257-0.847,0.401-1.264c0.016-0.045,0.03-0.092,0.046-0.137c2.137-6.022,6.524-11.13,12.164-14.166
		c0.065-0.034,0.13-0.067,0.196-0.1c0.36-0.19,0.725-0.371,1.096-0.543c0.143-0.067,0.288-0.132,0.432-0.196
		c0.324-0.144,0.652-0.28,0.983-0.411c2.921-1.153,6.099-1.794,9.425-1.794c3.326,0,6.505,0.64,9.426,1.794
		c0.33,0.13,0.658,0.266,0.981,0.411c0.146,0.065,0.29,0.129,0.434,0.196c0.369,0.172,0.734,0.352,1.093,0.541
		c0.066,0.034,0.134,0.067,0.198,0.101c5.643,3.038,10.032,8.15,12.168,14.178c0.011,0.03,0.02,0.061,0.031,0.092
		c0.152,0.435,0.291,0.875,0.419,1.319c0.027,0.094,0.054,0.188,0.08,0.281c0.124,0.447,0.236,0.898,0.335,1.354
		c0.386,1.771,0.595,3.608,0.595,5.494c0,1.685-0.168,3.332-0.479,4.927c-0.192,0.995-0.446,1.968-0.748,2.919
		c-0.07,0.22-0.146,0.437-0.222,0.653c-0.069,0.198-0.14,0.395-0.213,0.591c-0.113,0.3-0.229,0.598-0.352,0.891
		c-0.015,0.038-0.032,0.074-0.049,0.111c-2.115,4.945-5.733,9.1-10.279,11.886C269.352,154.45,269.283,154.491,269.213,154.532z
		 M256,90.499c-3.519,0-6.936,0.441-10.204,1.262l-53.778-45.253h127.965l-53.778,45.253C262.936,90.94,259.519,90.499,256,90.499z
		 M229.478,164.927l-77.634,65.326l-9.515-8.006c-1.055-0.888-2.175-1.644-3.325-2.322l80.149-67.442
		C221.749,157.264,225.253,161.488,229.478,164.927z M194.729,266.368c-0.117-0.112-0.232-0.226-0.358-0.333l-29.972-25.22
		l80.7-67.905c3.478,0.938,7.13,1.445,10.901,1.445s7.422-0.508,10.9-1.445l80.7,67.905l-29.971,25.218
		c-0.124,0.103-0.235,0.217-0.35,0.327l-50.428,42.433c-3.462-0.928-7.098-1.431-10.849-1.431c-3.751,0-7.387,0.502-10.849,1.431
		L194.729,266.368z M256,391.224c3.539,0,6.974-0.445,10.259-1.274l53.722,45.204H192.018l53.722-45.204
		C249.025,390.779,252.461,391.224,256,391.224z M282.09,382.141c4.271-3.381,7.831-7.557,10.489-12.306l77.628,65.319h-25.114
		L282.09,382.141z M370.207,46.508l-77.652,65.34c-2.665-4.745-6.228-8.919-10.501-12.293l63.039-53.046H370.207z M166.906,46.508
		l63.039,53.046c-4.273,3.376-7.837,7.549-10.501,12.296l-77.65-65.342H166.906z M219.419,369.834
		c2.659,4.749,6.218,8.925,10.488,12.306l-63.002,53.013h-25.113L219.419,369.834z M495.832,490.407
		c0,2.991-2.434,5.425-5.425,5.425H21.593c-2.991,0-5.425-2.434-5.425-5.425v-3.32c0-2.991,2.434-5.425,5.425-5.425h70.126
		c0.015,0,0.03,0,0.045,0h237.806c4.466,0,8.084-3.618,8.084-8.084c0-4.466-3.618-8.084-8.084-8.084H105.789l8.055-14.17h5.785
		h50.226h172.291h50.226h5.784l8.055,14.17h-48.617c-4.466,0-8.084,3.618-8.084,8.084c0,4.466,3.618,8.084,8.084,8.084h62.503
		c0.005,0,0.011,0.001,0.016,0.001s0.011-0.001,0.016-0.001h70.278c2.991,0,5.425,2.434,5.425,5.425v3.32H495.832z"/>
</g>
<g>
</g>
<g>
</g>
<g>
</g>
<g>
</g>
<g>
</g>
<g>
</g>
<g>
</g>
<g>
</g>
<g>
</g>
<g>
</g>
<g>
</g>
<g>
</g>
<g>
</g>
<g>
</g>
<g>
</g>
</svg>
