<?xml version="1.0" encoding="UTF-8" standalone="no"?>
<!-- Uploaded to: SVG Repo, www.svgrepo.com, Generator: SVG Repo Mixer Tools -->

<svg
   xmlns:dc="http://purl.org/dc/elements/1.1/"
   xmlns:cc="http://creativecommons.org/ns#"
   xmlns:rdf="http://www.w3.org/1999/02/22-rdf-syntax-ns#"
   xmlns:svg="http://www.w3.org/2000/svg"
   xmlns="http://www.w3.org/2000/svg"
   xmlns:sodipodi="http://sodipodi.sourceforge.net/DTD/sodipodi-0.dtd"
   xmlns:inkscape="http://www.inkscape.org/namespaces/inkscape"
   fill="#000000"
   height="800px"
   width="800px"
   version="1.2"
   id="Layer_1"
   viewBox="-67 69 120 120"
   xml:space="preserve"
   sodipodi:docname="global-community-population-overpopulation-svgrepo-com.svg"
   inkscape:version="0.92.3 (2405546, 2018-03-11)"><metadata
   id="metadata9"><rdf:RDF><cc:Work
       rdf:about=""><dc:format>image/svg+xml</dc:format><dc:type
         rdf:resource="http://purl.org/dc/dcmitype/StillImage" /></cc:Work></rdf:RDF></metadata><defs
   id="defs7" /><sodipodi:namedview
   pagecolor="#ffffff"
   bordercolor="#666666"
   borderopacity="1"
   objecttolerance="10"
   gridtolerance="10"
   guidetolerance="10"
   inkscape:pageopacity="0"
   inkscape:pageshadow="2"
   inkscape:window-width="1920"
   inkscape:window-height="1009"
   id="namedview5"
   showgrid="false"
   inkscape:zoom="0.1475"
   inkscape:cx="-2791.8679"
   inkscape:cy="1480.9318"
   inkscape:window-x="-8"
   inkscape:window-y="-8"
   inkscape:window-maximized="1"
   inkscape:current-layer="Layer_1" />
<g
   id="g1480"><g
     id="g1444"><g
       id="g1409"><g
         id="g1375"><g
           id="g1342"><g
             id="g1310"><g
               id="g1279"><g
                 id="g1249"><g
                   id="g1220"><g
                     id="g1192"><g
                       id="g1165"><g
                         id="g1139"><g
                           id="g1114"><g
                             id="g1090"><g
                               id="g1067"><g
                                 id="g1045"><g
                                   id="g1024"><g
                                   id="g1004"><g
                                   id="g985"><g
                                   id="g967"><g
                                   id="g950"><g
                                   id="g934"><g
                                   id="g919"><g
                                   id="g905"><g
                                   id="g892"><g
                                   id="g880"><g
                                   id="g869"><g
                                   id="g859"><g
                                   id="g850"><g
                                   id="g842"><g
                                   id="g835"><g
                                   id="g829"><g
                                   id="g824"><g
                                   id="g820"><path
                                   inkscape:connector-curvature="0"
                                   d="M -8.2,113 C 3.1,113 12.3,103.8 12.3,92.5 12.3,81.2 3.1,72 -8.2,72 c -11.3,0 -20.5,9.2 -20.5,20.5 0,11.3 9.2,20.5 20.5,20.5 z M -23,81.7 c 0.5,-0.3 0.9,-0.9 1.8,-0.7 0,0.2 0.1,0.4 0.1,0.5 0.4,-0.1 0.6,-0.4 0.7,-0.9 0.6,0.6 0,1.6 -0.2,2.1 2.1,0.3 1.4,-1.2 1.6,-2.4 0.2,-1.1 2.1,-1.6 1.8,-2.9 -0.6,-0.1 -1.2,0 -1.7,0.3 0,-0.1 0,-0.2 0,-0.2 0.7,-0.5 1.3,-0.9 2,-1.3 1.2,0 1.4,1.1 0.2,1.5 -0.4,1.4 1.2,0.6 1.6,0.4 0.5,-0.2 0.4,-0.3 1.1,-0.4 0.5,-0.1 1,0.1 1.5,-0.2 -0.5,1.5 -2.3,1.5 -3.1,2.6 -1.2,1.7 1.8,1.2 2.8,0.4 0.6,-0.5 0.8,-1.3 1.3,-1.7 0.7,-0.5 1.6,-0.1 1.8,-1 0,-0.2 -0.6,-1.4 -0.6,-1.6 -0.4,-0.9 -0.8,-0.7 0,-1.7 -0.2,0 -0.4,0 -0.6,0 0,-0.1 0,-0.2 0,-0.2 1,-0.2 2,-0.3 3,-0.3 0.9,0 1.9,0.1 2.8,0.2 0.7,0.4 1.2,1.1 1.8,1.7 1.8,1.8 -0.9,1.2 -0.7,2.5 0.1,0.7 1,0.4 0.4,1.5 -0.4,0.6 -1.2,0.7 -1.1,1.5 -1.4,0.2 -2.3,-0.9 -3.7,-0.4 -0.7,0.3 -1.5,0.7 -1.6,1.4 -0.2,1.2 0.7,1.1 1.4,1.6 0.6,0.5 0.5,0.5 0.4,1.6 -0.2,0.9 -0.1,1.3 -1,1.7 -0.4,0.2 -1,0.1 -1.4,0.3 -0.1,0.1 -0.2,0.6 -0.4,0.8 -0.5,0.4 -2,0.2 -1.6,1.3 0.5,0.1 0.9,-0.2 1.4,-0.2 1.1,0 0.5,0.2 1.2,0.7 0.8,0.6 1.9,0.7 2.8,1.1 0.5,0.2 0.8,0.5 1.3,0.5 0.2,0.9 -0.6,1.1 -1.3,1.3 -1.1,0.3 -1.4,0.2 -2,-0.7 -0.8,-1.2 -0.9,-0.8 -2.4,-1 -0.6,0 -2.3,-0.2 -2.7,-0.7 -0.5,-0.6 0.1,-1.5 0.6,-1.9 0.9,-0.6 1.1,-0.5 1.6,-1.3 0.6,-0.9 0.6,-0.6 1.5,-1 0.7,-0.3 1.3,-0.8 1.3,-1.7 -0.5,-0.1 -0.7,-0.5 -0.7,-1 l -0.9,-0.3 c 0.1,0.4 1.2,3.3 -0.4,2.5 -0.6,-0.3 0,-3.1 -1.7,-2.6 0.1,0.8 -0.2,0.9 -0.8,1.4 -0.8,0.7 -0.9,0 -0.6,1.1 0.2,0.7 0.7,0.6 0.4,1.5 -0.2,0.6 -1,0.6 -0.2,1.4 -0.4,0.1 -0.8,0 -1.1,-0.1 -0.9,0.9 -0.4,1.2 -0.8,2.4 -0.4,1.2 -2,1.6 -2.8,2.5 -1.4,1.5 -1.8,5.4 0.2,6.5 1.6,0.9 3.2,0 4.7,0.6 1.1,0.4 1.4,1 1.5,2 0.2,1.2 1.2,1.8 1.3,3.2 0.1,1.2 0,1.9 0.8,2.8 0.4,0.4 1.2,1.2 1.7,1.4 0.9,0.4 1.2,0 2,-0.4 0.3,-0.1 0.7,-0.2 1,-0.3 0.7,-0.4 0.4,-0.1 0.8,-0.7 0.4,-0.5 0.5,-1.2 1.1,-1.8 0.7,-0.7 0.9,-0.9 1.2,-1.8 0.3,-0.7 0.3,-1.4 0.6,-2.1 0.3,-0.7 1,-1.3 1.4,-1.9 0.4,-0.6 0.5,-1.5 1.1,-2 -0.6,0 -1.8,0.3 -2.4,0.1 -0.7,-0.2 -0.9,-1 -1.3,-1.6 -0.8,-1 -2.1,-2.6 -2.1,-4 0.5,-0.1 2,2.6 2.3,3.1 1.1,1.6 1.8,1.1 3.1,0.5 0.7,-0.3 3.4,-1.9 2.3,-2.8 -0.7,-0.6 -3.7,1 -3.4,-0.8 1.2,0 2.6,-0.1 3.8,-0.4 0.6,-0.1 1.1,-0.5 1.6,-0.4 0.1,0 0.4,0.5 0.5,0.6 0.3,0.1 0.9,0 1.2,0 0.1,0.9 1.2,3.3 2.3,3 0.1,-1.9 0,-3.6 0.5,-5.4 0.5,-0.1 0.9,0 1.4,0 0,0.5 0,0.9 0,1.4 0,10.2 -8.3,18.5 -18.4,18.5 -10.1,0 -18.4,-8.3 -18.4,-18.4 -0.1,-4 1.2,-7.8 3.5,-10.8 z m 38.7,54 c 0,-4.4 3.6,-8 8,-8 4.4,0 8,3.6 8,8 0,4.4 -3.6,8 -8,8 -4.4,0 -8,-3.6 -8,-8 z m -1.8,27.9 c -4.4,0 -8,-3.6 -8,-8 0,-4.4 3.6,-8 8,-8 4.4,0 8,3.6 8,8 0,4.4 -3.6,8 -8,8 z M 10,175.3 v 13.9 H 3.9 v -12.3 c 0,-0.5 -0.4,-1 -1,-1 -0.5,0 -1,0.4 -1,1 v 12.3 h -19.8 v -12.3 c 0,-0.6 -0.4,-1 -1,-1 -0.5,0 -1,0.4 -1,1 v 12.3 H -26 v -14 c 0,-5.7 3.4,-10.2 8.9,-10.2 h 9 9 c 5.8,0.1 9.2,4.6 9.1,10.3 z M 3.3,143.7 c -4.4,0 -8,-3.6 -8,-8 0,-4.4 3.6,-8 8,-8 4.4,0 8,3.6 8,8 0,4.4 -3.5,8 -8,8 z m 31.6,3.9 c 4.4,0 8,3.6 8,8 0,4.4 -3.6,8 -8,8 -4.4,0 -8,-3.6 -8,-8 0,-4.4 3.5,-8 8,-8 z M 53,175.3 v 13.9 h -6.1 v -12.3 c 0,-0.5 -0.4,-1 -1,-1 -0.5,0 -1,0.4 -1,1 v 12.3 H 25.2 v -12.3 c 0,-0.6 -0.4,-1 -1,-1 -0.5,0 -1,0.4 -1,1 v 12.3 h -6.1 v -14 c 0,-5.7 3.4,-10.2 8.9,-10.2 v 0 h 9 9 c 5.6,0 9.1,4.5 9,10.3 z M -57,155.6 c 0,-4.4 3.6,-8 8,-8 4.4,0 8,3.6 8,8 0,4.4 -3.6,8 -8,8 -4.4,0 -8,-3.6 -8,-8 z m 25.8,19.7 v 13.9 h -6.1 v -12.3 c 0,-0.5 -0.4,-1 -1,-1 -0.5,0 -1,0.4 -1,1 v 12.3 H -59 v -12.3 c 0,-0.6 -0.4,-1 -1,-1 -0.5,0 -1,0.4 -1,1 v 12.3 0 h -6 v -14 c 0,-5.7 3.4,-10.2 8.9,-10.2 h 9 9 c 5.5,0 9,4.5 8.9,10.3 z m 15.3,-19.7 c 0,-4.4 3.6,-8 8,-8 4.4,0 8,3.6 8,8 0,4.4 -3.6,8 -8,8 -4.4,0 -8,-3.6 -8,-8 z m -30.9,-19.9 c 0,-4.4 3.6,-8 8,-8 4.4,0 8,3.6 8,8 0,4.4 -3.6,8 -8,8 -4.4,0 -8,-3.6 -8,-8 z m 29.7,8 c -4.4,0 -8,-3.6 -8,-8 0,-4.4 3.6,-8 8,-8 4.4,0 8,3.6 8,8 0,4.4 -3.6,8 -8,8 z m -10.8,19.9 c -4.4,0 -8,-3.6 -8,-8 0,-4.4 3.6,-8 8,-8 4.4,0 8,3.6 8,8 0,4.4 -3.6,8 -8,8 z"
                                   id="path2" /></g></g></g></g></g></g></g></g></g></g></g></g></g></g></g></g></g></g></g></g></g></g></g></g></g></g></g></g></g></g></g></g></g></g>
<path
   style="opacity:1;fill:#502d16;fill-opacity:1;stroke:none;stroke-width:7.68717527;stroke-miterlimit:4;stroke-dasharray:none;stroke-dashoffset:0;stroke-opacity:1"
   d="m 378.58917,625.59725 c -42.26079,-15.07209 -48.70112,-63.7538 -12.02726,-90.91255 13.08079,-9.68695 35.85725,-11.12897 50.38724,-3.19011 18.14689,9.91504 27.11865,25.45199 27.11865,46.96304 0,16.05663 -1.39679,19.67909 -12.19816,31.63492 -7.12242,7.88366 -17.34879,14.93252 -24.57627,16.94001 -14.86803,4.12969 -12.81218,4.23249 -28.7042,-1.43531 z"
   id="path1556"
   inkscape:connector-curvature="0"
   transform="matrix(0.15,0,0,0.15,-67,69)" /><path
   style="opacity:1;fill:#f4d7d7;fill-opacity:1;stroke:none;stroke-width:7.68717527;stroke-miterlimit:4;stroke-dasharray:none;stroke-dashoffset:0;stroke-opacity:1"
   d="m 663.5272,625.70259 c -16.74834,-6.02803 -21.95499,-10.6605 -30.24441,-26.9091 -11.69299,-22.92014 -4.62675,-47.14276 18.87016,-64.68573 12.94892,-9.66777 41.97322,-9.67355 55.22559,-0.011 14.3811,10.48553 25.6068,34.41314 22.96694,48.9541 -6.09322,33.56282 -37.09267,53.35052 -66.81828,42.65174 z"
   id="path1558"
   inkscape:connector-curvature="0"
   transform="matrix(0.15,0,0,0.15,-67,69)" /><path
   style="opacity:1;fill:#ffeeaa;fill-opacity:1;stroke:none;stroke-width:7.68717527;stroke-miterlimit:4;stroke-dasharray:none;stroke-dashoffset:0;stroke-opacity:1"
   d="m 104.20517,625.70259 c -16.748343,-6.02803 -21.954998,-10.6605 -30.244415,-26.9091 -11.692984,-22.92014 -4.62675,-47.14276 18.870157,-64.68573 12.948928,-9.66777 41.973228,-9.67355 55.225598,-0.011 14.3811,10.48553 25.6068,34.41314 22.96694,48.9541 -6.09322,33.56282 -37.09267,53.35052 -66.81828,42.65174 z"
   id="path1560"
   inkscape:connector-curvature="0"
   transform="matrix(0.15,0,0,0.15,-67,69)" /><path
   style="opacity:1;fill:#ffeeaa;fill-opacity:1;stroke:none;stroke-width:7.68717527;stroke-miterlimit:4;stroke-dasharray:none;stroke-dashoffset:0;stroke-opacity:1"
   d="m 441.02241,487.58814 c -23.17095,-15.9444 -30.13778,-43.67131 -16.89398,-67.23546 13.5454,-24.1008 43.13987,-33.441 67.15603,-21.19487 31.67656,16.15227 37.83326,56.35724 12.50825,81.68225 -10.35027,10.35027 -14.51619,12.10426 -31.58654,13.29897 -16.45401,1.15158 -21.54424,0.0822 -31.18376,-6.55089 z"
   id="path1562"
   inkscape:connector-curvature="0"
   transform="matrix(0.15,0,0,0.15,-67,69)" /><path
   style="opacity:1;fill:#f4d7d7;fill-opacity:1;stroke:none;stroke-width:7.68717527;stroke-miterlimit:4;stroke-dasharray:none;stroke-dashoffset:0;stroke-opacity:1"
   d="m 160.37317,487.87456 c -14.75683,-9.45254 -26.21046,-33.67827 -23.58163,-49.87783 5.46239,-33.66074 44.23157,-54.76383 73.14251,-39.8134 14.37937,7.43587 26.43424,23.62816 29.03027,38.99396 3.00013,17.75762 -7.80665,41.12944 -23.50326,50.83048 -14.95242,9.2411 -40.54981,9.17921 -55.08789,-0.13322 z"
   id="path1564"
   inkscape:connector-curvature="0"
   transform="matrix(0.15,0,0,0.15,-67,69)" /><path
   style="opacity:1;fill:#ffe6d5;fill-opacity:1;stroke:none;stroke-width:7.68717527;stroke-miterlimit:4;stroke-dasharray:none;stroke-dashoffset:0;stroke-opacity:1"
   d="m 246.16713,627.03691 c -30.65692,-9.28882 -45.75929,-49.42504 -28.87638,-76.74217 8.25929,-13.36382 28.60639,-24.87101 43.97707,-24.87101 25.58187,0 50.59659,26.37602 50.59659,53.35007 0,30.97831 -35.84216,57.30899 -65.69728,48.26311 z"
   id="path1566"
   inkscape:connector-curvature="0"
   transform="matrix(0.15,0,0,0.15,-67,69)" /><path
   style="opacity:1;fill:#a05a2c;fill-opacity:1;stroke:none;stroke-width:7.68717527;stroke-miterlimit:4;stroke-dasharray:none;stroke-dashoffset:0;stroke-opacity:1"
   d="m 576.02599,486.76887 c -23.10018,-15.69698 -29.65748,-48.50619 -13.93839,-69.74023 22.59187,-30.51809 61.37608,-31.74409 83.0548,-2.62542 17.2738,23.20202 14.38887,48.14902 -7.89633,68.28236 -11.93629,10.78373 -15.64694,12.22967 -31.38419,12.22967 -13.25989,0 -20.92894,-2.09395 -29.83589,-8.14638 z"
   id="path1568"
   inkscape:connector-curvature="0"
   transform="matrix(0.15,0,0,0.15,-67,69)" /><path
   style="opacity:1;fill:#f4eed7;fill-opacity:1;stroke:none;stroke-width:7.68717527;stroke-miterlimit:4;stroke-dasharray:none;stroke-dashoffset:0;stroke-opacity:1"
   d="m 524.35188,625.63649 c -23.15541,-8.3285 -36.21629,-25.59859 -36.21629,-47.88797 0,-25.98703 25.46787,-52.32479 50.59659,-52.32479 15.37068,0 35.71778,11.50719 43.97707,24.87101 24.34295,39.38773 -15.4576,90.77186 -58.35737,75.34175 z"
   id="path1570"
   inkscape:connector-curvature="0"
   transform="matrix(0.15,0,0,0.15,-67,69)" /><path
   style="opacity:1;fill:#00ff00;fill-opacity:1;stroke:none;stroke-width:7.68717527;stroke-miterlimit:4;stroke-dasharray:none;stroke-dashoffset:0;stroke-opacity:1"
   d="m 304.73859,487.22057 c -22.53159,-15.05208 -29.3985,-43.39035 -16.20338,-66.86789 13.56122,-24.12894 43.02731,-33.40468 67.32942,-21.19487 35.05172,17.61059 36.55643,68.31756 2.64093,88.9961 -15.36717,9.36948 -38.95758,8.95997 -53.76697,-0.93334 z"
   id="path1572"
   inkscape:connector-curvature="0"
   transform="matrix(0.15,0,0,0.15,-67,69)" /><path
   style="opacity:1;fill:#00ffff;fill-opacity:1;stroke:none;stroke-width:7.68717527;stroke-miterlimit:4;stroke-dasharray:none;stroke-dashoffset:0;stroke-opacity:1"
   d="m 362.47237,273.33096 c -34.84873,-9.39622 -64.56692,-35.04701 -80.56025,-69.53431 -16.81065,-36.24975 -9.82756,-96.69448 13.62276,-117.916725 6.53682,-5.915745 6.9329,-5.909362 11.38808,0.183465 6.01554,8.226742 15.11094,4.686966 15.11094,-5.880915 0,-10.327577 5.0039,-14.265268 22.0339,-17.339024 l 13.55932,-2.447332 -9.32204,7.336112 c -11.90114,9.365776 -11.82095,13.623701 0.25657,13.623701 5.83423,0 12.6908,-3.312796 17.54004,-8.474576 4.3788,-4.661017 9.98369,-8.474576 12.45531,-8.474576 5.29413,0 5.85788,-8.066476 1.17525,-16.816055 -8.36647,-15.632885 29.10454,-18.569327 41.50716,-3.252739 5.42179,6.695635 5.51881,8.068821 0.92838,13.141182 -3.51281,3.881617 -4.02859,6.761729 -1.63886,9.151459 5.67771,5.677712 -6.4326,13.021115 -21.48173,13.026007 -9.95114,0.0032 -14.47566,1.779451 -17.28089,6.784044 -2.09011,3.728814 -5.10751,7.733285 -6.70533,8.898827 -1.59782,1.165542 -1.81576,5.551485 -0.4843,9.746545 1.64909,5.19579 1.2244,6.88793 -1.33216,5.30789 -2.06415,-1.27571 -3.75299,-4.42756 -3.75299,-7.00411 0,-8.083962 -6.40729,-9.085596 -13.83761,-2.1632 -4.87174,4.53872 -6.44403,8.86809 -4.94073,13.60455 1.50921,4.75513 0.006,8.82978 -4.76258,12.91311 -3.83216,3.2812 -6.96756,8.91197 -6.96756,12.51283 0,3.60086 -6.10169,12.18007 -13.55932,19.06491 -11.5605,10.6726 -13.55932,14.55779 -13.55932,26.3558 0,17.07546 6.81277,24.49166 22.49888,24.49166 21.52593,0 30.5993,10.30948 36.41726,41.37854 1.40977,7.52847 5.88254,15.3414 11.15858,19.49153 7.44728,5.85803 7.82003,6.89125 2.41632,6.69775 -3.51414,-0.12583 -13.36153,-2.10869 -21.88308,-4.40635 z"
   id="path1576"
   inkscape:connector-curvature="0"
   transform="matrix(0.15,0,0,0.15,-67,69)" /><path
   style="opacity:1;fill:#00ffff;fill-opacity:1;stroke:none;stroke-width:7.68717527;stroke-miterlimit:4;stroke-dasharray:none;stroke-dashoffset:0;stroke-opacity:1"
   d="m 403.38983,274.04181 c 9.18943,-3.96109 24.82472,-24.06259 28.86,-37.10384 1.38264,-4.46843 6.27768,-14.60746 10.87787,-22.53119 L 451.49167,200 h -8.59662 c -4.72815,0 -9.53939,-1.52542 -10.69166,-3.38983 -1.15227,-1.86441 0.66449,-3.39553 4.03723,-3.4025 10.31282,-0.0213 28.16616,-12.87372 28.16616,-20.27649 0,-3.75622 -1.90678,-6.98154 -4.23729,-7.16738 -2.33051,-0.18585 -0.42373,-1.44819 4.23729,-2.80521 10.9654,-3.19249 22.01796,1.77661 26.67217,11.99148 6.70017,14.70528 14.0058,10.08984 14.0058,-8.84838 0,-12.8649 1.23492,-16.94915 5.1248,-16.94915 9.63214,0 0.26517,43.26602 -15.15871,70.01801 -17.13033,29.71176 -51.19921,52.44051 -84.88135,56.62783 -12.91771,1.60591 -13.95616,1.33685 -6.77966,-1.75657 z"
   id="path1578"
   inkscape:connector-curvature="0"
   transform="matrix(0.15,0,0,0.15,-67,69)" /><path
   style="opacity:1;fill:#00ffff;fill-opacity:1;stroke:none;stroke-width:0.96089691;stroke-miterlimit:4;stroke-dasharray:none;stroke-dashoffset:0;stroke-opacity:1"
   d="m 389.87527,160.52337 c -0.77794,-0.52437 -2.24138,-2.00212 -3.25209,-3.2839 -3.3975,-4.30869 -4.87318,-5.97317 -5.88122,-6.63366 -0.71382,-0.46772 -3.29195,-0.82525 -8.95525,-1.24191 -16.15919,-1.18887 -21.30031,-3.18628 -21.30031,-8.27552 0,-3.77342 2.75002,-7.65607 7.35717,-10.3873 4.92893,-2.922 5.90567,-3.75517 8.13953,-6.94312 2.90255,-4.14225 3.19861,-4.38619 6.96293,-5.73705 4.31283,-1.5477 6.08709,-2.49173 8.09862,-4.30903 2.02874,-1.83284 3.2626,-4.0941 3.60767,-6.6117 0.24022,-1.7526 0.19073,-1.8622 -1.07823,-2.38783 -1.69527,-0.7022 -2.89901,-2.39404 -3.24563,-4.56168 -0.26399,-1.650916 -0.34925,-1.726263 -2.7893,-2.465049 -1.38433,-0.419144 -2.61969,-0.928273 -2.74523,-1.131398 -0.12554,-0.203126 0.50513,-1.171238 1.40147,-2.15136 0.89635,-0.980122 2.05086,-2.354074 2.56558,-3.053227 l 0.93586,-1.271186 0.015,1.694915 c 0.0248,2.804263 1.16607,4.098908 5.58358,6.334112 6.65173,3.365703 7.38153,4.432383 6.76885,9.893503 -0.58271,5.19403 -1.66055,9.60705 -2.65531,10.87168 -1.53963,1.95732 -4.35654,3.24891 -8.40462,3.85363 -2.08278,0.31114 -4.15155,0.76087 -4.59727,0.99941 -0.44572,0.23855 -1.24208,1.49731 -1.76969,2.79726 -1.09243,2.69157 -1.8692,3.23089 -6.50265,4.51489 -1.63905,0.4542 -3.50753,1.13739 -4.15219,1.5182 -1.46801,0.86718 -2.22127,2.62493 -1.84975,4.31645 0.26303,1.19759 0.42351,1.29878 2.05252,1.29414 0.97195,-0.003 2.81591,-0.28652 4.09769,-0.63056 1.28178,-0.34405 3.43557,-0.6278 4.78621,-0.63057 2.1414,-0.004 2.59213,0.14411 3.52163,1.16023 3.08402,3.3714 3.97912,4.08912 6.71792,5.38661 1.64049,0.77717 5.55155,2.21426 8.69123,3.19352 3.13969,0.97926 7.15743,2.50897 8.92832,3.39935 1.77089,0.89039 3.92133,1.7505 4.77877,1.91135 1.47235,0.27621 1.55897,0.38221 1.55897,1.90771 0,3.12557 -2.65157,5.04005 -9.29677,6.71241 -4.58369,1.15355 -6.32051,1.14211 -8.09402,-0.0533 z"
   id="path1580"
   inkscape:connector-curvature="0"
   transform="matrix(0.15,0,0,0.15,-67,69)" /><path
   style="opacity:1;fill:#00ffff;fill-opacity:1;stroke:none;stroke-width:0.96089691;stroke-miterlimit:4;stroke-dasharray:none;stroke-dashoffset:0;stroke-opacity:1"
   d="m 444.13047,211.85231 c 0,-0.10418 0.6811,-1.80439 1.51357,-3.77825 1.3961,-3.3103 3.11411,-6.1309 4.1721,-6.84969 1.10425,-0.75022 -0.58259,-0.78877 -6.26021,-0.14307 -10.22333,1.16268 -11.97958,0.3813 -16.15873,-7.18929 -0.90054,-1.63136 -3.10419,-4.87288 -4.89699,-7.20339 -6.23172,-8.10078 -9.14959,-13.35323 -10.39051,-18.70394 -0.9838,-4.24207 -0.69996,-4.55265 1.82317,-1.99499 2.46969,2.5035 5.82397,7.38087 10.30111,14.97859 5.76011,9.7749 9.77542,12.37919 15.96219,10.3529 3.71242,-1.2159 13.00346,-6.07331 16.14444,-8.44042 3.41415,-2.57298 4.14946,-2.91843 2.58829,-1.21601 -1.76059,1.9199 -7.26284,5.81638 -10.78847,7.63998 -4.3614,2.2559 -6.75423,3.03882 -10.96433,3.58747 -3.90367,0.50871 -5.33377,1.21623 -5.33377,2.63882 0,1.23376 0.93868,2.09263 3.61718,3.30964 1.83906,0.8356 2.96157,0.976 8.939,1.11803 l 6.83584,0.16243 -3.30519,5.71355 c -3.11618,5.38682 -3.79869,6.46801 -3.79869,6.01764 z"
   id="path1584"
   inkscape:connector-curvature="0"
   transform="matrix(0.15,0,0,0.15,-67,69)" /><path
   style="opacity:1;fill:#00ffff;fill-opacity:1;stroke:none;stroke-width:0.96089691;stroke-miterlimit:4;stroke-dasharray:none;stroke-dashoffset:0;stroke-opacity:1"
   d="m 489.09679,171.23794 c -2.53093,-3.90589 -7.5637,-7.38502 -12.56868,-8.68865 -4.70975,-1.22673 -11.37907,-0.53527 -15.97815,1.65657 -1.91761,0.91391 -2.00127,1.35029 -0.32925,1.71753 0.69285,0.15218 1.74158,0.84933 2.33051,1.54923 1.58846,1.88779 1.35761,2.72572 -0.38733,1.40591 -1.05106,-0.79498 -4.3433,-0.79033 -9.55885,0.0135 -5.89964,0.90924 -9.79595,0.83952 -11.11611,-0.19892 -1.09054,-0.85782 -1.76225,-2.89958 -1.32703,-4.03373 0.19477,-0.50756 1.06115,-0.64023 4.18087,-0.64023 8.39773,0 19.3082,-1.66082 25.39846,-3.86622 1.85075,-0.67019 4.07937,-1.21853 4.95249,-1.21853 1.3976,0 1.75232,0.22953 2.96555,1.91893 1.6175,2.25232 2.38783,2.51236 6.51746,2.20004 l 3.08862,-0.23359 0.26525,1.76494 c 0.14589,0.97071 0.9236,3.27869 1.72826,5.12884 0.80466,1.85014 1.40388,3.42303 1.3316,3.49531 -0.0723,0.0723 -0.74442,-0.81463 -1.49367,-1.97091 z"
   id="path1586"
   inkscape:connector-curvature="0"
   transform="matrix(0.15,0,0,0.15,-67,69)" /><path
   style="opacity:1;fill:#00ffff;fill-opacity:1;stroke:none;stroke-width:0.96089691;stroke-miterlimit:4;stroke-dasharray:none;stroke-dashoffset:0;stroke-opacity:1"
   d="m 383.77009,278.79048 c -58.08833,-4.15661 -105.96133,-50.17651 -112.74452,-108.38031 -0.80195,-6.8812 -0.9315,-22.75466 -0.23373,-28.6368 2.24876,-18.95656 8.27274,-35.53888 18.47172,-50.847463 2.87715,-4.318572 4.52596,-6.357944 6.06154,-7.497357 3.46707,-2.572596 5.14998,-3.307727 7.57227,-3.307727 2.19344,0 2.21394,0.01225 2.49075,1.487731 0.1535,0.818252 0.44777,1.591975 0.65392,1.719385 0.81007,0.500653 2.98391,-1.361606 3.94163,-3.376671 0.98653,-2.075663 0.99525,-2.081655 1.55014,-1.064859 0.81917,1.501086 0.62086,4.912214 -0.44939,7.729767 l -0.93821,2.469931 -1.05822,-0.98688 c -0.58203,-0.542783 -2.00968,-2.179226 -3.17256,-3.636539 -3.48808,-4.371242 -4.79394,-4.113424 -11.20252,2.211741 -10.9319,10.789608 -18.00878,28.029731 -21.13904,51.497241 -0.94788,7.10624 -1.27216,21.03988 -0.6644,28.54775 1.58477,19.57707 6.07321,33.93142 15.51879,49.63022 15.76935,26.20906 39.82718,45.86503 67.44619,55.10559 9.9797,3.33893 27.54405,6.98151 30.75756,6.37865 0.86144,-0.16161 1.56625,-0.53071 1.56625,-0.82022 0,-0.58584 -2.75329,-3.31501 -6.46641,-6.40976 -2.21016,-1.84208 -5.39799,-5.60304 -5.39799,-6.36848 0,-0.16816 2.00951,1.61285 4.4656,3.95781 5.32221,5.08142 8.62891,6.96391 12.2325,6.96391 1.88087,0 2.86637,-0.31673 5.60961,-1.80288 1.83033,-0.99159 4.75797,-2.23976 6.50585,-2.77372 1.74788,-0.53396 3.55932,-1.09937 4.02542,-1.25645 1.97548,-0.66578 -2.69836,2.85008 -6.17755,4.64701 -2.05855,1.0632 -3.8578,2.11913 -3.99833,2.34649 -0.38432,0.62185 4.39434,0.50816 10.19348,-0.24252 32.5941,-4.21918 63.98271,-23.74231 82.48939,-51.30686 10.61889,-15.81618 20.77097,-44.24821 22.29657,-62.444 0.5886,-7.02024 -0.31441,-12.11804 -2.28017,-12.87238 -2.49158,-0.95611 -4.82578,0.43552 -5.68658,3.39029 -0.26328,0.90371 -0.74664,6.31472 -1.07414,12.02447 -0.38075,6.63818 -0.8261,11.06887 -1.23513,12.28813 -0.60379,1.79982 -0.62707,1.47894 -0.41501,-5.72034 0.25113,-8.52616 1.054,-16.65907 2.12628,-21.53901 l 0.71394,-3.24912 h 4.59566 4.59566 l -0.004,4.55508 c -0.0138,16.55942 -2.01979,29.91334 -6.54025,43.53814 -6.42273,19.35827 -16.39703,35.16025 -31.43472,49.80104 -20.91656,20.36453 -47.51715,32.23441 -76.85173,34.29325 -6.89802,0.48414 -9.43762,0.47757 -16.71631,-0.0433 z"
   id="path1588"
   inkscape:connector-curvature="0"
   transform="matrix(0.15,0,0,0.15,-67,69)" /><path
   style="opacity:1;fill:#00ffff;fill-opacity:1;stroke:none;stroke-width:0.96089691;stroke-miterlimit:4;stroke-dasharray:none;stroke-dashoffset:0;stroke-opacity:1"
   d="m 319.86952,82.208778 c 0.20956,-8.557099 0.24988,-8.654689 5.92184,-14.330356 5.30852,-5.312001 6.4747,-7.109245 6.4747,-9.978409 0,-1.710518 -0.11817,-1.945246 -1.10386,-2.192638 -1.73826,-0.436276 -6.36108,0.14951 -8.44117,1.069633 -1.04261,0.461194 -1.89565,0.663545 -1.89565,0.449668 0,-0.479404 4.9662,-3.999103 9.59275,-6.798681 3.5504,-2.148387 5.26351,-2.538734 7.06647,-1.610154 4.07147,2.096942 3.78606,5.977071 -0.60524,8.227898 -1.84229,0.944297 -2.05658,1.302787 -2.06444,3.453599 -0.007,1.983959 1.02709,3.078163 2.94797,3.118614 0.58903,0.0124 -0.54218,0.499264 -2.5138,1.081911 -6.93975,2.050813 -11.11701,5.204572 -12.47249,9.416502 -0.35028,1.088469 -0.76596,3.735641 -0.92373,5.882604 -0.19116,2.601446 -0.59304,4.57003 -1.20477,5.901515 l -0.91791,1.997944 z"
   id="path1590"
   inkscape:connector-curvature="0"
   transform="matrix(0.15,0,0,0.15,-67,69)" /><path
   style="opacity:1;fill:#00ffff;fill-opacity:1;stroke:none;stroke-width:0.96089691;stroke-miterlimit:4;stroke-dasharray:none;stroke-dashoffset:0;stroke-opacity:1"
   d="m 346.24911,69.800884 c 0,-0.121589 2.5795,-2.261368 5.73223,-4.755066 3.15272,-2.493697 5.66836,-4.597851 5.59032,-4.675896 -0.0781,-0.07805 -3.18191,0.423586 -6.89748,1.114737 -3.71557,0.691151 -7.13693,1.250192 -7.60303,1.242314 -0.46611,-0.0079 1.15466,-0.976351 3.60169,-2.152164 4.38027,-2.10474 4.5323,-2.14313 9.81894,-2.479478 2.95339,-0.1879 5.57521,-0.468592 5.82627,-0.623758 0.81613,-0.504392 0.48339,0.451055 -0.75005,2.153767 -1.96035,2.706194 -4.76677,4.86976 -9.82151,7.571754 -5.24405,2.803188 -5.49738,2.923177 -5.49738,2.60379 z"
   id="path1592"
   inkscape:connector-curvature="0"
   transform="matrix(0.15,0,0,0.15,-67,69)" /><path
   style="opacity:1;fill:#00ffff;fill-opacity:1;stroke:none;stroke-width:0.96089691;stroke-miterlimit:4;stroke-dasharray:none;stroke-dashoffset:0;stroke-opacity:1"
   d="m 407.90165,81.809028 c -1.63135,-0.444128 -3.8126,-1.07097 -4.84722,-1.392981 l -1.88112,-0.585475 2.77744,-0.284557 c 6.4679,-0.662656 13.53813,-3.4115 16.41863,-6.383415 1.89854,-1.958805 2.1986,-4.275908 0.77518,-5.986208 -1.85492,-2.22877 -2.71477,-4.85218 -1.59036,-4.85218 0.23305,0 0.42373,0.398364 0.42373,0.885253 0,0.492158 0.8467,1.708153 1.90678,2.73843 1.17942,1.146272 1.90323,2.222884 1.89747,2.822375 -0.0202,2.102055 -1.6117,4.506703 -4.59681,6.945384 -2.95426,2.413477 -3.89803,3.79206 -4.01805,5.869219 -0.0581,1.005822 -0.20362,1.076187 -2.18092,1.054692 -1.16525,-0.01266 -3.45339,-0.386409 -5.08475,-0.830537 z"
   id="path1594"
   inkscape:connector-curvature="0"
   transform="matrix(0.15,0,0,0.15,-67,69)" /><path
   style="opacity:1;fill:#00ffff;fill-opacity:1;stroke:none;stroke-width:0.96089691;stroke-miterlimit:4;stroke-dasharray:none;stroke-dashoffset:0;stroke-opacity:1"
   d="m 365.61228,71.540314 c 4.09349,-6.373107 4.7505,-6.887465 10.37534,-8.122644 3.5692,-0.783775 5.04855,-1.689571 5.8264,-3.567474 0.46252,-1.116615 0.27263,-1.828209 -2.0346,-7.624683 -1.3996,-3.516221 -3.03343,-7.112325 -3.63074,-7.99134 -1.41296,-2.079363 -1.37467,-2.582291 0.39704,-5.215045 0.81568,-1.212093 1.48305,-2.279983 1.48305,-2.373089 0,-0.09311 -0.87394,-0.169284 -1.94209,-0.169284 -2.95812,0 -2.12653,-0.960525 1.34046,-1.548282 9.00473,-1.52657 19.69501,-1.717238 30.68638,-0.547311 5.51683,0.587215 5.96239,0.865719 12.81929,8.01288 6.24762,6.512095 7.51969,8.198748 7.51969,9.970446 0,1.522575 -0.66546,2.246584 -3.26701,3.554423 -2.2727,1.142515 -2.60181,1.130275 -1.52082,-0.05656 2.4083,-2.644092 2.43034,-4.753239 0.0876,-8.377976 -5.5479,-8.583671 -15.1996,-13.193086 -27.71499,-13.235996 -10.5543,-0.03619 -16.96153,3.094909 -17.48519,8.544682 -0.165,1.717228 0.0725,2.644112 1.48852,5.808408 2.09773,4.687785 2.80394,7.613901 2.55681,10.593972 -0.26353,3.177789 -1.31031,4.479551 -4.10063,5.099472 -3.11518,0.692097 -6.39042,2.789243 -10.65383,6.821675 -2.0328,1.92267 -3.81026,3.495763 -3.94992,3.495763 -0.13966,0 0.63401,-1.382415 1.71927,-3.072034 z"
   id="path1596"
   inkscape:connector-curvature="0"
   transform="matrix(0.15,0,0,0.15,-67,69)" /><path
   style="opacity:1;fill:#00ffff;fill-opacity:1;stroke:none;stroke-width:0.96089691;stroke-miterlimit:4;stroke-dasharray:none;stroke-dashoffset:0;stroke-opacity:1"
   d="m 329.01647,155.98185 c 5.92341,-6.27912 9.44062,-11.78955 10.05815,-15.75813 0.65568,-4.21372 2.51479,-7.50217 6.84831,-12.11348 4.71666,-5.01899 5.5922,-6.79321 5.30856,-10.75737 l -0.2059,-2.87778 1.16056,1.60211 c 0.63831,0.88116 1.29291,2.0191 1.45467,2.52875 0.49643,1.5641 -0.84568,5.23218 -2.50166,6.83722 -1.75153,1.69765 -1.9512,3.27789 -0.64581,5.11114 0.81712,1.14755 0.82053,1.21066 0.0779,1.44635 -0.73031,0.23179 -4.85055,-0.36143 -5.56131,-0.8007 -0.46076,-0.28477 -2.32865,1.79725 -3.3497,3.73371 -0.47412,0.89919 -0.98242,2.90131 -1.12956,4.44916 -0.67257,7.07494 -1.84061,10.07492 -5.1577,13.24692 -1.89035,1.80767 -8.20965,6.30463 -8.8595,6.30463 -0.15528,0 0.97105,-1.32863 2.50294,-2.95253 z"
   id="path1598"
   inkscape:connector-curvature="0"
   transform="matrix(0.15,0,0,0.15,-67,69)" /><path
   style="opacity:1;fill:#00ffff;fill-opacity:1;stroke:none;stroke-width:0.96089691;stroke-miterlimit:4;stroke-dasharray:none;stroke-dashoffset:0;stroke-opacity:1"
   d="m 360.71715,222.01985 c -4.35674,-6.43266 -10.33282,-10.11339 -18.70533,-11.5208 -0.58262,-0.0979 0.66439,-0.20404 2.77115,-0.23578 7.69442,-0.11591 14.09838,2.81324 16.49633,7.54538 0.87869,1.734 2.20546,7.09874 1.83966,7.43857 -0.0729,0.0677 -1.15372,-1.38459 -2.40181,-3.22737 z"
   id="path1600"
   inkscape:connector-curvature="0"
   transform="matrix(0.15,0,0,0.15,-67,69)" /><path
   style="opacity:1;fill:#00ffff;fill-opacity:1;stroke:none;stroke-width:0.96089691;stroke-miterlimit:4;stroke-dasharray:none;stroke-dashoffset:0;stroke-opacity:1"
   d="m 371.77167,254.59116 c -0.47965,-1.68962 -1.37637,-5.45551 -1.99272,-8.36864 -0.61635,-2.91314 -1.59856,-6.88936 -2.18269,-8.83605 -0.58413,-1.9467 -0.97197,-3.62952 -0.86187,-3.73962 0.35175,-0.35175 3.32447,5.3468 4.11613,7.89039 0.42005,1.34964 0.96175,4.9104 1.20378,7.91281 0.24202,3.0024 0.56506,6.07861 0.71785,6.83603 0.49962,2.47666 -0.10892,1.44573 -1.00048,-1.69492 z"
   id="path1602"
   inkscape:connector-curvature="0"
   transform="matrix(0.15,0,0,0.15,-67,69)" /><path
   style="opacity:1;fill:#00ffff;fill-opacity:1;stroke:none;stroke-width:0.96089691;stroke-miterlimit:4;stroke-dasharray:none;stroke-dashoffset:0;stroke-opacity:1"
   d="m 415.33455,263.481 c -0.01,-0.17944 0.84309,-2.04008 1.8951,-4.13475 1.35228,-2.69257 2.85835,-4.83179 5.13997,-7.30086 1.77498,-1.9208 3.69267,-4.18965 4.26154,-5.0419 1.68267,-2.52091 3.48921,-7.41578 4.82338,-13.06911 1.57297,-6.66518 2.90014,-9.38268 6.98997,-14.31259 1.79374,-2.16218 3.3106,-3.87828 3.3708,-3.81356 0.0602,0.0647 -1.74033,3.8359 -4.00118,8.38039 -2.26085,4.54449 -4.84097,10.26483 -5.73359,12.71186 -1.92762,5.28437 -3.34796,8.1933 -6.44575,13.20126 -3.44702,5.57251 -10.24492,14.4025 -10.30024,13.37926 z"
   id="path1604"
   inkscape:connector-curvature="0"
   transform="matrix(0.15,0,0,0.15,-67,69)" /><path
   style="opacity:1;fill:#00ffff;fill-opacity:1;stroke:none;stroke-width:0.96089691;stroke-miterlimit:4;stroke-dasharray:none;stroke-dashoffset:0;stroke-opacity:1"
   d=""
   id="path1606"
   inkscape:connector-curvature="0"
   transform="matrix(0.15,0,0,0.15,-67,69)" /><path
   style="opacity:1;fill:#00ffff;fill-opacity:1;stroke:none;stroke-width:0.96089691;stroke-miterlimit:4;stroke-dasharray:none;stroke-dashoffset:0;stroke-opacity:1"
   d="m 351.75759,106.43006 c 0,-0.76996 3.45419,-4.73027 5.61991,-6.443354 1.77451,-1.403643 2.24701,-1.614409 2.35853,-1.052059 0.23056,1.162613 -1.26901,3.058873 -4.37849,5.536743 -2.92307,2.32932 -3.59995,2.6976 -3.59995,1.95867 z"
   id="path1608"
   inkscape:connector-curvature="0"
   transform="matrix(0.15,0,0,0.15,-67,69)" /><path
   style="opacity:1;fill:#00ffff;fill-opacity:1;stroke:none;stroke-width:0.96089691;stroke-miterlimit:4;stroke-dasharray:none;stroke-dashoffset:0;stroke-opacity:1"
   d="m 372.00129,113.35862 c -1.6235,-0.88104 -1.86615,-1.50598 -2.84178,-7.31895 -0.47605,-2.83643 -1.15654,-5.85358 -1.51218,-6.704755 -0.77814,-1.862352 -0.54828,-2.324969 0.42053,-0.846373 0.38501,0.587602 0.90272,2.463258 1.15047,4.168118 0.24775,1.70487 0.79766,3.79081 1.22204,4.63544 1.42607,2.83831 4.97144,4.94022 5.09293,3.0194 0.0894,-1.41345 -0.13873,-2.8718 -0.93833,-5.9982 -0.85381,-3.33838 -1.10023,-7.15936 -0.38255,-5.931845 0.8333,1.425267 2.54517,9.060895 2.54517,11.352495 0,3.92791 -1.74584,5.25838 -4.7563,3.62467 z"
   id="path1610"
   inkscape:connector-curvature="0"
   transform="matrix(0.15,0,0,0.15,-67,69)" /></svg>