<?xml version="1.0" encoding="UTF-8" standalone="no"?>
<svg
   xmlns:dc="http://purl.org/dc/elements/1.1/"
   xmlns:cc="http://creativecommons.org/ns#"
   xmlns:rdf="http://www.w3.org/1999/02/22-rdf-syntax-ns#"
   xmlns:svg="http://www.w3.org/2000/svg"
   xmlns="http://www.w3.org/2000/svg"
   xmlns:sodipodi="http://sodipodi.sourceforge.net/DTD/sodipodi-0.dtd"
   xmlns:inkscape="http://www.inkscape.org/namespaces/inkscape"
   inkscape:version="1.0 (4035a4fb49, 2020-05-01)"
   sodipodi:docname="OU_Logo.svg"
   xml:space="preserve"
   style="enable-background:new 0 0 652 652;"
   viewBox="0 0 652 652"
   y="0px"
   x="0px"
   id="layer"
   version="1.1"><metadata
   id="metadata11"><rdf:RDF><cc:Work
       rdf:about=""><dc:format>image/svg+xml</dc:format><dc:type
         rdf:resource="http://purl.org/dc/dcmitype/StillImage" /></cc:Work></rdf:RDF></metadata><defs
   id="defs9" /><sodipodi:namedview
   inkscape:current-layer="layer"
   inkscape:window-maximized="1"
   inkscape:window-y="-9"
   inkscape:window-x="-9"
   inkscape:cy="326"
   inkscape:cx="326"
   inkscape:zoom="1.2730061"
   showgrid="false"
   id="namedview7"
   inkscape:window-height="1271"
   inkscape:window-width="2400"
   inkscape:pageshadow="2"
   inkscape:pageopacity="0"
   guidetolerance="10"
   gridtolerance="10"
   objecttolerance="10"
   borderopacity="1"
   bordercolor="#666666"
   pagecolor="#ffffff" />
<style
   id="style2"
   type="text/css">
	.st0{fill:#1E4B9B;}
</style>
<path
   style="stroke-width:0.607229"
   id="path4"
   d="m 430.37566,377.90506 2.00386,-0.72868 c -1.82169,-3.27903 -2.97542,-7.10457 -2.97542,-10.68722 0,-12.4482 7.7118,-15.42362 19.12771,-15.42362 11.47662,0 19.12771,3.52193 19.12771,15.97012 0,2.97542 -0.66795,5.40434 -2.00386,8.31904 h 12.50892 v 7.52964 h -47.78892 z m 18.15615,-19.12771 c -6.55808,0 -12.2053,1.09301 -12.2053,8.31903 0,3.64338 0.72867,6.19374 1.76096,8.31904 h 21.01012 c 0.42506,-0.85012 1.63952,-4.18988 1.63952,-8.31904 0,-7.22602 -5.64723,-8.31903 -12.2053,-8.31903 m -23.68193,192.3094 v -13.72338 h -6.98313 v 35.15856 h 6.98313 v -13.66265 h 41.77735 v -7.77253 z m 41.71663,-43.2347 0.12144,-7.52964 h -25.56434 c -7.34747,0 -11.71951,3.64337 -11.71951,12.81253 0,2.9147 1.03228,6.98313 2.30747,9.65494 h -13.90555 v 7.52964 h 48.82121 v -7.52964 h -28.53976 c -0.91084,-2.00386 -1.76096,-5.04 -1.76096,-8.7441 0,-3.40048 1.09301,-6.13301 4.55421,-6.13301 h 25.68579 z m -24.28916,-76.81446 c -13.23759,0 -25.44289,-3.88627 -25.44289,-19.97783 0,-16.57735 12.14458,-19.91711 25.44289,-19.91711 13.23759,0 25.38217,3.82554 25.38217,19.91711 0,16.57735 -12.2053,19.97783 -25.38217,19.97783 m 0,-8.07615 c 10.14072,0 18.33831,-1.70024 18.33831,-11.90168 0,-10.26217 -8.19759,-11.78024 -18.33831,-11.78024 -10.20145,0 -18.33831,1.63951 -18.33831,11.84096 -0.0607,10.20145 8.13686,11.84096 18.33831,11.84096 m -5.95084,-134.5012 c 0,-0.85012 -0.12145,-5.95084 4.67566,-5.95084 h 25.7465 v -7.65109 h -25.62506 c -7.34747,0 -11.65879,3.76482 -11.65879,12.81253 0,3.52193 1.03229,7.83326 2.97542,11.05157 l -2.00386,0.72867 v 5.04 h 36.31229 v -7.52964 h -28.6612 c -0.97157,-1.94313 -1.76096,-4.85783 -1.76096,-8.5012 m 15.42361,48.09253 c 6.3759,-0.54651 8.86554,-3.33976 8.86554,-10.68723 0,-3.40048 -0.66795,-6.86169 -2.06458,-11.17301 h 6.6188 c 1.82169,4.49349 2.42891,8.86554 2.42891,12.9947 0,12.56964 -7.65108,16.57735 -19.12771,16.57735 -11.23373,0 -19.12771,-4.43277 -19.12771,-16.57735 0,-12.87326 9.35133,-14.75567 19.43133,-14.81639 h 2.9147 v 23.68193 z m -6.19374,0 v -15.9094 c -4.85783,0 -9.89783,1.21446 -9.89783,7.34747 0,6.43663 4.12916,8.19759 9.89783,8.56193 m 6.19374,148.95325 c 6.31518,-0.5465 8.86554,-3.40048 8.86554,-10.68723 0,-3.40048 -0.66795,-6.86168 -2.00385,-11.11229 h 6.61879 c 1.82169,4.4935 2.42892,8.86555 2.42892,12.9947 0,12.56964 -7.65109,16.57735 -19.12771,16.57735 -11.23374,0 -19.12771,-4.43277 -19.12771,-16.57735 0,-12.87325 9.35132,-14.81638 19.43132,-14.81638 h 2.9147 z M 445.86,485.38458 V 469.5359 c -4.85783,0 -9.89783,1.27518 -9.89783,7.34747 0,6.37591 4.12915,8.19759 9.89783,8.50121 m 50.58217,57.14024 h 30.96867 c 10.99085,0 11.78024,6.55807 11.78024,10.6265 0,4.06844 -0.85012,10.62651 -11.78024,10.62651 h -30.90795 v 7.46892 h 31.87952 c 15.6665,0 18.15614,-11.29446 18.15614,-18.15615 0,-6.86169 -2.42891,-18.15614 -18.15614,-18.15614 h -31.87952 v 7.59036 z m 2.06458,-59.62988 c -2.79326,0 -4.97928,2.18602 -4.97928,4.97928 0,2.73253 2.18602,4.97927 4.97928,4.97927 2.73253,0 4.91855,-2.18602 4.91855,-4.97927 0,-2.79326 -2.18602,-4.97928 -4.91855,-4.97928 m 39.89494,8.68337 c 5.76867,0 7.95469,-2.97542 7.95469,-7.34747 0,-1.76096 -0.0607,-2.61108 -0.12144,-3.4612 h -6.6188 v 1.27518 c 0,2.00385 -0.60723,2.06458 -1.88241,2.06458 h -28.6612 v 7.46891 h 29.32916 m 0,-145.3706 c 5.76867,0 7.95469,-2.97542 7.95469,-7.34747 0,-1.76096 -0.0607,-2.67181 -0.18216,-3.46121 h -6.55808 v 1.27519 c 0,2.00385 -0.60723,2.06457 -1.88241,2.06457 h -28.6612 v 7.52964 h 29.32916 m -1.03229,113.67326 -28.29687,9.10843 v 8.19759 l 37.28385,-14.26988 v -6.13301 l -37.22313,-14.20916 v 8.13687 z m -6.86169,-27.32531 c 6.31518,-0.5465 8.86554,-3.27903 8.86554,-10.44433 0,-3.33976 -0.60723,-6.67952 -2.00385,-10.8694 h 6.61879 c 1.82169,4.43277 2.42892,8.62265 2.42892,12.69108 0,12.26603 -7.65109,16.21302 -19.06699,16.21302 -11.23374,0 -19.12771,-4.31133 -19.12771,-16.21302 0,-12.56963 9.35132,-14.45204 19.43132,-14.45204 h 2.9147 v 23.07469 z m -6.19373,-15.60578 c -4.85784,0 -9.89784,1.21446 -9.89784,7.22603 0,6.3759 4.12916,8.13686 9.89784,8.44048 z m -15.78796,-33.76193 c -0.30361,1.33591 -0.30361,3.27904 -0.30361,4.85783 0,2.61109 1.15373,6.74025 2.85397,8.98699 l -2.00385,0.72868 v 5.04 h 36.43373 v -7.46892 h -28.72192 c -0.91085,-1.88241 -1.51808,-4.31132 -1.51808,-7.10458 0,-1.88241 0.0607,-3.52192 0.36434,-5.04 z M 534.4547,352.28 c -6.43663,0 -10.08,2.42891 -11.11229,12.93397 -0.48578,5.52579 -1.5788,6.55808 -3.7041,6.55808 -2.61108,0 -4.67566,-1.15374 -4.67566,-6.74024 0,-4.25061 0.97157,-7.59037 2.1253,-11.11229 h -6.86169 c -1.63951,3.76482 -2.1253,7.7118 -2.1253,11.05156 0,10.44434 6.07229,13.84482 11.53735,13.84482 5.40434,0 9.41205,-2.18602 10.32289,-12.87325 0.48579,-5.64723 2.12531,-6.49735 4.55422,-6.49735 2.42892,0 4.91856,1.70024 4.91856,7.52964 0,4.55422 -1.15374,8.62265 -2.18603,11.47662 h 7.04386 c 1.09301,-2.6718 2.00385,-7.95469 2.00385,-11.4159 C 546.35636,355.92337 540.2841,352.28 534.4547,352.28 m 4.79711,-43.72048 c 0.12144,0.66795 0.24289,3.15759 0.24289,4.61494 0,3.76482 -1.15374,5.40433 -4.18988,5.40433 h -19.79566 v -10.01927 h -6.37591 v 10.01927 h -10.20144 l 1.03229,7.34747 h 9.16915 l 0.36434,6.31518 h 6.01157 v -6.31518 h 20.7065 c 7.10458,0 10.14072,-4.61494 10.14072,-10.50506 0,-2.79325 -0.12144,-5.22217 -0.48578,-6.92241 h -6.61879 z m -30.11856,-38.31615 v 7.77253 l 26.23229,9.04771 -26.23229,7.89398 v 8.31904 l 34.61205,-12.63037 13.17687,5.10073 v -7.04386 z m 5.95085,241.49494 c 0,-0.85012 -0.12145,-5.8294 4.61494,-5.8294 h 25.7465 v -7.40819 H 519.8812 c -7.34747,0 -11.71951,3.64338 -11.71951,12.50892 0,3.4612 1.03229,7.65108 2.97542,10.80867 l -2.00386,0.72868 v 4.91855 h 36.31229 v -7.34747 h -28.60048 c -0.91084,-2.00385 -1.76096,-4.79711 -1.76096,-8.37976 M 498.50675,336.97783 c -2.79326,0 -4.97928,2.18602 -4.97928,4.97928 0,2.79325 2.18602,4.97927 4.97928,4.97927 2.73253,0 4.91855,-2.18602 4.91855,-4.97927 0,-2.79326 -2.18602,-4.97928 -4.91855,-4.97928 m -272.64579,83.67614 c -31.27229,8.13687 -63.03036,-10.20144 -70.92433,-40.98795 -7.9547,-30.7865 10.93012,-62.30168 42.14168,-70.43855 31.21157,-8.13687 62.96964,10.26217 70.92434,40.98795 7.9547,30.72578 -10.99084,62.36241 -42.14169,70.43855 M 355.68651,272.30795 H 129.79735 c -7.04386,0 -15.30217,6.92241 -15.30217,14.08771 v 164.31615 c 0,72.19951 57.20096,123.14602 127.76096,123.14602 70.56,0 127.82169,-50.94651 127.82169,-123.14602 V 287.12434 c -0.0607,-7.16531 -7.34747,-14.81639 -14.39132,-14.81639"
   class="st0" />
</svg>
