<svg xmlns="http://www.w3.org/2000/svg" id="canvas" viewBox="286.995 322.916 1219.238 162.273"><path d="M 394.84,329.77 C 394.07 328.27, 392.96 326.76, 390.11 326.17 C 387.26 325.58, 385.05 326.11, 380.61 326.82 C 376.17 327.54, 373.44 328.09, 367.90 329.74 C 362.37 331.39, 359.05 332.58, 352.93 335.08 C 346.80 337.59, 343.23 339.30, 337.27 342.28 C 331.32 345.27, 328.02 346.83, 323.14 350.01 C 318.26 353.19, 315.84 354.71, 312.87 358.18 C 309.91 361.65, 308.32 363.74, 308.31 367.37 C 308.31 371.00, 309.63 373.24, 312.85 376.33 C 316.07 379.42, 318.83 380.37, 324.42 382.84 C 330.01 385.32, 333.61 386.32, 340.80 388.70 C 348.00 391.07, 352.32 392.09, 360.40 394.72 C 368.47 397.36, 373.20 398.70, 381.18 401.87 C 389.17 405.04, 393.44 406.90, 400.33 410.59 C 407.21 414.28, 410.56 416.34, 415.61 420.31 C 420.66 424.28, 422.82 426.54, 425.58 430.43 C 428.33 434.32, 428.91 436.29, 429.39 439.77 C 429.88 443.24, 429.54 444.57, 428.03 447.82 C 426.51 451.08, 425.43 452.82, 421.83 456.04 C 418.23 459.27, 415.70 461.00, 410.03 463.93 C 404.35 466.86, 400.69 468.39, 393.47 470.69 C 386.25 472.98, 382.03 473.96, 373.93 475.40 C 365.83 476.84, 361.15 477.31, 352.96 477.88 C 344.77 478.45, 340.41 478.54, 332.98 478.24 C 325.55 477.95, 321.70 477.50, 315.81 476.42 C 309.91 475.34, 307.08 474.48, 303.52 472.85 C 299.96 471.22, 299.44 469.74, 298.02 468.26 C 296.60 466.78, 296.72 466.31, 296.44 465.45 C 296.16 464.58, 296.47 464.63, 296.62 463.95 C 296.77 463.27, 297.60 462.98, 297.18 462.04 C 296.77 461.11, 295.78 459.42, 294.54 459.27 C 293.30 459.13, 291.86 459.80, 290.98 461.30 C 290.11 462.80, 289.76 464.39, 290.16 466.77 C 290.57 469.15, 290.74 470.95, 293.00 473.20 C 295.26 475.45, 297.04 476.51, 301.47 478.04 C 305.89 479.57, 308.84 480.01, 315.12 480.83 C 321.40 481.65, 325.25 481.99, 332.87 482.13 C 340.49 482.28, 344.88 482.16, 353.22 481.57 C 361.56 480.97, 366.28 480.52, 374.57 479.14 C 382.87 477.77, 387.17 476.86, 394.68 474.69 C 402.20 472.51, 406.01 471.16, 412.16 468.26 C 418.31 465.36, 421.21 463.79, 425.44 460.18 C 429.67 456.57, 431.43 454.46, 433.30 450.20 C 435.18 445.95, 435.58 443.43, 434.80 438.91 C 434.03 434.39, 432.76 431.97, 429.42 427.60 C 426.08 423.23, 423.57 421.11, 418.10 417.05 C 412.63 412.99, 409.18 411.01, 402.06 407.30 C 394.95 403.59, 390.62 401.75, 382.53 398.50 C 374.45 395.25, 369.68 393.87, 361.64 391.06 C 353.59 388.24, 349.29 387.06, 342.31 384.42 C 335.34 381.78, 331.81 380.41, 326.77 377.87 C 321.72 375.33, 319.51 373.80, 317.10 371.71 C 314.69 369.62, 314.64 369.37, 314.69 367.44 C 314.75 365.51, 315.10 364.67, 317.37 362.06 C 319.65 359.44, 321.65 357.44, 326.07 354.36 C 330.49 351.29, 333.74 349.58, 339.48 346.69 C 345.23 343.80, 348.82 342.11, 354.80 339.92 C 360.79 337.72, 364.09 336.78, 369.40 335.71 C 374.71 334.65, 377.37 334.69, 381.37 334.58 C 385.37 334.46, 386.91 335.32, 389.42 335.14 C 391.93 334.96, 392.84 334.75, 393.93 333.68 C 395.01 332.61, 395.60 331.27, 394.84 329.77" style="stroke: black; fill: black;"/><path d="M 499.84,414.64 C 499.26 413.14, 498.28 412.09, 495.95 411.27 C 493.61 410.46, 491.62 409.87, 488.17 410.57 C 484.72 411.27, 482.49 412.44, 478.69 414.76 C 474.90 417.08, 472.83 418.69, 469.21 422.16 C 465.58 425.64, 463.43 427.84, 460.58 432.14 C 457.72 436.45, 456.14 439.04, 454.94 443.71 C 453.73 448.38, 453.35 451.18, 454.56 455.49 C 455.77 459.80, 457.32 462.08, 460.98 465.25 C 464.63 468.42, 467.29 469.57, 472.83 471.33 C 478.38 473.09, 481.89 473.54, 488.72 474.04 C 495.55 474.53, 499.69 474.40, 506.99 473.79 C 514.29 473.18, 518.29 472.58, 525.23 470.98 C 532.17 469.39, 535.68 468.30, 541.70 465.81 C 547.71 463.31, 550.60 461.75, 555.29 458.51 C 559.99 455.26, 562.00 453.29, 565.17 449.59 C 568.35 445.88, 569.44 443.61, 571.17 439.96 C 572.91 436.31, 573.81 434.23, 573.85 431.34 C 573.88 428.45, 572.92 426.76, 571.33 425.52 C 569.74 424.28, 567.75 424.08, 565.89 425.14 C 564.02 426.19, 562.42 427.95, 562.01 430.79 C 561.60 433.63, 562.38 435.90, 563.86 439.34 C 565.33 442.79, 566.92 444.76, 569.40 448.02 C 571.87 451.28, 573.44 452.82, 576.23 455.64 C 579.01 458.45, 580.53 459.87, 583.33 462.10 C 586.14 464.32, 587.67 465.59, 590.26 466.76 C 592.85 467.92, 594.31 467.90, 596.29 467.92 C 598.27 467.95, 599.23 467.66, 600.15 466.88 C 601.07 466.10, 601.19 465.12, 600.91 464.02 C 600.63 462.92, 599.97 462.56, 598.76 461.38 C 597.55 460.20, 596.88 459.42, 594.86 458.13 C 592.83 456.84, 591.13 456.60, 588.62 454.91 C 586.11 453.23, 584.60 452.10, 582.31 449.70 C 580.01 447.31, 578.68 445.83, 577.14 442.95 C 575.61 440.07, 575.44 438.02, 574.62 435.32 C 573.79 432.61, 574.00 431.14, 573.03 429.42 C 572.05 427.70, 570.99 427.18, 569.75 426.71 C 568.51 426.24, 567.73 426.30, 566.82 427.05 C 565.91 427.81, 565.65 428.41, 565.19 430.47 C 564.73 432.53, 565.42 434.25, 564.51 437.36 C 563.60 440.47, 563.07 442.61, 560.65 446.03 C 558.22 449.46, 556.54 451.37, 552.40 454.49 C 548.26 457.62, 545.57 459.22, 539.94 461.67 C 534.31 464.13, 530.92 465.23, 524.26 466.76 C 517.60 468.30, 513.67 468.85, 506.65 469.33 C 499.63 469.81, 495.55 469.80, 489.14 469.15 C 482.72 468.51, 479.40 467.80, 474.57 466.11 C 469.74 464.41, 467.74 463.13, 464.98 460.68 C 462.21 458.23, 461.50 456.89, 460.75 453.85 C 460.01 450.80, 460.18 449.03, 461.25 445.44 C 462.31 441.85, 463.53 439.49, 466.07 435.90 C 468.62 432.31, 470.67 430.21, 473.97 427.48 C 477.27 424.76, 479.37 423.58, 482.58 422.27 C 485.80 420.96, 487.54 421.31, 490.04 420.94 C 492.54 420.56, 493.32 420.80, 495.09 420.38 C 496.86 419.95, 497.92 419.94, 498.87 418.79 C 499.82 417.65, 500.43 416.15, 499.84 414.64" style="stroke: black; fill: black;"/><path d="M 558.48,377.11 C 557.71 375.91, 556.65 376.37, 556.41 376.98 C 556.16 377.60, 556.46 379.45, 557.25 380.21 C 558.03 380.97, 559.53 380.14, 560.34 380.79 C 561.15 381.44, 561.30 383.01, 561.29 383.45 C 561.27 383.90, 560.83 384.27, 560.27 383.00 C 559.71 381.74, 559.25 378.32, 558.48 377.11" style="stroke: black; fill: black;"/><path d="M 632.67,440.99 C 633.88 442.14, 635.37 442.64, 637.91 442.57 C 640.45 442.50, 642.02 441.78, 645.38 440.65 C 648.74 439.51, 651.01 438.55, 654.71 436.89 C 658.41 435.23, 660.50 434.28, 663.88 432.32 C 667.25 430.37, 669.22 429.52, 671.58 427.13 C 673.93 424.74, 674.81 423.17, 675.64 420.36 C 676.48 417.54, 676.61 415.76, 675.76 413.04 C 674.91 410.31, 673.89 408.58, 671.39 406.75 C 668.89 404.92, 666.92 404.15, 663.25 403.90 C 659.58 403.66, 657.30 404.31, 653.02 405.54 C 648.74 406.77, 646.19 407.70, 641.85 410.06 C 637.51 412.43, 635.02 414.05, 631.32 417.35 C 627.62 420.65, 625.64 422.60, 623.36 426.56 C 621.08 430.53, 619.98 433.00, 619.92 437.18 C 619.87 441.36, 620.67 444.00, 623.08 447.46 C 625.49 450.93, 627.78 452.29, 631.98 454.52 C 636.17 456.75, 638.80 457.51, 644.07 458.61 C 649.35 459.72, 652.55 459.92, 658.35 460.04 C 664.14 460.16, 667.28 459.95, 673.04 459.22 C 678.80 458.50, 681.82 457.86, 687.15 456.40 C 692.49 454.93, 695.16 454.02, 699.72 451.88 C 704.28 449.74, 706.42 448.47, 709.97 445.69 C 713.51 442.91, 715.03 441.23, 717.44 437.97 C 719.86 434.71, 721.15 432.64, 722.02 429.41 C 722.90 426.18, 722.77 423.75, 721.84 421.83 C 720.91 419.91, 718.96 419.26, 717.39 419.81 C 715.81 420.35, 714.17 421.90, 713.96 424.54 C 713.76 427.18, 714.75 429.46, 716.35 433.02 C 717.96 436.58, 719.50 438.85, 721.97 442.35 C 724.44 445.85, 725.84 447.75, 728.69 450.52 C 731.54 453.29, 733.05 454.68, 736.22 456.20 C 739.39 457.72, 741.25 458.03, 744.54 458.14 C 747.83 458.25, 749.62 457.98, 752.68 456.73 C 755.74 455.49, 757.25 454.38, 759.83 451.92 C 762.41 449.47, 763.42 447.57, 765.58 444.46 C 767.75 441.36, 768.75 439.28, 770.65 436.41 C 772.55 433.53, 773.86 432.13, 775.08 430.08 C 776.30 428.04, 776.20 426.89, 776.77 426.18 C 777.33 425.47, 777.14 425.64, 777.92 426.53 C 778.71 427.42, 778.93 428.76, 780.69 430.64 C 782.45 432.51, 783.98 433.57, 786.72 435.91 C 789.47 438.26, 791.16 439.85, 794.41 442.36 C 797.65 444.88, 799.47 446.31, 802.94 448.50 C 806.40 450.69, 808.11 451.67, 811.72 453.31 C 815.33 454.94, 817.34 455.67, 820.99 456.67 C 824.63 457.67, 826.47 458.06, 829.94 458.33 C 833.42 458.59, 835.45 458.65, 838.36 458.00 C 841.27 457.36, 842.70 456.44, 844.48 455.09 C 846.26 453.74, 847.01 452.64, 847.26 451.26 C 847.51 449.88, 846.84 448.89, 845.73 448.19 C 844.62 447.48, 843.53 447.72, 841.70 447.74 C 839.87 447.75, 838.86 447.95, 836.56 448.27 C 834.26 448.58, 832.92 449.23, 830.19 449.32 C 827.46 449.42, 825.98 449.36, 822.91 448.74 C 819.84 448.11, 818.00 447.55, 814.86 446.21 C 811.71 444.86, 810.20 444.03, 807.18 441.99 C 804.16 439.96, 802.53 438.59, 799.76 436.02 C 796.98 433.46, 795.68 431.82, 793.30 429.17 C 790.91 426.51, 790.31 424.73, 787.82 422.76 C 785.33 420.79, 783.68 419.90, 780.84 419.32 C 777.99 418.75, 776.32 418.94, 773.60 419.88 C 770.89 420.81, 769.44 421.69, 767.27 424.00 C 765.10 426.31, 764.61 428.38, 762.77 431.42 C 760.93 434.46, 759.98 436.47, 758.06 439.20 C 756.14 441.94, 755.00 443.25, 753.18 445.09 C 751.35 446.92, 750.62 447.50, 748.94 448.37 C 747.26 449.24, 746.55 449.49, 744.78 449.45 C 743.01 449.42, 742.11 449.20, 740.09 448.21 C 738.08 447.22, 736.76 446.65, 734.69 444.51 C 732.61 442.36, 731.40 440.64, 729.72 437.50 C 728.03 434.37, 727.51 431.94, 726.27 428.81 C 725.04 425.69, 725.01 423.76, 723.53 421.86 C 722.05 419.96, 720.67 419.43, 718.87 419.31 C 717.07 419.19, 715.74 419.71, 714.54 421.24 C 713.33 422.77, 713.52 424.41, 712.85 426.96 C 712.18 429.52, 712.61 431.26, 711.21 434.02 C 709.81 436.78, 708.66 438.23, 705.85 440.76 C 703.04 443.29, 701.19 444.58, 697.16 446.65 C 693.12 448.73, 690.62 449.71, 685.67 451.15 C 680.71 452.59, 677.80 453.22, 672.38 453.86 C 666.95 454.51, 663.92 454.63, 658.54 454.38 C 653.15 454.12, 650.11 453.74, 645.45 452.58 C 640.78 451.42, 638.51 450.42, 635.20 448.58 C 631.89 446.73, 630.53 445.60, 628.90 443.35 C 627.26 441.10, 626.95 439.99, 627.04 437.33 C 627.13 434.67, 627.59 433.02, 629.35 430.06 C 631.11 427.10, 632.69 425.22, 635.85 422.52 C 639.00 419.82, 641.34 418.32, 645.14 416.55 C 648.94 414.78, 651.38 414.20, 654.86 413.67 C 658.35 413.15, 660.15 413.74, 662.56 413.92 C 664.98 414.09, 665.71 414.24, 666.95 414.54 C 668.19 414.85, 668.48 414.88, 668.75 415.44 C 669.03 416.00, 669.05 416.37, 668.33 417.34 C 667.60 418.30, 666.91 418.77, 665.13 420.26 C 663.35 421.74, 662.22 423.10, 659.45 424.74 C 656.67 426.38, 654.69 427.19, 651.25 428.46 C 647.81 429.72, 645.37 430.08, 642.23 431.09 C 639.08 432.10, 637.60 432.35, 635.52 433.49 C 633.44 434.64, 632.42 435.32, 631.85 436.82 C 631.28 438.32, 631.46 439.84, 632.67 440.99" style="stroke: black; fill: black;"/><path d="M 897.68,412.66 C 897.23 411.15, 896.45 409.95, 894.21 409.02 C 891.98 408.09, 889.93 407.47, 886.51 408.02 C 883.08 408.56, 880.85 409.65, 877.10 411.75 C 873.35 413.85, 871.21 415.40, 867.76 418.51 C 864.32 421.62, 862.31 423.52, 859.90 427.30 C 857.48 431.08, 856.20 433.32, 855.70 437.41 C 855.20 441.51, 855.44 444.14, 857.41 447.77 C 859.37 451.41, 861.44 453.11, 865.52 455.58 C 869.59 458.05, 872.30 458.74, 877.77 460.13 C 883.24 461.51, 886.46 461.98, 892.86 462.51 C 899.26 463.04, 902.97 463.16, 909.78 462.78 C 916.59 462.40, 920.27 461.81, 926.91 460.61 C 933.55 459.42, 936.98 458.65, 942.98 456.80 C 948.98 454.96, 952.00 453.96, 956.92 451.40 C 961.84 448.84, 964.11 447.22, 967.58 444.01 C 971.05 440.81, 972.62 438.99, 974.27 435.38 C 975.91 431.76, 976.37 429.39, 975.82 425.94 C 975.27 422.48, 973.99 420.44, 971.51 418.11 C 969.02 415.78, 966.97 414.76, 963.40 414.29 C 959.84 413.82, 957.47 414.32, 953.68 415.77 C 949.89 417.22, 947.63 418.61, 944.46 421.54 C 941.30 424.48, 939.66 426.54, 937.85 430.46 C 936.05 434.37, 935.15 436.89, 935.44 441.13 C 935.72 445.38, 936.57 447.96, 939.28 451.68 C 941.99 455.40, 944.23 457.00, 949.01 459.73 C 953.78 462.46, 956.93 463.48, 963.16 465.33 C 969.38 467.17, 973.10 467.86, 980.14 468.96 C 987.18 470.06, 991.16 470.35, 998.34 470.84 C 1005.52 471.34, 1009.26 471.33, 1016.03 471.45 C 1022.80 471.57, 1026.59 471.51, 1032.18 471.46 C 1037.77 471.41, 1040.20 471.63, 1043.96 471.18 C 1047.72 470.74, 1049.64 470.26, 1050.98 469.25 C 1052.32 468.24, 1052.12 466.84, 1050.65 466.13 C 1049.17 465.42, 1047.33 465.64, 1043.60 465.69 C 1039.88 465.73, 1037.55 466.09, 1032.04 466.34 C 1026.53 466.60, 1022.74 466.93, 1016.06 466.96 C 1009.38 467.00, 1005.68 467.03, 998.64 466.52 C 991.61 466.02, 987.69 465.65, 980.90 464.43 C 974.11 463.21, 970.48 462.38, 964.71 460.43 C 958.94 458.48, 956.02 457.19, 952.04 454.67 C 948.06 452.15, 946.62 450.58, 944.79 447.82 C 942.96 445.06, 942.85 443.63, 942.90 440.88 C 942.96 438.13, 943.60 436.64, 945.05 434.06 C 946.50 431.49, 947.79 429.94, 950.15 428.02 C 952.51 426.10, 954.34 425.31, 956.85 424.47 C 959.36 423.62, 960.79 423.86, 962.68 423.80 C 964.58 423.75, 965.28 423.51, 966.32 424.19 C 967.36 424.86, 967.63 425.50, 967.88 427.18 C 968.14 428.86, 968.50 430.08, 967.59 432.59 C 966.69 435.11, 965.97 436.89, 963.34 439.74 C 960.71 442.59, 958.79 444.33, 954.43 446.84 C 950.07 449.35, 947.22 450.45, 941.55 452.30 C 935.89 454.16, 932.50 454.97, 926.10 456.12 C 919.70 457.28, 916.11 457.83, 909.56 458.08 C 903.02 458.33, 899.42 458.11, 893.38 457.38 C 887.34 456.66, 884.21 455.94, 879.35 454.45 C 874.49 452.95, 872.17 451.92, 869.06 449.91 C 865.95 447.89, 864.98 446.64, 863.79 444.37 C 862.61 442.09, 862.63 441.08, 863.12 438.52 C 863.61 435.95, 864.29 434.32, 866.25 431.53 C 868.21 428.74, 869.96 426.88, 872.91 424.57 C 875.85 422.26, 877.91 421.09, 880.98 419.98 C 884.05 418.87, 885.80 419.38, 888.24 419.00 C 890.68 418.62, 891.54 418.57, 893.19 418.08 C 894.83 417.59, 895.56 417.64, 896.46 416.55 C 897.36 415.47, 898.13 414.16, 897.68 412.66" style="stroke: black; fill: black;"/><path d="M 1183.07,390.80 C 1184.60 390.39, 1185.06 389.12, 1186.34 387.69 C 1187.62 386.26, 1188.02 385.45, 1189.45 383.65 C 1190.88 381.86, 1191.46 380.40, 1193.48 378.73 C 1195.50 377.07, 1196.90 376.22, 1199.55 375.33 C 1202.21 374.44, 1203.91 374.19, 1206.76 374.27 C 1209.61 374.34, 1211.18 374.62, 1213.81 375.70 C 1216.44 376.78, 1217.82 377.61, 1219.89 379.67 C 1221.96 381.74, 1222.99 382.99, 1224.18 386.01 C 1225.37 389.02, 1225.80 390.94, 1225.84 394.76 C 1225.88 398.58, 1225.63 400.82, 1224.39 405.10 C 1223.14 409.38, 1222.03 411.71, 1219.61 416.15 C 1217.19 420.59, 1215.41 423.04, 1212.30 427.29 C 1209.19 431.55, 1207.24 433.73, 1204.07 437.41 C 1200.90 441.09, 1198.94 442.56, 1196.46 445.70 C 1193.97 448.83, 1192.48 450.09, 1191.66 453.08 C 1190.83 456.07, 1191.09 457.95, 1192.34 460.64 C 1193.60 463.34, 1194.74 464.99, 1197.92 466.57 C 1201.11 468.14, 1203.53 467.98, 1208.27 468.53 C 1213.01 469.07, 1215.98 469.08, 1221.62 469.28 C 1227.26 469.48, 1230.51 469.45, 1236.48 469.54 C 1242.44 469.63, 1245.75 469.63, 1251.46 469.73 C 1257.16 469.83, 1260.34 469.73, 1265.00 470.03 C 1269.66 470.33, 1271.67 471.15, 1274.76 471.25 C 1277.86 471.34, 1278.77 470.89, 1280.49 470.52 C 1282.21 470.15, 1282.71 470.07, 1283.35 469.38 C 1284.00 468.69, 1284.20 467.93, 1283.73 467.05 C 1283.26 466.18, 1282.72 465.71, 1281.00 465.01 C 1279.29 464.32, 1278.33 463.81, 1275.15 463.59 C 1271.97 463.37, 1269.84 463.77, 1265.11 463.91 C 1260.37 464.05, 1257.19 464.25, 1251.49 464.28 C 1245.79 464.31, 1242.51 464.31, 1236.63 464.07 C 1230.74 463.82, 1227.49 463.66, 1222.07 463.07 C 1216.64 462.47, 1213.67 462.01, 1209.51 461.08 C 1205.35 460.14, 1203.62 459.06, 1201.26 458.38 C 1198.90 457.70, 1198.26 458.20, 1197.71 457.66 C 1197.16 457.11, 1197.61 457.20, 1198.50 455.67 C 1199.39 454.14, 1200.07 452.88, 1202.14 450.01 C 1204.21 447.14, 1205.88 445.17, 1208.86 441.31 C 1211.83 437.45, 1213.83 435.15, 1217.01 430.69 C 1220.20 426.23, 1222.09 423.75, 1224.77 419.01 C 1227.45 414.27, 1228.82 411.81, 1230.41 406.98 C 1232.01 402.15, 1232.58 399.56, 1232.73 394.85 C 1232.88 390.14, 1232.61 387.57, 1231.18 383.44 C 1229.76 379.31, 1228.42 377.27, 1225.60 374.21 C 1222.79 371.16, 1220.78 369.85, 1217.10 368.18 C 1213.43 366.50, 1211.20 366.12, 1207.21 365.82 C 1203.22 365.53, 1201.02 365.77, 1197.14 366.71 C 1193.26 367.65, 1191.15 368.50, 1187.83 370.51 C 1184.51 372.51, 1182.62 374.02, 1180.55 376.73 C 1178.47 379.45, 1177.85 381.46, 1177.47 384.07 C 1177.10 386.68, 1177.56 388.43, 1178.68 389.78 C 1179.80 391.12, 1181.53 391.22, 1183.07 390.80" style="stroke: black; fill: black;"/><path d="M 1312.42,473.04 C 1311.22 473.95, 1310.46 475.53, 1310.59 476.04 C 1310.72 476.55, 1311.81 476.74, 1313.09 475.58 C 1314.36 474.42, 1315.87 471.52, 1316.98 470.24 C 1318.09 468.95, 1318.72 468.90, 1318.63 469.15 C 1318.55 469.41, 1317.80 470.72, 1316.56 471.50 C 1315.32 472.28, 1313.61 472.13, 1312.42 473.04" style="stroke: black; fill: black;"/><path d="M 1414.30,360.51 C 1413.04 361.58, 1412.56 362.92, 1412.03 366.16 C 1411.49 369.40, 1411.90 371.70, 1411.62 376.71 C 1411.33 381.72, 1411.21 385.13, 1410.59 391.23 C 1409.98 397.34, 1409.51 400.98, 1408.56 407.24 C 1407.62 413.51, 1406.99 416.80, 1405.87 422.56 C 1404.75 428.31, 1404.17 431.15, 1402.96 436.02 C 1401.75 440.88, 1401.18 443.09, 1399.83 446.87 C 1398.47 450.65, 1397.37 452.32, 1396.18 454.92 C 1394.99 457.53, 1394.59 458.57, 1393.88 459.90 C 1393.17 461.24, 1392.96 461.13, 1392.63 461.58 C 1392.30 462.02, 1392.49 461.93, 1392.25 462.11 C 1392.01 462.30, 1391.97 461.92, 1391.42 462.50 C 1390.87 463.09, 1389.54 464.08, 1389.50 465.05 C 1389.46 466.02, 1390.01 466.87, 1391.20 467.34 C 1392.38 467.82, 1393.66 467.99, 1395.45 467.42 C 1397.23 466.84, 1398.49 466.35, 1400.13 464.46 C 1401.77 462.57, 1402.48 461.14, 1403.65 457.97 C 1404.81 454.80, 1405.03 452.79, 1405.96 448.63 C 1406.88 444.48, 1407.30 442.21, 1408.27 437.18 C 1409.24 432.15, 1409.74 429.31, 1410.80 423.49 C 1411.86 417.66, 1412.49 414.36, 1413.58 408.06 C 1414.68 401.75, 1415.32 398.10, 1416.28 391.96 C 1417.24 385.83, 1417.66 382.41, 1418.37 377.38 C 1419.08 372.35, 1419.82 370.11, 1419.81 366.80 C 1419.81 363.48, 1419.45 362.05, 1418.35 360.79 C 1417.24 359.53, 1415.57 359.43, 1414.30 360.51" style="stroke: black; fill: black;"/><path d="M 1426.66,351.09 C 1425.64 352.27, 1424.92 353.37, 1425.24 356.09 C 1425.56 358.82, 1426.86 360.48, 1428.26 364.70 C 1429.65 368.92, 1430.55 371.82, 1432.21 377.18 C 1433.88 382.55, 1434.85 385.79, 1436.57 391.52 C 1438.28 397.24, 1439.07 400.40, 1440.78 405.81 C 1442.50 411.22, 1443.49 413.75, 1445.15 418.56 C 1446.82 423.37, 1447.69 425.72, 1449.12 429.85 C 1450.56 433.99, 1451.06 436.16, 1452.34 439.24 C 1453.61 442.33, 1454.28 443.51, 1455.51 445.29 C 1456.75 447.08, 1457.36 447.76, 1458.51 448.16 C 1459.66 448.55, 1460.58 448.34, 1461.26 447.27 C 1461.93 446.19, 1462.21 445.03, 1461.87 442.80 C 1461.54 440.57, 1460.94 439.20, 1459.56 436.13 C 1458.19 433.06, 1456.84 431.36, 1455.00 427.46 C 1453.17 423.56, 1452.21 421.28, 1450.37 416.63 C 1448.54 411.98, 1447.53 409.52, 1445.83 404.20 C 1444.14 398.88, 1443.37 395.76, 1441.89 390.03 C 1440.40 384.30, 1439.61 381.02, 1438.40 375.55 C 1437.19 370.07, 1436.74 367.03, 1435.84 362.67 C 1434.94 358.31, 1435.00 356.25, 1433.91 353.75 C 1432.81 351.25, 1431.81 350.70, 1430.36 350.17 C 1428.91 349.64, 1427.69 349.90, 1426.66 351.09" style="stroke: black; fill: black;"/><path d="M 1425.51,418.94 C 1426.99 419.42, 1427.95 419.09, 1430.38 418.15 C 1432.82 417.20, 1433.84 415.80, 1437.67 414.22 C 1441.51 412.65, 1444.41 411.55, 1449.56 410.27 C 1454.72 408.99, 1457.98 408.46, 1463.46 407.81 C 1468.93 407.17, 1471.93 407.05, 1476.92 407.06 C 1481.91 407.06, 1484.63 407.38, 1488.40 407.84 C 1492.17 408.30, 1493.41 409.14, 1495.78 409.35 C 1498.14 409.56, 1498.93 409.12, 1500.24 408.89 C 1501.55 408.65, 1501.73 408.71, 1502.32 408.19 C 1502.92 407.67, 1503.34 407.12, 1503.21 406.26 C 1503.08 405.41, 1502.92 404.87, 1501.69 403.90 C 1500.46 402.93, 1499.62 401.99, 1497.06 401.41 C 1494.49 400.82, 1492.91 401.04, 1488.85 400.98 C 1484.80 400.92, 1482.00 400.91, 1476.80 401.12 C 1471.60 401.33, 1468.55 401.47, 1462.84 402.02 C 1457.12 402.57, 1453.76 402.89, 1448.22 403.87 C 1442.67 404.84, 1439.57 405.59, 1435.13 406.88 C 1430.69 408.17, 1428.44 408.55, 1426.02 410.32 C 1423.59 412.09, 1423.10 414.01, 1423.00 415.73 C 1422.89 417.45, 1424.04 418.45, 1425.51 418.94" style="stroke: black; fill: black;"/></svg>