<?xml version="1.0" encoding="UTF-8" standalone="no"?>
<!-- Uploaded to: SVG Repo, www.svgrepo.com, Generator: SVG Repo Mixer Tools -->

<svg
   xmlns:dc="http://purl.org/dc/elements/1.1/"
   xmlns:cc="http://creativecommons.org/ns#"
   xmlns:rdf="http://www.w3.org/1999/02/22-rdf-syntax-ns#"
   xmlns:svg="http://www.w3.org/2000/svg"
   xmlns="http://www.w3.org/2000/svg"
   xmlns:sodipodi="http://sodipodi.sourceforge.net/DTD/sodipodi-0.dtd"
   xmlns:inkscape="http://www.inkscape.org/namespaces/inkscape"
   fill="#000000"
   version="1.1"
   viewBox="0 0 128 128"
   xml:space="preserve"
   id="svg18"
   sodipodi:docname="work-together-collaborate-co-operate-join-forces-svgrepo-com.svg"
   inkscape:version="0.92.3 (2405546, 2018-03-11)"><metadata
   id="metadata24"><rdf:RDF><cc:Work
       rdf:about=""><dc:format>image/svg+xml</dc:format><dc:type
         rdf:resource="http://purl.org/dc/dcmitype/StillImage" /></cc:Work></rdf:RDF></metadata><defs
   id="defs22">
	

		
		
		
		
		
		
	</defs><sodipodi:namedview
   pagecolor="#ffffff"
   bordercolor="#666666"
   borderopacity="1"
   objecttolerance="10"
   gridtolerance="10"
   guidetolerance="10"
   inkscape:pageopacity="0"
   inkscape:pageshadow="2"
   inkscape:window-width="1920"
   inkscape:window-height="1009"
   id="namedview20"
   showgrid="false"
   inkscape:zoom="1.3037281"
   inkscape:cx="-286.115"
   inkscape:cy="31.503417"
   inkscape:window-x="-8"
   inkscape:window-y="-8"
   inkscape:window-maximized="1"
   inkscape:current-layer="svg18" />
<g
   id="_x31_">
</g>
<circle
   cx="25.299999"
   cy="45.200001"
   r="8.1999998"
   id="circle3" /><path
   d="M 36.9,86.7 H 23.2 V 76.5 L 16.1,64.4 C 15.8,63.9 16,63.3 16.4,63 c 0.5,-0.3 1.1,-0.1 1.4,0.3 l 8.2,14 c 0.6,1 1.7,1.8 3,1.8 h 14 c 2,0 3.6,-1.7 3.6,-3.6 0,-2 -1.7,-3.6 -3.6,-3.6 L 31.2,72 22,56.4 c -0.7,-1.2 -2.1,-1.9 -3.7,-1.9 -0.2,0 -0.8,0.1 -1,0.1 -0.2,0 -0.6,0.1 -0.8,0.2 -6.8,2.3 -12.2,13.1 -12.2,24.3 -0.1,3.4 0,6.2 0.2,8.9 -0.3,3.2 1.7,6.4 4.8,7.6 0.8,0.3 1.7,0.5 2.5,0.5 h 20.5 v 19.2 c 0,2.6 2.1,4.6 4.6,4.6 2.6,0 4.6,-2.1 4.6,-4.6 V 91.4 C 41.5,90.2 41,89 40.1,88.1 39.2,87.2 38,86.7 36.9,86.7 Z"
   id="path5"
   inkscape:connector-curvature="0" /><rect
   x="28.700001"
   y="80.900002"
   width="69.400002"
   height="3.7"
   id="rect7"
   style="fill:#784421" /><circle
   cx="101.5"
   cy="46"
   r="8.1999998"
   id="circle9" /><path
   d="m 122.6,79.1 c 0,-11.2 -5.4,-22.1 -12.2,-24.3 -0.2,-0.1 -0.6,-0.1 -0.8,-0.2 -0.2,-0.1 -0.8,-0.1 -1,-0.1 -1.7,0 -3,0.7 -3.7,1.9 L 95.6,72.2 83.8,72 c -1.9,0 -3.6,1.6 -3.6,3.6 0,1.9 1.6,3.6 3.6,3.6 h 14 c 1.3,0 2.4,-0.8 3,-1.8 l 8.2,-14 c 0.3,-0.4 0.9,-0.6 1.4,-0.3 0.4,0.3 0.6,0.9 0.3,1.4 l -7.1,12.1 V 86.8 H 90 c -1.1,0 -2.3,0.5 -3.3,1.5 -0.9,0.8 -1.4,2.1 -1.4,3.3 v 23.9 c 0,2.6 2,4.6 4.6,4.6 2.6,0 4.6,-2 4.6,-4.6 V 96.1 H 115 c 0.8,0 1.7,-0.2 2.5,-0.5 3.2,-1.2 5.1,-4.4 4.8,-7.6 0.3,-2.7 0.4,-5.5 0.3,-8.9 z"
   id="path11"
   inkscape:connector-curvature="0" /><g
   id="g922"
   style="fill:#4d4d4d"><g
     id="g910"
     style="fill:#4d4d4d"><g
       id="g899"
       style="fill:#4d4d4d"><g
         id="g889"
         style="fill:#4d4d4d"><g
           id="g880"
           style="fill:#4d4d4d"><g
             id="g872"
             style="fill:#4d4d4d"><g
               id="g865"
               style="fill:#4d4d4d"><g
                 id="g859"
                 style="fill:#4d4d4d"><g
                   id="g854"
                   style="fill:#4d4d4d"><g
                     id="g850"
                     style="fill:#4d4d4d"><path
                       d="m 48.1,26.3 c 1,0.9 2.2,1.4 3.7,1.3 0.5,0 1,-0.1 1.5,-0.3 l 6.3,5.8 -10.4,10.7 c -0.7,0.6 -1.1,1.5 -1.1,2.4 0,1.8 1.4,3.2 3.2,3.2 1.1,0 2,-0.5 2.6,-1.4 l 10,-11 5.9,5.4 1,0.9 c -0.1,0.5 -0.2,1 -0.2,1.5 0.1,1.4 0.6,2.6 1.6,3.6 1,0.9 2.2,1.4 3.7,1.3 0.5,0 0.9,-0.1 1.4,-0.3 l -4.1,-3.7 3.7,-4 4.1,3.7 c 0.1,-0.5 0.2,-1 0.1,-1.4 -0.1,-1.4 -0.6,-2.6 -1.6,-3.5 -1,-0.9 -2.2,-1.4 -3.7,-1.3 -0.5,0 -0.9,0.1 -1.4,0.3 L 67.3,33 71.9,27.6 79.2,34 85.6,26.7 67.4,10.7 61,18 l 7.1,6.2 -4.7,5.1 -6.5,-5.9 C 57,22.9 57.1,22.5 57,22 c -0.1,-1.4 -0.6,-2.6 -1.6,-3.6 -1,-0.9 -2.2,-1.4 -3.7,-1.3 -0.5,0 -1,0.1 -1.4,0.3 l 4.1,3.7 -3.7,4 -4.1,-3.7 c -0.1,0.5 -0.2,1 -0.1,1.4 0,1.4 0.5,2.5 1.6,3.5 z"
                       id="path13"
                       inkscape:connector-curvature="0"
                       style="fill:#4d4d4d" /></g></g></g></g></g></g></g></g></g></g>
</svg>