<?xml version="1.0" encoding="UTF-8" standalone="no"?>
<svg
   version="1.0"
   width="900.000000pt"
   height="864.000000pt"
   viewBox="0 0 900.000000 864.000000"
   preserveAspectRatio="xMidYMid meet"
   id="svg29"
   sodipodi:docname="Caducée_lauriers_Couleur.svg"
   inkscape:version="1.3.2 (091e20e, 2023-11-25, custom)"
   xmlns:inkscape="http://www.inkscape.org/namespaces/inkscape"
   xmlns:sodipodi="http://sodipodi.sourceforge.net/DTD/sodipodi-0.dtd"
   xmlns="http://www.w3.org/2000/svg"
   xmlns:svg="http://www.w3.org/2000/svg">
  <defs
     id="defs29" />
  <sodipodi:namedview
     id="namedview29"
     pagecolor="#ffffff"
     bordercolor="#000000"
     borderopacity="0.25"
     inkscape:showpageshadow="2"
     inkscape:pageopacity="0.0"
     inkscape:pagecheckerboard="0"
     inkscape:deskcolor="#d1d1d1"
     inkscape:document-units="pt"
     inkscape:zoom="0.17643229"
     inkscape:cx="328.73801"
     inkscape:cy="178.53875"
     inkscape:window-width="1920"
     inkscape:window-height="1009"
     inkscape:window-x="-8"
     inkscape:window-y="-8"
     inkscape:window-maximized="1"
     inkscape:current-layer="svg29" />
  <metadata
     id="metadata1">
Created by potrace 1.10, written by Peter Selinger 2001-2011
</metadata>
  <path
     d="m 376.5,124.6 c -1.1,0.2 -4.7,0.9 -8,1.5 -14.1,2.5 -29.2,10.6 -49,26.4 -12.8,10.2 -21,15.7 -42.5,28.4 -4.3,2.5 -25.9,13.2 -32,15.8 -2.5,1.1 -6.3,2.3 -8.3,2.7 -2.1,0.4 -4.1,1.4 -4.4,2.3 -0.9,2.2 6.2,8.3 14.3,12.2 5.3,2.6 7.6,3.1 13.3,3.1 5.9,0 7.6,0.4 10.8,2.6 12.2,8.3 35.2,15.4 50.2,15.4 6.8,0 8.8,0.4 13.9,3 6.9,3.4 12.6,3.9 17.3,1.4 4.2,-2.1 7.1,-1.5 8.8,2.1 0.8,1.6 1.8,3.7 2.2,4.5 0.5,0.8 1.5,2.8 2.3,4.5 0.7,1.6 4.1,6.6 7.5,11 4.2,5.4 5.9,8.4 5.4,9.5 -0.4,0.8 -0.9,6.2 -1.1,11.9 -0.3,10.7 -0.1,11.8 4.7,22.1 2.3,5 11.2,16.9 16,21.3 4.7,4.3 5,5.6 2,8.3 -2.7,2.4 -7.9,10.2 -7.9,11.7 0,0.7 -0.6,2.1 -1.4,3.2 -0.7,1.1 -1.6,4 -1.9,6.5 -0.3,2.5 -1.1,6.9 -1.8,9.8 -1,4.4 -0.9,7 0.5,16 2.6,16.2 7.4,28.1 14.7,36.2 l 3.9,4.4 -3.4,2.8 c -4.6,3.8 -9.9,12.1 -12,19.1 -2,6.5 -1.8,21.7 0.4,29.7 3,10.9 12.3,29.2 16,31.5 1.6,1 1.2,4 -0.8,6.6 -2.7,3.5 -5.2,11.6 -5.2,16.8 0.1,10.3 6.1,26.4 12.4,33 3.3,3.4 3.3,4 -0.4,10.6 -2.7,4.9 -3,6.2 -3,14.9 0,9 0.9,13.2 4.1,18.6 0.5,0.8 1.3,2.4 1.8,3.6 1.3,2.9 12.1,12.4 14.2,12.4 3.6,0 4.4,2.8 4,14.6 -0.3,10.3 -0.1,11.7 1.9,14.9 2.8,4.5 6.3,4.8 8.5,0.5 1.1,-2.2 1.5,-6.3 1.5,-16.8 0,-9.4 0.4,-14.2 1.2,-15 0.7,-0.7 3.5,-1.2 6.3,-1.2 9.3,0 17.1,-7.7 20.7,-20.1 2.9,-10.5 2.1,-17.5 -3.5,-28.6 l -2.1,-4.1 4.7,-5.2 c 2.5,-2.8 5.5,-7 6.6,-9.3 5,-11 5.3,-12.3 5.3,-23.3 0,-9.8 -0.2,-11.5 -2.7,-16.6 -1.5,-3.1 -3.3,-6.2 -4.1,-6.9 -2.2,-1.8 -1.7,-3.5 2.3,-6.9 4.6,-4.1 12.2,-12.8 13.4,-15.5 0.5,-1.1 1.3,-2.7 1.8,-3.5 3.7,-6.3 7.1,-17.8 7.1,-24.2 0,-2.7 -0.9,-8 -2,-11.7 -1.8,-5.7 -3.1,-7.8 -8.5,-13.4 -3.6,-3.6 -6.5,-7.1 -6.5,-7.7 0,-0.5 2.2,-2.6 4.8,-4.4 7.1,-5.2 12.1,-12.7 16.4,-25.1 3,-8.6 3.2,-32.4 0.3,-40.5 -2.4,-6.7 -8,-15.6 -11.1,-17.7 -3.7,-2.4 -2.9,-4.8 3.4,-11 6.5,-6.5 14.1,-16.3 16.1,-20.8 2.5,-5.6 4.3,-14 4.5,-21.2 0.3,-7.1 1.6,-10.3 4.1,-10.3 1.8,0 8.3,-7.4 13.8,-15.7 2.7,-4 5.4,-7.6 6,-8 0.7,-0.4 8.9,-0.6 18.3,-0.4 17.3,0.3 26.5,-0.9 33.4,-4.4 9.5,-4.7 13.1,-5.4 18.9,-3.4 3.4,1.2 9.7,-0.1 13.1,-2.6 2.9,-2.1 9.1,-4.5 11.7,-4.5 3.5,0 12.6,-2.7 18.9,-5.5 6.7,-3.1 12.1,-9.6 12.6,-15 l 0.3,-4 -8.7,0.4 c -7,0.2 -9,0 -10.3,-1.3 -0.9,-0.9 -2.5,-1.6 -3.4,-1.6 -1,0 -2.4,-0.7 -3.1,-1.5 -0.7,-0.8 -2,-1.5 -3,-1.5 -1,0 -2.3,-0.7 -3,-1.5 -0.7,-0.8 -1.6,-1.5 -2.1,-1.5 -2,0 -28.2,-19.2 -42.9,-31.5 -28.6,-23.9 -47.5,-35.2 -64.5,-38.5 -6.7,-1.3 -19.3,-1 -16,0.4 4,1.6 9.1,3.4 15,5.2 7,2.2 22.5,10 30.9,15.5 3.2,2.1 6,3.9 6.2,3.9 0.3,0 4.8,3.2 10.2,7.2 5.3,3.9 12,8.8 14.7,10.8 2.8,2 9.3,6.7 14.5,10.6 13.8,10.1 18.6,13.2 27.5,17.8 2.8,1.5 5.7,3 6.5,3.4 5.3,2.9 8.4,4.2 10.2,4.2 1,0 2.6,0.7 3.4,1.5 0.9,0.8 2.8,1.5 4.4,1.5 4.5,0 4.4,1.5 -0.2,5.3 -6.1,4.9 -13.7,6.5 -22.6,4.7 -6.2,-1.2 -16.9,-5.7 -23.4,-9.8 -6.9,-4.4 -16.6,-11.2 -19.3,-13.6 -1.6,-1.4 -8.2,-6.5 -14.7,-11.4 -11.9,-8.9 -13.2,-10.4 -14.4,-16.6 -1.5,-8.2 -5.1,-4.9 -6,5.4 -1.2,13.2 -4.8,18.4 -16.9,24.2 -6.3,3 -7.9,3.3 -16,3.4 h -8.9 l -0.3,5.8 c -0.3,7.2 -3.9,13.6 -10.8,18.8 -9.3,7.1 -24.3,9.9 -33.5,6.2 l -4.1,-1.6 0.3,-14.7 c 0.3,-12.4 0.5,-14.5 1.8,-14.2 0.8,0.2 3.1,0.8 5.1,1.3 6.1,1.6 15,-1.6 20.9,-7.5 6.5,-6.5 6.6,-7.6 1.4,-12.6 -7.3,-6.9 -8.9,-10.9 -8.9,-23.1 0,-11.1 0.7,-13.5 6.3,-20.8 1.4,-1.8 2.2,-3.5 1.8,-3.9 -1.1,-1.2 -6,3.2 -10.1,9.1 l -4,5.8 0.1,10.8 c 0,10.9 0.3,12.3 5.3,23 0.9,1.9 2.2,4.3 2.9,5.2 2.5,3 1,4.9 -5.3,6.9 -6.9,2.2 -10.7,2.4 -13.8,0.8 -3.4,-1.8 -3.7,-2.8 -3.7,-12.2 0,-7.4 0.5,-10 2.9,-16 5.5,-13.7 6.1,-15.8 6.1,-20.8 0,-12.9 -10.5,-21.9 -25.7,-21.9 -10.2,0 -15.4,2.8 -20.6,11.2 -2.8,4.5 -2.3,15.9 1.2,25.6 3.3,9 4.7,18.9 3.6,25.7 -0.5,3.7 -1.2,5 -3.8,6.6 -5.8,3.5 -14.7,1.5 -19,-4.3 l -2,-2.7 3.6,-4 c 7.8,-8.7 9.1,-11.7 9.1,-21.6 0.1,-6.9 -0.4,-10.1 -1.9,-13.5 -3.7,-8.5 -11.2,-16.7 -18.9,-20.7 -6.1,-3.2 -20,-5.8 -25.1,-4.7 z m 18,7.5 c 14.2,5 21.5,14.1 21.5,26.8 0,8.5 -2,12.9 -9.1,20.2 -2.7,2.8 -4.9,5.3 -4.9,5.7 0.1,1.6 2.7,7.9 4.4,10.4 3.5,5.3 8.2,7.2 18.1,7.3 l 9,0.1 0.3,12.4 c 0.4,19.7 0.3,20 -13.8,20 -9.4,0 -13.5,-0.9 -19,-4.1 -0.8,-0.5 -2.4,-1.3 -3.5,-1.8 -3.1,-1.4 -7.8,-7.7 -9.6,-12.8 -1.2,-3.4 -1.4,-5.5 -0.7,-8.6 1,-4.5 0.1,-5.7 -4.2,-5.7 -6.5,0 -18.9,-5.8 -24.5,-11.4 -5.7,-5.7 -8.3,-11.6 -9.1,-20.9 -0.6,-6.3 -1,-7.7 -2.4,-7.7 -0.9,0 -10.9,6.9 -22.1,15.3 -11.2,8.4 -21.1,15.6 -21.9,16 -0.8,0.4 -2.8,1.6 -4.5,2.6 -5.4,3.5 -15.3,8 -23,10.5 -6,1.9 -31.9,2.3 -33.1,0.5 -1.1,-1.8 1.2,-3.3 18.6,-12.2 31,-15.9 42.5,-23 66.4,-41 11.2,-8.4 25.6,-17.7 27.5,-17.7 0.5,0 2.2,-0.6 3.8,-1.4 9.7,-5 25.7,-6.1 35.8,-2.5 z m 68.3,4.5 c 2.3,1.9 4.2,4.4 4.2,5.5 0,2.5 -0.8,2.4 -3.7,-0.7 -3.3,-3.6 -4.9,-2.7 -4.5,2.6 0.6,6.8 -0.6,10.5 -4.3,14.1 -1.9,1.9 -3.5,3.7 -3.5,4.1 0,1.5 7.5,0.7 9.5,-1 2.8,-2.3 6.5,-9.7 6.5,-12.7 0,-3.3 1.8,-3.2 2.6,0.1 1.2,4.6 -2.6,14.3 -6.9,17.7 -3.3,2.7 -4.4,3 -10.3,2.9 -4.5,0 -7.1,-0.6 -8.3,-1.6 -1,-0.9 -2.1,-1.6 -2.5,-1.6 -1.5,0 -7,-7.1 -8.3,-10.7 -1.6,-4.9 -1.6,-7.3 0.1,-11.4 2.8,-6.8 9.8,-10.7 19.2,-10.8 5.5,-0.1 6.4,0.2 10.2,3.5 z m -8.9,39 6.1,0.7 v 8.1 c 0,11.6 -1.8,54 -3.5,82.6 -0.8,13.5 -1.6,28.2 -1.8,32.7 -0.1,4.5 -0.6,8.5 -1,8.9 -1.1,1.1 -10.8,-1.6 -14,-4 l -2.9,-2.1 0.6,-12 c 0.3,-6.6 0.9,-34.9 1.2,-63 0.3,-28 0.8,-51.3 1.1,-51.7 0.5,-1 6,-1 14.2,-0.2 z m -111.6,5.1 c 0.9,2.1 1.9,4.8 2.2,6 0.6,2.3 -0.9,6.3 -2.5,6.3 -0.9,0 -14.7,9.4 -22.6,15.4 -3.9,3 -10.4,6.5 -18.7,10 -4.4,1.9 -22.2,2.3 -23.2,0.5 -0.8,-1.2 1.8,-3.2 8.5,-6.8 4.6,-2.4 16.1,-10 39.5,-26.1 7.2,-5 13.5,-9 14.1,-9 0.6,0 1.8,1.7 2.7,3.7 z m 230.9,11.5 c 8.3,5.9 30.1,22.2 39.8,29.9 8.8,6.9 10,8.9 5.2,8.9 -12.1,0 -33.5,-9.7 -44.9,-20.3 -5.1,-4.8 -9.9,-12.7 -10.7,-17.5 -1.2,-7.9 0.7,-8.1 10.6,-1 z m -218.8,6.9 c 1.4,1.7 2.6,3.4 2.6,3.9 0,1 -15.9,15.7 -18.8,17.3 -12.2,6.9 -17.4,8.7 -25.4,8.7 -3.7,0 -6.9,-0.4 -7.2,-0.8 -0.5,-0.8 6.3,-6 23,-17.7 3.1,-2.2 8.8,-6.8 12.6,-10.2 7.7,-6.9 8.4,-7 13.2,-1.2 z m 206.8,9.1 c 7,5.9 15.2,12.5 24.5,19.6 5.7,4.3 8.3,7.6 7,8.9 -0.9,0.8 -16,-1.8 -20.2,-3.5 -7.6,-3.1 -17.2,-11.3 -24,-20.4 -3.1,-4.3 -2.8,-6 1.2,-8.1 4.2,-2.2 4.7,-2.1 11.5,3.5 z m -187,-0.5 c 1.4,1.3 1.5,1.9 0.3,4.6 -4.5,10.7 -21.5,21.6 -33.7,21.7 -4.6,0 -4.4,-0.2 8.2,-14.4 12.2,-13.7 19.4,-17.1 25.2,-11.9 z m 165.2,4.7 c 1.4,1.9 2.6,3.8 2.6,4.2 0,0.9 5.5,7.6 12.4,14.9 5.9,6.3 6.8,9.2 2.6,8.8 -11.6,-1.1 -27.9,-12.4 -31.1,-21.6 -1.2,-3.3 -1.1,-3.9 0.4,-5.5 1.7,-1.6 6.9,-4 9.3,-4.1 0.7,-0.1 2.3,1.4 3.8,3.3 z m -145.9,22.1 c 9.5,7.2 16.9,9.5 30.3,9.5 h 10.3 l -0.3,3.2 c -0.3,2.8 -0.7,3.3 -2.8,3.1 -1.4,-0.2 -8.3,-0.3 -15.5,-0.3 -14.4,-0.1 -20.2,1.3 -25.5,6.3 -1.6,1.5 -3.3,2.7 -3.9,2.7 -0.5,0 -3,-1.4 -5.5,-3 -4.7,-3.2 -10.2,-9.9 -13.2,-16.2 -1.5,-3.2 -1.5,-4.1 -0.3,-7 0.7,-1.8 3.6,-5.5 6.3,-8.2 l 5,-4.8 5.6,5.8 c 3,3.3 7.3,7.2 9.5,8.9 z m 138.5,3.2 c 4,5.6 4,5.6 2.2,8.4 -3.4,5.5 -13.4,15.9 -15.7,16.5 -1.7,0.4 -3.4,-0.2 -6.2,-2.5 -4.6,-3.7 -11,-7.1 -13.4,-7.1 -0.9,0 -3,-0.7 -4.5,-1.5 -2.2,-1.1 -6.3,-1.5 -16,-1.5 -10.8,0 -13.3,-0.3 -13.8,-1.5 -1.5,-3.9 0.2,-4.5 12.2,-4.5 18.4,0 31.2,-4.9 40,-15.2 l 2.4,-2.8 4.3,3 c 2.4,1.7 6.2,5.6 8.5,8.7 z m -107.7,17.5 c 2.1,0.8 4.8,2.4 5.9,3.6 2,2 2,2.2 0.5,4.6 -0.9,1.3 -3.3,3.7 -5.3,5.2 -3.4,2.6 -4.4,2.8 -12.5,2.8 -6.5,0 -9.2,-0.4 -10.6,-1.5 -6.4,-5.6 -9.1,-1.5 -5.8,8.8 3.3,10.1 6.8,14.5 16.5,20.8 6.7,4.3 17,8.9 27.5,12.4 3.3,1.1 8.5,3 11.5,4.1 3,1.2 6.9,2.6 8.5,3.1 5.1,1.5 20.4,9.7 24.6,13.1 9.5,7.8 16.1,20.1 17.5,32.5 0.6,5 -2.1,17.3 -4.8,22.3 -4.8,8.7 -7.8,12.2 -16.7,19 -3.3,2.6 -5.3,3.4 -8.1,3.3 -5.2,-0.2 -15,-6.1 -15,-9.1 0,-0.7 2.6,-4.8 5.8,-9 8.5,-11.4 9.7,-14.3 9.6,-22.6 0,-5.9 -0.5,-7.8 -2.6,-11.2 -3.9,-6.1 -13.4,-13.2 -24.8,-18.5 -4.1,-2 -16.2,-7.5 -20.5,-9.4 -3.6,-1.6 -17.1,-8.2 -20.3,-10 -1.2,-0.6 -4.9,-3.3 -8.2,-5.8 -19,-14.8 -21.5,-35 -6.3,-51.5 2.4,-2.6 8.7,-6.4 14.3,-8.5 2.7,-1.1 15.4,-0.1 19.3,1.5 z m 74.3,1.4 c 4,2 8.9,5.7 11.7,8.6 4.6,5 4.7,5.2 4.7,11.7 0,4.3 -0.8,9.2 -2.3,13.7 -8.4,25.8 -29,37.4 -45.9,26 -3.4,-2.2 -3.6,-5.3 -0.5,-6.6 2.3,-1 3.1,-1.5 10.5,-6.3 2.4,-1.5 4.7,-2.7 5.1,-2.7 2.3,0 14.4,-12.7 16.5,-17.4 5.5,-11.8 5.7,-17.3 0.5,-14.5 -1.3,0.7 -5.3,1.8 -8.9,2.5 -11.3,2.1 -21.3,-1 -24,-7.7 -1.4,-3.3 -1,-4.2 4.2,-8 3.8,-2.7 4.8,-2.9 12.8,-2.9 8,0 9.3,0.3 15.6,3.6 z m -64.8,20.1 c 0.4,7 -0.9,11.7 -3.4,12.1 -2,0.3 -13.8,-5 -14.9,-6.7 -0.3,-0.5 1.8,-2.1 4.7,-3.5 2.9,-1.4 6.7,-3.6 8.3,-5 1.7,-1.4 3.5,-2.4 4,-2.2 0.6,0.1 1.1,2.5 1.3,5.3 z m 33.4,-3.9 c 0.4,1 9,6.2 15,9.1 5.6,2.7 6.2,3.4 5.4,6.6 -0.9,3.4 -6.3,8.1 -14,12 -7.8,4.1 -10.1,4.3 -11.7,1.4 -1.4,-2.6 1,-6.2 5.6,-8.6 1.7,-0.9 3.7,-2 4.5,-2.5 0.8,-0.4 2.5,-1.3 3.8,-1.8 1.3,-0.5 2,-1.4 1.7,-2 -0.9,-1.5 -4.1,-1.2 -5.5,0.5 -0.7,0.8 -2.8,1.5 -4.6,1.5 H 464 v -8.5 c 0,-6.7 0.3,-8.5 1.4,-8.5 0.8,0 1.6,0.4 1.8,0.8 z m -48.9,15.5 c 2.1,0.8 4.3,1.9 4.9,2.5 0.7,0.7 1.7,1.2 2.2,1.2 1.5,0 7.6,6.2 7.6,7.7 0,3.5 -12.2,-1 -17.1,-6.4 -4.9,-5.5 -5.4,-6.3 -3.3,-6.3 1.1,0 3.6,0.6 5.7,1.3 z m 0.2,49.2 c 3.3,1.8 6.1,4 6.3,4.9 0.2,0.8 -0.9,3.7 -2.4,6.3 -6.5,11.8 -6.9,23.2 -1.2,33.9 1.9,3.4 12,13.1 15.2,14.5 1.2,0.5 3.7,1.9 5.6,3 1.9,1.2 5.5,3.2 8,4.6 18.3,9.9 26.6,15.6 33.2,22.5 7.3,7.8 10.2,14.5 10.6,25.2 0.7,16 -4.6,28 -16.4,37.3 -5.8,4.6 -10.1,4.5 -16.5,-0.5 -2.6,-2 -5.1,-4.4 -5.4,-5.3 -0.3,-1 0.7,-3.6 2.3,-6 8.2,-12.5 8.3,-23.3 0.4,-33.7 -2.3,-3 -14.8,-13 -18.2,-14.5 -0.8,-0.4 -2.8,-1.6 -4.5,-2.7 -1.6,-1.1 -3.7,-2.3 -4.5,-2.7 -0.8,-0.4 -3.5,-2 -6,-3.7 -21.9,-14.5 -29.9,-24.2 -34.1,-41.6 -2.3,-9.1 -2.3,-11.5 -0.4,-17 0.8,-2.3 1.5,-5.6 1.5,-7.2 0,-3 2,-6 10.5,-16 4.9,-5.9 7.5,-6.1 16,-1.3 z m 31.8,16.9 c 1.9,1.2 2.2,6.9 1,28.8 -0.5,11.1 -0.8,12.8 -2.3,12.8 -2.5,0 -7.9,-2.9 -8.8,-4.8 -0.8,-1.6 -1.6,-18.8 -1.7,-34 0,-7.8 1.4,-9 6.5,-6 1.9,1.2 4.3,2.7 5.3,3.2 z M 434,371 c 0,8.1 -0.4,13.1 -1.1,13.5 -1.2,0.8 -3.4,-1.7 -5.4,-6.4 -3.6,-8 0,-22.4 5.1,-20.4 1.1,0.4 1.4,3.3 1.4,13.3 z m 31.3,-3.5 c 3.6,7.5 0.6,18.4 -4.9,18.5 -1.5,0 -2.9,-14.5 -1.9,-18.9 1,-4.5 4.6,-4.3 6.8,0.4 z m -52.2,58.7 c 4.4,2.3 16.9,10.9 16.9,11.6 0,0.4 -1.1,2.5 -2.3,4.7 -4.1,7.1 -5.1,12.6 -3.6,18.6 1.1,4.4 2.6,6.5 7.9,11.9 6.8,6.9 13.1,12.2 18.4,15.4 5.2,3.1 17.3,14.4 21.3,19.9 5,6.8 6.5,10.8 7,19.1 0.5,7.4 -1.2,13.6 -5.1,18.9 -3.4,4.6 -12.1,9.8 -16.8,10 -3.8,0.2 -4.2,0 -5,-2.8 -1.1,-3.8 -0.1,-14 1.8,-17.6 2.1,-4.2 1.7,-6.7 -1.8,-11.3 -4.9,-6.1 -8.9,-9.7 -23.8,-21.1 -7.4,-5.6 -15.8,-12.7 -18.7,-15.6 -11.3,-11.8 -15.9,-28.8 -11.9,-43.4 1.8,-6.5 3.7,-10.1 8.1,-15.3 4,-4.7 4.3,-4.7 7.6,-3 z m 32.6,21 c 2.2,2 2.3,2.8 2.3,15.4 0,11.1 -0.3,13.5 -1.8,15.4 l -1.7,2.1 -2.5,-2.6 c -2.3,-2.4 -2.5,-3.4 -2.8,-16 -0.3,-7.4 -0.2,-14.1 0.2,-15 0.8,-2.1 3.6,-1.9 6.3,0.7 z m -11.2,12.5 c -0.8,4.6 -1.3,5.5 -2.6,4.8 -1,-0.7 -1.2,-6.8 -0.2,-7.8 0.3,-0.4 1.3,-0.7 2.1,-0.7 1.1,0 1.3,0.8 0.7,3.7 z M 458,463 c 0,5 -1.5,7.4 -3.1,4.9 -1.2,-1.9 -1.1,-5.2 0.1,-8.4 1.5,-3.9 3,-2.1 3,3.5 z m -39.5,48 c 1.4,0.5 3.8,2.1 5.3,3.5 1.5,1.4 3,2.5 3.4,2.5 0.5,0 0.8,4.4 0.8,9.7 v 9.8 l 5,5.2 c 2.7,2.9 5.3,5.3 5.7,5.3 0.5,0 0.8,-4.6 0.8,-10.2 0,-8.6 0.3,-10.3 1.6,-10.6 1.1,-0.2 2.3,1 3.4,3.4 1.5,3.1 1.6,4.9 0.9,10.8 -0.8,6.1 -1.2,7.1 -3.1,7.6 -2,0.4 -0.9,1.8 9.5,12.5 13.9,14.2 17.7,20.5 17.7,29.7 -0.1,3.2 -0.6,6.3 -1.3,7 -0.7,0.7 -1.2,1.8 -1.2,2.5 0,1.6 -4,7.3 -5.2,7.3 -0.4,0 -0.8,-3.1 -0.8,-6.9 0,-5 -0.6,-8.3 -2.4,-12.2 -3.8,-8.7 -6.6,-11.2 -34.1,-30.9 -13.2,-9.4 -17.5,-16.4 -17.5,-28.2 0,-7.1 2.3,-16.4 4.5,-18 1.4,-1.1 3.9,-1 7,0.2 z m 7.9,59.6 c 1.7,0.7 2.2,3.9 0.7,4.8 -1.5,1 -4.8,8.7 -6.1,14.4 -0.8,3.3 -1,7.7 -0.5,11.5 l 0.7,6.2 -2.4,-2.3 c -5.6,-5.2 -7.6,-21.6 -3.7,-29.2 2.9,-5.5 6.5,-7.2 11.3,-5.4 z m 7.8,26.9 c -0.2,7.7 -0.8,14.4 -1.2,14.9 -0.5,0.4 -1.8,-1.1 -3.1,-3.5 -4.4,-8.6 -2.3,-26.7 3,-25.7 1.4,0.3 1.6,2.1 1.3,14.3 z m 18.6,-6.8 c 1.9,3.7 2.2,10 0.7,15.1 -1.7,5.5 -3.2,7.3 -4.6,5.1 -1,-1.6 -1.2,-20.2 -0.2,-21.2 1.2,-1.3 3.2,-0.7 4.1,1 z m -10.1,16 c 0.6,13 -0.4,29.2 -1.7,25.8 -1,-2.8 -2.3,-35.7 -1.4,-37.9 1.5,-3.8 2.6,0.6 3.1,12.1 z"
     id="path1"
     style="fill:#333333;stroke:none;stroke-width:0.1" />
  <path
     d="m 407.5,257 c -1,1.6 1.4,4 4,4 2.3,0 6,-3.2 4.8,-4.3 -1,-1.1 -8.1,-0.8 -8.8,0.3 z"
     id="path2"
     style="fill:#000000;stroke:none;stroke-width:0.1" />
  <path
     d="m 480.7,256.7 c -1.2,1.1 2.5,4.3 4.8,4.3 2.6,0 5,-2.4 4,-4 -0.7,-1.1 -7.8,-1.4 -8.8,-0.3 z"
     id="path3"
     style="fill:#000000;stroke:none;stroke-width:0.1" />
  <path
     d="m 107.6,178.2 c -0.2,0.7 -1.2,4.7 -2.1,8.8 -0.9,4.1 -2.2,9.7 -3,12.5 -7.9,29.7 -8.9,51.9 -2.9,67.7 4.5,12.2 7,16.7 8.9,16.7 2.4,0.1 12.2,-15.8 16.2,-26.4 6.4,-16.5 6.7,-18 6.7,-33.6 0.1,-15.7 -0.1,-16.4 -6.7,-29.7 -2,-3.9 -5.4,-8.5 -8.9,-11.8 -5.7,-5.5 -7.6,-6.4 -8.2,-4.2 z"
     id="path4"
     style="fill:#008000;stroke-width:2;stroke-dasharray:none" />
  <path
     d="m 768.8,181.2 c -7.6,7.2 -11.6,13.2 -14.9,23 -2.9,8.4 -3.1,30.1 -0.4,39.3 5.1,17.5 17.6,40.9 21.4,40.2 1.4,-0.2 5.4,-7.2 8,-13.7 2.2,-5.7 5.1,-21.5 5.1,-28 0,-7.7 -2.9,-24.7 -7.5,-43 -0.7,-3 -2.2,-9.1 -3.2,-13.4 -1.1,-4.4 -2.3,-8.1 -2.9,-8.3 -0.5,-0.2 -3,1.6 -5.6,3.9 z"
     id="path5"
     style="fill:#008000;stroke:none;stroke-width:0.1" />
  <path
     d="m 59.6,251.7 c -1,1 -0.7,12.5 0.4,18.4 0.6,3 1.5,9 2,13.4 2.2,20.1 8,40.9 15.4,55.5 5.7,11.4 18.8,24.9 24.3,25 1.9,0 2.2,-0.7 2.9,-6.8 1.6,-15.4 -0.7,-41 -5.3,-57.2 -6.1,-21.9 -17.6,-39.3 -29.5,-44.8 -7.1,-3.2 -9.6,-4.1 -10.2,-3.5 z"
     id="path6"
     style="fill:#008000;stroke:none;stroke-width:0.1" />
  <path
     d="m 819,252.6 c -8.7,2.8 -18.3,11.3 -24.3,21.3 -11.8,19.9 -18.4,52.9 -16.2,81.1 0.8,10.2 1.7,11 7.8,6.8 14.4,-10 23.3,-25.6 30,-52.3 2.8,-10.9 4.7,-21 4.7,-24 0,-1.7 0.7,-6.5 1.5,-10.8 0.8,-4.3 1.5,-11.2 1.5,-15.3 0,-7.8 -0.4,-8.3 -5,-6.8 z"
     id="path7"
     style="fill:#008000;stroke:none;stroke-width:0.1" />
  <path
     d="m 151.5,300.7 c -13.2,16.6 -25.4,40.2 -30.8,59.3 -4.2,14.6 -4.7,17.9 -4.7,31.1 0,17.1 1.9,23.5 9.9,33.8 3.2,4.1 3.5,4.2 4.8,2.5 1.4,-1.9 17.3,-34.1 20.1,-40.4 0.8,-1.9 2.1,-4.8 2.8,-6.3 0.8,-1.6 1.4,-3.5 1.4,-4.4 0,-0.8 0.6,-2.7 1.4,-4.1 1.5,-2.9 3.5,-9.3 5.9,-18.7 3.9,-15.2 4.7,-29.2 2.3,-40.5 -1.4,-7 -6.1,-18 -7.7,-18 -0.5,0 -2.9,2.6 -5.4,5.7 z"
     id="path8"
     style="fill:#008000;stroke:none;stroke-width:0.1" />
  <path
     d="m 724.3,297.7 c -3.9,5.9 -7.3,19.8 -7.3,29.3 0.1,9.6 3.6,28.6 6.6,35.8 0.8,1.8 1.4,3.9 1.4,4.7 0,0.8 0.6,2.9 1.4,4.7 0.8,1.8 2.4,5.8 3.6,8.8 6,15 22,47 23.5,47 2.7,0 8.9,-9.3 11.9,-17.8 1.5,-4.2 1.9,-8.3 1.8,-18.8 0,-14.2 -1.2,-21.1 -5.9,-34.9 -1.4,-3.9 -2.8,-8.4 -3.3,-10 -3.6,-11.7 -27.8,-51.5 -31.4,-51.5 -0.3,0 -1.4,1.2 -2.3,2.7 z"
     id="path9"
     style="fill:#008000;stroke:none;stroke-width:0.1" />
  <path
     d="m 50.6,328.8 c -1.2,1.1 -0.6,20.7 1,31.1 1.9,13.4 4.2,25.3 6,31.1 2.6,8.7 5.4,17.1 6.3,18.8 4.5,8.9 6,11.6 9.7,17.3 4.5,6.8 19.7,22.2 23.7,23.9 1.2,0.6 4.1,2.2 6.5,3.6 6.2,3.6 7.4,2.8 6.6,-4.3 -1.7,-17.2 -8.6,-47.5 -14.1,-61.8 -0.8,-2.2 -2.2,-5.8 -3.1,-8 -1.8,-4.7 -4.8,-11.2 -6.5,-14 -7,-11.6 -11.1,-17.1 -17.1,-23.4 -7,-7.2 -17.9,-15.5 -19,-14.3 z"
     id="path10"
     style="fill:#008000;stroke:none;stroke-width:0.1" />
  <path
     d="m 825,333.2 c -8.9,6.7 -13.2,11 -19.5,19.4 -12.6,16.6 -21.9,39.9 -27.9,69.4 -2.2,10.8 -4.4,23.7 -5,29.3 -0.7,6.3 0.6,6.7 8.1,2.6 12,-6.6 24.1,-18.5 32,-31.4 2.1,-3.4 8.3,-16.5 8.3,-17.5 0,-0.5 0.6,-2.4 1.4,-4.2 3.1,-7.2 6.4,-21.6 9.1,-39.5 1.6,-10.6 2.1,-31.9 0.8,-32.6 -0.5,-0.3 -3.7,1.8 -7.3,4.5 z"
     id="path11"
     style="fill:#008000;stroke:none;stroke-width:0.1" />
  <path
     d="m 156.5,407.4 c -0.8,1.9 -1.5,4.7 -1.5,6.2 0,1.4 -0.8,5.4 -1.7,8.8 -2.5,9.4 -2.5,54.1 0,64.6 4.4,17.9 6.5,23.8 12.7,37 6,12.8 18.7,32 21.1,32 2.2,0 5,-7.9 6.9,-19.5 0.4,-2.8 1.3,-7 2.1,-9.5 2,-7.2 1.7,-45.7 -0.5,-54 -5.1,-19.5 -10.2,-32.5 -16.6,-42.5 -1.1,-1.7 -2.4,-3.9 -2.9,-5 -1.6,-3.3 -15.5,-20.8 -16.9,-21.3 -0.7,-0.2 -1.9,1.2 -2.7,3.2 z"
     id="path12"
     style="fill:#008000;stroke:none;stroke-width:0.1" />
  <path
     d="m 717.2,411.7 c -6,7.5 -14.4,20.3 -16.3,24.7 -0.5,1.1 -1.3,2.8 -1.8,3.6 -3.6,6.1 -8.4,20.1 -11.7,33.9 -2.1,9 -2.4,44.7 -0.4,52.1 0.7,2.5 1.6,7 2.1,10 1.4,9.2 4.3,18.2 6.1,19.4 1.4,0.8 2.1,0.6 3.3,-0.9 1.9,-2.5 10.6,-15.4 12.1,-18 2.7,-4.6 11.4,-22.4 11.4,-23.4 0,-0.6 0.6,-2.5 1.4,-4.3 7.3,-17.2 10.5,-44.7 8.2,-70.3 -0.8,-8.8 -2,-17.6 -2.5,-19.5 -0.6,-1.9 -1.1,-4.8 -1.1,-6.5 0,-3.3 -1.9,-7.6 -3.6,-8.2 -0.6,-0.2 -3.9,3.1 -7.2,7.4 z"
     id="path13"
     style="fill:#008000;stroke:none;stroke-width:0.1" />
  <path
     d="m 50.6,442.8 c -0.9,1.4 3.4,14.8 7.7,24.2 7.1,15.7 22.4,31 42.4,42.5 4.3,2.5 8.5,5 9.3,5.5 6.4,3.8 39.6,20 41.1,20 1.7,0 1.9,-0.5 1.4,-3.8 -1.1,-6.5 -3.6,-13.8 -8.2,-23.7 C 136.9,491.4 121.1,475.9 98.5,462.3 93.3,459.2 75,450.6 66,447 c -3,-1.1 -6.8,-2.8 -8.3,-3.6 -3.2,-1.6 -6.3,-1.8 -7.1,-0.6 z"
     id="path14"
     style="fill:#008000;stroke:none;stroke-width:0.1" />
  <path
     d="m 825,443.7 c -1.9,0.9 -5,2.2 -6.7,2.9 -7.4,3.1 -10.5,4.4 -13.6,5.7 -4.8,2.1 -16.9,8.3 -20.8,10.6 -1.9,1.2 -4.1,2.4 -4.9,2.8 -1.4,0.6 -4.6,2.9 -13.5,9.5 -5.5,4.2 -17.5,16.9 -21,22.3 -3.9,6.2 -10.5,19.9 -10.5,21.9 0,0.7 -0.7,3 -1.5,4.9 -2,4.7 -2,10.7 -0.1,10.7 1.2,0 37.9,-18.2 46.6,-23.1 18.3,-10.4 34.6,-25 42.7,-38.4 5,-8.2 12.1,-28.4 10.8,-30.5 -0.9,-1.4 -3.4,-1.1 -7.5,0.7 z"
     id="path15"
     style="fill:#008000;stroke:none;stroke-width:0.1" />
  <path
     d="m 73.6,520.9 c -0.6,0.9 0.3,4.2 1.3,5.1 0.3,0.3 1.7,2.1 3.1,4 12.2,17.5 35.9,39.9 52.5,49.6 2.7,1.6 5.9,3.4 7,4.1 1.1,0.7 3,1.7 4.3,2.3 1.3,0.5 4.6,2 7.5,3.3 14.6,6.7 28.5,10.3 47.7,12.7 10.8,1.3 11,1.3 11,-0.5 0,-2 -10.4,-17.8 -17.5,-26.5 -7.9,-9.6 -29,-28.8 -34.5,-31.3 -0.8,-0.4 -2.8,-1.6 -4.5,-2.7 -4.3,-2.7 -14.6,-8.1 -17.5,-9 -1.4,-0.5 -4.9,-1.8 -7.9,-2.9 C 117.9,526 105.7,523.3 94,522 75.3,520 74.2,519.9 73.6,520.9 Z"
     id="path16"
     style="fill:#008000;stroke:none;stroke-width:0.1" />
  <path
     d="m 802,520.6 c -28.5,2.6 -41.7,5.9 -60.5,15.1 -14.3,7.1 -23.7,13.7 -35.7,25.6 -14.2,13.9 -32.8,39 -30.6,41.3 0.8,0.7 18.4,-1.3 27.3,-3.2 15.7,-3.3 24.8,-6.5 39.5,-13.9 6.6,-3.3 20.6,-11.9 22,-13.5 0.3,-0.3 2.5,-2.1 5,-4 10.6,-8 24,-21.9 33.9,-35 7.7,-10.3 8.4,-11.7 6.5,-12.4 -0.9,-0.3 -2.1,-0.5 -2.7,-0.4 -0.7,0 -2.8,0.3 -4.7,0.4 z"
     id="path17"
     style="fill:#008000;stroke:none;stroke-width:0.1" />
  <path
     d="m 209.6,524.7 c -1.9,2 2.3,27.3 6.5,39.8 0.6,1.6 1.5,4.3 1.9,6 1.8,6.3 7.4,20.1 10,24.5 0.5,0.8 2,3.6 3.4,6.2 3.2,5.9 9.1,15.1 10.8,16.9 0.7,0.8 3.3,3.9 5.8,6.9 8.9,10.8 21.7,22.3 34.1,30.3 5.9,3.9 7.8,4.5 8,2.4 1.2,-13.8 -4.2,-42.4 -11.2,-59.2 -2.2,-5.4 -8,-16.9 -9.9,-20 -1.1,-1.7 -2.3,-3.7 -2.7,-4.5 -1.6,-3.6 -10.3,-14.1 -17.7,-21.6 -7.4,-7.4 -23.5,-20.4 -25.2,-20.4 -0.4,0 -1.5,-0.6 -2.3,-1.4 -2.7,-2.3 -10.9,-6.5 -11.5,-5.9 z"
     id="path18"
     style="fill:#008000;stroke:none;stroke-width:0.1" />
  <path
     d="m 669.5,526.1 c -1.6,1 -3.7,2.2 -4.5,2.6 -0.8,0.4 -3.5,2 -6,3.7 -16.4,10.9 -33,27.1 -41.6,40.6 -8,12.7 -16,30.5 -18.4,41 -0.4,1.9 -1.2,5.5 -1.8,8 -2.9,11.8 -4.2,20.8 -4.2,28.4 0,4.5 0.3,8.5 0.6,8.9 1.5,1.5 22.3,-14.1 32.9,-24.8 14.9,-14.9 24.3,-29.1 33.9,-51 8,-18.2 16.2,-55.5 13,-58.5 -0.5,-0.4 -2.2,0.1 -3.9,1.1 z"
     id="path19"
     style="fill:#008000;stroke:none;stroke-width:0.1" />
  <path
     d="m 144.5,604.1 c -6.5,0.8 -12.9,2.9 -14.7,4.7 -0.7,0.7 -1.7,1.2 -2.3,1.2 -1.6,0 -5.5,4.3 -5.5,6.2 0,1.2 14.9,11.9 21,15.1 0.8,0.4 2.9,1.6 4.5,2.7 1.7,1.1 3.9,2.4 5,3 1.1,0.6 4.7,2.6 8,4.5 7.2,4.2 30.2,15.5 36.5,18 2.5,1 5.9,2.3 7.5,3 1.7,0.7 5.5,2 8.5,2.8 3,0.9 8.2,2.3 11.5,3.3 8.9,2.5 32.4,2.6 38.5,0 6.8,-2.8 7.5,-3.2 7.8,-4.9 0.4,-2 -12.6,-13.5 -28.6,-25.1 -3.4,-2.5 -6.4,-4.6 -6.6,-4.6 -0.3,0 -3.1,-1.7 -6.3,-3.8 -6.2,-4.2 -7.1,-4.7 -19,-10.5 -13.4,-6.7 -24.9,-11.3 -30.3,-12.4 -1.4,-0.3 -4.5,-1.1 -7,-1.8 -5.7,-1.7 -20.7,-2.4 -28.5,-1.4 z"
     id="path20"
     style="fill:#008000;stroke:none;stroke-width:0.1" />
  <path
     d="m 719.5,604 c -7.7,0.8 -16.1,2.9 -24.5,6.1 -3,1.1 -6.7,2.4 -8.1,2.9 -1.4,0.4 -3.4,1.2 -4.5,1.8 -1,0.6 -5.3,2.7 -9.4,4.7 -18.5,9 -40.1,23.7 -55.5,37.8 -6.8,6.3 -6.8,7.8 0,10.4 16,6 43.6,2.7 69,-8.2 6.3,-2.8 17.1,-7.7 18.5,-8.5 0.8,-0.5 5.1,-2.7 9.5,-5 4.4,-2.2 9.4,-5 11,-6 1.7,-1.1 3.9,-2.4 5,-3 1.1,-0.6 3.4,-1.9 5,-3 1.7,-1.1 3.7,-2.3 4.5,-2.7 0.8,-0.4 4.3,-2.6 7.8,-5 3.5,-2.4 6.5,-4.3 6.8,-4.3 0.3,0 1.8,-1 3.4,-2.2 4.4,-3.2 3.9,-5.8 -1.9,-9.6 -2.8,-1.7 -5.5,-3.2 -6.1,-3.2 -0.6,0 -2.3,-0.6 -3.8,-1.4 -3.4,-1.7 -17.6,-2.6 -26.7,-1.6 z"
     id="path21"
     style="fill:#008000;stroke:none;stroke-width:0.1" />
  <path
     d="m 305.5,607.5 c -0.5,0.2 -2.2,0.6 -3.7,0.9 -3.6,0.8 -3.6,3.3 -0.2,8.3 1.4,2.1 3,4.7 3.5,5.8 0.5,1.1 1.8,3.3 2.9,5 1.1,1.6 2.4,3.9 3,5 0.6,1.1 1.9,3.3 3,5 1.1,1.6 2.4,3.9 3,5 0.6,1.1 1.8,3.2 2.8,4.7 0.9,1.5 3.5,5.5 5.6,9 9.8,15.7 25.3,33.5 36.6,42.2 6.9,5.3 16.7,9.9 24.6,11.5 7.9,1.7 10.8,1.2 11.2,-1.7 0.5,-3.1 -3.1,-15 -7.3,-24.7 -3.9,-9 -5.9,-12.7 -10.7,-20.3 -1.6,-2.4 -2.8,-4.5 -2.8,-4.8 0,-0.3 -3.3,-4.9 -7.4,-10.2 -12.6,-16.5 -28.7,-30.6 -41.1,-36.1 -6.6,-2.9 -20,-5.6 -23,-4.6 z"
     id="path22"
     style="fill:#008000;stroke:none;stroke-width:0.1" />
  <path
     d="m 564.5,609 c -10.5,2.7 -13.5,4.2 -25,12.7 -13,9.5 -26.9,25.5 -37.2,42.8 -2.1,3.5 -11,21.9 -12.6,26 -2.5,6.5 -5,17.2 -4.4,18.9 0.8,1.9 4.9,2 12.7,0.2 19.2,-4.2 39.3,-22.1 59.2,-52.6 4.1,-6.3 17.1,-27.7 18.1,-30 0.4,-0.8 1.6,-2.9 2.7,-4.5 1.1,-1.7 2.3,-3.7 2.7,-4.5 0.3,-0.8 1.4,-2.5 2.4,-3.8 2.4,-3.1 1.5,-4.9 -2.9,-6.2 -4.9,-1.3 -7.4,-1.2 -15.7,1 z"
     id="path23"
     style="fill:#008000;stroke:none;stroke-width:0.1" />
  <path
     d="m 220.5,683 c -3.3,0.5 -9.1,1.4 -13,1.9 -23.2,3.4 -40.7,14.3 -47.2,29.3 -0.7,1.5 -0.9,2.9 -0.5,3.1 1.4,0.8 19.1,3.7 32.7,5.3 20,2.5 64.6,2.5 76.5,0 19.1,-3.9 33.4,-10 41.8,-17.9 5.6,-5.4 6.3,-7.1 3.3,-8.6 -4.1,-2.3 -21.6,-7 -34.6,-9.5 -18.7,-3.5 -47.8,-5.3 -59,-3.6 z"
     id="path24"
     style="fill:#008000;stroke:none;stroke-width:0.1" />
  <path
     d="m 637,682.5 c -0.8,0.2 -6.9,0.9 -13.5,1.5 -11.4,1.1 -21.5,2.7 -31.5,5.2 -2.5,0.6 -6.1,1.4 -8,1.8 -7.8,1.8 -17,5.6 -17,7.1 0,1.3 7.1,8.5 11.5,11.5 3.9,2.6 14.1,7.5 18,8.5 1.7,0.4 4.4,1.2 6,1.7 1.7,0.6 7.3,1.9 12.5,2.8 13.1,2.5 55.5,2.5 75.5,0 16.1,-1.9 31.7,-4.6 32.8,-5.5 2.6,-2.3 -10.2,-18.4 -17.7,-22.1 -2.2,-1.2 -4.8,-2.5 -5.6,-2.9 -5.2,-3 -17.9,-6.5 -29.5,-8.1 -8.3,-1.1 -30.9,-2.2 -33.5,-1.5 z"
     id="path25"
     style="fill:#008000;stroke:none;stroke-width:0.1" />
  <path
     d="m 341,719.6 c -12.2,2.1 -22.9,4.4 -27.5,6 -2.3,0.8 -4.8,1.4 -5.7,1.4 -1,0 -3.2,0.6 -5,1.4 -1.8,0.8 -5.3,2.2 -7.8,3.1 -32.4,12.6 -54.1,32.5 -56.5,51.9 -0.6,4.3 -0.4,5.6 0.6,5.6 2,0 24.1,-4 36.4,-6.6 3.9,-0.8 7.9,-1.4 9,-1.4 1.9,0 8.3,-1.3 22,-4.7 29.4,-7.1 51,-16.7 64.7,-28.9 8.4,-7.4 19.1,-23.5 17,-25.6 -3.7,-3.7 -30.4,-5 -47.2,-2.2 z"
     id="path26"
     style="fill:#008000;stroke:none;stroke-width:0.1" />
  <path
     d="m 500,719.8 c -3,1 -5.5,2.2 -5.5,2.7 0,0.6 1.4,3.7 3,6.9 3.6,7.1 14.5,19.1 22,24.1 5.7,3.7 20.8,11.8 24.1,12.8 1,0.3 5.1,1.6 8.9,3 6.5,2.2 9.2,3 23.6,7.1 3.1,0.9 6.4,1.6 7.5,1.6 1,0 4.8,0.6 8.4,1.4 13.2,3 21.6,4.6 23.8,4.6 1.3,0 5.1,0.6 8.5,1.4 9.5,2.2 20.7,4 21.2,3.4 0.7,-0.7 -1.9,-11.4 -3.7,-15.3 -5.5,-12.2 -19.8,-25.8 -34.8,-33.4 -2.5,-1.2 -5.2,-2.6 -6,-3 -2.1,-1.2 -7.8,-3.6 -12.5,-5.4 -2.2,-0.8 -5.8,-2.1 -8,-3 -24.2,-8.9 -65.7,-13.5 -80.5,-8.9 z"
     id="path27"
     style="fill:#008000;stroke:none;stroke-width:0.1" />
  <path
     d="m 422.5,740 c -3.3,1.7 -8.1,4.3 -10.7,5.8 -15.6,9.1 -28,23.9 -29,34.7 l -0.3,3 6.1,0.3 c 7.9,0.4 15.9,-3.2 22.6,-10 5.4,-5.5 9.9,-14.2 17.9,-34.6 1.1,-2.9 0.5,-2.8 -6.6,0.8 z"
     id="path28"
     style="fill:#008000;stroke:none;stroke-width:0.1" />
  <path
     d="m 455,740.7 c 1.5,4.8 4,11.3 4.9,13.1 0.5,0.9 2,3.9 3.3,6.5 4.1,8.6 4.8,9.5 10.7,14.9 6.9,6.2 13.2,8.8 21.4,8.8 h 5.9 l -0.7,-4 c -0.4,-2.2 -1.8,-5.9 -3.1,-8.3 -1.3,-2.3 -2.8,-5.1 -3.3,-6.2 -2.2,-5 -16.7,-16.6 -29.3,-23.4 -9.2,-5 -11,-5.2 -9.8,-1.4 z"
     id="path29"
     style="fill:#008000;stroke:none;stroke-width:0.1" />
  <path
     style="fill:#808000;stroke-width:2.67187;stroke-dasharray:none"
     d="m 623.00512,656.2655 c -5.5881,-1.63364 -14.82023,-9.27905 -14.82023,-12.27311 0,-1.04046 1.7714,-4.9013 3.93645,-8.57962 5.27743,-8.96614 7.46472,-16.8979 6.83234,-24.77605 -1.17697,-14.66268 -12.45364,-26.83729 -39.8254,-42.99665 -28.43246,-16.78557 -44.58196,-31.37019 -52.04021,-46.99755 -1.67246,-3.50432 -4.23139,-11.2791 -5.68651,-17.27729 l -2.64569,-10.9058 2.11832,-9.01757 c 1.16507,-4.95966 2.3323,-10.1539 2.59384,-11.54276 0.70768,-3.758 5.80244,-10.95536 13.51337,-19.09031 6.43313,-6.78689 7.06094,-7.19414 10.14077,-6.57818 3.9942,0.79884 12.42789,4.99208 16.3505,8.12948 l 2.88049,2.30389 -4.07186,8.88016 c -5.40194,11.78084 -6.53337,16.80312 -6.01209,26.68682 0.59147,11.21463 3.81418,18.12682 12.63532,27.10081 7.05554,7.17778 9.06758,8.50765 34.63758,22.89388 21.73268,12.22727 29.89152,17.87306 38.80258,26.85078 9.85464,9.92834 13.56658,17.22903 15.10254,29.70382 2.14553,17.42562 -2.79228,34.40612 -13.37087,45.98078 -8.67416,9.49092 -15.3992,13.16265 -21.07124,11.50447 z"
     id="path30"
     transform="scale(0.75)" />
  <path
     style="fill:#808000;stroke-width:2.67187;stroke-dasharray:none"
     d="m 604.04928,739.78121 c -2.34405,-2.83528 -1.73854,-16.72988 1.05422,-24.19105 2.08504,-5.57041 2.2231,-6.7873 1.16919,-10.30496 -1.68503,-5.6241 -11.93159,-16.11437 -28.14636,-28.81578 -19.09594,-14.95831 -30.32989,-24.53275 -34.57249,-29.46536 -16.81185,-19.54611 -19.63814,-49.0027 -6.57502,-68.52698 2.15696,-3.22382 5.27542,-7.15366 6.92992,-8.73298 l 3.00818,-2.8715 5.3347,3.05419 c 7.49696,4.29212 19.863,13.09107 19.863,14.13335 0,0.47953 -1.65911,4.36548 -3.68691,8.63544 -4.47166,9.41606 -5.23462,15.86806 -2.84745,24.07964 1.52852,5.25795 2.7642,6.91675 11.88525,15.95506 5.59865,5.54787 14.7367,13.31609 20.30677,17.26271 17.59047,12.46356 32.54445,28.1162 36.96202,38.68893 2.54586,6.0931 3.67928,17.24231 2.44489,24.04962 -2.1327,11.76108 -8.15355,19.65585 -19.20788,25.1861 -7.73048,3.86741 -11.81353,4.41395 -13.92203,1.86357 z"
     id="path31"
     transform="scale(0.75)" />
  <path
     style="fill:#808000;stroke-width:2.67187;stroke-dasharray:none"
     d="m 615.19856,800.64895 c 0,-4.04585 -0.81044,-9.52833 -1.94953,-13.18823 -3.90826,-12.55726 -9.86972,-18.53263 -41.18677,-41.28282 -8.01937,-5.82565 -16.51373,-12.68922 -18.87637,-15.25238 -8.93319,-9.69136 -11.72386,-21.43424 -8.70751,-36.64034 0.92179,-4.64695 2.50919,-9.5762 3.52755,-10.95389 3.37814,-4.57009 11.15488,-2.37498 19.34942,5.46168 2.71217,2.59373 2.75536,2.82723 2.75536,14.89527 v 12.26024 l 6.78832,6.7363 c 3.73358,3.70497 7.34061,6.73631 8.01562,6.73631 0.87608,0 1.2273,-2.54052 1.2273,-8.87773 0,-11.55773 0.92903,-18.17498 2.55169,-18.17498 0.70254,0 2.27387,2.05854 3.49184,4.57453 2.05271,4.24033 2.13823,5.17192 1.1706,12.75158 -0.79877,6.25692 -1.53306,8.57315 -3.12706,9.86389 -1.14574,0.92777 -2.08317,2.11343 -2.08317,2.63481 0,0.52138 5.68807,6.98684 12.64015,14.3677 19.95113,21.18162 24.43208,28.51279 24.43208,39.97277 0,7.73183 -5.80195,21.03969 -9.17286,21.03969 -0.46567,0 -0.84666,-3.11598 -0.84666,-6.9244 z"
     id="path32"
     transform="scale(0.75)" />
  <path
     style="fill:#808000;stroke-width:2.67187;stroke-dasharray:none"
     d="m 558.86029,806.82188 c -5.03922,-5.73206 -8.52124,-19.39279 -7.39203,-29.0006 1.45778,-12.40341 9.43782,-20.19144 16.70442,-16.30247 2.1189,1.134 2.60288,4.44534 0.81153,5.55246 -1.73718,1.07363 -6.51162,12.29777 -7.90654,18.5873 -0.72493,3.26866 -1.06002,9.27016 -0.79718,14.27782 0.24938,4.7514 0.37869,8.63891 0.28735,8.63891 -0.0913,0 -0.85973,-0.78904 -1.70755,-1.75342 z"
     id="path33"
     transform="scale(0.75)" />
  <path
     style="fill:#808000;stroke-width:2.67187;stroke-dasharray:none"
     d="m 621.56102,542.07316 c -3.28956,-1.64381 -7.00723,-4.08111 -8.26149,-5.4162 -2.75679,-2.93447 -2.7191,-3.02407 7.03411,-16.72353 9.72204,-13.65568 10.84757,-16.52867 10.87415,-27.75667 0.0267,-11.2938 -1.13106,-14.41044 -8.08446,-21.76262 -7.61245,-8.04904 -18.6433,-14.64344 -44.49602,-26.60032 -38.53904,-17.8243 -43.39407,-20.60377 -54.24575,-31.05533 -13.38915,-12.89547 -18.55152,-27.04491 -14.9691,-41.02848 3.38744,-13.22245 11.22536,-23.03137 23.55291,-29.47575 6.74599,-3.52655 8.12694,-3.88305 14.77479,-3.81418 4.03329,0.0418 9.7586,0.57947 12.7229,1.19486 5.5307,1.14817 14.65741,6.16414 14.65741,8.0556 0,2.15739 -3.3787,6.10153 -8.35599,9.75442 l -5.12156,3.75875 -11.04587,-0.0134 c -10.38618,-0.0126 -11.28416,-0.17712 -15.03578,-2.75537 -4.64702,-3.1936 -5.78595,-3.34352 -8.06753,-1.06194 -1.32737,1.32738 -1.54254,2.71692 -1.02492,6.61895 0.84073,6.33773 4.61567,16.35606 8.20904,21.786 7.23585,10.93411 25.44823,21.02933 60.48165,33.52531 31.62943,11.28181 46.92598,19.34353 56.86704,29.97056 14.9867,16.02084 20.25534,34.72829 15.27017,54.22014 -3.75218,14.67084 -11.42109,25.92374 -24.26067,35.59865 -9.47067,7.13638 -12.35678,7.53694 -21.47503,2.9805 z m -67.2968,-196.06592 c 3.42768,-3.10201 1.72346,-5.35928 -4.02401,-5.32986 -5.03473,0.0258 -7.1822,1.09027 -7.1822,3.56022 0,4.48223 6.98925,5.58594 11.20621,1.76964 z"
     id="path34"
     transform="scale(0.75)" />
  <path
     style="fill:#b3b3b3;stroke-width:2.67187;stroke-dasharray:none"
     d="m 633.23369,426.24496 c -6.59152,-1.74237 -13.52635,-6.29388 -13.52635,-8.87769 0,-1.28052 3.25568,-3.83453 10.5205,-8.25313 5.78627,-3.51931 12.00134,-7.1182 13.81126,-7.99751 1.80993,-0.87932 6.69326,-5.25979 10.85186,-9.73437 8.7831,-9.45046 14.24404,-19.6239 15.12723,-28.18122 0.67442,-6.53453 0.36312,-6.64209 -9.73179,-3.36249 -8.6821,2.82061 -21.71486,3.07365 -28.25846,0.54866 -5.41437,-2.08926 -10.81767,-7.6654 -10.81767,-11.16371 0,-3.14957 7.0961,-9.23402 12.47121,-10.69325 2.27424,-0.61742 8.02854,-0.89633 13.07856,-0.63393 7.65978,0.39801 9.9982,0.96413 15.53026,3.75979 8.13898,4.1131 16.7747,10.69567 20.61075,15.71053 2.72662,3.56449 2.93179,4.44209 2.88817,12.35366 -0.0838,15.20815 -6.99626,32.2106 -17.78359,43.74229 -6.81857,7.28907 -12.31864,10.76171 -20.36352,12.85713 -6.90945,1.79969 -7.32542,1.79753 -14.40842,-0.0748 z m 17.8122,-79.12539 c 4.55548,-3.19078 2.08219,-6.40618 -4.95536,-6.44219 -6.21338,-0.0318 -7.5748,2.48658 -3.20317,5.92531 3.15477,2.48154 5.17119,2.60929 8.15853,0.51688 z"
     id="path35"
     transform="scale(0.75)" />
  <path
     style="fill:#b3b3b3;stroke-width:3.7786;stroke-dasharray:none"
     d="m 620.3567,540.34483 c -3.6599,-2.03736 -6.95902,-4.49822 -7.33138,-5.46855 -0.37235,-0.97035 3.06383,-7.29757 7.63596,-14.06051 10.32307,-15.26951 11.85257,-19.76855 10.96028,-32.23958 -0.58307,-8.14907 -1.409,-10.67854 -4.90831,-15.03199 -6.61202,-8.22595 -16.78889,-15.28285 -34.41805,-23.86634 -8.96236,-4.36369 -25.37297,-12.34057 -36.46802,-17.72638 -17.3154,-8.40533 -21.53654,-11.14015 -29.80044,-19.30736 -11.97607,-11.83595 -16.45416,-20.58011 -16.4835,-32.18656 -0.0505,-19.98656 17.32784,-39.6264 36.36109,-41.09284 5.44679,-0.41965 6.10322,-0.30705 2.46467,0.42279 -4.08011,0.8184 -4.95941,1.62285 -4.95941,4.53721 0,2.93087 0.76436,3.61681 4.42744,3.9732 4.89411,0.47617 9.67955,-3.08057 8.45129,-6.28136 -1.09782,-2.86089 3.97437,-2.43863 10.46166,0.87094 8.09292,4.1287 8.29267,5.46278 1.73398,11.58066 -5.79862,5.4089 -5.90991,5.44328 -17.61934,5.44328 -8.40683,0 -12.69265,-0.63654 -14.95499,-2.22114 -1.74412,-1.22163 -4.59596,-2.01868 -6.33743,-1.77122 -8.13845,1.15646 0.0829,28.54383 11.42165,38.04843 7.31267,6.12977 32.54646,18.2095 57.29138,27.4261 11.47753,4.27498 26.13192,10.51114 32.56529,13.85815 26.52974,13.80229 40.9531,38.33856 36.70701,62.44404 -2.96227,16.8171 -11.89349,31.12364 -25.54466,40.9189 -9.00574,6.46198 -12.63507,6.75193 -21.65617,1.73013 z"
     id="path36"
     transform="scale(0.75)" />
  <path
     style="fill:#b3b3b3;stroke-width:3.7786;stroke-dasharray:none"
     d="m 619.9262,653.83072 c -5.03853,-2.62049 -10.62731,-7.63475 -10.62731,-9.53483 0,-0.74268 2.0581,-5.53093 4.57355,-10.64054 6.6086,-13.42396 7.16991,-25.5799 1.64953,-35.72266 -2.20116,-4.04424 -6.74072,-9.7638 -10.08792,-12.71012 -6.21764,-5.47299 -8.40602,-6.99171 -37.8939,-26.29803 -28.25553,-18.49947 -39.9519,-32.97382 -45.43292,-56.22359 -2.2944,-9.73256 -2.29412,-10.90751 0.005,-21.24152 2.68854,-12.08423 7.08645,-19.72928 16.82936,-29.2551 l 6.32781,-6.18682 7.57193,3.54569 c 13.52627,6.33393 13.3555,5.96367 8.00473,17.35492 -4.16715,8.87146 -4.6492,11.21132 -4.66553,22.64646 -0.0162,11.33795 0.40847,13.47854 3.82767,19.29477 6.16001,10.47846 17.43699,19.40975 43.62444,34.55024 28.6694,16.57546 42.78454,28.49868 49.15698,41.52347 3.51062,7.17546 3.93539,9.55623 3.84138,21.53034 -0.0815,10.3771 -0.83161,15.32915 -3.27283,21.60567 -4.74447,12.19829 -20.19851,28.01509 -27.33949,27.98124 -1.01288,-0.005 -3.7545,-1.00361 -6.09251,-2.21959 z"
     id="path37"
     transform="scale(0.75)" />
  <path
     style="fill:#b3b3b3;stroke-width:3.7786;stroke-dasharray:none"
     d="m 605.33557,739.38133 c -2.35432,-2.35433 -2.13615,-14.85146 0.40555,-23.22993 1.16057,-3.8257 2.11702,-7.64356 2.12546,-8.48411 0.043,-4.28204 -10.4165,-16.12318 -24.54875,-27.79157 -8.70082,-7.18389 -20.8612,-17.23501 -27.02307,-22.33583 -19.10681,-15.81668 -27.23229,-32.62793 -26.14388,-54.09055 0.57724,-11.3828 4.73698,-21.76344 12.38697,-30.91169 l 4.08021,-4.87933 8.07086,4.87933 c 4.43898,2.68363 9.94661,6.47342 12.23919,8.42176 l 4.16832,3.54244 -3.53672,8.50184 c -3.77248,9.06857 -4.5961,19.13146 -2.109,25.76753 2.10897,5.62718 15.10958,18.53622 32.51239,32.28342 15.94509,12.59568 28.6673,25.23974 33.70611,33.49904 3.59697,5.89595 5.97643,20.41926 4.58229,27.96855 -2.15979,11.69528 -7.87906,19.05839 -19.15925,24.66604 -6.9087,3.43447 -9.94827,4.00146 -11.75668,2.19306 z"
     id="path38"
     transform="scale(0.75)" />
  <path
     style="fill:#b3b3b3;stroke-width:3.7786;stroke-dasharray:none"
     d="m 615.78254,797.62751 c -2.06763,-18.44051 -6.84422,-24.67962 -35.30935,-46.12061 -33.31294,-25.09254 -35.59672,-28.07964 -35.59892,-46.56225 -0.002,-12.86872 2.40475,-21.42618 6.3796,-22.68775 3.5279,-1.11971 12.02146,2.95512 15.57434,7.47187 2.26337,2.87741 2.79541,5.75245 2.79541,15.10599 v 11.55222 l 6.7793,6.67736 c 3.72861,3.67254 7.55444,6.67736 8.50184,6.67736 1.1807,0 1.76698,-3.23154 1.86379,-10.27307 0.0777,-5.65018 0.5788,-11.84233 1.11359,-13.76034 0.95068,-3.40954 1.02715,-3.37181 3.43048,1.69283 2.77147,5.84043 2.1164,14.74222 -1.55535,21.13584 -2.56672,4.46945 -2.7134,4.23573 14.74359,23.49233 12.27279,13.53798 18.10491,22.37389 19.64475,29.76262 1.03388,4.96099 -2.03319,17.65806 -5.36547,22.21198 -1.79361,2.45116 -2.0749,1.85281 -2.9976,-6.37638 z"
     id="path39"
     transform="scale(0.75)" />
  <path
     style="fill:#808000;stroke-width:3.7786;stroke-dasharray:none"
     d="m 556.30092,801.16596 c -1.7182,-3.52833 -2.90542,-9.64462 -3.27474,-16.87076 -0.49224,-9.63121 -0.14069,-12.03262 2.33789,-15.96985 3.97746,-6.31822 9.31487,-8.71125 12.44596,-5.58016 2.09807,2.09807 2.11491,2.58645 0.16746,4.85646 -4.19102,4.88519 -7.3472,15.40128 -8.15989,27.18792 l -0.82129,11.91135 z"
     id="path40"
     transform="scale(0.75)" />
  <path
     style="fill:#808000;stroke-width:3.7786;stroke-dasharray:none"
     d="m 547.45513,311.76668 c -10.10534,-2.15196 -19.83502,-7.99705 -24.43078,-14.67675 -4.82838,-7.01782 -6.14414,-11.24454 -6.37521,-20.47971 l -0.16206,-6.47727 -9.21033,-2.30639 c -24.55266,-6.14833 -37.85044,-19.23094 -40.34658,-39.69372 -1.28134,-10.50422 -2.02342,-12.75277 -4.20879,-12.75277 -1.67079,0 -19.49734,12.43485 -48.96492,34.15533 -12.84026,9.46451 -23.17806,15.42111 -37.04769,21.34671 -9.74355,4.16279 -11.77954,4.49395 -31.32132,5.09446 -20.26337,0.6227 -23.60582,5e-5 -19.12915,-3.56348 0.97417,-0.77546 14.1038,-7.89924 29.17695,-15.83063 32.0302,-16.85407 46.64598,-25.70769 68.5601,-41.53081 31.48588,-22.73442 44.35527,-30.93004 55.58405,-35.39761 10.344,-4.11554 12.84865,-4.54217 26.98887,-4.59714 13.89244,-0.054 16.43385,0.33836 23.38007,3.6096 15.40408,7.25438 22.38261,16.3933 23.71186,31.05252 0.91715,10.11445 -2.48222,18.36615 -11.56736,28.07891 -3.56213,3.8082 -6.4766,7.99495 -6.4766,9.30387 0,3.32754 6.24146,15.28198 9.41141,18.02596 4.23527,3.66613 11.57837,5.51431 21.90926,5.51431 h 9.64316 l 0.93958,5.00834 c 1.64289,8.75744 0.0273,31.6018 -2.40712,34.03621 -2.64509,2.6451 -19.16851,3.88779 -27.6574,2.08006 z"
     id="path41"
     transform="scale(0.75)" />
  <path
     style="fill:#808000;stroke-width:3.7786;stroke-dasharray:none"
     d="m 811.9262,305.26775 c -12.82531,-3.33929 -35.77645,-15.44051 -44.62857,-23.53085 -9.31857,-8.51665 -16.26903,-19.7511 -16.28802,-26.32731 -0.0176,-6.0806 1.93281,-5.89058 12.01261,1.17034 15.75741,11.0381 58.13486,43.54479 61.5495,47.21309 l 3.43519,3.69037 -4.14368,-0.0933 c -2.27902,-0.0513 -7.65068,-1.00636 -11.93703,-2.12239 z"
     id="path42"
     transform="scale(0.75)" />
  <path
     style="fill:#808000;stroke-width:3.7786;stroke-dasharray:none"
     d="m 771.61307,312.29319 c -11.47878,-2.77598 -19.47895,-7.76828 -30.72889,-19.17555 -11.29376,-11.4517 -12.82574,-14.85177 -8.33156,-18.49094 1.74401,-1.41221 4.21616,-2.53458 5.49366,-2.49416 2.62559,0.0831 49.95859,37.92705 50.86076,40.66451 0.77377,2.34783 -6.3618,2.13993 -17.29397,-0.50386 z"
     id="path43"
     transform="scale(0.75)" />
  <path
     style="fill:#808000;stroke-width:3.7786;stroke-dasharray:none"
     d="m 737.84325,318.60784 c -15.41328,-3.39477 -36.44104,-21.01481 -36.44104,-30.53548 0,-2.62924 1.35853,-4.00734 5.99812,-6.08455 5.64601,-2.52779 6.15589,-2.54452 8.68564,-0.28496 1.47814,1.32026 4.15999,4.71729 5.95967,7.54896 1.79969,2.83167 7.18262,9.52687 11.96208,14.87823 13.19896,14.77832 13.69462,16.64926 3.83553,14.4778 z"
     id="path44"
     transform="scale(0.75)" />
  <path
     style="fill:#808000;stroke-width:3.7786;stroke-dasharray:none"
     d="m 374.43542,292.33825 c -1.7535,-0.35127 -3.18819,-1.09948 -3.18819,-1.66268 0,-0.56321 4.30406,-3.53062 9.56458,-6.59425 5.26051,-3.06363 22.95498,-14.56525 39.32103,-25.55916 16.36605,-10.99391 30.55867,-20.45692 31.53915,-21.02891 2.2964,-1.33968 7.8461,11.17745 6.64024,14.97679 -0.46986,1.48039 -3.51369,4.35902 -6.76407,6.39696 -3.25038,2.03794 -12.00676,8.04603 -19.45863,13.35131 -18.58877,13.2341 -31.92141,19.24811 -44.54709,20.09404 -5.45536,0.36551 -11.35351,0.37717 -13.10702,0.0259 z"
     id="path45"
     transform="scale(0.75)" />
  <path
     style="fill:#808000;stroke-width:3.7786;stroke-dasharray:none"
     d="m 374.24551,290.79111 c 0.29929,-0.84511 17.9357,-13.04649 39.19202,-27.11417 l 38.64787,-25.57762 2.79333,4.58134 c 5.23081,8.57903 4.47796,9.70214 -15.97098,23.82552 -26.40482,18.2369 -38.76283,24.009 -53.57696,25.02439 -8.05541,0.55213 -11.4622,0.32487 -11.08528,-0.73946 z"
     id="path46"
     transform="scale(0.75)" />
  <path
     style="fill:#808000;stroke-width:3.7786;stroke-dasharray:none"
     d="m 409.50687,303.77711 c 7.3e-4,-0.68922 6.1527,-5.71659 13.67103,-11.17194 7.51834,-5.45535 18.42364,-13.74465 24.23401,-18.42067 17.61141,-14.17314 17.46909,-14.08367 19.93255,-12.52976 1.23214,0.77722 3.54753,3.18644 5.14531,5.35383 l 2.90506,3.94072 -11.33579,10.51525 c -15.06601,13.97545 -30.3883,21.83669 -44.53456,22.84885 -5.51042,0.39426 -10.01835,0.15294 -10.01761,-0.53628 z"
     id="path47"
     transform="scale(0.75)" />
  <path
     style="fill:#808000;stroke-width:3.7786;stroke-dasharray:none"
     d="m 452.01476,310.60984 c 0,-0.75547 5.06031,-7.10079 11.24513,-14.10071 16.80358,-19.01814 27.78265,-25.20603 34.28377,-19.3226 2.43234,2.20124 2.42496,2.50791 -0.18344,7.62079 -3.65748,7.16926 -14.2227,16.22176 -24.70124,21.16455 -9.25537,4.36582 -20.64422,6.92446 -20.64422,4.63797 z"
     id="path48"
     transform="scale(0.75)" />
  <path
     style="fill:#808000;stroke-width:3.7786;stroke-dasharray:none"
     d="m 507.49451,340.06865 c -5.78073,-4.18754 -12.68271,-12.54063 -16.66976,-20.1745 -2.83598,-5.42995 -1.3745,-9.54098 6.50436,-18.29625 l 6.81742,-7.57576 11.31785,10.97828 c 16.28318,15.79464 25.4285,19.83509 46.74208,20.65091 15.40669,0.58973 16.05095,0.73894 15.63957,3.62209 -0.4113,2.8826 -1.36717,3.04008 -23.10064,3.80583 -23.54245,0.82949 -27.96846,1.80803 -35.02164,7.74288 -2.28942,1.92643 -4.65563,3.50259 -5.25824,3.50259 -0.60261,0 -3.73956,-1.91523 -6.971,-4.25607 z"
     id="path49"
     transform="scale(0.75)" />
  <path
     style="fill:#808000;stroke-width:3.7786;stroke-dasharray:none"
     d="m 682.03366,344.96011 c -11.87008,-8.30954 -24.25427,-11.90638 -41.11485,-11.94129 -7.93746,-0.0164 -16.22675,-0.71516 -18.42066,-1.55272 -3.84733,-1.46877 -3.89129,-1.59452 -1.23839,-3.54243 1.83527,-1.34757 6.55034,-2.0278 14.16974,-2.04422 22.06278,-0.0475 38.63344,-5.41457 50.24161,-16.27265 8.14097,-7.61493 8.8829,-7.50377 18.33113,2.74635 9.18299,9.96237 9.90686,12.45651 5.34938,18.43168 -4.42354,5.79957 -17.82004,19.20779 -19.19099,19.20779 -0.51594,0 -4.17308,-2.26463 -8.12697,-5.03251 z"
     id="path50"
     transform="scale(0.75)" />
  <path
     style="fill:#808000;stroke-width:3.7786;stroke-dasharray:none"
     d="m 596.53695,409.59857 c -8.61598,-2.62086 -12.74366,-5.76173 -12.73971,-9.694 0.0363,-36.02506 3.28942,-164.29603 4.18963,-165.19624 0.67356,-0.67356 6.48241,-0.75924 12.90854,-0.1904 l 11.68388,1.03426 -0.9458,36.31985 c -0.52019,19.97591 -2.20771,58.31837 -3.75004,85.20545 -1.54233,26.88709 -2.81127,50.00148 -2.81986,51.36531 -0.0166,2.63582 -2.53765,2.97753 -8.52664,1.15577 z"
     id="path51"
     transform="scale(0.75)" />
  <path
     style="fill:#808000;stroke-width:3.7786;stroke-dasharray:none"
     d="m 591.97441,524.64332 c -2.12478,-1.31761 -4.1371,-3.10933 -4.47182,-3.9816 -1.15303,-3.00476 -2.65925,-45.73723 -1.74107,-49.39554 1.11118,-4.42731 3.37323,-4.59781 9.90109,-0.74627 6.45642,3.80937 7.02226,6.85323 5.85853,31.51466 -1.28561,27.24414 -1.44874,27.63046 -9.54673,22.60875 z"
     id="path52"
     transform="scale(0.75)" />
  <path
     style="fill:#808000;stroke-width:3.7786;stroke-dasharray:none"
     d="m 588.83312,634.48914 c -1.71574,-2.44955 -2.20581,-7.15322 -2.20581,-21.17098 0,-9.91197 0.56269,-18.36952 1.25042,-18.79456 0.68774,-0.42505 2.91947,0.54006 4.95941,2.14468 3.61629,2.84457 3.70899,3.32448 3.70899,19.203 0,20.28201 -2.43334,26.15566 -7.71301,18.61786 z"
     id="path53"
     transform="scale(0.75)" />
  <path
     style="fill:#808000;stroke-width:3.7786;stroke-dasharray:none"
     d="m 617.4412,802.59249 c -0.58159,-0.58159 -1.05744,-2.74834 -1.05744,-4.81501 0,-2.06667 -1.0163,-7.17986 -2.25846,-11.36265 -2.95337,-9.94508 -10.78071,-18.04543 -38.05981,-39.38729 -11.78895,-9.22312 -23.10401,-19.30312 -25.50553,-22.72156 -4.04957,-5.76435 -4.31642,-6.94695 -4.31642,-19.12915 0,-20.81789 3.79069,-25.92128 14.43355,-19.43186 6.20992,3.78646 7.18734,6.17678 8.34133,20.39908 l 1.00385,12.37191 6.37655,5.61287 c 3.50711,3.08708 7.15981,5.61287 8.11712,5.61287 1.98903,0 3.46926,-7.36914 3.55781,-17.71218 0.056,-6.53911 0.22092,-6.87299 2.14106,-4.33434 2.67401,3.53536 2.65498,10.84354 -0.0451,17.30567 -1.169,2.79782 -2.12546,6.16712 -2.12546,7.48733 0,1.32021 4.15988,7.01911 9.24418,12.66422 21.8215,24.22847 26.91897,32.69535 25.7297,42.73692 -0.93055,7.85702 -4.09096,16.18917 -5.57696,14.70317 z"
     id="path54"
     transform="scale(0.75)" />
  <path
     style="fill:#666666;stroke-width:3.7786;stroke-dasharray:none"
     d="m 587.70011,831.05535 c -0.57896,-5.45535 -0.99314,-16.61402 -0.92039,-24.79705 0.11028,-12.40577 0.35041,-13.94702 1.445,-9.27463 0.722,3.08198 1.13618,14.24065 0.92039,24.79705 -0.35824,17.52516 -0.48384,18.33131 -1.445,9.27463 z"
     id="path55"
     transform="scale(0.75)" />
  <path
     style="fill:#808080;stroke-width:3.7786;stroke-dasharray:none"
     d="m 617.20736,797.04797 c -4.66208,-20.80756 -7.54863,-24.34871 -42.62433,-52.2904 -12.50721,-9.96338 -23.23704,-20.5479 -25.74352,-25.39489 -2.74725,-5.3126 -2.14682,-29.11152 0.8248,-32.6921 2.83074,-3.41083 7.81703,-2.74545 12.54861,1.6745 4.29443,4.01159 4.84626,5.92347 6.73032,23.31759 0.80372,7.42013 1.41434,8.57191 6.94884,13.10701 6.31337,5.17334 9.99392,6.22389 11.21377,3.2008 0.39308,-0.97417 0.76504,0.268 0.82656,2.76038 0.0817,3.31052 2.11641,6.90303 7.55098,13.33229 24.06872,28.47396 26.60242,32.52114 26.50436,42.33653 -0.0352,3.51855 -0.91082,8.31028 -1.94593,10.64829 l -1.88201,4.25092 z"
     id="path56"
     transform="scale(0.75)" />
  <path
     style="fill:#b3b3b3;stroke-width:3.7786;stroke-dasharray:none"
     d="m 617.2,794.19041 c -2.7799,-15.08434 -8.62376,-22.42637 -35.50887,-44.61219 -10.14415,-8.37102 -21.7915,-18.77114 -25.88301,-23.11136 l -7.43912,-7.89131 v -13.63923 c 0,-14.74906 1.3286,-19.12082 5.81091,-19.12082 7.59456,0 11.7178,5.96744 13.21741,19.12915 0.53277,4.67601 1.59326,10.41476 2.35663,12.75277 1.53745,4.70878 10.21545,12.04428 14.24857,12.04428 1.57577,0 3.34501,1.79984 4.52687,4.60516 1.06706,2.53284 6.91426,10.66273 12.99377,18.06642 16.82225,20.48629 19.12995,24.60483 19.01193,33.93056 -0.0548,4.3286 -0.59353,9.13483 -1.19725,10.68052 -0.8982,2.29965 -1.28667,1.78468 -2.13784,-2.83395 z"
     id="path57"
     transform="scale(0.75)" />
  <path
     style="fill:#b3b3b3;stroke-width:3.7786;stroke-dasharray:none"
     d="m 556.30092,801.16187 c -1.71874,-3.52683 -2.90531,-9.63825 -3.27474,-16.86667 -0.49224,-9.63121 -0.14069,-12.03262 2.33789,-15.96985 3.79204,-6.02368 9.32067,-8.70918 12.12633,-5.8903 1.74018,1.74839 1.4157,3.22603 -2.39397,10.90199 -3.51077,7.07371 -4.57916,11.36828 -5.25356,21.1176 l -0.84656,12.23811 z"
     id="path58"
     transform="scale(0.75)" />
  <path
     style="fill:#b3b3b3;stroke-width:2;stroke-dasharray:none"
     d="m 494.16974,137.62362 20.72325,-8.76753"
     id="path59" />
  <path
     style="fill:#000000;stroke-width:2;stroke-dasharray:none;stroke:#000000"
     d="M 494.83906,136.95432 514.565,129.06394"
     id="path60" />
  <path
     style="fill:#808000;stroke:#000000;stroke-width:2.67187;stroke-dasharray:none"
     d="m 628.72491,310.74019 -5.00976,-1.78551 0.0594,-18.1878 c 0.0327,-10.00327 0.34898,-18.47733 0.70288,-18.83123 0.3539,-0.3539 3.4924,-0.0772 6.97444,0.61494 5.50965,1.09515 7.10828,1.03495 12.3225,-0.46403 3.29533,-0.94734 8.1402,-3.08992 10.76638,-4.76129 6.16295,-3.92226 12.75929,-11.41785 12.75929,-14.49872 0,-1.53776 -2.17289,-4.72478 -6.09781,-8.94378 -9.20832,-9.89825 -10.35807,-13.15576 -10.39979,-29.46503 -0.0344,-13.43895 -0.0133,-13.5652 3.26383,-19.53807 5.21871,-9.51156 6.20016,-10.28239 20.29475,-15.93937 l 13.13263,-5.27089 13.19858,4.65338 c 15.54044,5.47905 33.67136,14.40439 48.586,23.91754 5.88631,3.75451 23.32697,16.06852 38.75703,27.36446 15.43006,11.29594 32.11257,23.28634 37.07223,26.64533 9.93933,6.73154 37.26215,21.2906 39.95582,21.2906 0.93776,0 3.47261,0.90175 5.633,2.0039 2.16039,1.10215 5.04652,2.0039 6.41363,2.0039 6.44034,0 2.75187,5.33549 -7.01109,10.14178 -11.63514,5.72796 -25.65649,3.81216 -45.76736,-6.25341 -10.14754,-5.07887 -21.9003,-13.13796 -44.15682,-30.27915 -24.22615,-18.65813 -25.48856,-19.92419 -28.19167,-28.27311 -2.62166,-8.09735 -4.80564,-9.44109 -6.95284,-4.2779 -0.76245,1.8334 -1.68525,6.03873 -2.05067,9.34517 -0.36542,3.30644 -1.56042,9.09082 -2.65555,12.85418 -2.59264,8.90946 -7.50327,13.91949 -19.44406,19.83765 -8.77888,4.35103 -8.92076,4.38276 -21.16326,4.73319 l -12.32512,0.35279 -0.47324,3.15404 c -0.26029,1.73472 -0.7209,5.34363 -1.02359,8.01981 -1.93039,17.06703 -22.91087,31.79493 -45.10638,31.66381 -4.12074,-0.0243 -9.1367,-0.78409 -12.0634,-1.82718 z"
     id="path61"
     transform="scale(0.75)" />
  <path
     style="fill:#808000;stroke:#000000;stroke-width:1.8893;stroke-dasharray:none"
     d="m 596.09601,224.62398 c -1.22173,-0.29142 -3.18386,-1.21525 -4.36029,-2.05294 -1.17643,-0.83769 -2.46354,-1.52307 -2.86026,-1.52307 -1.35083,0 -7.25964,-7.42505 -9.48575,-11.91986 -4.44561,-8.97626 -3.25894,-16.66375 3.63671,-23.5594 5.14314,-5.14314 9.92972,-7.02141 19.23297,-7.5471 5.55225,-0.31373 7.24904,-0.1584 9.39531,0.86007 3.88808,1.84502 10.39696,8.51455 10.39696,10.65357 0,2.41014 -0.67764,2.21891 -3.92629,-1.10801 -2.04325,-2.09248 -3.27516,-2.80838 -4.57183,-2.65683 -1.75487,0.2051 -1.77909,0.2996 -2.14164,8.35505 -0.42798,9.50941 -1.04873,11.11687 -6.76768,17.52526 -2.1686,2.43004 -3.74314,4.74148 -3.49898,5.13653 0.56604,0.91588 6.3609,0.93034 9.52197,0.0238 5.55539,-1.59326 10.30519,-8.9769 12.42847,-19.32022 0.56063,-2.73107 1.59042,-2.42439 2.54375,0.75754 1.50304,5.01668 -2.45191,16.12032 -7.70936,21.64425 -3.92307,4.12193 -7.23667,5.38566 -13.94483,5.31824 -3.11734,-0.0313 -6.6675,-0.2954 -7.88923,-0.58683 z"
     id="path62"
     transform="scale(0.75)" />
  <path
     style="fill:#808000;stroke:#000000;stroke-width:0.944649;stroke-dasharray:none"
     d="m 588.29711,834.24354 c -0.89018,-3.20868 -1.76661,-34.61777 -1.05273,-37.72693 l 0.32535,-1.41698 0.41438,1.77122 c 0.7698,3.29035 1.22817,18.10525 0.88231,28.5166 -0.17799,5.35794 -0.43418,9.34318 -0.56931,8.85609 z"
     id="path63"
     transform="scale(0.75)" />
</svg>
