<?xml version="1.0" standalone="no"?>
<!DOCTYPE svg PUBLIC "-//W3C//DTD SVG 20010904//EN"
 "http://www.w3.org/TR/2001/REC-SVG-20010904/DTD/svg10.dtd">
<svg version="1.0" xmlns="http://www.w3.org/2000/svg"
 width="900.000000pt" height="864.000000pt" viewBox="0 0 900.000000 864.000000"
 preserveAspectRatio="xMidYMid meet">
<metadata>
Created by potrace 1.10, written by Peter Selinger 2001-2011
</metadata>
<g transform="translate(0.000000,864.000000) scale(0.100000,-0.100000)"
fill="#000000" stroke="none">
<path d="M3765 7394 c-11 -2 -47 -9 -80 -15 -141 -25 -292 -106 -490 -264
-128 -102 -210 -157 -425 -284 -43 -25 -259 -132 -320 -158 -25 -11 -63 -23
-83 -27 -21 -4 -41 -14 -44 -23 -9 -22 62 -83 143 -122 53 -26 76 -31 133 -31
59 0 76 -4 108 -26 122 -83 352 -154 502 -154 68 0 88 -4 139 -30 69 -34 126
-39 173 -14 42 21 71 15 88 -21 8 -16 18 -37 22 -45 5 -8 15 -28 23 -45 7 -16
41 -66 75 -110 42 -54 59 -84 54 -95 -4 -8 -9 -62 -11 -119 -3 -107 -1 -118
47 -221 23 -50 112 -169 160 -213 47 -43 50 -56 20 -83 -27 -24 -79 -102 -79
-117 0 -7 -6 -21 -14 -32 -7 -11 -16 -40 -19 -65 -3 -25 -11 -69 -18 -98 -10
-44 -9 -70 5 -160 26 -162 74 -281 147 -362 l39 -44 -34 -28 c-46 -38 -99
-121 -120 -191 -20 -65 -18 -217 4 -297 30 -109 123 -292 160 -315 16 -10 12
-40 -8 -66 -27 -35 -52 -116 -52 -168 1 -103 61 -264 124 -330 33 -34 33 -40
-4 -106 -27 -49 -30 -62 -30 -149 0 -90 9 -132 41 -186 5 -8 13 -24 18 -36 13
-29 121 -124 142 -124 36 0 44 -28 40 -146 -3 -103 -1 -117 19 -149 28 -45 63
-48 85 -5 11 22 15 63 15 168 0 94 4 142 12 150 7 7 35 12 63 12 93 0 171 77
207 201 29 105 21 175 -35 286 l-21 41 47 52 c25 28 55 70 66 93 50 110 53
123 53 233 0 98 -2 115 -27 166 -15 31 -33 62 -41 69 -22 18 -17 35 23 69 46
41 122 128 134 155 5 11 13 27 18 35 37 63 71 178 71 242 0 27 -9 80 -20 117
-18 57 -31 78 -85 134 -36 36 -65 71 -65 77 0 5 22 26 48 44 71 52 121 127
164 251 30 86 32 324 3 405 -24 67 -80 156 -111 177 -37 24 -29 48 34 110 65
65 141 163 161 208 25 56 43 140 45 212 3 71 16 103 41 103 18 0 83 74 138
157 27 40 54 76 60 80 7 4 89 6 183 4 173 -3 265 9 334 44 95 47 131 54 189
34 34 -12 97 1 131 26 29 21 91 45 117 45 35 0 126 27 189 55 67 31 121 96
126 150 l3 40 -87 -4 c-70 -2 -90 0 -103 13 -9 9 -25 16 -34 16 -10 0 -24 7
-31 15 -7 8 -20 15 -30 15 -10 0 -23 7 -30 15 -7 8 -16 15 -21 15 -20 0 -282
192 -429 315 -286 239 -475 352 -645 385 -67 13 -193 10 -160 -4 40 -16 91
-34 150 -52 70 -22 225 -100 309 -155 32 -21 60 -39 62 -39 3 0 48 -32 102
-72 53 -39 120 -88 147 -108 28 -20 93 -67 145 -106 138 -101 186 -132 275
-178 28 -15 57 -30 65 -34 53 -29 84 -42 102 -42 10 0 26 -7 34 -15 9 -8 28
-15 44 -15 45 0 44 -15 -2 -53 -61 -49 -137 -65 -226 -47 -62 12 -169 57 -234
98 -69 44 -166 112 -193 136 -16 14 -82 65 -147 114 -119 89 -132 104 -144
166 -15 82 -51 49 -60 -54 -12 -132 -48 -184 -169 -242 -63 -30 -79 -33 -160
-34 l-89 0 -3 -58 c-3 -72 -39 -136 -108 -188 -93 -71 -243 -99 -335 -62 l-41
16 3 147 c3 124 5 145 18 142 8 -2 31 -8 51 -13 61 -16 150 16 209 75 65 65
66 76 14 126 -73 69 -89 109 -89 231 0 111 7 135 63 208 14 18 22 35 18 39
-11 12 -60 -32 -101 -91 l-40 -58 1 -108 c0 -109 3 -123 53 -230 9 -19 22 -43
29 -52 25 -30 10 -49 -53 -69 -69 -22 -107 -24 -138 -8 -34 18 -37 28 -37 122
0 74 5 100 29 160 55 137 61 158 61 208 0 129 -105 219 -257 219 -102 0 -154
-28 -206 -112 -28 -45 -23 -159 12 -256 33 -90 47 -189 36 -257 -5 -37 -12
-50 -38 -66 -58 -35 -147 -15 -190 43 l-20 27 36 40 c78 87 91 117 91 216 1
69 -4 101 -19 135 -37 85 -112 167 -189 207 -61 32 -200 58 -251 47z m180 -75
c142 -50 215 -141 215 -268 0 -85 -20 -129 -91 -202 -27 -28 -49 -53 -49 -57
1 -16 27 -79 44 -104 35 -53 82 -72 181 -73 l90 -1 3 -124 c4 -197 3 -200
-138 -200 -94 0 -135 9 -190 41 -8 5 -24 13 -35 18 -31 14 -78 77 -96 128 -12
34 -14 55 -7 86 10 45 1 57 -42 57 -65 0 -189 58 -245 114 -57 57 -83 116 -91
209 -6 63 -10 77 -24 77 -9 0 -109 -69 -221 -153 -112 -84 -211 -156 -219
-160 -8 -4 -28 -16 -45 -26 -54 -35 -153 -80 -230 -105 -60 -19 -319 -23 -331
-5 -11 18 12 33 186 122 310 159 425 230 664 410 112 84 256 177 275 177 5 0
22 6 38 14 97 50 257 61 358 25z m683 -45 c23 -19 42 -44 42 -55 0 -25 -8 -24
-37 7 -33 36 -49 27 -45 -26 6 -68 -6 -105 -43 -141 -19 -19 -35 -37 -35 -41
0 -15 75 -7 95 10 28 23 65 97 65 127 0 33 18 32 26 -1 12 -46 -26 -143 -69
-177 -33 -27 -44 -30 -103 -29 -45 0 -71 6 -83 16 -10 9 -21 16 -25 16 -15 0
-70 71 -83 107 -16 49 -16 73 1 114 28 68 98 107 192 108 55 1 64 -2 102 -35z
m-89 -390 l61 -7 0 -81 c0 -116 -18 -540 -35 -826 -8 -135 -16 -282 -18 -327
-1 -45 -6 -85 -10 -89 -11 -11 -108 16 -140 40 l-29 21 6 120 c3 66 9 349 12
630 3 280 8 513 11 517 5 10 60 10 142 2z m-1116 -51 c9 -21 19 -48 22 -60 6
-23 -9 -63 -25 -63 -9 0 -147 -94 -226 -154 -39 -30 -104 -65 -187 -100 -44
-19 -222 -23 -232 -5 -8 12 18 32 85 68 46 24 161 100 395 261 72 50 135 90
141 90 6 0 18 -17 27 -37z m2309 -115 c83 -59 301 -222 398 -299 88 -69 100
-89 52 -89 -121 0 -335 97 -449 203 -51 48 -99 127 -107 175 -12 79 7 81 106
10z m-2188 -69 c14 -17 26 -34 26 -39 0 -10 -159 -157 -188 -173 -122 -69
-174 -87 -254 -87 -37 0 -69 4 -72 8 -5 8 63 60 230 177 31 22 88 68 126 102
77 69 84 70 132 12z m2068 -91 c70 -59 152 -125 245 -196 57 -43 83 -76 70
-89 -9 -8 -160 18 -202 35 -76 31 -172 113 -240 204 -31 43 -28 60 12 81 42
22 47 21 115 -35z m-1870 5 c14 -13 15 -19 3 -46 -45 -107 -215 -216 -337
-217 -46 0 -44 2 82 144 122 137 194 171 252 119z m1652 -47 c14 -19 26 -38
26 -42 0 -9 55 -76 124 -149 59 -63 68 -92 26 -88 -116 11 -279 124 -311 216
-12 33 -11 39 4 55 17 16 69 40 93 41 7 1 23 -14 38 -33z m-1459 -221 c95 -72
169 -95 303 -95 l103 0 -3 -32 c-3 -28 -7 -33 -28 -31 -14 2 -83 3 -155 3
-144 1 -202 -13 -255 -63 -16 -15 -33 -27 -39 -27 -5 0 -30 14 -55 30 -47 32
-102 99 -132 162 -15 32 -15 41 -3 70 7 18 36 55 63 82 l50 48 56 -58 c30 -33
73 -72 95 -89z m1385 -32 c40 -56 40 -56 22 -84 -34 -55 -134 -159 -157 -165
-17 -4 -34 2 -62 25 -46 37 -110 71 -134 71 -9 0 -30 7 -45 15 -22 11 -63 15
-160 15 -108 0 -133 3 -138 15 -15 39 2 45 122 45 184 0 312 49 400 152 l24
28 43 -30 c24 -17 62 -56 85 -87z m-1077 -175 c21 -8 48 -24 59 -36 20 -20 20
-22 5 -46 -9 -13 -33 -37 -53 -52 -34 -26 -44 -28 -125 -28 -65 0 -92 4 -106
15 -64 56 -91 15 -58 -88 33 -101 68 -145 165 -208 67 -43 170 -89 275 -124
33 -11 85 -30 115 -41 30 -12 69 -26 85 -31 51 -15 204 -97 246 -131 95 -78
161 -201 175 -325 6 -50 -21 -173 -48 -223 -48 -87 -78 -122 -167 -190 -33
-26 -53 -34 -81 -33 -52 2 -150 61 -150 91 0 7 26 48 58 90 85 114 97 143 96
226 0 59 -5 78 -26 112 -39 61 -134 132 -248 185 -41 20 -162 75 -205 94 -36
16 -171 82 -203 100 -12 6 -49 33 -82 58 -190 148 -215 350 -63 515 24 26 87
64 143 85 27 11 154 1 193 -15z m743 -14 c40 -20 89 -57 117 -86 46 -50 47
-52 47 -117 0 -43 -8 -92 -23 -137 -84 -258 -290 -374 -459 -260 -34 22 -36
53 -5 66 23 10 31 15 105 63 24 15 47 27 51 27 23 0 144 127 165 174 55 118
57 173 5 145 -13 -7 -53 -18 -89 -25 -113 -21 -213 10 -240 77 -14 33 -10 42
42 80 38 27 48 29 128 29 80 0 93 -3 156 -36z m-648 -201 c4 -70 -9 -117 -34
-121 -20 -3 -138 50 -149 67 -3 5 18 21 47 35 29 14 67 36 83 50 17 14 35 24
40 22 6 -1 11 -25 13 -53z m334 39 c4 -10 90 -62 150 -91 56 -27 62 -34 54
-66 -9 -34 -63 -81 -140 -120 -78 -41 -101 -43 -117 -14 -14 26 10 62 56 86
17 9 37 20 45 25 8 4 25 13 38 18 13 5 20 14 17 20 -9 15 -41 12 -55 -5 -7 -8
-28 -15 -46 -15 l-34 0 0 85 c0 67 3 85 14 85 8 0 16 -4 18 -8z m-489 -155
c21 -8 43 -19 49 -25 7 -7 17 -12 22 -12 15 0 76 -62 76 -77 0 -35 -122 10
-171 64 -49 55 -54 63 -33 63 11 0 36 -6 57 -13z m2 -492 c33 -18 61 -40 63
-49 2 -8 -9 -37 -24 -63 -65 -118 -69 -232 -12 -339 19 -34 120 -131 152 -145
12 -5 37 -19 56 -30 19 -12 55 -32 80 -46 183 -99 266 -156 332 -225 73 -78
102 -145 106 -252 7 -160 -46 -280 -164 -373 -58 -46 -101 -45 -165 5 -26 20
-51 44 -54 53 -3 10 7 36 23 60 82 125 83 233 4 337 -23 30 -148 130 -182 145
-8 4 -28 16 -45 27 -16 11 -37 23 -45 27 -8 4 -35 20 -60 37 -219 145 -299
242 -341 416 -23 91 -23 115 -4 170 8 23 15 56 15 72 0 30 20 60 105 160 49
59 75 61 160 13z m318 -169 c19 -12 22 -69 10 -288 -5 -111 -8 -128 -23 -128
-25 0 -79 29 -88 48 -8 16 -16 188 -17 340 0 78 14 90 65 60 19 -12 43 -27 53
-32z m-163 -166 c0 -81 -4 -131 -11 -135 -12 -8 -34 17 -54 64 -36 80 0 224
51 204 11 -4 14 -33 14 -133z m313 35 c36 -75 6 -184 -49 -185 -15 0 -29 145
-19 189 10 45 46 43 68 -4z m-522 -587 c44 -23 169 -109 169 -116 0 -4 -11
-25 -23 -47 -41 -71 -51 -126 -36 -186 11 -44 26 -65 79 -119 68 -69 131 -122
184 -154 52 -31 173 -144 213 -199 50 -68 65 -108 70 -191 5 -74 -12 -136 -51
-189 -34 -46 -121 -98 -168 -100 -38 -2 -42 0 -50 28 -11 38 -1 140 18 176 21
42 17 67 -18 113 -49 61 -89 97 -238 211 -74 56 -158 127 -187 156 -113 118
-159 288 -119 434 18 65 37 101 81 153 40 47 43 47 76 30z m326 -210 c22 -20
23 -28 23 -154 0 -111 -3 -135 -18 -154 l-17 -21 -25 26 c-23 24 -25 34 -28
160 -3 74 -2 141 2 150 8 21 36 19 63 -7z m-112 -125 c-8 -46 -13 -55 -26 -48
-10 7 -12 68 -2 78 3 4 13 7 21 7 11 0 13 -8 7 -37z m235 -33 c0 -50 -15 -74
-31 -49 -12 19 -11 52 1 84 15 39 30 21 30 -35z m-395 -480 c14 -5 38 -21 53
-35 15 -14 30 -25 34 -25 5 0 8 -44 8 -97 l0 -98 50 -52 c27 -29 53 -53 57
-53 5 0 8 46 8 102 0 86 3 103 16 106 11 2 23 -10 34 -34 15 -31 16 -49 9
-108 -8 -61 -12 -71 -31 -76 -20 -4 -9 -18 95 -125 139 -142 177 -205 177
-297 -1 -32 -6 -63 -13 -70 -7 -7 -12 -18 -12 -25 0 -16 -40 -73 -52 -73 -4 0
-8 31 -8 69 0 50 -6 83 -24 122 -38 87 -66 112 -341 309 -132 94 -175 164
-175 282 0 71 23 164 45 180 14 11 39 10 70 -2z m79 -596 c17 -7 22 -39 7 -48
-15 -10 -48 -87 -61 -144 -8 -33 -10 -77 -5 -115 l7 -62 -24 23 c-56 52 -76
216 -37 292 29 55 65 72 113 54z m78 -269 c-2 -77 -8 -144 -12 -149 -5 -4 -18
11 -31 35 -44 86 -23 267 30 257 14 -3 16 -21 13 -143z m186 68 c19 -37 22
-100 7 -151 -17 -55 -32 -73 -46 -51 -10 16 -12 202 -2 212 12 13 32 7 41 -10z
m-101 -160 c6 -130 -4 -292 -17 -258 -10 28 -23 357 -14 379 15 38 26 -6 31
-121z"/>
<path d="M4075 6070 c-10 -16 14 -40 40 -40 23 0 60 32 48 43 -10 11 -81 8
-88 -3z"/>
<path d="M4807 6073 c-12 -11 25 -43 48 -43 26 0 50 24 40 40 -7 11 -78 14
-88 3z"/>
<path d="M1076 6858 c-2 -7 -12 -47 -21 -88 -9 -41 -22 -97 -30 -125 -79 -297
-89 -519 -29 -677 45 -122 70 -167 89 -167 24 -1 122 158 162 264 64 165 67
180 67 336 1 157 -1 164 -67 297 -20 39 -54 85 -89 118 -57 55 -76 64 -82 42z"/>
<path d="M7688 6828 c-76 -72 -116 -132 -149 -230 -29 -84 -31 -301 -4 -393
51 -175 176 -409 214 -402 14 2 54 72 80 137 22 57 51 215 51 280 0 77 -29
247 -75 430 -7 30 -22 91 -32 134 -11 44 -23 81 -29 83 -5 2 -30 -16 -56 -39z"/>
<path d="M596 6123 c-10 -10 -7 -125 4 -184 6 -30 15 -90 20 -134 22 -201 80
-409 154 -555 57 -114 188 -249 243 -250 19 0 22 7 29 68 16 154 -7 410 -53
572 -61 219 -176 393 -295 448 -71 32 -96 41 -102 35z"/>
<path d="M8190 6114 c-87 -28 -183 -113 -243 -213 -118 -199 -184 -529 -162
-811 8 -102 17 -110 78 -68 144 100 233 256 300 523 28 109 47 210 47 240 0
17 7 65 15 108 8 43 15 112 15 153 0 78 -4 83 -50 68z"/>
<path d="M1515 5633 c-132 -166 -254 -402 -308 -593 -42 -146 -47 -179 -47
-311 0 -171 19 -235 99 -338 32 -41 35 -42 48 -25 14 19 173 341 201 404 8 19
21 48 28 63 8 16 14 35 14 44 0 8 6 27 14 41 15 29 35 93 59 187 39 152 47
292 23 405 -14 70 -61 180 -77 180 -5 0 -29 -26 -54 -57z"/>
<path d="M7243 5663 c-39 -59 -73 -198 -73 -293 1 -96 36 -286 66 -358 8 -18
14 -39 14 -47 0 -8 6 -29 14 -47 8 -18 24 -58 36 -88 60 -150 220 -470 235
-470 27 0 89 93 119 178 15 42 19 83 18 188 0 142 -12 211 -59 349 -14 39 -28
84 -33 100 -36 117 -278 515 -314 515 -3 0 -14 -12 -23 -27z"/>
<path d="M506 5352 c-12 -11 -6 -207 10 -311 19 -134 42 -253 60 -311 26 -87
54 -171 63 -188 45 -89 60 -116 97 -173 45 -68 197 -222 237 -239 12 -6 41
-22 65 -36 62 -36 74 -28 66 43 -17 172 -86 475 -141 618 -8 22 -22 58 -31 80
-18 47 -48 112 -65 140 -70 116 -111 171 -171 234 -70 72 -179 155 -190 143z"/>
<path d="M8250 5308 c-89 -67 -132 -110 -195 -194 -126 -166 -219 -399 -279
-694 -22 -108 -44 -237 -50 -293 -7 -63 6 -67 81 -26 120 66 241 185 320 314
21 34 83 165 83 175 0 5 6 24 14 42 31 72 64 216 91 395 16 106 21 319 8 326
-5 3 -37 -18 -73 -45z"/>
<path d="M1565 4566 c-8 -19 -15 -47 -15 -62 0 -14 -8 -54 -17 -88 -25 -94
-25 -541 0 -646 44 -179 65 -238 127 -370 60 -128 187 -320 211 -320 22 0 50
79 69 195 4 28 13 70 21 95 20 72 17 457 -5 540 -51 195 -102 325 -166 425
-11 17 -24 39 -29 50 -16 33 -155 208 -169 213 -7 2 -19 -12 -27 -32z"/>
<path d="M7172 4523 c-60 -75 -144 -203 -163 -247 -5 -11 -13 -28 -18 -36 -36
-61 -84 -201 -117 -339 -21 -90 -24 -447 -4 -521 7 -25 16 -70 21 -100 14 -92
43 -182 61 -194 14 -8 21 -6 33 9 19 25 106 154 121 180 27 46 114 224 114
234 0 6 6 25 14 43 73 172 105 447 82 703 -8 88 -20 176 -25 195 -6 19 -11 48
-11 65 0 33 -19 76 -36 82 -6 2 -39 -31 -72 -74z"/>
<path d="M506 4212 c-9 -14 34 -148 77 -242 71 -157 224 -310 424 -425 43 -25
85 -50 93 -55 64 -38 396 -200 411 -200 17 0 19 5 14 38 -11 65 -36 138 -82
237 -74 161 -232 316 -458 452 -52 31 -235 117 -325 153 -30 11 -68 28 -83 36
-32 16 -63 18 -71 6z"/>
<path d="M8250 4203 c-19 -9 -50 -22 -67 -29 -74 -31 -105 -44 -136 -57 -48
-21 -169 -83 -208 -106 -19 -12 -41 -24 -49 -28 -14 -6 -46 -29 -135 -95 -55
-42 -175 -169 -210 -223 -39 -62 -105 -199 -105 -219 0 -7 -7 -30 -15 -49 -20
-47 -20 -107 -1 -107 12 0 379 182 466 231 183 104 346 250 427 384 50 82 121
284 108 305 -9 14 -34 11 -75 -7z"/>
<path d="M736 3431 c-6 -9 3 -42 13 -51 3 -3 17 -21 31 -40 122 -175 359 -399
525 -496 27 -16 59 -34 70 -41 11 -7 30 -17 43 -23 13 -5 46 -20 75 -33 146
-67 285 -103 477 -127 108 -13 110 -13 110 5 0 20 -104 178 -175 265 -79 96
-290 288 -345 313 -8 4 -28 16 -45 27 -43 27 -146 81 -175 90 -14 5 -49 18
-79 29 -82 31 -204 58 -321 71 -187 20 -198 21 -204 11z"/>
<path d="M8020 3434 c-285 -26 -417 -59 -605 -151 -143 -71 -237 -137 -357
-256 -142 -139 -328 -390 -306 -413 8 -7 184 13 273 32 157 33 248 65 395 139
66 33 206 119 220 135 3 3 25 21 50 40 106 80 240 219 339 350 77 103 84 117
65 124 -9 3 -21 5 -27 4 -7 0 -28 -3 -47 -4z"/>
<path d="M2096 3393 c-19 -20 23 -273 65 -398 6 -16 15 -43 19 -60 18 -63 74
-201 100 -245 5 -8 20 -36 34 -62 32 -59 91 -151 108 -169 7 -8 33 -39 58 -69
89 -108 217 -223 341 -303 59 -39 78 -45 80 -24 12 138 -42 424 -112 592 -22
54 -80 169 -99 200 -11 17 -23 37 -27 45 -16 36 -103 141 -177 216 -74 74
-235 204 -252 204 -4 0 -15 6 -23 14 -27 23 -109 65 -115 59z"/>
<path d="M6695 3379 c-16 -10 -37 -22 -45 -26 -8 -4 -35 -20 -60 -37 -164
-109 -330 -271 -416 -406 -80 -127 -160 -305 -184 -410 -4 -19 -12 -55 -18
-80 -29 -118 -42 -208 -42 -284 0 -45 3 -85 6 -89 15 -15 223 141 329 248 149
149 243 291 339 510 80 182 162 555 130 585 -5 4 -22 -1 -39 -11z"/>
<path d="M1445 2599 c-65 -8 -129 -29 -147 -47 -7 -7 -17 -12 -23 -12 -16 0
-55 -43 -55 -62 0 -12 149 -119 210 -151 8 -4 29 -16 45 -27 17 -11 39 -24 50
-30 11 -6 47 -26 80 -45 72 -42 302 -155 365 -180 25 -10 59 -23 75 -30 17 -7
55 -20 85 -28 30 -9 82 -23 115 -33 89 -25 324 -26 385 0 68 28 75 32 78 49 4
20 -126 135 -286 251 -34 25 -64 46 -66 46 -3 0 -31 17 -63 38 -62 42 -71 47
-190 105 -134 67 -249 113 -303 124 -14 3 -45 11 -70 18 -57 17 -207 24 -285
14z"/>
<path d="M7195 2600 c-77 -8 -161 -29 -245 -61 -30 -11 -67 -24 -81 -29 -14
-4 -34 -12 -45 -18 -10 -6 -53 -27 -94 -47 -185 -90 -401 -237 -555 -378 -68
-63 -68 -78 0 -104 160 -60 436 -27 690 82 63 28 171 77 185 85 8 5 51 27 95
50 44 22 94 50 110 60 17 11 39 24 50 30 11 6 34 19 50 30 17 11 37 23 45 27
8 4 43 26 78 50 35 24 65 43 68 43 3 0 18 10 34 22 44 32 39 58 -19 96 -28 17
-55 32 -61 32 -6 0 -23 6 -38 14 -34 17 -176 26 -267 16z"/>
<path d="M3055 2565 c-5 -2 -22 -6 -37 -9 -36 -8 -36 -33 -2 -83 14 -21 30
-47 35 -58 5 -11 18 -33 29 -50 11 -16 24 -39 30 -50 6 -11 19 -33 30 -50 11
-16 24 -39 30 -50 6 -11 18 -32 28 -47 9 -15 35 -55 56 -90 98 -157 253 -335
366 -422 69 -53 167 -99 246 -115 79 -17 108 -12 112 17 5 31 -31 150 -73 247
-39 90 -59 127 -107 203 -16 24 -28 45 -28 48 0 3 -33 49 -74 102 -126 165
-287 306 -411 361 -66 29 -200 56 -230 46z"/>
<path d="M5645 2550 c-105 -27 -135 -42 -250 -127 -130 -95 -269 -255 -372
-428 -21 -35 -110 -219 -126 -260 -25 -65 -50 -172 -44 -189 8 -19 49 -20 127
-2 192 42 393 221 592 526 41 63 171 277 181 300 4 8 16 29 27 45 11 17 23 37
27 45 3 8 14 25 24 38 24 31 15 49 -29 62 -49 13 -74 12 -157 -10z"/>
<path d="M2205 1810 c-33 -5 -91 -14 -130 -19 -232 -34 -407 -143 -472 -293
-7 -15 -9 -29 -5 -31 14 -8 191 -37 327 -53 200 -25 646 -25 765 0 191 39 334
100 418 179 56 54 63 71 33 86 -41 23 -216 70 -346 95 -187 35 -478 53 -590
36z"/>
<path d="M6370 1815 c-8 -2 -69 -9 -135 -15 -114 -11 -215 -27 -315 -52 -25
-6 -61 -14 -80 -18 -78 -18 -170 -56 -170 -71 0 -13 71 -85 115 -115 39 -26
141 -75 180 -85 17 -4 44 -12 60 -17 17 -6 73 -19 125 -28 131 -25 555 -25
755 0 161 19 317 46 328 55 26 23 -102 184 -177 221 -22 12 -48 25 -56 29 -52
30 -179 65 -295 81 -83 11 -309 22 -335 15z"/>
<path d="M3410 1444 c-122 -21 -229 -44 -275 -60 -23 -8 -48 -14 -57 -14 -10
0 -32 -6 -50 -14 -18 -8 -53 -22 -78 -31 -324 -126 -541 -325 -565 -519 -6
-43 -4 -56 6 -56 20 0 241 40 364 66 39 8 79 14 90 14 19 0 83 13 220 47 294
71 510 167 647 289 84 74 191 235 170 256 -37 37 -304 50 -472 22z"/>
<path d="M5000 1442 c-30 -10 -55 -22 -55 -27 0 -6 14 -37 30 -69 36 -71 145
-191 220 -241 57 -37 208 -118 241 -128 10 -3 51 -16 89 -30 65 -22 92 -30
236 -71 31 -9 64 -16 75 -16 10 0 48 -6 84 -14 132 -30 216 -46 238 -46 13 0
51 -6 85 -14 95 -22 207 -40 212 -34 7 7 -19 114 -37 153 -55 122 -198 258
-348 334 -25 12 -52 26 -60 30 -21 12 -78 36 -125 54 -22 8 -58 21 -80 30
-242 89 -657 135 -805 89z"/>
<path d="M4225 1240 c-33 -17 -81 -43 -107 -58 -156 -91 -280 -239 -290 -347
l-3 -30 61 -3 c79 -4 159 32 226 100 54 55 99 142 179 346 11 29 5 28 -66 -8z"/>
<path d="M4550 1233 c15 -48 40 -113 49 -131 5 -9 20 -39 33 -65 41 -86 48
-95 107 -149 69 -62 132 -88 214 -88 l59 0 -7 40 c-4 22 -18 59 -31 83 -13 23
-28 51 -33 62 -22 50 -167 166 -293 234 -92 50 -110 52 -98 14z"/>
</g>
</svg>
