<?xml version="1.0" encoding="UTF-8" standalone="no"?>
<svg xmlns="http://www.w3.org/2000/svg" width="78.570831mm" height="105.984mm" viewBox="0 0 78.570831 105.984">
  <path d="M40.70037 105.70822c-1.02335-.41654-1.7739-1.11714-1.98295-1.851-.0997-.35011-.29808-.63287-.44076-.62836-.41098.013-.33188-.88081.19252-2.17545.30943-.76397.43238-1.56546.34182-2.22837-.0777-.56941-.1512-1.12771-.16316-1.24069-.0116-.11299-.73768-.48937-1.6127-.83641-1.84571-.73205-2.51441-1.68821-2.47716-3.54206.0127-.62801-.0691-1.28078-.18165-1.45061-.25234-.38083-1.93288-.35726-2.15575.0303-.21181.36827.47694 2.88423.78688 2.87442.13093-.004.24397.17897.25118.4069.007.22794.44034.79258.96251 1.25474 1.21835 1.07835 1.41327 2.06053.43761 2.20506-.38029.0563-.88226-.0767-1.11548-.29561-.23323-.21893-.49383-.39583-.57914-.39313-.26354.008-2.45894-2.12998-2.98404-2.90646-.2734-.40427-.68499-1.3015-.91465-1.99385-.38508-1.16085-.495-1.26862-1.41253-1.3848-.54722-.0692-5.95635-.0473-12.0203.049-10.56307.16763-11.03157.15391-11.17383-.32739-.0817-.27628-.15539-3.97952-.16386-8.22942-.008-4.24989-.0793-11.83476-.1574-16.85527-.18945-12.178-.25645-20.29456-.20229-24.50614l.0446-3.46906 3.58517-.28577c2.62488-.20924 3.69917-.3957 4.01075-.69614.23407-.22571.55506-.41446.7133-.41946.15823-.005.32835-.14526.37803-.31167.0627-.21004.34395-.18142.91968.0936.8537.40779 3.0123 1.1299 3.36473 1.12559.10915-.001.1933-.1658.18698-.36548-.0492-1.55512 2.32519-4.72606 4.32394-5.7745 2.5555-1.34051 3.66495-1.58658 6.33802-1.40577 2.33597.158 3.01991.33525 7.51455 1.94739l1.28243.45998.25057-.72558c.13783-.39906.26579-1.85772.28437-3.24144.0593-4.41279.15701-6.83298.29154-7.21971.15524-.44624-1.12719-1.08491-1.36126-.67795-.16447.28596-2.57156.43584-2.847.1773-.19184-.18006.71728-.99482 1.42852-1.28025.25159-.10101.45365-.30337.44902-.44978-.006-.17604-.23397-.17219-.67432.0113-.78149.32576-2.94231.5139-3.19355.27806-.0956-.0897.10324-.40923.44194-.70993l.61583-.54672-1.45482.0355-1.45482.0354.77674-.55052.77673-.55051-1.34435.0405c-.7394.0224-1.41575-.0263-1.50301-.10815-.0872-.0819-.003-.55723.18719-1.05628.45703-1.19909.44666-1.23021-.33578-1.00731-.58255.16595-6.4263-.16622-6.71699-.38182-.14159-.10502 1.06426-1.16783 1.34792-1.18803.12236-.009.51752-.26342.87813-.56602.54705-.45903.57596-.54765.17455-.53495-.2646.008-1.16204.22972-1.99429.49189-1.02455.32275-1.91046.42989-2.74341.3318-1.11903-.13166-1.19716-.1859-.86457-.59988.58062-.7227.7185-1.39278.28377-1.37903-.66198.0209-3.17593-1.11018-4.10741-1.84807-1.75573-1.39084-1.11054-1.64116 5.11218-1.98347.90848-.05 1.64833-.19733 1.64411-.32745-.0117-.36285 3.23226-.0815 4.40878.38228 2.01055.79268 2.67868 1.17854 5.63289 3.25314 3.26298 2.29143 4.88318 3.14427 5.91164 3.11174.58987-.0187.66814-.1327.64271-.93653-.0264-.83597-.84341-1.969-1.40689-1.95118-.39726.0126-.49074-.78265-.13635-1.16017.32672-.34806.28122-.46512-.36616-.942-1.85522-1.36663-2.37603-3.77152-1.15265-5.32244.35737-.45302.70346-1.13634.7691-1.51847.16617-.96737 1.22187-1.72017 2.67298-1.90608 1.13242-.14506 1.30247-.0857 2.16758.75675 2.78446 2.71152 3.26961 3.46774 3.3238 5.18082.0391 1.23523-.6819 2.58521-1.39266 2.60769-.43344.0137-.49181.43483-.0921.66471.41297.23752.37356 1.86742-.0543 2.24599-.45942.40648-.75997 2.09745-.42736 2.40445.24701.22799 3.81498-1.04168 5.20273-1.85141.42887-.25023.92849-.46041 1.11027-.46705.18178-.007.32732-.11305.32342-.23643-.004-.12338.43317-.42775.97129-.67637.53811-.24862 1.619-.84899 2.40197-1.33417 3.03846-1.88279 7.38295-3.0448 10.6072-2.83706 2.72358.17547 5.33221.67094 6.54862 1.24379.58205.2741 1.24153.49257 1.4655.48549.22396-.007.41097.10612.41557.25156.005.14546.15717.26126.33903.25735.18187-.004 1.05632.33769 1.9432.75913 1.96814.93519 4.28869 1.68755 5.12359 1.66114 1.81923-.0575-.35064 1.36335-2.95822 1.93712-1.54603.3402-1.90302.51126-1.89054.90587.008.26756.1939.48084.41207.47394.21818-.007.40276.17981.4102.41494.0115.36477-.22963.41218-1.64425.32317-.91178-.0574-2.10641-.1656-2.65476-.24054-1.0827-.14794-1.15972-.0654-.64979.69641.50945.76109.17181.87021-1.42457.46041-1.74037-.44679-2.70279-.89314-5.11136-2.37055-2.53768-1.5566-2.44075-1.82163.65594-1.79348 1.37512.0125 2.65981.14335 2.85489.29077.19507.14743.77364.33233 1.2857.4109.91703.14072.91281.13435-.28103-.4238-1.54498-.7223-3.22214-1.76965-3.2343-2.01975-.005-.10626.31559-.27573.71278-.3766 2.01956-.51288 1.98216-.66504-.1519-.61797-2.17972.048-2.54091.22196-1.74579.84046.23204.18051.54893.54852.70421.81781.25289.43861.19079.48488-.59602.44409-.48307-.025-1.84325.0856-3.0226.24598l-2.14427.2915.451.73125c.48227.78195.31995 1.29682-.26529.84156-.42714-.33225-3.03288-.40484-3.30705-.0921-.10701.12206-.0442.27034.13973.32952.18387.0592.33993.28564.34681.50326.01.31217-.1702.35809-.85343.21763-.91986-.1891-2.05158-.144-3.76745.15008-.77631.13307-1.1267.35175-1.33294.83187-.33926.78986-.0618.9341 1.18012.61337 1.11409-.28773 1.17029.26925.11149 1.10507-.89233.70443-.7896 1.04967.30205 1.01514.42777-.0135.78147.0928.78601.2363.0115.36503-1.72663 1.11704-2.64934 1.14622-.76003.024-.76289.0301-.30738.67977.59379.84659.34196 1.0879-.76013.72835-.48486-.15818-1.17076-.28268-1.52422-.27666-.35345.006-.94553-.14971-1.31573-.34607-.98372-.52179-1.13497-.45123-.91303.42595.20253.80041-.1964 1.09808-.78877.58857-.14217-.12231-.59563-.29077-1.00766-.37436l-.74915-.15199.28211 3.90478c.53523 7.40834.65778 7.74273 2.54799 6.95248 1.67829-.70166 11.69299-1.20004 12.90565-.64224.47391.21799.96738.39299 1.09659.38891.41864-.0132 2.62588 1.62746 2.64728 1.9678.0118.18162.12802.32685.2591.3227.31247-.01 1.2604 1.49719 1.52423 2.42332.17245.60534.30572.69462.78799.52783.31924-.11042.61685-.30529.66133-.43304.0445-.12776.21966-.23932.38924-.24793.16959-.008.59849-.25776.95311-.55369.84876-.70828 1.56517-.73094 1.58671-.0502.0111.3526.19303.52333.54562.51218.30453-.01.53448.15957.54205.39883.015.47495.65464 1.15161 1.07596 1.13828.15584-.005.28892.16728.29573.38267.0188.59476 1.15445.72248 3.97889.44748l2.56316-.24957.30596 3.89351c.32366 4.1189 1.50878 30.72418 1.90454 42.75616l.23485 7.13989-2.38047.0623c-5.07516.13272-15.93829.0651-17.06006-.10623-1.82192-.27829-2.65634.26165-2.61117 1.68964.009.279-.10295.51104-.2484.51564-.14545.005-.25841.19966-.25101.43347.0251.79298-2.7295 3.2728-4.39467 3.95628-1.5031.61697-1.58231.62395-2.09906.18521-.71602-.60792-.69156-1.04141.0925-1.63884 2.52051-1.92065 3.61688-4.22704 2.41518-5.08075-.52039-.3697-1.62414-.42099-2.09876-.0975-.16627.11332-.28481.75945-.26341 1.43586.0216.6839-.14053 1.52353-.36531 1.89146-.41149.67356-3.20326 2.41306-3.90858 2.43537-.70807.0224-.7428 1.3685-.0798 3.09119.71833 1.86635.78313 2.48506.3475 3.318-.41146.78673-.89712 1.21289-1.9632 1.72267-1.02879.49194-1.73424.52381-2.71933.12283zm2.78138-.67755c.62471-.66552.46684-1.84868-.30999-2.32328-1.53129-.93551-4.05904-.0374-3.67628 1.30614.37544 1.31793 3.06076 2.00311 3.98627 1.01714zm-3.00832-2.89258c.60471-.28162 1.03505-.29552 2.11558-.0679.74604.15686 1.49785.38323 1.67066.50305.45309.3141.7202-.29529.32514-.74179-.37683-.42591-1.93519-.85459-2.99287-.82329-.39706.0118-1.19431.22791-1.77164.48038-.84075.36765-1.04545.59306-1.02839 1.13242.0194.61227.0622.63698.47186.27223.24781-.22065.79216-.56026 1.20967-.75469zm3.83184-1.70321c-.67063-1.16311-4.03554-1.3062-3.9996-.17008.0145.45735.20681.51136 1.66929.46869.90912-.0268 1.83151.0569 2.04975.18549.53925.31762.64129.14155.28056-.4841zm-.0329-3.2856c.054-1.20285-.0652-3.19438-.26489-4.4256-.68145-4.20164-.75426-5.68018-.32404-6.58082.219-.45846.51412-.83724.65584-.84172.14171-.004.25201-.18666.24511-.40483-.0133-.42014-.49201-.50357-.94447-.16461-.86244.64611-1.41665 2.0493-1.50886 3.82025-.0535 1.02785-.18673 1.92806-.29601 2.00048-.10929.0724-.30584-.78885-.43678-1.91392-.25152-2.16104-.85808-3.61879-1.67671-4.02964-.68641-.34449-.83361-.0782-.43924.79477.47533 1.05217.62128 5.24126.22765 6.5358-.45204 1.48685-.32394 5.67819.20149 6.59141.37079.64449.51071.69427 1.4725.52388.58454-.10353 1.42326-.0904 1.86381.0291.44056.11952.87424.22523.96371.23492.0894.01.20688-.96655.26088-2.16941zm7.92143.27886c1.54731-1.17458 2.70803-2.53661 3.35394-3.93567.55519-1.20256.63622-1.74233.57101-3.80394-.071-2.24312-.14199-2.5181-1.07068-4.14421-1.1043-1.93361-1.59104-2.71604-1.80851-2.90716-.08-.0703-.63615-.70744-1.236-1.41595-.59985-.7085-1.39645-1.54115-1.77021-1.85033-2.08583-1.72539-4.97507-3.63823-6.62425-4.38562-1.03399-.46859-1.92245-.93998-1.97439-1.04753-.0519-.10755-.23335-.1939-.40314-.19189-.32316.004-5.50706-2.34698-6.55754-2.97372-.33389-.1992-.61181-.51207-.6176-.69526-.006-.18318-.18904-.32742-.40722-.32052-.21817.007-.40232-.16595-.40922-.38412-.007-.21817-.1804-.39137-.38557-.38488-.53247.0168-1.82515-2.51783-1.85294-3.63321-.048-1.92617.35346-2.9765 1.68779-4.41594.71417-.77041 1.29403-1.54158 1.28859-1.71369-.0165-.52234-.97475-.83049-2.4385-.78419-1.31038.0414-1.45411.11673-2.56191 1.34125-.6455.71353-1.37731 1.76408-1.62623 2.33456-1.3319 3.05234-.0883 8.89681 2.39897 11.27412 2.03377 1.94388 3.24995 2.76678 5.66599 3.83375 1.40866.62209 2.71125 1.12631 2.89466 1.12051.36277-.0115 5.24786 2.21525 6.55793 2.98925.44509.26296 1.08143.60902 1.41408.769.33265.15999.60798.39079.61184.51289.004.1221.11379.21862.24427.2145.51157-.0162 3.70081 2.78375 4.33115 3.80244 1.38055 2.23111 1.57541 2.78098 1.64425 4.63977.0538 1.44788-.0358 2.02413-.37628 2.42536-.24563.28945-.44301.63996-.43861.77892.004.13897-.62608.91976-1.40106 1.73509-.77497.81534-1.40609 1.57574-1.40248 1.68979.0144.45446 1.91491.12099 2.69787-.47337zm-18.61773-.6938c-.005-.15936-.23744-.59871-.51646-.97635-1.91554-2.59264-2.01247-6.67871-.22995-9.69571.57847-.9791 2.62017-3.09341 3.85715-3.99434.49564-.36099.89758-.7952.8932-.96492-.004-.16972.13064-.3597.30004-.42219.59517-.21953-.11086-.7309-.97154-.70367-.54304.0172-1.26397.33214-1.91726.83763-1.28702.99584-2.89269 2.68356-2.88176 3.02901.004.1406-.0872.25865-.20367.26233-.54099.0171-1.3572 2.64962-1.42983 4.61159-.0418 1.12966-.17802 2.05717-.30268 2.06112-.4058.0128-.33457-3.01991.10289-4.38124.48553-1.5109 1.30134-3.07523 1.60884-3.08496.1141-.004.2035-.13123.19867-.28363-.0127-.40137 1.70646-2.05278 3.4059-3.27168 1.04832-.7519 1.17166-1.1164.54317-1.60528-.6121-.47614-1.70031.12012-3.30414 1.81038-2.34279 2.46909-3.72013 6.27171-3.60379 9.94959.0622 1.96622.17013 2.39576.9659 3.8436.49274.8965 1.26592 2.00545 1.71818 2.46432.79996.81167 1.78565 1.09859 1.76717.5144zm13.50112-.94677c1.21211-.66749 1.88565-2.0369 1.58542-3.22344-.14696-.58079-.45094-.8364-1.37516-1.15626-.65258-.22585-1.18962-.50916-1.19343-.62958-.004-.12042 1.15228-.28971 2.56908-.3762 2.08004-.12692 2.57359-.23362 2.56346-.55393-.0103-.32491-.55634-.39306-3.01826-.37671-3.13143.0208-3.73736.20726-3.70782 1.141.0182.57553.90635 1.40595 1.96073 1.83333.53962.21873.7589.49417.77101.96848.023.91715-.20185 1.20833-1.33128 1.72106-1.049.47622-1.31394 1.27604-.41324 1.24755.29669-.009 1.01196-.27728 1.58949-.5953zm-8.51359-.38345c-.0147-.46442-.21986-.73612-.67394-.89252-1.01403-.34925-1.33978-1.12632-.8777-2.09369.21248-.44482.49764-.81228.63368-.81658.34836-.011 1.29122-1.13386 1.27891-1.52303-.0113-.35787-.92472-.49993-4.18987-.65163-1.88275-.0875-2.1853-.0439-2.174.31328.0211.66768.83926.88997 2.60335.70731.90699-.0939 1.65108-.10725 1.65354-.0296.002.0777-.39848.58326-.89097 1.12356-1.46649 1.60887-1.02503 3.34546 1.05819 4.16271 1.31889.5174 1.60295.46345 1.5788-.29985zm7.78575-1.18172c.59677-.70287.2125-1.40841-.81609-1.49839-.63923-.0559-.70063.0202-.67477.83755.0439 1.38663.64746 1.65418 1.49086.66084zm-7.60096-1.05026c.30232-.61052.31321-1.6156.0174-1.60624-.54624.0173-1.353.93197-1.33462 1.51316.0254.80363.93359.86781 1.31721.0931zm38.88648-6.07851c-.14402-1.92456-.61361-12.45641-1.04362-23.40411-.43004-10.94769-.92031-20.92857-1.08952-22.17971-.16921-1.25114-.24953-2.37586-.17851-2.49937.071-.12351-1.03219-.18782-2.45162-.14292-2.81325.089-2.88913.22963-.58989 1.09336.8104.30444 1.5693.6304 1.68646.72436.11717.0939.11965 1.53366.005 3.19932-.21926 3.19913.88126 40.05193 1.29612 43.40145l.2186 1.76513-7.08446.1205c-3.89646.0663-7.7211.0613-8.4992-.011-1.66554-.15479-2.74082.0927-2.72391.62725.0168.5313.86591.89851 2.06236.89192.55545-.003 1.31043.0803 1.67774.18526.3673.10495 4.33711.0866 8.82181-.0407l8.15399-.23151zm-49.9936 3.10351c.30769-.88446-.14277-1.18671-1.69541-1.1376-.82806.0262-3.05018-.0159-4.93806-.0936-2.64381-.10881-10.14606-.18252-13.02803-.12799-.41075.008-.99499-16.21796-.62282-17.29842.13779-.40007.06-6.97607-.18954-16.01818l-.42329-15.33949 1.1355-.20718c.62453-.11391 1.20154-.32199 1.28224-.46233.0807-.14032.42926-.37289.77455-.51683.34529-.14393.62382-.38754.61895-.54135-.006-.18442-1.0201-.22218-2.97836-.11087l-2.96952.16877-.13338 1.32779c-.0733.73029.0173 8.52992.20138 17.3325.18409 8.80259.36091 19.8158.39292 24.47378.032 4.65798.15867 8.57603.28141 8.70676.12282.13073 4.90161.22936 10.61953.21915 5.71792-.0102 10.65183-.008 10.96423.004.3124.0124.63085-.15809.70767-.37891zm38.16571-1.87033c1.05181-.17059 2.23234-.50853 2.6234-.75098l.71102-.44083-1.05224.20951c-.57872.11526-3.36154.32897-6.18402.475-2.82249.14601-5.18681.3241-5.25405.39573-.58972.62824 5.51169.70259 9.15589.11157zm8.4032-.99249c-.89009-4.95719-1.0236-6.72896-1.39799-18.55205-.21877-6.90878-.34437-16.04899-.27909-20.31157.0653-4.2626.0364-7.8274-.0642-7.92179-.48556-.45579-.65356.728-.7433 5.23747-.0948 4.76249.80961 32.79555 1.10058 34.1135.0798.36146.27253 1.90395.42831 3.42776.15578 1.5238.33017 3.06687.38754 3.42904.0574.36217.11906.86649.13716 1.1207.018.25422.16233.45812.32056.45311.18208-.006.22263-.37146.11046-.99617zm-23.48876.743c-.10724-.46775-.36586-.48515-3.72808-.25071-1.81157.12634-1.00631.57532 1.07787.60102 1.12879.0139 2.21058.0443 2.40398.0674.205.0245.30769-.14965.24623-.41776zm22.42426-1.1064c-.24082-1.13863-1.18673-11.7153-1.25712-14.05634-.0302-1.01821-.24554-8.80601-.4775-17.30628-.37448-13.71752-.46873-15.4793-.83824-15.67104-.34356-.17824-.4109-.0402-.38507.78883.0172.55266.0509 4.04184.075 7.75371.0598 9.24247.0925 10.11355.81512 21.6809.62285 9.9704 1.49454 17.68868 1.99594 17.67282.14028-.004.17227-.38816.072-.8626zm-36.13327 1.23781c-.009-.29824-.89389-.49144-2.92537-.63903-1.35541-.0985-1.59666-.0521-1.58536.30502.0103.32534.35993.43192 1.53693.46847.83799.026 1.85158.0595 2.25244.0743.40085.0148.72546-.0791.72136-.20878zm29.24854-1.16907c.31897-.19198-.98155-.26303-4.29163-.23445-2.61209.0226-4.91454-.006-5.11655-.0633-.202-.0573-.41712.0461-.47803.23006-.077.23244.21375.32413.95348.30073.58533-.0185 1.15265.0998 1.26071.26286.24047.36288 6.96768-.0719 7.67202-.49588zm5.55241-2.60761c-.14952-1.3784-.46065-4.19437-.69138-6.25769-.23074-2.06332-.40898-4.26144-.39609-4.88471.0129-.62327-.10867-2.79675-.27016-4.82995-.67279-8.47091-.88916-13.62882-.88163-21.017.005-4.54751-.0933-7.90759-.23445-8.0445-.14553-.14117-.29472-.0835-.37331.14416-.24174.70037-.17621 11.43716.0886 14.52006.14412 1.67779.46303 6.91564.70867 11.63966.24568 4.72402.51888 9.06334.60721 9.64292.0883.57957.3395 3.21757.55821 5.8622.2187 2.64463.54089 5.05685.71597 5.36051.17508.30366.34576.51125.37928.46132.0335-.0499-.0614-1.21857-.21092-2.59698zm-43.09951 3.02756c.1389-.46888-.61827-.54155-5.63983-.54133-2.47509.00015-4.88567-.0463-5.35685-.10319-.47118-.0568-1.11349.0009-1.42738.12849-1.34145.54504 5.29537 1.14963 10.23451.93232 1.38635-.061 2.12595-.20161 2.18955-.41628zm9.83513-.18851c-1.23372-.68815-2.07253-.9341-3.53867-1.0376-1.04677-.0739-1.76717-.0242-1.76256.12148.007.22225.73178.39411 4.1341.98032.92762.15982 1.51119.12775 1.16714-.0641zm12.1363-.72751c.65249-.63315-3.95376-.82784-5.02145-.21224-.28059.16178-.45224.38152-.38148.48832.11892.17947 5.20109-.0802 5.40293-.27608zm23.89004-1.26608c-.20218-.90196-.35697-.82978-.32591.15197.0141.44493.12662.74202.25009.66019.12349-.0818.1576-.44729.0758-.81216zM8.24299 86.112c-.0846-1.05287-.11941-4.0596-.0782-6.68159.20117-12.65646.20971-18.03922.0444-27.99509-.15262-9.19409-.23406-10.77976-.55306-10.76967-.31434.01-.33225 1.24702-.11214 7.74648.3045 8.99075.39297 20.89822.19618 26.39919-.17977 5.02519.07 13.23356.40247 13.22304.14788-.005.18985-.80881.10031-1.92236zm1.20419-2.75514c.007-2.18207.014-5.99254.0161-8.46769.002-2.47517.0271-7.35996.0554-10.8551.0706-8.72196-.42079-23.94345-.77263-23.93232-.15002.005-.31884.15899-.37517.34276-.0563.18377.0334 6.34549.19951 13.69273.16607 7.34722.24103 16.04075.1666 19.31897-.14646 6.45083-.14506 6.69995.0638 11.30134.20015 4.41069.63135 3.47635.64635-1.40069zm57.64725 2.04272c.93619-.20536 1.73627-.40973 1.77797-.45415.0417-.0444-.0594-.6597-.22468-1.36729-.16526-.70759-.53733-4.67402-.82682-8.81428-.28949-4.14025-.70559-9.78539-.92467-12.54474-.52385-6.59817-.75997-14.09092-.65016-20.6174.0491-2.90802-.009-5.38005-.13025-5.49343-.24933-.23404-2.6364 1.03823-3.06972 1.6361-.15657.21603-.33827 1.35939-.40377 2.54079-.17987 3.24405-.89757 5.38597-2.82377 8.42727-1.31883 2.08232-6.03607 5.94615-7.96658 6.52535-.36056.10815-.9457.43942-1.3003.73611l-.64472.53944.81671.71331c2.47556 2.16214 3.4928 4.16602 3.63372 7.15812.0947 2.0103-.034 2.78273-.76798 4.60843-.11856.29494-.32733.83759-.46394 1.2059-.60575 1.63326-2.77256 4.12341-4.52729 5.2029-.83566.51408-1.29516.96257-1.20527 1.17637.0799.19004.72711.69694 1.43824 1.12643 2.22451 1.34353 5.94357 5.56518 6.69334 7.59788.29943.8118 8.01585.87643 11.5695.0969zm3.70344-.20739c-.0123-.3272-.19589-2.01888-.40896-3.75926-.21307-1.74039-.47286-4.76979-.57731-6.732-.10448-1.9622-.51361-9.27527-.90924-16.25125-.39564-6.97598-.71318-14.51832-.70564-16.76075.0101-3.01109-.0613-3.99722-.27332-3.7714-.42269.4503.0474 21.3575.59034 26.25557.23199 2.09292.55607 6.24305.72015 9.22253.3557 6.45877.78771 11.94323.96199 12.21267.26184.4048.62269.15537.60199-.41611zm-60.27262-6.82454c-.0253-4.26031-.002-8.46217.0529-9.33746.0545-.87527.0896-4.09268.0782-7.14979-.0114-3.0571.0184-5.91697.0661-6.35527.0478-.43829.0541-4.29652.014-8.57385-.0621-6.63286-.12716-7.75704-.44224-7.64155-.4074.14934-.49401 2.53796-.47383 13.06734.006 3.20287-.0143 8.56402-.0453 11.91364-.0311 3.34964-.0159 9.78175.0338 14.29359.0744 6.7569.14955 8.14391.42635 7.86636.25306-.25375.32467-2.25004.28996-8.08301zm18.46611 7.32531c-.009-.28853-1.36388-.34198-6.97872-.27532-4.52919.0538-7.17159-.0184-7.55092-.20621-.46202-.22878-.58122-.21612-.57246.0608.007.20619.36461.36276.8724.38148.47373.0174 1.46009.13173 2.19193.25395 1.94325.32454 2.72236.3492 7.61821.24114 3.57051-.0788 4.42869-.1673 4.41956-.45582zm40.34224-2.57218c-.0734-.32527-.11649-.0559-.0958.59863.0207.65453.0807.92065.13342.5914.0527-.32926.0358-.86477-.0376-1.19003zm-26.88717 1.8712c.16187-.2081.34721-.99008.41187-1.73774.13204-1.52687-.39415-2.39394-1.43285-2.36108-.85848.0271-1.1857.55155-1.14509 1.83515.0627 1.98228 1.34364 3.32094 2.16607 2.26367zm31.91698-1.50087c-.0791-.17949-.13443-.0289-.12293.33478.0115.36362.0763.51048.14384.32635.0676-.18413.0582-.48164-.0209-.66113zm-26.21267 1.1743.78742-.21272-.72724-.32477c-.59396-.26525-.94541-.25618-1.91763.0495-.6547.20584-1.1871.47779-1.1831.60433.008.26664 1.88934.19469 3.04055-.11629zm-9.31157-.57711c.8234-1.06045.74618-1.84858-.21066-2.15005-.61536-.19388-.92941-.0488-2.41336 1.11474-.93827.73571-1.70313 1.42684-1.69968 1.53588.006.17736.86253.28016 2.95085.354.48884.0173.88957-.23216 1.37285-.85457zm-27.32786-2.18273c.0275-2.00278.13083-4.71608.22957-6.02954.0987-1.31347.15035-3.81667.11469-5.56266-.0356-1.746.0111-4.24904.1039-5.56232.21479-3.04009.34544-13.07427.27195-20.88554-.047-4.99826-.11826-6.02853-.4093-5.92162-.27615.10149-.34689 1.55561-.3271 6.725.0139 3.62755-.0651 9.87427-.17547 13.88158-.11039 4.00733-.22662 9.49061-.25829 12.1851-.16329 13.8912-.15564 14.829.12084 14.82025.1744-.006.29795-1.37556.32921-3.65025zm1.21067-.59109c.12362-2.50264.24696-7.35692.42854-16.86581.0306-1.60251.15362-3.04599.27336-3.20776.11975-.16178.13014-5.61194.0231-12.11148-.16612-10.0874-.24928-11.81549-.56812-11.80471-.31139.0106-.34424 1.23564-.19749 7.36657.0968 4.04466.11085 9.37455.0312 11.84422-.0797 2.46966-.17848 6.75467-.21959 9.52225-.0411 2.76757-.15835 6.22583-.26054 7.685-.28553 4.07684-.22413 11.49213.0902 10.89329.14285-.27215.32256-1.76687.39935-3.32157zm17.49404 1.39855c.43782-.95505 1.15848-2.14682 1.60144-2.64837.44297-.50156 1.02539-1.35518 1.29425-1.89695l.48887-.98502-.59149-.5171c-.32531-.2844-.6683-.51467-.76221-.5117-.0939.003-.93531-.68749-1.8698-1.53436-1.58791-1.43901-1.9044-1.91444-3.40445-5.11419-.24719-.52727-.44536-1.92175-.52525-3.69612-.1388-3.08142-.023-3.50257 1.58677-5.77467.89566-1.26416.9441-2.489.12868-3.2544-.31136-.29226-.67169-.5744-.80074-.62698-.7413-.30204-3.06915-1.83355-3.07514-2.02318-.004-.1237-.13022-.22103-.28067-.21627-.39874.0126-3.47675-3.10355-4.0847-4.13533-2.0678-3.50939-2.58801-5.11283-2.79495-8.61492l-.17936-3.03536-1.01829-.17819c-.56006-.098-1.13705-.28965-1.28219-.42589-.86033-.80757-.89995-.26077-.71663 9.89199.17866 9.89499.16145 11.12702-.222 15.89414-.10292 1.2795-.22107 4.97601-.26256 8.21448-.0415 3.23848-.15416 7.0223-.25037 8.40847-.0962 1.38619-.16644 2.89056-.15608 3.34305l.019.8227 5.3649.13923c2.95069.0766 5.90153.15778 6.55741.18043.6559.0227 1.92314.0389 2.8161.0361l1.62357-.005zm15.85143.94878c.58601-.0205.85537-.15698.84681-.42748-.009-.28511-.30398-.38746-1.04873-.3639-1.31442.0416-1.86599.27399-1.85.77951.009.28495.18149.34819.6026.22094.32448-.098.97668-.19214 1.44932-.20907zm27.71966-14.13328c-.18575-6.75486-.33818-15.88965-.33865-20.29956-.00078-7.32449-.077-8.62297-.48068-8.19289-.0756.0805-.0725 5.66928.007 12.41936.0794 6.75009.11724 13.98751.084 16.08317-.0515 3.25173.70194 12.65949.98937 12.35329.0422-.045-.0752-5.60852-.26101-12.36337zM44.6209 82.29058c.44886-.35053.44886-.3779.00011-.53401-.26013-.0905-.6321-.0237-.82659.14834-.80978.71649-.0508 1.07068.82644.38567zm23.81761-13.23761c-.84155-11.98405-1.26362-21.46832-1.20876-27.16149.0364-3.77635-.0309-5.22729-.24227-5.22047-.76734.0248-.0123 23.03806 1.12689 34.34736.29803 2.95862.48224 5.48297.40937 5.60966-.0728.1267-.004 1.26977.15308 2.54018l.28563 2.30983.007-2.38266c.004-1.31047-.23513-5.82955-.53094-10.04241zm-20.81772 6.48225c.46523-.3787.95676-.69206 1.0923-.69635.42705-.0135 1.61732-1.14152 1.45809-1.38183-.13908-.20988-1.53007.30905-2.47806.92447-.214.13893-.59512.3291-.84696.42262-.26499.0984-.44948.43554-.43794.80032.025.79144.16505.78345 1.21257-.0693zm.0867-1.69162c1.20365-.60298 2.77608-1.65925 3.49429-2.34726 3.45384-3.30865 3.65856-9.40501.42702-12.71645-.49971-.51207-1.16032-1.19453-1.46801-1.51658-.30768-.32206-.86694-.82806-1.2428-1.12444-.84886-.66939-4.5318-2.34038-5.11746-2.32185-.23774.008-.50078-.0898-.58456-.21622-.0837-.12644-.60252-.29858-1.15276-.38253-.55025-.084-1.36259-.30382-1.80522-.48859-.44263-.18478-1.58631-.56505-2.54153-.84506-.95521-.28-1.85328-.61515-1.99568-.74476-.14242-.12961-.56252-.22985-.93355-.22275-.37106.007-.91115-.15449-1.20024-.3591-.28909-.20462-.67812-.3672-.86451-.36131-.1864.006-1.03634-.28099-1.88876-.63753-.85243-.35654-2.09308-.8749-2.75702-1.15193-.66393-.27704-1.26879-.56952-1.34413-.64997-.0754-.0805-.71158-.42342-1.41386-.76215-.70229-.33872-1.2798-.70761-1.28334-.81973-.004-.11213-.12545-.2001-.2709-.1955-.14545.005-.48675-.2003-.75844-.45534-.27169-.25502-.741-.62733-1.04289-.82733-.65422-.43341-1.99489-3.39599-2.26904-5.0141-.30121-1.77773.65632-3.49217 2.71541-4.86192.81699-.54347.98371-.578.99547-.20616.005.14905-.29421.39721-.66428.55147-.76214.3177-1.33183.86175-1.97034 1.8817-.5572.89005-.5657 1.94257-.0138 1.71052.21552-.0907.39151-.30092.39109-.46732-.00085-.34648.86639-1.5212 1.1292-1.52951.0962-.003.3477-.18968.55897-.41475.47222-.50307 2.74284-.62146 3.22707-.16821.23092.21612 1.0883.27844 2.63999.19187 1.2639-.0705 3.23496.0153 4.38014.19068 2.17642.33334 3.21483.11623 2.91013-.60844-.21789-.51818-1.1102-.71753-2.70428-.60414-.85988.0611-1.3901-.0112-1.39577-.19026-.005-.15888.41519-.30231.93382-.31871.51863-.0164 1.19396-.17455 1.50074-.35143.30677-.17687.97695-.34698 1.48929-.378 1.45139-.0878 1.30268-.75171-.32121-1.43391-2.24543-.94331-2.94008-1.05261-3.62722-.57065-.33268.23334-.52757.54092-.43308.6835.53855.81277-1.56237 1.47762-2.242.70948-.46997-.53117.0581-1.19022.98617-1.23082.38201-.0171.92634-.21733 1.20959-.4458.44178-.35633.45766-.44915.11171-.65285-.22182-.1306-.49255-.23645-.60165-.23523-.10908.001-1.26006-.14661-2.55772-.3285-2.14868-.30119-2.47334-.28887-3.63559.13801-4.4857 1.64752-6.3363 3.55985-7.17471 7.41399-.36252 1.66651-.36883 2.19558-.0476 3.99808.47477 2.66418 2.19575 7.12217 2.74498 7.11051.10911-.002.20349.15658.20971.35312.0127.40129 2.95095 3.5197 3.30579 3.50848.1254-.004.57499.3094.99909.69636.42409.38698 1.24934.9267 1.83389 1.19939.58455.27271 1.12697.57514 1.2054.67208.12452.15394 2.81535 1.32075 5.22903 2.26744.44226.17346 1.2265.48782 1.74274.69857 1.7089.69763 5.21022 1.62984 6.02485 1.60407.441-.014.93678.10132 1.10173.25616.31012.2911 1.40472.049 1.39342-.30819-.004-.11108-.27816-.32046-.61032-.4653-1.26833-.55307-2.56875-1.04933-2.73582-1.04405-.0957.003-1.2236-.44706-2.50643-1.0002-1.28285-.55315-2.81531-1.20709-3.40547-1.45319-2.63803-1.10015-6.00185-2.67559-7.04794-3.3009-.62774-.37525-1.2083-.68015-1.29013-.67756-.42414.0134-3.1674-2.12928-2.86764-2.23984.18988-.07.42402-.0256.52031.0987.0963.12431.72186.56541 1.39014.98023.66829.41483 1.27659.81574 1.35177.89091.16152.16152 2.32538 1.23248 4.03389 1.99651.66456.29719 1.39016.64037 1.61241.76262.22226.12226.58495.29047.80597.37382.43637.16454 2.41806.98118 4.96192 2.04475.88527.37013 2.57427 1.04327 3.75333 1.49586 1.17907.45259 2.20548.89131 2.28093.97494.0755.0837.68247.44463 1.34895.80225 1.42406.76412 2.39133 1.74009 3.07623 3.10387.74012 1.47369.65878 2.61563-.3456 4.85224-.75462 1.68044-1.1527 2.20075-2.47851 3.23956-2.13674 1.67422-2.22478 1.75898-2.21303 2.13049.01.30781 1.69068 1.14703 2.31581 1.15619.1617.002 1.27882-.48903 2.48248-1.092zm-5.47189-1.26997c.56865-.99538.58312-11.09767.0164-11.42363-.16748-.0963-1.00765-.17186-1.86703-.16785-1.45834.007-1.57303.0518-1.72024.67407-.20967.88639.15406 9.24622.44415 10.20852.16548.54894.44143.79633 1.00777.90345.63445.12002 2.01151-.006 2.11898-.19456zm-4.72151-1.98062c-.0109-.34581-.20307-.77125-.42697-.94541-.2239-.17416-.4104-.4211-.41444-.54874-.004-.12763.17117-.23772.38934-.24462.21817-.007.40004.0937.40415.22362.004.12988.18814.29901.40896.37582.73206.25468.40897-.82411-.50328-1.68042l-.87312-.81958.85223.15913c1.07368.20045 1.08104-.12655.0272-1.20949-.92916-.95483-.86701-1.46204.10628-.86742.60758.37118.65966.36909.64715-.0265-.007-.23634-.25804-.62595-.55681-.86581-.29878-.23988-.54879-.61199-.55559-.82693-.01-.30395.0604-.3225.31501-.0835.50278.47193.75249.3568.73055-.3368-.0121-.38161-.28753-.79419-.69747-1.04464-.66758-.40784-.69627-.39365-1.95163.96506-1.39411 1.50888-1.63988 2.15611-1.58403 4.17145.0642 2.31376 1.50088 4.27661 3.10708 4.24481.45234-.009.59046-.16272.57535-.64054zm8.03651-.0219c.18227-.52396-.59758-.49413-1.26984.0482-.47545.38383-.45937.40318.31456.3787.48102-.0152.87289-.19049.95526-.42728zm-1.30287-.52679c.23179-.24693.6973-.48811 1.03446-.53595 1.08102-.15338 1.74448-.47623 1.6223-.78939-.11398-.29211-.30122-.29342-1.77331-.0124-1.53487.29299-2.46172 1.09185-1.88973 1.62876.28695.26936.55233.19262 1.00628-.29099zm1.33624-1.7528c1.61863-.33218 2.14647-.61931 2.14035-1.1643-.007-.63397-3.48976.43914-4.32163 1.33164-.44126.47341-.4484.52497-.0517.37291.25319-.097 1.25803-.34015 2.23299-.54025zm1.00008-1.77374c1.12708-.19118 1.51369-.78247.69732-1.06647-.61275-.21317-2.96919.51894-3.61208 1.12222l-.57392.53854 1.18483-.20224c.65165-.11126 1.68839-.28765 2.30385-.39205zm-13.40093-.9101c.048-.55072.23167-1.57101.40821-2.26732.54826-2.16242-.61597-2.452-1.71757-.4272-.58614 1.07736-.61301 3.6564-.0415 3.98511.64222.36937 1.25748-.21844 1.35088-1.29059zm13.20962-.48988c1.20475-.0381 1.29947-.0879 1.20426-.6337-.0896-.51347-.24756-.58162-1.18655-.51186-.59578.0443-1.51166.27563-2.03529.51413-1.19467.54415-1.27062 1.13449-.1112.86421.45166-.10533 1.40961-.21003 2.12878-.23278zm-1.78045-1.39798c.40973-.23045.9532-.42633 1.20771-.43527.56036-.0197.59891-.5084.055-.69761-.44675-.15541-2.16468.4139-2.38034.78884-.12999.226.0743.77249.28625.76578.0475-.001.42162-.19128.83136-.42174zm-.0207-1.65545c.1455-.49385-.92014-.37784-1.09297.11902-.10932.31423-.003.39415.42424.31748.31367-.0564.6146-.25276.66873-.43647zm8.37204-8.66928c2.8521-1.71692 6.62095-4.77825 6.60245-5.36298-.005-.14989.0806-.27611.18967-.28048.42471-.0174 1.71321-2.8403 1.9605-4.29579.56918-3.34981.73448-4.65298.70569-5.56311-.033-1.04353-1.06912-3.42572-1.48427-3.41259-.11646.004-.21573-.11902-.22059-.27266-.0154-.48572-1.72193-1.77669-3.25447-2.46193-1.38025-.61715-1.75369-.65718-5.71074-.6121-4.20829.048-7.13144.49723-8.77922 1.34937-.59124.30576-.5812.32108.41722.63716.56268.17813 1.3483.25042 1.74584.16062.39754-.0898.72648-.0472.73096.0946.004.14182-.37848.27386-.85104.29344-.47255.0199-1.09144.2252-1.37531.45694-.50998.41635-.50988.42567.009.78544.44265.30676.45702.36625.0913.37782-.54272.0172-.98341-.68218-.83635-1.32723.20352-.89266-.97706-1.11316-2.40146-.44853-.67746.31611-1.22784.69797-1.22307.8486.005.15061.0991.27098.2097.26748.11057-.004.51689.26846.90293.60436 1.09079.94909 2.31552 1.44333 3.05475 1.23274.40612-.11569.66169-.0752.66741.10564.006.18858-.72152.31923-2.03996.36635-1.85949.0668-2.00056.10771-1.52361.44527.6822.48285 3.72342.39774 5.22983-.14642.61682-.22278 1.57987-.49964 2.14011-.61524.93439-.19278 1.444-.40701 2.51495-1.0572.21427-.13009.64226-.35601.95109-.50204.30882-.14604.63155-.38732.71717-.5362.32233-.5604 2.45072-.71369 3.80621-.27415 1.04079.3375 1.48877.68258 2.1957 1.69133.81723 1.16613.879 1.38821.77375 2.78194-.17534 2.32204-.56656 3.77094-1.46606 5.42972-.8149 1.5028-3.25609 4.13402-4.29232 4.62649-.2963.14081-.71362.37529-.9274.52108-.21378.14579-.85854.47494-1.4328.73145-.57426.25651-1.35467.64422-1.73424.86158-.37958.21735-.90975.40288-1.17818.41226-.26843.009-.79154.18786-1.16246.39659-.37093.20874-1.10702.47493-1.63576.59154-1.25956.27778-1.22906.89626.0687 1.39309 1.3839.5298 3.34183.0757 6.29512-1.45989 2.43762-1.2675 6.30948-3.84988 6.29838-4.20079-.004-.11581.1184-.21451.27127-.21934.30492-.01 2.0399-1.92934 2.03184-2.24819-.003-.10911.114-.20213.25945-.20673 1.09022-.0345-1.34854 2.58472-4.35231 4.67435-2.08333 1.4493-2.93522 1.96666-5.28177 3.20764-1.09717.58023-1.66615 1.35883-1.11797 1.52981.44594.1391 1.88256-.4335 3.44015-1.37114zm-10.97449-3.26745c.12135-3.09089-.0722-9.31081-.33928-10.88382-.18036-1.06456-.29648-1.22529-.97701-1.35235-.70803-.1322-.76101-.21708-.63653-1.01997.13648-.88016.0203-1.07161-1.07901-1.77828-.61144-.39305-.42056-.99282.50223-1.57804.71527-.45362.84039-.49907 1.43119-.51978.44273-.016.1133-11.53355-.35081-12.26396-.35356-.55646-1.51005-.61404-2.08663-.10388-.89298.7901-.94096 2.11235-.60242 16.59992l.33452 14.31576.89506.31943c2.91557 1.04052 2.79639 1.11162 2.90816-1.73502zm3.51485 1.49054c.13405-.13485.42219-.25083.64031-.25773.52682-.0167 4.76028-1.74497 5.25304-2.14455.21293-.17266.68053-.45361 1.03911-.62434 1.31082-.62409 4.38275-3.71218 4.36149-4.38442-.006-.18187.0866-.33374.20532-.3375.36865-.0117 1.28437-2.77966 1.25253-3.78608-.0261-.82484-.12716-.97113-.73807-1.06799-.38931-.0617-1.04638.0179-1.46015.177-.93233.35846-3.70775.25146-6.17604-.2381-1.49801-.29711-2.2111-.30581-3.62623-.0442-1.69527.31337-3.61569 1.23803-3.60002 1.73335.01.30377-.0103.30592 1.63599-.17627 1.35751-.3976 3.11062-.4016 3.12309-.007.003.10875-.72131.28695-1.61054.39603-.95234.11676-1.78339.37579-2.02216.63015-.36976.39392-.24941.42692 1.37023.37569.97659-.0309 1.77883.0456 1.78276.17004.004.12442-.78719.32581-1.75808.44754-.97087.12176-1.92836.39513-2.12775.60754-.31266.33309-.0444.35624 1.95014.16835 1.59059-.14986 2.26153-.12886 2.14885.067-.0901.15667-.37964.23567-.64339.17555-.26374-.0601-1.00332.0919-1.64352.3377-.6402.24586-1.3722.45535-1.62667.46552-.25447.0101-.45702.19699-.45012.41516.0145.45847.25962.48416 1.13558.11902.94672-.39463 3.16671-.54374 3.28587-.22069.0599.16222-.47314.36646-1.2692.48637-.75479.11372-1.49064.33274-1.63523.48678-.1446.15404-.47008.28663-.7233.29464-.47375.015-.90018.48736-.65105.72121.077.0723 1.11876-.0853 2.31487-.3503 1.19611-.26501 2.22552-.43417 2.28759-.37591.29034.27253-.29771.68357-1.01018.70611-.43575.0138-1.32504.28841-1.97622.61029-1.2184.60226-1.44169 1.0319-.28591.55012.79333-.3307 3.02505-.55903 3.26475-.33403.096.0901-.5163.38038-1.36073.64497-3.42483 1.07311-3.68717 1.64034-.38825.83947.90889-.22066 1.71737-.30331 1.79664-.18368.0793.11964-.0374.22326-.25918.23027-.22183.007-.81821.20456-1.32531.43899s-1.34744.62349-1.86742.86457c-1.47564.68415-.86577.74456.98931.098 1.85963-.64815 2.4411-.74079 2.21831-.35343-.082.14255-.58871.35056-1.12605.46227-.9348.19433-3.18911 1.40244-3.17958 1.70397.007.21877 2.20565-.25675 2.48457-.53733zm-8.0935-1.04033c-.009-.29089-.26227-.75938-.56236-1.04107-.3001-.28169-.54953-.63536-.55429-.78593-.006-.18561.16453-.188.52918-.008.45015.22291.53527.18439.52196-.23621-.009-.27641-.26347-.79759-.56607-1.15821-.30259-.36061-.55252-.73032-.55541-.82159-.003-.0913.23678-.0461.5326.1004.45951.22754.53527.18438.52006-.29628-.01-.30943-.26537-.85765-.56797-1.21827-.30259-.3606-.55355-.7628-.55769-.89374-.004-.13096.2345-.11825.53032.0282.4493.22248.53526.18438.52211-.23141-.009-.27376-.27048-.77334-.58182-1.1102-.5862-.63421-.29703-1.06261.36805-.54526.38624.30044.41557.0448.32765-2.85523-.0682-2.24996-.18249-2.33643-3.17082-2.39922-1.42452-.03-4.02299-.16505-5.77439-.30026-4.62104-.35677-5.28402-.30527-6.05925.47059-.36046.36075-.65232.75222-.64859.86994.004.11772 2.08691.13748 4.62932.0439 4.87685-.17948 5.84977-.0447 8.5909 1.19022 1.26814.57132 2.41462 1.56627 2.14086 1.85791-.0961.10239-.54959-.17389-1.00783-.61385-.45824-.43997-1.27635-.92732-1.81805-1.08301-.54169-.15568-1.10655-.36313-1.25524-.461-.76861-.50586-3.61027-.70651-7.51233-.53042l-4.25171.19182-.12936 1.39176c-.15567 1.67496.23961 2.88668 1.30806 4.00984.95835 1.00742 3.53167 2.82761 3.97763 2.8135.17978-.006.36937.0777.42131.18521.11692.24215 4.69454 2.30012 5.08852 2.28766.15735-.005.66621.14143 1.13082.32535 2.18976.86685 3.2837 1.20825 4.25124 1.3267.10962.0134.19178-.2136.18258-.50449zm10.1208-12.22835c1.13544-.0339 2.54589.0951 3.13431.28631 1.25888.40904 5.13231.36108 6.54915-.0811.87491-.27306.9799-.3999.95492-1.15378-.0683-2.06467-3.62898-3.80849-5.50586-2.69652-.42612.25245-.9295.61281-1.11861.80078-.18911.18797-.49928.34669-.68925.3527-.18997.006-.48791.19412-.66207.41802-.17417.2239-.56979.41683-.87917.42873-.30939.0118-1.03609.20371-1.6149.42623s-1.91388.51708-2.96684.65457c-1.99784.26087-2.41484.56813-2.3774 1.75176.016.50641.0935.49171 1.56406-.29679 1.31829-.70686 1.85264-.83868 3.61166-.89092zm-10.61015-3.24203c-.008-.24548-.26139-.38881-.66539-.37603-.47164.0149-.60709.1294-.48805.41251.0907.21552.39004.38473.66537.37602.27534-.009.49497-.19433.48807-.4125zm-6.57179-2.00529c.0734-.12761.0634-.29777-.0223-.37813-.21289-.19985-.89006.1062-.88083.3981.01.30216.72691.2863.90307-.0196zm7.95189-12.94489c-.004-.11802.22762-.48271.51412-.81041l.52089-.59583-.61266.0194c-.33696.0107-.78864.23858-1.00371.50647-.77885.9701-.79222 1.13864-.0886 1.11638.3722-.0118.67367-.11796.66994-.23599zm3.28626-.23086c-.14948-.35551-1.7483-1.00352-1.94883-.78988-.0645.0687.17492.35286.53195.63155.73618.57465 1.63412.67499 1.41688.15833zm-.80862-6.97858c.10233-1.79093.004-1.9193-1.44137-1.87359-1.43003.0452-1.54642.20424-1.3282 1.81453.15878 1.17163.35008 1.30654 1.86377 1.31441.80782.004.83607-.0344.9058-1.25535zm-1.58477-2.22282c.58218-.006 1.37164.0646 1.75436.15653.92535.22228 1.15977-.43534.4547-1.2756-1.2644-1.50682-5.44697-.64014-4.86581 1.00826.17407.49375.31737.54999.90257.35418.38261-.12802 1.17198-.23753 1.75418-.24337zm-1.76832-3.82804c.30039-1.97347.31821-2.39727.1059-2.51938-.1115-.0641-.35876.0844-.54948.32992-.3115.4011-.36288.36911-.50524-.31459-.33631-1.61523-1.86064-.75505-2.01344 1.13619-.10477 1.29673.351 2.07074 1.46852 2.49389.97081.3676 1.30469.11591 1.49374-1.12603zm1.86837.60498c-.0437-.2898-.16549-.95683-.27073-1.48228-.11584-.57824-.0792-1.02967.0927-1.1436.49959-.33104.28959-.68659-.3928-.66501-.58436.0185-.65964.13613-.64834 1.0132.007.54575-.0754 1.23331-.18313 1.5279-.27741.75844.21035 1.49891.90714 1.37713.39874-.0697.55024-.26164.49515-.62734zm2.35376.0366c.55592-.32052 1.22739-1.78238 1.20106-2.61483-.0152-.48108-.86699-1.60987-1.20668-1.59913-.0921.003-.15791.3028-.1464.66643.013.41136-.12895.66586-.37577.67366-.21817.007-.40044-.10645-.40504-.2519-.0188-.59307-.75861-.18562-1.04632.57624-.24221.6414-.23421 1.04054.0371 1.85184.36865 1.10239.9056 1.2953 1.94206.69769zm-1.88771-4.31722c.42346-.29702.63054-.69361.61521-1.17827-.0283-.89514-.40698-1.21053-1.69138-1.40874-.87509-.13505-1.08188-.0547-1.78355.69279-1.01419 1.08045-.9275 1.96895.21209 2.17392 1.3754.24738 1.98848.18262 2.64763-.2797zm6.43499 26.50658c-.0828-.1249.23511-.82956.70638-1.56591.47126-.73634.85803-1.45798.85947-1.60362.001-.14564.16735-.6066.3687-1.02434.20135-.41775.42024-1.52656.48642-2.46401.0824-1.16787.23271-1.70801.47736-1.71575.211-.007.32372-.24941.27556-.59348-.0509-.36379.0816-.62169.35313-.68749.66807-.16188 1.19687 1.55072 1.27979 4.14482.0792 2.47853-.36264 3.70514-1.34591 3.73624-.28959.009-.84096.37972-1.22525.82346-.71491.8255-1.96592 1.35715-2.23565.95008zm-2.83353-.62446c-.31814-.55178-.29399-.70321.20157-1.26377.99104-1.12106 1.54236-2.711 1.63895-4.72659.0925-1.9293.0971-1.93998.78346-1.79063 1.31271.28568 1.61978 1.39747 1.09771 3.97426-.21813 1.07659-.50545 1.96087-.63849 1.96508-.13305.004-.23653.1775-.22996.38509.0131.41385-1.73231 2.05942-2.20005 2.07422-.16046.005-.4544-.27287-.65319-.61766zm7.13492.005c-.008-.26223.13313-.66954.31427-.90512.18115-.23559.52703-1.06799.76862-1.84978.50614-1.63784.33301-5.09007-.30257-6.03355-.32339-.48005-.31462-.62018.0641-1.02364.41433-.44139.46854-.43357.9725.14022.29355.33422.65948.74756.81317.91854.1537.17099.28338.43492.28818.5865.005.15159.11653.2722.24831.26803.34613-.0109 1.15583 2.27882 1.19021 3.36584.0712 2.25111-1.49979 4.53666-3.32745 4.84091-.85204.14184-1.01666.0926-1.02933-.30795zm-19.22057.28168c-1.01824-.76947-1.48066-1.97016-1.54526-4.01227-.0834-2.63836.53002-4.65471 1.53445-5.04335.99641-.38554 1.00297-.38385.83383.21402-.0941.33269.0159.59795.31041.75095.42284.21937.41843.32184-.0606 1.41132-.28408.64612-.58828 1.51707-.67599 1.93545-.20918.99785.47813 3.4708 1.11494 4.01147.27581.23418.50653.58583.51272.78146.0162.51082-1.3267.47828-2.02452-.0491zm-3.71193-.39383c-.75875-.62965-1.48761-2.06617-1.70897-3.3682-.28842-1.69646.48551-3.92502 2.09692-6.03815.48807-.64003 1.36483-.65456 1.78318-.0296.27105.40493.23191.70783-.21467 1.66125-.46824.99971-.53079 1.58092-.43839 4.0745.0596 1.59964.16771 3.14481.24097 3.43368.18079.71283-1.00477.89244-1.75904.26648zm6.20721-.35467c-.24225-.17259-.67553-.98478-.96284-1.80488-.44605-1.27313-.47858-1.63892-.22259-2.5025.43992-1.484 1.08168-2.18052 2.29849-2.49465 1.16708-.30128 1.59214-.0877.95223.47848-1.13795 1.00685-1.38669 3.65192-.48953 5.20574.30189.52285.4903 1.05251.41868 1.17702-.19443.33805-1.49087.29956-1.99444-.0592zm-10.10752-.4926c-.26074-.18833-.47797-.46533-.48272-.61554-.005-.15022-.17755-.33189-.38399-.4037-.52809-.18371-1.04852-2.47887-.81711-3.60353.29584-1.43792.44366-1.69357 1.27361-2.20276.42629-.26153.9124-.81296 1.08024-1.2254.16785-.41243.507-.98719.75367-1.27723.28195-.33155.43507-.95067.41239-1.66751-.0256-.80796.0732-1.14363.33899-1.15204.8382-.0265 1.22248.30407 1.24679 1.07253.0179.56484.17542.82412.55308.91022.47129.10744.3983.27591-.67844 1.56588-1.63046 1.9534-2.43165 4.20393-2.15927 6.06544.11246.7689.24642 1.69448.2976 2.05684.10934.7747-.66578 1.0323-1.43484.4768zm19.26363-1.98708c-.0781-.0734-.10461-.90309-.0591-1.84394.0595-1.22708-.006-1.70783-.23327-1.70066-.17395.006-.25453-.0973-.17907-.22852.0755-.1312.52635-.22099 1.002-.19954.73139.033.88207.1536.97681.78196.15874 1.05293-1.05286 3.61743-1.50746 3.1907zm16.33731-2.43923c-1.14666-.65449-2.64955-1.64375-3.33974-2.19836-.6902-.55459-1.36284-1.04465-1.49474-1.089-.13191-.0444-.24298-.17973-.24681-.30082-.004-.12109-.56426-.77839-1.2454-1.46067-1.13477-1.13665-1.22738-1.32394-1.10637-2.23736.12925-.97555.11429-.99629-.70012-.97053-.48747.0154-.76797-.0854-.67713-.2433.0853-.14829.59609-.28357 1.13512-.30062.90299-.0286 1.23972.21579 4.28198 3.10731 1.81605 1.72608 3.87862 3.90951 4.58349 4.85206 1.87038 2.50109 1.80214 2.54933-1.19028.84129zm5.4305-1.77039c-.73663-.23935-1.5806-.55922-1.87549-.71081-.29489-.1516-.96554-.32994-1.49034-.39632-.52479-.0663-1.24129-.40759-1.59223-.75824-.35095-.35066-.79584-.63257-.98866-.62647-.19282.006-.35446-.11165-.35921-.26166-.005-.15002-.20416-.34078-.44315-.42391-.6451-.22442-3.90375-3.09946-3.91497-3.45409-.004-.1161.51886-.2277 1.16118-.24802.98905-.0313 1.33953.11329 2.28918.94427 1.25157 1.09517 5.33416 3.31476 6.05506 3.29196.60811-.0192 1.94222.68033 2.97343 1.55919.45222.3854.97099.69658 1.15282.6915.18184-.005.33625.16927.34315.38744.0175.5535-1.61533.55605-3.31077.005zm-51.97989 1.36232c-.97918-.26398-1.87089-.82918-1.88241-1.19312-.0132-.4191.49238-.5731 3.107-.94632 1.21027-.17276 2.32724-.44914 2.48214-.61416.1549-.16502.51653-.30747.80361-.31655.7946-.0251 4.63766-2.17907 5.7758-3.23719.55449-.51551 1.12845-.90077 1.27546-.85614.99208.30118-.71301 4.68699-1.836 4.72251-.14544.005-.26138.10531-.25763.22384.009.28712-1.58783 1.10141-3.48575 1.77743-1.58168.56339-4.67902.79105-5.98222.4397zm53.92306-3.88077c-.93012-.10319-2.03393-.35138-2.45292-.55152-.419-.20015-.8792-.36019-1.02268-.35565-.29947.009-3.66305-2.08255-4.50335-2.80091-.30892-.2641-.64326-.47759-.74297-.47444-.21305.007-1.27051-.95377-1.27703-1.15994-.002-.0778.59939-.0806 1.33745-.006l1.34192.135-.197-.69153c-.10838-.38034-.10611-.6944.005-.69791.11114-.004 1.06391.52343 2.11728 1.17101 1.05338.64758 2.2189 1.3629 2.59006 1.5896.99858.60993 2.86846 1.2352 3.62258 1.21134.36357-.0115 1.17479.29043 1.80271.67094.62791.38052 1.37283.74739 1.65537.81527 1.03016.24748.69671.69305-.77659 1.03773-.82403.19278-1.56813.33801-1.65352.32275-.0854-.0153-.91627-.1122-1.84637-.2154zm-1.15417-1.89148c-.002-.0642-.12503-.1864-.27332-.2717-.14829-.0853-.26563-.029-.26076.12499.005.15403.12786.27629.27331.27169.14545-.005.2628-.0608.26077-.12498zM8.0585 20.19052c-.40497-.14541-.74051-.39647-.74562-.55794-.0119-.37665 3.27974-1.55872 4.4682-1.60459.49865-.0188 1.31969-.1566 1.82457-.30524 4.19882-1.23612 5.50445-1.72548 5.8169-2.18025.11515-.16757.19145-.14479.20044.0599.0102.22718.5103.31476 1.60121.28025.87269-.0276 1.58953.0391 1.59297.14815.01.30617-1.55284 1.52432-2.71261 2.11475-.57315.2918-1.2685.65395-1.54523.80479-.27672.15084-1.27713.52233-2.22313.82552-1.94125.62218-6.99468.87536-8.27769.41472zm-3.44281-2.74693c-1.1363-.18582-1.80787-.66424-1.43016-1.01882.35179-.33026 4.15212-.89915 6.24639-.93505 2.10355-.036 4.05927-.57045 6.05232-1.6538.79488-.43205 1.462-.3696 4.34404.40667.55545.14961-.29643.6841-2.05645 1.29026-4.96401 1.70963-9.95415 2.43437-13.15614 1.91074zm3.41256-2.96743c-.16496-.55811-.53232-.55255-2.0687.0313-.73241.27835-5.95028.18422-5.95951-.10774-.004-.13165.31547-.38299.7103-.55854.72589-.32275 3.32596-1.61509 6.18968-3.07651 1.72768-.88169 4.09644-1.70592 4.9832-1.73397.3259-.0103.84697.31614 1.20668.75598.34821.42576.77924.7695.95785.76385.17861-.006.47853.16354.6665.37598.18797.21245.54245.37992.78774.37216.24529-.008.68239.14973.97134.34998.51913.35977.51924.36897.009.77509-.28403.22606-.87126.49133-1.30493.58949-.43368.0982-1.37475.47443-2.09128.83614-.82423.41609-1.87474.69445-2.85991.75783-.85643.0551-1.66484.17152-1.79647.25875-.13163.0872-.31226-.0882-.40142-.38983zm3.00321-.54881c-.0906-.0851-.31904-.0873-.50752-.005-.2083.0911-.14365.15178.16482.15472.27914.003.43335-.0647.3427-.14987z"/>
</svg>