<?xml version="1.0" encoding="UTF-8" standalone="no"?>
<!-- Created with Inkscape (http://www.inkscape.org/) -->

<svg
   xmlns:dc="http://purl.org/dc/elements/1.1/"
   xmlns:cc="http://creativecommons.org/ns#"
   xmlns:rdf="http://www.w3.org/1999/02/22-rdf-syntax-ns#"
   xmlns:svg="http://www.w3.org/2000/svg"
   xmlns="http://www.w3.org/2000/svg"
   xmlns:sodipodi="http://sodipodi.sourceforge.net/DTD/sodipodi-0.dtd"
   xmlns:inkscape="http://www.inkscape.org/namespaces/inkscape"
   width="210mm"
   height="297mm"
   viewBox="0 0 210 297"
   version="1.1"
   id="svg8"
   inkscape:version="0.92.3 (2405546, 2018-03-11)"
   sodipodi:docname="SVG_interdiction_drawing.svg">
  <defs
     id="defs2" />
  <sodipodi:namedview
     id="base"
     pagecolor="#ffffff"
     bordercolor="#666666"
     borderopacity="1.0"
     inkscape:pageopacity="0.0"
     inkscape:pageshadow="2"
     inkscape:zoom="0.94838454"
     inkscape:cx="277.14284"
     inkscape:cy="690.80253"
     inkscape:document-units="mm"
     inkscape:current-layer="layer1"
     showgrid="false"
     inkscape:window-width="1920"
     inkscape:window-height="1017"
     inkscape:window-x="1912"
     inkscape:window-y="-1"
     inkscape:window-maximized="1" />
  <metadata
     id="metadata5">
    <rdf:RDF>
      <cc:Work
         rdf:about="">
        <dc:format>image/svg+xml</dc:format>
        <dc:type
           rdf:resource="http://purl.org/dc/dcmitype/StillImage" />
        <dc:title></dc:title>
      </cc:Work>
    </rdf:RDF>
  </metadata>
  <g
     inkscape:label="Layer 1"
     inkscape:groupmode="layer"
     id="layer1">
    <g
       id="g878"
       transform="matrix(0.08168158,0,0,0.08168158,20.909864,59.350372)"
       inkscape:export-xdpi="90"
       inkscape:export-ydpi="90">
      <path
         id="path823"
         d="M 353.701,0 H 55.087 C 24.665,0 0.002,24.662 0.002,55.085 v 298.616 c 0,30.423 24.662,55.085 55.085,55.085 h 147.275 l 0.251,-146.078 h -37.951 c -4.932,0 -8.935,-3.988 -8.954,-8.92 l -0.182,-47.087 c -0.019,-4.959 3.996,-8.989 8.955,-8.989 h 37.882 v -45.498 c 0,-52.8 32.247,-81.55 79.348,-81.55 h 38.65 c 4.945,0 8.955,4.009 8.955,8.955 v 39.704 c 0,4.944 -4.007,8.952 -8.95,8.955 l -23.719,0.011 c -25.615,0 -30.575,12.172 -30.575,30.035 v 39.389 h 56.285 c 5.363,0 9.524,4.683 8.892,10.009 l -5.581,47.087 c -0.534,4.506 -4.355,7.901 -8.892,7.901 h -50.453 l -0.251,146.078 h 87.631 c 30.422,0 55.084,-24.662 55.084,-55.084 V 55.085 C 408.786,24.662 384.124,0 353.701,0 Z"
         style="fill:#475993"
         inkscape:connector-curvature="0" />
      <g
         id="g825">
</g>
      <g
         id="g827">
</g>
      <g
         id="g829">
</g>
      <g
         id="g831">
</g>
      <g
         id="g833">
</g>
      <g
         id="g835">
</g>
      <g
         id="g837">
</g>
      <g
         id="g839">
</g>
      <g
         id="g841">
</g>
      <g
         id="g843">
</g>
      <g
         id="g845">
</g>
      <g
         id="g847">
</g>
      <g
         id="g849">
</g>
      <g
         id="g851">
</g>
      <g
         id="g853">
</g>
    </g>
    <g
       id="g821"
       transform="matrix(0.66715049,0,0,0.65419935,-12.235809,3.5451779)"
       inkscape:export-xdpi="90"
       inkscape:export-ydpi="90">
      <circle
         r="40.82143"
         cy="110.27975"
         cx="74.821426"
         id="path815"
         style="opacity:1;fill:none;fill-opacity:1;stroke:#ff0000;stroke-width:8;stroke-miterlimit:4;stroke-dasharray:none;stroke-dashoffset:0;stroke-opacity:1" />
      <path
         inkscape:connector-curvature="0"
         id="path817"
         d="M 44.176353,86.644558 104.85944,135.88933"
         style="fill:#ff0000;stroke:#fb0000;stroke-width:8;stroke-linecap:butt;stroke-linejoin:miter;stroke-miterlimit:4;stroke-dasharray:none;stroke-opacity:1" />
    </g>
    <g
       id="g982"
       transform="matrix(0.26458333,0,0,0.26458333,41.485898,-4.105445)"
       inkscape:export-xdpi="90"
       inkscape:export-ydpi="90">
      <g
         id="XMLID_13_"
         transform="matrix(0.24606594,0,0,0.24606594,165.54467,235.13669)">
	
		<linearGradient
   gradientTransform="matrix(1,0,0,-1,0,554)"
   y2="549.72021"
   x2="275.517"
   y1="4.5714002"
   x1="275.517"
   gradientUnits="userSpaceOnUse"
   id="XMLID_2_">
		<stop
   id="stop880"
   style="stop-color:#E09B3D"
   offset="0" />

		<stop
   id="stop882"
   style="stop-color:#C74C4D"
   offset="0.3" />

		<stop
   id="stop884"
   style="stop-color:#C21975"
   offset="0.6" />

		<stop
   id="stop886"
   style="stop-color:#7024C4"
   offset="1" />

	</linearGradient>

	<path
   d="M 386.878,0 H 164.156 C 73.64,0 0,73.64 0,164.156 v 222.722 c 0,90.516 73.64,164.156 164.156,164.156 h 222.722 c 90.516,0 164.156,-73.64 164.156,-164.156 V 164.156 C 551.033,73.64 477.393,0 386.878,0 Z M 495.6,386.878 C 495.6,446.923 446.923,495.6 386.878,495.6 H 164.156 C 104.111,495.6 55.434,446.923 55.434,386.878 V 164.156 c 0,-60.046 48.677,-108.722 108.722,-108.722 h 222.722 c 60.045,0 108.722,48.676 108.722,108.722 z"
   style="fill:url(#XMLID_2_)"
   id="XMLID_17_"
   inkscape:connector-curvature="0" />

	
		<linearGradient
   gradientTransform="matrix(1,0,0,-1,0,554)"
   y2="549.72021"
   x2="275.517"
   y1="4.5714002"
   x1="275.517"
   gradientUnits="userSpaceOnUse"
   id="XMLID_3_">
		<stop
   id="stop890"
   style="stop-color:#E09B3D"
   offset="0" />

		<stop
   id="stop892"
   style="stop-color:#C74C4D"
   offset="0.3" />

		<stop
   id="stop894"
   style="stop-color:#C21975"
   offset="0.6" />

		<stop
   id="stop896"
   style="stop-color:#7024C4"
   offset="1" />

	</linearGradient>

	<path
   d="M 275.517,133 C 196.933,133 133,196.933 133,275.516 c 0,78.583 63.933,142.517 142.517,142.517 78.584,0 142.517,-63.933 142.517,-142.517 C 418.034,196.932 354.101,133 275.517,133 Z m 0,229.6 c -48.095,0 -87.083,-38.988 -87.083,-87.083 0,-48.095 38.989,-87.083 87.083,-87.083 48.095,0 87.083,38.988 87.083,87.083 0,48.094 -38.989,87.083 -87.083,87.083 z"
   style="fill:url(#XMLID_3_)"
   id="XMLID_81_"
   inkscape:connector-curvature="0" />

	
		<linearGradient
   gradientTransform="matrix(1,0,0,-1,0,554)"
   y2="549.72021"
   x2="418.306"
   y1="4.5714002"
   x1="418.306"
   gradientUnits="userSpaceOnUse"
   id="XMLID_4_">
		<stop
   id="stop900"
   style="stop-color:#E09B3D"
   offset="0" />

		<stop
   id="stop902"
   style="stop-color:#C74C4D"
   offset="0.3" />

		<stop
   id="stop904"
   style="stop-color:#C21975"
   offset="0.6" />

		<stop
   id="stop906"
   style="stop-color:#7024C4"
   offset="1" />

	</linearGradient>

	<circle
   r="34.148998"
   cy="134.07201"
   cx="418.306"
   style="fill:url(#XMLID_4_)"
   id="XMLID_83_" />

</g>
      <g
         id="g911">
</g>
      <g
         id="g913">
</g>
      <g
         id="g915">
</g>
      <g
         id="g917">
</g>
      <g
         id="g919">
</g>
      <g
         id="g921">
</g>
      <g
         id="g923">
</g>
      <g
         id="g925">
</g>
      <g
         id="g927">
</g>
      <g
         id="g929">
</g>
      <g
         id="g931">
</g>
      <g
         id="g933">
</g>
      <g
         id="g935">
</g>
      <g
         id="g937">
</g>
      <g
         id="g939">
</g>
    </g>
    <g
       transform="matrix(0.66715049,0,0,0.65419935,52.85172,3.5451779)"
       id="g988"
       inkscape:export-xdpi="90"
       inkscape:export-ydpi="90">
      <circle
         style="opacity:1;fill:none;fill-opacity:1;stroke:#ff0000;stroke-width:8;stroke-miterlimit:4;stroke-dasharray:none;stroke-dashoffset:0;stroke-opacity:1"
         id="circle984"
         cx="74.821426"
         cy="110.27975"
         r="40.82143" />
      <path
         style="fill:#ff0000;stroke:#fb0000;stroke-width:8;stroke-linecap:butt;stroke-linejoin:miter;stroke-miterlimit:4;stroke-dasharray:none;stroke-opacity:1"
         d="M 44.176353,86.644558 104.85944,135.88933"
         id="path986"
         inkscape:connector-curvature="0" />
    </g>
    <g
       id="g1045"
       transform="matrix(0.09531578,0,0,0.09531578,147.72372,57.753625)"
       inkscape:export-xdpi="90"
       inkscape:export-ydpi="90">
      <path
         id="path990"
         d="m 403.632,74.18 c -9.113,4.041 -18.573,7.229 -28.28,9.537 C 386.048,73.553 394.09,60.84 398.627,46.65 v 0 c 1.295,-4.051 -3.105,-7.554 -6.763,-5.385 v 0 c -13.504,8.01 -28.05,14.019 -43.235,17.862 -0.881,0.223 -1.79,0.336 -2.702,0.336 -2.766,0 -5.455,-1.027 -7.57,-2.891 -16.156,-14.239 -36.935,-22.081 -58.508,-22.081 -9.335,0 -18.76,1.455 -28.014,4.325 -28.672,8.893 -50.795,32.544 -57.736,61.724 -2.604,10.945 -3.309,21.9 -2.097,32.56 0.139,1.225 -0.44,2.08 -0.797,2.481 -0.627,0.703 -1.516,1.106 -2.439,1.106 -0.103,0 -0.209,-0.005 -0.314,-0.015 C 125.69,130.841 69.094,100.604 29.089,51.532 v 0 c -2.04,-2.503 -5.952,-2.196 -7.578,0.593 v 0 C 13.677,65.565 9.537,80.937 9.537,96.579 c 0,23.972 9.631,46.563 26.36,63.032 -7.035,-1.668 -13.844,-4.295 -20.169,-7.808 v 0 c -3.06,-1.7 -6.825,0.485 -6.868,3.985 v 0 c -0.438,35.612 20.412,67.3 51.646,81.569 -0.629,0.015 -1.258,0.022 -1.888,0.022 -4.951,0 -9.964,-0.478 -14.898,-1.421 v 0 c -3.446,-0.658 -6.341,2.611 -5.271,5.952 v 0 c 10.138,31.651 37.39,54.981 70.002,60.278 -27.066,18.169 -58.585,27.753 -91.39,27.753 L 6.834,329.935 c -3.151,0 -5.816,2.054 -6.619,5.106 -0.791,3.006 0.666,6.177 3.353,7.74 36.966,21.513 79.131,32.883 121.955,32.883 37.485,0 72.549,-7.439 104.219,-22.109 29.033,-13.449 54.689,-32.674 76.255,-57.141 20.09,-22.792 35.8,-49.103 46.692,-78.201 10.383,-27.737 15.871,-57.333 15.871,-85.589 v -1.346 c -10e-4,-4.537 2.051,-8.806 5.631,-11.712 13.585,-11.03 25.415,-24.014 35.16,-38.591 v 0 c 2.573,-3.849 -1.485,-8.673 -5.719,-6.795 z"
         style="fill:#76a9ea"
         inkscape:connector-curvature="0" />
      <g
         id="g992">
</g>
      <g
         id="g994">
</g>
      <g
         id="g996">
</g>
      <g
         id="g998">
</g>
      <g
         id="g1000">
</g>
      <g
         id="g1002">
</g>
      <g
         id="g1004">
</g>
      <g
         id="g1006">
</g>
      <g
         id="g1008">
</g>
      <g
         id="g1010">
</g>
      <g
         id="g1012">
</g>
      <g
         id="g1014">
</g>
      <g
         id="g1016">
</g>
      <g
         id="g1018">
</g>
      <g
         id="g1020">
</g>
    </g>
    <g
       id="g1051"
       transform="matrix(0.66715049,0,0,0.65419935,116.35185,3.5451779)"
       inkscape:export-xdpi="90"
       inkscape:export-ydpi="90">
      <circle
         r="40.82143"
         cy="110.27975"
         cx="74.821426"
         id="circle1047"
         style="opacity:1;fill:none;fill-opacity:1;stroke:#ff0000;stroke-width:8;stroke-miterlimit:4;stroke-dasharray:none;stroke-dashoffset:0;stroke-opacity:1" />
      <path
         inkscape:connector-curvature="0"
         id="path1049"
         d="M 44.176353,86.644558 104.85944,135.88933"
         style="fill:#ff0000;stroke:#fb0000;stroke-width:8;stroke-linecap:butt;stroke-linejoin:miter;stroke-miterlimit:4;stroke-dasharray:none;stroke-opacity:1" />
    </g>
    <g
       id="g1108"
       transform="matrix(0.08565433,0,0,0.08565433,86.249271,138.46184)"
       inkscape:export-xdpi="90"
       inkscape:export-ydpi="90">
      <path
         id="path1053"
         d="M 347.445,0 H 34.555 C 15.471,0 0,15.471 0,34.555 V 347.444 C 0,366.529 15.471,382 34.555,382 H 347.444 C 366.529,382 382,366.529 382,347.444 V 34.555 C 382,15.471 366.529,0 347.445,0 Z M 118.207,329.844 c 0,5.554 -4.502,10.056 -10.056,10.056 H 65.345 c -5.554,0 -10.056,-4.502 -10.056,-10.056 V 150.403 c 0,-5.554 4.502,-10.056 10.056,-10.056 h 42.806 c 5.554,0 10.056,4.502 10.056,10.056 z M 86.748,123.432 c -22.459,0 -40.666,-18.207 -40.666,-40.666 0,-22.459 18.207,-40.666 40.666,-40.666 22.459,0 40.666,18.207 40.666,40.666 0,22.459 -18.206,40.666 -40.666,40.666 z M 341.91,330.654 c 0,5.106 -4.14,9.246 -9.246,9.246 H 286.73 c -5.106,0 -9.246,-4.14 -9.246,-9.246 v -84.168 c 0,-12.556 3.683,-55.021 -32.813,-55.021 -28.309,0 -34.051,29.066 -35.204,42.11 v 97.079 c 0,5.106 -4.139,9.246 -9.246,9.246 h -44.426 c -5.106,0 -9.246,-4.14 -9.246,-9.246 V 149.593 c 0,-5.106 4.14,-9.246 9.246,-9.246 h 44.426 c 5.106,0 9.246,4.14 9.246,9.246 v 15.655 c 10.497,-15.753 26.097,-27.912 59.312,-27.912 73.552,0 73.131,68.716 73.131,106.472 z"
         style="fill:#0077b7"
         inkscape:connector-curvature="0" />
      <g
         id="g1055">
</g>
      <g
         id="g1057">
</g>
      <g
         id="g1059">
</g>
      <g
         id="g1061">
</g>
      <g
         id="g1063">
</g>
      <g
         id="g1065">
</g>
      <g
         id="g1067">
</g>
      <g
         id="g1069">
</g>
      <g
         id="g1071">
</g>
      <g
         id="g1073">
</g>
      <g
         id="g1075">
</g>
      <g
         id="g1077">
</g>
      <g
         id="g1079">
</g>
      <g
         id="g1081">
</g>
      <g
         id="g1083">
</g>
    </g>
    <g
       id="g1196"
       transform="matrix(0.66715049,0,0,0.65419935,52.85172,81.86189)"
       inkscape:export-xdpi="90"
       inkscape:export-ydpi="90">
      <circle
         r="40.82143"
         cy="110.27975"
         cx="74.821426"
         id="circle1192"
         style="opacity:1;fill:none;fill-opacity:1;stroke:#ff0000;stroke-width:8;stroke-miterlimit:4;stroke-dasharray:none;stroke-dashoffset:0;stroke-opacity:1" />
      <path
         inkscape:connector-curvature="0"
         id="path1194"
         d="M 44.176353,86.644558 104.85944,135.88933"
         style="fill:#ff0000;stroke:#fb0000;stroke-width:8;stroke-linecap:butt;stroke-linejoin:miter;stroke-miterlimit:4;stroke-dasharray:none;stroke-opacity:1" />
    </g>
  </g>
</svg>
