<?xml version="1.0" encoding="UTF-8" standalone="no"?>
<!-- Generator: Adobe Illustrator 18.0.0, SVG Export Plug-In . SVG Version: 6.00 Build 0)  -->

<svg
   xmlns:dc="http://purl.org/dc/elements/1.1/"
   xmlns:cc="http://creativecommons.org/ns#"
   xmlns:rdf="http://www.w3.org/1999/02/22-rdf-syntax-ns#"
   xmlns:svg="http://www.w3.org/2000/svg"
   xmlns="http://www.w3.org/2000/svg"
   xmlns:sodipodi="http://sodipodi.sourceforge.net/DTD/sodipodi-0.dtd"
   xmlns:inkscape="http://www.inkscape.org/namespaces/inkscape"
   version="1.1"
   id="Capa_1"
   x="0px"
   y="0px"
   viewBox="0 0 441.296 441.296"
   style="enable-background:new 0 0 441.296 441.296;"
   xml:space="preserve"
   sodipodi:docname="fish-student-svgrepo-com.svg"
   inkscape:version="0.92.3 (2405546, 2018-03-11)"><metadata
   id="metadata61"><rdf:RDF><cc:Work
       rdf:about=""><dc:format>image/svg+xml</dc:format><dc:type
         rdf:resource="http://purl.org/dc/dcmitype/StillImage" /></cc:Work></rdf:RDF></metadata><defs
   id="defs59">
	
	
	
	
	
	
	

		
		
	</defs><sodipodi:namedview
   pagecolor="#ffffff"
   bordercolor="#666666"
   borderopacity="1"
   objecttolerance="10"
   gridtolerance="10"
   guidetolerance="10"
   inkscape:pageopacity="0"
   inkscape:pageshadow="2"
   inkscape:window-width="1920"
   inkscape:window-height="1017"
   id="namedview57"
   showgrid="false"
   inkscape:zoom="1.5126102"
   inkscape:cx="314.88267"
   inkscape:cy="113.0624"
   inkscape:window-x="-8"
   inkscape:window-y="-8"
   inkscape:window-maximized="1"
   inkscape:current-layer="Capa_1" />
<g
   id="g6"
   transform="matrix(1,0,0,-1,0,441.296)">
		<path
   inkscape:connector-curvature="0"
   id="path2"
   d="m 87.536,214.216 v 0 H 59.524 C 26.65,214.217 0,187.566 0,154.692 v 0 h 28.012 c 32.874,0 59.524,26.65 59.524,59.524 z"
   style="fill:#42d153" />
		<path
   inkscape:connector-curvature="0"
   id="path4"
   d="m 87.536,214.217 v 0 H 59.524 C 26.65,214.217 0,240.867 0,273.741 v 0 h 28.012 c 32.874,0 59.524,-26.65 59.524,-59.524 z"
   style="fill:#42d153" />
	</g><path
   inkscape:connector-curvature="0"
   id="path8"
   d="m 65.58,227.079 c 71.933,48.892 116.046,103.729 203.024,103.729 36.572,0 73.047,-4.643 108.413,-13.801 L 361.232,263.885 197.634,245.728 Z"
   style="fill:#42d153" /><path
   inkscape:connector-curvature="0"
   id="path10"
   d="m 416.376,214.52 h 18.09 c -3.55,-13.36 -12.91,-25.34 -28.08,-31.44 -0.52,-0.21 -1.04,-0.41 -1.57,-0.6 -12.05,-4.4 -24.27,-8.19 -36.6,-11.39 -32.65,-8.46 -66.13,-12.68 -99.6,-12.68 -46.7,0 -93.41,8.22 -137.83,24.66 -29.7,10.99 -58.39,25.66 -85.37,44 96.3,65.46 214.2,84.11 322.82,55.99 12.32,-3.19 24.54,-6.98 36.59,-11.38 18.38,-6.72 28.66,-21.88 30.84,-38.03 h -0.16 c -10.561,0 -19.13,-8.57 -19.13,-19.13 z"
   style="fill:#53f26d" /><path
   inkscape:connector-curvature="0"
   id="path12"
   d="m 406.385,183.08 c -0.52,-0.21 -1.04,-0.41 -1.57,-0.6 -12.05,-4.4 -24.27,-8.19 -36.6,-11.39 -32.65,-8.46 -66.13,-12.68 -99.6,-12.68 -46.7,0 -93.41,8.22 -137.83,24.66 76.28,28.24 159.27,32.23 237.45,11.99 12.32,-3.19 24.54,-6.98 36.59,-11.38 0.531,-0.189 1.051,-0.39 1.56,-0.6 z"
   style="fill:#92f49e" /><path
   inkscape:connector-curvature="0"
   id="path14"
   d="m 416.377,214.52 h 23.632 c -3.507,-12.263 -12.305,-23.186 -26.374,-28.701 -14.898,-5.844 -30.061,-10.754 -45.416,-14.728 -7.736,17.066 -12.05,36.023 -12.05,55.978 0,19.966 4.314,38.913 12.061,55.989 15.355,-3.974 30.518,-8.873 45.416,-14.717 16.311,-6.397 25.534,-20.073 27.649,-34.694 h -5.791 c -10.562,0 -19.127,-8.565 -19.127,-19.127 z"
   style="fill:#42d153" /><circle
   style="fill:#ffffff"
   cx="386.48599"
   cy="-231.86301"
   r="18.752001"
   id="circle16"
   transform="scale(1,-1)" /><path
   inkscape:connector-curvature="0"
   id="path22"
   d="m 241.185,110.488 v 0 c -11.933,22.244 -3.574,49.95 18.67,61.883 l 46.244,24.807 v 0 c 11.933,-22.244 3.574,-49.95 -18.671,-61.883 z"
   style="fill:#42d153" />
<g
   id="g26">
</g>
<g
   id="g28">
</g>
<g
   id="g30">
</g>
<g
   id="g32">
</g>
<g
   id="g34">
</g>
<g
   id="g36">
</g>
<g
   id="g38">
</g>
<g
   id="g40">
</g>
<g
   id="g42">
</g>
<g
   id="g44">
</g>
<g
   id="g46">
</g>
<g
   id="g48">
</g>
<g
   id="g50">
</g>
<g
   id="g52">
</g>
<g
   id="g54">
</g>
<path
   style="fill:none;stroke:#000000;stroke-width:3;stroke-linecap:butt;stroke-linejoin:miter;stroke-opacity:1;stroke-miterlimit:4;stroke-dasharray:none"
   d="m 376.83206,222.46895 16.52772,16.52773"
   id="path884"
   inkscape:connector-curvature="0" /><path
   inkscape:connector-curvature="0"
   id="path886"
   d="m 393.35978,222.46895 -16.52772,16.52773"
   style="fill:none;stroke:#000000;stroke-width:3;stroke-linecap:butt;stroke-linejoin:miter;stroke-miterlimit:4;stroke-dasharray:none;stroke-opacity:1" /></svg>