<?xml version="1.0" encoding="UTF-8" standalone="no"?>
<!-- Created with Inkscape (http://www.inkscape.org/) -->

<svg
   xmlns:dc="http://purl.org/dc/elements/1.1/"
   xmlns:cc="http://creativecommons.org/ns#"
   xmlns:rdf="http://www.w3.org/1999/02/22-rdf-syntax-ns#"
   xmlns:svg="http://www.w3.org/2000/svg"
   xmlns="http://www.w3.org/2000/svg"
   xmlns:sodipodi="http://sodipodi.sourceforge.net/DTD/sodipodi-0.dtd"
   xmlns:inkscape="http://www.inkscape.org/namespaces/inkscape"
   width="210mm"
   height="297mm"
   viewBox="0 0 210 297"
   version="1.1"
   id="svg8"
   inkscape:version="0.92.3 (2405546, 2018-03-11)"
   sodipodi:docname="Map_Encyclopedia.svg">
  <defs
     id="defs2" />
  <sodipodi:namedview
     id="base"
     pagecolor="#ffffff"
     bordercolor="#666666"
     borderopacity="1.0"
     inkscape:pageopacity="0.0"
     inkscape:pageshadow="2"
     inkscape:zoom="0.79567711"
     inkscape:cx="-83.218301"
     inkscape:cy="710.33107"
     inkscape:document-units="mm"
     inkscape:current-layer="layer1"
     showgrid="false"
     inkscape:window-width="1920"
     inkscape:window-height="1009"
     inkscape:window-x="-8"
     inkscape:window-y="1072"
     inkscape:window-maximized="1" />
  <metadata
     id="metadata5">
    <rdf:RDF>
      <cc:Work
         rdf:about="">
        <dc:format>image/svg+xml</dc:format>
        <dc:type
           rdf:resource="http://purl.org/dc/dcmitype/StillImage" />
        <dc:title></dc:title>
      </cc:Work>
    </rdf:RDF>
  </metadata>
  <g
     inkscape:label="Calque 1"
     inkscape:groupmode="layer"
     id="layer1">
    <circle
       style="opacity:1;fill:#800080;fill-opacity:1;fill-rule:evenodd;stroke:#000000;stroke-width:0.1;stroke-miterlimit:4;stroke-dasharray:none;stroke-dashoffset:0;stroke-opacity:0.39215686"
       id="path815"
       cx="107.07943"
       cy="102.45071"
       r="12.294398" />
    <circle
       r="12.294398"
       cy="68.355682"
       cx="58.290394"
       id="circle821"
       style="opacity:1;fill:#800080;fill-opacity:1;fill-rule:evenodd;stroke:#000000;stroke-width:0.1;stroke-miterlimit:4;stroke-dasharray:none;stroke-dashoffset:0;stroke-opacity:0.39215686" />
    <text
       id="text825"
       y="70.425323"
       x="48.478588"
       style="font-style:normal;font-variant:normal;font-weight:bold;font-stretch:normal;font-size:4.23333311px;line-height:1.25;font-family:Calibri;-inkscape-font-specification:'Calibri Bold';letter-spacing:0px;word-spacing:0px;fill:#000000;fill-opacity:1;stroke:none;stroke-width:0.26458332"
       xml:space="preserve"><tspan
         style="font-size:6.3499999px;fill:#ffffff;stroke-width:0.26458332"
         y="70.425323"
         x="48.478588"
         id="tspan823"
         sodipodi:role="line">Science</tspan></text>
    <circle
       style="opacity:1;fill:#800080;fill-opacity:1;fill-rule:evenodd;stroke:#000000;stroke-width:0.1;stroke-miterlimit:4;stroke-dasharray:none;stroke-dashoffset:0;stroke-opacity:0.39215686"
       id="circle827"
       cx="110.84153"
       cy="44.373253"
       r="12.294398" />
    <text
       xml:space="preserve"
       style="font-style:normal;font-variant:normal;font-weight:bold;font-stretch:normal;font-size:4.23333311px;line-height:1.25;font-family:Calibri;-inkscape-font-specification:'Calibri Bold';letter-spacing:0px;word-spacing:0px;fill:#000000;fill-opacity:1;stroke:none;stroke-width:0.26458332"
       x="99.228798"
       y="46.255653"
       id="text831"><tspan
         sodipodi:role="line"
         id="tspan829"
         x="99.228798"
         y="46.255653"
         style="font-size:5.64444447px;fill:#ffffff;stroke-width:0.26458332">Education</tspan></text>
    <circle
       r="12.294398"
       cy="132.37175"
       cx="158.63165"
       id="circle833"
       style="opacity:1;fill:#800080;fill-opacity:1;fill-rule:evenodd;stroke:#000000;stroke-width:0.1;stroke-miterlimit:4;stroke-dasharray:none;stroke-dashoffset:0;stroke-opacity:0.39215686" />
    <text
       id="text837"
       y="134.44139"
       x="150.64145"
       style="font-style:normal;font-variant:normal;font-weight:bold;font-stretch:normal;font-size:4.23333311px;line-height:1.25;font-family:Calibri;-inkscape-font-specification:'Calibri Bold';letter-spacing:0px;word-spacing:0px;fill:#000000;fill-opacity:1;stroke:none;stroke-width:0.26458332"
       xml:space="preserve"><tspan
         style="font-size:6.3499999px;fill:#ffffff;stroke-width:0.26458332"
         y="134.44139"
         x="150.64145"
         id="tspan835"
         sodipodi:role="line">Music</tspan></text>
    <circle
       style="opacity:1;fill:#800080;fill-opacity:1;fill-rule:evenodd;stroke:#000000;stroke-width:0.1;stroke-miterlimit:4;stroke-dasharray:none;stroke-dashoffset:0;stroke-opacity:0.39215686"
       id="circle839"
       cx="112.84039"
       cy="161.35226"
       r="12.294398" />
    <text
       xml:space="preserve"
       style="font-style:normal;font-variant:normal;font-weight:bold;font-stretch:normal;font-size:4.23333311px;line-height:1.25;font-family:Calibri;-inkscape-font-specification:'Calibri Bold';letter-spacing:0px;word-spacing:0px;fill:#000000;fill-opacity:1;stroke:none;stroke-width:0.26458332"
       x="101.91235"
       y="163.00298"
       id="text843"><tspan
         sodipodi:role="line"
         id="tspan841"
         x="101.91235"
         y="163.00298"
         style="font-size:4.93888903px;fill:#ffffff;stroke-width:0.26458332">Pharmacie</tspan></text>
    <circle
       r="12.294398"
       cy="132.07727"
       cx="57.701832"
       id="circle845"
       style="opacity:1;fill:#800080;fill-opacity:1;fill-rule:evenodd;stroke:#000000;stroke-width:0.1;stroke-miterlimit:4;stroke-dasharray:none;stroke-dashoffset:0;stroke-opacity:0.39215686" />
    <text
       id="text849"
       y="133.98035"
       x="49.228275"
       style="font-style:normal;font-variant:normal;font-weight:bold;font-stretch:normal;font-size:4.23333311px;line-height:1.25;font-family:Calibri;-inkscape-font-specification:'Calibri Bold';letter-spacing:0px;word-spacing:0px;fill:#000000;fill-opacity:1;stroke:none;stroke-width:0.26458332"
       xml:space="preserve"><tspan
         style="font-size:5.64444447px;fill:#ffffff;stroke-width:0.26458332"
         y="133.98035"
         x="49.228275"
         id="tspan847"
         sodipodi:role="line">Société</tspan></text>
    <path
       style="fill:none;stroke:#000000;stroke-width:0.265;stroke-linecap:butt;stroke-linejoin:miter;stroke-miterlimit:4;stroke-dasharray:1.06,0.53;stroke-dashoffset:0;stroke-opacity:1"
       d="M 111.98916,56.195283 109.26949,90.81993"
       id="path851"
       inkscape:connector-curvature="0" />
    <path
       style="fill:none;stroke:#000000;stroke-width:0.26458332;stroke-linecap:butt;stroke-linejoin:miter;stroke-miterlimit:4;stroke-dasharray:0.79374995, 0.79374995;stroke-dashoffset:0;stroke-opacity:1"
       d="M 68.071266,76.210648 98.168085,94.080633"
       id="path853"
       inkscape:connector-curvature="0" />
    <path
       inkscape:connector-curvature="0"
       id="path855"
       d="M 69.1296,129.00582 99.226419,111.13573"
       style="fill:none;stroke:#000000;stroke-width:0.26458332;stroke-linecap:butt;stroke-linejoin:miter;stroke-miterlimit:4;stroke-dasharray:0.79374995, 0.79374995;stroke-dashoffset:0;stroke-opacity:1" />
    <path
       inkscape:connector-curvature="0"
       id="path859"
       d="m 117.85974,108.60084 30.09681,17.86999"
       style="fill:none;stroke:#000000;stroke-width:0.26458332;stroke-linecap:butt;stroke-linejoin:miter;stroke-miterlimit:4;stroke-dasharray:0.79374995, 0.79374995;stroke-dashoffset:0;stroke-opacity:1" />
    <g
       id="g944"
       transform="translate(-3.9047334,-11.549964)">
      <circle
         r="6.3485475"
         cy="102.78146"
         cx="147.89766"
         id="path861"
         style="opacity:1;fill:#000080;fill-opacity:1;fill-rule:evenodd;stroke:#000000;stroke-width:0.26458332;stroke-miterlimit:4;stroke-dasharray:none;stroke-dashoffset:0;stroke-opacity:0.39215686" />
      <path
         style="fill:#ffffff;stroke-width:0.01291927"
         inkscape:connector-curvature="0"
         d="m 147.07082,99.88755 c 0,0.22867 0.18475,0.41342 0.41342,0.41342 1.59811,0 2.89391,1.2958 2.89391,2.89391 0,0.22867 0.18475,0.41342 0.41342,0.41342 0.22867,0 0.41342,-0.18475 0.41342,-0.41342 0,-2.05545 -1.6653,-3.720747 -3.72075,-3.720747 -0.22867,0 -0.41342,0.184747 -0.41342,0.413417 z m 0,1.24025 c 0,0.22867 0.18475,0.41342 0.41342,0.41342 0.91339,0 1.65366,0.74027 1.65366,1.65366 0,0.22867 0.18475,0.41342 0.41342,0.41342 0.22867,0 0.41342,-0.18475 0.41342,-0.41342 0,-1.36944 -1.11106,-2.4805 -2.4805,-2.4805 -0.22867,0 -0.41342,0.18475 -0.41342,0.41342 z m -1.24025,0.20671 c 0,-0.34236 -0.27776,-0.62013 -0.62012,-0.62013 -0.34237,0 -0.62013,0.27777 -0.62013,0.62013 v 2.89391 c 0,1.02709 0.83329,1.86038 1.86038,1.86038 1.02708,0 1.86037,-0.83329 1.86037,-1.86038 0,-1.02708 -0.83329,-1.86037 -1.86037,-1.86037 h -0.20671 v 1.24025 h 0.20671 c 0.34235,0 0.62012,0.27776 0.62012,0.62012 0,0.34237 -0.27777,0.62013 -0.62012,0.62013 -0.34237,0 -0.62013,-0.27776 -0.62013,-0.62013 z"
         id="path863" />
    </g>
    <path
       id="path896"
       d="m 113.46877,102.43963 c 0,0.39956 -0.33296,0.71255 -0.71032,0.71255 h -0.71034 l 0.0155,3.55609 c 0,0.0599 -0.004,0.11987 -0.0111,0.1798 v 0.35739 c 0,0.49057 -0.39734,0.88791 -0.88791,0.88791 h -0.35517 c -0.0244,0 -0.0488,0 -0.0733,-0.002 -0.0311,0.002 -0.0622,0.002 -0.0932,0.002 h -0.72142 -0.53275 c -0.49057,0 -0.88791,-0.39734 -0.88791,-0.88791 v -0.53275 -1.42066 c 0,-0.3929 -0.31743,-0.71033 -0.71033,-0.71033 h -1.42067 c -0.3929,0 -0.71033,0.31743 -0.71033,0.71033 v 1.42066 0.53275 c 0,0.49057 -0.39733,0.88791 -0.88791,0.88791 h -0.53275 -0.7081 c -0.0333,0 -0.0666,-0.002 -0.0999,-0.004 -0.0266,0.002 -0.0533,0.004 -0.0799,0.004 h -0.35517 c -0.49057,0 -0.88791,-0.39734 -0.88791,-0.88791 v -2.48616 c 0,-0.02 0,-0.0422 0.002,-0.0622 v -1.54497 h -0.71255 c -0.39956,0 -0.71033,-0.31077 -0.71033,-0.71255 0,-0.19978 0.0666,-0.37736 0.22198,-0.53275 l 5.69152,-4.961197 c 0.15538,-0.15539 0.33296,-0.17759 0.48835,-0.17759 0.15538,0 0.33296,0.0444 0.46615,0.15539 l 5.66932,4.983407 c 0.17758,0.15538 0.26637,0.33296 0.24418,0.53274 z"
       inkscape:connector-curvature="0"
       style="fill:#ffffff;stroke-width:0.02219781" />
    <g
       id="g921"
       transform="translate(6.9363762,16.929461)">
      <circle
         style="opacity:1;fill:#ff6600;fill-opacity:1;fill-rule:evenodd;stroke:#000000;stroke-width:0.26458332;stroke-miterlimit:4;stroke-dasharray:none;stroke-dashoffset:0;stroke-opacity:0.39215686"
         id="circle907"
         cx="124.26694"
         cy="81.737206"
         r="6.3485475" />
      <path
         style="stroke-width:0.012918"
         inkscape:connector-curvature="0"
         d="m 124.26694,81.737205 a 1.6535045,1.6535045 0 1 0 0,-3.307008 1.6535045,1.6535045 0 1 0 0,3.307008 z m -0.59035,0.620065 c -1.27242,0 -2.30328,1.030856 -2.30328,2.30328 0,0.211856 0.17181,0.383665 0.38367,0.383665 h 5.01993 c 0.21186,0 0.38366,-0.171809 0.38366,-0.383665 0,-1.272424 -1.03084,-2.30328 -2.30328,-2.30328 z"
         id="path874" />
    </g>
    <g
       id="g913"
       transform="translate(22.043568,-25.276625)">
      <circle
         r="6.3485475"
         cy="109.24758"
         cx="134.73029"
         id="circle909"
         style="opacity:1;fill:#ff6600;fill-opacity:1;fill-rule:evenodd;stroke:#000000;stroke-width:0.26458332;stroke-miterlimit:4;stroke-dasharray:none;stroke-dashoffset:0;stroke-opacity:0.39215686" />
      <path
         style="stroke-width:0.0140861"
         inkscape:connector-curvature="0"
         d="m 132.23161,105.71208 c -0.13381,-0.1043 -0.32398,-0.0916 -0.44512,0.0282 l -0.56344,0.56344 c -0.11974,0.11972 -0.13242,0.30989 -0.0296,0.44512 l 1.12688,1.46495 c 0.0634,0.0831 0.16341,0.1324 0.26765,0.1324 h 0.76205 l 1.53539,1.53539 c -0.20707,0.4085 -0.14086,0.92123 0.20142,1.26212 l 1.57765,1.57764 c 0.17608,0.17608 0.46203,0.17608 0.63811,0 l 0.9015,-0.90151 c 0.17607,-0.17608 0.17607,-0.46203 0,-0.6381 l -1.57763,-1.57764 c -0.34089,-0.34088 -0.85362,-0.4085 -1.26212,-0.20144 l -1.53539,-1.53538 v -0.76065 c 0,-0.10561 -0.0493,-0.20425 -0.13241,-0.26763 z m -0.82685,5.50906 c -0.1789,0.1789 -0.28032,0.42259 -0.28032,0.67614 0,0.52822 0.42823,0.95644 0.95645,0.95644 0.25354,0 0.49723,-0.10147 0.67614,-0.28032 l 1.65934,-1.65933 c -0.10988,-0.2944 -0.12677,-0.61416 -0.0507,-0.91701 l -0.8691,-0.8691 z m 6.93177,-3.5511 c 0,-0.14791 -0.0156,-0.29159 -0.0451,-0.42963 -0.0337,-0.15777 -0.22679,-0.19862 -0.34088,-0.0845 l -0.9001,0.90011 c -0.0422,0.0422 -0.10006,0.0662 -0.15918,0.0662 h -0.80855 c -0.12395,0 -0.22536,-0.10148 -0.22536,-0.22538 v -0.80995 c 0,-0.0591 0.0239,-0.11691 0.0662,-0.15917 l 0.9001,-0.9001 c 0.1141,-0.11409 0.0733,-0.30708 -0.0845,-0.34089 -0.13946,-0.0296 -0.28313,-0.0451 -0.43104,-0.0451 -1.11985,0 -2.0284,0.90855 -2.0284,2.0284 v 0.0112 l 1.20154,1.20154 c 0.5071,-0.12818 1.06773,0.007 1.46496,0.40428 l 0.22116,0.22114 c 0.69021,-0.32397 1.16914,-1.02546 1.16914,-1.83823 z m -6.42326,4.05679 a 0.33806651,0.33806651 0 1 1 0.67612,0 0.33806651,0.33806651 0 1 1 -0.67612,0 z"
         id="path885" />
    </g>
    <path
       inkscape:connector-curvature="0"
       id="path940"
       d="m 111.98916,149.02858 -2.71967,-34.62485"
       style="fill:none;stroke:#000000;stroke-width:0.26499999;stroke-linecap:butt;stroke-linejoin:miter;stroke-miterlimit:4;stroke-dasharray:1.06, 0.53;stroke-dashoffset:0;stroke-opacity:1" />
    <path
       style="fill:none;stroke:#000000;stroke-width:0.26458332px;stroke-linecap:butt;stroke-linejoin:miter;stroke-opacity:1"
       d="M 116.62517,94.786999 151.9407,74.39757"
       id="path946"
       inkscape:connector-curvature="0" />
    <path
       style="fill:none;stroke:#000000;stroke-width:0.29206258px;stroke-linecap:butt;stroke-linejoin:miter;stroke-opacity:1"
       d="m 125.77294,89.659288 2.09744,3.453678"
       id="path948"
       inkscape:connector-curvature="0" />
    <path
       inkscape:connector-curvature="0"
       id="path950"
       d="m 138.49206,82.260584 2.09744,3.453678"
       style="fill:none;stroke:#000000;stroke-width:0.29206258px;stroke-linecap:butt;stroke-linejoin:miter;stroke-opacity:1" />
    <path
       style="fill:none;stroke:#000000;stroke-width:0.29206258px;stroke-linecap:butt;stroke-linejoin:miter;stroke-opacity:1"
       d="m 151.86796,74.595008 2.09744,3.453678"
       id="path952"
       inkscape:connector-curvature="0" />
  </g>
</svg>
