<?xml version="1.0" encoding="UTF-8" standalone="no"?>
<svg
   xmlns:dc="http://purl.org/dc/elements/1.1/"
   xmlns:cc="http://creativecommons.org/ns#"
   xmlns:rdf="http://www.w3.org/1999/02/22-rdf-syntax-ns#"
   xmlns:svg="http://www.w3.org/2000/svg"
   xmlns="http://www.w3.org/2000/svg"
   xmlns:sodipodi="http://sodipodi.sourceforge.net/DTD/sodipodi-0.dtd"
   xmlns:inkscape="http://www.inkscape.org/namespaces/inkscape"
   id="Layer_1"
   viewBox="0 0 400 400"
   width="2500"
   height="2500"
   version="1.1"
   sodipodi:docname="Diagramo_de_Ikigajo_-en.svg"
   inkscape:version="0.92.3 (2405546, 2018-03-11)"
   xml:space="preserve"><metadata
     id="metadata17"><rdf:RDF><cc:Work
         rdf:about=""><dc:format>image/svg+xml</dc:format><dc:type
           rdf:resource="http://purl.org/dc/dcmitype/StillImage" /><dc:title /></cc:Work></rdf:RDF></metadata><defs
     id="defs15" /><sodipodi:namedview
     pagecolor="#ffffff"
     bordercolor="#666666"
     borderopacity="1"
     objecttolerance="10"
     gridtolerance="10"
     guidetolerance="10"
     inkscape:pageopacity="0"
     inkscape:pageshadow="2"
     inkscape:window-width="1920"
     inkscape:window-height="1009"
     id="namedview13"
     showgrid="false"
     inkscape:zoom="0.19575613"
     inkscape:cx="2218.3729"
     inkscape:cy="1210.6214"
     inkscape:window-x="-8"
     inkscape:window-y="-8"
     inkscape:window-maximized="1"
     inkscape:current-layer="Layer_1"
     showguides="true"
     inkscape:guide-bbox="true"
     inkscape:showpageshadow="2"
     inkscape:pagecheckerboard="0"
     inkscape:deskcolor="#d1d1d1"><sodipodi:guide
       position="196.61469,339.93775"
       orientation="0,-1260.557"
       id="guide727"
       inkscape:locked="false" /><sodipodi:guide
       position="196.63521,14.806358"
       orientation="0,1260.557"
       id="guide731"
       inkscape:locked="false" /><sodipodi:guide
       position="37.461304,178.0114"
       orientation="1260.557,0"
       id="guide737"
       inkscape:locked="false" /><sodipodi:guide
       position="362.56116,175.95616"
       orientation="-1260.557,0"
       id="guide749"
       inkscape:locked="false" /></sodipodi:namedview><style
     id="style2">.st0{fill:#fff}.st1{fill:#e31937}</style><path
     sodipodi:nodetypes="ccccc"
     style="fill:#ffffff;stroke:none;stroke-width:3;stroke-miterlimit:10;fill-opacity:1"
     inkscape:connector-curvature="0"
     id="path7"
     d="M 0,0 H 400 V 400 H 0 C 0,266.66667 0,133.33333 0,0 Z"
     class="st1" /><style
     id="style883"
     type="text/css">
	.st0{fill:#FFFFFF;stroke:#000000;stroke-width:3;stroke-miterlimit:10;}
	.st1{fill:#2B5DF2;stroke:#000000;stroke-width:3;stroke-miterlimit:10;}
	.st2{fill:none;}
</style><g
     id="g9370"
     transform="matrix(0.0971679,0,0,0.1109633,51.727035,176.06577)" /><g
     transform="matrix(0.15988791,-0.00598791,0.00598791,0.15988791,410.81446,176.02448)"
     id="g3008"
     style="opacity:0.58407078"><g
       id="g3784"
       transform="rotate(-13.544655,-20.963666,61.499224)" /></g><g
     id="g1206"><path
       id="path3757"
       style="display:inline;overflow:visible;fill:#fff180;stroke:#ffffff;stroke-width:4.13627005;marker:none;enable-background:accumulate"
       d="m 298.77641,156.81429 a 98.776428,98.776428 0 0 1 -98.77643,98.77642 98.776428,98.776428 0 0 1 -98.77642,-98.77642 98.776428,98.776428 0 0 1 98.77642,-98.776433 98.776428,98.776428 0 0 1 98.77643,98.776433 z"
       inkscape:connector-curvature="0" /><path
       id="path3757-1"
       style="display:inline;overflow:visible;fill:#a6ffe6;stroke:#ffffff;stroke-width:4.13627005;marker:none;enable-background:accumulate"
       d="m 298.77641,288.51617 a 98.776428,98.776428 0 0 1 -98.77643,98.77643 98.776428,98.776428 0 0 1 -98.77642,-98.77643 98.776428,98.776428 0 0 1 98.77642,-98.77642 98.776428,98.776428 0 0 1 98.77643,98.77642 z"
       inkscape:connector-curvature="0" /><path
       id="path3757-5"
       style="display:inline;overflow:visible;fill:#d8ff8c;stroke:#ffffff;stroke-width:4.13627005;marker:none;enable-background:accumulate"
       d="m 134.14903,123.88881 a 98.776428,98.776428 0 0 1 98.77643,98.77643 98.776428,98.776428 0 0 1 -98.77643,98.77643 98.776428,98.776428 0 0 1 -98.776426,-98.77643 98.776428,98.776428 0 0 1 98.776426,-98.77643 z"
       inkscape:connector-curvature="0" /><path
       id="path3757-1-4"
       style="display:inline;overflow:visible;fill:#ffb5aa;stroke:#ffffff;stroke-width:4.13627005;marker:none;enable-background:accumulate"
       d="m 265.85098,123.88881 a 98.776428,98.776428 0 0 1 98.77643,98.77643 98.776428,98.776428 0 0 1 -98.77643,98.77643 98.776428,98.776428 0 0 1 -98.77643,-98.77643 98.776428,98.776428 0 0 1 98.77643,-98.77643 z"
       inkscape:connector-curvature="0" /><path
       style="color:#000000;display:inline;overflow:visible;visibility:visible;fill:#ffcc80;fill-opacity:1;stroke:#ffffff;stroke-width:4.13627005;stroke-miterlimit:4;stroke-dasharray:none;stroke-opacity:1;marker:none;enable-background:accumulate"
       d="m 265.85093,123.93099 c -54.5527,0 -98.77642,44.22372 -98.77642,98.77643 0,9.96367 1.47462,19.53597 4.21858,28.60402 9.09598,2.7625 18.70826,4.32146 28.7069,4.32146 54.55271,0 98.77642,-44.22372 98.77642,-98.77642 0,-9.96902 -1.47179,-19.6346 -4.21858,-28.70691 -9.09598,-2.76252 -18.70826,-4.21858 -28.7069,-4.21858 z"
       id="path3757-9"
       inkscape:connector-curvature="0" /><path
       style="color:#000000;display:inline;overflow:visible;visibility:visible;fill:#daf16d;fill-opacity:1;stroke:#ffffff;stroke-width:4.13627005;stroke-miterlimit:4;stroke-dasharray:none;stroke-opacity:1;marker:none;enable-background:accumulate"
       d="m 134.14903,123.93099 c -9.99863,0 -19.61091,1.45606 -28.70689,4.21858 -2.74679,9.07231 -4.21858,18.73789 -4.21858,28.70691 0,54.5527 44.22371,98.77642 98.77643,98.77642 9.99863,0 19.61091,-1.55896 28.7069,-4.32146 2.74396,-9.06805 4.21857,-18.64035 4.21857,-28.60402 0,-54.55271 -44.22371,-98.77643 -98.77643,-98.77643 z"
       id="path3757-7"
       inkscape:connector-curvature="0" /><path
       style="color:#000000;display:inline;overflow:visible;visibility:visible;fill:#a8ffae;fill-opacity:1;stroke:#ffffff;stroke-width:4.13627005;stroke-miterlimit:4;stroke-dasharray:none;stroke-opacity:1;marker:none;enable-background:accumulate"
       d="m 199.99999,189.78193 c -54.55272,0 -98.77643,44.22372 -98.77643,98.77643 0,9.9637 1.47461,19.53597 4.21858,28.60402 9.09598,2.76249 18.70826,4.32147 28.70689,4.32147 54.55272,0 98.77643,-44.22372 98.77643,-98.77643 0,-9.96901 -1.47179,-19.6346 -4.21857,-28.7069 -9.09599,-2.7625 -18.70827,-4.21859 -28.7069,-4.21859 z"
       id="path3757-1-49"
       inkscape:connector-curvature="0" /><path
       style="color:#000000;display:inline;overflow:visible;visibility:visible;fill:#d9ceb9;fill-opacity:1;stroke:#ffffff;stroke-width:4.13627005;stroke-miterlimit:4;stroke-dasharray:none;stroke-opacity:1;marker:none;enable-background:accumulate"
       d="m 199.99999,189.78193 c -9.99864,0 -19.61092,1.45609 -28.7069,4.21859 -2.74679,9.0723 -4.21858,18.73789 -4.21858,28.7069 0,54.55271 44.22372,98.77643 98.77642,98.77643 9.99864,0 19.61092,-1.55898 28.7069,-4.32147 2.74398,-9.06805 4.21858,-18.64032 4.21858,-28.60402 0,-54.55271 -44.22371,-98.77643 -98.77642,-98.77643 z"
       id="path3757-1-0"
       inkscape:connector-curvature="0" /><path
       style="color:#000000;display:inline;overflow:visible;visibility:visible;fill:#cbc183;fill-opacity:1;stroke:#ffffff;stroke-width:4.13627005;stroke-miterlimit:4;stroke-dasharray:none;stroke-opacity:1;marker:none;enable-background:accumulate"
       d="m 199.99999,149.13956 c -20.16868,18.0847 -32.92548,44.34627 -32.92548,73.56786 0,29.22158 12.7568,55.38027 32.92548,73.46497 20.16868,-18.0847 32.92547,-44.24339 32.92547,-73.46497 0,-29.22159 -12.75679,-55.48316 -32.92547,-73.56786 z"
       id="path3757-5-9"
       inkscape:connector-curvature="0" /><path
       style="color:#000000;display:inline;overflow:visible;visibility:visible;fill:#a3cc7a;fill-opacity:1;stroke:#ffffff;stroke-width:4.13627005;stroke-miterlimit:4;stroke-dasharray:none;stroke-opacity:1;marker:none;enable-background:accumulate"
       d="m 199.99999,189.78193 c -29.26994,0 -55.58322,12.69864 -73.67076,32.92549 18.08592,20.19305 44.4289,32.92548 73.67076,32.92548 29.24186,0 55.58483,-12.73243 73.67076,-32.92548 -18.08755,-20.22685 -44.40082,-32.92549 -73.67076,-32.92549 z"
       id="path3757-75"
       inkscape:connector-curvature="0" /><path
       style="color:#000000;display:inline;overflow:visible;visibility:visible;fill:#6b875e;fill-opacity:1;stroke:#ffffff;stroke-width:4.13627005;stroke-miterlimit:4;stroke-dasharray:none;stroke-opacity:1;marker:none;enable-background:accumulate"
       d="m 199.99999,189.78193 c -9.99864,0 -19.61092,1.45609 -28.7069,4.21859 -2.74679,9.0723 -4.21858,18.73789 -4.21858,28.7069 0,9.96367 1.47462,19.53597 4.21858,28.60402 9.09598,2.7625 18.70826,4.32146 28.7069,4.32146 9.99863,0 19.61091,-1.55896 28.7069,-4.32146 2.74396,-9.06805 4.21857,-18.64035 4.21857,-28.60402 0,-9.96901 -1.47179,-19.6346 -4.21857,-28.7069 -9.09599,-2.7625 -18.70827,-4.21859 -28.7069,-4.21859 z"
       id="path3757-4"
       inkscape:connector-curvature="0" /><g
       transform="translate(-365.30701)"
       aria-label="what you LOVE"
       id="text3989-90"
       style="font-size:38.77590179px;line-height:0%;font-family:'Liberation Sans';letter-spacing:0px;word-spacing:0px;fill:#008000;stroke-width:3.23132992"><path
         d="m 538.46658,93.135818 h -1.6488 l -0.29189,-5.506497 -0.0473,-1.861796 q -0.23667,0.591672 -0.42601,1.041343 -0.18933,0.441782 -2.84003,6.32695 h -1.6409 l -0.72579,-8.53586 h 1.40424 l 0.31556,5.79839 0.0552,1.562015 0.63901,-1.498904 2.69014,-5.861501 h 1.52257 l 0.34711,5.861501 q 0.0473,0.852008 0.0473,1.498904 0.26034,-0.623229 3.32126,-7.360405 h 1.38846 z"
         style="font-style:italic;font-size:16.15660095px;line-height:1.25;-inkscape-font-specification:'Sans Italic';text-align:center;text-anchor:middle"
         id="path271"
         inkscape:connector-curvature="0" /><path
         d="m 544.73041,86.059417 q 0.65479,-0.907231 1.30957,-1.254346 0.66268,-0.355003 1.56991,-0.355003 1.16756,0 1.75135,0.575894 0.59167,0.575895 0.59167,1.664572 0,0.504894 -0.16567,1.29379 l -1.0019,5.151494 h -1.4279 l 0.99401,-5.088382 q 0.142,-0.694229 0.142,-1.183345 0,-1.317457 -1.41212,-1.317457 -0.99401,0 -1.75135,0.757341 -0.75735,0.75734 -1.00979,2.051131 l -0.9309,4.780712 h -1.41213 l 2.27203,-11.707224 h 1.42001 l -0.59167,3.045141 q -0.142,0.788896 -0.37078,1.585682 z"
         style="font-style:italic;font-size:16.15660095px;line-height:1.25;-inkscape-font-specification:'Sans Italic';text-align:center;text-anchor:middle"
         id="path273"
         inkscape:connector-curvature="0" /><path
         d="m 558.00754,93.214708 q -0.73367,0 -1.0729,-0.299781 -0.33133,-0.307669 -0.33133,-0.907231 l 0.0394,-0.504893 h -0.0473 q -0.65479,0.994009 -1.3569,1.396347 -0.70212,0.394448 -1.69613,0.394448 -1.10446,0 -1.79868,-0.662673 -0.68634,-0.662673 -0.68634,-1.688239 0,-1.459458 1.04134,-2.20891 1.04923,-0.749452 3.33703,-0.781008 l 1.83024,-0.02367 q 0.14989,-0.773118 0.14989,-1.001898 0,-0.717896 -0.41811,-1.057122 -0.41812,-0.347114 -1.15968,-0.347114 -0.93879,0 -1.42002,0.339225 -0.48122,0.331337 -0.69422,1.017677 l -1.40424,-0.22878 q 0.355,-1.159678 1.23068,-1.68035 0.88356,-0.52856 2.36669,-0.52856 1.34901,0 2.13002,0.631117 0.7889,0.631117 0.7889,1.696127 0,0.504894 -0.1499,1.238568 l -0.58378,2.982029 q -0.0868,0.37867 -0.0868,0.694229 0,0.575894 0.63901,0.575894 0.213,0 0.47334,-0.05522 l -0.11045,0.883564 q -0.52067,0.126223 -1.00979,0.126223 z m -0.93089,-4.307375 -1.56991,0.03156 q -0.93879,0.02367 -1.47523,0.173557 -0.53645,0.142002 -0.83624,0.370782 -0.29189,0.220891 -0.46544,0.568005 -0.16567,0.339226 -0.16567,0.828341 0,0.591673 0.37867,0.962454 0.38656,0.370782 0.99401,0.370782 0.76523,0 1.38057,-0.323448 0.61534,-0.331337 1.01767,-0.859897 0.40234,-0.528561 0.52856,-1.136011 z"
         style="font-style:italic;font-size:16.15660095px;line-height:1.25;-inkscape-font-specification:'Sans Italic';text-align:center;text-anchor:middle"
         id="path275"
         inkscape:connector-curvature="0" /><path
         d="m 561.84947,93.293598 q -0.67056,0 -1.05712,-0.402337 -0.37867,-0.402338 -0.37867,-1.065011 0,-0.433893 0.11833,-1.025565 l 0.99401,-5.167273 h -0.98612 l 0.20511,-1.033454 h 1.0019 l 0.82834,-1.90913 h 0.94668 l -0.37078,1.90913 h 1.57779 l -0.20511,1.033454 h -1.57779 l -0.98613,5.088383 q -0.0947,0.473338 -0.0947,0.749452 0,0.694229 0.71,0.694229 0.33134,0 0.7889,-0.110446 l -0.14989,1.049233 q -0.78101,0.189335 -1.36479,0.189335 z"
         style="font-style:italic;font-size:16.15660095px;line-height:1.25;-inkscape-font-specification:'Sans Italic';text-align:center;text-anchor:middle"
         id="path277"
         inkscape:connector-curvature="0" /><path
         d="m 568.78387,96.488629 q -0.56801,0 -1.04134,-0.110446 l 0.24455,-1.057121 q 0.35501,0.06311 0.60745,0.06311 0.74946,0 1.31746,-0.504894 0.5759,-0.504894 1.12812,-1.467348 l 0.21301,-0.370781 -1.71191,-8.441193 h 1.44368 l 0.88356,4.717601 q 0.11834,0.631117 0.2209,1.349013 0.10255,0.710007 0.11044,0.923009 0.0789,-0.173557 0.20511,-0.426004 0.12623,-0.252447 3.57371,-6.563619 h 1.5699 l -4.93849,8.53586 q -0.87568,1.522571 -1.41213,2.130021 -0.52856,0.615339 -1.11234,0.91512 -0.5759,0.30767 -1.30168,0.30767 z"
         style="font-style:italic;font-size:16.15660095px;line-height:1.25;-inkscape-font-specification:'Sans Italic';text-align:center;text-anchor:middle"
         id="path279"
         inkscape:connector-curvature="0" /><path
         d="m 585.20869,87.747655 q 0,1.025566 -0.31555,2.13791 -0.31556,1.104455 -0.90723,1.877574 -0.58379,0.765229 -1.4358,1.151788 -0.852,0.378671 -1.94068,0.378671 -1.54624,0 -2.44558,-0.930898 -0.89934,-0.930898 -0.89934,-2.532358 0.0316,-1.609349 0.58378,-2.855805 0.55223,-1.246457 1.53046,-1.885463 0.97823,-0.639006 2.42191,-0.639006 1.65668,0 2.53236,0.867786 0.87567,0.859897 0.87567,2.429801 z m -1.46734,0 q 0,-2.256244 -1.95647,-2.256244 -1.06501,0 -1.7119,0.552228 -0.63901,0.544338 -0.99401,1.656682 -0.355,1.112344 -0.355,2.153688 0,1.167567 0.50489,1.782906 0.50489,0.60745 1.46735,0.60745 0.81256,0 1.30168,-0.268224 0.497,-0.276114 0.86778,-0.852009 0.37078,-0.583783 0.59956,-1.483125 0.23667,-0.899342 0.27612,-1.893352 z"
         style="font-style:italic;font-size:16.15660095px;line-height:1.25;-inkscape-font-specification:'Sans Italic';text-align:center;text-anchor:middle"
         id="path281"
         inkscape:connector-curvature="0" /><path
         d="m 588.9954,84.599958 -0.99401,5.088383 q -0.142,0.694229 -0.142,1.183344 0,1.317458 1.41212,1.317458 0.99401,0 1.75135,-0.757341 0.75734,-0.757341 1.00979,-2.051131 l 0.9309,-4.780713 h 1.42001 l -1.30957,6.713509 q -0.15778,0.749452 -0.30767,1.822351 h -1.34112 q 0,-0.08678 0.0789,-0.60745 0.0868,-0.528561 0.142,-0.852008 h -0.0237 q -0.65478,0.907231 -1.31745,1.262234 -0.65479,0.347115 -1.56202,0.347115 -1.16757,0 -1.75924,-0.575895 -0.58378,-0.575894 -0.58378,-1.664571 0,-0.504894 0.16567,-1.293791 l 1.00189,-5.151494 z"
         style="font-style:italic;font-size:16.15660095px;line-height:1.25;-inkscape-font-specification:'Sans Italic';text-align:center;text-anchor:middle"
         id="path283"
         inkscape:connector-curvature="0" /><path
         d="m 541.31844,113.33157 2.15368,-11.11555 h 1.5068 l -1.91702,9.88487 h 5.61694 l -0.23667,1.23068 z"
         style="font-style:italic;font-size:16.15660095px;line-height:1.25;-inkscape-font-specification:'Sans Italic';text-align:center;text-anchor:middle"
         id="path285"
         inkscape:connector-curvature="0" /><path
         d="m 557.20681,102.05035 q 2.18525,0 3.44748,1.23857 1.27012,1.23856 1.27012,3.32914 -0.0394,2.11424 -0.88356,3.66048 -0.84412,1.53835 -2.31147,2.37458 -1.46734,0.83623 -3.32914,0.83623 -2.24047,0 -3.47903,-1.23857 -1.23857,-1.24646 -1.23857,-3.43959 0,-1.88546 0.82834,-3.46325 0.83623,-1.58569 2.32724,-2.43769 1.49102,-0.8599 3.36859,-0.8599 z m -0.071,1.2149 q -1.57779,0 -2.68225,0.70212 -1.09656,0.70212 -1.68035,2.09846 -0.58378,1.39635 -0.58378,2.82425 0,1.6488 0.83623,2.51658 0.84412,0.8599 2.44558,0.8599 1.55413,0 2.6428,-0.67845 1.09657,-0.68634 1.69613,-2.05113 0.60745,-1.36479 0.60745,-2.88736 0,-1.63302 -0.8599,-2.50869 -0.852,-0.87568 -2.42191,-0.87568 z"
         style="font-style:italic;font-size:16.15660095px;line-height:1.25;-inkscape-font-specification:'Sans Italic';text-align:center;text-anchor:middle"
         id="path287"
         inkscape:connector-curvature="0" /><path
         d="m 567.71492,113.33157 h -1.56202 l -2.38247,-11.11555 h 1.53046 l 1.56202,7.82585 0.27611,1.96435 1.04923,-1.96435 4.5756,-7.82585 h 1.64091 z"
         style="font-style:italic;font-size:16.15660095px;line-height:1.25;-inkscape-font-specification:'Sans Italic';text-align:center;text-anchor:middle"
         id="path289"
         inkscape:connector-curvature="0" /><path
         d="m 573.64742,113.33157 2.15368,-11.11555 h 8.27553 l -0.23667,1.23068 h -6.76873 l -0.69423,3.56581 h 6.29539 l -0.23667,1.2149 h -6.29539 l -0.74945,3.87348 h 7.09218 l -0.23667,1.23068 z"
         style="font-style:italic;font-size:16.15660095px;line-height:1.25;-inkscape-font-specification:'Sans Italic';text-align:center;text-anchor:middle"
         id="path291"
         inkscape:connector-curvature="0" /></g><g
       transform="translate(-365.30701)"
       aria-label="  what you are GOOD AT"
       id="text3989-3-5"
       style="font-size:38.77590179px;line-height:0%;font-family:'Liberation Sans';letter-spacing:0px;word-spacing:0px;fill:#008000;stroke-width:3.23132992"><path
         d="m 431.69441,198.26039 h -1.6488 l -0.29189,-5.5065 -0.0473,-1.86179 q -0.23667,0.59167 -0.42601,1.04134 -0.18933,0.44178 -2.84002,6.32695 h -1.64091 l -0.72578,-8.53586 h 1.40423 l 0.31556,5.79839 0.0552,1.56201 0.63901,-1.4989 2.69014,-5.8615 h 1.52257 l 0.34711,5.8615 q 0.0473,0.85201 0.0473,1.4989 0.26033,-0.62322 3.32125,-7.3604 h 1.38846 z"
         style="font-style:italic;font-size:16.15660095px;line-height:1.25;-inkscape-font-specification:'Sans Italic';text-align:center;text-anchor:middle"
         id="path294"
         inkscape:connector-curvature="0" /><path
         d="m 437.95825,191.18399 q 0.65478,-0.90723 1.30956,-1.25435 0.66268,-0.355 1.56991,-0.355 1.16757,0 1.75135,0.57589 0.59167,0.5759 0.59167,1.66458 0,0.50489 -0.16567,1.29379 l -1.0019,5.15149 h -1.4279 l 0.99401,-5.08838 q 0.142,-0.69423 0.142,-1.18335 0,-1.31745 -1.41212,-1.31745 -0.99401,0 -1.75135,0.75734 -0.75734,0.75734 -1.00979,2.05113 l -0.9309,4.78071 H 435.205 l 2.27202,-11.70722 h 1.42001 l -0.59167,3.04514 q -0.142,0.78889 -0.37078,1.58568 z"
         style="font-style:italic;font-size:16.15660095px;line-height:1.25;-inkscape-font-specification:'Sans Italic';text-align:center;text-anchor:middle"
         id="path296"
         inkscape:connector-curvature="0" /><path
         d="m 451.23538,198.33928 q -0.73368,0 -1.0729,-0.29978 -0.33134,-0.30767 -0.33134,-0.90723 l 0.0394,-0.5049 h -0.0473 q -0.65478,0.99401 -1.3569,1.39635 -0.70212,0.39445 -1.69613,0.39445 -1.10445,0 -1.79868,-0.66267 -0.68634,-0.66268 -0.68634,-1.68824 0,-1.45946 1.04134,-2.20891 1.04923,-0.74945 3.33703,-0.78101 l 1.83024,-0.0237 q 0.14989,-0.77312 0.14989,-1.0019 0,-0.71789 -0.41811,-1.05712 -0.41812,-0.34711 -1.15968,-0.34711 -0.93879,0 -1.42001,0.33922 -0.48123,0.33134 -0.69423,1.01768 l -1.40424,-0.22878 q 0.35501,-1.15968 1.23068,-1.68035 0.88356,-0.52856 2.36669,-0.52856 1.34901,0 2.13002,0.63112 0.7889,0.63111 0.7889,1.69613 0,0.50489 -0.14989,1.23856 l -0.58379,2.98203 q -0.0868,0.37867 -0.0868,0.69423 0,0.5759 0.639,0.5759 0.213,0 0.47334,-0.0552 l -0.11045,0.88357 q -0.52067,0.12622 -1.00978,0.12622 z m -0.9309,-4.30738 -1.56991,0.0316 q -0.93878,0.0237 -1.47523,0.17356 -0.53645,0.142 -0.83623,0.37078 -0.29189,0.22089 -0.46545,0.568 -0.16567,0.33923 -0.16567,0.82835 0,0.59167 0.37867,0.96245 0.38656,0.37078 0.99401,0.37078 0.76523,0 1.38057,-0.32345 0.61534,-0.33133 1.01768,-0.85989 0.40233,-0.52856 0.52856,-1.13601 z"
         style="font-style:italic;font-size:16.15660095px;line-height:1.25;-inkscape-font-specification:'Sans Italic';text-align:center;text-anchor:middle"
         id="path298"
         inkscape:connector-curvature="0" /><path
         d="m 455.0773,198.41817 q -0.67056,0 -1.05712,-0.40234 -0.37867,-0.40233 -0.37867,-1.06501 0,-0.43389 0.11833,-1.02556 l 0.99401,-5.16728 h -0.98612 l 0.20512,-1.03345 h 1.0019 l 0.82834,-1.90913 h 0.94667 l -0.37078,1.90913 h 1.57779 l -0.20511,1.03345 h -1.57779 l -0.98612,5.08839 q -0.0947,0.47333 -0.0947,0.74945 0,0.69423 0.71001,0.69423 0.33133,0 0.78889,-0.11045 l -0.14989,1.04923 q -0.781,0.18934 -1.36479,0.18934 z"
         style="font-style:italic;font-size:16.15660095px;line-height:1.25;-inkscape-font-specification:'Sans Italic';text-align:center;text-anchor:middle"
         id="path300"
         inkscape:connector-curvature="0" /><path
         d="m 413.51429,221.91706 q -0.56801,0 -1.04135,-0.11044 l 0.24456,-1.05712 q 0.35501,0.0631 0.60745,0.0631 0.74945,0 1.31746,-0.5049 0.57589,-0.50489 1.12812,-1.46734 l 0.213,-0.37078 -1.7119,-8.4412 h 1.44368 l 0.88356,4.7176 q 0.11834,0.63112 0.22089,1.34902 0.10256,0.71 0.11045,0.92301 0.0789,-0.17356 0.20511,-0.42601 0.12623,-0.25245 3.5737,-6.56362 h 1.56991 l -4.93849,8.53586 q -0.87568,1.52257 -1.41213,2.13002 -0.52856,0.61534 -1.11234,0.91512 -0.5759,0.30767 -1.30168,0.30767 z"
         style="font-style:italic;font-size:16.15660095px;line-height:1.25;-inkscape-font-specification:'Sans Italic';text-align:center;text-anchor:middle"
         id="path302"
         inkscape:connector-curvature="0" /><path
         d="m 429.93911,213.17609 q 0,1.02557 -0.31556,2.13791 -0.31555,1.10445 -0.90723,1.87757 -0.58378,0.76523 -1.43579,1.15179 -0.85201,0.37867 -1.94068,0.37867 -1.54624,0 -2.44558,-0.9309 -0.89935,-0.93089 -0.89935,-2.53235 0.0316,-1.60935 0.58379,-2.85581 0.55223,-1.24646 1.53046,-1.88546 0.97823,-0.63901 2.42191,-0.63901 1.65668,0 2.53236,0.86779 0.87567,0.8599 0.87567,2.4298 z m -1.46734,0 q 0,-2.25624 -1.95647,-2.25624 -1.06501,0 -1.7119,0.55222 -0.63901,0.54434 -0.99401,1.65669 -0.35501,1.11234 -0.35501,2.15368 0,1.16757 0.5049,1.78291 0.50489,0.60745 1.46734,0.60745 0.81257,0 1.30168,-0.26823 0.49701,-0.27611 0.86779,-0.852 0.37078,-0.58379 0.59956,-1.48313 0.23667,-0.89934 0.27612,-1.89335 z"
         style="font-style:italic;font-size:16.15660095px;line-height:1.25;-inkscape-font-specification:'Sans Italic';text-align:center;text-anchor:middle"
         id="path304"
         inkscape:connector-curvature="0" /><path
         d="m 433.72582,210.02839 -0.99401,5.08838 q -0.14201,0.69423 -0.14201,1.18335 0,1.31746 1.41213,1.31746 0.99401,0 1.75135,-0.75734 0.75734,-0.75734 1.00979,-2.05113 l 0.9309,-4.78072 h 1.42001 l -1.30957,6.71351 q -0.15778,0.74945 -0.30767,1.82235 h -1.34112 q 0,-0.0868 0.0789,-0.60745 0.0868,-0.52856 0.142,-0.85201 h -0.0237 q -0.65478,0.90724 -1.31746,1.26224 -0.65478,0.34711 -1.56201,0.34711 -1.16757,0 -1.75924,-0.57589 -0.58378,-0.5759 -0.58378,-1.66457 0,-0.5049 0.16566,-1.29379 l 1.0019,-5.1515 z"
         style="font-style:italic;font-size:16.15660095px;line-height:1.25;-inkscape-font-specification:'Sans Italic';text-align:center;text-anchor:middle"
         id="path306"
         inkscape:connector-curvature="0" /><path
         d="m 451.23932,218.64314 q -0.73367,0 -1.0729,-0.29978 -0.33134,-0.30767 -0.33134,-0.90723 l 0.0394,-0.50489 h -0.0473 q -0.65478,0.99401 -1.3569,1.39634 -0.70212,0.39445 -1.69612,0.39445 -1.10446,0 -1.79869,-0.66267 -0.68634,-0.66267 -0.68634,-1.68824 0,-1.45946 1.04134,-2.20891 1.04924,-0.74945 3.33704,-0.78101 l 1.83024,-0.0237 q 0.14989,-0.77312 0.14989,-1.0019 0,-0.7179 -0.41812,-1.05712 -0.41811,-0.34712 -1.15968,-0.34712 -0.93878,0 -1.42001,0.33923 -0.48123,0.33133 -0.69423,1.01767 l -1.40423,-0.22878 q 0.355,-1.15967 1.23067,-1.68035 0.88357,-0.52856 2.36669,-0.52856 1.34902,0 2.13002,0.63112 0.7889,0.63112 0.7889,1.69613 0,0.50489 -0.14989,1.23857 l -0.58378,2.98202 q -0.0868,0.37867 -0.0868,0.69423 0,0.5759 0.639,0.5759 0.21301,0 0.47334,-0.0552 l -0.11044,0.88357 q -0.52067,0.12622 -1.00979,0.12622 z m -0.9309,-4.30737 -1.5699,0.0316 q -0.93879,0.0237 -1.47524,0.17356 -0.53645,0.142 -0.83623,0.37078 -0.29189,0.22089 -0.46545,0.56801 -0.16567,0.33922 -0.16567,0.82834 0,0.59167 0.37867,0.96245 0.38656,0.37078 0.99401,0.37078 0.76523,0 1.38057,-0.32344 0.61534,-0.33134 1.01768,-0.8599 0.40234,-0.52856 0.52856,-1.13601 z"
         style="font-style:italic;font-size:16.15660095px;line-height:1.25;-inkscape-font-specification:'Sans Italic';text-align:center;text-anchor:middle"
         id="path308"
         inkscape:connector-curvature="0" /><path
         d="m 458.57606,211.1644 q -0.34712,-0.10255 -0.71001,-0.10255 -0.82834,0 -1.4989,0.86778 -0.66268,0.86779 -0.89935,2.18525 l -0.86778,4.44937 H 453.18 l 1.27802,-6.54784 0.19722,-1.08868 0.142,-0.89934 h 1.34113 l -0.27612,1.74346 h 0.0316 q 0.52067,-1.04923 1.02556,-1.47523 0.5049,-0.42601 1.16757,-0.42601 0.36289,0 0.74945,0.11045 z"
         style="font-style:italic;font-size:16.15660095px;line-height:1.25;-inkscape-font-specification:'Sans Italic';text-align:center;text-anchor:middle"
         id="path310"
         inkscape:connector-curvature="0" /><path
         d="m 460.31163,214.5961 q -0.0473,0.27612 -0.071,0.89146 0,1.04923 0.52067,1.60935 0.52856,0.56011 1.58568,0.56011 0.76523,0 1.38846,-0.37867 0.62323,-0.37867 0.97034,-1.03345 l 1.08868,0.497 q -0.57589,1.03346 -1.46735,1.50679 -0.88356,0.47334 -2.14579,0.47334 -1.58569,0 -2.46925,-0.87567 -0.87568,-0.88357 -0.87568,-2.47714 0,-1.58568 0.56012,-2.84003 0.56012,-1.26223 1.57779,-1.95646 1.01768,-0.70212 2.2878,-0.70212 1.61724,0 2.51658,0.81257 0.89935,0.81256 0.89935,2.29569 0,0.82834 -0.18934,1.61723 z m 4.92271,-1.08867 0.0316,-0.56801 q 0,-0.97823 -0.51278,-1.4989 -0.5049,-0.52067 -1.45946,-0.52067 -1.05712,0 -1.78291,0.67845 -0.71789,0.67056 -1.00978,1.90913 z"
         style="font-style:italic;font-size:16.15660095px;line-height:1.25;-inkscape-font-specification:'Sans Italic';text-align:center;text-anchor:middle"
         id="path312"
         inkscape:connector-curvature="0" /><path
         d="m 421.50186,239.02589 q -2.40613,0 -3.73148,-1.23067 -1.32534,-1.23068 -1.32534,-3.44748 0,-1.96435 0.82834,-3.51059 0.82834,-1.55413 2.34302,-2.39825 1.52257,-0.85201 3.47904,-0.85201 1.75135,0 2.87158,0.66268 1.12023,0.66267 1.55413,1.95646 l -1.52258,0.42601 q -0.29189,-0.90724 -1.05712,-1.35691 -0.76523,-0.45756 -1.94068,-0.45756 -1.51468,0 -2.65858,0.67845 -1.13601,0.67846 -1.74346,1.9328 -0.60746,1.24646 -0.60746,2.88736 0,1.66457 0.9309,2.57969 0.9309,0.90724 2.62703,0.90724 1.08868,0 2.08269,-0.30767 0.994,-0.31556 1.72768,-0.92301 l 0.40234,-2.0038 h -3.32126 l 0.25245,-1.26224 h 4.70971 l -0.7889,3.90504 q -1.10445,0.94668 -2.3588,1.38057 -1.24645,0.43389 -2.75325,0.43389 z"
         style="font-style:italic;font-size:16.15660095px;line-height:1.25;-inkscape-font-specification:'Sans Italic';text-align:center;text-anchor:middle"
         id="path314"
         inkscape:connector-curvature="0" /><path
         d="m 435.61522,227.58689 q 2.18525,0 3.44748,1.23857 1.27012,1.23857 1.27012,3.32915 -0.0394,2.11424 -0.88356,3.66048 -0.84412,1.53834 -2.31147,2.37457 -1.46734,0.83623 -3.32914,0.83623 -2.24047,0 -3.47903,-1.23856 -1.23857,-1.24646 -1.23857,-3.43959 0,-1.88546 0.82834,-3.46326 0.83623,-1.58568 2.32725,-2.43769 1.49101,-0.8599 3.36858,-0.8599 z m -0.071,1.21491 q -1.57779,0 -2.68225,0.70211 -1.09656,0.70212 -1.68035,2.09847 -0.58378,1.39635 -0.58378,2.82425 0,1.64879 0.83623,2.51658 0.84412,0.8599 2.44558,0.8599 1.55413,0 2.6428,-0.67846 1.09657,-0.68634 1.69613,-2.05113 0.60745,-1.36479 0.60745,-2.88736 0,-1.63301 -0.8599,-2.50869 -0.852,-0.87567 -2.42191,-0.87567 z"
         style="font-style:italic;font-size:16.15660095px;line-height:1.25;-inkscape-font-specification:'Sans Italic';text-align:center;text-anchor:middle"
         id="path316"
         inkscape:connector-curvature="0" /><path
         d="m 448.18234,227.58689 q 2.18525,0 3.44748,1.23857 1.27013,1.23857 1.27013,3.32915 -0.0394,2.11424 -0.88357,3.66048 -0.84412,1.53834 -2.31146,2.37457 -1.46735,0.83623 -3.32915,0.83623 -2.24046,0 -3.47903,-1.23856 -1.23857,-1.24646 -1.23857,-3.43959 0,-1.88546 0.82834,-3.46326 0.83623,-1.58568 2.32725,-2.43769 1.49101,-0.8599 3.36858,-0.8599 z m -0.071,1.21491 q -1.57779,0 -2.68224,0.70211 -1.09657,0.70212 -1.68035,2.09847 -0.58379,1.39635 -0.58379,2.82425 0,1.64879 0.83623,2.51658 0.84412,0.8599 2.44558,0.8599 1.55413,0 2.64281,-0.67846 1.09656,-0.68634 1.69612,-2.05113 0.60745,-1.36479 0.60745,-2.88736 0,-1.63301 -0.85989,-2.50869 -0.85201,-0.87567 -2.42192,-0.87567 z"
         style="font-style:italic;font-size:16.15660095px;line-height:1.25;-inkscape-font-specification:'Sans Italic';text-align:center;text-anchor:middle"
         id="path318"
         inkscape:connector-curvature="0" /><path
         d="m 459.21901,227.75256 q 2.46135,0 3.86559,1.30168 1.41212,1.29379 1.41212,3.5737 0,1.8618 -0.81256,3.25815 -0.81256,1.39634 -2.34302,2.19313 -1.52257,0.7889 -3.45537,0.7889 h -4.03915 l 2.15369,-11.11556 z m -3.63682,9.90854 h 2.24047 q 1.53835,0 2.7138,-0.60745 1.17546,-0.61534 1.79869,-1.75924 0.63111,-1.15178 0.63111,-2.68224 0,-1.72769 -0.99401,-2.69014 -0.99401,-0.96246 -2.7848,-0.96246 h -1.90913 z"
         style="font-style:italic;font-size:16.15660095px;line-height:1.25;-inkscape-font-specification:'Sans Italic';text-align:center;text-anchor:middle"
         id="path320"
         inkscape:connector-curvature="0" /><path
         d="m 438.97987,259.06387 -0.59168,-3.25026 h -5.04104 l -1.89336,3.25026 h -1.6409 l 6.68984,-11.11556 h 1.71191 l 2.30358,11.11556 z m -1.82235,-9.97954 q -0.10256,0.20511 -0.2919,0.54433 -0.18933,0.33923 -2.8558,5.0095 h 4.15748 l -0.80467,-4.3626 z"
         style="font-style:italic;font-size:16.15660095px;line-height:1.25;-inkscape-font-specification:'Sans Italic';text-align:center;text-anchor:middle"
         id="path322"
         inkscape:connector-curvature="0" /><path
         d="m 446.95561,249.17899 -1.92491,9.88488 h -1.4989 l 1.92491,-9.88488 h -3.81826 l 0.23667,-1.23068 h 9.13542 l -0.23667,1.23068 z"
         style="font-style:italic;font-size:16.15660095px;line-height:1.25;-inkscape-font-specification:'Sans Italic';text-align:center;text-anchor:middle"
         id="path324"
         inkscape:connector-curvature="0" /></g><g
       transform="translate(-365.30701)"
       aria-label="  what the World NEEDS"
       id="text3989-9-1"
       style="font-size:38.77590179px;line-height:0%;font-family:'Liberation Sans';letter-spacing:0px;word-spacing:0px;fill:#008000;stroke-width:3.23132992"><path
         d="m 674.50721,208.95965 h -1.64879 l -0.29189,-5.5065 -0.0473,-1.8618 q -0.23667,0.59167 -0.426,1.04135 -0.18934,0.44178 -2.84003,6.32695 h -1.6409 l -0.72579,-8.53586 h 1.40424 l 0.31556,5.79838 0.0552,1.56202 0.63901,-1.4989 2.69013,-5.8615 h 1.52257 l 0.34712,5.8615 q 0.0473,0.852 0.0473,1.4989 0.26034,-0.62323 3.32126,-7.3604 h 1.38845 z"
         style="font-style:italic;font-size:16.15660095px;line-height:108.00000429%;-inkscape-font-specification:'Sans Italic';text-align:center;text-anchor:middle"
         id="path327"
         inkscape:connector-curvature="0" /><path
         d="m 680.77105,201.88324 q 0.65479,-0.90723 1.30957,-1.25434 0.66267,-0.355 1.5699,-0.355 1.16757,0 1.75135,0.57589 0.59168,0.57589 0.59168,1.66457 0,0.50489 -0.16567,1.29379 l -1.0019,5.1515 h -1.4279 l 0.99401,-5.08839 q 0.142,-0.69423 0.142,-1.18334 0,-1.31746 -1.41213,-1.31746 -0.99401,0 -1.75135,0.75734 -0.75734,0.75734 -1.00978,2.05113 l -0.9309,4.78072 h -1.41213 l 2.27202,-11.70723 h 1.42002 l -0.59167,3.04514 q -0.14201,0.7889 -0.37079,1.58568 z"
         style="font-style:italic;font-size:16.15660095px;line-height:108.00000429%;-inkscape-font-specification:'Sans Italic';text-align:center;text-anchor:middle"
         id="path329"
         inkscape:connector-curvature="0" /><path
         d="m 694.04818,209.03854 q -0.73367,0 -1.0729,-0.29979 -0.33133,-0.30766 -0.33133,-0.90723 l 0.0394,-0.50489 h -0.0473 q -0.65479,0.99401 -1.35691,1.39635 -0.70211,0.39445 -1.69612,0.39445 -1.10446,0 -1.79869,-0.66268 -0.68634,-0.66267 -0.68634,-1.68824 0,-1.45946 1.04135,-2.20891 1.04923,-0.74945 3.33703,-0.781 l 1.83024,-0.0237 q 0.14989,-0.77312 0.14989,-1.0019 0,-0.7179 -0.41812,-1.05712 -0.41811,-0.34712 -1.15967,-0.34712 -0.93879,0 -1.42002,0.33923 -0.48122,0.33134 -0.69423,1.01768 l -1.40423,-0.22878 q 0.355,-1.15968 1.23068,-1.68035 0.88356,-0.52856 2.36669,-0.52856 1.34901,0 2.13002,0.63111 0.78889,0.63112 0.78889,1.69613 0,0.50489 -0.14989,1.23857 l -0.58378,2.98203 q -0.0868,0.37867 -0.0868,0.69423 0,0.57589 0.63901,0.57589 0.213,0 0.47333,-0.0552 l -0.11044,0.88356 q -0.52067,0.12623 -1.00979,0.12623 z m -0.9309,-4.30738 -1.5699,0.0316 q -0.93879,0.0237 -1.47524,0.17355 -0.53645,0.142 -0.83623,0.37078 -0.29189,0.2209 -0.46545,0.56801 -0.16566,0.33923 -0.16566,0.82834 0,0.59167 0.37867,0.96246 0.38656,0.37078 0.99401,0.37078 0.76522,0 1.38056,-0.32345 0.61534,-0.33134 1.01768,-0.8599 0.40234,-0.52856 0.52856,-1.13601 z"
         style="font-style:italic;font-size:16.15660095px;line-height:108.00000429%;-inkscape-font-specification:'Sans Italic';text-align:center;text-anchor:middle"
         id="path331"
         inkscape:connector-curvature="0" /><path
         d="m 697.89011,209.11743 q -0.67057,0 -1.05712,-0.40234 -0.37867,-0.40234 -0.37867,-1.06501 0,-0.4339 0.11833,-1.02557 l 0.99401,-5.16727 h -0.98612 l 0.20511,-1.03345 h 1.0019 l 0.82834,-1.90913 h 0.94668 l -0.37078,1.90913 h 1.57779 l -0.20511,1.03345 h -1.5778 l -0.98612,5.08838 q -0.0947,0.47334 -0.0947,0.74945 0,0.69423 0.71001,0.69423 0.33134,0 0.7889,-0.11044 l -0.14989,1.04923 q -0.78101,0.18934 -1.36479,0.18934 z"
         style="font-style:italic;font-size:16.15660095px;line-height:108.00000429%;-inkscape-font-specification:'Sans Italic';text-align:center;text-anchor:middle"
         id="path333"
         inkscape:connector-curvature="0" /><path
         d="m 650.74565,226.67467 q -0.67056,0 -1.05712,-0.40234 -0.37867,-0.40234 -0.37867,-1.06501 0,-0.43389 0.11833,-1.02557 l 0.99401,-5.16727 h -0.98612 l 0.20511,-1.03345 h 1.0019 l 0.82834,-1.90913 h 0.94668 l -0.37078,1.90913 h 1.57779 l -0.20511,1.03345 h -1.57779 l -0.98613,5.08838 q -0.0947,0.47334 -0.0947,0.74946 0,0.69422 0.71,0.69422 0.33134,0 0.7889,-0.11044 l -0.14989,1.04923 q -0.78101,0.18934 -1.36479,0.18934 z"
         style="font-style:italic;font-size:16.15660095px;line-height:108.00000429%;-inkscape-font-specification:'Sans Italic';text-align:center;text-anchor:middle"
         id="path335"
         inkscape:connector-curvature="0" /><path
         d="m 656.08648,219.44049 q 0.65478,-0.90724 1.30957,-1.25435 0.66267,-0.355 1.5699,-0.355 1.16757,0 1.75135,0.57589 0.59167,0.5759 0.59167,1.66457 0,0.5049 -0.16566,1.29379 l -1.0019,5.1515 h -1.42791 l 0.99401,-5.08839 q 0.14201,-0.69422 0.14201,-1.18334 0,-1.31746 -1.41213,-1.31746 -0.99401,0 -1.75135,0.75734 -0.75734,0.75734 -1.00979,2.05113 l -0.9309,4.78072 h -1.41212 l 2.27202,-11.70723 h 1.42002 l -0.59168,3.04514 q -0.142,0.7889 -0.37078,1.58569 z"
         style="font-style:italic;font-size:16.15660095px;line-height:108.00000429%;-inkscape-font-specification:'Sans Italic';text-align:center;text-anchor:middle"
         id="path337"
         inkscape:connector-curvature="0" /><path
         d="m 664.07011,222.54874 q -0.0473,0.27611 -0.071,0.89145 0,1.04923 0.52067,1.60935 0.52856,0.56012 1.58568,0.56012 0.76523,0 1.38846,-0.37867 0.62323,-0.37867 0.97035,-1.03346 l 1.08867,0.49701 q -0.57589,1.03345 -1.46734,1.50679 -0.88357,0.47334 -2.1458,0.47334 -1.58569,0 -2.46925,-0.87568 -0.87567,-0.88356 -0.87567,-2.47713 0,-1.58569 0.56011,-2.84003 0.56012,-1.26224 1.57779,-1.95646 1.01768,-0.70212 2.2878,-0.70212 1.61724,0 2.51658,0.81256 0.89935,0.81256 0.89935,2.29569 0,0.82834 -0.18934,1.61724 z m 4.92272,-1.08868 0.0315,-0.56801 q 0,-0.97823 -0.51278,-1.4989 -0.50489,-0.52067 -1.45946,-0.52067 -1.05712,0 -1.78291,0.67845 -0.71789,0.67056 -1.00978,1.90913 z"
         style="font-style:italic;font-size:16.15660095px;line-height:108.00000429%;-inkscape-font-specification:'Sans Italic';text-align:center;text-anchor:middle"
         id="path339"
         inkscape:connector-curvature="0" /><path
         d="m 686.61677,226.51689 h -1.75923 l -0.56012,-7.06063 q -0.11045,-2.16946 -0.12622,-2.55602 -0.59957,1.5699 -1.06501,2.55602 l -3.30548,7.06063 h -1.75924 l -1.12023,-11.11556 h 1.55412 l 0.62323,7.06063 q 0.0947,1.22279 0.12622,2.72958 0.62323,-1.48312 1.02557,-2.38247 0.41023,-0.89934 3.5027,-7.40774 h 1.44368 l 0.59167,6.91863 q 0.11045,1.2149 0.13412,2.87158 l 0.12622,-0.27611 q 0.37867,-0.90723 0.61534,-1.45157 0.23667,-0.54434 3.79459,-8.06253 h 1.58568 z"
         style="font-style:italic;font-size:16.15660095px;line-height:108.00000429%;-inkscape-font-specification:'Sans Italic';text-align:center;text-anchor:middle"
         id="path341"
         inkscape:connector-curvature="0" /><path
         d="m 699.24701,221.12872 q 0,1.02557 -0.31556,2.13791 -0.31556,1.10446 -0.90723,1.87758 -0.58379,0.76523 -1.43579,1.15179 -0.85201,0.37867 -1.94069,0.37867 -1.54624,0 -2.44558,-0.9309 -0.89934,-0.9309 -0.89934,-2.53236 0.0316,-1.60935 0.58378,-2.8558 0.55223,-1.24646 1.53046,-1.88547 0.97823,-0.639 2.42191,-0.639 1.65669,0 2.53236,0.86778 0.87568,0.8599 0.87568,2.4298 z m -1.46735,0 q 0,-2.25624 -1.95646,-2.25624 -1.06501,0 -1.71191,0.55223 -0.63901,0.54434 -0.99401,1.65668 -0.355,1.11234 -0.355,2.15369 0,1.16756 0.50489,1.7829 0.5049,0.60745 1.46735,0.60745 0.81256,0 1.30168,-0.26822 0.497,-0.27611 0.86778,-0.85201 0.37079,-0.58378 0.59957,-1.48312 0.23666,-0.89935 0.27611,-1.89336 z"
         style="font-style:italic;font-size:16.15660095px;line-height:108.00000429%;-inkscape-font-specification:'Sans Italic';text-align:center;text-anchor:middle"
         id="path343"
         inkscape:connector-curvature="0" /><path
         d="m 705.42407,219.11704 q -0.34711,-0.10256 -0.71001,-0.10256 -0.82834,0 -1.4989,0.86779 -0.66267,0.86778 -0.89934,2.18524 l -0.86779,4.44938 h -1.42001 l 1.27801,-6.54784 0.19722,-1.08868 0.14201,-0.89934 h 1.34112 l -0.27611,1.74346 h 0.0315 q 0.52067,-1.04923 1.02557,-1.47524 0.50489,-0.426 1.16756,-0.426 0.3629,0 0.74946,0.11044 z"
         style="font-style:italic;font-size:16.15660095px;line-height:108.00000429%;-inkscape-font-specification:'Sans Italic';text-align:center;text-anchor:middle"
         id="path345"
         inkscape:connector-curvature="0" /><path
         d="m 705.4004,226.51689 2.27202,-11.70723 h 1.42002 l -2.27991,11.70723 z"
         style="font-style:italic;font-size:16.15660095px;line-height:108.00000429%;-inkscape-font-specification:'Sans Italic';text-align:center;text-anchor:middle"
         id="path347"
         inkscape:connector-curvature="0" /><path
         d="m 711.89302,226.68256 q -1.23857,0 -1.9328,-0.74157 -0.68634,-0.74945 -0.68634,-2.05113 0,-1.60146 0.48123,-3.10036 0.48912,-1.50679 1.36479,-2.23258 0.88357,-0.72578 2.24836,-0.72578 0.97034,0 1.57779,0.41022 0.61534,0.41023 0.86779,1.15179 h 0.0394 l 0.22089,-1.27801 0.6469,-3.30548 h 1.42001 l -1.93279,9.94799 q -0.22878,1.11234 -0.29979,1.75924 h -1.3569 q 0,-0.40234 0.16567,-1.26224 h -0.0394 q -0.5759,0.74945 -1.2149,1.08868 -0.63901,0.33923 -1.56991,0.33923 z m 0.41023,-1.09657 q 0.78101,0 1.33323,-0.31556 0.56012,-0.32345 0.94668,-0.96245 0.38656,-0.6469 0.60745,-1.60935 0.22089,-0.97034 0.22089,-1.73557 0,-0.98613 -0.50489,-1.53046 -0.49701,-0.55223 -1.38846,-0.55223 -0.96246,0 -1.52257,0.57589 -0.56012,0.56801 -0.89934,1.86969 -0.33923,1.29379 -0.33923,2.31146 0,0.97035 0.37078,1.45946 0.37078,0.48912 1.17546,0.48912 z"
         style="font-style:italic;font-size:16.15660095px;line-height:108.00000429%;-inkscape-font-specification:'Sans Italic';text-align:center;text-anchor:middle"
         id="path349"
         inkscape:connector-curvature="0" /><path
         d="m 663.09977,243.96602 -4.18904,-9.54565 q -0.17356,1.34901 -0.33134,2.10635 l -1.4279,7.4393 h -1.34112 l 2.15368,-11.11556 h 1.67246 l 4.21271,9.5851 q 0.20511,-1.49102 0.355,-2.24047 l 1.42791,-7.34463 h 1.3569 l -2.15369,11.11556 z"
         style="font-style:italic;font-size:16.15660095px;line-height:108.00000429%;-inkscape-font-specification:'Sans Italic';text-align:center;text-anchor:middle"
         id="path351"
         inkscape:connector-curvature="0" /><path
         d="m 667.47815,243.96602 2.15368,-11.11556 h 8.27553 l -0.23667,1.23068 h -6.76873 l -0.69423,3.56582 h 6.29539 l -0.23667,1.2149 h -6.29539 l -0.74945,3.87348 h 7.09218 l -0.23667,1.23068 z"
         style="font-style:italic;font-size:16.15660095px;line-height:108.00000429%;-inkscape-font-specification:'Sans Italic';text-align:center;text-anchor:middle"
         id="path353"
         inkscape:connector-curvature="0" /><path
         d="m 678.25447,243.96602 2.15369,-11.11556 h 8.27552 l -0.23666,1.23068 h -6.76874 l -0.69423,3.56582 h 6.2954 l -0.23667,1.2149 h -6.29539 l -0.74946,3.87348 h 7.09218 l -0.23667,1.23068 z"
         style="font-style:italic;font-size:16.15660095px;line-height:108.00000429%;-inkscape-font-specification:'Sans Italic';text-align:center;text-anchor:middle"
         id="path355"
         inkscape:connector-curvature="0" /><path
         d="m 694.40318,232.85046 q 2.46136,0 3.8656,1.30168 1.41212,1.29379 1.41212,3.57371 0,1.86179 -0.81256,3.25814 -0.81257,1.39634 -2.34303,2.19313 -1.52257,0.7889 -3.45536,0.7889 h -4.03915 l 2.15368,-11.11556 z m -3.63681,9.90854 h 2.24047 q 1.53834,0 2.7138,-0.60745 1.17546,-0.61533 1.79868,-1.75923 0.63112,-1.15179 0.63112,-2.68225 0,-1.72769 -0.99401,-2.69014 -0.99401,-0.96245 -2.7848,-0.96245 h -1.90913 z"
         style="font-style:italic;font-size:16.15660095px;line-height:108.00000429%;-inkscape-font-specification:'Sans Italic';text-align:center;text-anchor:middle"
         id="path357"
         inkscape:connector-curvature="0" /><path
         d="m 705.06118,244.1238 q -1.96436,0 -3.05303,-0.69423 -1.08079,-0.70212 -1.34902,-2.13002 l 1.39635,-0.2919 q 0.213,1.01768 0.94668,1.47524 0.73367,0.45756 2.16946,0.45756 1.72769,0 2.52447,-0.51278 0.79679,-0.52067 0.79679,-1.58568 0,-0.52856 -0.22878,-0.84412 -0.22878,-0.32345 -0.78101,-0.5759 -0.55223,-0.26033 -1.90124,-0.639 -1.34901,-0.37078 -2.01958,-0.75734 -0.66267,-0.39445 -1.00978,-0.94668 -0.33923,-0.55223 -0.33923,-1.32535 0,-1.43579 1.20701,-2.24835 1.2149,-0.82045 3.28181,-0.82045 1.73557,0 2.78481,0.59956 1.04923,0.59956 1.31745,1.75135 l -1.36479,0.40234 q -0.26033,-0.82835 -0.93878,-1.22279 -0.67057,-0.39445 -1.80658,-0.39445 -2.96625,0 -2.96625,1.86179 0,0.47334 0.19723,0.77312 0.20511,0.29978 0.66267,0.52856 0.46545,0.22089 1.83813,0.59167 1.53835,0.42601 2.20891,0.82046 0.67845,0.39445 1.03345,0.96245 0.3629,0.56012 0.3629,1.38846 0,1.62513 -1.22279,2.5008 -1.22279,0.87568 -3.74726,0.87568 z"
         style="font-style:italic;font-size:16.15660095px;line-height:108.00000429%;-inkscape-font-specification:'Sans Italic';text-align:center;text-anchor:middle"
         id="path359"
         inkscape:connector-curvature="0" /></g><g
       aria-label="what you can be PAID FOR"
       transform="matrix(1.0199729,0,0,0.98041821,-365.30701,0)"
       id="text3989-8-7"
       style="font-size:38.77590179px;line-height:0%;font-family:'Liberation Sans';letter-spacing:0px;word-spacing:0px;fill:#008000;stroke-width:3.23132992"><path
         d="m 538.42531,334.24084 h -1.68172 l -0.29772,-5.61648 -0.0483,-1.89898 q -0.2414,0.60349 -0.43452,1.06215 -0.19311,0.4506 -2.89675,6.45331 h -1.67368 l -0.74028,-8.70634 h 1.43229 l 0.32186,5.9142 0.0563,1.59321 0.65177,-1.52884 2.74387,-5.97857 h 1.55298 l 0.35405,5.97857 q 0.0483,0.86903 0.0483,1.52884 0.26553,-0.63567 3.38759,-7.50741 h 1.41619 z"
         style="font-style:italic;font-size:16.47929955px;line-height:105.99999428%;-inkscape-font-specification:'Sans Italic';text-align:center;text-anchor:middle"
         id="path362"
         inkscape:connector-curvature="0" /><path
         d="m 544.81426,327.0231 q 0.66786,-0.92535 1.33573,-1.27939 0.6759,-0.3621 1.60126,-0.3621 1.19088,0 1.78633,0.5874 0.60349,0.5874 0.60349,1.69782 0,0.51498 -0.16898,1.31963 l -1.02191,5.25438 h -1.45642 l 1.01386,-5.19001 q 0.14484,-0.70809 0.14484,-1.20698 0,-1.34377 -1.44033,-1.34377 -1.01387,0 -1.78633,0.77247 -0.77247,0.77246 -1.02996,2.0921 l -0.94949,4.87619 h -1.44033 l 2.3174,-11.94105 h 1.44838 l -0.60349,3.10596 q -0.14484,0.80465 -0.37819,1.61735 z"
         style="font-style:italic;font-size:16.47929955px;line-height:105.99999428%;-inkscape-font-specification:'Sans Italic';text-align:center;text-anchor:middle"
         id="path364"
         inkscape:connector-curvature="0" /><path
         d="m 558.35657,334.32131 q -0.74832,0 -1.09432,-0.30577 -0.33796,-0.31381 -0.33796,-0.92535 l 0.0402,-0.51498 h -0.0483 q -0.66787,1.01387 -1.38401,1.42424 -0.71614,0.40233 -1.73,0.40233 -1.12652,0 -1.83461,-0.67591 -0.70005,-0.67591 -0.70005,-1.72196 0,-1.48861 1.06214,-2.25303 1.07019,-0.76442 3.40369,-0.79661 l 1.86679,-0.0241 q 0.15288,-0.78856 0.15288,-1.02191 0,-0.73223 -0.42646,-1.07823 -0.42647,-0.35405 -1.18284,-0.35405 -0.95754,0 -1.44838,0.346 -0.49084,0.33796 -0.70809,1.038 l -1.43229,-0.23335 q 0.3621,-1.18284 1.25526,-1.71391 0.90122,-0.53911 2.41396,-0.53911 1.37596,0 2.17257,0.64372 0.80465,0.64372 0.80465,1.73 0,0.51498 -0.15288,1.26331 l -0.59545,3.04159 q -0.0885,0.38623 -0.0885,0.70809 0,0.5874 0.65177,0.5874 0.21726,0 0.48279,-0.0563 l -0.11265,0.90122 q -0.53107,0.12874 -1.02996,0.12874 z m -0.94949,-4.39341 -1.60126,0.0322 q -0.95753,0.0241 -1.5047,0.17702 -0.54716,0.14484 -0.85293,0.37819 -0.29772,0.2253 -0.47475,0.57935 -0.16897,0.346 -0.16897,0.84489 0,0.60349 0.38623,0.98167 0.39428,0.37819 1.01386,0.37819 0.78052,0 1.40815,-0.32991 0.62763,-0.33795 1.038,-0.87707 0.41037,-0.53912 0.53912,-1.1587 z"
         style="font-style:italic;font-size:16.47929955px;line-height:105.99999428%;-inkscape-font-specification:'Sans Italic';text-align:center;text-anchor:middle"
         id="path366"
         inkscape:connector-curvature="0" /><path
         d="m 562.27524,334.40178 q -0.68396,0 -1.07824,-0.41038 -0.38623,-0.41037 -0.38623,-1.08628 0,-0.44256 0.1207,-1.04605 l 1.01386,-5.27048 h -1.00582 l 0.20921,-1.05409 h 1.02191 l 0.84489,-1.94726 h 0.96558 l -0.37819,1.94726 h 1.60931 l -0.20921,1.05409 h -1.60931 l -1.00581,5.19002 q -0.0966,0.48279 -0.0966,0.76442 0,0.70809 0.72419,0.70809 0.33795,0 0.80465,-0.11265 l -0.15288,1.07019 q -0.79661,0.19312 -1.39205,0.19312 z"
         style="font-style:italic;font-size:16.47929955px;line-height:105.99999428%;-inkscape-font-specification:'Sans Italic';text-align:center;text-anchor:middle"
         id="path368"
         inkscape:connector-curvature="0" /><path
         d="m 507.05188,355.23895 q -0.57935,0 -1.06214,-0.11265 l 0.24944,-1.07824 q 0.3621,0.0644 0.61958,0.0644 0.76443,0 1.34378,-0.51497 0.58739,-0.51498 1.15065,-1.49666 l 0.21726,-0.37819 -1.7461,-8.60979 h 1.47251 l 0.90122,4.81183 q 0.12069,0.64372 0.2253,1.37596 0.1046,0.72419 0.11265,0.94144 0.0805,-0.17702 0.20921,-0.43451 0.12874,-0.25749 3.64508,-6.69472 h 1.60126 l -5.03713,8.70635 q -0.89317,1.55298 -1.44033,2.17257 -0.53912,0.62763 -1.13456,0.93339 -0.5874,0.31382 -1.32768,0.31382 z"
         style="font-style:italic;font-size:16.47929955px;line-height:105.99999428%;-inkscape-font-specification:'Sans Italic';text-align:center;text-anchor:middle"
         id="path370"
         inkscape:connector-curvature="0" /><path
         d="m 523.80476,346.32339 q 0,1.04605 -0.32186,2.18061 -0.32186,1.12652 -0.92535,1.91508 -0.59544,0.78051 -1.46447,1.17479 -0.86902,0.38623 -1.97945,0.38623 -1.57712,0 -2.49442,-0.94949 -0.91731,-0.94949 -0.91731,-2.58294 0.0322,-1.64149 0.59545,-2.91284 0.56326,-1.27135 1.56103,-1.92312 0.99777,-0.65177 2.47028,-0.65177 1.68977,0 2.58294,0.88512 0.89316,0.87707 0.89316,2.47833 z m -1.49665,0 q 0,-2.30131 -1.99554,-2.30131 -1.08628,0 -1.7461,0.56326 -0.65177,0.55521 -1.01386,1.68977 -0.3621,1.13456 -0.3621,2.1967 0,1.19089 0.51498,1.81852 0.51498,0.61958 1.49666,0.61958 0.82879,0 1.32767,-0.27358 0.50694,-0.28163 0.88512,-0.86902 0.37819,-0.59545 0.61154,-1.51275 0.2414,-0.91731 0.28163,-1.93117 z"
         style="font-style:italic;font-size:16.47929955px;line-height:105.99999428%;-inkscape-font-specification:'Sans Italic';text-align:center;text-anchor:middle"
         id="path372"
         inkscape:connector-curvature="0" /><path
         d="m 527.6671,343.11282 -1.01386,5.19002 q -0.14484,0.70809 -0.14484,1.20698 0,1.34377 1.44033,1.34377 1.01386,0 1.78633,-0.77247 0.77247,-0.77247 1.02995,-2.0921 l 0.9495,-4.8762 h 1.44837 l -1.33572,6.8476 q -0.16093,0.76442 -0.31382,1.85875 h -1.36791 q 0,-0.0885 0.0805,-0.61958 0.0885,-0.53912 0.14483,-0.86903 h -0.0241 q -0.66787,0.92535 -1.34378,1.28745 -0.66786,0.35405 -1.59321,0.35405 -1.19089,0 -1.79438,-0.5874 -0.59544,-0.5874 -0.59544,-1.69782 0,-0.51498 0.16898,-1.31963 l 1.02191,-5.25439 z"
         style="font-style:italic;font-size:16.47929955px;line-height:105.99999428%;-inkscape-font-specification:'Sans Italic';text-align:center;text-anchor:middle"
         id="path374"
         inkscape:connector-curvature="0" /><path
         d="m 541.84509,350.83749 q 1.64954,0 2.32545,-1.8507 l 1.25526,0.39428 q -0.97363,2.59903 -3.6129,2.59903 -1.54493,0 -2.37372,-0.87707 -0.8288,-0.87707 -0.8288,-2.46224 0,-1.60931 0.57935,-2.99331 0.5874,-1.384 1.54494,-2.03577 0.96558,-0.65982 2.36568,-0.65982 1.35986,0 2.14842,0.68396 0.79661,0.68395 0.87707,1.87484 l -1.42423,0.20116 q -0.0483,-0.78051 -0.48279,-1.19893 -0.43452,-0.42647 -1.16675,-0.42647 -1.01386,0 -1.64149,0.54717 -0.62763,0.53912 -0.97363,1.72196 -0.346,1.18284 -0.346,2.33349 0,2.14842 1.75414,2.14842 z"
         style="font-style:italic;font-size:16.47929955px;line-height:105.99999428%;-inkscape-font-specification:'Sans Italic';text-align:center;text-anchor:middle"
         id="path376"
         inkscape:connector-curvature="0" /><path
         d="m 553.77005,351.89964 q -0.74833,0 -1.09433,-0.30577 -0.33795,-0.31382 -0.33795,-0.92535 l 0.0402,-0.51498 h -0.0483 q -0.66786,1.01386 -1.384,1.42424 -0.71614,0.40232 -1.73001,0.40232 -1.12651,0 -1.83461,-0.67591 -0.70004,-0.6759 -0.70004,-1.72195 0,-1.48861 1.06214,-2.25303 1.07019,-0.76442 3.40368,-0.79661 l 1.8668,-0.0241 q 0.15288,-0.78856 0.15288,-1.02191 0,-0.73223 -0.42646,-1.07823 -0.42647,-0.35405 -1.18284,-0.35405 -0.95754,0 -1.44838,0.346 -0.49084,0.33795 -0.7081,1.038 l -1.43228,-0.23335 q 0.3621,-1.18284 1.25526,-1.71391 0.90121,-0.53912 2.41396,-0.53912 1.37596,0 2.17256,0.64373 0.80466,0.64372 0.80466,1.73 0,0.51498 -0.15289,1.26331 l -0.59544,3.04159 q -0.0885,0.38623 -0.0885,0.70809 0,0.5874 0.65177,0.5874 0.21725,0 0.48279,-0.0563 l -0.11265,0.90121 q -0.53107,0.12875 -1.02996,0.12875 z m -0.94949,-4.39341 -1.60126,0.0322 q -0.95754,0.0241 -1.5047,0.17702 -0.54716,0.14484 -0.85293,0.37819 -0.29772,0.2253 -0.47475,0.57935 -0.16898,0.346 -0.16898,0.84488 0,0.60349 0.38624,0.98168 0.39428,0.37819 1.01386,0.37819 0.78051,0 1.40814,-0.32991 0.62763,-0.33795 1.03801,-0.87707 0.41037,-0.53912 0.53911,-1.1587 z"
         style="font-style:italic;font-size:16.47929955px;line-height:105.99999428%;-inkscape-font-specification:'Sans Italic';text-align:center;text-anchor:middle"
         id="path378"
         inkscape:connector-curvature="0" /><path
         d="m 561.24528,351.81917 1.01386,-5.19001 q 0.14484,-0.7081 0.14484,-1.20698 0,-1.34377 -1.44033,-1.34377 -1.01386,0 -1.78633,0.77246 -0.77246,0.77247 -1.02995,2.0921 l -0.94949,4.8762 h -1.44838 l 1.33572,-6.8476 q 0.16093,-0.76442 0.31382,-1.85875 h 1.36791 q 0,0.0885 -0.0885,0.62763 -0.0805,0.53107 -0.13679,0.86098 h 0.0241 q 0.66786,-0.92535 1.33572,-1.2794 0.67591,-0.36209 1.60126,-0.36209 1.19089,0 1.78633,0.5874 0.60349,0.58739 0.60349,1.69781 0,0.51498 -0.16898,1.31964 l -1.02191,5.25438 z"
         style="font-style:italic;font-size:16.47929955px;line-height:105.99999428%;-inkscape-font-specification:'Sans Italic';text-align:center;text-anchor:middle"
         id="path380"
         inkscape:connector-curvature="0" /><path
         d="m 575.20601,342.95189 q 1.26331,0 1.96336,0.76442 0.70809,0.75638 0.70809,2.08406 0,1.63344 -0.49888,3.17033 -0.49084,1.52884 -1.39205,2.26912 -0.89317,0.74028 -2.28522,0.74028 -0.98972,0 -1.6093,-0.41842 -0.61959,-0.41842 -0.87708,-1.17479 h -0.0241 q -0.0563,0.29772 -0.19311,0.85293 -0.13679,0.55521 -0.15289,0.57935 h -1.39205 q 0.0402,-0.1207 0.15289,-0.65981 0.1207,-0.53912 0.24139,-1.13456 l 1.9714,-10.14668 h 1.44838 l -0.66786,3.40368 q -0.0644,0.37014 -0.27358,1.12652 h 0.0322 q 0.5874,-0.76443 1.23917,-1.11043 0.65177,-0.346 1.6093,-0.346 z m -0.41842,1.11847 q -0.7966,0 -1.36791,0.32991 -0.56325,0.32186 -0.95753,0.98168 -0.39428,0.65176 -0.61959,1.64149 -0.2253,0.98168 -0.2253,1.76219 0,1.00582 0.50693,1.56907 0.51498,0.55521 1.42424,0.55521 0.99777,0 1.57712,-0.60349 0.57935,-0.61153 0.90926,-1.93116 0.32991,-1.32768 0.32991,-2.31741 0,-0.98972 -0.37819,-1.4886 -0.37819,-0.49889 -1.19894,-0.49889 z"
         style="font-style:italic;font-size:16.47929955px;line-height:105.99999428%;-inkscape-font-specification:'Sans Italic';text-align:center;text-anchor:middle"
         id="path382"
         inkscape:connector-curvature="0" /><path
         d="m 580.44431,347.77177 q -0.0483,0.28162 -0.0724,0.90925 0,1.07019 0.53107,1.6415 0.53912,0.5713 1.61735,0.5713 0.78052,0 1.41619,-0.38623 0.63568,-0.38624 0.98973,-1.0541 l 1.11042,0.50693 q -0.5874,1.0541 -1.49666,1.53689 -0.90121,0.48279 -2.18865,0.48279 -1.61736,0 -2.51857,-0.89316 -0.89316,-0.90121 -0.89316,-2.52661 0,-1.61736 0.5713,-2.89676 0.5713,-1.28744 1.60931,-1.99554 1.038,-0.71614 2.33349,-0.71614 1.64954,0 2.56684,0.8288 0.91731,0.82879 0.91731,2.34154 0,0.84488 -0.19312,1.64954 z m 5.02103,-1.11043 0.0322,-0.57935 q 0,-0.99777 -0.52302,-1.52884 -0.51498,-0.53107 -1.48861,-0.53107 -1.07824,0 -1.81852,0.692 -0.73223,0.68396 -1.02996,1.94726 z"
         style="font-style:italic;font-size:16.47929955px;line-height:105.99999428%;-inkscape-font-specification:'Sans Italic';text-align:center;text-anchor:middle"
         id="path384"
         inkscape:connector-curvature="0" /><path
         d="m 515.79042,357.94966 q 1.85875,0 2.94503,0.83684 1.08628,0.83684 1.08628,2.29326 0,1.77024 -1.23112,2.78411 -1.22307,1.00581 -3.34736,1.00581 h -3.41173 l -0.85293,4.41755 h -1.53689 l 2.19671,-11.33757 z m -3.7175,5.705 h 3.11401 q 3.07377,0 3.07377,-2.50248 0,-0.95753 -0.63567,-1.46447 -0.63568,-0.50693 -1.87485,-0.50693 h -2.80824 z"
         style="font-style:italic;font-size:16.47929955px;line-height:105.99999428%;-inkscape-font-specification:'Sans Italic';text-align:center;text-anchor:middle"
         id="path386"
         inkscape:connector-curvature="0" /><path
         d="m 527.24063,369.28723 -0.60349,-3.31517 h -5.14173 l -1.93117,3.31517 h -1.67368 l 6.82346,-11.33757 h 1.7461 l 2.34959,11.33757 z m -1.85875,-10.17887 q -0.1046,0.20921 -0.29772,0.55522 -0.19312,0.346 -2.91284,5.10954 h 4.24052 l -0.82075,-4.44973 z"
         style="font-style:italic;font-size:16.47929955px;line-height:105.99999428%;-inkscape-font-specification:'Sans Italic';text-align:center;text-anchor:middle"
         id="path388"
         inkscape:connector-curvature="0" /><path
         d="m 530.34659,369.28723 2.20475,-11.33757 h 1.53689 l -2.20475,11.33757 z"
         style="font-style:italic;font-size:16.47929955px;line-height:105.99999428%;-inkscape-font-specification:'Sans Italic';text-align:center;text-anchor:middle"
         id="path390"
         inkscape:connector-curvature="0" /><path
         d="m 540.25992,357.94966 q 2.51052,0 3.9428,1.32768 1.44033,1.31963 1.44033,3.64508 0,1.89898 -0.82879,3.32322 -0.82879,1.42424 -2.38982,2.23694 -1.55298,0.80465 -3.52438,0.80465 h -4.11983 l 2.19671,-11.33757 z m -3.70945,10.10645 h 2.28522 q 1.56907,0 2.768,-0.61958 1.19894,-0.62763 1.83461,-1.79438 0.64373,-1.17479 0.64373,-2.73582 0,-1.76219 -1.01387,-2.74387 -1.01386,-0.98168 -2.84042,-0.98168 h -1.94726 z"
         style="font-style:italic;font-size:16.47929955px;line-height:105.99999428%;-inkscape-font-specification:'Sans Italic';text-align:center;text-anchor:middle"
         id="path392"
         inkscape:connector-curvature="0" /><path
         d="m 554.75173,359.20492 -0.82075,4.21639 h 6.40504 l -0.24944,1.27135 h -6.40504 l -0.88512,4.59457 h -1.53689 l 2.19671,-11.33757 h 8.13504 l -0.24139,1.25526 z"
         style="font-style:italic;font-size:16.47929955px;line-height:105.99999428%;-inkscape-font-specification:'Sans Italic';text-align:center;text-anchor:middle"
         id="path394"
         inkscape:connector-curvature="0" /><path
         d="m 568.36646,357.78069 q 2.22889,0 3.51634,1.2633 1.29549,1.26331 1.29549,3.39564 -0.0402,2.15647 -0.90121,3.73359 -0.86098,1.56907 -2.35764,2.42201 -1.49665,0.85293 -3.39563,0.85293 -2.28522,0 -3.54852,-1.26331 -1.26331,-1.27135 -1.26331,-3.50828 0,-1.92313 0.84489,-3.53243 0.85293,-1.61736 2.37372,-2.48638 1.5208,-0.87707 3.43587,-0.87707 z m -0.0724,1.23916 q -1.6093,0 -2.73582,0.71614 -1.11847,0.71615 -1.71391,2.14038 -0.59544,1.42424 -0.59544,2.88066 0,1.68173 0.85293,2.56684 0.86098,0.87708 2.49443,0.87708 1.58516,0 2.69558,-0.69201 1.11847,-0.70004 1.73001,-2.09209 0.61958,-1.39205 0.61958,-2.94503 0,-1.66564 -0.87707,-2.5588 -0.86903,-0.89317 -2.47029,-0.89317 z"
         style="font-style:italic;font-size:16.47929955px;line-height:105.99999428%;-inkscape-font-specification:'Sans Italic';text-align:center;text-anchor:middle"
         id="path396"
         inkscape:connector-curvature="0" /><path
         d="m 582.09385,369.28723 -1.95531,-4.70722 h -3.54852 l -0.90926,4.70722 h -1.53689 l 2.19671,-11.33757 h 4.92447 q 1.72196,0 2.74387,0.82075 1.02191,0.82075 1.02191,2.15647 0,1.51275 -0.86902,2.39787 -0.86903,0.88512 -2.56685,1.11847 l 2.15647,4.84401 z m -1.56103,-5.92225 q 1.45642,0 2.1967,-0.60349 0.74028,-0.61154 0.74028,-1.71391 0,-0.90121 -0.60349,-1.384 -0.59544,-0.4828 -1.78633,-0.4828 h -3.43587 l -0.81269,4.1842 z"
         style="font-style:italic;font-size:16.47929955px;line-height:105.99999428%;-inkscape-font-specification:'Sans Italic';text-align:center;text-anchor:middle"
         id="path398"
         inkscape:connector-curvature="0" /></g><g
       transform="translate(-365.30701)"
       aria-label="Mission"
       id="text3989-6-7"
       style="font-size:38.77590179px;line-height:0%;font-family:'Liberation Sans';letter-spacing:0px;word-spacing:0px;fill:#ff0000;stroke-width:3.23132992"><path
         d="m 600.77604,170.68764 v -6.73718 q 0,-0.22878 0,-0.45756 0.008,-0.22878 0.0789,-1.96435 -0.56011,2.12213 -0.82834,2.95836 l -2.00379,6.20073 h -1.65669 l -2.00379,-6.20073 -0.84412,-2.95836 q 0.0947,1.83024 0.0947,2.42191 v 6.73718 h -2.0669 v -11.11555 h 3.11614 l 1.98802,6.2165 0.17355,0.59956 0.37867,1.49102 0.49701,-1.78291 2.04324,-6.52417 h 3.10036 v 11.11555 z"
         style="font-weight:bold;font-size:16.15660095px;line-height:1.25;-inkscape-font-specification:'Sans Bold';text-align:center;text-anchor:middle"
         id="path401"
         inkscape:connector-curvature="0" /><path
         d="m 605.05186,160.61343 v -1.63302 h 2.2168 v 1.63302 z m 0,10.07421 v -8.53586 h 2.2168 v 8.53586 z"
         style="font-weight:bold;font-size:16.15660095px;line-height:1.25;-inkscape-font-specification:'Sans Bold';text-align:center;text-anchor:middle"
         id="path403"
         inkscape:connector-curvature="0" /><path
         d="m 616.73542,168.19472 q 0,1.23857 -1.01768,1.94858 -1.00978,0.70212 -2.80058,0.70212 -1.75924,0 -2.69802,-0.55223 -0.9309,-0.56012 -1.23857,-1.73557 l 1.94857,-0.2919 q 0.16567,0.60746 0.56801,0.8599 0.41022,0.25245 1.42001,0.25245 0.9309,0 1.3569,-0.23667 0.42601,-0.23667 0.42601,-0.74156 0,-0.41023 -0.34712,-0.6469 -0.33922,-0.24456 -1.15967,-0.41022 -1.87758,-0.37079 -2.53236,-0.68634 -0.65479,-0.32345 -1.0019,-0.82835 -0.33923,-0.51278 -0.33923,-1.25434 0,-1.22279 0.93879,-1.90124 0.94668,-0.68634 2.67436,-0.68634 1.52257,0 2.44558,0.59167 0.9309,0.59167 1.15968,1.71191 l -1.96436,0.20511 q -0.0947,-0.52067 -0.46544,-0.77312 -0.37079,-0.26033 -1.17546,-0.26033 -0.7889,0 -1.18335,0.20511 -0.39444,0.19722 -0.39444,0.67056 0,0.37078 0.29978,0.59167 0.30767,0.213 1.02556,0.35501 1.0019,0.20511 1.77502,0.426 0.78101,0.213 1.24646,0.51278 0.47333,0.29978 0.74945,0.77312 0.284,0.46545 0.284,1.19912 z"
         style="font-weight:bold;font-size:16.15660095px;line-height:1.25;-inkscape-font-specification:'Sans Bold';text-align:center;text-anchor:middle"
         id="path405"
         inkscape:connector-curvature="0" /><path
         d="m 625.72095,168.19472 q 0,1.23857 -1.01767,1.94858 -1.00979,0.70212 -2.80059,0.70212 -1.75923,0 -2.69802,-0.55223 -0.9309,-0.56012 -1.23857,-1.73557 l 1.94858,-0.2919 q 0.16566,0.60746 0.568,0.8599 0.41023,0.25245 1.42001,0.25245 0.9309,0 1.35691,-0.23667 0.426,-0.23667 0.426,-0.74156 0,-0.41023 -0.34711,-0.6469 -0.33923,-0.24456 -1.15968,-0.41022 -1.87758,-0.37079 -2.53236,-0.68634 -0.65478,-0.32345 -1.0019,-0.82835 -0.33922,-0.51278 -0.33922,-1.25434 0,-1.22279 0.93878,-1.90124 0.94668,-0.68634 2.67436,-0.68634 1.52257,0 2.44558,0.59167 0.9309,0.59167 1.15968,1.71191 l -1.96435,0.20511 q -0.0947,-0.52067 -0.46545,-0.77312 -0.37078,-0.26033 -1.17546,-0.26033 -0.78889,0 -1.18334,0.20511 -0.39445,0.19722 -0.39445,0.67056 0,0.37078 0.29978,0.59167 0.30767,0.213 1.02557,0.35501 1.00189,0.20511 1.77501,0.426 0.78101,0.213 1.24646,0.51278 0.47334,0.29978 0.74945,0.77312 0.284,0.46545 0.284,1.19912 z"
         style="font-weight:bold;font-size:16.15660095px;line-height:1.25;-inkscape-font-specification:'Sans Bold';text-align:center;text-anchor:middle"
         id="path407"
         inkscape:connector-curvature="0" /><path
         d="m 627.51175,160.61343 v -1.63302 h 2.2168 v 1.63302 z m 0,10.07421 v -8.53586 h 2.2168 v 8.53586 z"
         style="font-weight:bold;font-size:16.15660095px;line-height:1.25;-inkscape-font-specification:'Sans Bold';text-align:center;text-anchor:middle"
         id="path409"
         inkscape:connector-curvature="0" /><path
         d="m 640.11043,166.41182 q 0,2.0748 -1.15179,3.25814 -1.15179,1.17546 -3.18715,1.17546 -1.9959,0 -3.13191,-1.18335 -1.13602,-1.18334 -1.13602,-3.25025 0,-2.05902 1.13602,-3.23448 1.13601,-1.18334 3.17925,-1.18334 2.09057,0 3.18714,1.1439 1.10446,1.13601 1.10446,3.27392 z m -2.31936,0 q 0,-1.52257 -0.49701,-2.20891 -0.497,-0.68634 -1.44368,-0.68634 -2.01957,0 -2.01957,2.89525 0,1.4279 0.48911,2.17735 0.49701,0.74157 1.42791,0.74157 2.04324,0 2.04324,-2.91892 z"
         style="font-weight:bold;font-size:16.15660095px;line-height:1.25;-inkscape-font-specification:'Sans Bold';text-align:center;text-anchor:middle"
         id="path411"
         inkscape:connector-curvature="0" /><path
         d="m 647.39983,170.68764 v -4.7886 q 0,-2.24836 -1.52257,-2.24836 -0.80468,0 -1.30168,0.69423 -0.48912,0.68634 -0.48912,1.76713 v 4.5756 h -2.2168 v -6.62673 q 0,-0.68634 -0.0237,-1.12024 -0.0158,-0.44178 -0.0394,-0.78889 h 2.11424 q 0.0237,0.14989 0.0631,0.80467 0.0394,0.6469 0.0394,0.89145 h 0.0316 q 0.44967,-0.97823 1.12812,-1.42001 0.67845,-0.44178 1.61724,-0.44178 1.3569,0 2.08268,0.83623 0.72579,0.83623 0.72579,2.44558 v 5.41972 z"
         style="font-weight:bold;font-size:16.15660095px;line-height:1.25;-inkscape-font-specification:'Sans Bold';text-align:center;text-anchor:middle"
         id="path413"
         inkscape:connector-curvature="0" /></g><path
       inkscape:connector-curvature="0"
       id="path416"
       style="font-weight:bold;font-size:16.15660095px;line-height:1.25;font-family:'Liberation Sans';-inkscape-font-specification:'Sans Bold';text-align:center;letter-spacing:-0.54932803px;word-spacing:0px;text-anchor:middle;fill:#ff0000;stroke-width:3.23132992"
       d="m 120.07,163.09056 q 0,1.0729 -0.48912,1.91702 -0.48911,0.84412 -1.40423,1.30957 -0.90723,0.45756 -2.16158,0.45756 h -2.76114 v 3.91293 h -2.32724 v -11.11555 h 4.99371 q 1.99591,0 3.06881,0.923 1.08079,0.91512 1.08079,2.59547 z m -2.34302,0.0394 q 0,-1.75135 -2.06691,-1.75135 h -2.40614 v 3.60526 h 2.46925 q 0.96245,0 1.48313,-0.47334 0.52067,-0.48123 0.52067,-1.38057 z" /><path
       inkscape:connector-curvature="0"
       id="path418"
       style="font-weight:bold;font-size:16.15660095px;line-height:1.25;font-family:'Liberation Sans';-inkscape-font-specification:'Sans Bold';text-align:center;letter-spacing:-0.54932803px;word-spacing:0px;text-anchor:middle;fill:#ff0000;stroke-width:3.23132992"
       d="m 123.17326,170.84542 q -1.23856,0 -1.93279,-0.67057 -0.69423,-0.67845 -0.69423,-1.90124 0,-1.32534 0.85989,-2.01957 0.86779,-0.69423 2.5087,-0.71001 l 1.83812,-0.0315 v -0.4339 q 0,-0.83623 -0.29189,-1.23856 -0.29189,-0.41023 -0.95456,-0.41023 -0.61534,0 -0.90723,0.284 -0.28401,0.27612 -0.35501,0.92301 l -2.31146,-0.11044 q 0.213,-1.24646 1.13601,-1.88547 0.9309,-0.64689 2.53236,-0.64689 1.61723,0 2.49291,0.79678 0.87567,0.79679 0.87567,2.26414 v 3.10825 q 0,0.71789 0.15778,0.99401 0.16567,0.26822 0.54434,0.26822 0.25245,0 0.48912,-0.0473 v 1.19912 q -0.19723,0.0473 -0.35501,0.0868 -0.15778,0.0394 -0.31555,0.0631 -0.15778,0.0237 -0.33923,0.0394 -0.17356,0.0158 -0.41023,0.0158 -0.83623,0 -1.23856,-0.41022 -0.39445,-0.41023 -0.47334,-1.20701 h -0.0473 q -0.93089,1.68035 -2.80847,1.68035 z m 2.57969,-4.11015 -1.13601,0.0158 q -0.77312,0.0316 -1.09656,0.17356 -0.32345,0.13411 -0.49701,0.41812 -0.16567,0.284 -0.16567,0.75734 0,0.60745 0.27612,0.90723 0.284,0.29189 0.74945,0.29189 0.52067,0 0.94668,-0.284 0.43389,-0.28401 0.67845,-0.78101 0.24455,-0.50489 0.24455,-1.06501 z" /><path
       inkscape:connector-curvature="0"
       id="path420"
       style="font-weight:bold;font-size:16.15660095px;line-height:1.25;font-family:'Liberation Sans';-inkscape-font-specification:'Sans Bold';text-align:center;letter-spacing:-0.54932803px;word-spacing:0px;text-anchor:middle;fill:#ff0000;stroke-width:3.23132992"
       d="m 136.83196,168.19472 q 0,1.23857 -1.01767,1.94858 -1.00979,0.70212 -2.80059,0.70212 -1.75924,0 -2.69802,-0.55223 -0.9309,-0.56012 -1.23857,-1.73557 l 1.94857,-0.2919 q 0.16567,0.60746 0.56801,0.8599 0.41023,0.25245 1.42001,0.25245 0.9309,0 1.3569,-0.23667 0.42601,-0.23667 0.42601,-0.74156 0,-0.41023 -0.34712,-0.6469 -0.33922,-0.24456 -1.15967,-0.41022 -1.87758,-0.37079 -2.53236,-0.68634 -0.65479,-0.32345 -1.0019,-0.82835 -0.33923,-0.51278 -0.33923,-1.25434 0,-1.22279 0.93879,-1.90124 0.94668,-0.68634 2.67436,-0.68634 1.52257,0 2.44558,0.59167 0.9309,0.59167 1.15968,1.71191 l -1.96435,0.20511 q -0.0947,-0.52067 -0.46545,-0.77312 -0.37079,-0.26033 -1.17546,-0.26033 -0.7889,0 -1.18334,0.20511 -0.39445,0.19722 -0.39445,0.67056 0,0.37078 0.29978,0.59167 0.30767,0.213 1.02556,0.35501 1.0019,0.20511 1.77502,0.426 0.78101,0.213 1.24646,0.51278 0.47334,0.29978 0.74945,0.77312 0.284,0.46545 0.284,1.19912 z" /><path
       inkscape:connector-curvature="0"
       id="path422"
       style="font-weight:bold;font-size:16.15660095px;line-height:1.25;font-family:'Liberation Sans';-inkscape-font-specification:'Sans Bold';text-align:center;letter-spacing:-0.54932803px;word-spacing:0px;text-anchor:middle;fill:#ff0000;stroke-width:3.23132992"
       d="m 145.26816,168.19472 q 0,1.23857 -1.01767,1.94858 -1.00979,0.70212 -2.80058,0.70212 -1.75924,0 -2.69803,-0.55223 -0.9309,-0.56012 -1.23857,-1.73557 l 1.94858,-0.2919 q 0.16566,0.60746 0.568,0.8599 0.41023,0.25245 1.42002,0.25245 0.93089,0 1.3569,-0.23667 0.426,-0.23667 0.426,-0.74156 0,-0.41023 -0.34711,-0.6469 -0.33923,-0.24456 -1.15968,-0.41022 -1.87757,-0.37079 -2.53236,-0.68634 -0.65478,-0.32345 -1.0019,-0.82835 -0.33922,-0.51278 -0.33922,-1.25434 0,-1.22279 0.93878,-1.90124 0.94668,-0.68634 2.67436,-0.68634 1.52257,0 2.44558,0.59167 0.9309,0.59167 1.15968,1.71191 l -1.96435,0.20511 q -0.0947,-0.52067 -0.46545,-0.77312 -0.37078,-0.26033 -1.17546,-0.26033 -0.78889,0 -1.18334,0.20511 -0.39445,0.19722 -0.39445,0.67056 0,0.37078 0.29978,0.59167 0.30767,0.213 1.02557,0.35501 1.0019,0.20511 1.77501,0.426 0.78101,0.213 1.24646,0.51278 0.47334,0.29978 0.74945,0.77312 0.284,0.46545 0.284,1.19912 z" /><path
       inkscape:connector-curvature="0"
       id="path424"
       style="font-weight:bold;font-size:16.15660095px;line-height:1.25;font-family:'Liberation Sans';-inkscape-font-specification:'Sans Bold';text-align:center;letter-spacing:-0.54932803px;word-spacing:0px;text-anchor:middle;fill:#ff0000;stroke-width:3.23132992"
       d="m 146.50963,160.61343 v -1.63302 h 2.2168 v 1.63302 z m 0,10.07421 v -8.53586 h 2.2168 v 8.53586 z" /><path
       inkscape:connector-curvature="0"
       id="path426"
       style="font-weight:bold;font-size:16.15660095px;line-height:1.25;font-family:'Liberation Sans';-inkscape-font-specification:'Sans Bold';text-align:center;letter-spacing:-0.54932803px;word-spacing:0px;text-anchor:middle;fill:#ff0000;stroke-width:3.23132992"
       d="m 158.55898,166.41182 q 0,2.0748 -1.15179,3.25814 -1.15179,1.17546 -3.18714,1.17546 -1.99591,0 -3.13192,-1.18335 -1.13601,-1.18334 -1.13601,-3.25025 0,-2.05902 1.13601,-3.23448 1.13601,-1.18334 3.17925,-1.18334 2.09058,0 3.18715,1.1439 1.10445,1.13601 1.10445,3.27392 z m -2.31935,0 q 0,-1.52257 -0.49701,-2.20891 -0.497,-0.68634 -1.44368,-0.68634 -2.01958,0 -2.01958,2.89525 0,1.4279 0.48912,2.17735 0.49701,0.74157 1.4279,0.74157 2.04325,0 2.04325,-2.91892 z" /><path
       inkscape:connector-curvature="0"
       id="path428"
       style="font-weight:bold;font-size:16.15660095px;line-height:1.25;font-family:'Liberation Sans';-inkscape-font-specification:'Sans Bold';text-align:center;letter-spacing:-0.54932803px;word-spacing:0px;text-anchor:middle;fill:#ff0000;stroke-width:3.23132992"
       d="m 165.29906,170.68764 v -4.7886 q 0,-2.24836 -1.52257,-2.24836 -0.80468,0 -1.30168,0.69423 -0.48912,0.68634 -0.48912,1.76713 v 4.5756 h -2.2168 v -6.62673 q 0,-0.68634 -0.0237,-1.12024 -0.0158,-0.44178 -0.0394,-0.78889 h 2.11424 q 0.0237,0.14989 0.0631,0.80467 0.0394,0.6469 0.0394,0.89145 h 0.0316 q 0.44967,-0.97823 1.12812,-1.42001 0.67845,-0.44178 1.61723,-0.44178 1.35691,0 2.08269,0.83623 0.72579,0.83623 0.72579,2.44558 v 5.41972 z" /><g
       transform="translate(-365.30701)"
       aria-label="Profession"
       id="text3989-6-6-0"
       style="font-size:38.77590179px;line-height:0%;font-family:'Liberation Sans';letter-spacing:0px;word-spacing:0px;fill:#ff0000;stroke-width:3.23132992"
       inkscape:transform-center-x="7.0375082"
       inkscape:transform-center-y="-11.040999"><path
         d="m 477.76464,287.03623 q 0,1.0729 -0.48912,1.91702 -0.48912,0.84412 -1.40424,1.30956 -0.90723,0.45756 -2.16157,0.45756 h -2.76114 v 3.91293 h -2.32725 v -11.11555 h 4.99372 q 1.99591,0 3.06881,0.92301 1.08079,0.91512 1.08079,2.59547 z m -2.34303,0.0394 q 0,-1.75135 -2.06691,-1.75135 h -2.40613 v 3.60526 h 2.46925 q 0.96245,0 1.48312,-0.47334 0.52067,-0.48123 0.52067,-1.38057 z"
         style="font-weight:bold;font-size:16.15660095px;line-height:1.25;-inkscape-font-specification:'Sans Bold';text-align:center;text-anchor:middle"
         id="path431"
         inkscape:connector-curvature="0" /><path
         d="m 479.44498,294.6333 v -6.53206 q 0,-0.70212 -0.0237,-1.16757 -0.0158,-0.47334 -0.0394,-0.83623 h 2.11425 q 0.0237,0.142 0.0631,0.86779 0.0394,0.71789 0.0394,0.95456 h 0.0316 q 0.32345,-0.89934 0.57589,-1.26223 0.25245,-0.37078 0.59956,-0.54434 0.34712,-0.18145 0.86779,-0.18145 0.426,0 0.68634,0.11834 v 1.8539 q -0.53645,-0.11833 -0.94668,-0.11833 -0.82834,0 -1.29379,0.67056 -0.45756,0.67056 -0.45756,1.98802 v 4.18904 z"
         style="font-weight:bold;font-size:16.15660095px;line-height:1.25;-inkscape-font-specification:'Sans Bold';text-align:center;text-anchor:middle"
         id="path433"
         inkscape:connector-curvature="0" /><path
         d="m 493.84235,290.35748 q 0,2.0748 -1.15179,3.25814 -1.15179,1.17546 -3.18715,1.17546 -1.9959,0 -3.13191,-1.18334 -1.13602,-1.18335 -1.13602,-3.25026 0,-2.05902 1.13602,-3.23447 1.13601,-1.18335 3.17925,-1.18335 2.09057,0 3.18714,1.1439 1.10446,1.13601 1.10446,3.27392 z m -2.31936,0 q 0,-1.52257 -0.497,-2.20891 -0.49701,-0.68634 -1.44369,-0.68634 -2.01957,0 -2.01957,2.89525 0,1.4279 0.48912,2.17736 0.497,0.74156 1.4279,0.74156 2.04324,0 2.04324,-2.91892 z"
         style="font-weight:bold;font-size:16.15660095px;line-height:1.25;-inkscape-font-specification:'Sans Bold';text-align:center;text-anchor:middle"
         id="path435"
         inkscape:connector-curvature="0" /><path
         d="m 498.20494,287.59634 v 7.03696 h -2.20891 v -7.03696 h -1.24645 v -1.4989 h 1.24645 v -0.89145 q 0,-1.15968 0.61534,-1.7198 0.61534,-0.56011 1.86969,-0.56011 0.62322,0 1.40423,0.12622 v 1.4279 q -0.32345,-0.071 -0.64689,-0.071 -0.56801,0 -0.80468,0.22878 -0.22878,0.22089 -0.22878,0.7889 v 0.67056 h 1.68035 v 1.4989 z"
         style="font-weight:bold;font-size:16.15660095px;line-height:1.25;-inkscape-font-specification:'Sans Bold';text-align:center;text-anchor:middle"
         id="path437"
         inkscape:connector-curvature="0" /><path
         d="m 504.47667,294.79108 q -1.92491,0 -2.95836,-1.13601 -1.03345,-1.1439 -1.03345,-3.32914 0,-2.11425 1.04923,-3.25026 1.04923,-1.13601 2.97414,-1.13601 1.83813,0 2.80847,1.22279 0.97034,1.2149 0.97034,3.56581 v 0.0631 h -5.47494 q 0,1.24646 0.45756,1.88547 0.46545,0.63111 1.31746,0.63111 1.17545,0 1.48312,-1.01767 l 2.09058,0.18144 q -0.90723,2.31936 -3.68415,2.31936 z m 0,-7.45507 q -0.78101,0 -1.20701,0.54434 -0.41812,0.54434 -0.44178,1.52257 h 3.31336 q -0.0631,-1.03346 -0.497,-1.54624 -0.43389,-0.52067 -1.16757,-0.52067 z"
         style="font-weight:bold;font-size:16.15660095px;line-height:1.25;-inkscape-font-specification:'Sans Bold';text-align:center;text-anchor:middle"
         id="path439"
         inkscape:connector-curvature="0" /><path
         d="m 517.16213,292.14039 q 0,1.23857 -1.01768,1.94857 -1.00979,0.70212 -2.80058,0.70212 -1.75924,0 -2.69803,-0.55223 -0.9309,-0.56011 -1.23857,-1.73557 l 1.94858,-0.29189 q 0.16567,0.60745 0.568,0.8599 0.41023,0.25244 1.42002,0.25244 0.9309,0 1.3569,-0.23667 0.426,-0.23667 0.426,-0.74156 0,-0.41023 -0.34711,-0.64689 -0.33923,-0.24456 -1.15968,-0.41023 -1.87757,-0.37078 -2.53236,-0.68634 -0.65478,-0.32345 -1.00189,-0.82834 -0.33923,-0.51278 -0.33923,-1.25435 0,-1.22279 0.93879,-1.90124 0.94667,-0.68634 2.67436,-0.68634 1.52257,0 2.44558,0.59167 0.93089,0.59168 1.15967,1.71191 l -1.96435,0.20511 q -0.0947,-0.52067 -0.46545,-0.77312 -0.37078,-0.26033 -1.17545,-0.26033 -0.7889,0 -1.18335,0.20511 -0.39445,0.19723 -0.39445,0.67056 0,0.37079 0.29978,0.59168 0.30767,0.213 1.02557,0.355 1.0019,0.20511 1.77502,0.426 0.781,0.21301 1.24645,0.51279 0.47334,0.29978 0.74945,0.77312 0.28401,0.46544 0.28401,1.19912 z"
         style="font-weight:bold;font-size:16.15660095px;line-height:1.25;-inkscape-font-specification:'Sans Bold';text-align:center;text-anchor:middle"
         id="path441"
         inkscape:connector-curvature="0" /><path
         d="m 526.14766,292.14039 q 0,1.23857 -1.01768,1.94857 -1.00979,0.70212 -2.80058,0.70212 -1.75924,0 -2.69803,-0.55223 -0.9309,-0.56011 -1.23856,-1.73557 l 1.94857,-0.29189 q 0.16567,0.60745 0.56801,0.8599 0.41022,0.25244 1.42001,0.25244 0.9309,0 1.3569,-0.23667 0.426,-0.23667 0.426,-0.74156 0,-0.41023 -0.34711,-0.64689 -0.33923,-0.24456 -1.15968,-0.41023 -1.87757,-0.37078 -2.53236,-0.68634 -0.65478,-0.32345 -1.00189,-0.82834 -0.33923,-0.51278 -0.33923,-1.25435 0,-1.22279 0.93879,-1.90124 0.94667,-0.68634 2.67436,-0.68634 1.52257,0 2.44558,0.59167 0.93089,0.59168 1.15967,1.71191 l -1.96435,0.20511 q -0.0947,-0.52067 -0.46545,-0.77312 -0.37078,-0.26033 -1.17545,-0.26033 -0.7889,0 -1.18335,0.20511 -0.39445,0.19723 -0.39445,0.67056 0,0.37079 0.29978,0.59168 0.30767,0.213 1.02557,0.355 1.0019,0.20511 1.77502,0.426 0.781,0.21301 1.24645,0.51279 0.47334,0.29978 0.74946,0.77312 0.284,0.46544 0.284,1.19912 z"
         style="font-weight:bold;font-size:16.15660095px;line-height:1.25;-inkscape-font-specification:'Sans Bold';text-align:center;text-anchor:middle"
         id="path443"
         inkscape:connector-curvature="0" /><path
         d="m 527.93846,284.55909 v -1.63301 h 2.2168 v 1.63301 z m 0,10.07421 v -8.53586 h 2.2168 v 8.53586 z"
         style="font-weight:bold;font-size:16.15660095px;line-height:1.25;-inkscape-font-specification:'Sans Bold';text-align:center;text-anchor:middle"
         id="path445"
         inkscape:connector-curvature="0" /><path
         d="m 540.53713,290.35748 q 0,2.0748 -1.15179,3.25814 -1.15179,1.17546 -3.18714,1.17546 -1.99591,0 -3.13192,-1.18334 -1.13601,-1.18335 -1.13601,-3.25026 0,-2.05902 1.13601,-3.23447 1.13601,-1.18335 3.17925,-1.18335 2.09058,0 3.18715,1.1439 1.10445,1.13601 1.10445,3.27392 z m -2.31935,0 q 0,-1.52257 -0.49701,-2.20891 -0.497,-0.68634 -1.44368,-0.68634 -2.01957,0 -2.01957,2.89525 0,1.4279 0.48911,2.17736 0.49701,0.74156 1.4279,0.74156 2.04325,0 2.04325,-2.91892 z"
         style="font-weight:bold;font-size:16.15660095px;line-height:1.25;-inkscape-font-specification:'Sans Bold';text-align:center;text-anchor:middle"
         id="path447"
         inkscape:connector-curvature="0" /><path
         d="m 547.82654,294.6333 v -4.7886 q 0,-2.24836 -1.52257,-2.24836 -0.80468,0 -1.30168,0.69423 -0.48912,0.68634 -0.48912,1.76713 v 4.5756 h -2.2168 v -6.62673 q 0,-0.68634 -0.0237,-1.12023 -0.0158,-0.44179 -0.0394,-0.7889 h 2.11425 q 0.0237,0.14989 0.0631,0.80467 0.0394,0.6469 0.0394,0.89146 h 0.0316 q 0.44967,-0.97823 1.12812,-1.42002 0.67845,-0.44178 1.61724,-0.44178 1.3569,0 2.08268,0.83623 0.72579,0.83623 0.72579,2.44558 v 5.41972 z"
         style="font-weight:bold;font-size:16.15660095px;line-height:1.25;-inkscape-font-specification:'Sans Bold';text-align:center;text-anchor:middle"
         id="path449"
         inkscape:connector-curvature="0" /></g><g
       transform="translate(-365.30701)"
       aria-label="Vocation"
       id="text3989-6-9-6"
       style="font-size:38.77590179px;line-height:0%;font-family:'Liberation Sans';letter-spacing:0px;word-spacing:0px;fill:#ff0000;stroke-width:3.23132992"><path
         d="m 592.89332,294.63339 h -2.3588 l -4.11015,-11.11555 h 2.4298 l 2.2878,7.13951 q 0.213,0.69423 0.58378,2.09847 l 0.16567,-0.67845 0.40234,-1.42002 2.27991,-7.13951 h 2.40613 z"
         style="font-weight:bold;font-size:16.15660095px;line-height:1.25;-inkscape-font-specification:'Sans Bold';text-align:center;letter-spacing:-1.06633997px;text-anchor:middle"
         id="path452"
         inkscape:connector-curvature="0" /><path
         d="m 604.06276,290.35757 q 0,2.0748 -1.15179,3.25815 -1.15178,1.17545 -3.18714,1.17545 -1.99591,0 -3.13192,-1.18334 -1.13601,-1.18335 -1.13601,-3.25026 0,-2.05902 1.13601,-3.23447 1.13601,-1.18335 3.17926,-1.18335 2.09057,0 3.18714,1.1439 1.10445,1.13601 1.10445,3.27392 z m -2.31935,0 q 0,-1.52257 -0.49701,-2.20891 -0.497,-0.68634 -1.44368,-0.68634 -2.01957,0 -2.01957,2.89525 0,1.42791 0.48911,2.17736 0.49701,0.74156 1.42791,0.74156 2.04324,0 2.04324,-2.91892 z"
         style="font-weight:bold;font-size:16.15660095px;line-height:1.25;-inkscape-font-specification:'Sans Bold';text-align:center;letter-spacing:-1.06633997px;text-anchor:middle"
         id="path454"
         inkscape:connector-curvature="0" /><path
         d="m 608.31359,294.79117 q -1.94069,0 -2.99781,-1.15179 -1.05712,-1.15968 -1.05712,-3.22658 0,-2.11425 1.06501,-3.2897 1.06501,-1.18335 3.02147,-1.18335 1.50679,0 2.49291,0.75734 0.98613,0.75734 1.23857,2.09058 l -2.23258,0.11044 q -0.0947,-0.65478 -0.47333,-1.04134 -0.37867,-0.39445 -1.0729,-0.39445 -1.71191,0 -1.71191,2.8637 0,2.95047 1.74346,2.95047 0.63112,0 1.05712,-0.39445 0.42601,-0.40234 0.52857,-1.19123 l 2.22468,0.10255 q -0.11833,0.87568 -0.63111,1.56202 -0.5049,0.68634 -1.33324,1.06501 -0.82834,0.37078 -1.86179,0.37078 z"
         style="font-weight:bold;font-size:16.15660095px;line-height:1.25;-inkscape-font-specification:'Sans Bold';text-align:center;letter-spacing:-1.06633997px;text-anchor:middle"
         id="path456"
         inkscape:connector-curvature="0" /><path
         d="m 614.64709,294.79117 q -1.23856,0 -1.93279,-0.67056 -0.69423,-0.67845 -0.69423,-1.90124 0,-1.32535 0.8599,-2.01958 0.86778,-0.69423 2.50869,-0.71 l 1.83813,-0.0316 v -0.43389 q 0,-0.83623 -0.2919,-1.23857 -0.29189,-0.41023 -0.95456,-0.41023 -0.61534,0 -0.90723,0.28401 -0.284,0.27611 -0.355,0.92301 l -2.31147,-0.11045 q 0.213,-1.24646 1.13601,-1.88546 0.9309,-0.6469 2.53236,-0.6469 1.61724,0 2.49291,0.79679 0.87568,0.79678 0.87568,2.26413 v 3.10825 q 0,0.7179 0.15777,0.99401 0.16567,0.26823 0.54434,0.26823 0.25245,0 0.48912,-0.0473 v 1.19913 q -0.19722,0.0473 -0.355,0.0868 -0.15778,0.0394 -0.31556,0.0631 -0.15778,0.0237 -0.33923,0.0394 -0.17356,0.0158 -0.41022,0.0158 -0.83623,0 -1.23857,-0.41023 -0.39445,-0.41022 -0.47334,-1.20701 h -0.0473 q -0.9309,1.68035 -2.80848,1.68035 z m 2.5797,-4.11015 -1.13601,0.0158 q -0.77312,0.0315 -1.09657,0.17356 -0.32345,0.13411 -0.49701,0.41811 -0.16566,0.284 -0.16566,0.75734 0,0.60745 0.27611,0.90723 0.284,0.29189 0.74945,0.29189 0.52067,0 0.94668,-0.284 0.43389,-0.284 0.67845,-0.78101 0.24456,-0.50489 0.24456,-1.06501 z"
         style="font-weight:bold;font-size:16.15660095px;line-height:1.25;-inkscape-font-specification:'Sans Bold';text-align:center;letter-spacing:-1.06633997px;text-anchor:middle"
         id="path458"
         inkscape:connector-curvature="0" /><path
         d="m 622.77929,294.77539 q -0.97823,0 -1.50679,-0.52856 -0.52856,-0.53645 -0.52856,-1.61723 v -5.03316 h -1.08079 v -1.49891 h 1.19123 l 0.69423,-2.0038 h 1.38846 v 2.0038 h 1.61724 v 1.49891 h -1.61724 v 4.43359 q 0,0.62323 0.23667,0.92301 0.23667,0.29189 0.73367,0.29189 0.26034,0 0.74156,-0.11044 v 1.37268 q -0.82045,0.26822 -1.86968,0.26822 z"
         style="font-weight:bold;font-size:16.15660095px;line-height:1.25;-inkscape-font-specification:'Sans Bold';text-align:center;letter-spacing:-1.06633997px;text-anchor:middle"
         id="path460"
         inkscape:connector-curvature="0" /><path
         d="m 624.90798,284.55918 v -1.63301 h 2.2168 v 1.63301 z m 0,10.07421 v -8.53586 h 2.2168 v 8.53586 z"
         style="font-weight:bold;font-size:16.15660095px;line-height:1.25;-inkscape-font-specification:'Sans Bold';text-align:center;letter-spacing:-1.06633997px;text-anchor:middle"
         id="path462"
         inkscape:connector-curvature="0" /><path
         d="m 636.44032,290.35757 q 0,2.0748 -1.15179,3.25815 -1.15179,1.17545 -3.18714,1.17545 -1.99591,0 -3.13192,-1.18334 -1.13601,-1.18335 -1.13601,-3.25026 0,-2.05902 1.13601,-3.23447 1.13601,-1.18335 3.17925,-1.18335 2.09058,0 3.18714,1.1439 1.10446,1.13601 1.10446,3.27392 z m -2.31936,0 q 0,-1.52257 -0.497,-2.20891 -0.49701,-0.68634 -1.44368,-0.68634 -2.01958,0 -2.01958,2.89525 0,1.42791 0.48912,2.17736 0.497,0.74156 1.4279,0.74156 2.04324,0 2.04324,-2.91892 z"
         style="font-weight:bold;font-size:16.15660095px;line-height:1.25;-inkscape-font-specification:'Sans Bold';text-align:center;letter-spacing:-1.06633997px;text-anchor:middle"
         id="path464"
         inkscape:connector-curvature="0" /><path
         d="m 642.66338,294.63339 v -4.7886 q 0,-2.24835 -1.52257,-2.24835 -0.80467,0 -1.30168,0.69422 -0.48911,0.68634 -0.48911,1.76713 v 4.5756 h -2.2168 v -6.62673 q 0,-0.68634 -0.0237,-1.12023 -0.0158,-0.44178 -0.0394,-0.7889 h 2.11425 q 0.0237,0.14989 0.0631,0.80468 0.0394,0.64689 0.0394,0.89145 h 0.0316 q 0.44967,-0.97823 1.12812,-1.42001 0.67845,-0.44179 1.61724,-0.44179 1.3569,0 2.08269,0.83623 0.72578,0.83623 0.72578,2.44558 v 5.41972 z"
         style="font-weight:bold;font-size:16.15660095px;line-height:1.25;-inkscape-font-specification:'Sans Bold';text-align:center;letter-spacing:-1.06633997px;text-anchor:middle"
         id="path466"
         inkscape:connector-curvature="0" /></g><g
       transform="translate(-365.30701)"
       aria-label="ikigai"
       id="text3989-6-2-7"
       style="font-size:38.77590179px;line-height:0%;font-family:'Liberation Sans';letter-spacing:0px;word-spacing:0px;fill:#ffffff;stroke-width:3.23132992"><path
         d="m 542.8489,218.77732 v -1.63301 h 2.21679 v 1.63301 z m 0,10.07421 v -8.53586 h 2.21679 v 8.53586 z"
         style="font-weight:bold;font-size:16.15660095px;line-height:1.25;-inkscape-font-specification:'Sans Bold';text-align:center;text-anchor:middle"
         id="path469"
         inkscape:connector-curvature="0" /><path
         d="m 552.78899,228.85153 -2.27991,-3.86559 -0.95456,0.66267 v 3.20292 h -2.2168 v -11.70722 h 2.2168 v 6.70562 l 3.04514,-3.53426 h 2.38246 l -2.9978,3.32914 3.22658,5.20672 z"
         style="font-weight:bold;font-size:16.15660095px;line-height:1.25;-inkscape-font-specification:'Sans Bold';text-align:center;text-anchor:middle"
         id="path471"
         inkscape:connector-curvature="0" /><path
         d="m 556.32325,218.77732 v -1.63301 h 2.2168 v 1.63301 z m 0,10.07421 v -8.53586 h 2.2168 v 8.53586 z"
         style="font-weight:bold;font-size:16.15660095px;line-height:1.25;-inkscape-font-specification:'Sans Bold';text-align:center;text-anchor:middle"
         id="path473"
         inkscape:connector-curvature="0" /><path
         d="m 564.38577,232.27534 q -1.56202,0 -2.51658,-0.59956 -0.94668,-0.59167 -1.16757,-1.69613 l 2.2168,-0.26033 q 0.11834,0.51278 0.5049,0.80467 0.39444,0.29189 1.02556,0.29189 0.92301,0 1.34901,-0.568 0.42601,-0.56801 0.42601,-1.68824 v -0.44967 l 0.0158,-0.84412 h -0.0158 q -0.73368,1.5699 -2.74536,1.5699 -1.49102,0 -2.31147,-1.12023 -0.82045,-1.12023 -0.82045,-3.20292 0,-2.09057 0.84412,-3.22659 0.84412,-1.13601 2.45347,-1.13601 1.86179,0 2.57969,1.53835 h 0.0394 q 0,-0.27611 0.0316,-0.74945 0.0394,-0.47334 0.0789,-0.62323 h 2.09846 q -0.0473,0.85201 -0.0473,1.97224 v 6.30329 q 0,1.82235 -1.03345,2.75325 -1.03346,0.93089 -3.0057,0.93089 z m 1.85391,-7.81007 q 0,-1.31746 -0.47334,-2.05113 -0.46545,-0.74157 -1.33324,-0.74157 -1.77501,0 -1.77501,2.84003 0,2.78481 1.75924,2.78481 0.88356,0 1.34901,-0.73368 0.47334,-0.74156 0.47334,-2.09846 z"
         style="font-weight:bold;font-size:16.15660095px;line-height:1.25;-inkscape-font-specification:'Sans Bold';text-align:center;text-anchor:middle"
         id="path475"
         inkscape:connector-curvature="0" /><path
         d="m 572.65341,229.00931 q -1.23857,0 -1.9328,-0.67056 -0.69423,-0.67845 -0.69423,-1.90124 0,-1.32535 0.8599,-2.01958 0.86778,-0.69423 2.50869,-0.71 l 1.83813,-0.0316 v -0.43389 q 0,-0.83623 -0.29189,-1.23857 -0.2919,-0.41023 -0.95457,-0.41023 -0.61534,0 -0.90723,0.28401 -0.284,0.27611 -0.355,0.92301 l -2.31147,-0.11045 q 0.213,-1.24646 1.13601,-1.88546 0.9309,-0.6469 2.53236,-0.6469 1.61724,0 2.49291,0.79679 0.87568,0.79678 0.87568,2.26413 v 3.10825 q 0,0.7179 0.15778,0.99401 0.16566,0.26823 0.54434,0.26823 0.25244,0 0.48911,-0.0473 v 1.19913 q -0.19722,0.0473 -0.355,0.0868 -0.15778,0.0394 -0.31556,0.0631 -0.15778,0.0237 -0.33923,0.0394 -0.17355,0.0158 -0.41022,0.0158 -0.83623,0 -1.23857,-0.41023 -0.39445,-0.41022 -0.47334,-1.20701 h -0.0473 q -0.9309,1.68035 -2.80847,1.68035 z m 2.57969,-4.11015 -1.13601,0.0158 q -0.77312,0.0316 -1.09657,0.17356 -0.32345,0.13411 -0.497,0.41811 -0.16567,0.284 -0.16567,0.75734 0,0.60745 0.27611,0.90723 0.284,0.29189 0.74945,0.29189 0.52067,0 0.94668,-0.284 0.43389,-0.284 0.67845,-0.78101 0.24456,-0.50489 0.24456,-1.06501 z"
         style="font-weight:bold;font-size:16.15660095px;line-height:1.25;-inkscape-font-specification:'Sans Bold';text-align:center;text-anchor:middle"
         id="path477"
         inkscape:connector-curvature="0" /><path
         d="m 579.6667,218.77732 v -1.63301 h 2.2168 v 1.63301 z m 0,10.07421 v -8.53586 h 2.2168 v 8.53586 z"
         style="font-weight:bold;font-size:16.15660095px;line-height:1.25;-inkscape-font-specification:'Sans Bold';text-align:center;text-anchor:middle"
         id="path479"
         inkscape:connector-curvature="0" /></g></g></svg>