<?xml version="1.0" encoding="UTF-8" standalone="no"?>
<svg
   xmlns:dc="http://purl.org/dc/elements/1.1/"
   xmlns:cc="http://creativecommons.org/ns#"
   xmlns:rdf="http://www.w3.org/1999/02/22-rdf-syntax-ns#"
   xmlns:svg="http://www.w3.org/2000/svg"
   xmlns="http://www.w3.org/2000/svg"
   xmlns:sodipodi="http://sodipodi.sourceforge.net/DTD/sodipodi-0.dtd"
   xmlns:inkscape="http://www.inkscape.org/namespaces/inkscape"
   width="24px"
   height="24px"
   viewBox="0 0 24 24"
   version="1.1"
   id="svg3725"
   sodipodi:docname="External_links.svg"
   inkscape:version="0.92.3 (2405546, 2018-03-11)">
  <metadata
     id="metadata3731">
    <rdf:RDF>
      <cc:Work
         rdf:about="">
        <dc:format>image/svg+xml</dc:format>
        <dc:type
           rdf:resource="http://purl.org/dc/dcmitype/StillImage" />
        <dc:title></dc:title>
      </cc:Work>
    </rdf:RDF>
  </metadata>
  <defs
     id="defs3729" />
  <sodipodi:namedview
     pagecolor="#ffffff"
     bordercolor="#666666"
     borderopacity="1"
     objecttolerance="10"
     gridtolerance="10"
     guidetolerance="10"
     inkscape:pageopacity="0"
     inkscape:pageshadow="2"
     inkscape:window-width="1920"
     inkscape:window-height="1009"
     id="namedview3727"
     showgrid="false"
     inkscape:zoom="3.0935922"
     inkscape:cx="-62.071925"
     inkscape:cy="77.306271"
     inkscape:window-x="-8"
     inkscape:window-y="-8"
     inkscape:window-maximized="1"
     inkscape:current-layer="svg3725" />
  <g
     id="g3753"
     inkscape:export-xdpi="96"
     inkscape:export-ydpi="96">
    <rect
       style="fill:#ff7f2a;stroke-width:0.93478262"
       y="6"
       x="3.257143"
       height="14.742857"
       width="14.742857"
       id="rect3733" />
    <path
       id="path3723"
       d="M18,10.82a1,1,0,0,0-1,1V19a1,1,0,0,1-1,1H5a1,1,0,0,1-1-1V8A1,1,0,0,1,5,7h7.18a1,1,0,0,0,0-2H5A3,3,0,0,0,2,8V19a3,3,0,0,0,3,3H16a3,3,0,0,0,3-3V11.82A1,1,0,0,0,18,10.82Zm3.92-8.2a1,1,0,0,0-.54-.54A1,1,0,0,0,21,2H15a1,1,0,0,0,0,2h3.59L8.29,14.29a1,1,0,0,0,0,1.42,1,1,0,0,0,1.42,0L20,5.41V9a1,1,0,0,0,2,0V3A1,1,0,0,0,21.92,2.62Z" />
  </g>
  <g
     id="g3745"
     inkscape:export-xdpi="96"
     inkscape:export-ydpi="96">
    <rect
       id="rect3735"
       width="14.742857"
       height="14.742857"
       x="-44.742859"
       y="6"
       style="fill:#00ff00;stroke-width:0.93478262" />
    <path
       inkscape:connector-curvature="0"
       d="m -30,10.82 a 1,1 0 0 0 -1,1 V 19 a 1,1 0 0 1 -1,1 h -11 a 1,1 0 0 1 -1,-1 V 8 a 1,1 0 0 1 1,-1 h 7.18 a 1,1 0 0 0 0,-2 H -43 a 3,3 0 0 0 -3,3 v 11 a 3,3 0 0 0 3,3 h 11 a 3,3 0 0 0 3,-3 v -7.18 a 1,1 0 0 0 -1,-1 z m 3.92,-8.2 A 1,1 0 0 0 -26.62,2.08 1,1 0 0 0 -27,2 h -6 a 1,1 0 0 0 0,2 h 3.59 l -10.3,10.29 a 1,1 0 0 0 0,1.42 1,1 0 0 0 1.42,0 L -28,5.41 V 9 a 1,1 0 0 0 2,0 V 3 a 1,1 0 0 0 -0.08,-0.38 z"
       id="path3737" />
  </g>
  <g
     id="g3749"
     inkscape:export-xdpi="96"
     inkscape:export-ydpi="96">
    <rect
       id="rect3739"
       width="14.742857"
       height="14.742857"
       x="51.257141"
       y="6"
       style="fill:#ff0000;stroke-width:0.93478262" />
    <path
       inkscape:connector-curvature="0"
       d="m 66,10.82 a 1,1 0 0 0 -1,1 V 19 a 1,1 0 0 1 -1,1 H 53 A 1,1 0 0 1 52,19 V 8 a 1,1 0 0 1 1,-1 h 7.18 a 1,1 0 0 0 0,-2 H 53 a 3,3 0 0 0 -3,3 v 11 a 3,3 0 0 0 3,3 h 11 a 3,3 0 0 0 3,-3 v -7.18 a 1,1 0 0 0 -1,-1 z m 3.92,-8.2 A 1,1 0 0 0 69.38,2.08 1,1 0 0 0 69,2 h -6 a 1,1 0 0 0 0,2 h 3.59 l -10.3,10.29 a 1,1 0 0 0 0,1.42 1,1 0 0 0 1.42,0 L 68,5.41 V 9 a 1,1 0 0 0 2,0 V 3 A 1,1 0 0 0 69.92,2.62 Z"
       id="path3741" />
  </g>
</svg>
