<?xml version="1.0" encoding="UTF-8" standalone="no"?>
<!-- Generator: Adobe Illustrator 16.0.0, SVG Export Plug-In . SVG Version: 6.00 Build 0)  -->

<svg
   xmlns:dc="http://purl.org/dc/elements/1.1/"
   xmlns:cc="http://creativecommons.org/ns#"
   xmlns:rdf="http://www.w3.org/1999/02/22-rdf-syntax-ns#"
   xmlns:svg="http://www.w3.org/2000/svg"
   xmlns="http://www.w3.org/2000/svg"
   xmlns:sodipodi="http://sodipodi.sourceforge.net/DTD/sodipodi-0.dtd"
   xmlns:inkscape="http://www.inkscape.org/namespaces/inkscape"
   version="1.1"
   id="Capa_1"
   x="0px"
   y="0px"
   width="563.366px"
   height="563.365px"
   viewBox="0 0 563.366 563.365"
   style="enable-background:new 0 0 563.366 563.365;"
   xml:space="preserve"
   sodipodi:docname="basketball-player-with-the-ball-svgrepo-com.svg"
   inkscape:version="0.92.3 (2405546, 2018-03-11)"><metadata
   id="metadata63"><rdf:RDF><cc:Work
       rdf:about=""><dc:format>image/svg+xml</dc:format><dc:type
         rdf:resource="http://purl.org/dc/dcmitype/StillImage" /></cc:Work></rdf:RDF></metadata><defs
   id="defs61">
	

		
		
		
		
		
		
		
		
		
		
		
	</defs><sodipodi:namedview
   pagecolor="#ffffff"
   bordercolor="#666666"
   borderopacity="1"
   objecttolerance="10"
   gridtolerance="10"
   guidetolerance="10"
   inkscape:pageopacity="0"
   inkscape:pageshadow="2"
   inkscape:window-width="1920"
   inkscape:window-height="1009"
   id="namedview59"
   showgrid="false"
   inkscape:zoom="0.37276011"
   inkscape:cx="585.77086"
   inkscape:cy="311.97315"
   inkscape:window-x="-8"
   inkscape:window-y="-8"
   inkscape:window-maximized="1"
   inkscape:current-layer="Capa_1" />

<g
   id="g28">
</g>
<g
   id="g30">
</g>
<g
   id="g32">
</g>
<g
   id="g34">
</g>
<g
   id="g36">
</g>
<g
   id="g38">
</g>
<g
   id="g40">
</g>
<g
   id="g42">
</g>
<g
   id="g44">
</g>
<g
   id="g46">
</g>
<g
   id="g48">
</g>
<g
   id="g50">
</g>
<g
   id="g52">
</g>
<g
   id="g54">
</g>
<g
   id="g56">
</g>
<g
   id="g950"><circle
     style="fill:#784421"
     id="circle2"
     r="52.594002"
     cy="52.594002"
     cx="319.93301" /><path
     style="fill:#800080"
     inkscape:connector-curvature="0"
     id="path4"
     d="m 264.155,308.189 c -0.01,0.315 -0.096,0.641 -0.096,0.985 v 4.446 c 10.423,3.318 30.16,7.938 58.561,7.497 22.931,-0.354 41.014,-3.271 53.091,-5.977 v -12.63 c -12.813,4.753 -30.485,7.392 -52.938,7.87 -1.998,0.028 -3.949,0.057 -5.861,0.057 -23.467,0 -41.09,-3.088 -52.756,-9.237 v 6.989 z" /><path
     style="fill:#800080"
     inkscape:connector-curvature="0"
     id="path6"
     d="m 264.06,397.255 c 5.651,2.027 18.934,4.925 47.803,4.753 v -10.901 c -26.125,-0.794 -40.22,-3.921 -47.803,-7.239 z" /><path
     style="fill:#800080"
     inkscape:connector-curvature="0"
     id="path8"
     d="m 375.711,385.034 c -9.734,3.155 -24.824,5.891 -48.014,6.216 v 10.758 c 37.074,-0.125 46.092,-5.527 47.287,-6.397 0.21,-0.249 0.487,-0.401 0.727,-0.612 z" /><path
     style="fill:#784421"
     inkscape:connector-curvature="0"
     id="path10"
     d="m 369.342,116.347 c -2.266,14.143 -3.365,43.271 14.105,81.473 l -0.335,0.153 16.505,32.158 v 42.897 l 0.182,-0.038 c 0.124,0.507 0.812,3.605 -0.182,7.832 V 328.3 c 0,10.557 8.568,19.115 19.125,19.115 10.557,0 19.125,-8.567 19.125,-19.115 V 225.522 c 0,-3.031 -0.727,-6.043 -2.113,-8.75 l -46.216,-90.041 c -2.859,-5.556 -8.09,-9.075 -13.827,-10.05 v -0.325 h -6.369 z" /><path
     style="fill:#784421"
     inkscape:connector-curvature="0"
     id="path12"
     d="m 327.698,539.449 c 0,13.206 10.71,23.916 23.906,23.916 13.206,0 23.906,-10.71 23.906,-23.916 V 410.996 c -8.539,2.907 -23.122,5.269 -47.812,5.355 z" /><path
     style="fill:#784421"
     inkscape:connector-curvature="0"
     id="path14"
     d="m 264.06,539.449 c 0,13.206 10.701,23.916 23.897,23.916 13.205,0 23.906,-10.71 23.906,-23.916 V 416.332 c -0.756,0.01 -1.578,0.028 -2.324,0.028 -22.176,0 -36.375,-1.797 -45.488,-4.169 v 127.258 z" /><path
     style="fill:#784421"
     inkscape:connector-curvature="0"
     id="path16"
     d="m 259.097,165.364 c 5.393,-22.127 4.906,-40.048 4.169,-48.491 -2.563,0.564 -5.059,1.559 -7.306,3.222 l -86.062,63.763 c -2.697,1.989 -4.82,4.666 -6.159,7.736 l -36.653,84.475 c -4.208,9.696 0.229,20.941 9.926,25.159 1.205,0.525 2.429,0.898 3.672,1.166 0,0.144 -0.019,0.277 -0.019,0.411 0,29.883 24.136,53.942 53.78,53.942 29.825,0 54.114,-24.06 54.114,-53.942 0,-29.672 -24.289,-53.865 -54.114,-53.865 -5.145,0 -10.098,0.774 -14.812,2.132 l 17.155,-39.521 z" /><path
     style="fill:#ffd42a"
     inkscape:connector-curvature="0"
     id="path18"
     d="m 319.981,257.709 c 6.751,0 11.207,-4.246 11.207,-10.06 0,-6.847 -4.981,-10.576 -12.546,-12.651 -6.32,1.769 -9.954,6.215 -9.954,11.714 -0.211,5.814 4.141,10.997 11.293,10.997 z" /><path
     style="fill:#ffd42a"
     inkscape:connector-curvature="0"
     id="path20"
     d="m 321.128,225.541 c 4.667,-1.339 8.396,-5.059 8.396,-10.155 0,-4.667 -2.802,-9.543 -9.64,-9.543 -6.426,0 -9.754,4.255 -9.754,9.132 10e-4,5.507 4.573,8.826 10.998,10.566 z" /><path
     style="fill:#ffd42a"
     inkscape:connector-curvature="0"
     id="path22"
     d="m 264.155,283.317 c 0.029,0.048 0.048,0.096 0.086,0.125 4.036,5.077 17.012,13.464 58.226,12.574 29.214,-0.612 44.857,-4.943 53.234,-9.104 v -85.556 l -0.956,0.44 c -17.968,-39.273 -17.547,-69.395 -15.156,-85.451 h -8.864 c -2.286,12.805 -9.41,43.223 -25.608,43.223 -14.947,0 -25.915,-30.418 -29.874,-43.223 h -22.385 c 1.033,11.312 1.53,36.261 -8.711,66.087 v 100.884 h 0.008 z M 298.006,215.5 c 0,-10.997 9.744,-18.465 22.501,-18.465 14.621,0 21.152,8.711 21.152,17.002 0,5.718 -3.013,11.618 -10.376,15.262 v 0.296 c 7.363,2.802 12.853,8.606 12.853,17.012 0,12.02 -10.155,20.11 -24.576,20.11 -15.759,0 -23.954,-9.132 -23.954,-18.561 0,-8.291 4.877,-14 12.651,-17.413 v -0.315 c -7.038,-3.424 -10.251,-9.018 -10.251,-14.928 z" /><path
     inkscape:connector-curvature="0"
     id="path893"
     d="m 311.56892,265.59767 c -4.57122,-1.12391 -7.6132,-2.80014 -10.73982,-5.91801 -3.26958,-3.26043 -4.59295,-6.17321 -4.91818,-10.82506 -0.48377,-6.91952 3.3853,-13.32297 10.20216,-16.88498 1.29165,-0.67492 2.34889,-1.3224 2.34944,-1.43884 5.5e-4,-0.11645 -0.86134,-0.6692 -1.91532,-1.22833 -2.784,-1.47691 -6.26729,-5.4256 -7.37172,-8.35664 -1.29382,-3.4337 -1.06843,-9.01324 0.4992,-12.35782 3.07837,-6.5678 10.16655,-10.7498 19.10683,-11.27298 9.8408,-0.57587 17.6537,3.11542 21.00193,9.92261 1.27103,2.58411 1.38437,3.14406 1.38437,6.83976 0,3.69641 -0.11309,4.25486 -1.38437,6.83624 -1.45205,2.94843 -4.5859,6.20041 -7.16095,7.43088 -0.7543,0.36045 -1.37147,0.80734 -1.37147,0.99311 0,0.18577 1.11188,0.89903 2.47083,1.58503 9.5213,4.80633 12.89038,15.23648 7.95713,24.63402 -2.50952,4.78049 -8.42587,8.84099 -14.87096,10.20624 -4.00945,0.84931 -11.44041,0.76874 -15.2391,-0.16523 z m 13.44203,-8.66659 c 2.21921,-0.92967 4.55454,-3.10755 5.45307,-5.08543 0.88549,-1.94917 1.01532,-5.4735 0.29074,-7.89196 -1.01573,-3.39018 -4.83368,-6.63501 -9.82925,-8.35374 l -2.45124,-0.84335 -2.49473,1.11957 c -7.93065,3.55906 -10.0125,13.73288 -3.90707,19.09352 3.30499,2.90182 8.73033,3.72427 12.93848,1.96139 z m -0.50826,-32.83494 c 6.63668,-3.97966 6.80135,-13.85047 0.28853,-17.29573 -2.34144,-1.23861 -7.372,-1.32222 -9.57584,-0.15914 -3.45285,1.82224 -5.06389,4.40763 -5.06389,8.12653 0,4.47279 2.42468,7.59827 7.52055,9.69421 3.18172,1.30864 4.12216,1.25827 6.83065,-0.36587 z"
     style="opacity:1;fill:#800080;fill-opacity:1;stroke:none;stroke-width:0.95695531;stroke-miterlimit:4;stroke-dasharray:none;stroke-dashoffset:0;stroke-opacity:1" /><g
     transform="matrix(0.21336195,0,0,0.21336195,140.61337,248.8125)"
     id="g911">
	<g
   id="g907">
		<path
   inkscape:connector-curvature="0"
   style="fill:#bf974d"
   d="m 512,256 c 0,28.599 -4.715,56.039 -13.372,81.701 -4.483,13.449 -10.126,26.435 -16.695,38.802 -0.851,1.623 -1.778,3.246 -2.628,4.87 -5.333,9.43 -11.285,18.551 -17.778,27.285 -1.16,1.546 -2.319,3.015 -3.478,4.561 C 411.208,473.353 338.087,512 256,512 c -5.565,0 -11.053,-0.154 -16.464,-0.541 -7.729,-0.464 -15.382,-1.314 -22.879,-2.551 -7.034,-1.005 -13.99,-2.396 -20.87,-4.02 l -80.85,-35.246 C 66.86,437.875 30.145,390.261 12.213,334.3 8.967,324.174 6.339,313.817 4.329,303.228 4.02,301.45 3.711,299.672 3.402,297.895 3.093,296.04 2.784,294.262 2.552,292.484 0.85,280.58 0,268.367 0,256 c 0,-25.662 3.787,-50.473 10.821,-73.816 4.87,-16.387 11.44,-32 19.324,-46.763 9.276,-17.469 20.56,-33.623 33.469,-48.309 C 72.271,77.295 81.623,68.097 91.672,59.75 118.107,37.566 149.025,20.639 182.88,10.59 196.716,6.494 211.015,3.479 225.701,1.779 235.595,0.618 245.72,0 256,0 c 27.053,0 53.025,4.174 77.527,11.981 2.396,0.696 4.715,1.546 7.034,2.319 12.367,4.328 24.348,9.585 35.788,15.691 1.623,0.927 3.324,1.778 4.947,2.782 33.7,18.86 62.686,45.218 84.792,76.831 4.02,5.72 7.729,11.672 11.285,17.778 1.005,1.7 2.01,3.478 2.937,5.179 1.778,3.246 3.478,6.493 5.101,9.817 1.546,3.092 3.092,6.261 4.406,9.43 0.232,0.232 0.309,0.464 0.387,0.773 1.004,2.087 1.855,4.252 2.705,6.415 0.927,2.01 1.7,4.02 2.474,6.106 0.541,1.314 1.005,2.628 1.391,3.942 0.618,1.314 1.082,2.706 1.546,4.097 0.232,0.773 0.464,1.546 0.773,2.319 0.309,1.16 0.696,2.319 1.082,3.401 v 0.077 C 507.826,203.285 512,229.102 512,256 Z"
   id="path895" />
		<path
   inkscape:connector-curvature="0"
   style="opacity:0.1;fill:#ffffff"
   d="m 301.759,140.367 c -6.493,44.522 9.585,92.754 46.299,137.739 6.879,8.425 14.299,16.618 22.338,24.348 29.913,29.295 67.246,54.184 109.449,73.044 0.696,0.386 1.391,0.696 2.087,1.005 -0.851,1.623 -1.778,3.246 -2.628,4.87 -5.333,9.43 -11.285,18.551 -17.778,27.285 -1.16,-0.541 -2.396,-1.082 -3.556,-1.7 -42.898,-20.02 -81.082,-45.836 -112.309,-76.058 -9.584,-9.275 -18.551,-18.937 -26.744,-28.986 -42.512,-52.019 -61.449,-108.831 -55.034,-162.55 0,-0.309 0.077,-0.618 0.077,-0.927 -3.942,0 -7.807,0.077 -11.672,0.232 -16.077,0.309 -32,1.16 -47.691,2.473 v 0.077 c -3.865,31.536 -5.874,64.232 -5.874,97.546 0,66.551 7.961,130.551 23.111,187.826 7.807,29.836 17.546,57.894 29.14,83.478 0.077,0.155 0.154,0.387 0.232,0.541 -1.7,-0.077 -3.401,-0.232 -5.024,-0.464 -2.551,-0.154 -5.024,-0.386 -7.498,-0.695 -10.589,-1.237 -21.024,-3.015 -31.15,-5.488 -7.575,-19.091 -14.3,-39.266 -20.097,-60.29 -17.236,-62.377 -26.357,-132.329 -26.357,-204.908 0,-31.768 1.778,-63.072 5.179,-93.449 -3.942,0.541 -7.884,1.082 -11.826,1.701 -9.507,1.391 -18.937,3.015 -28.135,4.792 -1.778,45.295 -20.87,91.749 -56.116,135.034 -13.604,16.541 -29.063,32.155 -46.222,46.532 -0.773,-2.474 -1.546,-4.947 -2.164,-7.42 -3.324,-11.13 -5.797,-22.648 -7.497,-34.319 9.662,-9.121 18.55,-18.706 26.666,-28.599 27.285,-33.391 43.131,-68.56 46.918,-102.648 -4.019,1.005 -8.038,2.087 -12.058,3.324 -18.551,5.024 -36.329,10.899 -53.256,17.546 0.386,-1.314 0.773,-2.628 1.314,-3.942 4.637,-14.918 10.667,-29.295 18.01,-42.821 10.898,-3.556 22.106,-6.802 33.546,-9.739 3.71,-1.005 7.575,-1.932 11.363,-2.86 -0.077,-0.541 -0.155,-1.16 -0.31,-1.701 -0.773,-4.56 -1.855,-9.043 -3.169,-13.527 -2.087,-7.034 -4.792,-13.913 -7.962,-20.483 6.184,-7.034 12.754,-13.759 19.71,-20.097 2.706,-2.473 5.488,-4.869 8.348,-7.266 6.725,11.671 12.135,24.116 16,37.256 1.701,5.488 3.015,11.208 4.02,16.85 0.077,0.387 0.154,0.696 0.232,1.082 11.904,-2.241 23.884,-4.174 36.097,-5.797 3.865,-0.541 7.884,-1.082 11.826,-1.546 0,-0.077 0,-0.232 0.077,-0.309 5.565,-33.932 13.218,-66.319 22.956,-96.696 10.049,-2.937 20.328,-5.333 30.764,-7.034 4.019,-0.696 8.038,-1.314 12.058,-1.778 -11.517,31.536 -20.638,65.855 -27.053,102.106 16.85,-1.236 33.932,-1.932 51.246,-2.164 3.246,0 6.57,-0.077 9.893,-0.077 h 1.546 c 12.522,-34.242 35.942,-63.614 67.478,-86.415 12.367,4.328 24.348,9.585 35.788,15.691 1.623,0.927 3.324,1.778 4.947,2.782 -30.763,17.391 -54.261,40.889 -67.865,69.025 52.329,2.55 102.648,9.893 149.102,21.72 5.024,1.159 9.971,2.473 14.84,3.865 1.005,1.7 2.01,3.478 2.937,5.179 1.778,3.246 3.478,6.493 5.101,9.817 1.546,3.092 3.092,6.261 4.406,9.43 0.232,0.232 0.309,0.464 0.387,0.773 1.004,2.087 1.855,4.252 2.705,6.415 0.927,2.01 1.7,4.02 2.474,6.106 0.541,1.314 1.005,2.628 1.391,3.942 0.618,1.314 1.082,2.706 1.546,4.097 -0.077,0 -0.077,0 -0.155,-0.077 -15.15,-5.101 -30.918,-9.739 -47.15,-13.681 -46.3,-11.517 -96.696,-18.473 -149.102,-20.405 -0.075,0.46 -0.152,0.924 -0.152,1.387 z"
   id="path897" />
		<path
   inkscape:connector-curvature="0"
   style="fill:#836d54"
   d="m 238.995,510.145 c -0.155,-0.232 -0.232,-0.464 -0.309,-0.695 -10.744,-23.807 -19.865,-49.778 -27.362,-77.295 -15.923,-58.435 -24.348,-124.135 -24.348,-192.464 0,-33.391 2.01,-66.087 5.952,-97.623 1.546,-12.986 3.478,-25.739 5.72,-38.261 6.416,-35.942 15.382,-69.952 26.744,-101.178 0.077,-0.309 0.232,-0.541 0.309,-0.85 -14.686,1.7 -28.986,4.715 -42.821,8.811 -9.739,30.454 -17.469,62.995 -23.034,97.005 0,0.232 -0.077,0.386 -0.077,0.618 -2.087,12.444 -3.788,25.121 -5.257,37.952 0,0.309 -0.077,0.541 -0.077,0.85 -3.324,30.145 -5.102,61.14 -5.102,92.676 0,73.971 9.507,145.237 27.439,208.541 5.488,19.711 11.826,38.647 19.015,56.657 6.879,1.623 13.836,3.015 20.87,4.02 7.497,1.236 15.149,2.087 22.879,2.551 -0.232,-0.465 -0.386,-0.851 -0.541,-1.315 z"
   id="path899" />
		<path
   inkscape:connector-curvature="0"
   style="fill:#836d54"
   d="m 476.908,380.29 c -42.976,-18.087 -81.159,-42.28 -112.077,-71.034 -10.358,-9.585 -19.865,-19.71 -28.444,-30.299 -37.101,-45.449 -53.179,-94.145 -46.222,-139.13 0.928,-5.797 2.164,-11.517 3.865,-17.16 2.009,-6.879 4.637,-13.604 7.729,-20.019 14.454,-30.068 40.425,-54.879 74.589,-72.657 -11.44,-6.106 -23.42,-11.362 -35.788,-15.691 -2.319,-0.773 -4.638,-1.623 -7.034,-2.319 -33.7,23.034 -58.667,53.256 -71.884,88.812 -0.077,0.309 -0.232,0.541 -0.31,0.85 -1.236,3.401 -2.396,6.879 -3.401,10.357 -2.628,8.734 -4.483,17.623 -5.642,26.667 0,0.232 -0.077,0.464 -0.077,0.696 -6.725,54.029 12.29,111.072 54.956,163.401 9.817,12.058 20.638,23.575 32.464,34.396 32.077,29.759 71.034,55.034 114.628,74.358 1.237,0.618 2.551,1.16 3.787,1.701 1.16,-1.546 2.319,-3.015 3.478,-4.561 6.492,-8.734 12.444,-17.855 17.778,-27.285 -0.771,-0.31 -1.622,-0.697 -2.395,-1.083 z"
   id="path901" />
		<path
   inkscape:connector-curvature="0"
   style="fill:#836d54"
   d="m 112,114.937 c -1.159,-6.029 -2.55,-12.058 -4.328,-18.009 -3.169,-10.744 -7.343,-21.025 -12.599,-30.841 -1.004,-2.164 -2.164,-4.251 -3.401,-6.338 -10.048,8.348 -19.401,17.546 -28.058,27.362 3.246,6.57 5.874,13.372 7.961,20.483 1.469,5.024 2.705,10.048 3.556,15.149 0.154,0.696 0.232,1.314 0.309,2.01 1.855,11.98 2.087,24.193 0.696,36.483 -0.077,0.851 -0.155,1.623 -0.309,2.473 -4.251,33.391 -19.942,67.633 -46.531,100.174 -8.116,9.971 -17.082,19.478 -26.667,28.599 0.232,1.778 0.464,3.555 0.773,5.411 0.309,1.778 0.618,3.555 0.927,5.333 2.01,10.589 4.638,20.947 7.884,31.072 3.246,-2.705 6.416,-5.488 9.584,-8.348 13.372,-11.981 25.662,-24.812 36.638,-38.261 35.246,-43.208 54.416,-89.662 56.193,-135.034 0.464,-12.674 -0.386,-25.35 -2.628,-37.718 z"
   id="path903" />
		<path
   inkscape:connector-curvature="0"
   style="fill:#836d54"
   d="m 499.092,175.459 c -0.309,-0.773 -0.618,-1.623 -0.927,-2.396 -0.386,-1.391 -0.85,-2.705 -1.391,-4.019 -0.386,-1.314 -0.85,-2.628 -1.391,-3.942 -0.773,-2.087 -1.546,-4.096 -2.474,-6.106 -0.85,-2.164 -1.701,-4.328 -2.705,-6.415 -0.077,-0.309 -0.155,-0.541 -0.387,-0.773 -1.314,-3.169 -2.86,-6.338 -4.406,-9.43 -1.623,-3.324 -3.324,-6.57 -5.101,-9.817 -6.184,-1.855 -12.522,-3.71 -18.86,-5.333 -49.469,-13.449 -103.498,-21.797 -159.691,-24.58 -13.372,-0.618 -26.822,-1.005 -40.426,-1.005 h -1.546 c -20.638,0 -41.043,0.773 -61.14,2.164 -9.043,0.696 -18.087,1.469 -26.976,2.551 -3.942,0.309 -7.884,0.773 -11.826,1.237 -12.29,1.468 -24.425,3.246 -36.406,5.333 -3.787,0.618 -7.652,1.314 -11.44,2.01 -8.657,1.623 -17.159,3.324 -25.507,5.256 -3.865,0.773 -7.575,1.623 -11.362,2.551 -15.459,3.787 -30.454,7.962 -44.986,12.676 -7.884,14.763 -14.454,30.377 -19.324,46.763 4.329,-1.7 8.657,-3.324 13.063,-4.87 16.695,-6.106 34.087,-11.439 52.251,-16.077 12.522,-3.169 25.352,-6.029 38.493,-8.58 12.985,-2.473 26.357,-4.637 39.884,-6.492 12.599,-1.701 25.43,-3.092 38.416,-4.097 3.865,-0.309 7.807,-0.618 11.672,-0.85 15.691,-1.082 31.613,-1.701 47.613,-1.855 2.473,-0.077 5.024,-0.077 7.575,-0.077 1.392,0 2.706,0 4.097,0.077 8.812,0 17.546,0.232 26.28,0.464 3.865,0.154 7.73,0.309 11.594,0.541 52.251,2.705 102.261,10.357 147.942,22.57 17.469,4.715 34.319,10.048 50.474,16 v -0.077 c -0.386,-1.083 -0.773,-2.242 -1.082,-3.402 z"
   id="path905" />
	</g>
	<path
   inkscape:connector-curvature="0"
   style="opacity:0.07000002;fill:#040000"
   d="m 512,256 c 0,28.599 -4.715,56.039 -13.372,81.701 -5.256,12.985 -11.517,25.662 -18.783,37.797 -0.927,1.623 -1.932,3.246 -2.937,4.792 -5.72,9.275 -11.981,18.164 -18.937,26.667 -1.159,1.546 -2.396,3.015 -3.71,4.56 -22.338,26.744 -50.242,49.624 -83.014,66.86 -8.503,4.483 -17.16,8.502 -25.971,11.981 -3.556,1.469 -7.189,2.783 -10.821,4.097 -4.328,1.546 -8.734,2.937 -13.218,4.328 -3.787,1.082 -7.575,2.164 -11.439,3.091 -19.478,4.87 -39.189,7.653 -58.821,8.193 -1.546,0.077 -3.169,0.077 -4.792,0.077 -2.396,0.077 -4.792,0.077 -7.188,0 -7.42,-0.077 -14.918,-0.464 -22.338,-1.236 -7.034,-1.005 -13.99,-2.396 -20.87,-4.02 l -80.85,-35.246 c 21.179,-5.797 41.894,-12.908 61.836,-21.411 3.633,-1.469 7.188,-3.014 10.667,-4.56 8.116,-3.633 16.077,-7.498 23.884,-11.517 3.555,-1.855 7.034,-3.71 10.512,-5.565 43.672,-23.884 83.324,-54.029 117.797,-89.43 2.01,-2.01 4.02,-4.096 6.029,-6.261 6.57,-7.034 12.986,-14.222 19.169,-21.642 1.932,-2.241 3.787,-4.483 5.565,-6.802 33.546,-41.507 60.521,-88.502 79.304,-139.517 0.541,-1.16 0.927,-2.319 1.314,-3.556 3.865,-10.589 7.343,-21.256 10.435,-32.154 0.386,-1.237 0.696,-2.473 1.082,-3.71 1.237,-4.638 2.396,-9.275 3.555,-13.913 4.02,5.72 7.729,11.672 11.285,17.778 1.005,1.7 2.01,3.478 2.937,5.179 1.778,3.246 3.478,6.493 5.101,9.817 1.546,3.092 3.092,6.261 4.406,9.43 0.232,0.232 0.309,0.464 0.387,0.773 1.004,2.087 1.855,4.252 2.705,6.415 0.927,2.01 1.7,4.02 2.474,6.106 0.541,1.314 1.005,2.628 1.391,3.942 0.618,1.314 1.082,2.706 1.546,4.097 0.232,0.773 0.464,1.546 0.773,2.319 0.309,1.16 0.696,2.319 1.082,3.401 v 0.077 C 507.826,203.285 512,229.102 512,256 Z"
   id="path909" />
</g></g></svg>