<?xml version="1.0" encoding="UTF-8" standalone="no"?>
<!-- Uploaded to: SVG Repo, www.svgrepo.com, Generator: SVG Repo Mixer Tools -->

<svg
   xmlns:dc="http://purl.org/dc/elements/1.1/"
   xmlns:cc="http://creativecommons.org/ns#"
   xmlns:rdf="http://www.w3.org/1999/02/22-rdf-syntax-ns#"
   xmlns:svg="http://www.w3.org/2000/svg"
   xmlns="http://www.w3.org/2000/svg"
   xmlns:sodipodi="http://sodipodi.sourceforge.net/DTD/sodipodi-0.dtd"
   xmlns:inkscape="http://www.inkscape.org/namespaces/inkscape"
   fill="#000000"
   version="1.1"
   id="Capa_1"
   width="800px"
   height="800px"
   viewBox="0 0 155.739 155.739"
   xml:space="preserve"
   sodipodi:docname="human-head-silhouette-with-cogwheels-svgrepo-com.svg"
   inkscape:version="0.92.3 (2405546, 2018-03-11)"><metadata
   id="metadata17"><rdf:RDF><cc:Work
       rdf:about=""><dc:format>image/svg+xml</dc:format><dc:type
         rdf:resource="http://purl.org/dc/dcmitype/StillImage" /></cc:Work></rdf:RDF></metadata><defs
   id="defs15">
	

		
		
		
	</defs><sodipodi:namedview
   pagecolor="#ffffff"
   bordercolor="#666666"
   borderopacity="1"
   objecttolerance="10"
   gridtolerance="10"
   guidetolerance="10"
   inkscape:pageopacity="0"
   inkscape:pageshadow="2"
   inkscape:window-width="1920"
   inkscape:window-height="1009"
   id="namedview13"
   showgrid="false"
   inkscape:zoom="0.295"
   inkscape:cx="400"
   inkscape:cy="400"
   inkscape:window-x="-8"
   inkscape:window-y="-8"
   inkscape:window-maximized="1"
   inkscape:current-layer="Capa_1" />
<path
   d="m 62.54733,25.738 c -8.326,0 -15.073,6.752 -15.073,15.081 0,8.325 6.747,15.078 15.073,15.078 8.33,0 15.079,-6.753 15.079,-15.078 0,-8.329 -6.749,-15.081 -15.079,-15.081 z"
   id="path2"
   inkscape:connector-curvature="0"
   style="fill:#000069;fill-opacity:1"
   inkscape:export-filename="C:\Users\vdegu\Bureau\gittest\jb-master\Docs\Images\Thinking_man.png"
   inkscape:export-xdpi="500"
   inkscape:export-ydpi="500" /><path
   d="m 54.63733,73.074 c -5.354,0 -9.692,4.339 -9.692,9.691 0,5.356 4.338,9.697 9.692,9.697 5.356,0 9.693,-4.341 9.693,-9.697 0,-5.352 -4.337,-9.691 -9.693,-9.691 z"
   id="path4"
   inkscape:connector-curvature="0"
   style="fill:#000069;fill-opacity:1"
   inkscape:export-filename="C:\Users\vdegu\Bureau\gittest\jb-master\Docs\Images\Thinking_man.png"
   inkscape:export-xdpi="500"
   inkscape:export-ydpi="500" /><path
   d="m 102.95833,155.739 h -86.949 c 0,0 25.232,-20.279 24.701,-42.513 -0.317,-12.388 -24.701,-28.158 -24.58,-62.58 0.076,-17.311 16.865,-46.088 45.371,-49.675 28.514,-3.591 49.852,2.685 59.176,20.264 9.335,17.57 10.042,32.999 9.325,35.861 -0.726,2.876 -3.769,8.255 -3.769,8.255 0,0 14.346,22.054 13.457,25.637 -0.908,3.596 -10.748,5.527 -10.748,5.527 0,0 -0.892,2.497 0.906,7.335 1.795,4.846 -3.338,10.468 -4.88,12.43 -1.519,1.954 2.158,8.062 0.908,11.476 -1.253,3.398 -7.176,7.523 -13.986,6.632 -6.819,-0.902 -15.566,-2.504 -18.604,-3.054 -6.859,16.145 9.672,24.405 9.672,24.405 z m -64.36,-65.718 2.947,4.525 2.867,-1.883 c 1.315,1.353 2.919,2.452 4.714,3.207 l -0.708,3.371 5.276,1.1 0.706,-3.364 c 1.97,0.032 3.864,-0.335 5.602,-1.051 l 1.883,2.872 4.527,-2.955 -1.877,-2.872 c 1.346,-1.312 2.451,-2.912 3.199,-4.706 l 3.376,0.705 1.11,-5.285 -3.38,-0.701 c 0.027,-1.952 -0.333,-3.852 -1.045,-5.598 l 2.871,-1.882 -2.952,-4.522 -2.876,1.879 c -1.312,-1.36 -2.908,-2.458 -4.711,-3.212 l 0.708,-3.368 -5.28,-1.111 -0.708,3.374 c -1.952,-0.033 -3.853,0.338 -5.599,1.048 l -1.882,-2.875 -4.52,2.949 1.878,2.878 c -1.351,1.313 -2.456,2.905 -3.208,4.711 l -3.357,-0.7 -1.111,5.28 3.365,0.7 c -0.032,1.958 0.338,3.857 1.051,5.604 z m 49.379,-59.385 -5.218,1.207 c -1.188,-2.685 -2.925,-5.145 -5.157,-7.213 l 2.837,-4.544 -7.115,-4.449 -2.84,4.545 c -2.835,-1.095 -5.807,-1.581 -8.739,-1.475 l -1.2,-5.204 -8.189,1.883 1.204,5.203 c -2.682,1.196 -5.128,2.931 -7.204,5.158 l -4.539,-2.838 -4.454,7.122 4.547,2.829 c -1.097,2.837 -1.576,5.811 -1.479,8.741 l -5.202,1.207 1.888,8.181 5.215,-1.207 c 1.182,2.679 2.917,5.146 5.149,7.212 l -2.842,4.54 7.124,4.448 2.831,-4.539 c 2.846,1.1 5.817,1.587 8.748,1.475 l 1.206,5.204 8.178,-1.888 -1.195,-5.204 c 2.676,-1.186 5.135,-2.925 7.194,-5.155 l 4.55,2.841 4.45,-7.122 -4.55,-2.834 c 1.1,-2.843 1.581,-5.806 1.48,-8.736 l 5.211,-1.204 z"
   id="path6"
   inkscape:connector-curvature="0"
   style="fill:#000069;fill-opacity:1"
   inkscape:export-filename="C:\Users\vdegu\Bureau\gittest\jb-master\Docs\Images\Thinking_man.png"
   inkscape:export-xdpi="500"
   inkscape:export-ydpi="500" />
</svg>