<?xml version="1.0" encoding="UTF-8" standalone="no"?>
<!-- Created with Inkscape (http://www.inkscape.org/) -->

<svg
   xmlns:dc="http://purl.org/dc/elements/1.1/"
   xmlns:cc="http://creativecommons.org/ns#"
   xmlns:rdf="http://www.w3.org/1999/02/22-rdf-syntax-ns#"
   xmlns:svg="http://www.w3.org/2000/svg"
   xmlns="http://www.w3.org/2000/svg"
   xmlns:sodipodi="http://sodipodi.sourceforge.net/DTD/sodipodi-0.dtd"
   xmlns:inkscape="http://www.inkscape.org/namespaces/inkscape"
   width="210mm"
   height="297mm"
   viewBox="0 0 210 297"
   version="1.1"
   id="svg2336"
   inkscape:version="0.92.3 (2405546, 2018-03-11)"
   sodipodi:docname="Puzzle_pieces.svg">
  <defs
     id="defs2330">
    <clipPath
       id="clip0">
      <rect
         id="rect2881"
         height="281"
         width="280"
         y="265"
         x="158" />
    </clipPath>
  </defs>
  <sodipodi:namedview
     id="base"
     pagecolor="#ffffff"
     bordercolor="#666666"
     borderopacity="1.0"
     inkscape:pageopacity="0.0"
     inkscape:pageshadow="2"
     inkscape:zoom="1.4"
     inkscape:cx="112.3878"
     inkscape:cy="730.99453"
     inkscape:document-units="mm"
     inkscape:current-layer="layer1"
     showgrid="false"
     inkscape:window-width="1920"
     inkscape:window-height="1009"
     inkscape:window-x="-8"
     inkscape:window-y="-8"
     inkscape:window-maximized="1" />
  <metadata
     id="metadata2333">
    <rdf:RDF>
      <cc:Work
         rdf:about="">
        <dc:format>image/svg+xml</dc:format>
        <dc:type
           rdf:resource="http://purl.org/dc/dcmitype/StillImage" />
        <dc:title></dc:title>
      </cc:Work>
    </rdf:RDF>
  </metadata>
  <g
     inkscape:label="Calque 1"
     inkscape:groupmode="layer"
     id="layer1">
    <g
       id="g2952"
       inkscape:export-filename="C:\Users\vdegu\Bureau\gittest\nb-master\Docs\Images\puzzle_pieces.png"
       inkscape:export-xdpi="500"
       inkscape:export-ydpi="500">
      <path
         id="path2886"
         stroke-miterlimit="8"
         d="m 95.08609,107.25283 -0.239447,0.18706 -0.262732,0.18548 -0.239448,0.0918 -0.262731,0.0937 h -0.288131 -0.239448 l -0.262731,-0.0476 -0.239448,-0.0918 -0.551127,-0.18547 -0.502179,-0.25611 -0.551128,-0.32518 -0.502179,-0.25426 -0.550862,-0.27914 -0.551127,-0.23124 -0.286015,-0.023 -0.264848,-0.046 h -0.286014 -0.264848 l -0.286279,0.046 -0.311415,0.11483 -0.288131,0.13943 -0.262731,0.2331 -0.334963,0.20849 -0.262731,0.32491 -0.334698,0.39396 -0.265113,0.44159 -0.141816,0.27729 -0.09763,0.30215 -0.04657,0.39397 v 0.41857 l 0.04657,0.39396 0.144198,0.44133 0.192882,0.41698 0.214048,0.39555 0.334697,0.34793 0.360363,0.32358 0.239448,0.11642 0.214048,0.13944 0.239448,0.0937 0.288131,0.0918 0.262731,0.046 0.311679,0.0476 h 0.334698 0.360363 l 0.383381,-0.0476 0.358246,-0.046 0.406929,-0.13944 0.430212,-0.13943 0.671513,-0.20849 0.551127,-0.18548 0.548746,-0.13943 0.527844,-0.046 0.216164,0.046 0.239448,0.0474 0.167217,0.0921 0.239448,0.13944 0.190764,0.16245 0.167482,0.23151 0.190764,0.27914 0.143933,0.34793 0.167482,0.39396 0.144198,0.44159 0.09525,0.51038 0.144198,0.48736 0.09525,0.57944 0.04868,0.57944 0.02355,0.62706 v 0.60405 0.62547 0.67284 l -0.07223,0.62706 -0.09525,0.62706 -0.09552,0.62521 -0.192617,0.58129 -0.167481,0.57917 -0.190765,0.53367 h 1.148557 1.101989 1.10199 0.955675 0.934512 0.81359 0.74189 0.55087 l 0.74162,-0.23151 0.59981,-0.20849 0.55087,-0.32491 0.50244,-0.30216 0.35798,-0.37094 0.38365,-0.39397 0.21616,-0.39555 0.19077,-0.41698 0.14393,-0.44133 0.0487,-0.44 v -0.44159 l -0.0974,-0.39396 -0.14208,-0.46435 -0.23945,-0.39396 -0.21617,-0.39555 -0.38338,-0.37095 -0.31168,-0.39396 -0.28601,-0.39397 -0.16748,-0.44159 -0.19288,-0.48736 -0.0466,-0.51065 v -0.48736 l 0.0466,-0.48763 0.14419,-0.48577 0.21617,-0.44159 0.28601,-0.44159 0.19288,-0.18547 0.21405,-0.23125 0.19288,-0.16245 0.26273,-0.1397 0.23945,-0.13944 0.28813,-0.13943 0.30957,-0.1151 0.31141,-0.0934 0.33496,-0.0921 0.3601,-0.0476 0.43021,-0.0458 h 0.40693 0.45562 l 0.40692,0.0458 0.38339,0.0937 0.35824,0.0937 0.31142,0.11483 0.33496,0.13943 0.26273,0.13944 0.23945,0.18574 0.23945,0.16245 0.16959,0.23125 0.1905,0.2331 0.1442,0.20849 0.21405,0.5334 0.1442,0.48762 0.0487,0.5334 v 0.5334 l -0.0955,0.53367 -0.14394,0.5334 -0.16748,0.46434 -0.19288,0.39397 -0.26273,0.34792 -0.28813,0.27914 -0.28602,0.20849 -0.26299,0.32491 -0.19262,0.30215 -0.16748,0.37095 -0.1442,0.34793 -0.0953,0.39555 -0.0466,0.41698 v 0.44159 l 0.0952,0.3937 0.1442,0.39397 0.16722,0.41857 0.28628,0.39396 0.3601,0.34793 0.43021,0.32517 0.50218,0.30189 0.59981,0.27755 0.26273,0.0476 0.69506,0.13785 1.00436,0.16246 1.34144,0.18547 0.74189,0.0934 0.71834,0.046 0.79031,0.0476 h 0.81386 0.79031 l 0.83714,-0.0476 0.71835,-0.13943 0.79031,-0.13785 -0.14394,-0.34793 -0.0955,-0.41857 -0.072,-0.44 -0.0487,-0.48736 -0.0466,-1.06865 v -1.15888 l 0.0466,-1.16046 0.072,-1.16046 0.14419,-1.0668 0.14394,-0.92922 0.0955,-0.41672 0.14393,-0.30215 0.16749,-0.25427 0.23944,-0.2331 0.26273,-0.1397 0.28628,-0.0918 0.31142,-0.0937 h 0.3347 l 0.31168,0.0476 0.33681,0.0921 0.35825,0.13944 0.31141,0.18547 0.38365,0.16245 0.30929,0.23151 0.33708,0.25612 0.26273,0.32491 0.28602,0.25453 0.36036,0.23283 0.35798,0.18547 0.43233,0.1151 0.40693,0.0476 0.40693,0.0458 0.4535,-0.0458 0.43233,-0.0706 0.40666,-0.13944 0.40693,-0.23151 0.38364,-0.25453 0.31142,-0.3249 0.33496,-0.34793 0.21405,-0.44159 0.19262,-0.48763 0.14419,-0.57917 v -0.32517 -0.25612 -0.32491 l -0.0487,-0.25426 -0.0955,-0.27914 -0.0952,-0.25453 -0.1442,-0.2331 -0.14393,-0.23124 -0.31168,-0.44 -0.35799,-0.34952 -0.47889,-0.32332 -0.45561,-0.21034 -0.50218,-0.23125 -0.50245,-0.0937 -0.50429,-0.0918 -0.50218,0.0458 -0.45561,0.0937 -0.43022,0.18548 -0.16748,0.0918 -0.1905,0.1397 -0.1442,0.16245 -0.16748,0.18547 -0.28813,0.34793 -0.31141,0.27914 -0.33496,0.16245 -0.35799,0.13944 -0.33496,0.046 -0.36036,0.046 -0.35798,-0.046 -0.33496,-0.0937 -0.31142,-0.11483 -0.3347,-0.13943 -0.26511,-0.18548 -0.23945,-0.23309 -0.16721,-0.2085 -0.19077,-0.23151 -0.0955,-0.20849 v -0.2331 -0.76464 -1.18348 -1.57745 -1.74149 -1.76291 -1.785942 -1.601787 -1.252538 l -0.45562,0.25453 -0.55086,0.233097 -0.55086,0.231246 -0.64638,0.116682 -0.64638,0.09181 -0.69294,0.04604 -0.74374,0.04763 h -0.66966 l -0.74163,-0.04763 -0.74189,-0.09181 -0.69506,-0.09366 -0.66966,-0.11483 -0.64612,-0.1397 -0.59981,-0.185473 -0.55112,-0.185472 -0.50218,-0.162455 -0.38127,-0.185473 -0.31168,-0.185472 -0.28813,-0.162455 -0.21616,-0.185473 -0.19077,-0.18706 -0.14393,-0.160867 -0.0468,-0.233098 -0.0487,-0.185472 v -0.208492 l 0.0487,-0.233098 0.14208,-0.254529 0.1442,-0.278871 0.40666,-0.579437 0.59981,-0.627063 0.3347,-0.393965 0.21617,-0.393964 0.19076,-0.44159 0.1442,-0.510381 0.072,-0.44159 v -0.485775 l -0.072,-0.487362 -0.1442,-0.44159 -0.19076,-0.440002 -0.31142,-0.418571 -0.19288,-0.162454 -0.19076,-0.185473 -0.21617,-0.185473 -0.23945,-0.139435 -0.26273,-0.116681 -0.28813,-0.137848 -0.3093,-0.09366 -0.33708,-0.09181 -0.35798,-0.09366 -0.35824,-0.04577 h -0.38365 -0.45561 -0.31142 l -0.38364,0.04577 -0.26273,0.04604 -0.3347,0.09366 -0.21617,0.139436 -0.28601,0.09207 -0.21617,0.162454 -0.19076,0.139435 -0.19288,0.185473 -0.19077,0.185473 -0.11853,0.162454 -0.1442,0.231511 -0.19288,0.441589 -0.11853,0.487363 -0.049,0.487627 v 0.5334 l 0.049,0.5334 0.11853,0.510381 0.19288,0.533665 0.23945,0.487362 0.26273,0.44159 0.35825,0.393965 0.23945,0.324908 0.19288,0.302154 0.11853,0.324908 0.0955,0.300302 v 0.302155 l -0.0468,0.324908 -0.072,0.302154 -0.19077,0.277283 -0.19288,0.21008 -0.26273,0.185472 -0.38338,0.137848 -0.35825,0.09366 h -0.45561 l -0.55086,-0.04604 -0.55113,-0.139435 -0.64638,-0.23151 -0.38126,-0.116417 -0.40693,-0.09366 -0.45561,-0.09181 -0.40693,-0.04604 h -1.02976 l -1.004626,0.04604 -1.053041,0.09181 -1.10199,0.185473 -1.101989,0.162454 -1.053307,0.233098 -0.09525,0.25453 v 0.487362 0.581025 l 0.04868,0.671513 0.190764,1.601787 0.167482,1.785936 0.09525,0.9062 0.04868,0.88132 0.04683,0.85831 0.04868,0.74216 -0.04868,0.71887 -0.09551,0.58102 -0.09525,0.25427 -0.09551,0.2331 -0.07197,0.18547 z"
         inkscape:connector-curvature="0"
         style="fill:#008000;fill-rule:evenodd;stroke:#000000;stroke-width:0.79374999;stroke-miterlimit:8" />
      <path
         id="path2888"
         stroke-miterlimit="8"
         d="m 102.86934,96.01889 0.64082,0.235744 0.54478,0.117211 0.5461,0.04842 h 0.4273 l 0.40322,-0.09525 0.35507,-0.11721 0.28443,-0.188913 0.16695,-0.236008 0.18944,-0.261144 0.0947,-0.282575 0.0468,-0.306123 v -0.354806 l -0.0947,-0.329406 -0.14156,-0.307975 -0.16695,-0.329406 -0.23627,-0.307975 -0.35639,-0.399786 -0.28443,-0.471752 -0.21379,-0.496887 -0.18944,-0.4953 -0.14287,-0.541867 -0.0468,-0.543983 v -0.495036 l 0.0468,-0.543718 0.14287,-0.448469 0.18944,-0.448469 0.1188,-0.235744 0.14288,-0.236008 0.1897,-0.165629 0.16563,-0.187061 0.18944,-0.142345 0.2376,-0.142346 0.26035,-0.116946 0.23786,-0.142346 0.30824,-0.04683 0.28443,-0.09366 0.35533,-0.04842 h 0.33232 0.45006 0.35639 l 0.37915,0.04842 0.35666,0.09366 0.30691,0.09366 0.33258,0.09552 0.26168,0.116946 0.28442,0.142346 0.23628,0.142345 0.21352,0.187061 0.1897,0.165629 0.16695,0.189177 0.28443,0.401638 0.23627,0.448204 0.1188,0.471752 0.0947,0.4953 v 0.496887 l -0.0947,0.4953 -0.1188,0.448205 -0.1897,0.448468 -0.23628,0.424921 -0.3085,0.401638 -0.59267,0.684212 -0.40322,0.588698 -0.14288,0.21246 -0.14155,0.284427 -0.0482,0.212725 v 0.235744 0.236009 l 0.0947,0.163777 0.14287,0.188912 0.16563,0.189177 0.18971,0.165629 0.28443,0.189177 0.30824,0.188913 0.40322,0.164042 0.47413,0.188912 0.59399,0.189177 0.59293,0.165629 0.61543,0.140494 0.68897,0.142081 0.68765,0.09552 0.73422,0.09366 0.68898,0.04683 h 0.7104 0.73554 l 0.68766,-0.04683 0.64108,-0.142345 0.59267,-0.140494 0.59293,-0.188913 0.49795,-0.21246 0.44979,-0.331258 -0.0947,-0.542132 -0.0947,-0.543718 -0.0709,-0.588963 V 94.05966 l -0.0466,-1.29831 0.0466,-1.321594 0.0709,-1.274763 0.0947,-1.132681 0.0947,-0.943504 V 87.309072 87.04978 l -0.14129,-0.282575 -0.11906,-0.259291 -0.2376,-0.284692 -0.23627,-0.212461 -0.30851,-0.18706 -0.33231,-0.189177 -0.30851,-0.118798 -0.35507,-0.09366 -0.37915,-0.09552 h -0.3085 -0.37915 l -0.3085,0.09552 -0.30851,0.140493 -0.28416,0.165629 -0.23786,0.236009 -0.26167,0.21246 -0.331,0.235744 -0.35665,0.142346 -0.40323,0.09366 -0.44979,0.04842 -0.47413,-0.04842 -0.49795,-0.04683 -0.45138,-0.142346 -0.44979,-0.187325 -0.45138,-0.261144 -0.4273,-0.282575 -0.35507,-0.352954 -0.14288,-0.235743 -0.14155,-0.212725 -0.1188,-0.237596 -0.0947,-0.259292 -0.0947,-0.282575 -0.0482,-0.259292 -0.0468,-0.331523 v -0.305858 -0.378354 l 0.0468,-0.352954 0.0482,-0.354542 0.0947,-0.329671 0.0947,-0.260879 0.1188,-0.282839 0.14155,-0.259292 0.18971,-0.235744 0.35639,-0.401637 0.45006,-0.37809 0.47519,-0.259292 0.49795,-0.189177 0.49821,-0.140493 0.49794,-0.07197 h 0.49795 l 0.49821,0.07197 0.47387,0.09366 0.45138,0.189177 0.35507,0.235744 0.33231,0.259292 0.16563,0.189177 0.2376,0.165629 0.26035,0.189177 0.23786,0.0934 0.30824,0.142346 0.28443,0.04683 0.3085,0.04683 0.33099,0.02355 h 0.30851 l 0.33258,-0.02355 0.30824,-0.09366 0.33258,-0.09551 0.30692,-0.0934 0.33258,-0.189177 0.26167,-0.165629 0.33126,-0.236008 0.072,-0.140494 0.14155,-0.118798 0.0947,-0.188913 0.0481,-0.236008 0.14156,-0.448204 0.0482,-0.542131 v -0.637382 -0.637381 l -0.095,-0.684212 -0.0947,-0.660929 -0.28442,-1.46394 -0.30851,-1.29831 -0.35639,-1.179248 -0.33258,-0.920221 -0.73422,0.140494 -0.75962,0.09551 -0.78237,0.09366 h -0.82921 -0.75988 l -0.78237,-0.04683 -0.78238,-0.04683 -0.66489,-0.09551 -1.32715,-0.187325 -1.04405,-0.16563 -0.68765,-0.142345 -0.2376,-0.04683 -0.59293,-0.282575 -0.49795,-0.307975 -0.45005,-0.306123 -0.30824,-0.378089 -0.28443,-0.401638 -0.19103,-0.39952 -0.11747,-0.424921 -0.0947,-0.401638 v -0.448469 l 0.0466,-0.401372 0.095,-0.424921 0.1188,-0.354806 0.14287,-0.352955 0.23627,-0.331258 0.26168,-0.306123 0.28442,-0.236008 0.26035,-0.259292 0.2376,-0.378089 0.21378,-0.401638 0.18945,-0.495035 0.14155,-0.4953 0.0481,-0.543719 0.0466,-0.541867 -0.0947,-0.543983 -0.14155,-0.541867 -0.18945,-0.518583 -0.11879,-0.21246 -0.18971,-0.237596 -0.18971,-0.210873 -0.21352,-0.188913 -0.23759,-0.189177 -0.26035,-0.165629 -0.33258,-0.142346 -0.30851,-0.09366 -0.37914,-0.142082 -0.3564,-0.04683 -0.4019,-0.04683 h -0.47519 -0.40323 l -0.40322,0.04683 -0.35534,0.04683 -0.33231,0.09551 -0.30851,0.0934 -0.33099,0.09551 -0.26167,0.140493 -0.28443,0.165629 -0.21379,0.142346 -0.23627,0.188913 -0.19103,0.164041 -0.16536,0.235744 -0.28443,0.401638 -0.23759,0.495035 -0.11907,0.473604 -0.0466,0.542131 v 0.495036 l 0.0466,0.4953 0.11907,0.496887 0.23759,0.448469 0.28443,0.401373 0.30824,0.423333 0.3085,0.354542 0.28443,0.401638 0.23759,0.42492 0.1188,0.401638 0.095,0.448204 v 0.448469 l -0.0482,0.448204 -0.11879,0.424921 -0.18971,0.448468 -0.28443,0.399786 -0.30824,0.378089 -0.40322,0.401638 -0.47414,0.306123 -0.5461,0.284427 -0.63949,0.259292 -0.6649,0.235743 h -0.54478 -0.73554 -0.78237 -0.901438 -0.971815 -1.04431 -1.090612 -1.139032 l -0.141552,0.777875 -0.166952,1.08585 -0.141287,1.181365 -0.142875,1.249627 -0.141552,1.227931 -0.04815,1.132681 v 0.873125 0.590815 l 0.142875,0.306123 0.141553,0.306123 0.237595,0.237596 0.26035,0.235743 0.332582,0.212461 0.35507,0.140494 0.403225,0.142345 0.380471,0.09366 0.450056,0.04683 0.403225,0.02514 0.403225,-0.02514 0.427303,-0.04683 0.40296,-0.09366 0.355335,-0.189177 0.332317,-0.188912 0.308504,-0.212461 0.284427,-0.282839 0.355062,-0.165629 0.35666,-0.142082 0.42704,-0.04683 0.45006,-0.04683 0.40322,0.04683 0.45138,0.09525 0.47387,0.164042 0.40322,0.237596 0.40323,0.282575 0.33099,0.306123 0.30851,0.401637 0.28575,0.471752 0.16563,0.4953 0.14155,0.59055 0.0479,0.59055 -0.0479,0.448469 -0.14155,0.401373 -0.16563,0.399785 -0.28575,0.331259 -0.30851,0.306122 -0.33099,0.284428 -0.40323,0.212725 -0.40322,0.18706 -0.47387,0.142346 -0.45138,0.09366 h -0.40322 l -0.45006,-0.04683 -0.42704,-0.09366 -0.35666,-0.189178 -0.355062,-0.21246 L 99.501941,84.68917 99.240268,84.383047 98.90901,84.147303 98.60077,83.958126 98.268189,83.84118 97.913118,83.7925 H 97.55677 l -0.379413,0.04868 -0.355071,0.07012 -0.380471,0.189177 -0.35507,0.188912 -0.308505,0.212461 -0.332581,0.282839 -0.26035,0.259292 -0.284427,0.331258 -0.213519,0.352954 -0.142875,0.424921 -0.141552,0.401638 -0.04789,0.495035 0.04789,0.59055 0.04683,0.588963 0.237595,1.39356 0.26035,1.462352 0.142875,0.732631 0.141552,0.754592 0.07197,0.731044 0.04683,0.732896 v 0.614097 l -0.04683,0.63553 -0.02381,0.331258 -0.09499,0.259292 -0.09472,0.282839 -0.142875,0.212461 1.044046,-0.164042 1.090877,-0.235744 1.090877,-0.142346 1.0668,-0.118798 0.995887,-0.04683 h 0.94933 l 0.45006,0.04683 0.47519,0.07197 0.35533,0.09366 z"
         inkscape:connector-curvature="0"
         style="fill:#ff0000;fill-rule:evenodd;stroke:#000000;stroke-width:0.79374999;stroke-miterlimit:8" />
      <path
         id="path2890"
         stroke-miterlimit="8"
         d="m 78.748599,96.339036 h 0.362215 l 0.340518,-0.09234 0.267229,-0.09366 0.241565,-0.139964 0.19394,-0.186267 0.120914,-0.162454 0.09684,-0.232304 0.04974,-0.256117 v -0.278606 l -0.04974,-0.302419 -0.09684,-0.372269 -0.120914,-0.302419 -0.2413,-0.349779 -0.243682,-0.41857 -0.314854,-0.396082 -0.364331,-0.394758 -0.19394,-0.232569 -0.144462,-0.209814 -0.122767,-0.232305 -0.144462,-0.232568 -0.146579,-0.488421 -0.04762,-0.488421 v -0.488685 l 0.144462,-0.488421 0.146579,-0.488686 0.267494,-0.48842 0.291042,-0.419894 0.362214,-0.441061 0.413809,-0.349779 0.459316,-0.324908 0.484981,-0.256117 0.558271,-0.186002 0.558536,-0.139964 0.556154,-0.02381 0.608012,0.02381 0.558271,0.139964 0.508794,0.232304 0.461433,0.256117 0.411692,0.324908 0.362214,0.349779 0.293159,0.394759 0.291041,0.466196 0.168275,0.48842 0.14658,0.488686 0.04736,0.442119 v 0.488685 l -0.0971,0.488421 -0.144463,0.44106 -0.170127,0.419894 -0.338666,0.348456 -0.607748,0.674688 -0.556419,0.628385 -0.219869,0.256117 -0.193939,0.278606 -0.144463,0.256381 -0.0971,0.232304 -0.07329,0.256117 v 0.232304 0.232569 l 0.02381,0.209815 0.146579,0.232304 0.19394,0.210079 0.194204,0.232304 0.31459,0.232304 0.364331,0.210079 0.459316,0.232305 0.534723,0.162454 0.631561,0.139964 0.702733,0.139965 0.702998,0.138642 0.799835,0.04736 0.776023,0.0463 h 0.801952 0.776023 l 0.799836,-0.09366 0.750358,-0.0926 0.728663,-0.186002 0.702733,-0.162454 0.608012,-0.279929 0.508794,-0.302419 0.144463,-0.232304 0.0971,-0.279929 0.09684,-0.254794 0.04974,-0.302419 0.02355,-0.628385 v -0.62865 l -0.02355,-0.720725 -0.0971,-0.720989 -0.0971,-0.6985 -0.146579,-0.76835 -0.31459,-1.418167 -0.241565,-1.396736 -0.04948,-0.581025 -0.04763,-0.582083 0.04763,-0.488685 0.146579,-0.394759 0.144463,-0.419893 0.217752,-0.348457 0.291042,-0.302418 0.267229,-0.278607 0.340519,-0.256116 0.314854,-0.232304 0.388143,-0.186267 0.364332,-0.116152 0.362214,-0.139965 0.387879,-0.0463 h 0.364332 l 0.364331,0.0926 0.338667,0.09366 0.316706,0.162454 0.338667,0.232304 0.267229,0.302419 0.291045,0.325967 0.36433,0.208756 0.36222,0.186267 0.46143,0.1397 h 0.43762 0.45905 l 0.46144,-0.09234 0.41169,-0.139965 0.43762,-0.162454 0.41195,-0.233627 0.36434,-0.278606 0.3384,-0.302419 0.21987,-0.302154 0.24156,-0.418571 0.0968,-0.396081 0.0497,-0.395023 -0.0497,-0.628385 -0.0968,-0.582084 -0.24156,-0.488685 -0.21987,-0.442119 -0.3384,-0.418571 -0.36434,-0.302418 -0.41195,-0.278607 -0.43762,-0.210079 -0.41169,-0.1397 -0.46144,-0.138906 -0.45905,-0.04736 -0.43762,0.04736 -0.46143,0.0463 -0.36222,0.139965 -0.36433,0.186266 -0.291045,0.254794 -0.267229,0.233627 -0.388144,0.162454 -0.364331,0.186267 -0.411692,0.09234 -0.435504,0.04736 -0.414073,0.0463 H 97.13159 l -0.411692,-0.09366 -0.43762,-0.09234 -0.411957,-0.139965 -0.364331,-0.116416 -0.338402,-0.232305 -0.267229,-0.232304 -0.241565,-0.210079 -0.146579,-0.325967 -0.07329,-0.302418 -0.04736,-0.534723 v -0.906992 l 0.07329,-1.070769 0.09684,-1.233223 0.144463,-1.20941 0.146579,-1.20941 0.168275,-1.023409 0.146579,-0.814652 h -0.04948 -0.04762 l -1.431396,-0.04604 -1.358106,-0.07012 -1.237456,-0.09366 -1.164167,-0.09234 -1.0414,-0.139964 -0.873125,-0.09261 -0.655373,-0.09366 h -0.461433 -0.291042 l -0.267229,0.139964 -0.291042,0.186267 -0.217752,0.208492 -0.241564,0.279929 -0.196057,0.302419 -0.12065,0.372268 -0.0971,0.394759 -0.0971,0.396081 -0.04736,0.464873 0.04736,0.396081 0.0971,0.442119 0.14658,0.442383 0.168275,0.394759 0.243416,0.41857 0.364331,0.34978 0.388144,0.395022 0.267229,0.465932 0.241565,0.488421 0.12065,0.44106 0.0971,0.488685 -0.04736,0.488421 -0.04974,0.442384 -0.170127,0.442383 -0.192088,0.418306 -0.316706,0.396081 -0.388144,0.348721 -0.411691,0.325967 -0.461434,0.256116 -0.556154,0.232569 -0.655373,0.138642 -0.655373,0.04736 h -0.364331 -0.338667 l -0.267229,-0.04736 -0.338402,-0.09234 -0.267493,-0.0926 -0.243417,-0.09366 -0.265377,-0.139965 -0.243417,-0.162454 -0.411956,-0.325967 -0.31459,-0.395023 -0.291041,-0.442118 -0.243682,-0.488686 -0.12065,-0.488421 -0.0971,-0.48842 -0.04948,-0.558536 0.04948,-0.488685 0.144463,-0.488421 0.170391,-0.442383 0.243417,-0.394759 0.265377,-0.372269 0.291042,-0.256116 0.243417,-0.279929 0.170391,-0.302419 0.144463,-0.302419 0.0971,-0.325966 0.04948,-0.302419 -0.04948,-0.324909 -0.0971,-0.256116 -0.144463,-0.325967 -0.219869,-0.302419 -0.291041,-0.278606 -0.411692,-0.256117 -0.461433,-0.279929 -0.556154,-0.208491 -0.655373,-0.186267 -0.752475,-0.186267 -0.799836,-0.09366 -1.019704,-0.02249 h -1.261269 l -1.284816,0.02249 -1.358106,0.09366 -1.261269,0.139965 -1.067065,0.138642 -0.823648,0.139964 0.265113,0.884767 0.388144,1.163108 0.31697,1.325563 0.265113,1.395677 0.0971,0.674687 0.09684,0.674688 0.04974,0.652198 v 0.581025 l -0.0971,0.534722 -0.0971,0.465932 -0.07329,0.208756 -0.09684,0.186267 -0.0971,0.1397 -0.144463,0.116416 -0.267229,0.232304 -0.340783,0.186267 -0.265113,0.163513 -0.340518,0.139964 -0.314855,0.0926 -0.340518,0.04604 -0.362215,0.0463 H 67.08102 l -0.338402,-0.0463 -0.267494,-0.04604 -0.338402,-0.0463 -0.267229,-0.09366 -0.291041,-0.138907 -0.267494,-0.163512 -0.2413,-0.139965 -0.194204,-0.232304 -0.316707,-0.256116 -0.362214,-0.232569 -0.437621,-0.162454 -0.508794,-0.09366 -0.461433,-0.0463 h -0.558271 l -0.508794,0.0463 -0.508793,0.116152 -0.510911,0.186267 -0.459316,0.279929 -0.484982,0.348456 -0.364331,0.396082 -0.144462,0.232568 -0.170392,0.256117 -0.0971,0.278606 -0.146579,0.256117 -0.09684,0.325967 -0.04762,0.34872 -0.04948,0.372269 v 0.348456 0.302419 l 0.04948,0.326231 0.04762,0.256117 0.09684,0.278606 0.0971,0.256117 0.146579,0.232304 0.12065,0.233627 0.194204,0.208756 0.340519,0.348457 0.411691,0.326231 0.459317,0.232304 0.461433,0.163777 0.510911,0.138642 0.459052,0.09366 h 0.534723 l 0.461433,-0.0463 0.411692,-0.09366 0.364331,-0.138642 0.338402,-0.209814 0.217752,-0.232569 0.243681,-0.233627 0.26723,-0.162454 0.338666,-0.1397 0.31459,-0.0926 h 0.388144 0.364331 l 0.314854,0.0926 0.387879,0.09366 0.364331,0.139965 0.340784,0.162454 0.265112,0.186002 0.291042,0.232304 0.170392,0.256117 0.193939,0.278871 0.0971,0.256116 0.04948,0.279665 -0.04948,0.744802 -0.0971,0.953294 -0.0971,1.163108 -0.04736,1.186921 -0.04948,1.302014 v 1.303073 l 0.04948,0.62865 0.04736,0.582083 0.0971,0.557213 0.146579,0.512233 0.265113,0.116152 0.414073,0.09393 0.484981,0.09234 0.459317,0.0463 h 1.213643 l 1.284817,-0.0463 1.455208,-0.09234 1.479021,-0.09393 1.504686,-0.09234 z"
         inkscape:connector-curvature="0"
         style="fill:#0000ff;fill-rule:evenodd;stroke:#000000;stroke-width:0.79374999;stroke-miterlimit:8" />
      <text
         y="83.592018"
         x="64.597321"
         id="text2892"
         font-size="11"
         font-weight="400"
         style="font-weight:400;font-size:2.9104166px;font-family:'Comic Sans MS', 'Comic Sans MS_MSFontService', sans-serif;fill:#ffffff;stroke-width:0.26458332">Laboratory Experiments</text>
      <text
         y="74.142609"
         x="103.38633"
         id="text2894"
         font-size="11"
         font-weight="400"
         style="font-weight:400;font-size:2.9104166px;font-family:'Comic Sans MS', 'Comic Sans MS_MSFontService', sans-serif;fill:#ffffff;stroke-width:0.26458332">Remote</text>
      <text
         y="77.582191"
         x="99.571045"
         id="text2896"
         font-size="11"
         font-weight="400"
         style="font-weight:400;font-size:2.9104166px;font-family:'Comic Sans MS', 'Comic Sans MS_MSFontService', sans-serif;fill:#ffffff;stroke-width:0.26458332">Observations</text>
      <path
         id="path2898"
         stroke-miterlimit="8"
         d="m 73.216691,108.62787 0.145256,-0.16139 0.192352,-0.18442 0.16801,-0.13811 0.192353,-0.0923 0.409045,-0.16325 0.457465,-0.0921 0.528637,-0.0463 0.505619,0.0463 0.504561,0.14023 0.505618,0.16139 0.456142,0.27649 0.457465,0.29951 0.384704,0.36857 0.313266,0.44 0.143934,0.20717 0.143933,0.23045 0.07276,0.2786 0.09552,0.25348 0.04842,0.27649 v 0.25347 0.32252 0.30163 l -0.143934,0.52996 -0.168275,0.53208 -0.24077,0.39158 -0.313267,0.41487 -0.336285,0.30162 -0.360628,0.27649 -0.409045,0.16113 -0.433123,0.18442 -0.408782,0.0921 h -0.457464 -0.408781 l -0.432065,-0.0921 -0.408781,-0.0921 -0.361686,-0.18441 -0.384968,-0.20744 -0.263525,-0.27649 -0.28919,-0.30162 -0.312208,-0.27649 -0.337609,-0.20743 -0.360362,-0.18415 -0.312208,-0.18442 -0.386027,-0.11721 -0.311944,-0.0923 -0.33655,-0.046 h -0.313267 l -0.312208,0.046 -0.28919,0.13838 -0.264848,0.11721 -0.239448,0.23045 -0.192352,0.25347 -0.121179,0.32253 -0.09551,0.39396 -0.145257,0.94457 -0.143933,1.06203 -0.09551,1.15412 -0.04842,1.13109 v 1.15411 l 0.04842,1.06204 0.0471,0.50879 0.09684,0.43789 0.09551,0.3937 0.145257,0.34581 0.817827,-0.11536 1.105958,-0.18441 1.25095,-0.0921 1.299369,-0.0942 1.346464,-0.046 h 1.178454 l 1.034257,0.046 0.769673,0.0942 0.745066,0.18442 0.649817,0.16113 0.554037,0.23045 0.504561,0.27649 0.360362,0.25559 0.28919,0.27649 0.216694,0.2995 0.192352,0.27649 0.04842,0.30163 0.0471,0.29951 -0.0471,0.32252 -0.09684,0.29978 -0.143933,0.32464 -0.168275,0.29951 -0.240771,0.27649 -0.264848,0.25347 -0.28919,0.37068 -0.215371,0.39158 -0.192352,0.43789 -0.09684,0.48577 -0.04842,0.48393 v 0.53207 l 0.09684,0.50695 0.143933,0.48604 0.216694,0.48365 0.289189,0.43789 0.311944,0.34766 0.433123,0.36857 0.216694,0.16139 0.287866,0.13811 0.216694,0.0923 0.28919,0.0942 0.311943,0.0921 0.28919,0.0463 h 0.360627 0.336285 l 0.625475,-0.0463 0.649817,-0.14023 0.552715,-0.23045 0.457464,-0.25347 0.433123,-0.32253 0.360363,-0.34766 0.337608,-0.39185 0.168275,-0.4146 0.192352,-0.44 0.04842,-0.48366 0.0471,-0.43789 -0.09552,-0.48604 -0.145256,-0.43762 -0.215371,-0.50906 -0.28919,-0.43762 -0.360362,-0.39184 -0.337608,-0.34767 -0.26379,-0.41486 -0.192352,-0.43974 -0.145256,-0.39158 -0.09551,-0.43789 v -0.46302 -0.39158 l 0.09551,-0.39159 0.09684,-0.39396 0.143934,-0.36857 0.192352,-0.2995 0.216693,-0.27861 0.240771,-0.20743 0.264848,-0.18442 0.287867,-0.13811 0.265112,-0.046 0.4572,0.046 0.648494,0.0921 0.890588,0.0923 1.010179,0.13812 1.154112,0.0921 1.25095,0.0693 1.347788,0.0921 1.370806,0.0482 0.240771,-0.53208 0.168275,-0.57599 0.192352,-0.57812 0.09551,-0.62415 0.09684,-0.62204 0.09551,-0.64717 v -0.6223 -0.62415 -0.62203 l -0.04709,-0.62416 -0.09684,-0.57599 -0.09551,-0.57812 -0.09684,-0.52996 -0.143933,-0.48604 -0.121179,-0.43788 -0.143934,-0.36857 -0.143933,-0.34766 -0.192352,-0.25347 -0.168275,-0.23045 -0.192352,-0.18415 -0.240771,-0.11536 -0.168011,-0.0942 -0.24077,-0.046 -0.216694,-0.046 -0.529961,0.046 -0.552714,0.14023 -0.577056,0.16139 -0.649817,0.23046 -0.433123,0.13811 -0.409046,0.11509 -0.360362,0.0463 -0.384704,0.046 H 89.33299 89.019724 l -0.287867,-0.046 -0.313531,-0.0463 -0.287867,-0.0921 -0.216693,-0.0691 -0.240771,-0.13838 -0.240771,-0.13811 -0.360363,-0.30162 -0.312208,-0.36857 -0.240771,-0.39185 -0.192352,-0.3937 -0.09684,-0.43788 -0.07117,-0.4146 v -0.39397 l 0.0471,-0.39158 0.07249,-0.32253 0.143934,-0.30162 0.289189,-0.43789 0.312209,-0.36856 0.289189,-0.30163 0.311944,-0.27649 0.28919,-0.16139 0.265112,-0.13812 0.312208,-0.13837 0.28919,-0.046 0.287867,-0.046 0.264847,0.046 0.287867,0.046 0.265113,0.046 0.552714,0.23046 0.554302,0.25347 0.504561,0.2786 0.552714,0.29951 0.505884,0.27649 0.552714,0.1614 0.240771,0.0921 0.28919,0.046 h 0.21537 l 0.28919,-0.046 0.216429,-0.046 0.28919,-0.0921 0.263789,-0.1614 0.240771,-0.18441 0.143934,-0.13811 0.07276,-0.1614 0.09657,-0.2323 0.09578,-0.25348 0.09684,-0.57599 v -0.71649 -0.76253 l -0.04842,-0.82947 -0.04842,-0.90064 -0.09578,-0.87763 -0.169333,-1.778262 -0.192353,-1.591998 -0.04709,-0.670189 V 97.109503 96.62558 l 0.09551,-0.301625 -0.50456,0.301625 -0.649552,0.27649 -0.649817,0.161395 -0.745067,0.18415 -0.722312,0.09234 -0.79375,0.09207 -0.79375,0.04604 H 89.52534 l -0.793486,-0.04604 -0.79375,-0.09207 -0.673894,-0.09234 -0.696912,-0.138112 -0.649552,-0.161396 -0.505883,-0.18415 -0.4572,-0.232569 -0.384705,-0.207433 -0.312208,-0.230452 -0.240771,-0.230452 -0.119856,-0.207169 -0.145256,-0.232569 -0.0471,-0.207433 -0.04842,-0.230452 0.04842,-0.230452 0.09551,-0.207169 0.09684,-0.278606 0.119856,-0.253471 0.192352,-0.27649 0.240771,-0.25347 0.552979,-0.578115 0.601134,-0.668073 0.313531,-0.393964 0.192352,-0.414602 0.119592,-0.437886 0.09684,-0.439737 V 90.06947 L 86.278111,89.58343 86.15852,89.099507 85.964845,88.65977 85.676978,88.198866 85.411866,87.761245 85.051503,87.413582 84.61838,87.090791 84.160916,86.83732 l -0.504561,-0.230188 -0.552714,-0.09234 -0.601398,-0.04604 h -0.554038 l -0.552979,0.138377 -0.50456,0.230188 -0.505619,0.207433 -0.481542,0.368829 -0.409046,0.347663 -0.360362,0.391583 -0.287867,0.460904 -0.216694,0.439738 -0.192352,0.483923 -0.09684,0.486039 -0.04842,0.529961 0.04842,0.485775 0.143933,0.437885 0.145256,0.27649 0.143934,0.230452 0.119856,0.209285 0.192352,0.184415 0.361686,0.391583 0.336285,0.391848 0.216694,0.416719 0.240771,0.34581 0.143933,0.345546 0.09684,0.324644 0.02276,0.299508 v 0.27649 l -0.02276,0.25347 -0.09684,0.232569 -0.143933,0.207169 -0.192353,0.138377 -0.216693,0.138112 -0.28919,0.138378 -0.311944,0.04604 H 78.84623 l -1.419225,0.04604 -1.491721,0.06906 -1.467643,0.09234 -1.419225,0.09419 -1.298046,0.04604 h -1.155436 l -0.50456,-0.04604 -0.481542,-0.04815 -0.360362,-0.138377 -0.312208,-0.115094 v 1.269471 1.59385 1.730115 1.82456 1.73011 1.54782 1.20041 0.76226 l 0.04709,0.20744 0.07276,0.23045 0.143933,0.20743 0.192352,0.23019 0.216429,0.23257 0.28919,0.1614 0.312208,0.13811 0.337609,0.13838 0.312208,0.0921 0.384704,0.046 0.360363,-0.046 0.313531,-0.046 0.384704,-0.13837 0.311944,-0.18415 0.337608,-0.25559 z"
         inkscape:connector-curvature="0"
         style="fill:#ff6600;fill-rule:evenodd;stroke:#000000;stroke-width:0.79374999;stroke-miterlimit:8" />
      <text
         y="100.07178"
         x="73.246857"
         id="text2900"
         font-size="11"
         font-weight="400"
         style="font-weight:400;font-size:2.9104166px;font-family:'Comic Sans MS', 'Comic Sans MS_MSFontService', sans-serif;fill:#ffffff;stroke-width:0.26458332">Theoretical</text>
      <text
         y="103.51136"
         x="73.070374"
         id="text2902"
         font-size="11"
         font-weight="400"
         style="font-weight:400;font-size:2.9104166px;font-family:'Comic Sans MS', 'Comic Sans MS_MSFontService', sans-serif;fill:#ffffff;stroke-width:0.26458332">Chemistry /</text>
      <text
         y="106.95094"
         x="76.157272"
         id="text2904"
         font-size="11"
         font-weight="400"
         style="font-weight:400;font-size:2.9104166px;font-family:'Comic Sans MS', 'Comic Sans MS_MSFontService', sans-serif;fill:#ffffff;stroke-width:0.26458332">Physics</text>
      <text
         y="102.45303"
         x="101.55145"
         id="text2906"
         font-size="11"
         font-weight="400"
         style="font-weight:400;font-size:2.9104166px;font-family:'Comic Sans MS', 'Comic Sans MS_MSFontService', sans-serif;fill:#ffffff;stroke-width:0.26458332">Modelling</text>
    </g>
  </g>
</svg>
