<?xml version="1.0" encoding="UTF-8"?><svg id="Layer_1" xmlns="http://www.w3.org/2000/svg" viewBox="0 0 210.61 354.34"><defs><style>.cls-1{fill:#060645;}</style></defs><path class="cls-1" d="M193.02,0H16.86C8.9,0,2.45,6.45,2.45,14.41v126.5c0,56.6,45.88,102.48,102.48,102.48s102.48-45.88,102.48-102.48l.02-126.5C207.43,6.45,200.98,0,193.02,0h0ZM77.75,121.88c-25.65,0-46.44-20.79-46.44-46.44S52.1,29,77.75,29s46.44,20.79,46.44,46.44-20.79,46.44-46.44,46.44Z"/><polygon class="cls-1" points="24.8 261.95 0 261.95 0 267.89 9.08 267.89 9.08 298.5 15.85 298.5 15.85 267.89 24.8 267.89 24.8 261.95"/><path class="cls-1" d="M110.74,261.95c-9.71,0-17.61,8.23-17.61,18.34s7.9,18.34,17.61,18.34,17.61-8.23,17.61-18.34-7.9-18.34-17.61-18.34Zm0,29.93c-5.99,0-10.86-5.2-10.86-11.59s4.87-11.59,10.86-11.59,10.86,5.2,10.86,11.59-4.87,11.59-10.86,11.59Z"/><rect class="cls-1" x="61.15" y="316.75" width="6.52" height="26.16"/><path class="cls-1" d="M64.4,306.29c-2.2,0-4,1.79-4,4s1.79,4,4,4,4-1.79,4-4-1.79-4-4-4Z"/><rect class="cls-1" x="161.83" y="316.75" width="6.52" height="26.16"/><path class="cls-1" d="M165.09,306.29c-2.2,0-4,1.79-4,4s1.79,4,4,4,4-1.79,4-4-1.79-4-4-4Z"/><path class="cls-1" d="M142.1,341.3c2.03,1.31,4.44,1.97,7.18,1.97,1.95,0,3.67-.34,5.12-1,1.46-.67,2.62-1.61,3.44-2.8,.83-1.19,1.25-2.59,1.25-4.15,0-1.85-.59-3.43-1.76-4.71-1.15-1.26-2.81-2.23-4.92-2.86l-4.05-1.21c-.59-.18-1.1-.38-1.54-.6-.42-.2-.74-.46-.97-.77-.22-.3-.33-.67-.33-1.09,0-.68,.26-1.22,.81-1.65s1.32-.65,2.3-.65c1.22,0,2.35,.33,3.33,.99s1.69,1.55,2.11,2.65l.08,.21,5.04-2.37-.07-.18c-.79-2.11-2.14-3.78-4-4.95s-4.03-1.76-6.45-1.76c-1.85,0-3.52,.34-4.96,1-1.44,.67-2.58,1.61-3.39,2.8-.81,1.2-1.22,2.61-1.22,4.2,0,1.79,.57,3.35,1.71,4.66,1.12,1.3,2.8,2.28,4.97,2.91l4.14,1.16c.52,.15,1,.34,1.43,.57,.43,.22,.76,.48,1.01,.79,.23,.29,.35,.66,.35,1.1,0,.75-.29,1.33-.9,1.79-.61,.47-1.46,.7-2.53,.7-1.38,0-2.65-.4-3.77-1.18-1.13-.78-2.02-1.88-2.66-3.27l-.09-.19-4.93,2.36,.06,.17c.76,2.24,2.17,4.04,4.21,5.35h0Z"/><path class="cls-1" d="M35.94,278.4c.78-.45,1.67-.68,2.66-.68s1.93,.23,2.69,.68c.76,.45,1.37,1.09,1.8,1.89,.43,.81,.65,1.78,.65,2.9v15.3h6.28v-16.76c0-1.92-.41-3.63-1.23-5.1-.82-1.46-1.98-2.62-3.44-3.44s-3.16-1.23-5.05-1.23-3.44,.41-4.81,1.21c-.55,.32-1.13,.84-1.63,1.45l-.4,.49v-13.17h-6.27v36.54h6.28v-15.03c0-1.21,.25-2.42,.66-3.17,.43-.8,1.04-1.44,1.82-1.89h0Z"/><path class="cls-1" d="M17.87,343.27c8.38,0,15.2-6.82,15.2-15.2v-21.77h-6.77v21.77c0,4.65-3.79,8.44-8.44,8.44s-8.44-3.79-8.44-8.44v-21.77H2.65v21.77c0,8.38,6.82,15.2,15.21,15.2h0Z"/><path class="cls-1" d="M77.82,285.99c.1-.67,.1-1.01,.1-1.43,0-1.73-.29-3.36-.85-4.85-.57-1.49-1.4-2.84-2.46-4-1.07-1.16-2.38-2.09-3.91-2.75-1.53-.66-3.32-.99-5.33-.99-2.39,0-4.58,.59-6.51,1.75s-3.48,2.76-4.59,4.76c-1.11,1.99-1.68,4.31-1.68,6.89s.56,4.78,1.66,6.82,2.66,3.69,4.64,4.88c1.98,1.19,4.32,1.8,6.96,1.8,1.76,0,3.39-.27,4.85-.8,1.46-.54,2.75-1.28,3.81-2.23,1.07-.94,1.87-2.04,2.37-3.27l.02-.05-5.09-2.5-.03,.04c-.56,.99-1.34,1.8-2.32,2.39-.98,.59-2.18,.89-3.58,.89s-2.65-.33-3.72-.98c-1.07-.65-1.89-1.59-2.43-2.78-.29-.64-.49-1.34-.59-2.1l-.03-.26h18.44c.06-.15,.17-.51,.27-1.21h0v-.02Zm-18.58-3.61l.06-.28c.1-.41,.22-.81,.38-1.18,.51-1.23,1.28-2.17,2.27-2.8,.99-.64,2.14-.96,3.41-.96s2.49,.33,3.44,.98c.94,.65,1.64,1.55,2.06,2.66,.15,.41,.26,.86,.32,1.32l.03,.26h-11.97Z"/><path class="cls-1" d="M184.91,284.56c0-1.73-.29-3.36-.85-4.85-.57-1.49-1.4-2.84-2.46-4-1.07-1.16-2.38-2.09-3.91-2.75-1.52-.66-3.32-.99-5.33-.99-2.39,0-4.58,.59-6.51,1.75s-3.48,2.76-4.59,4.76c-1.12,1.99-1.68,4.31-1.68,6.89s.56,4.78,1.66,6.82,2.66,3.68,4.64,4.88c1.98,1.19,4.32,1.8,6.96,1.8,1.76,0,3.39-.27,4.85-.8,1.46-.54,2.74-1.28,3.81-2.23,1.07-.94,1.87-2.05,2.37-3.27l.02-.05-5.09-2.5-.03,.04c-.56,.99-1.34,1.8-2.32,2.39-.98,.59-2.18,.89-3.58,.89s-2.65-.33-3.72-.98c-1.07-.65-1.89-1.59-2.43-2.78-.29-.64-.49-1.34-.59-2.1l-.03-.26h18.44c.06-.15,.17-.51,.27-1.21,.1-.67,.1-1.01,.1-1.43v-.02Zm-18.67-2.18l.07-.28c.1-.42,.22-.81,.38-1.18,.51-1.23,1.28-2.17,2.27-2.8,.99-.64,2.14-.96,3.41-.96s2.49,.33,3.44,.98c.94,.65,1.64,1.55,2.06,2.66,.15,.41,.26,.86,.32,1.32l.03,.26h-11.98Z"/><path class="cls-1" d="M119.47,328.98c0-1.73-.29-3.36-.85-4.85-.57-1.49-1.4-2.84-2.46-4-1.07-1.16-2.39-2.09-3.91-2.75-1.52-.66-3.32-.99-5.33-.99-2.39,0-4.58,.59-6.51,1.75s-3.48,2.76-4.59,4.76c-1.12,1.99-1.68,4.31-1.68,6.89s.56,4.78,1.66,6.82c1.1,2.04,2.66,3.68,4.64,4.88,1.98,1.19,4.32,1.8,6.96,1.8,1.76,0,3.39-.27,4.85-.8,1.46-.54,2.75-1.29,3.81-2.23,1.07-.94,1.87-2.05,2.37-3.27l.02-.05-5.09-2.5-.03,.04c-.56,.99-1.34,1.8-2.32,2.39-.98,.59-2.18,.89-3.58,.89s-2.65-.33-3.72-.98c-1.07-.65-1.89-1.59-2.43-2.78-.29-.64-.49-1.35-.59-2.1l-.03-.26h18.44c.06-.15,.17-.51,.27-1.21,.1-.67,.1-1.01,.1-1.43v-.02Zm-18.67-2.18l.07-.28c.1-.42,.22-.81,.38-1.18,.51-1.23,1.28-2.17,2.27-2.8,.99-.64,2.14-.96,3.41-.96s2.49,.33,3.44,.98c.95,.65,1.64,1.55,2.06,2.66,.15,.41,.26,.86,.32,1.32l.03,.26h-11.98Z"/><path class="cls-1" d="M175.08,340.78c1.65,1.65,4.01,2.49,7.02,2.49,.5,0,1.04-.03,1.62-.1,.59-.07,1.11-.13,1.57-.2h.04v-5.59l-.96,.1c-.31,.03-.58,.05-.8,.05-1.03,0-1.89-.16-2.55-.49-.66-.32-1.14-.79-1.45-1.4s-.46-1.36-.46-2.23v-11.64h4.21v-5.03h-4.21v-6.37h-6.09v6.37h-2.11v5.03h2.1v11.98c0,3.52,.6,5.56,2.06,7.02h.01Z"/><path class="cls-1" d="M88.26,316.75l-5.03,15.55c-.12,.36-.2,.73-.25,1.12l-.33,2.66-.34-2.66c-.05-.38-.13-.75-.25-1.12l-5.03-15.55h-7.09l9.83,26.16h5.75l9.83-26.16h-7.09Z"/><path class="cls-1" d="M203.5,316.75l-5.33,15.55c-.12,.36-.2,.74-.25,1.11l-.33,2.66-.34-2.66c-.05-.38-.13-.75-.25-1.11l-4.72-15.55h-6.4l6.81,24.31c.34,1.21,.71,1.68,1.47,1.85l.26,.06-4.31,11.37h6.71l13.79-37.59h-7.11Z"/><path class="cls-1" d="M195.59,278.4c.78-.45,1.67-.68,2.67-.68s1.93,.23,2.69,.68c.76,.45,1.36,1.09,1.8,1.89,.43,.81,.65,1.78,.65,2.9v15.29h6.28v-16.75c0-1.92-.41-3.63-1.23-5.1-.82-1.46-1.97-2.62-3.44-3.44-1.46-.82-3.16-1.23-5.05-1.23s-3.44,.41-4.81,1.21c-.59,.34-1.15,.81-1.63,1.34l-.3,.33-.09-.43s-.04-.21-.09-.36c-.38-1.16-1.19-1.72-2.49-1.72h-3.69v26.15h6.28v-15.29c0-1.12,.22-2.1,.65-2.9s1.05-1.44,1.82-1.89h-.02Z"/><path class="cls-1" d="M139.52,297.72c1.55,.74,3.28,1.11,5.13,1.11,2.48,0,4.72-.6,6.67-1.77,1.94-1.18,3.5-2.81,4.64-4.85,1.13-2.04,1.7-4.33,1.7-6.81s-.58-4.8-1.73-6.81c-2.42-4.21-6.43-6.63-11-6.63-1.82,0-5.22,.33-7.54,2.56l-.3,.28-.09-.4s-.04-.21-.09-.35c-.38-1.16-1.19-1.72-2.5-1.72h-3.69v37.59h6.28v-13.92l.37,.31c.65,.57,1.37,1.04,2.14,1.41h0Zm-1.6-16.27c.6-1.16,1.45-2.08,2.52-2.74,1.07-.65,2.29-.98,3.62-.98s2.65,.34,3.74,1c1.09,.67,1.94,1.58,2.55,2.71s.91,2.46,.91,3.95-.31,2.83-.91,3.98c-.6,1.15-1.46,2.06-2.55,2.71s-2.35,.98-3.74,.98-2.55-.33-3.62-.98c-1.07-.65-1.92-1.56-2.52-2.71-.61-1.15-.91-2.49-.91-3.98s.31-2.79,.91-3.96v.02Z"/><path class="cls-1" d="M44.43,322.82c.78-.45,1.67-.68,2.66-.68s1.93,.23,2.69,.68c.76,.45,1.37,1.09,1.8,1.89,.43,.81,.65,1.78,.65,2.9v15.29h6.28v-16.75c0-1.92-.41-3.63-1.23-5.09s-1.98-2.62-3.44-3.44-3.16-1.23-5.05-1.23-3.44,.41-4.81,1.21c-.59,.35-1.15,.81-1.63,1.34l-.3,.33-.09-.44s-.04-.21-.09-.35c-.38-1.16-1.19-1.72-2.5-1.72h-3.69v26.15h6.28v-15.29c0-1.12,.22-2.1,.66-2.9,.43-.8,1.04-1.44,1.82-1.89h0Z"/><path class="cls-1" d="M134.65,322.16c1.14,0,1.95,.14,2.35,.24v-5.79c-.24-.08-.79-.23-1.62-.24-1.3,0-2.35,.09-3.58,.53-.99,.35-1.98,1.02-3.04,2.04l-.3,.28-.09-.4s-.04-.21-.09-.35c-.38-1.16-1.19-1.72-2.5-1.72h-3.69v26.15h6.28v-14.34c0-2.53,1.33-4.14,1.9-4.72,1.05-1.07,2.65-1.68,4.38-1.68h0Z"/></svg>