<?xml version="1.0" encoding="utf-8"?>
<!-- Generator: Adobe Illustrator 27.0.1, SVG Export Plug-In . SVG Version: 6.00 Build 0)  -->
<svg version="1.1" id="Layer_1" xmlns="http://www.w3.org/2000/svg" xmlns:xlink="http://www.w3.org/1999/xlink" x="0px" y="0px"
	 viewBox="0 0 28.4 42.5" style="enable-background:new 0 0 28.4 42.5;" xml:space="preserve">
<style type="text/css">
	.st0{fill:#060645;}
</style>
<path class="st0" d="M24.4,1H4.6C3.7,1,3,1.7,3,2.6v14.2c0,6.3,5.1,11.5,11.5,11.5S26,23.1,26,16.8V2.6C26,1.7,25.3,1,24.4,1L24.4,1
	z M11.4,14.7c-2.9,0-5.2-2.3-5.2-5.2s2.3-5.2,5.2-5.2s5.2,2.3,5.2,5.2S14.3,14.7,11.4,14.7z"/>
<polygon class="st0" points="5.5,30.4 2.8,30.4 2.8,31 3.8,31 3.8,34.4 4.5,34.4 4.5,31 5.5,31 "/>
<path class="st0" d="M15.1,30.4c-1.1,0-2,0.9-2,2c0,1.1,0.9,2,2,2s2-0.9,2-2S16.2,30.4,15.1,30.4z M15.1,33.7
	c-0.7,0-1.2-0.6-1.2-1.3s0.6-1.3,1.2-1.3s1.2,0.6,1.2,1.3C16.4,33.1,15.8,33.7,15.1,33.7z"/>
<rect x="9.6" y="36.5" class="st0" width="0.7" height="2.9"/>
<path class="st0" d="M10,35.3c-0.2,0-0.4,0.2-0.4,0.5s0.2,0.5,0.4,0.5s0.4-0.2,0.4-0.5S10.2,35.3,10,35.3z"/>
<rect x="20.9" y="36.5" class="st0" width="0.7" height="2.9"/>
<path class="st0" d="M21.2,35.3c-0.2,0-0.5,0.2-0.5,0.5s0.2,0.5,0.5,0.5s0.5-0.2,0.5-0.5S21.5,35.3,21.2,35.3z"/>
<path class="st0" d="M18.7,39.2c0.2,0.2,0.5,0.2,0.8,0.2c0.2,0,0.4,0,0.6-0.1s0.3-0.2,0.4-0.3c0.1-0.1,0.1-0.3,0.1-0.5
	c0-0.2-0.1-0.4-0.2-0.5c-0.1-0.1-0.3-0.2-0.5-0.3l-0.5-0.1c-0.1,0-0.1,0-0.2-0.1c0,0-0.1,0-0.1-0.1c0,0,0-0.1,0-0.1
	c0-0.1,0-0.1,0.1-0.2s0.1-0.1,0.3-0.1c0.1,0,0.3,0,0.4,0.1s0.2,0.2,0.2,0.3v0l0.6-0.3v0c-0.1-0.2-0.2-0.4-0.5-0.5s-0.5-0.2-0.7-0.2
	c-0.2,0-0.4,0-0.6,0.1c-0.2,0.1-0.3,0.2-0.4,0.3c-0.1,0.1-0.1,0.3-0.1,0.5c0,0.2,0.1,0.4,0.2,0.5c0.1,0.2,0.3,0.3,0.6,0.3l0.5,0.1
	c0.1,0,0.1,0,0.2,0.1s0.1,0,0.1,0.1c0,0,0,0.1,0,0.1c0,0.1,0,0.2-0.1,0.2s-0.2,0.1-0.3,0.1c-0.1,0-0.3,0-0.4-0.1
	c-0.1-0.1-0.2-0.2-0.3-0.4v0l-0.6,0.3v0C18.3,38.9,18.4,39.1,18.7,39.2L18.7,39.2z"/>
<path class="st0" d="M6.8,32.2c0.1,0,0.2-0.1,0.3-0.1s0.2,0,0.3,0.1c0.1,0,0.2,0.1,0.2,0.2c0.1,0.1,0.1,0.2,0.1,0.3v1.7h0.7v-1.9
	c0-0.2-0.1-0.4-0.1-0.6S8,31.7,7.8,31.6c-0.2-0.1-0.3-0.1-0.6-0.1s-0.4,0-0.5,0.1c-0.1,0-0.1,0.1-0.2,0.2l-0.1,0v-1.5H5.8v4.1h0.7
	v-1.7c0-0.1,0-0.3,0.1-0.3C6.6,32.3,6.7,32.2,6.8,32.2L6.8,32.2z"/>
<path class="st0" d="M4.8,39.5c0.9,0,1.7-0.8,1.7-1.7v-2.4H5.7v2.4c0,0.5-0.4,1-0.9,1s-1-0.4-1-1v-2.4H3v2.4
	C3,38.7,3.8,39.5,4.8,39.5L4.8,39.5z"/>
<path class="st0" d="M11.5,33c0-0.1,0-0.1,0-0.2c0-0.2,0-0.4-0.1-0.5c-0.1-0.2-0.2-0.3-0.3-0.5c-0.1-0.1-0.3-0.2-0.4-0.3
	c-0.2-0.1-0.4-0.1-0.6-0.1c-0.3,0-0.5,0.1-0.7,0.2c-0.2,0.1-0.4,0.3-0.5,0.5S8.6,32.7,8.6,33s0.1,0.5,0.2,0.8
	c0.1,0.2,0.3,0.4,0.5,0.5c0.2,0.1,0.5,0.2,0.8,0.2c0.2,0,0.4,0,0.5-0.1s0.3-0.1,0.4-0.2s0.2-0.2,0.3-0.4l0,0l-0.6-0.3l0,0
	c-0.1,0.1-0.1,0.2-0.3,0.3c-0.1,0.1-0.2,0.1-0.4,0.1s-0.3,0-0.4-0.1s-0.2-0.2-0.3-0.3c0-0.1-0.1-0.2-0.1-0.2v0h2.1
	C11.4,33.2,11.4,33.1,11.5,33L11.5,33L11.5,33z M9.4,32.6L9.4,32.6c0,0,0-0.1,0.1-0.2c0.1-0.1,0.1-0.2,0.2-0.3s0.2-0.1,0.4-0.1
	c0.1,0,0.3,0,0.4,0.1c0.1,0.1,0.2,0.2,0.2,0.3c0,0,0,0.1,0,0.2v0L9.4,32.6L9.4,32.6z"/>
<path class="st0" d="M23.5,32.9c0-0.2,0-0.4-0.1-0.5c-0.1-0.2-0.2-0.3-0.3-0.5c-0.1-0.1-0.3-0.2-0.4-0.3c-0.2-0.1-0.4-0.1-0.6-0.1
	c-0.3,0-0.5,0.1-0.7,0.2c-0.2,0.1-0.4,0.3-0.5,0.5s-0.2,0.5-0.2,0.8s0.1,0.5,0.2,0.8c0.1,0.2,0.3,0.4,0.5,0.5
	c0.2,0.1,0.5,0.2,0.8,0.2c0.2,0,0.4,0,0.5-0.1c0.2-0.1,0.3-0.1,0.4-0.2s0.2-0.2,0.3-0.4l0,0l-0.6-0.3l0,0c-0.1,0.1-0.1,0.2-0.3,0.3
	c-0.1,0.1-0.2,0.1-0.4,0.1s-0.3,0-0.4-0.1s-0.2-0.2-0.3-0.3c0-0.1,0-0.2-0.1-0.2v0h2.1c0,0,0-0.1,0-0.1C23.5,33,23.5,32.9,23.5,32.9
	L23.5,32.9z M21.4,32.6L21.4,32.6c0,0,0-0.1,0-0.2c0.1-0.1,0.1-0.2,0.2-0.3s0.2-0.1,0.4-0.1c0.1,0,0.3,0,0.4,0.1
	c0.1,0.1,0.2,0.2,0.2,0.3c0,0,0,0.1,0,0.2v0L21.4,32.6L21.4,32.6z"/>
<path class="st0" d="M16.1,37.9c0-0.2,0-0.4-0.1-0.5c-0.1-0.2-0.2-0.3-0.3-0.5s-0.3-0.2-0.4-0.3c-0.2-0.1-0.4-0.1-0.6-0.1
	c-0.3,0-0.5,0.1-0.7,0.2c-0.2,0.1-0.4,0.3-0.5,0.5c-0.1,0.2-0.2,0.5-0.2,0.8s0.1,0.5,0.2,0.8c0.1,0.2,0.3,0.4,0.5,0.5
	c0.2,0.1,0.5,0.2,0.8,0.2c0.2,0,0.4,0,0.5-0.1s0.3-0.1,0.4-0.2s0.2-0.2,0.3-0.4l0,0l-0.6-0.3l0,0c-0.1,0.1-0.1,0.2-0.3,0.3
	c-0.1,0.1-0.2,0.1-0.4,0.1s-0.3,0-0.4-0.1s-0.2-0.2-0.3-0.3c0-0.1-0.1-0.2-0.1-0.2v0h2.1c0,0,0-0.1,0-0.1
	C16.1,37.9,16.1,37.9,16.1,37.9L16.1,37.9z M14,37.6L14,37.6c0,0,0-0.1,0.1-0.2c0.1-0.1,0.1-0.2,0.2-0.3s0.2-0.1,0.4-0.1
	c0.1,0,0.3,0,0.4,0.1c0.1,0.1,0.2,0.2,0.2,0.3c0,0,0,0.1,0,0.2v0L14,37.6L14,37.6z"/>
<path class="st0" d="M22.4,39.2c0.2,0.2,0.5,0.3,0.8,0.3c0.1,0,0.1,0,0.2,0c0.1,0,0.1,0,0.2,0l0,0v-0.6h-0.1c0,0-0.1,0-0.1,0
	c-0.1,0-0.2,0-0.3,0c-0.1,0-0.1-0.1-0.2-0.2s0-0.2,0-0.2v-1.3h0.5v-0.6h-0.5v-0.7h-0.7v0.7h-0.2v0.6h0.2v1.3
	C22.1,38.8,22.2,39,22.4,39.2L22.4,39.2z"/>
<path class="st0" d="M12.6,36.5l-0.6,1.7c0,0,0,0.1,0,0.1l0,0.3l0-0.3c0,0,0-0.1,0-0.1l-0.6-1.7h-0.8l1.1,2.9h0.6l1.1-2.9
	C13.4,36.5,12.6,36.5,12.6,36.5z"/>
<path class="st0" d="M25.5,36.5l-0.6,1.7c0,0,0,0.1,0,0.1l0,0.3l0-0.3c0,0,0-0.1,0-0.1l-0.5-1.7h-0.7l0.8,2.7c0,0.1,0.1,0.2,0.2,0.2
	h0L24,40.7h0.8l1.5-4.2H25.5L25.5,36.5z"/>
<path class="st0" d="M24.6,32.2c0.1,0,0.2-0.1,0.3-0.1s0.2,0,0.3,0.1c0.1,0,0.1,0.1,0.2,0.2c0,0.1,0.1,0.2,0.1,0.3v1.7h0.7v-1.9
	c0-0.2,0-0.4-0.1-0.6s-0.2-0.3-0.4-0.4c-0.2-0.1-0.4-0.1-0.6-0.1s-0.4,0-0.5,0.1c-0.1,0-0.1,0.1-0.2,0.1l0,0v0c0,0,0,0,0,0
	c0-0.1-0.1-0.2-0.3-0.2h-0.4v2.9h0.7v-1.7c0-0.1,0-0.2,0.1-0.3S24.5,32.2,24.6,32.2L24.6,32.2z"/>
<path class="st0" d="M18.4,34.4c0.2,0.1,0.4,0.1,0.6,0.1c0.3,0,0.5-0.1,0.8-0.2s0.4-0.3,0.5-0.5c0.1-0.2,0.2-0.5,0.2-0.8
	s-0.1-0.5-0.2-0.8c-0.3-0.5-0.7-0.7-1.2-0.7c-0.2,0-0.6,0-0.8,0.3l0,0v0c0,0,0,0,0,0c0-0.1-0.1-0.2-0.3-0.2h-0.4v4.2h0.7v-1.6l0,0
	C18.2,34.3,18.3,34.3,18.4,34.4L18.4,34.4z M18.2,32.5c0.1-0.1,0.2-0.2,0.3-0.3c0.1-0.1,0.3-0.1,0.4-0.1s0.3,0,0.4,0.1
	s0.2,0.2,0.3,0.3c0.1,0.1,0.1,0.3,0.1,0.4s0,0.3-0.1,0.5s-0.2,0.2-0.3,0.3c-0.1,0.1-0.3,0.1-0.4,0.1s-0.3,0-0.4-0.1
	c-0.1-0.1-0.2-0.2-0.3-0.3c-0.1-0.1-0.1-0.3-0.1-0.5S18.1,32.7,18.2,32.5L18.2,32.5z"/>
<path class="st0" d="M7.7,37.2c0.1,0,0.2-0.1,0.3-0.1s0.2,0,0.3,0.1c0.1,0,0.1,0.1,0.2,0.2s0.1,0.2,0.1,0.3v1.7h0.7v-1.9
	c0-0.2-0.1-0.4-0.1-0.6s-0.2-0.3-0.4-0.4c-0.2-0.1-0.4-0.1-0.6-0.1s-0.4,0-0.5,0.1c-0.1,0-0.1,0.1-0.2,0.2l0,0v0c0,0,0,0,0,0
	c0-0.1-0.1-0.2-0.3-0.2H6.7v2.9h0.7v-1.7c0-0.1,0-0.2,0.1-0.3S7.6,37.2,7.7,37.2L7.7,37.2z"/>
<path class="st0" d="M17.8,37.1c0.1,0,0.2,0,0.3,0v-0.7c0,0-0.1,0-0.2,0c-0.1,0-0.3,0-0.4,0.1c-0.1,0-0.2,0.1-0.3,0.2l0,0v0
	c0,0,0,0,0,0c0-0.1-0.1-0.2-0.3-0.2h-0.4v2.9h0.7v-1.6c0-0.3,0.1-0.5,0.2-0.5C17.5,37.2,17.6,37.1,17.8,37.1z"/>
</svg>
