<?xml version="1.0" encoding="UTF-8"?><svg id="Layer_1" xmlns="http://www.w3.org/2000/svg" viewBox="0 0 28.35 42.52"><defs><style>.cls-1{fill:#fff;}</style></defs><path class="cls-1" d="M24.36,1.02H4.63c-.89,0-1.61,.72-1.61,1.61v14.17c0,6.34,5.14,11.48,11.48,11.48s11.48-5.14,11.48-11.48V2.64c0-.89-.72-1.61-1.61-1.61ZM11.45,14.67c-2.87,0-5.2-2.33-5.2-5.2s2.33-5.2,5.2-5.2,5.2,2.33,5.2,5.2-2.33,5.2-5.2,5.2Z"/><polygon class="cls-1" points="5.52 30.36 2.75 30.36 2.75 31.03 3.76 31.03 3.76 34.45 4.52 34.45 4.52 31.03 5.52 31.03 5.52 30.36"/><path class="cls-1" d="M15.15,30.36c-1.09,0-1.97,.92-1.97,2.05s.88,2.05,1.97,2.05,1.97-.92,1.97-2.05-.88-2.05-1.97-2.05Zm0,3.35c-.67,0-1.22-.58-1.22-1.3s.55-1.3,1.22-1.3,1.22,.58,1.22,1.3-.55,1.3-1.22,1.3Z"/><rect class="cls-1" x="9.59" y="36.5" width=".73" height="2.93"/><path class="cls-1" d="M9.96,35.33c-.25,0-.45,.2-.45,.45s.2,.45,.45,.45,.45-.2,.45-.45-.2-.45-.45-.45Z"/><rect class="cls-1" x="20.87" y="36.5" width=".73" height="2.93"/><path class="cls-1" d="M21.24,35.33c-.25,0-.45,.2-.45,.45s.2,.45,.45,.45,.45-.2,.45-.45-.2-.45-.45-.45Z"/><path class="cls-1" d="M18.66,39.25c.23,.15,.5,.22,.8,.22,.22,0,.41-.04,.57-.11,.16-.07,.29-.18,.39-.31,.09-.13,.14-.29,.14-.46,0-.21-.07-.38-.2-.53-.13-.14-.31-.25-.55-.32l-.45-.14c-.07-.02-.12-.04-.17-.07-.05-.02-.08-.05-.11-.09-.02-.03-.04-.07-.04-.12,0-.08,.03-.14,.09-.19,.06-.05,.15-.07,.26-.07,.14,0,.26,.04,.37,.11,.11,.07,.19,.17,.24,.3v.02l.57-.27v-.02c-.1-.24-.25-.42-.46-.55-.21-.13-.45-.2-.72-.2-.21,0-.39,.04-.56,.11-.16,.07-.29,.18-.38,.31-.09,.13-.14,.29-.14,.47,0,.2,.06,.38,.19,.52,.13,.15,.31,.26,.56,.33l.46,.13c.06,.02,.11,.04,.16,.06,.05,.02,.09,.05,.11,.09,.03,.03,.04,.07,.04,.12,0,.08-.03,.15-.1,.2-.07,.05-.16,.08-.28,.08-.15,0-.3-.04-.42-.13-.13-.09-.23-.21-.3-.37v-.02l-.56,.26v.02c.09,.25,.25,.45,.48,.6Z"/><path class="cls-1" d="M6.77,32.2c.09-.05,.19-.08,.3-.08s.22,.03,.3,.08c.09,.05,.15,.12,.2,.21,.05,.09,.07,.2,.07,.32v1.71h.7v-1.88c0-.21-.05-.41-.14-.57-.09-.16-.22-.29-.39-.39-.16-.09-.35-.14-.57-.14s-.39,.05-.54,.14c-.06,.04-.13,.09-.18,.16l-.05,.05v-1.47h-.7v4.09h.7v-1.68c0-.14,.03-.27,.07-.35,.05-.09,.12-.16,.2-.21Z"/><path class="cls-1" d="M4.75,39.47c.94,0,1.7-.76,1.7-1.7v-2.44h-.76v2.44c0,.52-.42,.95-.95,.95s-.95-.42-.95-.95v-2.44h-.76v2.44c0,.94,.76,1.7,1.7,1.7Z"/><path class="cls-1" d="M11.46,33.05c.01-.07,.01-.11,.01-.16,0-.19-.03-.38-.1-.54-.06-.17-.16-.32-.28-.45-.12-.13-.27-.23-.44-.31-.17-.07-.37-.11-.6-.11-.27,0-.51,.07-.73,.2-.22,.13-.39,.31-.51,.53-.12,.22-.19,.48-.19,.77s.06,.54,.19,.76c.12,.23,.3,.41,.52,.55,.22,.13,.48,.2,.78,.2,.2,0,.38-.03,.54-.09,.16-.06,.31-.14,.43-.25,.12-.11,.21-.23,.27-.37h0l-.57-.28h0c-.06,.12-.15,.21-.26,.27-.11,.07-.24,.1-.4,.1s-.3-.04-.42-.11c-.12-.07-.21-.18-.27-.31-.03-.07-.05-.15-.07-.23v-.03h2.06s.02-.06,.03-.14h0Zm-2.08-.4v-.03s.03-.09,.05-.13c.06-.14,.14-.24,.25-.31,.11-.07,.24-.11,.38-.11,.15,0,.28,.04,.38,.11,.11,.07,.18,.17,.23,.3,.02,.05,.03,.1,.04,.15v.03h-1.34Z"/><path class="cls-1" d="M23.46,32.89c0-.19-.03-.38-.1-.54-.06-.17-.16-.32-.28-.45-.12-.13-.27-.23-.44-.31-.17-.07-.37-.11-.6-.11-.27,0-.51,.07-.73,.2-.22,.13-.39,.31-.51,.53-.12,.22-.19,.48-.19,.77s.06,.54,.19,.76c.12,.23,.3,.41,.52,.55,.22,.13,.48,.2,.78,.2,.2,0,.38-.03,.54-.09,.16-.06,.31-.14,.43-.25,.12-.11,.21-.23,.27-.37h0l-.57-.29h0c-.06,.12-.15,.21-.26,.27-.11,.07-.24,.1-.4,.1s-.3-.04-.42-.11c-.12-.07-.21-.18-.27-.31-.03-.07-.05-.15-.07-.23v-.03h2.06s.02-.06,.03-.14c.01-.08,.01-.11,.01-.16Zm-2.09-.24v-.03s.03-.09,.05-.13c.06-.14,.14-.24,.25-.31,.11-.07,.24-.11,.38-.11,.15,0,.28,.04,.38,.11,.11,.07,.18,.17,.23,.3,.02,.05,.03,.1,.04,.15v.03h-1.34Z"/><path class="cls-1" d="M16.13,37.87c0-.19-.03-.38-.1-.54-.06-.17-.16-.32-.28-.45-.12-.13-.27-.23-.44-.31-.17-.07-.37-.11-.6-.11-.27,0-.51,.07-.73,.2-.22,.13-.39,.31-.51,.53-.12,.22-.19,.48-.19,.77s.06,.54,.19,.76c.12,.23,.3,.41,.52,.55,.22,.13,.48,.2,.78,.2,.2,0,.38-.03,.54-.09,.16-.06,.31-.14,.43-.25,.12-.11,.21-.23,.27-.37h0l-.57-.29h0c-.06,.12-.15,.21-.26,.27-.11,.07-.24,.1-.4,.1s-.3-.04-.42-.11c-.12-.07-.21-.18-.27-.31-.03-.07-.05-.15-.07-.23v-.03h2.06s.02-.06,.03-.14c.01-.08,.01-.11,.01-.16Zm-2.09-.24v-.03s.03-.09,.05-.13c.06-.14,.14-.24,.25-.31,.11-.07,.24-.11,.38-.11,.15,0,.28,.04,.38,.11,.11,.07,.18,.17,.23,.3,.02,.05,.03,.1,.04,.15v.03h-1.34Z"/><path class="cls-1" d="M22.35,39.19c.18,.19,.45,.28,.79,.28,.06,0,.12,0,.18-.01,.07,0,.12-.01,.18-.02h0v-.63h-.11s-.06,.02-.09,.02c-.12,0-.21-.02-.29-.05-.07-.04-.13-.09-.16-.16-.03-.07-.05-.15-.05-.25v-1.3h.47v-.56h-.47v-.71h-.68v.71h-.24v.56h.24v1.34c0,.39,.07,.62,.23,.79Z"/><path class="cls-1" d="M12.63,36.5l-.56,1.74s-.02,.08-.03,.12l-.04,.3-.04-.3s-.01-.08-.03-.12l-.56-1.74h-.79l1.1,2.93h.64l1.1-2.93h-.79Z"/><path class="cls-1" d="M25.54,36.5l-.6,1.74s-.02,.08-.03,.12l-.04,.3-.04-.3s-.01-.08-.03-.12l-.53-1.74h-.72l.76,2.72c.04,.14,.08,.19,.17,.21h.03l-.48,1.28h.75l1.54-4.21h-.8Z"/><path class="cls-1" d="M24.65,32.2c.09-.05,.19-.08,.3-.08s.22,.03,.3,.08c.09,.05,.15,.12,.2,.21,.05,.09,.07,.2,.07,.32v1.71h.7v-1.88c0-.21-.05-.41-.14-.57-.09-.16-.22-.29-.39-.39-.16-.09-.35-.14-.57-.14s-.39,.05-.54,.14c-.07,.04-.13,.09-.18,.15l-.03,.04v-.05s-.02-.02-.02-.04c-.04-.13-.13-.19-.28-.19h-.41v2.93h.7v-1.71c0-.13,.02-.24,.07-.33,.05-.09,.12-.16,.2-.21Z"/><path class="cls-1" d="M18.37,34.37c.17,.08,.37,.12,.57,.12,.28,0,.53-.07,.75-.2,.22-.13,.39-.31,.52-.54,.13-.23,.19-.49,.19-.76s-.07-.54-.19-.76c-.27-.47-.72-.74-1.23-.74-.2,0-.58,.04-.84,.29l-.03,.03v-.04s-.01-.02-.02-.04c-.04-.13-.13-.19-.28-.19h-.41v4.21h.7v-1.56l.04,.03c.07,.06,.15,.12,.24,.16Zm-.18-1.82c.07-.13,.16-.23,.28-.31,.12-.07,.26-.11,.41-.11s.3,.04,.42,.11c.12,.07,.22,.18,.29,.3,.07,.13,.1,.28,.1,.44s-.03,.32-.1,.45c-.07,.13-.16,.23-.29,.3-.12,.07-.26,.11-.42,.11s-.29-.04-.41-.11c-.12-.07-.21-.18-.28-.3-.07-.13-.1-.28-.1-.45s.03-.31,.1-.44Z"/><path class="cls-1" d="M7.72,37.18c.09-.05,.19-.08,.3-.08s.22,.03,.3,.08c.09,.05,.15,.12,.2,.21,.05,.09,.07,.2,.07,.32v1.71h.7v-1.88c0-.21-.05-.41-.14-.57-.09-.16-.22-.29-.39-.39-.16-.09-.35-.14-.57-.14s-.39,.05-.54,.14c-.07,.04-.13,.09-.18,.15l-.03,.04v-.05s-.02-.02-.02-.04c-.04-.13-.13-.19-.28-.19h-.41v2.93h.7v-1.71c0-.13,.02-.24,.07-.33,.05-.09,.12-.16,.2-.21Z"/><path class="cls-1" d="M17.83,37.1c.13,0,.22,.02,.26,.03v-.65s-.09-.03-.18-.03c-.15,0-.26,0-.4,.06-.11,.04-.22,.11-.34,.23l-.03,.03v-.04s-.01-.02-.02-.04c-.04-.13-.13-.19-.28-.19h-.41v2.93h.7v-1.61c0-.28,.15-.46,.21-.53,.12-.12,.3-.19,.49-.19Z"/></svg>