<?xml version="1.0" encoding="UTF-8"?><svg id="Layer_1" xmlns="http://www.w3.org/2000/svg" viewBox="0 0 113.39 187.09"><defs><style>.cls-1{fill:#fff;}</style></defs><path class="cls-1" d="M101.39,5.5H12.61c-4.01,0-7.26,3.25-7.26,7.26v63.76c0,28.53,23.12,51.65,51.65,51.65s51.65-23.12,51.65-51.65V12.76c.01-4.01-3.24-7.26-7.25-7.26Zm-58.1,61.43c-12.93,0-23.4-10.48-23.4-23.4s10.48-23.4,23.4-23.4,23.4,10.48,23.4,23.4-10.48,23.4-23.4,23.4Z"/><polygon class="cls-1" points="16.61 137.52 4.11 137.52 4.11 140.52 8.69 140.52 8.69 155.94 12.1 155.94 12.1 140.52 16.61 140.52 16.61 137.52"/><path class="cls-1" d="M59.93,137.52c-4.89,0-8.88,4.15-8.88,9.24s3.98,9.25,8.88,9.25,8.88-4.15,8.88-9.25-3.98-9.24-8.88-9.24Zm0,15.08c-3.02,0-5.47-2.62-5.47-5.84s2.45-5.84,5.47-5.84,5.47,2.62,5.47,5.84-2.45,5.84-5.47,5.84Z"/><rect class="cls-1" x="34.93" y="165.14" width="3.29" height="13.18"/><path class="cls-1" d="M36.57,159.87c-1.11,0-2.02,.9-2.02,2.02s.9,2.02,2.02,2.02,2.02-.9,2.02-2.02-.9-2.02-2.02-2.02Z"/><rect class="cls-1" x="85.68" y="165.14" width="3.29" height="13.18"/><path class="cls-1" d="M87.32,159.87c-1.11,0-2.02,.9-2.02,2.02s.9,2.02,2.02,2.02,2.02-.9,2.02-2.02-.9-2.02-2.02-2.02Z"/><path class="cls-1" d="M75.73,177.52c1.02,.66,2.24,.99,3.62,.99,.98,0,1.85-.17,2.58-.5,.74-.34,1.32-.81,1.73-1.41,.42-.6,.63-1.31,.63-2.09,0-.93-.3-1.73-.89-2.37-.58-.64-1.42-1.12-2.48-1.44l-2.04-.61c-.3-.09-.56-.19-.77-.3-.21-.1-.38-.23-.49-.39-.11-.15-.17-.34-.17-.55,0-.34,.13-.62,.41-.83,.28-.22,.67-.33,1.16-.33,.62,0,1.18,.17,1.68,.5,.5,.33,.85,.78,1.06,1.34l.04,.11,2.54-1.19-.03-.09c-.4-1.07-1.08-1.91-2.02-2.5-.94-.59-2.03-.89-3.25-.89-.93,0-1.78,.17-2.5,.5-.73,.34-1.3,.81-1.71,1.41-.41,.6-.62,1.31-.62,2.11,0,.9,.29,1.69,.86,2.35,.57,.65,1.41,1.15,2.51,1.47l2.09,.59c.26,.08,.5,.17,.72,.29,.21,.11,.38,.24,.51,.4,.12,.15,.18,.33,.18,.56,0,.38-.15,.67-.45,.9-.31,.24-.74,.35-1.27,.35-.7,0-1.34-.2-1.9-.59-.57-.39-1.02-.95-1.34-1.65l-.04-.1-2.48,1.19,.03,.09c.38,1.13,1.1,2.04,2.12,2.7Z"/><path class="cls-1" d="M22.23,145.81c.39-.23,.84-.34,1.34-.34s.97,.11,1.35,.34c.38,.23,.69,.55,.91,.95,.22,.41,.33,.9,.33,1.46v7.71h3.16v-8.45c0-.97-.21-1.83-.62-2.57-.41-.74-1-1.32-1.73-1.73-.74-.41-1.59-.62-2.54-.62s-1.73,.21-2.43,.61c-.28,.16-.57,.42-.82,.73l-.2,.25v-6.64h-3.16v18.42h3.16v-7.57c0-.61,.13-1.22,.33-1.6,.22-.41,.53-.73,.92-.95Z"/><path class="cls-1" d="M13.12,178.51c4.23,0,7.66-3.44,7.66-7.66v-10.97h-3.41v10.97c0,2.35-1.91,4.25-4.25,4.25s-4.25-1.91-4.25-4.25v-10.97h-3.41v10.97c0,4.23,3.44,7.66,7.66,7.66Z"/><path class="cls-1" d="M43.33,149.64c.05-.34,.05-.51,.05-.72,0-.87-.14-1.69-.43-2.45-.29-.75-.7-1.43-1.24-2.02-.54-.59-1.2-1.05-1.97-1.39-.77-.33-1.67-.5-2.68-.5-1.2,0-2.31,.3-3.28,.88-.97,.59-1.75,1.39-2.32,2.4-.56,1-.85,2.17-.85,3.47s.28,2.41,.83,3.44c.55,1.03,1.34,1.86,2.34,2.46,1,.6,2.18,.91,3.51,.91,.89,0,1.71-.14,2.45-.41,.74-.27,1.38-.65,1.92-1.12,.54-.48,.94-1.03,1.2-1.65v-.02l-2.56-1.26v.02c-.29,.5-.69,.91-1.18,1.2-.49,.3-1.1,.45-1.8,.45s-1.34-.17-1.88-.49c-.54-.33-.95-.8-1.23-1.4-.15-.32-.25-.68-.3-1.06l-.02-.13h9.29c.03-.08,.09-.26,.14-.61h0Zm-9.36-1.82l.03-.14c.05-.21,.11-.41,.19-.59,.26-.62,.64-1.09,1.14-1.41,.5-.32,1.08-.48,1.72-.48,.67,0,1.25,.17,1.73,.49,.48,.33,.82,.78,1.04,1.34,.08,.21,.13,.43,.16,.67l.02,.13h-6.03Z"/><path class="cls-1" d="M97.31,148.92c0-.87-.14-1.69-.43-2.45-.29-.75-.7-1.43-1.24-2.02-.54-.59-1.2-1.05-1.97-1.39-.77-.33-1.67-.5-2.69-.5-1.2,0-2.31,.3-3.28,.88-.97,.59-1.75,1.39-2.32,2.4-.56,1.01-.85,2.17-.85,3.47s.28,2.41,.83,3.44c.55,1.03,1.34,1.86,2.34,2.46,1,.6,2.18,.91,3.51,.91,.89,0,1.71-.14,2.45-.41,.74-.27,1.38-.65,1.92-1.12,.54-.48,.94-1.03,1.2-1.65v-.02l-2.56-1.26v.02c-.3,.5-.69,.91-1.18,1.2-.49,.3-1.1,.45-1.8,.45s-1.34-.17-1.88-.49c-.54-.33-.95-.8-1.23-1.4-.15-.32-.25-.68-.3-1.06l-.02-.13h9.29c.03-.08,.09-.26,.14-.61,.05-.34,.05-.51,.05-.72Zm-9.41-1.1l.03-.14c.05-.21,.11-.41,.19-.59,.26-.62,.64-1.09,1.14-1.41,.5-.32,1.08-.48,1.72-.48,.67,0,1.25,.17,1.73,.49,.48,.33,.82,.78,1.04,1.34,.08,.21,.13,.43,.16,.67l.02,.13h-6.03Z"/><path class="cls-1" d="M64.33,171.3c0-.87-.14-1.69-.43-2.45-.29-.75-.7-1.43-1.24-2.02-.54-.59-1.2-1.05-1.97-1.39-.77-.33-1.67-.5-2.68-.5-1.2,0-2.31,.3-3.28,.88-.97,.59-1.75,1.39-2.32,2.4-.56,1.01-.85,2.17-.85,3.47s.28,2.41,.83,3.44c.55,1.03,1.34,1.86,2.34,2.46,1,.6,2.18,.91,3.51,.91,.89,0,1.71-.14,2.45-.41,.74-.27,1.38-.65,1.92-1.12,.54-.48,.94-1.03,1.2-1.65v-.02l-2.56-1.26v.02c-.3,.5-.69,.91-1.18,1.2-.49,.3-1.1,.45-1.8,.45s-1.34-.17-1.88-.49c-.54-.33-.95-.8-1.23-1.4-.15-.32-.25-.68-.3-1.06l-.02-.13h9.29c.03-.08,.09-.26,.14-.61,.05-.34,.05-.51,.05-.72Zm-9.41-1.1l.03-.14c.05-.21,.11-.41,.19-.59,.26-.62,.64-1.09,1.14-1.41,.5-.32,1.08-.48,1.72-.48,.67,0,1.25,.17,1.73,.49,.48,.33,.82,.78,1.04,1.34,.08,.21,.13,.43,.16,.67l.02,.13h-6.03Z"/><path class="cls-1" d="M92.35,177.25c.83,.83,2.02,1.25,3.54,1.25,.25,0,.53-.02,.82-.05,.3-.03,.56-.07,.79-.1h.02v-2.82l-.48,.05c-.15,.02-.29,.02-.41,.02-.52,0-.95-.08-1.29-.25-.33-.16-.58-.4-.73-.71-.15-.31-.23-.69-.23-1.13v-5.87h2.12v-2.54h-2.12v-3.21h-3.07v3.21h-1.06v2.54h1.06v6.04c0,1.78,.3,2.8,1.04,3.54Z"/><path class="cls-1" d="M48.6,165.14l-2.53,7.84c-.06,.18-.1,.37-.13,.56l-.17,1.34-.17-1.34c-.02-.19-.07-.38-.12-.56l-2.53-7.84h-3.58l4.95,13.18h2.9l4.95-13.18h-3.58Z"/><path class="cls-1" d="M106.68,165.14l-2.69,7.84c-.06,.18-.1,.37-.12,.56l-.17,1.34-.17-1.34c-.02-.19-.07-.38-.13-.56l-2.38-7.84h-3.23l3.43,12.25c.17,.61,.36,.85,.74,.93l.13,.03-2.17,5.73h3.38l6.95-18.94h-3.58Z"/><path class="cls-1" d="M102.69,145.81c.39-.23,.84-.34,1.34-.34s.97,.11,1.35,.34c.38,.23,.69,.55,.91,.95,.22,.41,.33,.9,.33,1.46v7.7h3.16v-8.44c0-.97-.21-1.83-.62-2.57-.41-.74-1-1.32-1.73-1.73-.74-.41-1.59-.62-2.54-.62s-1.73,.21-2.43,.61c-.3,.17-.58,.41-.82,.67l-.15,.17-.05-.22s-.02-.1-.05-.18c-.19-.58-.6-.87-1.26-.87h-1.86v13.18h3.16v-7.7c0-.57,.11-1.06,.33-1.46,.22-.41,.53-.73,.92-.95Z"/><path class="cls-1" d="M74.43,155.55c.78,.37,1.65,.56,2.59,.56,1.25,0,2.38-.3,3.36-.89,.98-.59,1.77-1.41,2.34-2.44,.57-1.03,.86-2.18,.86-3.43s-.29-2.42-.87-3.43c-1.22-2.12-3.24-3.34-5.55-3.34-.92,0-2.63,.17-3.8,1.29l-.15,.14-.04-.2s-.02-.1-.05-.18c-.19-.58-.6-.87-1.26-.87h-1.86v18.94h3.16v-7.01l.19,.16c.33,.29,.69,.52,1.08,.71Zm-.81-8.2c.3-.59,.73-1.05,1.27-1.38,.54-.33,1.15-.49,1.83-.49s1.34,.17,1.88,.51c.55,.34,.98,.8,1.28,1.37,.31,.57,.46,1.24,.46,1.99s-.15,1.43-.46,2c-.3,.58-.74,1.04-1.28,1.37-.55,.33-1.18,.49-1.89,.49s-1.29-.17-1.83-.49c-.54-.33-.97-.79-1.27-1.37-.31-.58-.46-1.25-.46-2.01s.15-1.41,.46-1.99Z"/><path class="cls-1" d="M26.5,168.2c.39-.23,.84-.34,1.34-.34s.97,.11,1.35,.34c.38,.23,.69,.55,.91,.95,.22,.41,.33,.9,.33,1.46v7.7h3.16v-8.44c0-.97-.21-1.83-.62-2.57-.41-.74-1-1.32-1.73-1.73-.74-.41-1.59-.62-2.54-.62s-1.73,.21-2.43,.61c-.3,.17-.58,.41-.82,.67l-.15,.17-.05-.22s-.02-.1-.05-.18c-.19-.58-.6-.87-1.26-.87h-1.86v13.18h3.16v-7.7c0-.57,.11-1.06,.33-1.46,.22-.41,.53-.73,.92-.95Z"/><path class="cls-1" d="M71.98,167.87c.58,0,.98,.07,1.19,.12v-2.92c-.12-.04-.4-.12-.82-.12-.65,0-1.19,.04-1.8,.27-.5,.18-1,.51-1.53,1.03l-.15,.14-.04-.2s-.02-.1-.05-.18c-.19-.58-.6-.87-1.26-.87h-1.86v13.18h3.16v-7.23c0-1.27,.67-2.09,.96-2.38,.53-.54,1.33-.85,2.21-.85Z"/></svg>