<?xml version="1.0" encoding="UTF-8"?><svg id="Layer_1" xmlns="http://www.w3.org/2000/svg" viewBox="0 0 1024 1130.87"><defs><style>.cls-1{fill:#0080c4;}.cls-2{fill:#36b07f;}.cls-3{fill:#da292e;}.cls-4{fill:#adb5be;}</style></defs><g><rect class="cls-3" x="66.48" y="359.03" width="452.81" height="160.7" rx="47.12" ry="47.12" transform="translate(-234.07 473.33) rotate(-60)"/><rect class="cls-1" x="504.64" y="612" width="452.81" height="160.7" rx="46.93" ry="46.93" transform="translate(-234.07 979.28) rotate(-60)"/><rect class="cls-2" x="139.5" y="485.52" width="744.92" height="160.7" rx="46.92" ry="46.92" transform="translate(-234.07 726.31) rotate(-60)"/></g><path class="cls-4" d="M110.74,90.23l2.93,6.15c-12.89,5.08-23,10.55-30.32,16.41s-13.72,13.48-19.19,22.85c-8.01,13.87-12.7,27.44-14.06,40.72,5.47-1.76,10.15-2.64,14.06-2.64,10.74,0,19.48,3.22,26.22,9.67s10.11,14.65,10.11,24.61-3.37,18.41-10.11,25.34c-6.74,6.94-14.9,10.4-24.46,10.4-11.72,0-21.19-4.69-28.42-14.06-7.23-9.38-10.84-21.68-10.84-36.91s3.66-30.37,10.99-45.41c7.32-15.04,16.94-27.34,28.86-36.91,12.89-10.15,27.64-16.89,44.24-20.21Zm100.2,0l2.64,6.15c-12.89,5.08-23,10.55-30.32,16.41s-13.62,13.48-18.9,22.85c-8.2,13.87-12.99,27.44-14.36,40.72,5.47-1.76,10.15-2.64,14.06-2.64,10.74,0,19.48,3.22,26.22,9.67s10.11,14.65,10.11,24.61-3.37,18.41-10.11,25.34c-6.74,6.94-14.9,10.4-24.46,10.4-11.72,0-21.19-4.69-28.42-14.06-7.23-9.38-10.84-21.68-10.84-36.91s3.66-30.37,10.99-45.41c7.32-15.04,17.04-27.34,29.15-36.91,12.69-10.15,27.44-16.89,44.24-20.21Z"/><path class="cls-4" d="M813.06,1040.63l-2.64-6.15c12.89-5.08,23-10.55,30.32-16.41s13.62-13.48,18.9-22.85c8.2-13.87,12.99-27.44,14.36-40.72-5.46,1.76-10.15,2.64-14.06,2.64-10.74,0-19.48-3.22-26.22-9.67s-10.11-14.65-10.11-24.61,3.37-18.41,10.11-25.34c6.74-6.94,14.9-10.4,24.46-10.4,11.72,0,21.2,4.69,28.42,14.06,7.23,9.38,10.84,21.68,10.84,36.91s-3.66,30.37-10.99,45.41c-7.32,15.04-17.04,27.34-29.15,36.91-12.69,10.15-27.44,16.89-44.24,20.21Zm100.2,0l-2.93-6.15c12.89-5.08,23-10.55,30.32-16.41s13.72-13.48,19.19-22.85c8.01-13.87,12.7-27.44,14.06-40.72-5.46,1.76-10.15,2.64-14.06,2.64-10.74,0-19.48-3.22-26.22-9.67s-10.11-14.65-10.11-24.61,3.37-18.41,10.11-25.34c6.74-6.94,14.9-10.4,24.46-10.4,11.72,0,21.2,4.69,28.42,14.06,7.23,9.38,10.84,21.68,10.84,36.91s-3.66,30.37-10.99,45.41c-7.32,15.04-16.94,27.34-28.86,36.91-12.89,10.15-27.63,16.89-44.24,20.21Z"/></svg>